<svg width="68" height="245" viewBox="0 0 68 245" fill="none" xmlns="http://www.w3.org/2000/svg">
<path d="M31.7167 6.6674C32.4446 5.9696 32.4689 4.81393 31.771 4.08616C31.0731 3.3584 29.9172 3.33413 29.1893 4.03194C28.4614 4.72975 28.4372 5.88539 29.1351 6.61316C29.833 7.34092 30.9889 7.36521 31.7167 6.6674Z" fill="url(#paint0_linear_16_791)"/>
<path d="M33.8885 44.1878C32.8759 42.5627 31.1774 42.0479 29.1071 41.2705C28.6261 41.0882 28.2798 40.748 28.0682 40.2497C27.9148 39.8954 27.8982 39.4476 28.0183 38.9065C30.9254 25.6299 33.6452 13.9928 36.1776 3.99522C37.1559 0.135442 42.0243 -1.25051 45.0297 1.27946C47.6378 3.4715 48.0408 7.58456 45.8867 10.1488C45.1454 11.028 44.365 11.8871 43.5454 12.7262C42.0624 14.241 43.2447 18.785 43.9462 20.9812C45.0772 24.516 45.8269 27.2229 46.1952 29.1017C46.5023 30.6576 46.6593 32.7811 46.6662 35.4723C46.6669 35.5457 46.6476 35.6178 46.6103 35.6806C46.573 35.7433 46.5192 35.7944 46.4548 35.8281C45.2246 36.475 43.6749 37.122 42.7474 37.918C41.4093 39.0633 40.74 40.6168 40.7396 42.5784C40.7537 76.3986 40.7573 120.106 40.7501 173.701C40.7498 173.808 40.7205 173.913 40.6653 174.005C40.6101 174.096 40.5311 174.171 40.4367 174.221C38.0135 175.519 34.5495 175.406 31.8614 175.081C30.9168 174.966 30.0762 174.696 29.3398 174.27C29.2455 174.216 29.1678 174.138 29.1152 174.044C29.0627 173.95 29.0373 173.844 29.0417 173.737L34.1685 45.2572C34.1853 44.8812 34.0877 44.5084 33.8885 44.1878Z" fill="url(#paint1_linear_16_791)"/>
<path d="M29.3213 16.2192C30.0491 15.5214 30.0734 14.3657 29.3755 13.6379C28.6776 12.9102 27.5217 12.8859 26.7938 13.5837C26.066 14.2815 26.0417 15.4372 26.7396 16.1649C27.4375 16.8927 28.5934 16.917 29.3213 16.2192Z" fill="url(#paint2_linear_16_791)"/>
<path d="M27.1785 25.9941C27.9083 25.2944 27.9327 24.1357 27.2329 23.406C26.5331 22.6764 25.3742 22.652 24.6444 23.3517C23.9146 24.0513 23.8903 25.21 24.59 25.9397C25.2898 26.6694 26.4487 26.6937 27.1785 25.9941Z" fill="url(#paint3_linear_16_791)"/>
<path d="M24.7056 35.7992C25.4354 35.0996 25.4598 33.9409 24.76 33.2112C24.0602 32.4816 22.9013 32.4572 22.1715 33.1568C21.4417 33.8565 21.4174 35.0152 22.1171 35.7449C22.8169 36.4745 23.9758 36.4989 24.7056 35.7992Z" fill="url(#paint4_linear_16_791)"/>
<path d="M59.0983 158.667C58.0007 158.502 57.4181 159.539 57.3335 160.492C57.1821 162.199 56.9988 163.484 56.7835 164.347C55.2027 170.682 49.5558 173.852 43.3707 172.234C43.1206 172.168 43.0006 172.005 43.0105 171.747L43.0295 171.33C43.0396 171.063 43.1635 170.991 43.4011 171.113C44.3132 171.588 45.0368 171.817 45.5718 171.801C50.2962 171.665 53.4666 169.469 55.0831 165.212C55.9754 162.859 55.5488 157.77 59.0638 157.722C63.2417 157.664 64.0828 164.858 63.9788 168.026C63.8261 172.489 62.8432 176.569 61.0301 180.264C59.636 183.1 58.8284 184.928 58.6073 185.748C57.6416 189.329 58.2161 192.073 59.673 195.675C60.2394 197.08 61.3413 199.518 62.9789 202.989C64.0656 205.293 65.1265 208.067 66.1616 211.312C68.6138 218.985 69.2041 229.055 64.1899 235.919C61.0525 240.209 56.7775 242.894 51.3649 243.974C49.158 244.417 47.0882 244.693 45.1556 244.802C40.6642 245.065 34.7622 245.066 27.4498 244.804C22.9492 244.641 18.8419 243.929 15.1279 242.666C8.21504 240.316 3.60593 235.668 1.30057 228.719C-0.968768 221.89 -0.140682 215.152 2.79368 208.612C3.93225 206.074 5.46759 202.929 7.3997 199.178C11.6962 190.834 12.5463 182.134 9.9499 173.078C8.75932 168.928 7.29648 164.473 6.65803 160.732C5.63161 154.754 5.05855 140.787 11.9248 137.646C15.346 136.077 16.5107 140.005 16.8764 142.656C17.0257 143.742 17.3029 146.239 17.7079 150.146C17.9017 152.028 18.7634 153.931 20.2931 155.854C22.1184 158.155 24.3926 158.986 27.1157 158.345C27.3047 158.302 27.3948 158.377 27.3862 158.572L27.3141 160.385C27.3001 160.731 27.1606 160.792 26.8957 160.566C26.0363 159.846 25.0964 159.562 24.0759 159.715C22.2042 159.999 21.4466 162.249 21.8991 163.846C22.7954 167.011 23.274 169.734 23.3349 172.014C23.446 176.211 22.9985 180.363 21.9924 184.469C21.1673 187.829 19.9851 190.72 18.357 195.096C16.9667 198.834 16.5767 202.62 17.1872 206.454C17.5927 208.987 18.8798 211.78 21.3066 212.895C21.9506 213.191 23.1649 213.358 24.9494 213.396C37.2211 213.665 44.9265 213.826 48.0655 213.878C51.8499 213.944 54.4428 217.508 54.979 221.101C55.8309 226.811 54.5577 232.039 51.1592 236.783C50.438 237.79 50.0125 238.524 49.8827 238.986C49.5861 240.055 49.9874 240.955 51.0868 241.685C52.2219 242.438 53.5983 242.543 55.2161 241.999C59.2067 240.663 62.3144 238.056 64.5392 234.18C66.9379 230.003 67.4133 225.654 67.2763 220.693C67.1833 217.357 66.67 214.506 65.7364 212.139C63.5385 206.548 62.1463 203.152 61.5598 201.953C58.4477 195.605 55.247 189.755 58.6715 182.691C59.9409 180.072 60.7637 178.276 61.1399 177.303C63.2603 171.816 64.0746 165.571 61.4977 160.44C60.9866 159.426 60.1868 158.835 59.0983 158.667ZM43.3434 232.385C43.3586 231.661 43.0857 230.962 42.5847 230.439C42.0838 229.917 41.3958 229.615 40.6721 229.6L26.6925 229.306C25.9688 229.291 25.2688 229.563 24.7463 230.064C24.2238 230.565 23.9217 231.253 23.9065 231.977L23.7598 238.96C23.7446 239.684 24.0175 240.384 24.5184 240.906C25.0194 241.429 25.7074 241.731 26.4311 241.746L40.4106 242.04C41.1343 242.055 41.8344 241.782 42.3568 241.281C42.8793 240.78 43.1814 240.092 43.1966 239.369L43.3434 232.385Z" fill="url(#paint5_linear_16_791)"/>
<path d="M57.3307 239.054C57.777 238.515 57.9507 237.905 57.8517 237.223C57.6029 235.478 56.4995 234.723 54.5416 234.958C54.369 234.982 54.3216 234.916 54.3997 234.762C56.6035 230.368 57.3803 225.856 56.73 221.226C56.2163 217.532 54.2442 214.185 50.7368 212.742C49.8877 212.393 48.6627 212.198 47.0618 212.158C43.7534 212.077 36.0547 211.923 23.9656 211.697C20.7893 211.64 19.4504 209.21 18.9385 206.399C18.3105 202.972 18.6384 199.441 19.9224 195.805C20.9849 192.79 22.934 188.179 23.8144 184.127C24.0474 183.065 24.2929 181.733 24.5508 180.133C25.482 174.417 25.1583 168.854 23.5795 163.446C23.4019 162.844 23.4711 162.299 23.7872 161.809C23.9108 161.617 24.0977 161.473 24.3153 161.405C24.533 161.336 24.7675 161.346 24.9778 161.433C25.7572 161.755 26.444 162.226 27.0381 162.846C27.0916 162.899 27.1336 162.964 27.1613 163.034C27.189 163.105 27.202 163.181 27.1994 163.257C27.0849 166.335 26.9503 169.666 26.7957 173.248C26.7545 174.131 26.8423 174.752 27.059 175.112C27.9845 176.674 30.3209 177.243 32.0747 177.392C35.1719 177.658 41.9794 177.961 43.0686 174.161C43.0858 174.098 43.1273 174.044 43.1843 174.01C43.2414 173.976 43.3096 173.966 43.3748 173.981C48.374 175.105 53.4024 173.552 56.3959 169.371C57.6587 167.606 58.4152 165.729 58.6654 163.741C58.7546 163.052 58.8571 162.007 58.9726 160.605C58.9878 160.422 59.0725 160.38 59.2267 160.481C59.6581 160.76 59.9062 160.974 59.971 161.125C61.03 163.558 61.5106 165.757 61.4126 167.724C61.2152 171.724 60.3868 175.19 58.9273 178.12C57.6406 180.702 56.7219 182.801 56.1714 184.416C55.7298 185.704 55.3562 187.793 55.4773 189.308C55.7202 192.412 56.2813 194.873 57.1606 196.693C60.4845 203.583 62.8654 209.094 64.3033 213.227C65.1151 215.564 65.5439 218.177 65.5896 221.066C65.6596 225.498 65.296 229.214 63.2625 232.994C61.8596 235.604 59.9111 237.656 57.417 239.151C57.1967 239.282 57.1679 239.25 57.3307 239.054ZM37.4695 201.739L37.667 196.871C37.6866 196.368 37.4451 196.107 36.9426 196.088L24.9868 195.609C24.7609 195.6 24.5408 195.681 24.3746 195.834C24.2083 195.988 24.1095 196.2 24.0996 196.426L23.8549 202.571C23.8451 202.806 23.9295 203.036 24.0896 203.209C24.2497 203.383 24.4724 203.486 24.7089 203.496L31.4662 203.76C31.5219 203.764 31.5742 203.789 31.6115 203.83C31.6488 203.872 31.6682 203.926 31.6654 203.982L31.4693 208.949C31.4459 209.522 31.7217 209.819 32.2968 209.84L44.497 210.33C44.7166 210.338 44.9303 210.259 45.0913 210.109C45.2524 209.96 45.3478 209.753 45.3565 209.533L45.5994 203.476C45.6284 202.743 45.2762 202.362 44.5427 202.333L37.772 202.062C37.5637 202.053 37.4629 201.945 37.4695 201.739ZM62.0105 214.467C61.4636 213.896 60.7126 213.567 59.9227 213.55C59.1328 213.534 58.3686 213.831 57.7983 214.378C57.5159 214.649 57.2896 214.973 57.1323 215.331C56.975 215.689 56.8899 216.074 56.8817 216.466C56.8734 216.857 56.9423 217.245 57.0844 217.61C57.2265 217.974 57.439 218.307 57.7098 218.59C57.9805 218.872 58.3043 219.098 58.6625 219.255C59.0207 219.413 59.4064 219.498 59.7975 219.506C60.1887 219.514 60.5776 219.445 60.9421 219.303C61.3066 219.161 61.6396 218.949 61.9219 218.678C62.4923 218.131 62.822 217.38 62.8386 216.591C62.8552 215.801 62.5573 215.037 62.0105 214.467ZM63.2144 225.905C62.6675 225.335 61.9166 225.005 61.1266 224.989C60.3367 224.972 59.5725 225.27 59.0022 225.817C58.4319 226.364 58.1022 227.114 58.0856 227.904C58.069 228.694 58.3669 229.458 58.9137 230.028C59.4605 230.598 60.2115 230.928 61.0015 230.945C61.7914 230.961 62.5556 230.663 63.1259 230.117C63.6962 229.57 64.0259 228.819 64.0425 228.029C64.0591 227.24 63.7612 226.475 63.2144 225.905Z" fill="url(#paint6_linear_16_791)"/>
<path d="M35.8653 203.197C35.91 203.347 36.0001 203.479 36.123 203.575C36.2459 203.671 36.3955 203.725 36.5507 203.731L43.6338 204.016C43.6651 204.017 43.696 204.024 43.7246 204.037C43.7531 204.05 43.7788 204.068 43.8002 204.091C43.8216 204.114 43.8381 204.141 43.8489 204.17C43.8597 204.2 43.8646 204.231 43.8632 204.262L43.699 208.353C43.6936 208.5 43.6174 208.571 43.4702 208.566L33.3582 208.163C33.3115 208.161 33.2675 208.14 33.2358 208.106C33.204 208.072 33.1871 208.026 33.1887 207.979L33.381 203.196C33.4098 202.476 33.0642 202.102 32.3443 202.073L25.8452 201.814C25.6777 201.806 25.5968 201.72 25.6026 201.554L25.7595 197.643C25.766 197.442 25.87 197.344 26.0715 197.351L35.7353 197.737C35.8394 197.744 35.8915 197.799 35.8916 197.9C35.8812 199.583 35.8472 201.091 35.7897 202.424C35.7787 202.732 35.8039 202.99 35.8653 203.197Z" fill="url(#paint7_linear_16_791)"/>
<path d="M40.6062 231.304L26.6459 231.011C26.0728 230.999 25.5985 231.453 25.5864 232.026L25.4402 238.981C25.4282 239.554 25.883 240.028 26.4561 240.04L40.4164 240.334C40.9895 240.346 41.4639 239.891 41.4759 239.318L41.6221 232.363C41.6341 231.79 41.1793 231.316 40.6062 231.304Z" fill="url(#paint8_linear_16_791)"/>
<path d="M60.7378 217.444C61.2416 216.961 61.2584 216.161 60.7754 215.657C60.2923 215.154 59.4924 215.137 58.9886 215.62C58.4848 216.103 58.468 216.903 58.9511 217.406C59.4341 217.91 60.2341 217.927 60.7378 217.444Z" fill="url(#paint9_linear_16_791)"/>
<path d="M61.9381 228.879C62.4419 228.396 62.4587 227.596 61.9757 227.092C61.4927 226.589 60.6927 226.572 60.1889 227.055C59.6851 227.538 59.6683 228.338 60.1514 228.841C60.6344 229.345 61.4344 229.362 61.9381 228.879Z" fill="url(#paint10_linear_16_791)"/>
<path d="M55.8999 238.069C56.2409 237.742 56.2523 237.201 55.9254 236.86C55.5984 236.519 55.057 236.508 54.716 236.834C54.3751 237.161 54.3637 237.703 54.6906 238.044C55.0176 238.384 55.559 238.396 55.8999 238.069Z" fill="url(#paint11_linear_16_791)"/>
<defs>
<linearGradient id="paint0_linear_16_791" x1="34" y1="0" x2="34" y2="245" gradientUnits="userSpaceOnUse">
<stop stop-color="#737373"/>
<stop offset="1" stop-color="#3A3A3A"/>
</linearGradient>
<linearGradient id="paint1_linear_16_791" x1="34" y1="0" x2="34" y2="245" gradientUnits="userSpaceOnUse">
<stop stop-color="#737373"/>
<stop offset="1" stop-color="#3A3A3A"/>
</linearGradient>
<linearGradient id="paint2_linear_16_791" x1="34" y1="0" x2="34" y2="245" gradientUnits="userSpaceOnUse">
<stop stop-color="#737373"/>
<stop offset="1" stop-color="#3A3A3A"/>
</linearGradient>
<linearGradient id="paint3_linear_16_791" x1="34" y1="0" x2="34" y2="245" gradientUnits="userSpaceOnUse">
<stop stop-color="#737373"/>
<stop offset="1" stop-color="#3A3A3A"/>
</linearGradient>
<linearGradient id="paint4_linear_16_791" x1="34" y1="0" x2="34" y2="245" gradientUnits="userSpaceOnUse">
<stop stop-color="#737373"/>
<stop offset="1" stop-color="#3A3A3A"/>
</linearGradient>
<linearGradient id="paint5_linear_16_791" x1="34" y1="0" x2="34" y2="245" gradientUnits="userSpaceOnUse">
<stop stop-color="#737373"/>
<stop offset="1" stop-color="#3A3A3A"/>
</linearGradient>
<linearGradient id="paint6_linear_16_791" x1="34" y1="0" x2="34" y2="245" gradientUnits="userSpaceOnUse">
<stop stop-color="#737373"/>
<stop offset="1" stop-color="#3A3A3A"/>
</linearGradient>
<linearGradient id="paint7_linear_16_791" x1="34" y1="0" x2="34" y2="245" gradientUnits="userSpaceOnUse">
<stop stop-color="#737373"/>
<stop offset="1" stop-color="#3A3A3A"/>
</linearGradient>
<linearGradient id="paint8_linear_16_791" x1="34" y1="0" x2="34" y2="245" gradientUnits="userSpaceOnUse">
<stop stop-color="#737373"/>
<stop offset="1" stop-color="#3A3A3A"/>
</linearGradient>
<linearGradient id="paint9_linear_16_791" x1="34" y1="0" x2="34" y2="245" gradientUnits="userSpaceOnUse">
<stop stop-color="#737373"/>
<stop offset="1" stop-color="#3A3A3A"/>
</linearGradient>
<linearGradient id="paint10_linear_16_791" x1="34" y1="0" x2="34" y2="245" gradientUnits="userSpaceOnUse">
<stop stop-color="#737373"/>
<stop offset="1" stop-color="#3A3A3A"/>
</linearGradient>
<linearGradient id="paint11_linear_16_791" x1="34" y1="0" x2="34" y2="245" gradientUnits="userSpaceOnUse">
<stop stop-color="#737373"/>
<stop offset="1" stop-color="#3A3A3A"/>
</linearGradient>
</defs>
</svg>
