<svg width="99" height="167" viewBox="0 0 99 167" fill="none" xmlns="http://www.w3.org/2000/svg">
<path d="M37 119.023C24.0213 119.023 13.5 129.544 13.5 142.523C13.5 155.501 24.0213 166.023 37 166.023C49.9787 166.023 60.5 155.501 60.5 142.523C60.5 129.544 49.9787 119.023 37 119.023Z" fill="url(#paint0_linear_6_85)" stroke="black"/>
<rect x="-0.5" y="0.5" width="2.99999" height="113" transform="matrix(-1 -8.74228e-08 -8.74228e-08 1 38 29)" fill="url(#paint1_linear_6_85)" stroke="black"/>
<rect x="-0.612372" y="-0.353553" width="2.85752" height="82.6142" transform="matrix(-0.258819 -0.965926 -0.965926 0.258819 80.6513 17.5026)" fill="url(#paint2_linear_6_85)" stroke="black"/>
<path d="M77.5991 2.28573L71.6606 5.7143L81.8074 23.289L80.3851 29.9684C80.3851 29.9684 85.4395 32.3228 87.3881 32.9551C89.3367 33.5873 92.9453 32.6757 93.3266 29.5265L94.2415 21.9684L87.7459 19.8604L77.5991 2.28573Z" fill="url(#paint3_linear_6_85)"/>
<path d="M87.7459 19.8604L77.5991 2.28573L71.6606 5.7143L81.8074 23.289M87.7459 19.8604L94.2415 21.9684C94.2415 21.9684 93.7078 26.3773 93.3266 29.5265C92.9453 32.6757 89.3367 33.5873 87.3881 32.9551C85.4395 32.3228 80.3851 29.9684 80.3851 29.9684L81.8074 23.289M87.7459 19.8604L81.8074 23.289" stroke="black"/>
<defs>
<linearGradient id="paint0_linear_6_85" x1="37" y1="118.523" x2="37" y2="166.523" gradientUnits="userSpaceOnUse">
<stop stop-color="#B2B2B2"/>
<stop offset="1" stop-color="#141414"/>
</linearGradient>
<linearGradient id="paint1_linear_6_85" x1="1.99999" y1="0" x2="1.99999" y2="114" gradientUnits="userSpaceOnUse">
<stop stop-color="#8B8B8B"/>
<stop offset="1" stop-color="#737373"/>
</linearGradient>
<linearGradient id="paint2_linear_6_85" x1="1.92876" y1="0" x2="1.92876" y2="83.6142" gradientUnits="userSpaceOnUse">
<stop stop-color="#8B8B8B"/>
<stop offset="1" stop-color="#737373"/>
</linearGradient>
<linearGradient id="paint3_linear_6_85" x1="91.1299" y1="32.5789" x2="74.6299" y2="4.00002" gradientUnits="userSpaceOnUse">
<stop stop-color="#737373"/>
<stop offset="1" stop-color="#D9D9D9"/>
</linearGradient>
</defs>
</svg>
