<svg width="78" height="34" viewBox="0 0 78 34" fill="none" xmlns="http://www.w3.org/2000/svg">
<rect x="0.5" y="0.5" width="3" height="66.8816" transform="matrix(-4.37114e-08 1 1 4.37114e-08 9.76855 21.4999)" fill="url(#paint0_linear_6_106)" stroke="black"/>
<path d="M29.5188 26.9999L58.9133 26.9999L58.9133 14.9999L50.2883 14.9999L50.2883 21.4999L37.637 21.4999L37.637 14.9999L29.5188 14.9999L29.5188 26.9999Z" fill="url(#paint1_linear_6_106)" stroke="black"/>
<path d="M5.28189 33.4999L12.2293 33.4999L12.2293 13.2064L16.8608 8.13298C16.8608 8.13298 13.6187 3.56679 12.2293 2.04493C10.8398 0.523066 7.21172 -0.491762 5.28189 2.04493L0.650314 8.13298L5.28189 13.2064L5.28189 33.4999Z" fill="url(#paint2_linear_6_106)"/>
<path d="M5.28189 13.2064L5.28189 33.4999L12.2293 33.4999L12.2293 13.2064M5.28189 13.2064L0.650314 8.13298C0.650314 8.13298 3.35207 4.58162 5.28189 2.04493C7.21172 -0.491762 10.8398 0.523066 12.2293 2.04493C13.6187 3.56679 16.8608 8.13298 16.8608 8.13298L12.2293 13.2064M5.28189 13.2064L12.2293 13.2064" stroke="black"/>
<path d="M49.7883 17.4999L40.6699 17.4999" stroke="black"/>
<rect width="1.01316" height="4" transform="matrix(-1 -8.68551e-08 -8.79979e-08 1 41.1765 15.4998)" fill="black"/>
<defs>
<linearGradient id="paint0_linear_6_106" x1="2" y1="0" x2="2" y2="67.8816" gradientUnits="userSpaceOnUse">
<stop stop-color="#8B8B8B"/>
<stop offset="1" stop-color="#737373"/>
</linearGradient>
<linearGradient id="paint1_linear_6_106" x1="28.5122" y1="13.7776" x2="58.907" y2="13.7776" gradientUnits="userSpaceOnUse">
<stop stop-color="#8B8B8B"/>
<stop offset="1" stop-color="#737373"/>
</linearGradient>
<linearGradient id="paint2_linear_6_106" x1="8.75558" y1="0.499877" x2="8.75557" y2="33.4999" gradientUnits="userSpaceOnUse">
<stop stop-color="#737373"/>
<stop offset="1" stop-color="#D9D9D9"/>
</linearGradient>
</defs>
</svg>
