<svg width="165" height="95" viewBox="0 0 165 95" fill="none" xmlns="http://www.w3.org/2000/svg">
<g clip-path="url(#clip0_17_1805)">
<path d="M165.151 1.51208C165.151 1.1037 164.988 0.71205 164.699 0.423283C164.409 0.134516 164.017 -0.02771 163.608 -0.02771H1.39203C0.982822 -0.02771 0.590379 0.134516 0.301027 0.423283C0.0116756 0.71205 -0.150879 1.1037 -0.150879 1.51208V93.4879C-0.150879 93.8963 0.0116756 94.2879 0.301027 94.5767C0.590379 94.8655 0.982822 95.0277 1.39203 95.0277H163.608C164.017 95.0277 164.409 94.8655 164.699 94.5767C164.988 94.2879 165.151 93.8963 165.151 93.4879V1.51208Z" stroke="#7A7A7B" stroke-width="2"/>
<path d="M27.0876 9.92251C27.0879 9.71615 27.0475 9.51173 26.9687 9.32094C26.8899 9.13014 26.7743 8.9567 26.6283 8.81052C26.4823 8.66435 26.3089 8.54829 26.118 8.46899C25.9271 8.38969 25.7224 8.34868 25.5157 8.34832L16.2106 8.33209C16.0038 8.33174 15.799 8.37203 15.6078 8.45067C15.4166 8.52931 15.2428 8.64477 15.0964 8.79044C14.9499 8.93611 14.8336 9.10914 14.7541 9.29966C14.6747 9.49018 14.6336 9.69446 14.6332 9.90082L14.6304 11.5317C14.63 11.738 14.6704 11.9424 14.7492 12.1332C14.828 12.324 14.9437 12.4975 15.0896 12.6436C15.2356 12.7898 15.409 12.9059 15.5999 12.9852C15.7908 13.0645 15.9955 13.1055 16.2023 13.1058L25.5073 13.1221C25.7141 13.1224 25.9189 13.0821 26.1101 13.0035C26.3013 12.9249 26.4751 12.8094 26.6216 12.6637C26.768 12.5181 26.8843 12.345 26.9638 12.1545C27.0433 11.964 27.0843 11.7597 27.0847 11.5533L27.0876 9.92251Z" stroke="#7A7A7B" stroke-width="2"/>
<path d="M43.8596 9.90375C43.8596 9.69843 43.8191 9.49511 43.7403 9.30541C43.6616 9.11572 43.5462 8.94335 43.4007 8.79816C43.2552 8.65297 43.0825 8.5378 42.8924 8.45923C42.7024 8.38065 42.4986 8.34021 42.2929 8.34021H32.972C32.5565 8.34021 32.158 8.50494 31.8642 8.79816C31.5703 9.09138 31.4053 9.48908 31.4053 9.90375V11.5504C31.4053 11.9651 31.5703 12.3628 31.8642 12.656C32.158 12.9492 32.5565 13.114 32.972 13.114H42.2929C42.4986 13.114 42.7024 13.0735 42.8924 12.9949C43.0825 12.9164 43.2552 12.8012 43.4007 12.656C43.5462 12.5108 43.6616 12.3385 43.7403 12.1488C43.8191 11.9591 43.8596 11.7557 43.8596 11.5504V9.90375Z" stroke="#7A7A7B" stroke-width="2"/>
<path d="M60.6427 9.91856C60.6431 9.71324 60.6029 9.50985 60.5245 9.32001C60.4461 9.13018 60.331 8.95761 60.1858 8.81217C60.0406 8.66673 59.8681 8.55126 59.6781 8.47235C59.4882 8.39345 59.2845 8.35265 59.0788 8.35229L49.7578 8.33606C49.3423 8.33535 48.9436 8.49938 48.6492 8.79209C48.3549 9.0848 48.1892 9.4822 48.1884 9.89687L48.1855 11.5435C48.1852 11.7489 48.2254 11.9523 48.3038 12.1421C48.3822 12.3319 48.4973 12.5045 48.6425 12.6499C48.7877 12.7954 48.9602 12.9108 49.1502 12.9898C49.3401 13.0687 49.5438 13.1095 49.7495 13.1098L59.0704 13.126C59.4859 13.1268 59.8847 12.9627 60.179 12.67C60.4734 12.3773 60.6391 11.9799 60.6398 11.5652L60.6427 9.91856Z" stroke="#7A7A7B" stroke-width="2"/>
<path d="M116.807 9.89687C116.807 9.4822 116.641 9.0848 116.347 8.79209C116.052 8.49938 115.653 8.33535 115.238 8.33606L105.917 8.35229C105.711 8.35265 105.508 8.39345 105.318 8.47235C105.128 8.55126 104.955 8.66673 104.81 8.81217C104.665 8.95761 104.55 9.13018 104.471 9.32001C104.393 9.50985 104.353 9.71324 104.353 9.91856L104.356 11.5652C104.357 11.9799 104.522 12.3773 104.817 12.67C105.111 12.9627 105.51 13.1268 105.925 13.126L115.246 13.1098C115.452 13.1095 115.656 13.0687 115.846 12.9898C116.036 12.9108 116.208 12.7954 116.353 12.6499C116.499 12.5045 116.614 12.3319 116.692 12.1421C116.77 11.9523 116.811 11.7489 116.81 11.5435L116.807 9.89687Z" stroke="#7A7A7B" stroke-width="2"/>
<path d="M133.598 9.90375C133.598 9.48908 133.433 9.09138 133.14 8.79816C132.846 8.50494 132.447 8.34021 132.032 8.34021H122.703C122.287 8.34021 121.889 8.50494 121.595 8.79816C121.301 9.09138 121.136 9.48908 121.136 9.90375V11.5504C121.136 11.9651 121.301 12.3628 121.595 12.656C121.889 12.9492 122.287 13.114 122.703 13.114H132.032C132.447 13.114 132.846 12.9492 133.14 12.656C133.433 12.3628 133.598 11.9651 133.598 11.5504V9.90375Z" stroke="#7A7A7B" stroke-width="2"/>
<path d="M150.363 9.90082C150.362 9.69446 150.321 9.49018 150.242 9.29966C150.162 9.10914 150.046 8.93611 149.899 8.79044C149.753 8.64477 149.579 8.52931 149.388 8.45067C149.197 8.37203 148.992 8.33174 148.785 8.33209L139.48 8.34832C139.273 8.34868 139.069 8.38969 138.878 8.46899C138.687 8.54829 138.513 8.66435 138.367 8.81052C138.222 8.9567 138.106 9.13014 138.027 9.32094C137.948 9.51173 137.908 9.71615 137.908 9.92251L137.911 11.5533C137.911 11.7597 137.952 11.964 138.032 12.1545C138.111 12.345 138.228 12.5181 138.374 12.6637C138.521 12.8094 138.694 12.9249 138.886 13.0035C139.077 13.0821 139.282 13.1224 139.488 13.1221L148.793 13.1058C149 13.1055 149.205 13.0645 149.396 12.9852C149.587 12.9059 149.76 12.7898 149.906 12.6436C150.052 12.4975 150.168 12.324 150.247 12.1332C150.325 11.9424 150.366 11.738 150.365 11.5317L150.363 9.90082Z" stroke="#7A7A7B" stroke-width="2"/>
<path d="M42.4554 52.3133C38.2194 56.5408 30.9133 53.6077 30.8142 47.6108C30.793 46.3442 31.1222 45.129 31.8018 43.9652C31.819 43.9371 31.8259 43.9039 31.8216 43.8709C31.8173 43.8379 31.8019 43.807 31.778 43.7831L18.2409 30.2733C18.2255 30.2583 18.2073 30.2465 18.1872 30.2387C18.1671 30.2309 18.1457 30.2272 18.1241 30.228C18.1026 30.2287 18.0815 30.2338 18.062 30.243C18.0425 30.2521 18.0251 30.2652 18.0108 30.2813C9.66563 39.9673 9.30073 54.2292 17.5071 64.1013C27.2921 75.8773 45.1922 76.8273 56.1076 65.934C67.023 55.0367 66.0671 37.1727 54.2672 27.4115C44.3712 19.2217 30.0804 19.5898 20.3787 27.9181C20.3626 27.9324 20.3496 27.9497 20.3404 27.9692C20.3312 27.9886 20.3261 28.0097 20.3253 28.0312C20.3246 28.0527 20.3282 28.0741 20.3361 28.0941C20.3439 28.1142 20.3557 28.1324 20.3708 28.1477L33.9079 41.6575C33.9318 41.6814 33.9628 41.6967 33.9959 41.701C34.029 41.7053 34.0623 41.6984 34.0904 41.6813C35.2565 41.0031 36.4742 40.6732 37.7434 40.6917C43.7524 40.7906 46.6954 48.0819 42.4554 52.3133Z" stroke="#7A7A7B" stroke-width="2"/>
<path d="M101.257 47.5356C101.273 64.8612 118.142 77.5556 134.808 72.4771C141.374 70.4768 146.423 66.4868 149.956 60.5071C152.029 56.9973 153.174 53.2317 153.391 49.21C153.398 49.0754 153.334 49.0081 153.196 49.0081H134.265C134.13 49.0081 134.04 49.0714 133.995 49.1981C132.988 52.1933 131.031 53.8808 128.125 54.2608C124.071 54.7873 120.545 51.5019 120.545 47.5198C120.537 43.5377 124.059 40.2444 128.113 40.7669C131.019 41.1416 132.978 42.8252 133.991 45.8177C134.036 45.9444 134.126 46.0077 134.261 46.0077L153.192 45.976C153.33 45.976 153.394 45.9087 153.387 45.7742C153.164 41.7525 152.013 37.9881 149.932 34.481C146.389 28.5066 141.333 24.5258 134.765 22.5387C118.09 17.4879 101.241 30.21 101.257 47.5356Z" stroke="#7A7A7B" stroke-width="2"/>
<path d="M73.5559 66.6267C74.008 66.6267 74.3994 66.4129 74.7299 65.9854C74.952 65.6978 75.0631 65.2755 75.0631 64.7187C75.0578 51.6457 75.0591 42.8859 75.0671 38.4394C75.0671 38.3048 75.1345 38.2349 75.2693 38.2296C76.4711 38.1781 78.0497 38.5779 78.5098 37.0579C78.6209 36.6885 78.564 36.3415 78.3393 36.0169C77.5698 34.9046 76.5029 35.1935 75.2733 35.1975C75.1358 35.1975 75.0657 35.1276 75.0631 34.9877C75.0446 33.7395 75.0512 32.1707 75.0829 30.2812C75.0988 29.3075 74.5951 28.3892 73.5598 28.3892C72.5207 28.3892 72.0169 29.3075 72.0328 30.2812C72.0645 32.1707 72.0711 33.7395 72.0526 34.9877C72.05 35.1276 71.9799 35.1975 71.8424 35.1975C70.6128 35.1935 69.5459 34.9046 68.7764 36.0169C68.5517 36.3415 68.4948 36.6885 68.6059 37.0579C69.066 38.5779 70.6446 38.1781 71.8464 38.2296C71.9812 38.2349 72.0487 38.3048 72.0487 38.4394C72.0566 42.8859 72.0579 51.6457 72.0526 64.7187C72.0526 65.2755 72.1637 65.6978 72.3858 65.9854C72.7163 66.4129 73.1064 66.6267 73.5559 66.6267Z" stroke="#7A7A7B" stroke-width="2"/>
<path d="M77.6968 47.504C77.6968 48.4144 78.5297 49.0596 79.4301 49.0081C79.8055 48.9844 80.3185 48.9817 80.969 49.0002C81.1144 49.0029 81.1885 49.0781 81.1911 49.2258C81.2043 50.7617 81.1938 55.9748 81.1594 64.8652C81.1594 65.3692 81.322 65.7967 81.6473 66.1477C81.9408 66.4644 82.2911 66.6227 82.6983 66.6227C83.1055 66.6227 83.4559 66.4644 83.7494 66.1477C84.0747 65.7967 84.2373 65.3692 84.2373 64.8652C84.2029 55.9748 84.1923 50.7617 84.2055 49.2258C84.2082 49.0781 84.2822 49.0029 84.4277 49.0002C85.0781 48.9817 85.5911 48.9844 85.9666 49.0081C86.867 49.0596 87.6999 48.4144 87.6999 47.504C87.6999 46.5936 86.867 45.9483 85.9666 45.9998C85.5911 46.0236 85.0781 46.0262 84.4277 46.0077C84.2822 46.0051 84.2082 45.9299 84.2055 45.7821C84.1923 44.2463 84.2029 39.0331 84.2373 30.1427C84.2373 29.6387 84.0747 29.2112 83.7494 28.8602C83.4559 28.5436 83.1055 28.3852 82.6983 28.3852C82.2911 28.3852 81.9408 28.5436 81.6473 28.8602C81.322 29.2112 81.1594 29.6387 81.1594 30.1427C81.1938 39.0331 81.2043 44.2463 81.1911 45.7821C81.1885 45.9299 81.1144 46.0051 80.969 46.0077C80.3185 46.0262 79.8055 46.0236 79.4301 45.9998C78.5297 45.9483 77.6968 46.5936 77.6968 47.504Z" stroke="#7A7A7B" stroke-width="2"/>
<path d="M91.44 66.6267C91.8921 66.6267 92.2822 66.4169 92.61 65.9973C92.8348 65.7097 92.9472 65.2822 92.9472 64.7148C92.9472 61.7909 92.9472 60.23 92.9472 60.0321C92.9498 59.8949 93.0186 59.8197 93.1534 59.8065C93.2909 59.7959 93.7008 59.7919 94.383 59.7946C95.0229 59.7972 95.4777 59.7141 95.7474 59.5452C96.4891 59.0781 96.6557 58.0608 96.1123 57.384C95.442 56.5448 94.1212 56.7823 93.1733 56.7942C93.0358 56.7968 92.9657 56.7295 92.9631 56.5923C92.9366 47.4538 92.9353 38.6505 92.9591 30.1823C92.9591 29.2283 92.4157 28.3931 91.4439 28.3931C90.4682 28.3931 89.9248 29.2283 89.9248 30.1823C89.9486 38.6505 89.9473 47.4538 89.9209 56.5923C89.9182 56.7295 89.8481 56.7968 89.7106 56.7942C88.7627 56.7823 87.4419 56.5448 86.7716 57.384C86.2282 58.0608 86.3948 59.0781 87.1365 59.5452C87.4062 59.7141 87.861 59.7972 88.5009 59.7946C89.1831 59.7919 89.593 59.7959 89.7305 59.8065C89.8653 59.8197 89.9341 59.8949 89.9367 60.0321C89.9367 60.23 89.9367 61.7909 89.9367 64.7148C89.9367 65.2822 90.0491 65.7097 90.2739 65.9973C90.6018 66.4169 90.9905 66.6267 91.44 66.6267Z" stroke="#7A7A7B" stroke-width="2"/>
<path d="M41.4242 47.5079C41.4242 47.0099 41.3259 46.5168 41.135 46.0567C40.944 45.5967 40.6641 45.1786 40.3113 44.8265C39.9585 44.4744 39.5396 44.195 39.0786 44.0045C38.6176 43.8139 38.1235 43.7158 37.6245 43.7158C37.1255 43.7158 36.6314 43.8139 36.1704 44.0045C35.7094 44.195 35.2905 44.4744 34.9376 44.8265C34.5848 45.1786 34.3049 45.5967 34.1139 46.0567C33.923 46.5168 33.8247 47.0099 33.8247 47.5079C33.8247 48.5136 34.225 49.4782 34.9376 50.1893C35.6502 50.9005 36.6167 51.3 37.6245 51.3C38.6322 51.3 39.5987 50.9005 40.3113 50.1893C41.0239 49.4782 41.4242 48.5136 41.4242 47.5079Z" stroke="#7A7A7B" stroke-width="2"/>
<path d="M131.171 47.5079C131.171 47.0099 131.073 46.5168 130.882 46.0567C130.691 45.5967 130.411 45.1786 130.058 44.8265C129.705 44.4744 129.286 44.195 128.825 44.0045C128.364 43.8139 127.87 43.7158 127.371 43.7158C126.872 43.7158 126.378 43.8139 125.917 44.0045C125.456 44.195 125.037 44.4744 124.684 44.8265C124.331 45.1786 124.051 45.5967 123.861 46.0567C123.67 46.5168 123.571 47.0099 123.571 47.5079C123.571 48.5136 123.972 49.4782 124.684 50.1893C125.397 50.9005 126.363 51.3 127.371 51.3C128.379 51.3 129.345 50.9005 130.058 50.1893C130.77 49.4782 131.171 48.5136 131.171 47.5079Z" stroke="#7A7A7B" stroke-width="2"/>
<path d="M35.4683 83.4723C35.4687 83.268 35.4287 83.0656 35.3507 82.8768C35.2727 82.6879 35.1582 82.5162 35.0137 82.3715C34.8692 82.2268 34.6975 82.1119 34.5086 82.0334C34.3196 81.9549 34.117 81.9143 33.9123 81.9139L24.5834 81.8977C24.3787 81.8973 24.1759 81.9372 23.9867 82.0151C23.7974 82.0929 23.6254 82.2072 23.4804 82.3514C23.3354 82.4956 23.2203 82.6669 23.1416 82.8555C23.0629 83.0441 23.0223 83.2463 23.0219 83.4506L23.019 85.0893C23.0187 85.2936 23.0586 85.496 23.1367 85.6849C23.2147 85.8737 23.3292 86.0454 23.4737 86.1901C23.6182 86.3349 23.7898 86.4497 23.9788 86.5282C24.1678 86.6068 24.3704 86.6473 24.5751 86.6477L33.9039 86.6639C34.1086 86.6643 34.3114 86.6244 34.5007 86.5466C34.6899 86.4687 34.8619 86.3544 35.0069 86.2102C35.1519 86.066 35.2671 85.8947 35.3457 85.7061C35.4244 85.5175 35.4651 85.3153 35.4654 85.111L35.4683 83.4723Z" stroke="#7A7A7B" stroke-width="2"/>
<path d="M52.2342 83.4604C52.2345 83.2572 52.1948 83.0559 52.1172 82.868C52.0396 82.68 51.9256 82.5092 51.7819 82.3652C51.6381 82.2213 51.4674 82.107 51.2793 82.0289C51.0913 81.9507 50.8897 81.9104 50.6861 81.91L41.3572 81.8938C41.1536 81.8934 40.9518 81.9331 40.7635 82.0106C40.5752 82.088 40.4041 82.2017 40.2598 82.3452C40.1156 82.4887 40.001 82.6591 39.9228 82.8467C39.8445 83.0344 39.804 83.2355 39.8037 83.4388L39.8008 85.1013C39.8004 85.3045 39.8402 85.5058 39.9178 85.6937C39.9954 85.8817 40.1093 86.0525 40.2531 86.1964C40.3968 86.3404 40.5676 86.4547 40.7556 86.5328C40.9436 86.6109 41.1452 86.6513 41.3489 86.6517L50.6777 86.6679C50.8814 86.6683 51.0831 86.6286 51.2714 86.5511C51.4597 86.4737 51.6309 86.36 51.7751 86.2165C51.9194 86.073 52.0339 85.9026 52.1122 85.715C52.1905 85.5273 52.2309 85.3262 52.2313 85.1229L52.2342 83.4604Z" stroke="#7A7A7B" stroke-width="2"/>
<path d="M125.196 83.4467C125.196 83.2435 125.155 83.0423 125.077 82.8546C124.999 82.667 124.884 82.4966 124.74 82.3531C124.596 82.2096 124.425 82.0959 124.236 82.0185C124.048 81.941 123.846 81.9013 123.643 81.9017L114.314 81.9179C114.11 81.9183 113.908 81.9587 113.72 82.0368C113.532 82.1149 113.362 82.2292 113.218 82.3732C113.074 82.5171 112.96 82.6879 112.883 82.8759C112.805 83.0638 112.765 83.2651 112.766 83.4683L112.769 85.1229C112.769 85.3261 112.809 85.5273 112.888 85.715C112.966 85.9026 113.08 86.073 113.225 86.2165C113.369 86.36 113.54 86.4737 113.728 86.5511C113.917 86.6286 114.118 86.6683 114.322 86.6679L123.651 86.6517C123.855 86.6513 124.056 86.6109 124.244 86.5328C124.432 86.4547 124.603 86.3404 124.747 86.1964C124.89 86.0525 125.004 85.8816 125.082 85.6937C125.16 85.5058 125.199 85.3045 125.199 85.1012L125.196 83.4467Z" stroke="#7A7A7B" stroke-width="2"/>
<path d="M141.982 83.4585C141.981 83.2532 141.94 83.0499 141.861 82.8604C141.782 82.6708 141.667 82.4987 141.521 82.3537C141.375 82.2088 141.202 82.0939 141.012 82.0157C140.822 81.9374 140.618 81.8973 140.412 81.8977L131.091 81.9139C130.886 81.9143 130.682 81.9551 130.492 82.034C130.302 82.1129 130.13 82.2284 129.984 82.3738C129.839 82.5193 129.724 82.6918 129.646 82.8817C129.567 83.0715 129.527 83.2749 129.527 83.4802L129.53 85.1031C129.531 85.3085 129.571 85.5117 129.651 85.7013C129.73 85.8908 129.845 86.063 129.991 86.2079C130.137 86.3529 130.31 86.4677 130.5 86.546C130.69 86.6242 130.894 86.6643 131.1 86.6639L140.421 86.6477C140.626 86.6473 140.83 86.6066 141.02 86.5276C141.21 86.4487 141.382 86.3333 141.528 86.1878C141.673 86.0424 141.788 85.8698 141.866 85.68C141.945 85.4901 141.985 85.2868 141.985 85.0814L141.982 83.4585Z" stroke="#7A7A7B" stroke-width="2"/>
<path d="M47.5444 30.776C48.5307 31.3592 49.5857 32.1285 50.7095 33.0837C51.2093 33.5086 51.6231 33.7224 51.951 33.725C52.5988 33.7329 53.0589 33.4479 53.3313 32.87C53.6195 32.2604 53.5957 31.7788 53.2599 31.4252C52.1625 30.2667 50.7703 29.1874 49.0833 28.1873C47.3936 27.1898 45.7767 26.4878 44.2325 26.0815C43.7591 25.9574 43.3242 26.1685 42.9275 26.7148C42.5494 27.2294 42.519 27.769 42.8363 28.3337C42.9976 28.6187 43.385 28.8774 43.9984 29.1096C45.3761 29.6374 46.5581 30.1928 47.5444 30.776Z" stroke="#7A7A7B" stroke-width="2"/>
<path d="M56.2349 35.5815C56.2349 35.214 56.0887 34.8616 55.8283 34.6018C55.568 34.342 55.2149 34.196 54.8467 34.196C54.4785 34.196 54.1254 34.342 53.8651 34.6018C53.6048 34.8616 53.4585 35.214 53.4585 35.5815C53.4585 35.9489 53.6048 36.3013 53.8651 36.5611C54.1254 36.8209 54.4785 36.9669 54.8467 36.9669C55.2149 36.9669 55.568 36.8209 55.8283 36.5611C56.0887 36.3013 56.2349 35.9489 56.2349 35.5815Z" stroke="#7A7A7B" stroke-width="2"/>
<path d="M58.4412 38.9546C58.3823 38.7758 58.2887 38.6104 58.1657 38.4677C58.0428 38.3251 57.8928 38.208 57.7245 38.1231C57.5562 38.0383 57.3728 37.9874 57.1848 37.9733C56.9968 37.9592 56.8078 37.9822 56.6287 38.0409L56.5157 38.078C56.1539 38.1967 55.8542 38.454 55.6825 38.7932C55.5109 39.1324 55.4812 39.5258 55.6001 39.8868L56.6853 43.1808C56.7442 43.3596 56.8378 43.525 56.9608 43.6677C57.0837 43.8103 57.2337 43.9274 57.402 44.0123C57.5703 44.0971 57.7537 44.148 57.9417 44.1622C58.1297 44.1763 58.3187 44.1533 58.4978 44.0945L58.6108 44.0574C58.9726 43.9387 59.2723 43.6815 59.444 43.3422C59.6156 43.003 59.6453 42.6097 59.5264 42.2486L58.4412 38.9546Z" stroke="#7A7A7B" stroke-width="2"/>
<path d="M110.832 62.7079C112.87 64.9167 115.299 66.6715 118.118 67.9725C119.128 68.4396 119.966 68.7404 120.632 68.875C121.383 69.028 121.947 68.6942 122.322 67.8735C122.322 67.8709 122.327 67.8326 122.338 67.7587C122.446 66.8721 122.079 66.281 121.235 65.9854C117.986 64.8428 115.255 63.0707 113.045 60.6694C110.829 58.2759 109.283 55.4153 108.408 52.0877C108.181 51.2248 107.62 50.8118 106.726 50.8487C106.652 50.8514 106.614 50.8527 106.611 50.8527C105.76 51.1588 105.381 51.6919 105.473 52.4519C105.552 53.1274 105.784 53.9864 106.167 55.0287C107.235 57.9394 108.79 60.4992 110.832 62.7079Z" stroke="#7A7A7B" stroke-width="2"/>
<path d="M165 0V95H0V0H165ZM137.851 23.6038C137.851 23.3821 137.747 23.1694 137.561 23.0126C137.376 22.8558 137.124 22.7678 136.861 22.7678H32.7225C32.4598 22.7678 32.2078 22.8558 32.0221 23.0126C31.8363 23.1694 31.7319 23.3821 31.7319 23.6038V73.5455C31.7319 73.7672 31.8363 73.9799 32.0221 74.1367C32.2078 74.2935 32.4598 74.3816 32.7225 74.3816H136.861C137.124 74.3816 137.376 74.2935 137.561 74.1367C137.747 73.9799 137.851 73.7672 137.851 73.5455V23.6038Z" fill="#F4F4F6"/>
<mask id="path-24-inside-1_17_1805" fill="white">
<path d="M165.151 93.4879C165.151 93.8963 164.988 94.2879 164.699 94.5767C164.409 94.8655 164.017 95.0277 163.608 95.0277H1.39203C0.982822 95.0277 0.590379 94.8655 0.301027 94.5767C0.0116756 94.2879 -0.150879 93.8963 -0.150879 93.4879V1.51208C-0.150879 1.1037 0.0116756 0.71205 0.301027 0.423283C0.590379 0.134516 0.982822 -0.02771 1.39203 -0.02771H163.608C164.017 -0.02771 164.409 0.134516 164.699 0.423283C164.988 0.71205 165.151 1.1037 165.151 1.51208V93.4879ZM27.0874 9.92251C27.0878 9.71614 27.0474 9.51173 26.9686 9.32093C26.8898 9.13014 26.7741 8.9567 26.6282 8.81052C26.4822 8.66434 26.3088 8.54829 26.1179 8.46899C25.927 8.38968 25.7223 8.34868 25.5155 8.34832L16.2105 8.33209C16.0037 8.33173 15.7989 8.37202 15.6077 8.45066C15.4165 8.52931 15.2427 8.64476 15.0963 8.79043C14.9498 8.9361 14.8335 9.10913 14.754 9.29965C14.6746 9.49017 14.6335 9.69445 14.6331 9.90082L14.6303 11.5317C14.6299 11.738 14.6703 11.9424 14.7491 12.1332C14.8279 12.324 14.9436 12.4975 15.0895 12.6436C15.2355 12.7898 15.4089 12.9059 15.5998 12.9852C15.7907 13.0645 15.9954 13.1055 16.2022 13.1058L25.5072 13.1221C25.714 13.1224 25.9188 13.0821 26.11 13.0035C26.3012 12.9249 26.475 12.8094 26.6215 12.6637C26.7679 12.5181 26.8842 12.345 26.9637 12.1545C27.0431 11.964 27.0842 11.7597 27.0846 11.5533L27.0874 9.92251ZM43.8597 9.90375C43.8597 9.69842 43.8192 9.49511 43.7404 9.30541C43.6617 9.11571 43.5463 8.94335 43.4008 8.79816C43.2553 8.65297 43.0826 8.5378 42.8925 8.45922C42.7025 8.38065 42.4987 8.34021 42.293 8.34021H32.9721C32.5566 8.34021 32.1581 8.50494 31.8643 8.79816C31.5704 9.09138 31.4054 9.48907 31.4054 9.90375V11.5504C31.4054 11.9651 31.5704 12.3628 31.8643 12.656C32.1581 12.9492 32.5566 13.114 32.9721 13.114H42.293C42.4987 13.114 42.7025 13.0735 42.8925 12.9949C43.0826 12.9164 43.2553 12.8012 43.4008 12.656C43.5463 12.5108 43.6617 12.3385 43.7404 12.1488C43.8192 11.9591 43.8597 11.7557 43.8597 11.5504V9.90375ZM60.6427 9.91855C60.6431 9.71323 60.6029 9.50984 60.5245 9.32C60.4461 9.13017 60.331 8.9576 60.1858 8.81216C60.0406 8.66672 59.8681 8.55125 59.6781 8.47234C59.4882 8.39344 59.2845 8.35264 59.0788 8.35228L49.7579 8.33605C49.3423 8.33534 48.9436 8.49937 48.6493 8.79208C48.3549 9.08479 48.1892 9.48219 48.1884 9.89686L48.1856 11.5435C48.1852 11.7489 48.2254 11.9522 48.3038 12.1421C48.3822 12.3319 48.4973 12.5045 48.6425 12.6499C48.7877 12.7954 48.9602 12.9108 49.1502 12.9897C49.3401 13.0686 49.5438 13.1094 49.7495 13.1098L59.0704 13.126C59.486 13.1267 59.8847 12.9627 60.179 12.67C60.4734 12.3773 60.6391 11.9799 60.6398 11.5652L60.6427 9.91855ZM116.807 9.89686C116.807 9.48219 116.641 9.08479 116.346 8.79208C116.052 8.49937 115.653 8.33534 115.238 8.33605L105.917 8.35228C105.711 8.35264 105.508 8.39344 105.318 8.47234C105.128 8.55125 104.955 8.66672 104.81 8.81216C104.665 8.9576 104.55 9.13017 104.471 9.32C104.393 9.50984 104.353 9.71323 104.353 9.91855L104.356 11.5652C104.357 11.9799 104.522 12.3773 104.817 12.67C105.111 12.9627 105.51 13.1267 105.925 13.126L115.246 13.1098C115.452 13.1094 115.656 13.0686 115.846 12.9897C116.035 12.9108 116.208 12.7954 116.353 12.6499C116.498 12.5045 116.614 12.3319 116.692 12.1421C116.77 11.9522 116.811 11.7489 116.81 11.5435L116.807 9.89686ZM133.598 9.90375C133.598 9.48907 133.433 9.09138 133.139 8.79816C132.846 8.50494 132.447 8.34021 132.032 8.34021H122.703C122.287 8.34021 121.889 8.50494 121.595 8.79816C121.301 9.09138 121.136 9.48907 121.136 9.90375V11.5504C121.136 11.9651 121.301 12.3628 121.595 12.656C121.889 12.9492 122.287 13.114 122.703 13.114H132.032C132.447 13.114 132.846 12.9492 133.139 12.656C133.433 12.3628 133.598 11.9651 133.598 11.5504V9.90375ZM150.363 9.90082C150.362 9.69445 150.321 9.49017 150.242 9.29965C150.162 9.10913 150.046 8.9361 149.899 8.79043C149.753 8.64476 149.579 8.52931 149.388 8.45066C149.197 8.37202 148.992 8.33173 148.785 8.33209L139.48 8.34832C139.273 8.34868 139.069 8.38968 138.878 8.46899C138.687 8.54829 138.514 8.66434 138.368 8.81052C138.222 8.9567 138.106 9.13014 138.027 9.32093C137.948 9.51173 137.908 9.71614 137.908 9.92251L137.911 11.5533C137.911 11.7597 137.953 11.964 138.032 12.1545C138.112 12.345 138.228 12.5181 138.374 12.6637C138.521 12.8094 138.695 12.9249 138.886 13.0035C139.077 13.0821 139.282 13.1224 139.489 13.1221L148.794 13.1058C149 13.1055 149.205 13.0645 149.396 12.9852C149.587 12.9059 149.76 12.7898 149.906 12.6436C150.052 12.4975 150.168 12.324 150.247 12.1332C150.325 11.9424 150.366 11.738 150.365 11.5317L150.363 9.90082ZM42.4556 52.3133C38.2196 56.5408 30.9135 53.6077 30.8144 47.6108C30.7932 46.3442 31.1224 45.129 31.802 43.9652C31.8191 43.9371 31.8261 43.9039 31.8218 43.8709C31.8175 43.8379 31.8021 43.807 31.7782 43.7831L18.2411 30.2733C18.2257 30.2583 18.2074 30.2465 18.1874 30.2387C18.1673 30.2309 18.1459 30.2272 18.1243 30.228C18.1028 30.2287 18.0817 30.2338 18.0622 30.243C18.0427 30.2521 18.0253 30.2652 18.011 30.2812C9.66583 39.9673 9.30092 54.2292 17.5073 64.1012C27.2923 75.8773 45.1924 76.8273 56.1078 65.934C67.0232 55.0367 66.0673 37.1727 54.2674 27.4115C44.3714 19.2217 30.0806 19.5898 20.3789 27.9181C20.3628 27.9324 20.3498 27.9497 20.3406 27.9692C20.3314 27.9886 20.3263 28.0097 20.3255 28.0312C20.3248 28.0527 20.3284 28.0741 20.3363 28.0941C20.3441 28.1142 20.3559 28.1324 20.371 28.1477L33.9081 41.6575C33.932 41.6814 33.963 41.6967 33.9961 41.701C34.0292 41.7053 34.0625 41.6984 34.0906 41.6812C35.2567 41.0031 36.4744 40.6732 37.7436 40.6917C43.7526 40.7906 46.6956 48.0819 42.4556 52.3133ZM101.257 47.5356C101.273 64.8612 118.141 77.5556 134.808 72.4771C141.374 70.4768 146.423 66.4868 149.956 60.5071C152.029 56.9974 153.174 53.2317 153.39 49.21C153.398 49.0754 153.333 49.0081 153.196 49.0081H134.265C134.13 49.0081 134.04 49.0715 133.995 49.1981C132.987 52.1933 131.031 53.8808 128.125 54.2608C124.071 54.7873 120.545 51.5019 120.545 47.5198C120.537 43.5377 124.059 40.2444 128.113 40.7669C131.019 41.1416 132.978 42.8252 133.991 45.8177C134.036 45.9444 134.126 46.0077 134.261 46.0077L153.192 45.976C153.33 45.976 153.394 45.9087 153.386 45.7742C153.164 41.7525 152.013 37.9881 149.932 34.481C146.388 28.5066 141.333 24.5258 134.764 22.5387C118.09 17.4879 101.241 30.21 101.257 47.5356ZM73.5557 66.6267C74.0079 66.6267 74.3992 66.4129 74.7298 65.9854C74.9519 65.6978 75.063 65.2756 75.063 64.7188C75.0577 51.6457 75.059 42.8859 75.0669 38.4394C75.0669 38.3048 75.1343 38.2349 75.2692 38.2296C76.471 38.1781 78.0496 38.5779 78.5097 37.0579C78.6208 36.6885 78.5639 36.3415 78.3392 36.0169C77.5697 34.9046 76.5027 35.1935 75.2732 35.1975C75.1357 35.1975 75.0656 35.1276 75.063 34.9877C75.0444 33.7395 75.051 32.1707 75.0828 30.2812C75.0986 29.3075 74.5949 28.3892 73.5597 28.3892C72.5205 28.3892 72.0168 29.3075 72.0327 30.2812C72.0644 32.1707 72.071 33.7395 72.0525 34.9877C72.0499 35.1276 71.9798 35.1975 71.8423 35.1975C70.6127 35.1935 69.5458 34.9046 68.7763 36.0169C68.5515 36.3415 68.4947 36.6885 68.6057 37.0579C69.0658 38.5779 70.6444 38.1781 71.8462 38.2296C71.9811 38.2349 72.0485 38.3048 72.0485 38.4394C72.0565 42.8859 72.0578 51.6457 72.0525 64.7188C72.0525 65.2756 72.1636 65.6978 72.3857 65.9854C72.7162 66.4129 73.1062 66.6267 73.5557 66.6267ZM77.6966 47.504C77.6966 48.4144 78.5295 49.0596 79.4299 49.0081C79.8054 48.9844 80.3184 48.9817 80.9688 49.0002C81.1143 49.0028 81.1883 49.0781 81.191 49.2258C81.2042 50.7617 81.1936 55.9748 81.1592 64.8652C81.1592 65.3692 81.3218 65.7967 81.6471 66.1477C81.9406 66.4644 82.291 66.6227 82.6982 66.6227C83.1054 66.6227 83.4557 66.4644 83.7492 66.1477C84.0745 65.7967 84.2371 65.3692 84.2371 64.8652C84.2027 55.9748 84.1922 50.7617 84.2054 49.2258C84.208 49.0781 84.2821 49.0028 84.4275 49.0002C85.078 48.9817 85.591 48.9844 85.9664 49.0081C86.8668 49.0596 87.6997 48.4144 87.6997 47.504C87.6997 46.5935 86.8668 45.9483 85.9664 45.9998C85.591 46.0235 85.078 46.0262 84.4275 46.0077C84.2821 46.0051 84.208 45.9299 84.2054 45.7821C84.1922 44.2462 84.2027 39.0331 84.2371 30.1427C84.2371 29.6387 84.0745 29.2112 83.7492 28.8602C83.4557 28.5435 83.1054 28.3852 82.6982 28.3852C82.291 28.3852 81.9406 28.5435 81.6471 28.8602C81.3218 29.2112 81.1592 29.6387 81.1592 30.1427C81.1936 39.0331 81.2042 44.2462 81.191 45.7821C81.1883 45.9299 81.1143 46.0051 80.9688 46.0077C80.3184 46.0262 79.8054 46.0235 79.4299 45.9998C78.5295 45.9483 77.6966 46.5935 77.6966 47.504ZM91.44 66.6267C91.8922 66.6267 92.2822 66.4169 92.6101 65.9973C92.8348 65.7097 92.9472 65.2822 92.9472 64.7148C92.9472 61.7909 92.9472 60.23 92.9472 60.0321C92.9498 59.8949 93.0186 59.8196 93.1535 59.8065C93.2909 59.7959 93.7008 59.7919 94.383 59.7946C95.0229 59.7972 95.4777 59.7141 95.7474 59.5452C96.4892 59.0781 96.6557 58.0608 96.1124 57.384C95.442 56.5448 94.1212 56.7823 93.1733 56.7942C93.0358 56.7968 92.9657 56.7295 92.9631 56.5923C92.9366 47.4538 92.9353 38.6505 92.9591 30.1823C92.9591 29.2283 92.4157 28.3931 91.444 28.3931C90.4682 28.3931 89.9249 29.2283 89.9249 30.1823C89.9486 38.6505 89.9473 47.4538 89.9209 56.5923C89.9182 56.7295 89.8482 56.7968 89.7107 56.7942C88.7627 56.7823 87.4419 56.5448 86.7716 57.384C86.2282 58.0608 86.3948 59.0781 87.1365 59.5452C87.4062 59.7141 87.861 59.7972 88.5009 59.7946C89.1831 59.7919 89.593 59.7959 89.7305 59.8065C89.8654 59.8196 89.9341 59.8949 89.9367 60.0321C89.9367 60.23 89.9367 61.7909 89.9367 64.7148C89.9367 65.2822 90.0491 65.7097 90.2739 65.9973C90.6018 66.4169 90.9905 66.6267 91.44 66.6267ZM41.4244 47.5079C41.4244 47.0099 41.3261 46.5168 41.1351 46.0567C40.9442 45.5967 40.6643 45.1786 40.3114 44.8265C39.9586 44.4744 39.5397 44.1951 39.0787 44.0045C38.6177 43.8139 38.1236 43.7158 37.6246 43.7158C37.1256 43.7158 36.6315 43.8139 36.1705 44.0045C35.7095 44.1951 35.2906 44.4744 34.9378 44.8265C34.5849 45.1786 34.305 45.5967 34.1141 46.0567C33.9231 46.5168 33.8248 47.0099 33.8248 47.5079C33.8248 48.5136 34.2252 49.4782 34.9378 50.1893C35.6504 50.9005 36.6168 51.3 37.6246 51.3C38.6324 51.3 39.5988 50.9005 40.3114 50.1893C41.024 49.4782 41.4244 48.5136 41.4244 47.5079ZM131.171 47.5079C131.171 47.0099 131.073 46.5168 130.882 46.0567C130.691 45.5967 130.411 45.1786 130.058 44.8265C129.705 44.4744 129.286 44.1951 128.825 44.0045C128.364 43.8139 127.87 43.7158 127.371 43.7158C126.872 43.7158 126.378 43.8139 125.917 44.0045C125.456 44.1951 125.037 44.4744 124.684 44.8265C124.331 45.1786 124.052 45.5967 123.861 46.0567C123.67 46.5168 123.571 47.0099 123.571 47.5079C123.571 48.5136 123.972 49.4782 124.684 50.1893C125.397 50.9005 126.363 51.3 127.371 51.3C128.379 51.3 129.345 50.9005 130.058 50.1893C130.771 49.4782 131.171 48.5136 131.171 47.5079ZM35.4683 83.4723C35.4687 83.268 35.4287 83.0657 35.3507 82.8768C35.2727 82.6879 35.1582 82.5162 35.0137 82.3715C34.8692 82.2268 34.6976 82.1119 34.5086 82.0334C34.3196 81.9549 34.117 81.9143 33.9123 81.9139L24.5835 81.8977C24.3788 81.8974 24.176 81.9372 23.9867 82.0151C23.7975 82.0929 23.6254 82.2072 23.4804 82.3514C23.3354 82.4956 23.2203 82.6669 23.1416 82.8555C23.063 83.0441 23.0223 83.2463 23.0219 83.4506L23.0191 85.0894C23.0187 85.2936 23.0587 85.496 23.1367 85.6849C23.2147 85.8738 23.3292 86.0454 23.4737 86.1902C23.6182 86.3349 23.7898 86.4498 23.9788 86.5283C24.1678 86.6068 24.3704 86.6474 24.5751 86.6477L33.904 86.6639C34.1087 86.6643 34.3114 86.6244 34.5007 86.5466C34.69 86.4687 34.862 86.3544 35.007 86.2102C35.152 86.066 35.2671 85.8948 35.3458 85.7062C35.4244 85.5176 35.4651 85.3153 35.4655 85.111L35.4683 83.4723ZM52.2341 83.4604C52.2344 83.2572 52.1947 83.0559 52.1171 82.8679C52.0395 82.68 51.9255 82.5092 51.7818 82.3652C51.638 82.2213 51.4673 82.107 51.2793 82.0288C51.0912 81.9507 50.8896 81.9103 50.686 81.91L41.3571 81.8938C41.1535 81.8934 40.9517 81.9331 40.7634 82.0105C40.5751 82.088 40.404 82.2017 40.2597 82.3452C40.1155 82.4886 40.0009 82.6591 39.9227 82.8467C39.8444 83.0343 39.8039 83.2355 39.8036 83.4388L39.8007 85.1012C39.8003 85.3045 39.8401 85.5058 39.9177 85.6937C39.9953 85.8816 40.1092 86.0525 40.253 86.1964C40.3967 86.3404 40.5675 86.4547 40.7555 86.5328C40.9436 86.6109 41.1451 86.6513 41.3488 86.6517L50.6777 86.6679C50.8813 86.6683 51.083 86.6286 51.2713 86.5511C51.4596 86.4737 51.6308 86.36 51.7751 86.2165C51.9193 86.073 52.0338 85.9026 52.1121 85.715C52.1904 85.5273 52.2308 85.3261 52.2312 85.1229L52.2341 83.4604ZM125.196 83.4467C125.196 83.2434 125.155 83.0423 125.077 82.8546C124.999 82.667 124.884 82.4966 124.74 82.3531C124.596 82.2096 124.425 82.0959 124.236 82.0185C124.048 81.941 123.846 81.9013 123.643 81.9017L114.314 81.9179C114.11 81.9183 113.908 81.9586 113.72 82.0368C113.532 82.1149 113.362 82.2292 113.218 82.3731C113.074 82.5171 112.96 82.6879 112.883 82.8758C112.805 83.0638 112.765 83.2651 112.766 83.4683L112.769 85.1229C112.769 85.3261 112.809 85.5273 112.888 85.715C112.966 85.9026 113.08 86.073 113.225 86.2165C113.369 86.36 113.54 86.4737 113.728 86.5511C113.917 86.6286 114.118 86.6683 114.322 86.6679L123.651 86.6517C123.855 86.6513 124.056 86.6109 124.244 86.5328C124.432 86.4547 124.603 86.3404 124.747 86.1964C124.89 86.0525 125.004 85.8816 125.082 85.6937C125.16 85.5058 125.199 85.3045 125.199 85.1012L125.196 83.4467ZM141.982 83.4585C141.981 83.2532 141.94 83.0499 141.861 82.8604C141.782 82.6708 141.667 82.4987 141.521 82.3537C141.375 82.2088 141.202 82.0939 141.012 82.0157C140.822 81.9374 140.618 81.8974 140.412 81.8977L131.091 81.9139C130.886 81.9143 130.682 81.9551 130.492 82.034C130.302 82.1129 130.13 82.2284 129.984 82.3738C129.839 82.5193 129.724 82.6918 129.646 82.8817C129.567 83.0715 129.527 83.2749 129.527 83.4802L129.53 85.1031C129.531 85.3085 129.571 85.5117 129.651 85.7013C129.73 85.8908 129.845 86.063 129.991 86.2079C130.137 86.3529 130.31 86.4677 130.5 86.546C130.69 86.6242 130.894 86.6643 131.1 86.6639L140.421 86.6477C140.626 86.6474 140.83 86.6066 141.02 86.5277C141.21 86.4487 141.382 86.3333 141.528 86.1878C141.673 86.0424 141.788 85.8698 141.866 85.68C141.945 85.4902 141.985 85.2868 141.985 85.0814L141.982 83.4585Z"/>
</mask>
<path d="M165.151 93.4879C165.151 93.8963 164.988 94.2879 164.699 94.5767C164.409 94.8655 164.017 95.0277 163.608 95.0277H1.39203C0.982822 95.0277 0.590379 94.8655 0.301027 94.5767C0.0116756 94.2879 -0.150879 93.8963 -0.150879 93.4879V1.51208C-0.150879 1.1037 0.0116756 0.71205 0.301027 0.423283C0.590379 0.134516 0.982822 -0.02771 1.39203 -0.02771H163.608C164.017 -0.02771 164.409 0.134516 164.699 0.423283C164.988 0.71205 165.151 1.1037 165.151 1.51208V93.4879ZM27.0874 9.92251C27.0878 9.71614 27.0474 9.51173 26.9686 9.32093C26.8898 9.13014 26.7741 8.9567 26.6282 8.81052C26.4822 8.66434 26.3088 8.54829 26.1179 8.46899C25.927 8.38968 25.7223 8.34868 25.5155 8.34832L16.2105 8.33209C16.0037 8.33173 15.7989 8.37202 15.6077 8.45066C15.4165 8.52931 15.2427 8.64476 15.0963 8.79043C14.9498 8.9361 14.8335 9.10913 14.754 9.29965C14.6746 9.49017 14.6335 9.69445 14.6331 9.90082L14.6303 11.5317C14.6299 11.738 14.6703 11.9424 14.7491 12.1332C14.8279 12.324 14.9436 12.4975 15.0895 12.6436C15.2355 12.7898 15.4089 12.9059 15.5998 12.9852C15.7907 13.0645 15.9954 13.1055 16.2022 13.1058L25.5072 13.1221C25.714 13.1224 25.9188 13.0821 26.11 13.0035C26.3012 12.9249 26.475 12.8094 26.6215 12.6637C26.7679 12.5181 26.8842 12.345 26.9637 12.1545C27.0431 11.964 27.0842 11.7597 27.0846 11.5533L27.0874 9.92251ZM43.8597 9.90375C43.8597 9.69842 43.8192 9.49511 43.7404 9.30541C43.6617 9.11571 43.5463 8.94335 43.4008 8.79816C43.2553 8.65297 43.0826 8.5378 42.8925 8.45922C42.7025 8.38065 42.4987 8.34021 42.293 8.34021H32.9721C32.5566 8.34021 32.1581 8.50494 31.8643 8.79816C31.5704 9.09138 31.4054 9.48907 31.4054 9.90375V11.5504C31.4054 11.9651 31.5704 12.3628 31.8643 12.656C32.1581 12.9492 32.5566 13.114 32.9721 13.114H42.293C42.4987 13.114 42.7025 13.0735 42.8925 12.9949C43.0826 12.9164 43.2553 12.8012 43.4008 12.656C43.5463 12.5108 43.6617 12.3385 43.7404 12.1488C43.8192 11.9591 43.8597 11.7557 43.8597 11.5504V9.90375ZM60.6427 9.91855C60.6431 9.71323 60.6029 9.50984 60.5245 9.32C60.4461 9.13017 60.331 8.9576 60.1858 8.81216C60.0406 8.66672 59.8681 8.55125 59.6781 8.47234C59.4882 8.39344 59.2845 8.35264 59.0788 8.35228L49.7579 8.33605C49.3423 8.33534 48.9436 8.49937 48.6493 8.79208C48.3549 9.08479 48.1892 9.48219 48.1884 9.89686L48.1856 11.5435C48.1852 11.7489 48.2254 11.9522 48.3038 12.1421C48.3822 12.3319 48.4973 12.5045 48.6425 12.6499C48.7877 12.7954 48.9602 12.9108 49.1502 12.9897C49.3401 13.0686 49.5438 13.1094 49.7495 13.1098L59.0704 13.126C59.486 13.1267 59.8847 12.9627 60.179 12.67C60.4734 12.3773 60.6391 11.9799 60.6398 11.5652L60.6427 9.91855ZM116.807 9.89686C116.807 9.48219 116.641 9.08479 116.346 8.79208C116.052 8.49937 115.653 8.33534 115.238 8.33605L105.917 8.35228C105.711 8.35264 105.508 8.39344 105.318 8.47234C105.128 8.55125 104.955 8.66672 104.81 8.81216C104.665 8.9576 104.55 9.13017 104.471 9.32C104.393 9.50984 104.353 9.71323 104.353 9.91855L104.356 11.5652C104.357 11.9799 104.522 12.3773 104.817 12.67C105.111 12.9627 105.51 13.1267 105.925 13.126L115.246 13.1098C115.452 13.1094 115.656 13.0686 115.846 12.9897C116.035 12.9108 116.208 12.7954 116.353 12.6499C116.498 12.5045 116.614 12.3319 116.692 12.1421C116.77 11.9522 116.811 11.7489 116.81 11.5435L116.807 9.89686ZM133.598 9.90375C133.598 9.48907 133.433 9.09138 133.139 8.79816C132.846 8.50494 132.447 8.34021 132.032 8.34021H122.703C122.287 8.34021 121.889 8.50494 121.595 8.79816C121.301 9.09138 121.136 9.48907 121.136 9.90375V11.5504C121.136 11.9651 121.301 12.3628 121.595 12.656C121.889 12.9492 122.287 13.114 122.703 13.114H132.032C132.447 13.114 132.846 12.9492 133.139 12.656C133.433 12.3628 133.598 11.9651 133.598 11.5504V9.90375ZM150.363 9.90082C150.362 9.69445 150.321 9.49017 150.242 9.29965C150.162 9.10913 150.046 8.9361 149.899 8.79043C149.753 8.64476 149.579 8.52931 149.388 8.45066C149.197 8.37202 148.992 8.33173 148.785 8.33209L139.48 8.34832C139.273 8.34868 139.069 8.38968 138.878 8.46899C138.687 8.54829 138.514 8.66434 138.368 8.81052C138.222 8.9567 138.106 9.13014 138.027 9.32093C137.948 9.51173 137.908 9.71614 137.908 9.92251L137.911 11.5533C137.911 11.7597 137.953 11.964 138.032 12.1545C138.112 12.345 138.228 12.5181 138.374 12.6637C138.521 12.8094 138.695 12.9249 138.886 13.0035C139.077 13.0821 139.282 13.1224 139.489 13.1221L148.794 13.1058C149 13.1055 149.205 13.0645 149.396 12.9852C149.587 12.9059 149.76 12.7898 149.906 12.6436C150.052 12.4975 150.168 12.324 150.247 12.1332C150.325 11.9424 150.366 11.738 150.365 11.5317L150.363 9.90082ZM42.4556 52.3133C38.2196 56.5408 30.9135 53.6077 30.8144 47.6108C30.7932 46.3442 31.1224 45.129 31.802 43.9652C31.8191 43.9371 31.8261 43.9039 31.8218 43.8709C31.8175 43.8379 31.8021 43.807 31.7782 43.7831L18.2411 30.2733C18.2257 30.2583 18.2074 30.2465 18.1874 30.2387C18.1673 30.2309 18.1459 30.2272 18.1243 30.228C18.1028 30.2287 18.0817 30.2338 18.0622 30.243C18.0427 30.2521 18.0253 30.2652 18.011 30.2812C9.66583 39.9673 9.30092 54.2292 17.5073 64.1012C27.2923 75.8773 45.1924 76.8273 56.1078 65.934C67.0232 55.0367 66.0673 37.1727 54.2674 27.4115C44.3714 19.2217 30.0806 19.5898 20.3789 27.9181C20.3628 27.9324 20.3498 27.9497 20.3406 27.9692C20.3314 27.9886 20.3263 28.0097 20.3255 28.0312C20.3248 28.0527 20.3284 28.0741 20.3363 28.0941C20.3441 28.1142 20.3559 28.1324 20.371 28.1477L33.9081 41.6575C33.932 41.6814 33.963 41.6967 33.9961 41.701C34.0292 41.7053 34.0625 41.6984 34.0906 41.6812C35.2567 41.0031 36.4744 40.6732 37.7436 40.6917C43.7526 40.7906 46.6956 48.0819 42.4556 52.3133ZM101.257 47.5356C101.273 64.8612 118.141 77.5556 134.808 72.4771C141.374 70.4768 146.423 66.4868 149.956 60.5071C152.029 56.9974 153.174 53.2317 153.39 49.21C153.398 49.0754 153.333 49.0081 153.196 49.0081H134.265C134.13 49.0081 134.04 49.0715 133.995 49.1981C132.987 52.1933 131.031 53.8808 128.125 54.2608C124.071 54.7873 120.545 51.5019 120.545 47.5198C120.537 43.5377 124.059 40.2444 128.113 40.7669C131.019 41.1416 132.978 42.8252 133.991 45.8177C134.036 45.9444 134.126 46.0077 134.261 46.0077L153.192 45.976C153.33 45.976 153.394 45.9087 153.386 45.7742C153.164 41.7525 152.013 37.9881 149.932 34.481C146.388 28.5066 141.333 24.5258 134.764 22.5387C118.09 17.4879 101.241 30.21 101.257 47.5356ZM73.5557 66.6267C74.0079 66.6267 74.3992 66.4129 74.7298 65.9854C74.9519 65.6978 75.063 65.2756 75.063 64.7188C75.0577 51.6457 75.059 42.8859 75.0669 38.4394C75.0669 38.3048 75.1343 38.2349 75.2692 38.2296C76.471 38.1781 78.0496 38.5779 78.5097 37.0579C78.6208 36.6885 78.5639 36.3415 78.3392 36.0169C77.5697 34.9046 76.5027 35.1935 75.2732 35.1975C75.1357 35.1975 75.0656 35.1276 75.063 34.9877C75.0444 33.7395 75.051 32.1707 75.0828 30.2812C75.0986 29.3075 74.5949 28.3892 73.5597 28.3892C72.5205 28.3892 72.0168 29.3075 72.0327 30.2812C72.0644 32.1707 72.071 33.7395 72.0525 34.9877C72.0499 35.1276 71.9798 35.1975 71.8423 35.1975C70.6127 35.1935 69.5458 34.9046 68.7763 36.0169C68.5515 36.3415 68.4947 36.6885 68.6057 37.0579C69.0658 38.5779 70.6444 38.1781 71.8462 38.2296C71.9811 38.2349 72.0485 38.3048 72.0485 38.4394C72.0565 42.8859 72.0578 51.6457 72.0525 64.7188C72.0525 65.2756 72.1636 65.6978 72.3857 65.9854C72.7162 66.4129 73.1062 66.6267 73.5557 66.6267ZM77.6966 47.504C77.6966 48.4144 78.5295 49.0596 79.4299 49.0081C79.8054 48.9844 80.3184 48.9817 80.9688 49.0002C81.1143 49.0028 81.1883 49.0781 81.191 49.2258C81.2042 50.7617 81.1936 55.9748 81.1592 64.8652C81.1592 65.3692 81.3218 65.7967 81.6471 66.1477C81.9406 66.4644 82.291 66.6227 82.6982 66.6227C83.1054 66.6227 83.4557 66.4644 83.7492 66.1477C84.0745 65.7967 84.2371 65.3692 84.2371 64.8652C84.2027 55.9748 84.1922 50.7617 84.2054 49.2258C84.208 49.0781 84.2821 49.0028 84.4275 49.0002C85.078 48.9817 85.591 48.9844 85.9664 49.0081C86.8668 49.0596 87.6997 48.4144 87.6997 47.504C87.6997 46.5935 86.8668 45.9483 85.9664 45.9998C85.591 46.0235 85.078 46.0262 84.4275 46.0077C84.2821 46.0051 84.208 45.9299 84.2054 45.7821C84.1922 44.2462 84.2027 39.0331 84.2371 30.1427C84.2371 29.6387 84.0745 29.2112 83.7492 28.8602C83.4557 28.5435 83.1054 28.3852 82.6982 28.3852C82.291 28.3852 81.9406 28.5435 81.6471 28.8602C81.3218 29.2112 81.1592 29.6387 81.1592 30.1427C81.1936 39.0331 81.2042 44.2462 81.191 45.7821C81.1883 45.9299 81.1143 46.0051 80.9688 46.0077C80.3184 46.0262 79.8054 46.0235 79.4299 45.9998C78.5295 45.9483 77.6966 46.5935 77.6966 47.504ZM91.44 66.6267C91.8922 66.6267 92.2822 66.4169 92.6101 65.9973C92.8348 65.7097 92.9472 65.2822 92.9472 64.7148C92.9472 61.7909 92.9472 60.23 92.9472 60.0321C92.9498 59.8949 93.0186 59.8196 93.1535 59.8065C93.2909 59.7959 93.7008 59.7919 94.383 59.7946C95.0229 59.7972 95.4777 59.7141 95.7474 59.5452C96.4892 59.0781 96.6557 58.0608 96.1124 57.384C95.442 56.5448 94.1212 56.7823 93.1733 56.7942C93.0358 56.7968 92.9657 56.7295 92.9631 56.5923C92.9366 47.4538 92.9353 38.6505 92.9591 30.1823C92.9591 29.2283 92.4157 28.3931 91.444 28.3931C90.4682 28.3931 89.9249 29.2283 89.9249 30.1823C89.9486 38.6505 89.9473 47.4538 89.9209 56.5923C89.9182 56.7295 89.8482 56.7968 89.7107 56.7942C88.7627 56.7823 87.4419 56.5448 86.7716 57.384C86.2282 58.0608 86.3948 59.0781 87.1365 59.5452C87.4062 59.7141 87.861 59.7972 88.5009 59.7946C89.1831 59.7919 89.593 59.7959 89.7305 59.8065C89.8654 59.8196 89.9341 59.8949 89.9367 60.0321C89.9367 60.23 89.9367 61.7909 89.9367 64.7148C89.9367 65.2822 90.0491 65.7097 90.2739 65.9973C90.6018 66.4169 90.9905 66.6267 91.44 66.6267ZM41.4244 47.5079C41.4244 47.0099 41.3261 46.5168 41.1351 46.0567C40.9442 45.5967 40.6643 45.1786 40.3114 44.8265C39.9586 44.4744 39.5397 44.1951 39.0787 44.0045C38.6177 43.8139 38.1236 43.7158 37.6246 43.7158C37.1256 43.7158 36.6315 43.8139 36.1705 44.0045C35.7095 44.1951 35.2906 44.4744 34.9378 44.8265C34.5849 45.1786 34.305 45.5967 34.1141 46.0567C33.9231 46.5168 33.8248 47.0099 33.8248 47.5079C33.8248 48.5136 34.2252 49.4782 34.9378 50.1893C35.6504 50.9005 36.6168 51.3 37.6246 51.3C38.6324 51.3 39.5988 50.9005 40.3114 50.1893C41.024 49.4782 41.4244 48.5136 41.4244 47.5079ZM131.171 47.5079C131.171 47.0099 131.073 46.5168 130.882 46.0567C130.691 45.5967 130.411 45.1786 130.058 44.8265C129.705 44.4744 129.286 44.1951 128.825 44.0045C128.364 43.8139 127.87 43.7158 127.371 43.7158C126.872 43.7158 126.378 43.8139 125.917 44.0045C125.456 44.1951 125.037 44.4744 124.684 44.8265C124.331 45.1786 124.052 45.5967 123.861 46.0567C123.67 46.5168 123.571 47.0099 123.571 47.5079C123.571 48.5136 123.972 49.4782 124.684 50.1893C125.397 50.9005 126.363 51.3 127.371 51.3C128.379 51.3 129.345 50.9005 130.058 50.1893C130.771 49.4782 131.171 48.5136 131.171 47.5079ZM35.4683 83.4723C35.4687 83.268 35.4287 83.0657 35.3507 82.8768C35.2727 82.6879 35.1582 82.5162 35.0137 82.3715C34.8692 82.2268 34.6976 82.1119 34.5086 82.0334C34.3196 81.9549 34.117 81.9143 33.9123 81.9139L24.5835 81.8977C24.3788 81.8974 24.176 81.9372 23.9867 82.0151C23.7975 82.0929 23.6254 82.2072 23.4804 82.3514C23.3354 82.4956 23.2203 82.6669 23.1416 82.8555C23.063 83.0441 23.0223 83.2463 23.0219 83.4506L23.0191 85.0894C23.0187 85.2936 23.0587 85.496 23.1367 85.6849C23.2147 85.8738 23.3292 86.0454 23.4737 86.1902C23.6182 86.3349 23.7898 86.4498 23.9788 86.5283C24.1678 86.6068 24.3704 86.6474 24.5751 86.6477L33.904 86.6639C34.1087 86.6643 34.3114 86.6244 34.5007 86.5466C34.69 86.4687 34.862 86.3544 35.007 86.2102C35.152 86.066 35.2671 85.8948 35.3458 85.7062C35.4244 85.5176 35.4651 85.3153 35.4655 85.111L35.4683 83.4723ZM52.2341 83.4604C52.2344 83.2572 52.1947 83.0559 52.1171 82.8679C52.0395 82.68 51.9255 82.5092 51.7818 82.3652C51.638 82.2213 51.4673 82.107 51.2793 82.0288C51.0912 81.9507 50.8896 81.9103 50.686 81.91L41.3571 81.8938C41.1535 81.8934 40.9517 81.9331 40.7634 82.0105C40.5751 82.088 40.404 82.2017 40.2597 82.3452C40.1155 82.4886 40.0009 82.6591 39.9227 82.8467C39.8444 83.0343 39.8039 83.2355 39.8036 83.4388L39.8007 85.1012C39.8003 85.3045 39.8401 85.5058 39.9177 85.6937C39.9953 85.8816 40.1092 86.0525 40.253 86.1964C40.3967 86.3404 40.5675 86.4547 40.7555 86.5328C40.9436 86.6109 41.1451 86.6513 41.3488 86.6517L50.6777 86.6679C50.8813 86.6683 51.083 86.6286 51.2713 86.5511C51.4596 86.4737 51.6308 86.36 51.7751 86.2165C51.9193 86.073 52.0338 85.9026 52.1121 85.715C52.1904 85.5273 52.2308 85.3261 52.2312 85.1229L52.2341 83.4604ZM125.196 83.4467C125.196 83.2434 125.155 83.0423 125.077 82.8546C124.999 82.667 124.884 82.4966 124.74 82.3531C124.596 82.2096 124.425 82.0959 124.236 82.0185C124.048 81.941 123.846 81.9013 123.643 81.9017L114.314 81.9179C114.11 81.9183 113.908 81.9586 113.72 82.0368C113.532 82.1149 113.362 82.2292 113.218 82.3731C113.074 82.5171 112.96 82.6879 112.883 82.8758C112.805 83.0638 112.765 83.2651 112.766 83.4683L112.769 85.1229C112.769 85.3261 112.809 85.5273 112.888 85.715C112.966 85.9026 113.08 86.073 113.225 86.2165C113.369 86.36 113.54 86.4737 113.728 86.5511C113.917 86.6286 114.118 86.6683 114.322 86.6679L123.651 86.6517C123.855 86.6513 124.056 86.6109 124.244 86.5328C124.432 86.4547 124.603 86.3404 124.747 86.1964C124.89 86.0525 125.004 85.8816 125.082 85.6937C125.16 85.5058 125.199 85.3045 125.199 85.1012L125.196 83.4467ZM141.982 83.4585C141.981 83.2532 141.94 83.0499 141.861 82.8604C141.782 82.6708 141.667 82.4987 141.521 82.3537C141.375 82.2088 141.202 82.0939 141.012 82.0157C140.822 81.9374 140.618 81.8974 140.412 81.8977L131.091 81.9139C130.886 81.9143 130.682 81.9551 130.492 82.034C130.302 82.1129 130.13 82.2284 129.984 82.3738C129.839 82.5193 129.724 82.6918 129.646 82.8817C129.567 83.0715 129.527 83.2749 129.527 83.4802L129.53 85.1031C129.531 85.3085 129.571 85.5117 129.651 85.7013C129.73 85.8908 129.845 86.063 129.991 86.2079C130.137 86.3529 130.31 86.4677 130.5 86.546C130.69 86.6242 130.894 86.6643 131.1 86.6639L140.421 86.6477C140.626 86.6474 140.83 86.6066 141.02 86.5277C141.21 86.4487 141.382 86.3333 141.528 86.1878C141.673 86.0424 141.788 85.8698 141.866 85.68C141.945 85.4902 141.985 85.2868 141.985 85.0814L141.982 83.4585Z" fill="url(#paint0_linear_17_1805)" stroke="black" stroke-width="4" mask="url(#path-24-inside-1_17_1805)"/>
<path d="M25.5154 8.34833L16.2104 8.33212C15.3407 8.3306 14.6345 9.03294 14.633 9.90083L14.6301 11.5317C14.6286 12.3996 15.3324 13.1043 16.202 13.1059L25.5071 13.1221C26.3767 13.1236 27.0829 12.4212 27.0844 11.5534L27.0873 9.92253C27.0888 9.05463 26.3851 8.34984 25.5154 8.34833Z" fill="#F4F4F6"/>
<path d="M42.2934 8.34021H32.9725C32.1072 8.34021 31.4058 9.04023 31.4058 9.90375V11.5504C31.4058 12.4139 32.1072 13.114 32.9725 13.114H42.2934C43.1587 13.114 43.8601 12.4139 43.8601 11.5504V9.90375C43.8601 9.04023 43.1587 8.34021 42.2934 8.34021Z" fill="#F4F4F6"/>
<path d="M59.079 8.35228L49.7581 8.33604C48.8928 8.33453 48.1902 9.03333 48.1887 9.89685L48.1858 11.5435C48.1843 12.407 48.8845 13.1083 49.7498 13.1098L59.0707 13.126C59.9359 13.1275 60.6386 12.4287 60.6401 11.5652L60.643 9.91855C60.6445 9.05503 59.9443 8.35378 59.079 8.35228Z" fill="#F4F4F6"/>
<path d="M115.238 8.33605L105.917 8.35228C105.052 8.35379 104.352 9.05503 104.353 9.91855L104.356 11.5652C104.358 12.4287 105.06 13.1275 105.926 13.126L115.247 13.1098C116.112 13.1083 116.812 12.407 116.811 11.5435L116.808 9.89686C116.806 9.03334 116.103 8.33454 115.238 8.33605Z" fill="#F4F4F6"/>
<path d="M132.032 8.34021H122.703C121.838 8.34021 121.136 9.04023 121.136 9.90375V11.5504C121.136 12.4139 121.838 13.114 122.703 13.114H132.032C132.897 13.114 133.598 12.4139 133.598 11.5504V9.90375C133.598 9.04023 132.897 8.34021 132.032 8.34021Z" fill="#F4F4F6"/>
<path d="M148.785 8.33212L139.48 8.34833C138.611 8.34985 137.907 9.05464 137.909 9.92253L137.911 11.5534C137.913 12.4213 138.619 13.1236 139.489 13.1221L148.794 13.1059C149.663 13.1044 150.367 12.3996 150.366 11.5317L150.363 9.90084C150.361 9.03295 149.655 8.33061 148.785 8.33212Z" fill="#F4F4F6"/>
<path d="M56.1081 65.934C45.1927 76.8273 27.2926 75.8773 17.5076 64.1013C9.30121 54.2292 9.66612 39.9673 18.0113 30.2813C18.0256 30.2652 18.043 30.2521 18.0625 30.243C18.082 30.2338 18.1031 30.2287 18.1246 30.228C18.1462 30.2272 18.1676 30.2309 18.1877 30.2387C18.2077 30.2465 18.226 30.2583 18.2414 30.2733L31.7785 43.7831C31.8024 43.807 31.8178 43.8379 31.8221 43.8709C31.8264 43.9039 31.8194 43.9371 31.8023 43.9652C31.1227 45.129 30.7935 46.3442 30.8147 47.6108C30.9138 53.6077 38.2198 56.5408 42.4559 52.3133C46.6959 48.0819 43.7529 40.7906 37.7439 40.6917C36.4747 40.6732 35.257 41.0031 34.0909 41.6813C34.0628 41.6984 34.0295 41.7053 33.9964 41.701C33.9633 41.6967 33.9323 41.6814 33.9084 41.6575L20.3713 28.1477C20.3562 28.1324 20.3444 28.1142 20.3365 28.0941C20.3287 28.0741 20.3251 28.0527 20.3258 28.0312C20.3266 28.0097 20.3317 27.9886 20.3409 27.9692C20.35 27.9497 20.3631 27.9324 20.3792 27.9181C30.0809 19.5898 44.3717 19.2217 54.2677 27.4115C66.0676 37.1727 67.0234 55.0367 56.1081 65.934ZM47.5447 30.776C48.531 31.3592 49.5861 32.1285 50.7099 33.0838C51.2096 33.5086 51.6235 33.7224 51.9513 33.725C52.5992 33.7329 53.0593 33.4479 53.3316 32.87C53.6198 32.2604 53.5961 31.7788 53.2602 31.4252C52.1629 30.2667 50.7707 29.1874 49.0837 28.1873C47.394 27.1898 45.7771 26.4879 44.2328 26.0815C43.7595 25.9574 43.3245 26.1685 42.9279 26.7148C42.5498 27.2294 42.5194 27.769 42.8367 28.3338C42.998 28.6188 43.3853 28.8774 43.9988 29.1096C45.3765 29.6374 46.5584 30.1929 47.5447 30.776ZM56.235 35.5815C56.235 35.214 56.0887 34.8616 55.8284 34.6018C55.5681 34.342 55.215 34.196 54.8468 34.196C54.4786 34.196 54.1255 34.342 53.8651 34.6018C53.6048 34.8616 53.4585 35.214 53.4585 35.5815C53.4585 35.9489 53.6048 36.3013 53.8651 36.5611C54.1255 36.8209 54.4786 36.9669 54.8468 36.9669C55.215 36.9669 55.5681 36.8209 55.8284 36.5611C56.0887 36.3013 56.235 35.9489 56.235 35.5815ZM58.4416 38.9546C58.3827 38.7758 58.2891 38.6104 58.1662 38.4677C58.0432 38.3251 57.8933 38.208 57.725 38.1231C57.5567 38.0383 57.3733 37.9874 57.1853 37.9733C56.9973 37.9592 56.8083 37.9822 56.6292 38.0409L56.5161 38.078C56.1544 38.1967 55.8547 38.454 55.683 38.7932C55.5113 39.1324 55.4817 39.5258 55.6006 39.8868L56.6858 43.1808C56.7447 43.3596 56.8383 43.525 56.9613 43.6677C57.0842 43.8103 57.2341 43.9274 57.4024 44.0123C57.5707 44.0971 57.7541 44.148 57.9422 44.1622C58.1302 44.1763 58.3191 44.1533 58.4983 44.0945L58.6113 44.0574C58.9731 43.9387 59.2727 43.6815 59.4444 43.3422C59.6161 43.003 59.6458 42.6097 59.5268 42.2486L58.4416 38.9546Z" fill="#F4F4F6"/>
<path d="M120.545 47.5198C120.545 51.5019 124.071 54.7873 128.125 54.2608C131.031 53.8808 132.988 52.1933 133.995 49.1981C134.04 49.0714 134.13 49.0081 134.265 49.0081H153.196C153.334 49.0081 153.398 49.0754 153.391 49.21C153.174 53.2317 152.029 56.9973 149.956 60.5071C146.423 66.4868 141.374 70.4768 134.808 72.4771C118.142 77.5556 101.273 64.8612 101.257 47.5356C101.241 30.21 118.09 17.4879 134.765 22.5387C141.333 24.5258 146.389 28.5066 149.932 34.481C152.013 37.9881 153.164 41.7525 153.387 45.7742C153.394 45.9087 153.33 45.976 153.192 45.976L134.261 46.0077C134.126 46.0077 134.036 45.9444 133.991 45.8177C132.978 42.8252 131.019 41.1416 128.113 40.7669C124.059 40.2444 120.537 43.5377 120.545 47.5198ZM110.832 62.7079C112.87 64.9167 115.299 66.6715 118.118 67.9725C119.128 68.4396 119.966 68.7404 120.632 68.875C121.383 69.028 121.947 68.6942 122.322 67.8735C122.322 67.8709 122.327 67.8326 122.338 67.7587C122.446 66.8721 122.079 66.281 121.235 65.9854C117.986 64.8428 115.255 63.0708 113.045 60.6694C110.829 58.2759 109.283 55.4153 108.408 52.0877C108.181 51.2248 107.62 50.8118 106.726 50.8487C106.652 50.8514 106.614 50.8527 106.611 50.8527C105.76 51.1588 105.381 51.6919 105.473 52.4519C105.552 53.1274 105.784 53.9864 106.167 55.0287C107.235 57.9394 108.79 60.4992 110.832 62.7079Z" fill="#F4F4F6"/>
<path d="M49.0838 28.1873C50.7708 29.1874 52.163 30.2667 53.2604 31.4252C53.5962 31.7788 53.62 32.2604 53.3317 32.87C53.0594 33.4479 52.5993 33.7329 51.9515 33.725C51.6236 33.7224 51.2098 33.5086 50.71 33.0837C49.5862 32.1285 48.5311 31.3592 47.5448 30.776C46.5586 30.1928 45.3766 29.6374 43.9989 29.1096C43.3855 28.8774 42.9981 28.6187 42.8368 28.3337C42.5195 27.769 42.5499 27.2294 42.928 26.7148C43.3247 26.1685 43.7596 25.9574 44.233 26.0815C45.7772 26.4878 47.3941 27.1898 49.0838 28.1873Z" fill="black"/>
<path d="M73.5598 28.3892C74.5951 28.3892 75.0988 29.3075 75.0829 30.2812C75.0512 32.1707 75.0446 33.7395 75.0631 34.9877C75.0657 35.1276 75.1358 35.1975 75.2733 35.1975C76.5029 35.1935 77.5698 34.9046 78.3393 36.0169C78.564 36.3415 78.6209 36.6885 78.5098 37.0579C78.0497 38.5779 76.4711 38.1781 75.2693 38.2296C75.1345 38.2349 75.0671 38.3048 75.0671 38.4394C75.0591 42.8859 75.0578 51.6457 75.0631 64.7187C75.0631 65.2756 74.952 65.6978 74.7299 65.9854C74.3994 66.4129 74.008 66.6267 73.5559 66.6267C73.1064 66.6267 72.7163 66.4129 72.3858 65.9854C72.1637 65.6978 72.0526 65.2756 72.0526 64.7187C72.0579 51.6457 72.0566 42.8859 72.0487 38.4394C72.0487 38.3048 71.9812 38.2349 71.8464 38.2296C70.6446 38.1781 69.066 38.5779 68.6059 37.0579C68.4948 36.6885 68.5517 36.3415 68.7764 36.0169C69.5459 34.9046 70.6128 35.1935 71.8424 35.1975C71.9799 35.1975 72.05 35.1276 72.0526 34.9877C72.0711 33.7395 72.0645 32.1707 72.0328 30.2812C72.0169 29.3075 72.5207 28.3892 73.5598 28.3892Z" fill="#F4F4F6"/>
<path d="M82.6983 28.3852C83.1055 28.3852 83.4559 28.5436 83.7494 28.8602C84.0747 29.2112 84.2373 29.6387 84.2373 30.1427C84.2029 39.0331 84.1923 44.2463 84.2055 45.7821C84.2082 45.9299 84.2822 46.0051 84.4277 46.0077C85.0781 46.0262 85.5911 46.0236 85.9666 45.9998C86.867 45.9483 87.6999 46.5936 87.6999 47.504C87.6999 48.4144 86.867 49.0596 85.9666 49.0081C85.5911 48.9844 85.0781 48.9817 84.4277 49.0002C84.2822 49.0029 84.2082 49.0781 84.2055 49.2258C84.1923 50.7617 84.2029 55.9748 84.2373 64.8652C84.2373 65.3692 84.0747 65.7967 83.7494 66.1477C83.4559 66.4644 83.1055 66.6227 82.6983 66.6227C82.2911 66.6227 81.9408 66.4644 81.6473 66.1477C81.322 65.7967 81.1594 65.3692 81.1594 64.8652C81.1938 55.9748 81.2043 50.7617 81.1911 49.2258C81.1885 49.0781 81.1144 49.0029 80.969 49.0002C80.3185 48.9817 79.8055 48.9844 79.4301 49.0081C78.5297 49.0596 77.6968 48.4144 77.6968 47.504C77.6968 46.5936 78.5297 45.9483 79.4301 45.9998C79.8055 46.0236 80.3185 46.0262 80.969 46.0077C81.1144 46.0051 81.1885 45.9299 81.1911 45.7821C81.2043 44.2463 81.1938 39.0331 81.1594 30.1427C81.1594 29.6387 81.322 29.2112 81.6473 28.8602C81.9408 28.5436 82.2911 28.3852 82.6983 28.3852Z" fill="#F4F4F6"/>
<path d="M91.4439 28.3931C92.4157 28.3931 92.9591 29.2283 92.9591 30.1823C92.9353 38.6505 92.9366 47.4538 92.9631 56.5923C92.9657 56.7295 93.0358 56.7968 93.1733 56.7942C94.1212 56.7823 95.442 56.5448 96.1123 57.384C96.6557 58.0608 96.4891 59.0781 95.7474 59.5452C95.4777 59.7141 95.0229 59.7972 94.383 59.7946C93.7008 59.7919 93.2909 59.7959 93.1534 59.8065C93.0186 59.8197 92.9498 59.8949 92.9472 60.0321C92.9472 60.23 92.9472 61.7909 92.9472 64.7148C92.9472 65.2822 92.8348 65.7097 92.61 65.9973C92.2822 66.4169 91.8921 66.6267 91.44 66.6267C90.9905 66.6267 90.6018 66.4169 90.2739 65.9973C90.0491 65.7097 89.9367 65.2822 89.9367 64.7148C89.9367 61.7909 89.9367 60.23 89.9367 60.0321C89.9341 59.8949 89.8653 59.8197 89.7305 59.8065C89.593 59.7959 89.1831 59.7919 88.5009 59.7946C87.861 59.7972 87.4062 59.7141 87.1365 59.5452C86.3948 59.0781 86.2282 58.0608 86.7716 57.384C87.4419 56.5448 88.7627 56.7823 89.7106 56.7942C89.8481 56.7968 89.9182 56.7295 89.9209 56.5923C89.9473 47.4538 89.9486 38.6505 89.9248 30.1823C89.9248 29.2283 90.4682 28.3931 91.4439 28.3931Z" fill="#F4F4F6"/>
<path d="M54.8467 36.9669C55.6134 36.9669 56.2349 36.3466 56.2349 35.5815C56.2349 34.8163 55.6134 34.196 54.8467 34.196C54.08 34.196 53.4585 34.8163 53.4585 35.5815C53.4585 36.3466 54.08 36.9669 54.8467 36.9669Z" fill="black"/>
<path d="M56.6289 38.0409L56.5158 38.078C55.7625 38.3252 55.3526 39.135 55.6003 39.8868L56.6855 43.1808C56.9332 43.9326 57.7447 44.3417 58.498 44.0945L58.611 44.0574C59.3643 43.8102 59.7742 43.0004 59.5265 42.2486L58.4413 38.9546C58.1936 38.2028 57.3822 37.7938 56.6289 38.0409Z" fill="black"/>
<path d="M37.6245 51.3C39.723 51.3 41.4242 49.6022 41.4242 47.5079C41.4242 45.4136 39.723 43.7158 37.6245 43.7158C35.5259 43.7158 33.8247 45.4136 33.8247 47.5079C33.8247 49.6022 35.5259 51.3 37.6245 51.3Z" fill="#F4F4F6"/>
<path d="M127.371 51.3C129.47 51.3 131.171 49.6022 131.171 47.5079C131.171 45.4136 129.47 43.7158 127.371 43.7158C125.273 43.7158 123.571 45.4136 123.571 47.5079C123.571 49.6022 125.273 51.3 127.371 51.3Z" fill="#F4F4F6"/>
<path d="M113.045 60.6694C115.255 63.0707 117.986 64.8428 121.235 65.9854C122.079 66.281 122.446 66.8721 122.338 67.7587C122.327 67.8326 122.322 67.8709 122.322 67.8735C121.947 68.6942 121.383 69.028 120.632 68.875C119.966 68.7404 119.128 68.4396 118.118 67.9725C115.299 66.6715 112.87 64.9167 110.832 62.7079C108.79 60.4992 107.235 57.9394 106.167 55.0287C105.784 53.9864 105.552 53.1274 105.473 52.4519C105.381 51.6919 105.76 51.1588 106.611 50.8527C106.614 50.8527 106.652 50.8514 106.726 50.8487C107.62 50.8118 108.181 51.2248 108.408 52.0877C109.283 55.4153 110.829 58.2759 113.045 60.6694Z" fill="black"/>
<path d="M33.9125 81.914L24.5837 81.8977C23.7228 81.8962 23.0237 82.5915 23.0222 83.4506L23.0193 85.0894C23.0178 85.9485 23.7145 86.6462 24.5754 86.6477L33.9042 86.664C34.7651 86.6655 35.4642 85.9702 35.4657 85.1111L35.4686 83.4723C35.4701 82.6132 34.7734 81.9155 33.9125 81.914Z" fill="#F4F4F6"/>
<path d="M50.6858 81.91L41.357 81.8938C40.5005 81.8923 39.8049 82.584 39.8034 83.4388L39.8005 85.1013C39.799 85.956 40.4922 86.6502 41.3487 86.6517L50.6775 86.6679C51.534 86.6694 52.2296 85.9777 52.231 85.1229L52.234 83.4604C52.2354 82.6056 51.5423 81.9115 50.6858 81.91Z" fill="#F4F4F6"/>
<path d="M123.643 81.9017L114.314 81.918C113.458 81.9194 112.764 82.6136 112.766 83.4684L112.769 85.1229C112.77 85.9777 113.466 86.6694 114.322 86.6679L123.651 86.6517C124.508 86.6502 125.201 85.9561 125.199 85.1013L125.196 83.4467C125.195 82.5919 124.499 81.9002 123.643 81.9017Z" fill="#F4F4F6"/>
<path d="M140.413 81.8977L131.092 81.914C130.226 81.9155 129.526 82.6167 129.528 83.4802L129.53 85.1031C129.532 85.9667 130.235 86.6655 131.1 86.664L140.421 86.6477C141.286 86.6462 141.986 85.945 141.985 85.0814L141.982 83.4585C141.98 82.595 141.278 81.8962 140.413 81.8977Z" fill="#F4F4F6"/>
</g>
<defs>
<linearGradient id="paint0_linear_17_1805" x1="82.4998" y1="-0.02771" x2="82.4998" y2="95.0277" gradientUnits="userSpaceOnUse">
<stop stop-color="#8B8B8B"/>
<stop offset="1" stop-color="#3B3B3B"/>
</linearGradient>
<clipPath id="clip0_17_1805">
<rect width="165" height="95" fill="white"/>
</clipPath>
</defs>
</svg>
