<svg width="96" height="65" viewBox="0 0 96 65" fill="none" xmlns="http://www.w3.org/2000/svg">
<path d="M0.532227 64L4.46778 0.506858L90.2627 1.66116L94.9609 64L0.532227 64Z" fill="#D9D9D9" stroke="black"/>
<rect x="0.5" y="60" width="94" height="4" fill="black"/>
<path d="M3 22L4 23.5V62.6009L0.5 62.0001L3 22Z" fill="black"/>
<path d="M91.8011 20.0162L90.8729 21.5815L91.5 62L94.8231 61.3272L91.8011 20.0162Z" fill="black"/>
<mask id="path-5-inside-1_16_762" fill="white">
<path d="M89.9373 4.56546e-05C90.2891 -0.00115976 90.6269 0.127331 90.8766 0.357258C91.1262 0.587181 91.2672 0.899708 91.2685 1.22608L91.5005 59.473C91.5011 59.6346 91.4675 59.7947 91.4014 59.9443C91.3353 60.0938 91.2382 60.2298 91.1155 60.3445C90.9928 60.4592 90.847 60.5503 90.6863 60.6127C90.5256 60.6751 90.3533 60.7075 90.1791 60.7081L5.06365 61C4.71191 61.0012 4.37407 60.8727 4.12443 60.6428C3.87479 60.4129 3.73382 60.1003 3.73251 59.774L3.50049 1.52708C3.49985 1.36548 3.53352 1.20534 3.59958 1.05581C3.66563 0.90627 3.76279 0.770284 3.88548 0.655591C4.00818 0.540894 4.15403 0.449738 4.31469 0.387341C4.47535 0.324948 4.64768 0.292531 4.82184 0.291932L89.9373 4.56546e-05ZM8.0942 49.7806C7.86484 49.9506 7.6738 50.1608 7.532 50.3993C7.39019 50.6378 7.3004 50.8998 7.26774 51.1705C7.23508 51.4412 7.2602 51.7151 7.34166 51.9768C7.42312 52.2385 7.55931 52.4827 7.74249 52.6955C7.92566 52.9083 8.15221 53.0856 8.40921 53.2171C8.66621 53.3487 8.94864 53.432 9.24034 53.4623C9.53205 53.4926 9.82733 53.4693 10.1093 53.3938C10.3913 53.3182 10.6545 53.1918 10.8839 53.0218C11.3471 52.6786 11.6444 52.1786 11.7103 51.632C11.7763 51.0854 11.6055 50.5368 11.2356 50.107C10.8657 49.6772 10.3269 49.4013 9.73773 49.3401C9.14861 49.2789 8.55741 49.4374 8.0942 49.7806ZM14.9822 49.6899C14.5148 50.0363 14.2148 50.5408 14.1482 51.0925C14.0817 51.6441 14.254 52.1977 14.6273 52.6315C15.0006 53.0652 15.5444 53.3436 16.1389 53.4054C16.7334 53.4671 17.33 53.3072 17.7975 52.9608C18.2649 52.6144 18.565 52.1099 18.6315 51.5582C18.6981 51.0066 18.5258 50.453 18.1524 50.0193C17.7791 49.5855 17.2354 49.3071 16.6408 49.2454C16.0463 49.1836 15.4497 49.3435 14.9822 49.6899ZM10.8839 40.1429C11.1001 40.1429 11.2738 40.1429 11.4049 40.143C11.4372 40.143 11.4682 40.1312 11.4912 40.1102C11.5142 40.0892 11.5273 40.0606 11.5278 40.0307L11.5088 33.2283C11.508 33.1539 11.5394 33.0952 11.6029 33.0522C12.0971 32.7204 12.3371 32.272 12.3226 31.707C12.3136 31.359 12.2894 31.0111 12.25 30.6633C12.2048 30.2631 11.9921 29.9474 11.6119 29.7163C11.5373 29.6703 11.5002 29.6056 11.5005 29.5222L11.5004 29.2061C11.5004 29.1909 11.4972 29.176 11.491 29.162C11.4847 29.148 11.4755 29.1353 11.4639 29.1247C11.4523 29.114 11.4385 29.1056 11.4234 29.1C11.4083 29.0943 11.3921 29.0915 11.3757 29.0917C11.3174 29.0924 11.1437 29.0924 10.8547 29.0917C10.5655 29.0932 10.3917 29.0943 10.3333 29.095C10.317 29.0947 10.3009 29.0975 10.2857 29.1031C10.2706 29.1087 10.2568 29.1171 10.2452 29.1277C10.2336 29.1382 10.2244 29.1509 10.2181 29.1648C10.2117 29.1787 10.2085 29.1937 10.2085 29.2088L10.2122 29.5253C10.2118 29.6086 10.1748 29.6735 10.1012 29.72C9.72221 29.9522 9.51094 30.2689 9.46739 30.67C9.43029 31.0178 9.40771 31.3659 9.39967 31.7144C9.38743 32.2788 9.62921 32.726 10.125 33.0558C10.1892 33.0975 10.221 33.156 10.2204 33.2314L10.2358 40.0334C10.2363 40.0634 10.2494 40.092 10.2725 40.1131C10.2955 40.1341 10.3266 40.1459 10.3589 40.1459C10.4914 40.145 10.6664 40.144 10.8839 40.1429ZM21.9942 49.705C21.7648 49.875 21.5738 50.0852 21.432 50.3237C21.2901 50.5621 21.2003 50.8242 21.1677 51.0949C21.135 51.3655 21.1601 51.6395 21.2416 51.9012C21.3231 52.1628 21.4593 52.407 21.6424 52.6199C22.0124 53.0497 22.5512 53.3255 23.1403 53.3867C23.7294 53.4479 24.3206 53.2895 24.7838 52.9462C25.247 52.6029 25.5443 52.103 25.6103 51.5564C25.6763 51.0097 25.5055 50.4612 25.1355 50.0314C24.9524 49.8185 24.7258 49.6413 24.4688 49.5097C24.2118 49.3781 23.9294 49.2948 23.6377 49.2645C23.346 49.2342 23.0507 49.2575 22.7687 49.3331C22.4867 49.4087 22.2235 49.5351 21.9942 49.705ZM28.3072 49.2732C28.2834 49.2733 28.2607 49.2822 28.2439 49.2978C28.2272 49.3135 28.2179 49.3347 28.218 49.3568L28.2609 56.6738C28.2611 56.6958 28.2706 56.7169 28.2875 56.7325C28.3044 56.748 28.3273 56.7566 28.351 56.7565L86.9974 56.4604C87.0212 56.4603 87.0439 56.4514 87.0606 56.4357C87.0773 56.4201 87.0866 56.3989 87.0865 56.3768L87.0436 49.0598C87.0435 49.0377 87.0339 49.0166 87.017 49.0011C87.0001 48.9856 86.9773 48.977 86.9535 48.9771L28.3072 49.2732ZM18.725 37.1812C19.6538 36.8213 19.5574 36.0202 19.5546 35.1071C19.5525 34.4905 19.3324 34.0698 18.8944 33.8452C18.8259 33.8087 18.7918 33.7539 18.7922 33.6807L18.7794 29.2726C18.7793 29.2444 18.7672 29.2174 18.7457 29.1974C18.7242 29.1774 18.6951 29.1662 18.6647 29.166L17.5731 29.1693C17.5544 29.1692 17.5358 29.1725 17.5185 29.1791C17.5012 29.1858 17.4855 29.1955 17.4723 29.2078C17.4591 29.2202 17.4487 29.2348 17.4417 29.2509C17.4347 29.267 17.4312 29.2842 17.4314 29.3016L17.4438 33.7587C17.444 33.8376 17.4168 33.9063 17.3624 33.9649C16.7336 34.6467 16.7202 35.3012 16.8009 36.3238C16.8241 36.6248 17.0284 36.8991 17.4139 37.1465C17.4883 37.1948 17.5258 37.2612 17.5265 37.3458L17.5329 40.0257C17.5325 40.0989 17.5798 40.1348 17.6747 40.1334L18.4709 40.1333C18.5668 40.1331 18.614 40.089 18.6125 40.0009L18.6045 37.3496C18.6046 37.2685 18.6448 37.2123 18.725 37.1812ZM12.361 20.6848C11.8978 21.028 11.6005 21.528 11.5345 22.0746C11.4686 22.6212 11.6393 23.1698 12.0093 23.5996C12.3792 24.0294 12.918 24.3053 13.5071 24.3665C14.0963 24.4277 14.6875 24.2692 15.1507 23.926C15.6139 23.5827 15.9112 23.0828 15.9771 22.5361C16.0431 21.9895 15.8723 21.4409 15.5024 21.0111C15.1325 20.5813 14.5937 20.3055 14.0045 20.2443C13.4154 20.1831 12.8242 20.3415 12.361 20.6848ZM26.7125 30.6816C25.6752 31.4503 25.0094 32.5699 24.8617 33.794C24.714 35.0181 25.0964 36.2466 25.9249 37.2091C26.7533 38.1716 27.9599 38.7894 29.2792 38.9264C30.5984 39.0635 31.9224 38.7086 32.9597 37.9399C33.997 37.1712 34.6628 36.0517 34.8105 34.8275C34.9582 33.6034 34.5758 32.3749 33.7473 31.4124C32.9189 30.4499 31.7123 29.8322 30.393 29.6951C29.0737 29.5581 27.7498 29.9129 26.7125 30.6816ZM12.3755 13.4684C11.9107 13.8128 11.6124 14.3145 11.5462 14.863C11.48 15.4115 11.6514 15.962 12.0226 16.3933C12.3938 16.8246 12.9345 17.1013 13.5256 17.1628C14.1167 17.2242 14.71 17.0652 15.1748 16.7207C15.6396 16.3763 15.9379 15.8746 16.0041 15.3261C16.0703 14.7776 15.8989 14.2272 15.5277 13.7959C15.1565 13.3646 14.6158 13.0878 14.0247 13.0264C13.4336 12.965 12.8403 13.124 12.3755 13.4684ZM19.2786 20.6056C18.8138 20.95 18.5155 21.4516 18.4493 22.0002C18.3831 22.5487 18.5545 23.0991 18.9257 23.5304C19.2969 23.9617 19.8376 24.2385 20.4287 24.2999C21.0199 24.3613 21.6131 24.2023 22.0779 23.8579C22.5427 23.5135 22.841 23.0118 22.9072 22.4633C22.9734 21.9148 22.802 21.3643 22.4308 20.933C22.0596 20.5017 21.519 20.2249 20.9278 20.1635C20.3367 20.1021 19.7434 20.2611 19.2786 20.6056ZM39.3675 36.1682C39.3554 36.1682 39.3434 36.1704 39.3322 36.1746C39.321 36.1789 39.3108 36.1852 39.3022 36.1931C39.2936 36.201 39.2868 36.2104 39.2821 36.2208C39.2775 36.2311 39.275 36.2422 39.275 36.2535L39.2419 45.6041C39.2418 45.6154 39.2442 45.6265 39.2488 45.6369C39.2534 45.6473 39.2601 45.6567 39.2687 45.6647C39.2772 45.6727 39.2873 45.679 39.2985 45.6833C39.3097 45.6877 39.3217 45.6899 39.3338 45.69L49.4112 45.7207C49.4233 45.7207 49.4353 45.7185 49.4465 45.7143C49.4577 45.71 49.4679 45.7038 49.4765 45.6958C49.4851 45.6879 49.4919 45.6785 49.4966 45.6681C49.5012 45.6578 49.5037 45.6467 49.5037 45.6354L49.5368 36.2848C49.5368 36.2735 49.5345 36.2624 49.5299 36.252C49.5253 36.2416 49.5186 36.2322 49.51 36.2242C49.5015 36.2162 49.4914 36.2099 49.4802 36.2056C49.469 36.2012 49.457 36.199 49.4449 36.1989L39.3675 36.1682ZM19.2839 13.4204C18.8196 13.7644 18.5217 14.2655 18.4556 14.8134C18.3895 15.3613 18.5606 15.9111 18.9314 16.3419C19.3022 16.7727 19.8422 17.0492 20.4327 17.1105C21.0232 17.1718 21.6157 17.013 22.08 16.669C22.5443 16.3249 22.8422 15.8239 22.9083 15.276C22.9745 14.7281 22.8033 14.1783 22.4325 13.7475C22.0617 13.3167 21.5217 13.0402 20.9312 12.9788C20.3407 12.9175 19.7482 13.0763 19.2839 13.4204ZM26.2609 20.6244C25.7977 20.9676 25.5004 21.4675 25.4345 22.0142C25.3685 22.5608 25.5393 23.1094 25.9092 23.5392C26.2792 23.969 26.818 24.2448 27.4071 24.306C27.9962 24.3672 28.5874 24.2088 29.0506 23.8655C29.28 23.6956 29.471 23.4854 29.6128 23.2469C29.7546 23.0084 29.8444 22.7464 29.8771 22.4757C29.9097 22.205 29.8846 21.931 29.8032 21.6694C29.7217 21.4077 29.5855 21.1635 29.4023 20.9507C29.2192 20.7379 28.9926 20.5606 28.7356 20.429C28.4786 20.2975 28.1962 20.2141 27.9045 20.1838C27.6128 20.1535 27.3175 20.1768 27.0355 20.2524C26.7535 20.328 26.4903 20.4544 26.2609 20.6244ZM39.3374 25.6861C39.324 25.6861 39.3107 25.6885 39.2982 25.6933C39.2858 25.698 39.2745 25.705 39.265 25.7138C39.2554 25.7226 39.2479 25.7331 39.2427 25.7446C39.2375 25.7562 39.2349 25.7685 39.2349 25.781L39.2194 35.1127C39.2194 35.1252 39.222 35.1375 39.2271 35.1491C39.2322 35.1606 39.2398 35.1711 39.2493 35.1799C39.2588 35.1888 39.27 35.1958 39.2825 35.2006C39.2949 35.2054 39.3082 35.2079 39.3216 35.2079L49.3787 35.2223C49.3921 35.2223 49.4054 35.2198 49.4179 35.2151C49.4303 35.2103 49.4416 35.2033 49.4511 35.1945C49.4606 35.1857 49.4682 35.1752 49.4734 35.1637C49.4785 35.1522 49.4812 35.1398 49.4812 35.1274L49.4967 25.7956C49.4967 25.7832 49.4941 25.7708 49.489 25.7593C49.4838 25.7477 49.4763 25.7372 49.4668 25.7284C49.4573 25.7196 49.446 25.7125 49.4336 25.7078C49.4212 25.703 49.4079 25.7005 49.3944 25.7005L39.3374 25.6861ZM51.1974 36.1938C51.1689 36.1937 51.1415 36.2041 51.1213 36.2228C51.1011 36.2414 51.0896 36.2668 51.0895 36.2932L51.0565 45.6154C51.0565 45.6419 51.0677 45.6673 51.0878 45.6861C51.1079 45.7048 51.1352 45.7155 51.1637 45.7155L61.2105 45.7462C61.239 45.7462 61.2664 45.7358 61.2866 45.7172C61.3068 45.6985 61.3183 45.6732 61.3184 45.6467L61.3513 36.3245C61.3514 36.2981 61.3402 36.2726 61.3201 36.2539C61.3 36.2351 61.2727 36.2245 61.2442 36.2244L51.1974 36.1938ZM26.1175 13.3882C25.6543 13.7315 25.357 14.2314 25.2911 14.778C25.2251 15.3247 25.3959 15.8732 25.7658 16.3031C26.1357 16.7329 26.6745 17.0087 27.2637 17.0699C27.8528 17.1311 28.444 16.9727 28.9072 16.6294C29.3704 16.2861 29.6677 15.7862 29.7337 15.2396C29.7996 14.6929 29.6289 14.1444 29.2589 13.7146C28.889 13.2847 28.3502 13.0089 27.7611 12.9477C27.1719 12.8865 26.5807 13.045 26.1175 13.3882ZM39.3209 15.192C39.2897 15.1919 39.2597 15.2034 39.2376 15.2239C39.2155 15.2443 39.203 15.2721 39.203 15.3011L39.1875 24.609C39.1875 24.638 39.1999 24.6658 39.2219 24.6864C39.244 24.7069 39.2739 24.7184 39.3051 24.7185L49.3365 24.7328C49.3678 24.7329 49.3977 24.7214 49.4199 24.7009C49.442 24.6805 49.4544 24.6527 49.4545 24.6237L49.4699 15.3158C49.47 15.2868 49.4576 15.259 49.4356 15.2384C49.4135 15.2179 49.3836 15.2064 49.3523 15.2063L39.3209 15.192ZM51.1677 25.7054C51.1392 25.7053 51.1118 25.7157 51.0916 25.7344C51.0713 25.753 51.0599 25.7784 51.0598 25.8048L51.0268 35.127C51.0267 35.1535 51.038 35.1789 51.0581 35.1977C51.0782 35.2164 51.1055 35.227 51.134 35.2271L61.1808 35.2577C61.2093 35.2578 61.2367 35.2474 61.2569 35.2287C61.2771 35.2101 61.2886 35.1847 61.2886 35.1583L61.3216 25.8361C61.3217 25.8096 61.3105 25.7842 61.2904 25.7654C61.2703 25.7467 61.243 25.7361 61.2145 25.736L51.1677 25.7054ZM63.1375 36.1551C63.111 36.1551 63.0856 36.1649 63.0669 36.1823C63.0482 36.1997 63.0378 36.2233 63.0378 36.2479L63.0574 45.5511C63.0574 45.5757 63.068 45.5992 63.0868 45.6165C63.1055 45.6339 63.1309 45.6436 63.1574 45.6435L73.1837 45.6254C73.2102 45.6253 73.2356 45.6155 73.2542 45.5981C73.2729 45.5807 73.2834 45.5572 73.2834 45.5326L73.2638 36.2294C73.2637 36.2048 73.2532 36.1813 73.2344 36.1639C73.2157 36.1466 73.1902 36.1369 73.1638 36.1369L63.1375 36.1551ZM39.2836 4.70353C39.2691 4.70351 39.2548 4.70613 39.2414 4.71125C39.228 4.71636 39.2159 4.72387 39.2056 4.73334C39.1954 4.74281 39.1873 4.75407 39.1817 4.76645C39.1762 4.77884 39.1733 4.79212 39.1733 4.80554L39.1578 14.1278C39.1578 14.1412 39.1606 14.1545 39.1661 14.1669C39.1716 14.1793 39.1797 14.1905 39.1899 14.2C39.2001 14.2095 39.2123 14.2171 39.2256 14.2222C39.239 14.2274 39.2533 14.2301 39.2677 14.2301L49.3145 14.2444C49.329 14.2445 49.3433 14.2418 49.3567 14.2367C49.37 14.2316 49.3822 14.2241 49.3924 14.2146C49.4027 14.2052 49.4108 14.1939 49.4163 14.1815C49.4219 14.1691 49.4248 14.1558 49.4248 14.1424L49.4403 4.82021C49.4403 4.8068 49.4375 4.79351 49.4319 4.78111C49.4264 4.7687 49.4183 4.75742 49.4081 4.74792C49.3979 4.73842 49.3858 4.73088 49.3725 4.72572C49.3591 4.72057 49.3448 4.71791 49.3303 4.71789L39.2836 4.70353ZM51.2178 15.1506C51.1913 15.1505 51.1659 15.1602 51.1472 15.1776C51.1284 15.1949 51.1178 15.2185 51.1178 15.2431L51.1023 24.5795C51.1023 24.6041 51.1127 24.6277 51.1314 24.6451C51.1501 24.6625 51.1755 24.6723 51.202 24.6723L61.2641 24.6867C61.2906 24.6867 61.316 24.677 61.3348 24.6597C61.3535 24.6423 61.3641 24.6188 61.3641 24.5942L61.3796 15.2577C61.3797 15.2332 61.3692 15.2096 61.3505 15.1922C61.3318 15.1748 61.3064 15.165 61.2799 15.1649L51.2178 15.1506ZM63.1222 25.7428C63.0903 25.743 63.0598 25.7549 63.0373 25.7759C63.0149 25.797 63.0024 25.8254 63.0026 25.8551L63.0569 35.1249C63.0571 35.1545 63.0699 35.1828 63.0926 35.2037C63.1153 35.2245 63.146 35.2361 63.1779 35.2359L73.1682 35.1855C73.2001 35.1853 73.2307 35.1734 73.2531 35.1524C73.2755 35.1313 73.2881 35.1029 73.2879 35.0733L73.2335 25.8034C73.2334 25.7738 73.2205 25.7455 73.1978 25.7246C73.1751 25.7038 73.1445 25.6922 73.1125 25.6924L63.1222 25.7428ZM75.0195 36.114C74.9883 36.1139 74.9583 36.1254 74.9362 36.1459C74.9141 36.1663 74.9016 36.1941 74.9016 36.2231L74.8862 45.5263C74.8861 45.5553 74.8985 45.5831 74.9205 45.6036C74.9426 45.6242 74.9725 45.6357 75.0038 45.6358L85.0301 45.6501C85.0613 45.6501 85.0913 45.6386 85.1134 45.6182C85.1355 45.5977 85.148 45.5699 85.148 45.541L85.1634 36.2377C85.1635 36.2088 85.1511 36.1809 85.1291 36.1604C85.107 36.1399 85.0771 36.1283 85.0458 36.1283L75.0195 36.114ZM51.1958 4.66214C51.1816 4.66211 51.1677 4.66467 51.1546 4.66967C51.1415 4.67466 51.1297 4.682 51.1197 4.69125C51.1097 4.7005 51.1017 4.71149 51.0963 4.72359C51.0909 4.73569 51.0881 4.74866 51.0881 4.76177L51.0726 14.084C51.0726 14.0971 51.0753 14.1101 51.0807 14.1222C51.0861 14.1343 51.094 14.1453 51.104 14.1546C51.114 14.1639 51.1258 14.1712 51.1388 14.1763C51.1519 14.1813 51.1659 14.1839 51.18 14.1839L61.2267 14.1983C61.2409 14.1983 61.2549 14.1957 61.2679 14.1907C61.281 14.1857 61.2928 14.1784 61.3028 14.1691C61.3128 14.1599 61.3208 14.1489 61.3262 14.1368C61.3316 14.1247 61.3344 14.1117 61.3345 14.0986L61.3499 4.77642C61.3499 4.76331 61.3472 4.75033 61.3418 4.73822C61.3364 4.72611 61.3285 4.7151 61.3185 4.70582C61.3086 4.69654 61.2967 4.68917 61.2837 4.68414C61.2706 4.67911 61.2567 4.6765 61.2425 4.67648L51.1958 4.66214ZM63.0417 15.1779C63.0275 15.1779 63.0136 15.1805 63.0005 15.1855C62.9875 15.1905 62.9756 15.1978 62.9656 15.207C62.9556 15.2163 62.9476 15.2273 62.9422 15.2394C62.9368 15.2515 62.934 15.2645 62.934 15.2776L62.9185 24.5998C62.9185 24.6129 62.9212 24.6259 62.9266 24.638C62.932 24.6501 62.9399 24.6611 62.9499 24.6704C62.9599 24.6797 62.9717 24.687 62.9847 24.6921C62.9978 24.6971 63.0118 24.6997 63.0259 24.6997L73.0727 24.7141C73.0868 24.7141 73.1008 24.7115 73.1138 24.7065C73.1269 24.7015 73.1387 24.6942 73.1487 24.6849C73.1587 24.6757 73.1667 24.6647 73.1721 24.6526C73.1775 24.6405 73.1803 24.6275 73.1804 24.6144L73.1958 15.2922C73.1958 15.2791 73.1931 15.2661 73.1877 15.254C73.1823 15.2419 73.1744 15.2309 73.1644 15.2216C73.1545 15.2123 73.1426 15.205 73.1296 15.1999C73.1165 15.1949 73.1026 15.1923 73.0884 15.1923L63.0417 15.1779ZM74.9796 25.6255C74.9655 25.6255 74.9515 25.6281 74.9384 25.6331C74.9254 25.6381 74.9135 25.6454 74.9035 25.6547C74.8935 25.6639 74.8856 25.6749 74.8801 25.687C74.8747 25.6991 74.8719 25.7121 74.8719 25.7252L74.8564 35.0474C74.8564 35.0605 74.8592 35.0735 74.8646 35.0856C74.8699 35.0977 74.8778 35.1087 74.8878 35.118C74.8978 35.1273 74.9096 35.1346 74.9227 35.1397C74.9357 35.1447 74.9497 35.1473 74.9638 35.1473L85.0106 35.1617C85.0247 35.1617 85.0387 35.1591 85.0517 35.1541C85.0648 35.1491 85.0767 35.1418 85.0867 35.1325C85.0967 35.1233 85.1046 35.1123 85.11 35.1002C85.1155 35.0881 85.1183 35.0751 85.1183 35.062L85.1338 25.7398C85.1338 25.7267 85.131 25.7137 85.1256 25.7016C85.1202 25.6895 85.1123 25.6785 85.1024 25.6692C85.0924 25.6599 85.0806 25.6526 85.0675 25.6475C85.0545 25.6425 85.0405 25.6399 85.0264 25.6399L74.9796 25.6255ZM62.942 4.60227C62.9272 4.60225 62.9125 4.60494 62.8989 4.61017C62.8852 4.6154 62.8728 4.62308 62.8623 4.63277C62.8518 4.64247 62.8435 4.65398 62.8378 4.66665C62.8321 4.67933 62.8292 4.69291 62.8292 4.70664L62.8137 14.0194C62.8137 14.0331 62.8166 14.0467 62.8222 14.0594C62.8279 14.0721 62.8361 14.0836 62.8466 14.0933C62.857 14.103 62.8694 14.1108 62.8831 14.116C62.8968 14.1213 62.9114 14.124 62.9262 14.124L72.9627 14.1384C72.9775 14.1384 72.9922 14.1357 73.0059 14.1305C73.0195 14.1252 73.032 14.1176 73.0424 14.1079C73.0529 14.0982 73.0612 14.0867 73.0669 14.074C73.0726 14.0613 73.0755 14.0477 73.0756 14.034L73.091 4.72129C73.091 4.70757 73.0881 4.69397 73.0825 4.68128C73.0769 4.66859 73.0686 4.65706 73.0581 4.64733C73.0477 4.63761 73.0353 4.62989 73.0216 4.62462C73.008 4.61935 72.9933 4.61663 72.9785 4.6166L62.942 4.60227ZM74.9545 15.1356C74.9253 15.1356 74.8972 15.1463 74.8766 15.1654C74.8559 15.1846 74.8442 15.2105 74.8442 15.2376L74.8287 24.5551C74.8287 24.5822 74.8403 24.6082 74.8609 24.6274C74.8815 24.6466 74.9095 24.6574 74.9387 24.6574L84.9803 24.6717C85.0095 24.6718 85.0375 24.6611 85.0582 24.6419C85.0789 24.6228 85.0905 24.5969 85.0906 24.5698L85.106 15.2523C85.1061 15.2252 85.0945 15.1992 85.0739 15.18C85.0533 15.1608 85.0253 15.15 84.9961 15.15L74.9545 15.1356ZM74.9056 4.63879C74.8885 4.63881 74.8715 4.64198 74.8556 4.64809C74.8398 4.65421 74.8254 4.66316 74.8133 4.67443C74.8012 4.6857 74.7916 4.69909 74.7851 4.7138C74.7786 4.72851 74.7752 4.74428 74.7753 4.76019L74.7948 14.0444C74.7948 14.0603 74.7982 14.076 74.8048 14.0907C74.8114 14.1054 74.8211 14.1188 74.8332 14.13C74.8454 14.1412 74.8598 14.1501 74.8756 14.1562C74.8915 14.1622 74.9085 14.1653 74.9256 14.1653L84.9314 14.1472C84.9486 14.1472 84.9655 14.144 84.9814 14.1379C84.9972 14.1318 85.0116 14.1228 85.0237 14.1116C85.0358 14.1003 85.0454 14.0869 85.0519 14.0722C85.0584 14.0575 85.0618 14.0417 85.0618 14.0258L85.0422 4.74162C85.0422 4.72571 85.0388 4.70995 85.0322 4.69526C85.0256 4.68057 85.016 4.66722 85.0038 4.65599C84.9917 4.64476 84.9772 4.63587 84.9614 4.62981C84.9455 4.62374 84.9285 4.62064 84.9114 4.62067L74.9056 4.63879Z"/>
</mask>
<path d="M89.9373 4.56546e-05C90.2891 -0.00115976 90.6269 0.127331 90.8766 0.357258C91.1262 0.587181 91.2672 0.899708 91.2685 1.22608L91.5005 59.473C91.5011 59.6346 91.4675 59.7947 91.4014 59.9443C91.3353 60.0938 91.2382 60.2298 91.1155 60.3445C90.9928 60.4592 90.847 60.5503 90.6863 60.6127C90.5256 60.6751 90.3533 60.7075 90.1791 60.7081L5.06365 61C4.71191 61.0012 4.37407 60.8727 4.12443 60.6428C3.87479 60.4129 3.73382 60.1003 3.73251 59.774L3.50049 1.52708C3.49985 1.36548 3.53352 1.20534 3.59958 1.05581C3.66563 0.90627 3.76279 0.770284 3.88548 0.655591C4.00818 0.540894 4.15403 0.449738 4.31469 0.387341C4.47535 0.324948 4.64768 0.292531 4.82184 0.291932L89.9373 4.56546e-05ZM8.0942 49.7806C7.86484 49.9506 7.6738 50.1608 7.532 50.3993C7.39019 50.6378 7.3004 50.8998 7.26774 51.1705C7.23508 51.4412 7.2602 51.7151 7.34166 51.9768C7.42312 52.2385 7.55931 52.4827 7.74249 52.6955C7.92566 52.9083 8.15221 53.0856 8.40921 53.2171C8.66621 53.3487 8.94864 53.432 9.24034 53.4623C9.53205 53.4926 9.82733 53.4693 10.1093 53.3938C10.3913 53.3182 10.6545 53.1918 10.8839 53.0218C11.3471 52.6786 11.6444 52.1786 11.7103 51.632C11.7763 51.0854 11.6055 50.5368 11.2356 50.107C10.8657 49.6772 10.3269 49.4013 9.73773 49.3401C9.14861 49.2789 8.55741 49.4374 8.0942 49.7806ZM14.9822 49.6899C14.5148 50.0363 14.2148 50.5408 14.1482 51.0925C14.0817 51.6441 14.254 52.1977 14.6273 52.6315C15.0006 53.0652 15.5444 53.3436 16.1389 53.4054C16.7334 53.4671 17.33 53.3072 17.7975 52.9608C18.2649 52.6144 18.565 52.1099 18.6315 51.5582C18.6981 51.0066 18.5258 50.453 18.1524 50.0193C17.7791 49.5855 17.2354 49.3071 16.6408 49.2454C16.0463 49.1836 15.4497 49.3435 14.9822 49.6899ZM10.8839 40.1429C11.1001 40.1429 11.2738 40.1429 11.4049 40.143C11.4372 40.143 11.4682 40.1312 11.4912 40.1102C11.5142 40.0892 11.5273 40.0606 11.5278 40.0307L11.5088 33.2283C11.508 33.1539 11.5394 33.0952 11.6029 33.0522C12.0971 32.7204 12.3371 32.272 12.3226 31.707C12.3136 31.359 12.2894 31.0111 12.25 30.6633C12.2048 30.2631 11.9921 29.9474 11.6119 29.7163C11.5373 29.6703 11.5002 29.6056 11.5005 29.5222L11.5004 29.2061C11.5004 29.1909 11.4972 29.176 11.491 29.162C11.4847 29.148 11.4755 29.1353 11.4639 29.1247C11.4523 29.114 11.4385 29.1056 11.4234 29.1C11.4083 29.0943 11.3921 29.0915 11.3757 29.0917C11.3174 29.0924 11.1437 29.0924 10.8547 29.0917C10.5655 29.0932 10.3917 29.0943 10.3333 29.095C10.317 29.0947 10.3009 29.0975 10.2857 29.1031C10.2706 29.1087 10.2568 29.1171 10.2452 29.1277C10.2336 29.1382 10.2244 29.1509 10.2181 29.1648C10.2117 29.1787 10.2085 29.1937 10.2085 29.2088L10.2122 29.5253C10.2118 29.6086 10.1748 29.6735 10.1012 29.72C9.72221 29.9522 9.51094 30.2689 9.46739 30.67C9.43029 31.0178 9.40771 31.3659 9.39967 31.7144C9.38743 32.2788 9.62921 32.726 10.125 33.0558C10.1892 33.0975 10.221 33.156 10.2204 33.2314L10.2358 40.0334C10.2363 40.0634 10.2494 40.092 10.2725 40.1131C10.2955 40.1341 10.3266 40.1459 10.3589 40.1459C10.4914 40.145 10.6664 40.144 10.8839 40.1429ZM21.9942 49.705C21.7648 49.875 21.5738 50.0852 21.432 50.3237C21.2901 50.5621 21.2003 50.8242 21.1677 51.0949C21.135 51.3655 21.1601 51.6395 21.2416 51.9012C21.3231 52.1628 21.4593 52.407 21.6424 52.6199C22.0124 53.0497 22.5512 53.3255 23.1403 53.3867C23.7294 53.4479 24.3206 53.2895 24.7838 52.9462C25.247 52.6029 25.5443 52.103 25.6103 51.5564C25.6763 51.0097 25.5055 50.4612 25.1355 50.0314C24.9524 49.8185 24.7258 49.6413 24.4688 49.5097C24.2118 49.3781 23.9294 49.2948 23.6377 49.2645C23.346 49.2342 23.0507 49.2575 22.7687 49.3331C22.4867 49.4087 22.2235 49.5351 21.9942 49.705ZM28.3072 49.2732C28.2834 49.2733 28.2607 49.2822 28.2439 49.2978C28.2272 49.3135 28.2179 49.3347 28.218 49.3568L28.2609 56.6738C28.2611 56.6958 28.2706 56.7169 28.2875 56.7325C28.3044 56.748 28.3273 56.7566 28.351 56.7565L86.9974 56.4604C87.0212 56.4603 87.0439 56.4514 87.0606 56.4357C87.0773 56.4201 87.0866 56.3989 87.0865 56.3768L87.0436 49.0598C87.0435 49.0377 87.0339 49.0166 87.017 49.0011C87.0001 48.9856 86.9773 48.977 86.9535 48.9771L28.3072 49.2732ZM18.725 37.1812C19.6538 36.8213 19.5574 36.0202 19.5546 35.1071C19.5525 34.4905 19.3324 34.0698 18.8944 33.8452C18.8259 33.8087 18.7918 33.7539 18.7922 33.6807L18.7794 29.2726C18.7793 29.2444 18.7672 29.2174 18.7457 29.1974C18.7242 29.1774 18.6951 29.1662 18.6647 29.166L17.5731 29.1693C17.5544 29.1692 17.5358 29.1725 17.5185 29.1791C17.5012 29.1858 17.4855 29.1955 17.4723 29.2078C17.4591 29.2202 17.4487 29.2348 17.4417 29.2509C17.4347 29.267 17.4312 29.2842 17.4314 29.3016L17.4438 33.7587C17.444 33.8376 17.4168 33.9063 17.3624 33.9649C16.7336 34.6467 16.7202 35.3012 16.8009 36.3238C16.8241 36.6248 17.0284 36.8991 17.4139 37.1465C17.4883 37.1948 17.5258 37.2612 17.5265 37.3458L17.5329 40.0257C17.5325 40.0989 17.5798 40.1348 17.6747 40.1334L18.4709 40.1333C18.5668 40.1331 18.614 40.089 18.6125 40.0009L18.6045 37.3496C18.6046 37.2685 18.6448 37.2123 18.725 37.1812ZM12.361 20.6848C11.8978 21.028 11.6005 21.528 11.5345 22.0746C11.4686 22.6212 11.6393 23.1698 12.0093 23.5996C12.3792 24.0294 12.918 24.3053 13.5071 24.3665C14.0963 24.4277 14.6875 24.2692 15.1507 23.926C15.6139 23.5827 15.9112 23.0828 15.9771 22.5361C16.0431 21.9895 15.8723 21.4409 15.5024 21.0111C15.1325 20.5813 14.5937 20.3055 14.0045 20.2443C13.4154 20.1831 12.8242 20.3415 12.361 20.6848ZM26.7125 30.6816C25.6752 31.4503 25.0094 32.5699 24.8617 33.794C24.714 35.0181 25.0964 36.2466 25.9249 37.2091C26.7533 38.1716 27.9599 38.7894 29.2792 38.9264C30.5984 39.0635 31.9224 38.7086 32.9597 37.9399C33.997 37.1712 34.6628 36.0517 34.8105 34.8275C34.9582 33.6034 34.5758 32.3749 33.7473 31.4124C32.9189 30.4499 31.7123 29.8322 30.393 29.6951C29.0737 29.5581 27.7498 29.9129 26.7125 30.6816ZM12.3755 13.4684C11.9107 13.8128 11.6124 14.3145 11.5462 14.863C11.48 15.4115 11.6514 15.962 12.0226 16.3933C12.3938 16.8246 12.9345 17.1013 13.5256 17.1628C14.1167 17.2242 14.71 17.0652 15.1748 16.7207C15.6396 16.3763 15.9379 15.8746 16.0041 15.3261C16.0703 14.7776 15.8989 14.2272 15.5277 13.7959C15.1565 13.3646 14.6158 13.0878 14.0247 13.0264C13.4336 12.965 12.8403 13.124 12.3755 13.4684ZM19.2786 20.6056C18.8138 20.95 18.5155 21.4516 18.4493 22.0002C18.3831 22.5487 18.5545 23.0991 18.9257 23.5304C19.2969 23.9617 19.8376 24.2385 20.4287 24.2999C21.0199 24.3613 21.6131 24.2023 22.0779 23.8579C22.5427 23.5135 22.841 23.0118 22.9072 22.4633C22.9734 21.9148 22.802 21.3643 22.4308 20.933C22.0596 20.5017 21.519 20.2249 20.9278 20.1635C20.3367 20.1021 19.7434 20.2611 19.2786 20.6056ZM39.3675 36.1682C39.3554 36.1682 39.3434 36.1704 39.3322 36.1746C39.321 36.1789 39.3108 36.1852 39.3022 36.1931C39.2936 36.201 39.2868 36.2104 39.2821 36.2208C39.2775 36.2311 39.275 36.2422 39.275 36.2535L39.2419 45.6041C39.2418 45.6154 39.2442 45.6265 39.2488 45.6369C39.2534 45.6473 39.2601 45.6567 39.2687 45.6647C39.2772 45.6727 39.2873 45.679 39.2985 45.6833C39.3097 45.6877 39.3217 45.6899 39.3338 45.69L49.4112 45.7207C49.4233 45.7207 49.4353 45.7185 49.4465 45.7143C49.4577 45.71 49.4679 45.7038 49.4765 45.6958C49.4851 45.6879 49.4919 45.6785 49.4966 45.6681C49.5012 45.6578 49.5037 45.6467 49.5037 45.6354L49.5368 36.2848C49.5368 36.2735 49.5345 36.2624 49.5299 36.252C49.5253 36.2416 49.5186 36.2322 49.51 36.2242C49.5015 36.2162 49.4914 36.2099 49.4802 36.2056C49.469 36.2012 49.457 36.199 49.4449 36.1989L39.3675 36.1682ZM19.2839 13.4204C18.8196 13.7644 18.5217 14.2655 18.4556 14.8134C18.3895 15.3613 18.5606 15.9111 18.9314 16.3419C19.3022 16.7727 19.8422 17.0492 20.4327 17.1105C21.0232 17.1718 21.6157 17.013 22.08 16.669C22.5443 16.3249 22.8422 15.8239 22.9083 15.276C22.9745 14.7281 22.8033 14.1783 22.4325 13.7475C22.0617 13.3167 21.5217 13.0402 20.9312 12.9788C20.3407 12.9175 19.7482 13.0763 19.2839 13.4204ZM26.2609 20.6244C25.7977 20.9676 25.5004 21.4675 25.4345 22.0142C25.3685 22.5608 25.5393 23.1094 25.9092 23.5392C26.2792 23.969 26.818 24.2448 27.4071 24.306C27.9962 24.3672 28.5874 24.2088 29.0506 23.8655C29.28 23.6956 29.471 23.4854 29.6128 23.2469C29.7546 23.0084 29.8444 22.7464 29.8771 22.4757C29.9097 22.205 29.8846 21.931 29.8032 21.6694C29.7217 21.4077 29.5855 21.1635 29.4023 20.9507C29.2192 20.7379 28.9926 20.5606 28.7356 20.429C28.4786 20.2975 28.1962 20.2141 27.9045 20.1838C27.6128 20.1535 27.3175 20.1768 27.0355 20.2524C26.7535 20.328 26.4903 20.4544 26.2609 20.6244ZM39.3374 25.6861C39.324 25.6861 39.3107 25.6885 39.2982 25.6933C39.2858 25.698 39.2745 25.705 39.265 25.7138C39.2554 25.7226 39.2479 25.7331 39.2427 25.7446C39.2375 25.7562 39.2349 25.7685 39.2349 25.781L39.2194 35.1127C39.2194 35.1252 39.222 35.1375 39.2271 35.1491C39.2322 35.1606 39.2398 35.1711 39.2493 35.1799C39.2588 35.1888 39.27 35.1958 39.2825 35.2006C39.2949 35.2054 39.3082 35.2079 39.3216 35.2079L49.3787 35.2223C49.3921 35.2223 49.4054 35.2198 49.4179 35.2151C49.4303 35.2103 49.4416 35.2033 49.4511 35.1945C49.4606 35.1857 49.4682 35.1752 49.4734 35.1637C49.4785 35.1522 49.4812 35.1398 49.4812 35.1274L49.4967 25.7956C49.4967 25.7832 49.4941 25.7708 49.489 25.7593C49.4838 25.7477 49.4763 25.7372 49.4668 25.7284C49.4573 25.7196 49.446 25.7125 49.4336 25.7078C49.4212 25.703 49.4079 25.7005 49.3944 25.7005L39.3374 25.6861ZM51.1974 36.1938C51.1689 36.1937 51.1415 36.2041 51.1213 36.2228C51.1011 36.2414 51.0896 36.2668 51.0895 36.2932L51.0565 45.6154C51.0565 45.6419 51.0677 45.6673 51.0878 45.6861C51.1079 45.7048 51.1352 45.7155 51.1637 45.7155L61.2105 45.7462C61.239 45.7462 61.2664 45.7358 61.2866 45.7172C61.3068 45.6985 61.3183 45.6732 61.3184 45.6467L61.3513 36.3245C61.3514 36.2981 61.3402 36.2726 61.3201 36.2539C61.3 36.2351 61.2727 36.2245 61.2442 36.2244L51.1974 36.1938ZM26.1175 13.3882C25.6543 13.7315 25.357 14.2314 25.2911 14.778C25.2251 15.3247 25.3959 15.8732 25.7658 16.3031C26.1357 16.7329 26.6745 17.0087 27.2637 17.0699C27.8528 17.1311 28.444 16.9727 28.9072 16.6294C29.3704 16.2861 29.6677 15.7862 29.7337 15.2396C29.7996 14.6929 29.6289 14.1444 29.2589 13.7146C28.889 13.2847 28.3502 13.0089 27.7611 12.9477C27.1719 12.8865 26.5807 13.045 26.1175 13.3882ZM39.3209 15.192C39.2897 15.1919 39.2597 15.2034 39.2376 15.2239C39.2155 15.2443 39.203 15.2721 39.203 15.3011L39.1875 24.609C39.1875 24.638 39.1999 24.6658 39.2219 24.6864C39.244 24.7069 39.2739 24.7184 39.3051 24.7185L49.3365 24.7328C49.3678 24.7329 49.3977 24.7214 49.4199 24.7009C49.442 24.6805 49.4544 24.6527 49.4545 24.6237L49.4699 15.3158C49.47 15.2868 49.4576 15.259 49.4356 15.2384C49.4135 15.2179 49.3836 15.2064 49.3523 15.2063L39.3209 15.192ZM51.1677 25.7054C51.1392 25.7053 51.1118 25.7157 51.0916 25.7344C51.0713 25.753 51.0599 25.7784 51.0598 25.8048L51.0268 35.127C51.0267 35.1535 51.038 35.1789 51.0581 35.1977C51.0782 35.2164 51.1055 35.227 51.134 35.2271L61.1808 35.2577C61.2093 35.2578 61.2367 35.2474 61.2569 35.2287C61.2771 35.2101 61.2886 35.1847 61.2886 35.1583L61.3216 25.8361C61.3217 25.8096 61.3105 25.7842 61.2904 25.7654C61.2703 25.7467 61.243 25.7361 61.2145 25.736L51.1677 25.7054ZM63.1375 36.1551C63.111 36.1551 63.0856 36.1649 63.0669 36.1823C63.0482 36.1997 63.0378 36.2233 63.0378 36.2479L63.0574 45.5511C63.0574 45.5757 63.068 45.5992 63.0868 45.6165C63.1055 45.6339 63.1309 45.6436 63.1574 45.6435L73.1837 45.6254C73.2102 45.6253 73.2356 45.6155 73.2542 45.5981C73.2729 45.5807 73.2834 45.5572 73.2834 45.5326L73.2638 36.2294C73.2637 36.2048 73.2532 36.1813 73.2344 36.1639C73.2157 36.1466 73.1902 36.1369 73.1638 36.1369L63.1375 36.1551ZM39.2836 4.70353C39.2691 4.70351 39.2548 4.70613 39.2414 4.71125C39.228 4.71636 39.2159 4.72387 39.2056 4.73334C39.1954 4.74281 39.1873 4.75407 39.1817 4.76645C39.1762 4.77884 39.1733 4.79212 39.1733 4.80554L39.1578 14.1278C39.1578 14.1412 39.1606 14.1545 39.1661 14.1669C39.1716 14.1793 39.1797 14.1905 39.1899 14.2C39.2001 14.2095 39.2123 14.2171 39.2256 14.2222C39.239 14.2274 39.2533 14.2301 39.2677 14.2301L49.3145 14.2444C49.329 14.2445 49.3433 14.2418 49.3567 14.2367C49.37 14.2316 49.3822 14.2241 49.3924 14.2146C49.4027 14.2052 49.4108 14.1939 49.4163 14.1815C49.4219 14.1691 49.4248 14.1558 49.4248 14.1424L49.4403 4.82021C49.4403 4.8068 49.4375 4.79351 49.4319 4.78111C49.4264 4.7687 49.4183 4.75742 49.4081 4.74792C49.3979 4.73842 49.3858 4.73088 49.3725 4.72572C49.3591 4.72057 49.3448 4.71791 49.3303 4.71789L39.2836 4.70353ZM51.2178 15.1506C51.1913 15.1505 51.1659 15.1602 51.1472 15.1776C51.1284 15.1949 51.1178 15.2185 51.1178 15.2431L51.1023 24.5795C51.1023 24.6041 51.1127 24.6277 51.1314 24.6451C51.1501 24.6625 51.1755 24.6723 51.202 24.6723L61.2641 24.6867C61.2906 24.6867 61.316 24.677 61.3348 24.6597C61.3535 24.6423 61.3641 24.6188 61.3641 24.5942L61.3796 15.2577C61.3797 15.2332 61.3692 15.2096 61.3505 15.1922C61.3318 15.1748 61.3064 15.165 61.2799 15.1649L51.2178 15.1506ZM63.1222 25.7428C63.0903 25.743 63.0598 25.7549 63.0373 25.7759C63.0149 25.797 63.0024 25.8254 63.0026 25.8551L63.0569 35.1249C63.0571 35.1545 63.0699 35.1828 63.0926 35.2037C63.1153 35.2245 63.146 35.2361 63.1779 35.2359L73.1682 35.1855C73.2001 35.1853 73.2307 35.1734 73.2531 35.1524C73.2755 35.1313 73.2881 35.1029 73.2879 35.0733L73.2335 25.8034C73.2334 25.7738 73.2205 25.7455 73.1978 25.7246C73.1751 25.7038 73.1445 25.6922 73.1125 25.6924L63.1222 25.7428ZM75.0195 36.114C74.9883 36.1139 74.9583 36.1254 74.9362 36.1459C74.9141 36.1663 74.9016 36.1941 74.9016 36.2231L74.8862 45.5263C74.8861 45.5553 74.8985 45.5831 74.9205 45.6036C74.9426 45.6242 74.9725 45.6357 75.0038 45.6358L85.0301 45.6501C85.0613 45.6501 85.0913 45.6386 85.1134 45.6182C85.1355 45.5977 85.148 45.5699 85.148 45.541L85.1634 36.2377C85.1635 36.2088 85.1511 36.1809 85.1291 36.1604C85.107 36.1399 85.0771 36.1283 85.0458 36.1283L75.0195 36.114ZM51.1958 4.66214C51.1816 4.66211 51.1677 4.66467 51.1546 4.66967C51.1415 4.67466 51.1297 4.682 51.1197 4.69125C51.1097 4.7005 51.1017 4.71149 51.0963 4.72359C51.0909 4.73569 51.0881 4.74866 51.0881 4.76177L51.0726 14.084C51.0726 14.0971 51.0753 14.1101 51.0807 14.1222C51.0861 14.1343 51.094 14.1453 51.104 14.1546C51.114 14.1639 51.1258 14.1712 51.1388 14.1763C51.1519 14.1813 51.1659 14.1839 51.18 14.1839L61.2267 14.1983C61.2409 14.1983 61.2549 14.1957 61.2679 14.1907C61.281 14.1857 61.2928 14.1784 61.3028 14.1691C61.3128 14.1599 61.3208 14.1489 61.3262 14.1368C61.3316 14.1247 61.3344 14.1117 61.3345 14.0986L61.3499 4.77642C61.3499 4.76331 61.3472 4.75033 61.3418 4.73822C61.3364 4.72611 61.3285 4.7151 61.3185 4.70582C61.3086 4.69654 61.2967 4.68917 61.2837 4.68414C61.2706 4.67911 61.2567 4.6765 61.2425 4.67648L51.1958 4.66214ZM63.0417 15.1779C63.0275 15.1779 63.0136 15.1805 63.0005 15.1855C62.9875 15.1905 62.9756 15.1978 62.9656 15.207C62.9556 15.2163 62.9476 15.2273 62.9422 15.2394C62.9368 15.2515 62.934 15.2645 62.934 15.2776L62.9185 24.5998C62.9185 24.6129 62.9212 24.6259 62.9266 24.638C62.932 24.6501 62.9399 24.6611 62.9499 24.6704C62.9599 24.6797 62.9717 24.687 62.9847 24.6921C62.9978 24.6971 63.0118 24.6997 63.0259 24.6997L73.0727 24.7141C73.0868 24.7141 73.1008 24.7115 73.1138 24.7065C73.1269 24.7015 73.1387 24.6942 73.1487 24.6849C73.1587 24.6757 73.1667 24.6647 73.1721 24.6526C73.1775 24.6405 73.1803 24.6275 73.1804 24.6144L73.1958 15.2922C73.1958 15.2791 73.1931 15.2661 73.1877 15.254C73.1823 15.2419 73.1744 15.2309 73.1644 15.2216C73.1545 15.2123 73.1426 15.205 73.1296 15.1999C73.1165 15.1949 73.1026 15.1923 73.0884 15.1923L63.0417 15.1779ZM74.9796 25.6255C74.9655 25.6255 74.9515 25.6281 74.9384 25.6331C74.9254 25.6381 74.9135 25.6454 74.9035 25.6547C74.8935 25.6639 74.8856 25.6749 74.8801 25.687C74.8747 25.6991 74.8719 25.7121 74.8719 25.7252L74.8564 35.0474C74.8564 35.0605 74.8592 35.0735 74.8646 35.0856C74.8699 35.0977 74.8778 35.1087 74.8878 35.118C74.8978 35.1273 74.9096 35.1346 74.9227 35.1397C74.9357 35.1447 74.9497 35.1473 74.9638 35.1473L85.0106 35.1617C85.0247 35.1617 85.0387 35.1591 85.0517 35.1541C85.0648 35.1491 85.0767 35.1418 85.0867 35.1325C85.0967 35.1233 85.1046 35.1123 85.11 35.1002C85.1155 35.0881 85.1183 35.0751 85.1183 35.062L85.1338 25.7398C85.1338 25.7267 85.131 25.7137 85.1256 25.7016C85.1202 25.6895 85.1123 25.6785 85.1024 25.6692C85.0924 25.6599 85.0806 25.6526 85.0675 25.6475C85.0545 25.6425 85.0405 25.6399 85.0264 25.6399L74.9796 25.6255ZM62.942 4.60227C62.9272 4.60225 62.9125 4.60494 62.8989 4.61017C62.8852 4.6154 62.8728 4.62308 62.8623 4.63277C62.8518 4.64247 62.8435 4.65398 62.8378 4.66665C62.8321 4.67933 62.8292 4.69291 62.8292 4.70664L62.8137 14.0194C62.8137 14.0331 62.8166 14.0467 62.8222 14.0594C62.8279 14.0721 62.8361 14.0836 62.8466 14.0933C62.857 14.103 62.8694 14.1108 62.8831 14.116C62.8968 14.1213 62.9114 14.124 62.9262 14.124L72.9627 14.1384C72.9775 14.1384 72.9922 14.1357 73.0059 14.1305C73.0195 14.1252 73.032 14.1176 73.0424 14.1079C73.0529 14.0982 73.0612 14.0867 73.0669 14.074C73.0726 14.0613 73.0755 14.0477 73.0756 14.034L73.091 4.72129C73.091 4.70757 73.0881 4.69397 73.0825 4.68128C73.0769 4.66859 73.0686 4.65706 73.0581 4.64733C73.0477 4.63761 73.0353 4.62989 73.0216 4.62462C73.008 4.61935 72.9933 4.61663 72.9785 4.6166L62.942 4.60227ZM74.9545 15.1356C74.9253 15.1356 74.8972 15.1463 74.8766 15.1654C74.8559 15.1846 74.8442 15.2105 74.8442 15.2376L74.8287 24.5551C74.8287 24.5822 74.8403 24.6082 74.8609 24.6274C74.8815 24.6466 74.9095 24.6574 74.9387 24.6574L84.9803 24.6717C85.0095 24.6718 85.0375 24.6611 85.0582 24.6419C85.0789 24.6228 85.0905 24.5969 85.0906 24.5698L85.106 15.2523C85.1061 15.2252 85.0945 15.1992 85.0739 15.18C85.0533 15.1608 85.0253 15.15 84.9961 15.15L74.9545 15.1356ZM74.9056 4.63879C74.8885 4.63881 74.8715 4.64198 74.8556 4.64809C74.8398 4.65421 74.8254 4.66316 74.8133 4.67443C74.8012 4.6857 74.7916 4.69909 74.7851 4.7138C74.7786 4.72851 74.7752 4.74428 74.7753 4.76019L74.7948 14.0444C74.7948 14.0603 74.7982 14.076 74.8048 14.0907C74.8114 14.1054 74.8211 14.1188 74.8332 14.13C74.8454 14.1412 74.8598 14.1501 74.8756 14.1562C74.8915 14.1622 74.9085 14.1653 74.9256 14.1653L84.9314 14.1472C84.9486 14.1472 84.9655 14.144 84.9814 14.1379C84.9972 14.1318 85.0116 14.1228 85.0237 14.1116C85.0358 14.1003 85.0454 14.0869 85.0519 14.0722C85.0584 14.0575 85.0618 14.0417 85.0618 14.0258L85.0422 4.74162C85.0422 4.72571 85.0388 4.70995 85.0322 4.69526C85.0256 4.68057 85.016 4.66722 85.0038 4.65599C84.9917 4.64476 84.9772 4.63587 84.9614 4.62981C84.9455 4.62374 84.9285 4.62064 84.9114 4.62067L74.9056 4.63879Z" fill="url(#paint0_linear_16_762)" stroke="black" stroke-width="2" mask="url(#path-5-inside-1_16_762)"/>
<defs>
<linearGradient id="paint0_linear_16_762" x1="34.0587" y1="61.0496" x2="34.0587" y2="-0.480917" gradientUnits="userSpaceOnUse">
<stop stop-color="#737373"/>
<stop offset="1" stop-color="#666666"/>
</linearGradient>
</defs>
</svg>
