<svg width="68" height="67" viewBox="0 0 68 67" fill="none" xmlns="http://www.w3.org/2000/svg">
<path d="M44.5773 43.0202C44.6565 43.0882 44.6807 43.0717 44.6498 42.9708L34.2796 9.19268C34.2704 9.16384 34.2508 9.14942 34.221 9.14942H29.3807C29.369 9.14951 29.3576 9.1533 29.3482 9.16023C29.3388 9.16717 29.3318 9.1769 29.3282 9.18805L19.9684 39.6367C19.9668 39.6412 19.9662 39.646 19.9667 39.6508C19.9671 39.6556 19.9687 39.6603 19.9712 39.6645C19.9736 39.6688 19.977 39.6725 19.981 39.6754C19.9851 39.6783 19.9897 39.6804 19.9946 39.6815C21.1103 39.9071 21.6795 40.6188 21.7021 41.8167C21.7345 43.4806 21.4152 44.6733 20.9972 46.7436C20.8933 47.2555 20.9057 47.7432 21.0342 48.2067C21.0476 48.2572 21.0748 48.2984 21.116 48.3303C21.4162 48.5693 21.6898 48.7434 21.9366 48.8525C24.0673 49.8012 26.3214 50.3697 28.6989 50.5582C28.9549 50.5778 29.3365 50.5819 29.8434 50.5706C30.4172 50.5572 30.7972 50.5103 30.9833 50.43C31.3237 50.2816 31.6163 50.0082 31.861 49.6096C32.4122 48.7125 32.8333 47.6212 33.1243 46.3357C33.2282 45.8764 33.513 45.6786 33.9789 45.7425C34.0025 45.7456 34.0154 45.7471 34.0174 45.7471C34.4874 45.8583 34.6833 46.1334 34.6051 46.5721C34.3305 48.1109 33.7979 49.4674 33.0071 50.6416C32.5742 51.2833 31.9823 51.7231 31.2317 51.9611C31.063 52.0146 30.699 52.0553 30.1396 52.0831C29.7581 52.1027 29.393 52.1037 29.0444 52.0862C26.5774 51.9636 24.1927 51.4265 21.8903 50.4748C21.4934 50.31 21.0101 50.0458 20.4404 49.6822C19.8172 49.2826 19.4814 48.7042 19.4331 47.9472C19.3961 47.3611 19.412 46.8992 19.4809 46.5613C19.8866 44.5652 20.2044 43.3802 20.1858 41.7394C20.1828 41.5231 20.1051 41.3562 19.9529 41.2388C19.9092 41.2054 19.8581 41.183 19.8039 41.1736C19.7497 41.1642 19.6942 41.168 19.6419 41.1847C19.5896 41.2014 19.5422 41.2305 19.5037 41.2695C19.4652 41.3085 19.4367 41.3563 19.4208 41.4088L16.4823 50.9661C16.4679 51.0155 16.4808 51.0562 16.5209 51.0881C19.4053 53.3788 22.8842 56.1572 26.9574 59.4233C27.159 59.5851 27.4829 59.8106 27.9292 60.1001C29.7231 61.2681 30.0563 63.7833 28.847 65.4287C27.8613 66.7713 26.2155 67.3182 24.6113 66.8161C24.1897 66.6843 23.6601 66.3686 23.0225 65.869C16.4962 60.752 9.98995 55.6072 3.48061 50.4671C2.33505 49.5617 1.72988 49.0735 1.66509 49.0024C0.907725 48.1743 0.571462 47.099 0.694862 45.9819C0.909269 44.0368 2.70473 42.4594 4.69301 42.6401C5.2154 42.6875 5.72186 42.8327 6.21237 43.0758C6.55275 43.2437 6.98002 43.5316 7.49419 43.9395C8.3621 44.6296 9.22435 45.315 10.081 45.9959C10.0845 45.9989 10.0888 46.0009 10.0934 46.0019C10.0979 46.0028 10.1027 46.0026 10.1071 46.0012C10.1116 45.9998 10.1156 45.9973 10.1189 45.9939C10.1221 45.9906 10.1245 45.9865 10.1257 45.9819C14.4652 32.1327 18.3647 19.6723 21.824 8.60095C21.9566 8.17659 22.1361 7.7749 22.3623 7.39586C23.4246 5.61809 24.819 3.30216 26.5456 0.448047C26.7723 0.0726147 26.9944 0.00309064 27.4479 0.00309064C29.6105 0.00103065 31.7731 0 33.9357 0C34.292 0 34.4802 0.13596 34.6961 0.438777C36.4402 2.87471 38.1513 5.28077 39.8295 7.65696C40.0002 7.89798 40.138 8.1905 40.2429 8.53452C41.8646 13.8462 45.054 24.2419 49.811 39.7216C49.8166 39.7386 49.8268 39.7536 49.8405 39.7649C49.8541 39.7761 49.8707 39.7831 49.8882 39.785C51.1916 39.9457 52.9408 40.5451 53.7012 41.7131C53.8565 41.95 54.0205 42.3677 54.1933 42.9661C54.6118 44.4143 55.1347 45.7445 55.762 46.9568C55.9224 47.2669 56.1183 47.5017 56.3497 47.6613C56.5523 47.8004 56.8392 47.9503 57.2104 48.1109C59.5735 49.1389 61.9736 49.7141 64.4108 49.8367C64.6524 49.8491 65.1532 49.8037 65.9132 49.7007C65.9371 49.6975 65.9597 49.6879 65.9787 49.6729C65.9976 49.658 66.0123 49.6383 66.0211 49.6158C66.1363 49.3263 66.178 49.0009 66.1461 48.6393C66.0628 47.7 65.8124 46.6514 65.3949 45.4937C65.2396 45.0622 65.383 44.749 65.8252 44.5544C65.8376 44.5482 65.8535 44.5425 65.873 44.5374C66.3235 44.4076 66.6361 44.56 66.8109 44.9947C67.2819 46.172 67.5647 47.3585 67.6593 48.5544C67.6978 49.041 67.633 49.7486 67.4433 50.1627C67.1163 50.8754 66.4849 51.256 65.5491 51.3044C64.1239 51.3776 62.6842 51.2679 61.2301 50.9753C59.5684 50.6416 57.993 50.1318 56.5039 49.4458C55.7219 49.0858 54.9013 48.6115 54.4987 47.8344C53.7274 46.3491 53.1197 44.8041 52.6754 43.1994C52.5778 42.8472 52.4734 42.6025 52.3623 42.4655C51.9104 41.9109 51.0635 41.588 50.4003 41.449C50.3935 41.4475 50.3865 41.4479 50.3799 41.4502C50.3734 41.4524 50.3675 41.4563 50.3628 41.4616C50.3582 41.4669 50.3549 41.4733 50.3534 41.4803C50.3518 41.4873 50.352 41.4946 50.354 41.5015L52.805 49.486C52.8184 49.5303 52.8431 49.5668 52.8791 49.5957C57.3657 53.1584 61.1576 56.184 64.255 58.6725C64.3568 58.7549 64.6894 58.9846 65.253 59.3615C66.9945 60.5265 67.3646 63.0371 66.0952 64.7118C65.0694 66.0652 63.2616 66.6276 61.6867 65.9818C61.3083 65.8263 60.7273 65.44 59.9437 64.8231C53.7295 59.9347 46.8212 54.4887 39.2187 48.4848C38.9524 48.2747 38.74 48.0373 38.5817 47.7726C37.7127 46.3203 37.7215 44.9123 38.6079 43.5486C39.5858 42.0422 41.517 41.4474 43.2184 42.1905C43.7449 42.4202 44.1979 42.6968 44.5773 43.0202ZM24.0405 7.55036C24.0359 7.55817 24.0333 7.56711 24.0333 7.57623C24.0332 7.58535 24.0356 7.59432 24.0401 7.60221C24.0447 7.61011 24.0513 7.61662 24.0592 7.62109C24.0672 7.62556 24.0762 7.62781 24.0853 7.62761L25.9903 7.62452C25.9994 7.62456 26.0083 7.62214 26.0162 7.61752C26.0241 7.6129 26.0306 7.60625 26.035 7.59825L29.2341 1.59597C29.2384 1.5882 29.2406 1.57943 29.2405 1.57053C29.2404 1.56164 29.2379 1.55294 29.2334 1.54529C29.2289 1.53763 29.2225 1.5313 29.2147 1.52691C29.207 1.52252 29.1983 1.52023 29.1894 1.52027L27.6947 1.53108C27.686 1.53116 27.6775 1.53347 27.6699 1.5378C27.6623 1.54213 27.656 1.54833 27.6515 1.5558L24.0405 7.55036ZM27.7842 7.55345C27.7801 7.56084 27.778 7.56918 27.7782 7.57763C27.7784 7.58608 27.7808 7.59433 27.7852 7.60155C27.7896 7.60876 27.7958 7.61469 27.8032 7.61872C27.8106 7.62276 27.8189 7.62476 27.8274 7.62452L37.849 7.62606C37.8577 7.626 37.8663 7.62352 37.8737 7.61892C37.8812 7.61431 37.8872 7.60775 37.8912 7.59994C37.8952 7.59213 37.8969 7.58338 37.8963 7.57464C37.8956 7.56589 37.8926 7.55749 37.8875 7.55036L33.6241 1.54808C33.6197 1.54192 33.6139 1.53689 33.6072 1.53339C33.6005 1.5299 33.5931 1.52805 33.5855 1.52799H31.0234C31.0147 1.52775 31.006 1.52993 30.9984 1.53429C30.9908 1.53865 30.9845 1.54502 30.9802 1.55271L27.7842 7.55345ZM25.4365 9.21895C25.4389 9.21115 25.4395 9.2029 25.4381 9.19486C25.4368 9.18681 25.4336 9.17919 25.4288 9.17259C25.424 9.166 25.4177 9.16061 25.4105 9.15685C25.4033 9.1531 25.3953 9.15108 25.3871 9.15097L23.2909 9.14788C23.2798 9.14804 23.2691 9.15172 23.2602 9.15838C23.2513 9.16504 23.2448 9.17434 23.2415 9.18496L11.4029 46.9986C11.3996 47.0087 11.3994 47.0196 11.4025 47.0298C11.4055 47.04 11.4116 47.049 11.4198 47.0557L13.0256 48.3257C13.0322 48.3311 13.0401 48.3349 13.0485 48.3366C13.0569 48.3383 13.0656 48.3379 13.0738 48.3355C13.082 48.333 13.0895 48.3286 13.0956 48.3226C13.1017 48.3166 13.1063 48.3092 13.1089 48.301L25.4365 9.21895ZM14.3706 49.3547C14.368 49.3639 14.3683 49.3737 14.3713 49.3828C14.3743 49.3918 14.38 49.3998 14.3876 49.4056L15.1249 49.9912C15.131 49.9961 15.1382 49.9994 15.1458 50.0009C15.1535 50.0023 15.1614 50.0019 15.1688 49.9996C15.1763 49.9973 15.1831 49.9933 15.1886 49.9878C15.1941 49.9823 15.1982 49.9755 15.2005 49.968L27.7287 9.21586C27.7308 9.20878 27.7313 9.20131 27.7301 9.19402C27.7288 9.18672 27.7259 9.17981 27.7216 9.17383C27.7173 9.16784 27.7116 9.16294 27.7051 9.15951C27.6985 9.15608 27.6913 9.15421 27.6839 9.15406L27.0916 9.14633C27.0813 9.14622 27.0712 9.14947 27.0628 9.1556C27.0545 9.16173 27.0483 9.1704 27.0453 9.18032L14.3706 49.3547ZM36.5594 9.18496C36.5562 9.17517 36.55 9.16663 36.5418 9.16053C36.5335 9.15444 36.5235 9.15109 36.5132 9.15097L35.9255 9.14479C35.9176 9.14464 35.9098 9.14638 35.9027 9.14987C35.8956 9.15337 35.8895 9.1585 35.8848 9.16486C35.8802 9.17121 35.8771 9.1786 35.8758 9.18639C35.8746 9.19419 35.8752 9.20218 35.8777 9.20968L46.7955 44.7691C46.7987 44.7784 46.8046 44.7864 46.8124 44.7923L47.5898 45.4165C47.5981 45.4226 47.608 45.426 47.6183 45.4262C47.6285 45.4265 47.6386 45.4235 47.6471 45.4177C47.6555 45.4119 47.662 45.4036 47.6656 45.394C47.6692 45.3844 47.6696 45.3739 47.667 45.3639L36.5594 9.18496ZM49.811 47.1592C49.8143 47.1685 49.8202 47.1765 49.828 47.1824L50.6085 47.8128C50.6168 47.8192 50.627 47.8227 50.6375 47.823C50.648 47.8232 50.6583 47.8201 50.6669 47.814C50.6755 47.808 50.6819 47.7994 50.6853 47.7894C50.6887 47.7795 50.6888 47.7687 50.6856 47.7587L38.8423 9.18496C38.8391 9.17517 38.8329 9.16663 38.8246 9.16053C38.8163 9.15444 38.8064 9.15109 38.7961 9.15097L38.2084 9.14633C38.2005 9.14618 38.1927 9.14793 38.1856 9.15142C38.1785 9.15491 38.1724 9.16005 38.1677 9.1664C38.163 9.17276 38.16 9.18014 38.1587 9.18794C38.1575 9.19574 38.1581 9.20372 38.1606 9.21122L49.811 47.1592ZM59.2542 62.3171C59.3514 60.6686 60.391 59.2874 61.9782 58.7945C61.9829 58.7928 61.987 58.7899 61.9901 58.7861C61.9933 58.7823 61.9953 58.7777 61.9961 58.7729C61.9969 58.768 61.9964 58.763 61.9946 58.7584C61.9928 58.7538 61.9898 58.7497 61.986 58.7466C50.2373 49.4458 44.038 44.5451 43.3881 44.0445C43.0518 43.785 42.7063 43.6016 42.3515 43.4945C41.0497 43.0975 39.6198 44.0368 39.4994 45.3717C39.4131 46.3306 39.7421 47.0712 40.4866 47.5934C40.8826 47.8715 41.0846 48.0136 41.0928 48.0198C47.1219 52.7887 53.1562 57.5632 59.1956 62.3434C59.2006 62.3476 59.2066 62.3503 59.213 62.3512C59.2194 62.352 59.226 62.3511 59.2321 62.3484C59.2381 62.3457 59.2434 62.3413 59.2473 62.3358C59.2512 62.3303 59.2536 62.3238 59.2542 62.3171ZM24.6683 59.4882C18.7482 54.7925 12.7022 50.0056 6.53013 45.1276C5.95837 44.6764 5.52545 44.3994 5.23134 44.2964C4.66885 44.0996 4.12692 44.1099 3.60555 44.3273C2.87904 44.6301 2.34225 45.2867 2.22348 46.0376C2.08157 46.9234 2.36847 47.6495 3.08419 48.216C3.17468 48.2881 3.34076 48.4194 3.58242 48.61C10.1144 53.7702 16.2129 58.5932 21.878 63.0788C21.9232 63.1138 21.9489 63.103 21.9551 63.0463C22.1525 61.2923 23.0523 60.1335 24.6545 59.5701C24.709 59.5516 24.7136 59.5243 24.6683 59.4882ZM65.3316 62.4376C65.3316 61.8332 65.0919 61.2536 64.6653 60.8262C64.2386 60.3989 63.6599 60.1588 63.0564 60.1588C62.453 60.1588 61.8743 60.3989 61.4477 60.8262C61.021 61.2536 60.7813 61.8332 60.7813 62.4376C60.7813 63.042 61.021 63.6216 61.4477 64.049C61.8743 64.4764 62.453 64.7165 63.0564 64.7165C63.6599 64.7165 64.2386 64.4764 64.6653 64.049C65.0919 63.6216 65.3316 63.042 65.3316 62.4376ZM28.0464 63.1993C28.0464 62.5949 27.8067 62.0153 27.38 61.5879C26.9533 61.1605 26.3746 60.9204 25.7712 60.9204C25.1678 60.9204 24.5891 61.1605 24.1624 61.5879C23.7358 62.0153 23.496 62.5949 23.496 63.1993C23.496 63.8037 23.7358 64.3833 24.1624 64.8107C24.5891 65.2381 25.1678 65.4782 25.7712 65.4782C26.3746 65.4782 26.9533 65.2381 27.38 64.8107C27.8067 64.3833 28.0464 63.8037 28.0464 63.1993Z" fill="black"/>
<rect y="46.7356" width="6.07089" height="27.7802" rx="1" transform="rotate(-51.2655 0 46.7356)" fill="#3A3A3A"/>
<path d="M22.9853 9.5839C23.0988 9.22562 23.4035 8.96119 23.7742 8.89939L24.5583 8.76868C25.2953 8.64581 25.9018 9.3452 25.6759 10.0574L13.7515 47.6499C13.5555 48.2676 12.8327 48.5387 12.2789 48.2021L11.6736 47.8341C11.2797 47.5948 11.1005 47.1172 11.2396 46.6777L22.9853 9.5839Z" fill="#3A3A3A"/>
<path d="M51.0214 46.8351C51.2274 47.5226 50.4364 48.0744 49.8622 47.6436C49.7369 47.5495 49.6444 47.4182 49.598 47.2685L37.9681 9.68905C37.7785 9.07632 38.2565 8.46186 38.897 8.49499C39.2865 8.51514 39.6212 8.778 39.7331 9.15157L51.0214 46.8351Z" fill="#3A3A3A"/>
<rect x="37.6699" y="46.7356" width="6.07089" height="26.9182" rx="1" transform="rotate(-51.2655 37.6699 46.7356)" fill="#3A3A3A"/>
<circle cx="25.6699" cy="63" r="3" fill="black"/>
<circle cx="62.6699" cy="62" r="3" fill="black"/>
<path d="M30.4881 1H34.3063L38.6699 8H26.6699L30.4881 1Z" fill="#3A3A3A"/>
<path d="M27.6699 1H29.8517L25.8517 8H23.3517L27.6699 1Z" fill="#3A3A3A"/>
</svg>
