<svg width="66" height="66" viewBox="0 0 66 66" fill="none" xmlns="http://www.w3.org/2000/svg">
<path d="M64.5 52C63.7355 50.2345 60.6907 49.6613 58.6667 49.6613H56.8333C58.8573 49.6613 60.5 48.0132 60.5 45.98V14.6813C60.501 14.1989 60.4069 13.7209 60.2231 13.2748C60.0394 12.8287 59.7696 12.4231 59.4291 12.0813C59.0886 11.7394 58.6841 11.468 58.2388 11.2825C57.7934 11.0969 57.3158 11.001 56.8333 11H9.16667C7.14267 11 5.5 12.6482 5.5 14.6813V45.98C5.5 48.0132 7.14267 49.6613 9.16667 49.6613H7.33333C5.30933 49.6613 2.6105 50.1593 2 52L0 62.3168C0 64.3518 1.64267 66 3.66667 66H62.3333C64.3573 66 66 64.3518 66 62.3187L64.5 52Z" fill="url(#paint0_linear_8_240)"/>
<path d="M0.0146484 62.4708L0.0256484 62.5753L0.337315 63.844C0.62706 64.4848 1.09498 65.0288 1.68529 65.411C2.27559 65.7933 2.96338 65.9977 3.66665 66H62.3333C63.2799 65.9969 64.1886 65.6278 64.8692 64.97C65.5499 64.3123 65.9498 63.4167 65.9853 62.4708H0.0146484Z" fill="#D9D9D9"/>
<path d="M56.8334 44.1375C56.8334 45.155 56.0139 45.9782 55.0001 45.9782H11.0001C9.98808 45.9782 9.16675 45.155 9.16675 44.1375V16.5238C9.16675 15.5063 9.98808 14.6832 11.0001 14.6832H55.0001C56.0139 14.6832 56.8334 15.5082 56.8334 16.5238V44.1375Z" fill="#434343"/>
<path d="M60.3277 56.9103L58.9344 52.9228C58.4962 52.0795 57.7702 51.3883 56.7564 51.3883H9.36841C8.35641 51.3883 7.70741 52.1363 7.24908 53.2877L5.98774 56.9122C5.58624 58.0048 6.80908 58.7528 7.82108 58.7528H21.7141C21.7141 58.7528 23.4319 58.6667 23.7362 57.6382C24.0882 56.4502 24.4971 54.6608 24.5851 54.3455C24.7207 53.8615 25.2964 53.372 26.1544 53.372H41.8807C42.7974 53.372 43.2484 53.8358 43.3676 54.4097C43.4446 54.7837 43.9396 56.5015 44.1706 57.6767C44.3741 58.7235 46.4091 58.751 46.4091 58.751H58.4981C59.5082 58.751 60.7292 57.8875 60.3277 56.9103Z" fill="#D9D9D9"/>
<path d="M41.0208 60.7072H26.7557C26.0682 60.7072 25.7693 60.0783 25.8683 59.4697C25.9673 58.8628 26.5265 56.1825 26.5705 55.8708C26.6127 55.5573 27.0728 55.1833 27.5312 55.1833H40.392C40.9365 55.1833 41.2903 55.4822 41.4004 56.0798C41.5085 56.6793 41.954 59.0883 41.9888 59.6383C42.0237 60.1883 41.679 60.7072 41.0208 60.7072Z" fill="#D9D9D9"/>
<defs>
<linearGradient id="paint0_linear_8_240" x1="33" y1="11" x2="33" y2="66" gradientUnits="userSpaceOnUse">
<stop offset="0.54888" stop-color="#C1C1C1"/>
<stop offset="1" stop-color="#737373"/>
</linearGradient>
</defs>
</svg>
