<svg width="195" height="240" viewBox="0 0 195 240" fill="none" xmlns="http://www.w3.org/2000/svg">
<path d="M82.8623 10.6377C86.595 2.31498 95.8699 -1.7846 104.381 0.738281C109.723 2.07182 114.387 5.82966 116.66 11.3057L193.188 195.691C193.777 197.109 194.169 198.559 194.381 200.011C196.509 208.285 192.483 217.149 184.444 220.836C126.329 247.49 68.1538 246.211 11.6045 216.942C9.76051 215.988 8.1516 214.759 6.80078 213.331C0.508028 208.336 -1.8584 199.539 1.58008 191.872L82.8623 10.6377ZM100.77 188.671C86.563 188.338 72.0661 191.048 57.2363 197.032C85.2847 205.775 113.42 206.177 142.01 198.229C128.108 192.108 114.37 188.99 100.77 188.671ZM47.9111 176.538C65.5412 169.291 83.3519 165.755 101.299 166.177C116.366 166.531 131.207 169.666 145.804 175.436L98.9912 62.6465L47.9111 176.538Z" fill="url(#paint0_radial_5_11)"/>
<defs>
<radialGradient id="paint0_radial_5_11" cx="0" cy="0" r="1" gradientTransform="matrix(148 182 -218.905 178.011 69.0046 59.0038)" gradientUnits="userSpaceOnUse">
<stop stop-color="#9056FB"/>
<stop offset="1" stop-color="#F582F7"/>
</radialGradient>
</defs>
</svg>
