<svg width="644" height="155" viewBox="0 0 644 155" fill="none" xmlns="http://www.w3.org/2000/svg">
<path d="M52.7332 6.76965C55.1036 1.48315 60.9854 -1.12478 66.3924 0.460083C69.8066 1.30126 72.7906 3.69698 74.242 7.19446L122.944 124.561C123.324 125.476 123.576 126.413 123.709 127.351C125.04 132.606 122.482 138.225 117.379 140.566C80.394 157.531 43.3714 156.718 7.38358 138.088C6.21269 137.482 5.19225 136.699 4.33377 135.793C0.324756 132.614 -1.18359 127.013 1.00565 122.13L52.7332 6.76965ZM64.1297 120.092C55.0891 119.88 45.8637 121.604 36.4265 125.413C54.2753 130.977 72.1786 131.233 90.3719 126.175C81.5255 122.28 72.784 120.295 64.1297 120.092ZM30.491 112.368C41.7106 107.756 53.0454 105.505 64.4666 105.774C74.0546 105.999 83.4989 107.995 92.7879 111.667L62.9969 39.8741L30.491 112.368Z" fill="url(#paint0_radial_5_18)"/>
<path d="M172.762 111.28C167.045 111.28 161.583 110.341 156.378 108.464C151.173 106.587 146.693 103.813 142.938 100.144L149.082 89.008C153.093 92.2507 157.018 94.64 160.858 96.176C164.783 97.712 168.538 98.48 172.122 98.48C175.45 98.48 178.095 97.8827 180.058 96.688C182.106 95.4933 183.13 93.7013 183.13 91.312C183.13 89.6907 182.575 88.4533 181.466 87.6C180.357 86.6613 178.735 85.8507 176.602 85.168C174.554 84.4853 172.037 83.7173 169.05 82.864C164.101 81.2427 159.962 79.664 156.634 78.128C153.306 76.592 150.789 74.672 149.082 72.368C147.461 69.9787 146.65 66.9493 146.65 63.28C146.65 58.8427 147.759 55.0453 149.978 51.888C152.282 48.6453 155.439 46.128 159.45 44.336C163.546 42.544 168.325 41.648 173.786 41.648C178.565 41.648 183.087 42.416 187.354 43.952C191.621 45.4027 195.503 47.792 199.002 51.12L192.09 62C188.677 59.3547 185.434 57.4347 182.362 56.24C179.29 54.96 176.175 54.32 173.018 54.32C171.226 54.32 169.519 54.5333 167.898 54.96C166.362 55.3867 165.082 56.112 164.058 57.136C163.119 58.0747 162.65 59.44 162.65 61.232C162.65 62.8533 163.077 64.1333 163.93 65.072C164.869 65.9253 166.234 66.6933 168.026 67.376C169.903 68.0587 172.165 68.8267 174.81 69.68C180.186 71.216 184.709 72.7947 188.378 74.416C192.133 76.0373 194.949 78.0427 196.826 80.432C198.703 82.736 199.642 85.936 199.642 90.032C199.642 96.688 197.21 101.893 192.346 105.648C187.482 109.403 180.954 111.28 172.762 111.28ZM273.644 110H256.492V72.368C256.492 67.1627 255.468 63.28 253.42 60.72C251.457 58.16 248.727 56.88 245.228 56.88C243.18 56.88 241.004 57.4773 238.7 58.672C236.396 59.8667 234.305 61.5307 232.428 63.664C230.636 65.712 229.313 68.1013 228.46 70.832V110H211.308V16.56H228.46V55.344C230.935 51.0773 234.305 47.7493 238.572 45.36C242.839 42.9707 247.489 41.776 252.524 41.776C256.876 41.776 260.417 42.544 263.148 44.08C265.879 45.5307 268.012 47.536 269.548 50.096C271.084 52.5707 272.151 55.3867 272.748 58.544C273.345 61.616 273.644 64.816 273.644 68.144V110ZM319.534 111.28C314.073 111.28 309.166 110.384 304.814 108.592C300.462 106.715 296.75 104.155 293.678 100.912C290.691 97.6693 288.387 93.9573 286.766 89.776C285.145 85.5947 284.334 81.2 284.334 76.592C284.334 71.8987 285.145 67.4613 286.766 63.28C288.387 59.0987 290.691 55.3867 293.678 52.144C296.75 48.9013 300.462 46.384 304.814 44.592C309.166 42.7147 314.073 41.776 319.534 41.776C324.995 41.776 329.859 42.7147 334.126 44.592C338.478 46.384 342.19 48.9013 345.262 52.144C348.334 55.3867 350.638 59.0987 352.174 63.28C353.795 67.4613 354.606 71.8987 354.606 76.592C354.606 81.2 353.795 85.5947 352.174 89.776C350.638 93.9573 348.334 97.6693 345.262 100.912C342.275 104.155 338.606 106.715 334.254 108.592C329.902 110.384 324.995 111.28 319.534 111.28ZM301.998 76.592C301.998 80.5173 302.766 84.016 304.302 87.088C305.838 90.0747 307.929 92.4213 310.574 94.128C313.219 95.8347 316.206 96.688 319.534 96.688C322.777 96.688 325.721 95.8347 328.366 94.128C331.011 92.336 333.102 89.9467 334.638 86.96C336.259 83.888 337.07 80.3893 337.07 76.464C337.07 72.624 336.259 69.168 334.638 66.096C333.102 63.024 331.011 60.6347 328.366 58.928C325.721 57.2213 322.777 56.368 319.534 56.368C316.206 56.368 313.219 57.264 310.574 59.056C307.929 60.7627 305.838 63.152 304.302 66.224C302.766 69.2107 301.998 72.6667 301.998 76.592ZM397.415 111.28C391.954 111.28 387.047 110.384 382.695 108.592C378.343 106.715 374.631 104.155 371.559 100.912C368.487 97.584 366.098 93.8293 364.391 89.648C362.77 85.4667 361.959 81.072 361.959 76.464C361.959 70.1493 363.367 64.3893 366.183 59.184C369.084 53.8933 373.18 49.6693 378.471 46.512C383.762 43.3547 390.034 41.776 397.287 41.776C404.54 41.776 410.77 43.3547 415.975 46.512C421.18 49.6693 425.063 53.808 427.623 58.928L410.855 64.048C409.404 61.5733 407.484 59.696 405.095 58.416C402.706 57.0507 400.06 56.368 397.159 56.368C393.916 56.368 390.93 57.2213 388.199 58.928C385.554 60.5493 383.463 62.896 381.927 65.968C380.391 68.9547 379.623 72.4533 379.623 76.464C379.623 80.3893 380.391 83.888 381.927 86.96C383.548 89.9467 385.682 92.336 388.327 94.128C390.972 95.8347 393.916 96.688 397.159 96.688C399.207 96.688 401.127 96.3467 402.919 95.664C404.796 94.9813 406.46 94.0427 407.911 92.848C409.362 91.6533 410.428 90.288 411.111 88.752L427.879 93.872C426.343 97.2 424.082 100.187 421.095 102.832C418.194 105.477 414.738 107.568 410.727 109.104C406.802 110.555 402.364 111.28 397.415 111.28ZM433.825 90.16C433.825 85.808 435.02 82.0107 437.409 78.768C439.884 75.44 443.297 72.88 447.649 71.088C452.001 69.296 456.993 68.4 462.625 68.4C465.441 68.4 468.3 68.6133 471.201 69.04C474.102 69.4667 476.62 70.1493 478.753 71.088V67.504C478.753 63.2373 477.473 59.952 474.913 57.648C472.438 55.344 468.726 54.192 463.777 54.192C460.108 54.192 456.609 54.832 453.281 56.112C449.953 57.392 446.454 59.2693 442.785 61.744L437.281 50.48C441.718 47.5787 446.241 45.4027 450.849 43.952C455.542 42.5013 460.449 41.776 465.569 41.776C475.126 41.776 482.55 44.1653 487.841 48.944C493.217 53.7227 495.905 60.5493 495.905 69.424V90.8C495.905 92.592 496.204 93.872 496.801 94.64C497.484 95.408 498.55 95.8773 500.001 96.048V110C498.465 110.256 497.057 110.469 495.777 110.64C494.582 110.811 493.558 110.896 492.705 110.896C489.292 110.896 486.689 110.128 484.897 108.592C483.19 107.056 482.124 105.179 481.697 102.96L481.313 99.504C478.412 103.259 474.785 106.16 470.433 108.208C466.081 110.256 461.644 111.28 457.121 111.28C452.684 111.28 448.673 110.384 445.089 108.592C441.59 106.715 438.817 104.197 436.769 101.04C434.806 97.7973 433.825 94.1707 433.825 90.16ZM475.553 93.616C476.492 92.592 477.26 91.568 477.857 90.544C478.454 89.52 478.753 88.5813 478.753 87.728V80.944C476.705 80.0907 474.486 79.4507 472.097 79.024C469.708 78.512 467.446 78.256 465.313 78.256C460.876 78.256 457.206 79.2373 454.305 81.2C451.489 83.0773 450.081 85.5947 450.081 88.752C450.081 90.4587 450.55 92.08 451.489 93.616C452.428 95.152 453.793 96.3893 455.585 97.328C457.377 98.2667 459.51 98.736 461.985 98.736C464.545 98.736 467.062 98.2667 469.537 97.328C472.012 96.304 474.017 95.0667 475.553 93.616ZM536.637 111.28C530.92 111.28 525.458 110.341 520.253 108.464C515.048 106.587 510.568 103.813 506.813 100.144L512.957 89.008C516.968 92.2507 520.893 94.64 524.733 96.176C528.658 97.712 532.413 98.48 535.997 98.48C539.325 98.48 541.97 97.8827 543.933 96.688C545.981 95.4933 547.005 93.7013 547.005 91.312C547.005 89.6907 546.45 88.4533 545.341 87.6C544.232 86.6613 542.61 85.8507 540.477 85.168C538.429 84.4853 535.912 83.7173 532.925 82.864C527.976 81.2427 523.837 79.664 520.509 78.128C517.181 76.592 514.664 74.672 512.957 72.368C511.336 69.9787 510.525 66.9493 510.525 63.28C510.525 58.8427 511.634 55.0453 513.853 51.888C516.157 48.6453 519.314 46.128 523.325 44.336C527.421 42.544 532.2 41.648 537.661 41.648C542.44 41.648 546.962 42.416 551.229 43.952C555.496 45.4027 559.378 47.792 562.877 51.12L555.965 62C552.552 59.3547 549.309 57.4347 546.237 56.24C543.165 54.96 540.05 54.32 536.893 54.32C535.101 54.32 533.394 54.5333 531.773 54.96C530.237 55.3867 528.957 56.112 527.933 57.136C526.994 58.0747 526.525 59.44 526.525 61.232C526.525 62.8533 526.952 64.1333 527.805 65.072C528.744 65.9253 530.109 66.6933 531.901 67.376C533.778 68.0587 536.04 68.8267 538.685 69.68C544.061 71.216 548.584 72.7947 552.253 74.416C556.008 76.0373 558.824 78.0427 560.701 80.432C562.578 82.736 563.517 85.936 563.517 90.032C563.517 96.688 561.085 101.893 556.221 105.648C551.357 109.403 544.829 111.28 536.637 111.28ZM606.287 111.28C600.911 111.28 596.047 110.384 591.695 108.592C587.343 106.715 583.631 104.197 580.559 101.04C577.487 97.7973 575.098 94.128 573.391 90.032C571.77 85.8507 570.959 81.456 570.959 76.848C570.959 70.448 572.367 64.6027 575.183 59.312C578.084 54.0213 582.18 49.7973 587.471 46.64C592.847 43.3973 599.162 41.776 606.415 41.776C613.754 41.776 620.026 43.3973 625.231 46.64C630.436 49.7973 634.404 54.0213 637.135 59.312C639.951 64.5173 641.359 70.1493 641.359 76.208C641.359 77.232 641.316 78.2987 641.231 79.408C641.146 80.432 641.06 81.2853 640.975 81.968H589.135C589.476 85.3813 590.458 88.368 592.079 90.928C593.786 93.488 595.919 95.4507 598.479 96.816C601.124 98.096 603.94 98.736 606.927 98.736C610.34 98.736 613.54 97.9253 616.527 96.304C619.599 94.5973 621.69 92.3787 622.799 89.648L637.519 93.744C635.898 97.1573 633.551 100.187 630.479 102.832C627.492 105.477 623.951 107.568 619.855 109.104C615.759 110.555 611.236 111.28 606.287 111.28ZM588.751 71.088H623.823C623.482 67.6747 622.5 64.7307 620.879 62.256C619.343 59.696 617.295 57.7333 614.735 56.368C612.175 54.9173 609.316 54.192 606.159 54.192C603.087 54.192 600.271 54.9173 597.711 56.368C595.236 57.7333 593.188 59.696 591.567 62.256C590.031 64.7307 589.092 67.6747 588.751 71.088Z" fill="url(#paint1_linear_5_18)"/>
<path d="M580.793 144.76C580.793 143.779 581.059 143.096 581.593 142.712C582.126 142.307 582.777 142.104 583.545 142.104C584.291 142.104 584.931 142.307 585.465 142.712C585.998 143.096 586.265 143.779 586.265 144.76C586.265 145.699 585.998 146.381 585.465 146.808C584.931 147.213 584.291 147.416 583.545 147.416C582.777 147.416 582.126 147.213 581.593 146.808C581.059 146.381 580.793 145.699 580.793 144.76ZM593.95 137.976L588.542 129.304H595.486L598.174 134.264L600.926 129.304H607.87L602.334 137.976L608.094 147H601.15L598.174 141.624L595.198 147H588.254L593.95 137.976ZM608.218 129.304H614.65L617.658 139.448C617.701 139.597 617.743 139.779 617.786 139.992C617.829 140.205 617.861 140.429 617.882 140.664C617.925 140.899 617.946 141.133 617.946 141.368H618.074C618.117 140.941 618.17 140.579 618.234 140.28C618.319 139.96 618.394 139.693 618.458 139.48L621.53 129.304H627.77L620.762 148.12C620.229 149.549 619.599 150.755 618.874 151.736C618.17 152.717 617.295 153.453 616.25 153.944C615.205 154.435 613.903 154.68 612.346 154.68C611.791 154.68 611.311 154.648 610.906 154.584C610.501 154.541 610.149 154.488 609.85 154.424V149.624C610.085 149.667 610.362 149.709 610.682 149.752C611.023 149.795 611.375 149.816 611.738 149.816C612.421 149.816 612.965 149.677 613.37 149.4C613.797 149.123 614.149 148.76 614.426 148.312C614.703 147.885 614.938 147.416 615.13 146.904L615.194 146.744L608.218 129.304ZM643.205 147H628.549V143.512L635.877 133.976H628.965V129.304H642.853V133.08L635.845 142.328H643.205V147Z" fill="url(#paint2_linear_5_18)"/>
<defs>
<radialGradient id="paint0_radial_5_18" cx="0" cy="0" r="1" gradientTransform="matrix(94.1835 115.846 -139.306 113.307 43.9126 37.5571)" gradientUnits="userSpaceOnUse">
<stop stop-color="#9056FB"/>
<stop offset="1" stop-color="#F582F7"/>
</radialGradient>
<linearGradient id="paint1_linear_5_18" x1="353.71" y1="36.8844" x2="627.181" y2="164.652" gradientUnits="userSpaceOnUse">
<stop stop-color="#9F5DFA"/>
<stop offset="1" stop-color="#E37AF8"/>
</linearGradient>
<linearGradient id="paint2_linear_5_18" x1="134" y1="72" x2="644" y2="72" gradientUnits="userSpaceOnUse">
<stop stop-color="#9F5DFA"/>
<stop offset="1" stop-color="#E37AF8"/>
</linearGradient>
</defs>
</svg>
