<svg width="101" height="128" viewBox="0 0 101 128" fill="none" xmlns="http://www.w3.org/2000/svg">
<g clip-path="url(#clip0_17_1651)">
<path d="M62.87 90.77C63.47 90.94 63.84 90.99 64.44 90.72C65.7067 90.1467 67.74 89.4767 70.54 88.71C72.4 88.1967 73.67 87.32 74.35 86.08C76.71 81.7934 78.3333 78.9167 79.22 77.45C80.86 74.7434 82.3233 71.8034 83.61 68.63C85.0767 65.01 86.76 61.5134 88.66 58.14C89.47 56.71 89.36 55.42 89.47 53.32C89.4836 53.0361 89.5665 52.7598 89.7116 52.5153C89.8567 52.2708 90.0594 52.0656 90.3022 51.9176C90.5449 51.7696 90.8202 51.6833 91.104 51.6663C91.3877 51.6493 91.6714 51.7021 91.93 51.82C92.3633 52.02 93.0667 52.0634 94.04 51.95C94.3933 51.9034 94.6467 51.7234 94.8 51.41C95.26 50.4767 95.57 49.6767 95.73 49.01C95.83 48.5834 95.8233 47.7434 95.71 46.49C95.6033 45.2034 95.6667 43.95 95.9 42.73C96.18 41.29 96.0333 38.75 95.46 35.11C95.4067 34.7634 95.4367 34.4267 95.55 34.1L95.67 33.79C95.81 33.41 95.79 33.06 95.61 32.74C94.73 31.19 94.1 30.28 94.07 28.54C94.0233 26.1534 93.9067 22.65 93.72 18.03C93.5267 13.1767 92.0267 9.34669 89.22 6.54003C87.4 4.72003 85.33 3.77003 82.76 4.01003C79.4867 4.31003 76.09 5.19669 72.57 6.67003C72.2633 6.79669 72 6.98669 71.78 7.24003C71.48 7.58669 71.14 7.80003 70.76 7.88003C70.38 7.96003 70.1434 7.81003 70.05 7.43003C69.8634 6.67003 69.5333 6.03003 69.06 5.51003C68.3333 4.72336 67.97 4.86669 67.97 5.94003V7.34003C67.97 7.70003 67.7867 7.88003 67.42 7.88003H64.98C64.54 7.88003 64.21 7.69336 63.99 7.32003L62.81 5.33003C62.7173 5.17217 62.602 5.03837 62.4735 4.93937C62.345 4.84038 62.2068 4.77895 62.07 4.76003C59.9033 4.47336 58.1333 5.01669 56.76 6.39003C56.5133 6.64336 56.2133 6.78003 55.86 6.80003C55.04 6.85336 54.28 6.61003 53.58 6.07003C53.4447 5.96488 53.2835 5.89897 53.1141 5.87955C52.9446 5.86014 52.7737 5.88799 52.62 5.96003C48.4933 7.86003 45.2667 10.06 42.94 12.56C42.01 13.55 42.09 14.33 41.6 15.31C41.5497 15.409 41.4775 15.4952 41.389 15.562C41.3004 15.6289 41.1977 15.6747 41.0887 15.6959C40.9798 15.7171 40.8674 15.7132 40.7602 15.6844C40.653 15.6557 40.5537 15.6029 40.47 15.53C40.0633 15.1834 39.5533 14.9867 38.94 14.94C38.58 14.9134 38.3 15.0534 38.1 15.36C37.3333 16.5734 37.14 17.91 37.52 19.37C37.5485 19.4735 37.6109 19.5648 37.6976 19.6298C37.7843 19.6948 37.8906 19.73 38 19.73H38.28C38.3907 19.7311 38.4987 19.7644 38.5908 19.8259C38.6829 19.8874 38.7551 19.9743 38.7985 20.0761C38.842 20.1779 38.8549 20.2902 38.8356 20.3992C38.8164 20.5082 38.7658 20.6093 38.69 20.69L34.17 25.37C33.9433 25.61 33.82 25.8934 33.8 26.22C33.6933 28.36 34.01 29.7967 34.75 30.53C35.6033 31.37 35.6433 32.2467 34.87 33.16C31.3033 37.3734 28.4933 40.7967 26.44 43.43C24.9867 45.3034 23.7167 46.7067 22.63 47.64C18.62 51.1 15.15 52.42 10.09 55.07C8.05668 56.13 6.63335 57.32 5.82002 58.64C3.29002 62.74 6.83002 68.79 9.91002 71.62C11.5167 73.0934 18.7667 78 31.66 86.34C32.9867 87.2 33.9767 87.9 34.63 88.44C34.8795 88.6498 35.0522 88.9364 35.121 89.255C35.1898 89.5736 35.1508 89.906 35.01 90.2C33.83 92.6867 32.8767 95.3934 32.15 98.32C32.07 98.66 32.1133 98.9834 32.28 99.29C34.3267 103.05 36.3967 105.827 38.49 107.62C39.53 108.52 40.2467 109.62 40.64 110.92C41.3667 113.367 42.95 116.22 45.39 119.48C46.7167 121.253 47.8933 122.317 48.92 122.67C51.0067 123.383 52.7467 123.27 54.14 122.33C56.8333 120.517 57.5334 117.903 56.24 114.49C54.7734 110.63 53.08 107.283 51.16 104.45C50.9522 104.145 50.8574 103.778 50.8921 103.411C50.9268 103.044 51.0888 102.7 51.35 102.44L55.5 98.28C55.7933 97.9934 56.1433 97.85 56.55 97.85H59.66C60.0933 97.85 60.35 97.6367 60.43 97.21C60.7767 95.3167 61.36 93.2834 62.18 91.11C62.3067 90.79 62.5367 90.6767 62.87 90.77Z" stroke="#8B8B8B" stroke-width="2"/>
<path d="M81.4301 33.32C79.9368 38.0533 77.5835 42.7233 74.3701 47.33" stroke="#343434" stroke-width="2"/>
<path d="M74.3702 47.33C74.6835 47.6634 74.3702 48.3834 73.4302 49.49" stroke="#8B8B8B" stroke-width="2"/>
<path d="M73.43 49.4901C71.93 49.7767 70.8566 50.5167 70.21 51.71" stroke="#262626" stroke-width="2"/>
<path d="M70.21 51.71L68.48 52.47" stroke="#8B8B8B" stroke-width="2"/>
<path d="M68.4802 52.47L67.7202 52.57" stroke="#666566" stroke-width="2"/>
<path d="M67.72 52.57L65.63 52.97C65.3234 53.03 65.03 52.9767 64.75 52.81C62.3567 51.41 59.7867 51.09 57.04 51.85" stroke="#3F3F3F" stroke-width="2"/>
<path d="M57.0402 51.85L56.1802 52.32" stroke="#666566" stroke-width="2"/>
<path d="M56.18 52.32L53.27 52.28" stroke="#262626" stroke-width="2"/>
<path d="M53.2699 52.28C52.9366 51.02 51.8399 50.0567 49.9799 49.39C49.6732 49.2767 49.4399 49.0733 49.2799 48.78C48.3732 47.0533 47.6832 45.9733 47.2099 45.54C46.4366 44.8333 45.6332 43.9267 44.7999 42.82C44.3732 42.2533 44.0432 41.2033 43.8099 39.67C43.5832 38.17 42.9466 36.6133 41.8999 35" stroke="#343434" stroke-width="2"/>
<path d="M41.9002 35.0001L40.4602 31.8201C40.3705 31.6207 40.2279 31.4496 40.048 31.3254C39.8681 31.2011 39.6577 31.1284 39.4395 31.115C39.2213 31.1016 39.0035 31.1481 38.8098 31.2494C38.616 31.3508 38.4537 31.5031 38.3402 31.6901L35.4902 36.3801" stroke="#262626" stroke-width="2"/>
<path d="M35.4899 36.38L27.3599 46.75" stroke="#4D4C4C" stroke-width="2"/>
<path d="M27.3599 46.75C25.5865 47.89 24.0999 49.2567 22.8999 50.85C22.0899 51.93 21.1699 52.43 20.1499 53.23C19.3899 53.8233 18.6132 54.2967 17.8199 54.65C14.6732 56.07 12.6432 57.0233 11.7299 57.51C8.90321 59.01 7.81988 61.4633 8.47988 64.87C8.72655 66.1833 9.47988 67.3133 10.7399 68.26C13.3399 70.2 15.1132 71.47 16.0599 72.07" stroke="#2F2F2F" stroke-width="2"/>
<path d="M16.0601 72.07L36.6001 86.44C38.2467 87.5933 39.6334 87.3367 40.7601 85.67L43.5301 81.55C44.5567 80.0233 44.1834 79.02 42.4101 78.54C40.5501 78.0467 38.5134 77.14 36.3001 75.82" stroke="#3F3F3F" stroke-width="2"/>
<path d="M36.3002 75.82L30.1502 68.71C29.9236 68.45 29.9169 68.1834 30.1302 67.91C30.3636 67.5967 30.7536 67.4567 31.3002 67.49C32.0069 67.5367 32.7736 67.6 33.6002 67.68" stroke="#2F2F2F" stroke-width="2"/>
<path d="M33.6001 67.68C35.4734 67.64 37.3701 67.6234 39.2901 67.63C41.3701 67.63 42.9634 67.9067 44.0701 68.46C45.5568 69.2067 46.8168 70.3234 47.8501 71.81" stroke="#4D4C4C" stroke-width="2"/>
<path d="M47.8501 71.81C50.4034 73.91 53.4434 75.09 56.9701 75.35C57.7034 75.4034 59.4834 76.1667 62.3101 77.64C64.4368 78.7467 66.0768 79.27 67.2301 79.21C68.9768 79.1234 70.5068 78.3834 71.8201 76.99C72.0601 76.7367 72.2134 76.4434 72.2801 76.11C72.5068 74.9434 73.1968 74.27 74.3501 74.09C74.6901 74.0367 74.9734 73.8834 75.2001 73.63C78.1734 70.2834 80.4234 67.2867 81.9501 64.64C82.1234 64.3467 82.3701 64.1434 82.6901 64.03C83.5834 63.7234 84.2801 62.9767 84.7801 61.79C85.0868 61.0434 85.5634 59.96 86.2101 58.54C86.8301 57.1867 87.1234 56.0667 87.0901 55.18C87.0568 54.16 87.0601 53.04 87.1001 51.82C87.1134 51.4867 87.1834 51.17 87.3101 50.87L88.4801 48.17" stroke="#262626" stroke-width="2"/>
<path d="M88.48 48.17C88.82 44.8967 89.41 42.0067 90.25 39.5C90.45 38.8867 90.9566 38.47 91.77 38.25C92.09 38.1567 92.3466 37.97 92.54 37.69C93.6066 36.11 93.9633 34.9234 93.61 34.13C93.0633 32.8834 92.7066 31.83 92.54 30.97C91.9133 27.6567 91.47 23.8067 91.21 19.42" stroke="#343434" stroke-width="2"/>
<path d="M91.2101 19.42C91.4801 15.17 89.5001 7.25003 84.1801 6.64003C79.8734 6.14669 75.8234 7.21002 72.0301 9.83002C71.8208 9.97436 71.671 10.1897 71.6084 10.4362C71.5459 10.6826 71.5749 10.9434 71.6901 11.17C72.9967 13.6834 75.1867 17.13 78.2601 21.51C78.8667 22.37 79.5434 23.85 80.2901 25.95C80.5901 26.79 80.7501 28.0067 80.7701 29.6C80.7834 30.9 81.0034 32.14 81.4301 33.32" stroke="#4D4C4C" stroke-width="2"/>
<path d="M91.2102 19.42C89.3502 22.3467 87.6302 25.2934 86.0502 28.26C85.3635 29.5467 83.8235 31.2334 81.4302 33.32" stroke="#6B6A6A" stroke-width="2"/>
<path d="M88.4802 48.17C87.8202 48.7634 87.1536 49.7767 86.4802 51.21C85.9736 52.2834 84.8702 53.6567 83.1702 55.33C81.3702 57.1 80.1502 59.19 78.5102 60.99C78.406 61.1009 78.2675 61.1737 78.117 61.1965C77.9665 61.2194 77.8127 61.1911 77.6802 61.1162C77.5477 61.0413 77.4441 60.9242 77.3861 60.7834C77.3281 60.6427 77.319 60.4866 77.3602 60.34L78.3102 57.18C78.3567 57.0264 78.3527 56.8618 78.2987 56.7106C78.2447 56.5594 78.1436 56.4295 78.0102 56.34C77.3302 55.88 76.8169 55.3267 76.4702 54.68" stroke="#444444" stroke-width="2"/>
<path d="M76.4701 54.68C76.5301 54.68 76.6301 54.6633 76.7701 54.63C76.9034 54.5967 76.9468 54.5133 76.9001 54.38C76.2134 52.38 75.9468 50.3034 76.1001 48.15C76.1114 47.9797 76.0562 47.8116 75.9462 47.6811C75.8362 47.5506 75.6799 47.4677 75.5101 47.45L74.3701 47.33" stroke="#A9A9A9" stroke-width="2"/>
<path d="M41.9001 35C39.9935 37.34 39.5635 40.04 40.6101 43.1C41.4568 45.5667 41.9868 47.2133 42.2001 48.04C42.9668 51.1067 44.2935 53.9367 46.1801 56.53C46.4735 56.9367 46.9135 57.39 47.5001 57.89C48.6401 58.87 49.3635 59.5433 49.6701 59.91C51.7101 62.35 54.3101 64.7 55.9001 67.47C57.2001 69.75 57.6801 70.81 60.2801 72.56C61.1935 73.1733 62.2435 73.33 63.4301 73.03C65.2835 72.5567 66.6335 72.1533 67.4801 71.82C68.3068 71.4867 69.3901 70.78 70.7301 69.7C71.7568 68.88 72.8435 68.1433 73.9901 67.49C75.5435 66.61 75.6601 65.8233 74.3401 65.13C74.1532 65.033 73.9373 65.0047 73.7301 65.05L67.9701 66.25C67.5501 66.3367 67.2968 66.17 67.2101 65.75L67.0001 64.75C66.9335 64.43 66.7501 64.2033 66.4501 64.07C60.3235 61.3767 55.9301 57.4467 53.2701 52.28" stroke="#444444" stroke-width="2"/>
<path d="M56.1802 52.32C56.6468 53.3333 57.3135 54.24 58.1802 55.04C59.1902 55.97 60.4102 56.1 61.5102 56.85C61.687 56.9744 61.8252 57.1403 61.9102 57.33C62.3635 58.39 63.1635 59.04 64.3102 59.28" stroke="#767576" stroke-width="2"/>
<path d="M64.3101 59.28C65.0567 60.3267 66.1767 61.3 67.6701 62.2" stroke="#8B8B8B" stroke-width="2"/>
<path d="M67.6703 62.2C67.6436 62.7267 67.8503 63.0567 68.2903 63.19C68.6369 63.2967 68.8269 63.1667 68.8603 62.8C68.9736 61.58 68.8036 60.4034 68.3503 59.27C68.1569 58.7834 68.1103 58.42 68.2103 58.18C68.3436 57.8467 68.6303 57.5534 69.0703 57.3" stroke="#5C5C5C" stroke-width="2"/>
<path d="M69.0698 57.3C69.3165 57.2667 69.5398 57.15 69.7398 56.95" stroke="#767576" stroke-width="2"/>
<path d="M69.7402 56.95C69.8669 56.9434 69.9869 56.91 70.1002 56.85C70.1936 56.7967 70.2702 56.7034 70.3302 56.57C71.0036 54.97 70.9636 53.35 70.2102 51.71" stroke="#9A9A9A" stroke-width="2"/>
<path d="M73.4299 49.4901C72.7899 52.0101 73.8033 53.74 76.4699 54.68" stroke="#9A9A9A" stroke-width="2"/>
<path d="M47.8502 71.81C50.7969 72.9567 53.7269 73.6 56.6402 73.74C56.9869 73.7533 57.0802 73.6067 56.9202 73.3C55.4669 70.4867 54.1969 68.51 53.1102 67.37C49.7369 63.8233 47.2169 61.07 45.5502 59.11C44.7702 58.19 44.0336 57.2 43.3402 56.14C42.6402 55.06 40.4202 52.03 40.0002 50.32C39.7469 49.3333 39.3502 48.4167 38.8102 47.57C38.1902 46.5967 37.7069 45.2067 37.3602 43.4C36.9202 41.12 36.2969 38.78 35.4902 36.38" stroke="#5C5C5C" stroke-width="2"/>
<path d="M33.6001 67.68C29.3801 66.0133 25.9068 63.42 23.1801 59.9C22.9735 59.6333 22.8901 59.3333 22.9301 59C23.3835 54.64 24.8601 50.5567 27.3601 46.75" stroke="#656565" stroke-width="2"/>
<path d="M67.1099 58.28C67.8899 59.88 68.0765 61.1867 67.6699 62.2" stroke="#B2B2B1" stroke-width="2"/>
<path d="M69.0699 57.3L67.7499 57.35C67.4032 57.3634 67.2065 57.54 67.1599 57.88L67.1099 58.28" stroke="#9D9B9C" stroke-width="2"/>
<path d="M67.1102 58.28C66.6369 57.1267 65.6869 56.3167 64.2602 55.85C64.0856 55.7952 63.8984 55.7933 63.7225 55.8445C63.5466 55.8956 63.39 55.9976 63.2729 56.1373C63.1558 56.277 63.0834 56.448 63.0651 56.6284C63.0468 56.8089 63.0834 56.9905 63.1702 57.15L64.3102 59.28" stroke="#CBCBCB" stroke-width="2"/>
<path d="M69.7399 56.95C68.4266 57.0167 67.5366 56.69 67.0699 55.97C66.9273 55.7497 66.8354 55.5005 66.801 55.2403C66.7665 54.9802 66.7904 54.7156 66.8708 54.4658C66.9512 54.2159 67.0861 53.9871 67.2658 53.7959C67.4455 53.6047 67.6655 53.4558 67.9099 53.36C68.2366 53.2334 68.4266 52.9367 68.4799 52.47" stroke="#DBDADB" stroke-width="2"/>
<path d="M36.3001 75.82C32.5934 74.6467 29.5801 72.8167 27.2601 70.33C27.0953 70.1535 26.8879 70.0228 26.6582 69.9509C26.4285 69.879 26.1844 69.8684 25.9501 69.92L16.0601 72.07" stroke="#585858" stroke-width="2"/>
<path d="M67.72 52.57C65.6334 55.11 63.16 55.59 60.3 54.01C59.25 53.44 58.45 52.22 57.04 51.85" stroke="#8F8E8F" stroke-width="2"/>
<path d="M43.79 33.28C45.01 35.24 46.39 37.21 47.02 39.42C47.4334 40.88 47.8834 41.84 48.37 42.3C50.5834 44.3867 52.7234 46.55 54.79 48.79C55.3167 49.3634 55.82 49.68 56.3 49.74C56.62 49.78 57.2434 49.65 58.17 49.35C59.0367 49.0634 60.0734 49.03 61.28 49.25C63.0734 49.5834 64.0867 49.7567 64.32 49.77C67.7734 49.9634 70.4167 48.3934 72.25 45.06C73.79 42.2534 75.29 39.35 76.75 36.35" stroke="#3F3F3F" stroke-width="2"/>
<path d="M76.7502 36.35C77.9768 34.5767 77.6035 33.1 75.6302 31.92C74.3035 31.1267 72.9068 30.8667 71.4402 31.14C69.8202 31.4467 69.2802 32.75 69.8202 35.05" stroke="#666566" stroke-width="2"/>
<path d="M69.82 35.0501L69.61 38.7301C69.6065 38.8123 69.5815 38.8921 69.5375 38.9617C69.4935 39.0312 69.4319 39.0884 69.3586 39.1275C69.2853 39.1667 69.2028 39.1865 69.119 39.1852C69.0352 39.1839 68.9529 39.1615 68.88 39.1201C67.42 38.2601 66.1767 37.1267 65.15 35.7201C64.9434 35.4467 64.6733 35.3334 64.34 35.3801C63.8333 35.4467 62.7133 35.5867 60.98 35.8001C60.4333 35.8667 60.2467 35.4934 60.42 34.6801" stroke="#3F3F3F" stroke-width="2"/>
<path d="M60.42 34.68L62.54 32.43C63.36 31.57 63.1767 31.1167 61.99 31.07C60.0567 31.0033 58.0667 31.4767 56.02 32.49" stroke="#666566" stroke-width="2"/>
<path d="M56.0198 32.49L55.1398 32.54C54.6798 32.5733 54.5865 32.4033 54.8598 32.03L55.5298 31.14" stroke="#3F3F3F" stroke-width="2"/>
<path d="M55.5299 31.14C57.4499 30.3334 58.9766 29.0201 60.1099 27.2001C60.3099 26.8734 60.3499 26.53 60.2299 26.17L58.8499 22.0201C58.7976 21.8631 58.7072 21.7215 58.5868 21.6081C58.4664 21.4947 58.3197 21.4129 58.1599 21.3701C56.3532 20.8901 55.0332 19.71 54.1999 17.83C54.0466 17.49 54.1199 17.21 54.4199 16.99C54.7066 16.7834 55.0632 16.6867 55.4899 16.7001C55.6804 16.7035 55.867 16.7649 56.0268 16.8768C56.1866 16.9886 56.3128 17.1461 56.3899 17.33C56.4632 17.5034 56.6666 17.7067 56.9999 17.9401C57.1599 18.0534 57.4999 18.1167 58.0199 18.13C60.7199 18.19 62.1099 17.7501 63.6499 20.4401C65.0299 22.8467 66.3566 25.4867 67.6299 28.3601C67.8499 28.8467 68.2266 29.0934 68.7599 29.1C71.4332 29.12 73.7732 29.37 75.7799 29.85C75.989 29.8994 76.2075 29.8918 76.4126 29.8279C76.6178 29.764 76.802 29.6462 76.946 29.4868C77.0901 29.3275 77.1887 29.1323 77.2316 28.9218C77.2745 28.7113 77.2601 28.4931 77.1899 28.2901C75.0699 22.1034 71.8899 16.2701 67.6499 10.7901C67.4499 10.5301 67.1866 10.3967 66.8599 10.39C64.4099 10.3 62.6099 11.4201 60.8999 9.02005C60.7806 8.85191 60.6043 8.73283 60.4038 8.685C60.2033 8.63717 59.9922 8.66384 59.8099 8.76005C58.5199 9.45005 57.0399 9.63005 55.3899 9.50005C52.9566 9.31338 50.7132 9.76005 48.6599 10.8401C47.3799 11.5134 46.2432 12.7401 45.2499 14.5201C44.4566 15.9534 43.3732 17.27 41.9999 18.47C41.879 18.5782 41.7899 18.7173 41.7423 18.8724C41.6947 19.0275 41.6904 19.1927 41.7299 19.35C42.1966 21.2034 42.2599 23.09 41.9199 25.01C41.8666 25.27 41.7566 25.5034 41.5899 25.71C41.4099 25.9234 41.3432 26.19 41.3899 26.51C41.4115 26.6572 41.487 26.7917 41.6027 26.889C41.7183 26.9863 41.8664 27.0399 42.0199 27.0401H47.8799C48.0132 27.0401 48.0966 27.1067 48.1299 27.2401C48.1432 27.2934 48.1666 27.3834 48.1999 27.51C48.2399 27.7034 48.1699 27.8467 47.9899 27.94C47.4166 28.22 46.3799 28.7001 44.8799 29.3801C43.0732 30.2001 42.7099 31.5 43.7899 33.28" stroke="#525251" stroke-width="2"/>
<path d="M55.53 31.14C52.36 32.26 49.64 33.83 46.27 34.12C45.9434 34.1467 45.6534 34.0533 45.4 33.84C44.9467 33.4667 44.41 33.28 43.79 33.28" stroke="#7B7B7A" stroke-width="2"/>
<path d="M69.8198 35.05C69.9265 36.8167 70.3465 38.3867 71.0798 39.76C71.2168 40.0151 71.4156 40.2316 71.658 40.3899C71.9003 40.5482 72.1785 40.6431 72.4671 40.666C72.7557 40.6889 73.0454 40.639 73.3096 40.5209C73.5739 40.4028 73.8044 40.2203 73.9798 39.9901L76.7498 36.35" stroke="#8F8E8F" stroke-width="2"/>
<path d="M60.4201 34.68C57.5735 36.4334 54.8501 37.6734 52.2501 38.4001C51.4301 38.6267 50.7568 38.4734 50.2301 37.94C49.9568 37.6534 49.9868 37.4 50.3201 37.18C50.5801 37.0067 51.1535 36.4267 52.0401 35.44C53.2101 34.14 54.7501 33.7501 56.0201 32.4901" stroke="#8F8E8F" stroke-width="2"/>
<path d="M91.4698 43.77C91.3765 43.93 91.3498 44.1034 91.3898 44.29C91.7098 45.7634 91.6232 47.37 91.1298 49.11C91.0298 49.4767 91.1665 49.66 91.5398 49.66H93.2298C93.6765 49.66 93.8232 49.4534 93.6698 49.04C93.3398 48.12 93.3198 47.57 93.5198 46.48C93.8732 44.4467 93.9165 42.3267 93.6498 40.12C93.6365 40.0067 93.6032 39.9967 93.5498 40.09C92.8565 41.3167 92.1632 42.5434 91.4698 43.77Z" stroke="#7B7C7B" stroke-width="2"/>
<path d="M36.9899 70.03C36.888 70.016 36.7844 70.0366 36.6956 70.0884C36.6067 70.1402 36.5378 70.2203 36.4998 70.3158C36.4618 70.4114 36.457 70.5169 36.486 70.6155C36.515 70.7142 36.5762 70.8003 36.6599 70.86L39.7399 73.09C39.8159 73.1462 39.9075 73.1776 40.0021 73.1799C40.0967 73.1822 40.1897 73.1553 40.2684 73.1028C40.3471 73.0503 40.4077 72.9749 40.442 72.8867C40.4762 72.7985 40.4825 72.7019 40.4599 72.61L39.9899 70.69C39.9676 70.5975 39.9172 70.5141 39.8455 70.4514C39.7739 70.3887 39.6846 70.3498 39.5899 70.34L36.9899 70.03Z" stroke="#7B7C7B" stroke-width="2"/>
<path d="M53.22 84.49C50.8867 83.81 48.9533 82.7167 47.42 81.21C47.2733 81.0634 47.1433 81.0767 47.03 81.25L42.1 88.58C42.0133 88.7 42.04 88.79 42.18 88.85C47.7667 91.1834 52.8533 92.6967 57.44 93.39C59.08 93.6434 59.9367 92.96 60.01 91.34C60.0233 91.0467 59.9267 90.8 59.72 90.6L54.19 85.06C53.9167 84.7867 53.5933 84.5967 53.22 84.49Z" stroke="#7B7C7B" stroke-width="2"/>
<path d="M45.8901 115.16C47.0368 116.953 48.5568 118.577 50.4501 120.03C50.7659 120.271 51.1644 120.377 51.558 120.324C51.9517 120.272 52.3085 120.065 52.5501 119.75C53.0568 119.09 53.1568 118.22 52.8501 117.14C52.4368 115.68 51.9701 114.313 51.4501 113.04" stroke="#7B7C7B" stroke-width="2"/>
<path d="M51.4501 113.04C50.8235 111.513 49.9168 110.273 48.7301 109.32C48.4835 109.12 48.2101 109.07 47.9101 109.17L44.4601 110.31C44.0735 110.443 43.9235 110.71 44.0101 111.11C44.3101 112.583 44.9368 113.933 45.8901 115.16" stroke="#525251" stroke-width="2"/>
<path d="M51.4501 113.04C48.5635 111.807 46.7101 112.513 45.8901 115.16" stroke="#B7B7B6" stroke-width="2"/>
<path d="M62.18 91.11C61.36 93.2834 60.7767 95.3167 60.43 97.21C60.35 97.6367 60.0933 97.85 59.66 97.85H56.55C56.1433 97.85 55.7934 97.9934 55.5 98.28L51.35 102.44C51.0888 102.7 50.9268 103.044 50.8921 103.411C50.8574 103.778 50.9522 104.145 51.16 104.45C53.08 107.283 54.7733 110.63 56.24 114.49C57.5334 117.903 56.8333 120.517 54.14 122.33C52.7467 123.27 51.0067 123.383 48.92 122.67C47.8933 122.317 46.7167 121.253 45.39 119.48C42.95 116.22 41.3667 113.367 40.64 110.92C40.2467 109.62 39.53 108.52 38.49 107.62C36.3967 105.827 34.3267 103.05 32.28 99.29C32.1133 98.9834 32.07 98.66 32.15 98.32C32.8767 95.3934 33.83 92.6867 35.01 90.2C35.1508 89.906 35.1898 89.5736 35.121 89.255C35.0522 88.9364 34.8795 88.6497 34.63 88.44C33.9767 87.9 32.9867 87.2 31.66 86.34C18.7667 78 11.5167 73.0934 9.91002 71.62C6.83002 68.79 3.29002 62.74 5.82002 58.64C6.63335 57.32 8.05668 56.13 10.09 55.07C15.15 52.42 18.62 51.1 22.63 47.64C23.7167 46.7067 24.9867 45.3034 26.44 43.43C28.4933 40.7967 31.3033 37.3734 34.87 33.16C35.6433 32.2467 35.6033 31.37 34.75 30.53C34.01 29.7967 33.6933 28.36 33.8 26.22C33.82 25.8934 33.9433 25.61 34.17 25.37L38.69 20.69C38.7658 20.6093 38.8164 20.5082 38.8356 20.3992C38.8549 20.2902 38.842 20.1779 38.7985 20.0761C38.7551 19.9743 38.6829 19.8874 38.5908 19.8259C38.4987 19.7644 38.3907 19.7311 38.28 19.73H38C37.8906 19.73 37.7843 19.6948 37.6976 19.6298C37.6109 19.5648 37.5485 19.4735 37.52 19.37C37.14 17.91 37.3333 16.5734 38.1 15.36C38.3 15.0534 38.58 14.9134 38.94 14.94C39.5533 14.9867 40.0634 15.1834 40.47 15.53C40.5537 15.6029 40.653 15.6557 40.7602 15.6844C40.8674 15.7132 40.9798 15.7171 41.0887 15.6959C41.1977 15.6747 41.3004 15.6289 41.389 15.562C41.4776 15.4952 41.5497 15.409 41.6 15.31C42.09 14.33 42.01 13.55 42.94 12.56C45.2667 10.06 48.4933 7.86003 52.62 5.96003C52.7737 5.88799 52.9446 5.86014 53.1141 5.87955C53.2835 5.89897 53.4447 5.96488 53.58 6.07003C54.28 6.61003 55.04 6.85336 55.86 6.80003C56.2133 6.78003 56.5133 6.64336 56.76 6.39003C58.1333 5.01669 59.9033 4.47336 62.07 4.76003C62.2068 4.77895 62.345 4.84038 62.4735 4.93937C62.602 5.03837 62.7173 5.17217 62.81 5.33003L63.99 7.32003C64.21 7.69336 64.54 7.88003 64.98 7.88003H67.42C67.7867 7.88003 67.97 7.70003 67.97 7.34003V5.94003C67.97 4.86669 68.3333 4.72336 69.06 5.51003C69.5333 6.03003 69.8633 6.67003 70.05 7.43003C70.1433 7.81003 70.38 7.96003 70.76 7.88003C71.14 7.80003 71.48 7.58669 71.78 7.24003C72 6.98669 72.2634 6.79669 72.57 6.67003C76.09 5.19669 79.4867 4.31003 82.76 4.01003C85.33 3.77003 87.4 4.72003 89.22 6.54003C92.0267 9.34669 93.5267 13.1767 93.72 18.03C93.9067 22.65 94.0233 26.1534 94.07 28.54C94.1 30.28 94.73 31.19 95.61 32.74C95.79 33.06 95.81 33.41 95.67 33.79L95.55 34.1C95.4367 34.4267 95.4067 34.7634 95.46 35.11C96.0333 38.75 96.18 41.29 95.9 42.73C95.6667 43.95 95.6033 45.2034 95.71 46.49C95.8233 47.7434 95.83 48.5834 95.73 49.01C95.57 49.6767 95.26 50.4767 94.8 51.41C94.6467 51.7234 94.3933 51.9034 94.04 51.95C93.0667 52.0634 92.3633 52.02 91.93 51.82C91.6714 51.7021 91.3877 51.6493 91.104 51.6663C90.8202 51.6833 90.5449 51.7696 90.3022 51.9176C90.0594 52.0656 89.8567 52.2708 89.7116 52.5153C89.5666 52.7598 89.4836 53.0361 89.47 53.32C89.36 55.42 89.47 56.71 88.66 58.14C86.76 61.5134 85.0767 65.01 83.61 68.63C82.3233 71.8034 80.86 74.7434 79.22 77.45C78.3334 78.9167 76.71 81.7934 74.35 86.08C73.67 87.32 72.4 88.1967 70.54 88.71C67.74 89.4767 65.7067 90.1467 64.44 90.72C63.84 90.99 63.47 90.94 62.87 90.77C62.5367 90.6767 62.3067 90.79 62.18 91.11ZM81.43 33.32C79.9367 38.0534 77.5834 42.7234 74.37 47.33C74.6833 47.6634 74.37 48.3834 73.43 49.49C71.93 49.7767 70.8567 50.5167 70.21 51.71L68.48 52.47L67.72 52.57L65.63 52.97C65.3233 53.03 65.03 52.9767 64.75 52.81C62.3567 51.41 59.7867 51.09 57.04 51.85L56.18 52.32L53.27 52.28C52.9367 51.02 51.84 50.0567 49.98 49.39C49.6733 49.2767 49.44 49.0734 49.28 48.78C48.3733 47.0534 47.6833 45.9734 47.21 45.54C46.4367 44.8334 45.6333 43.9267 44.8 42.82C44.3733 42.2534 44.0434 41.2034 43.81 39.67C43.5834 38.17 42.9467 36.6134 41.9 35L40.46 31.82C40.3702 31.6207 40.2277 31.4496 40.0478 31.3254C39.8679 31.2011 39.6575 31.1283 39.4393 31.115C39.221 31.1016 39.0033 31.1481 38.8096 31.2494C38.6158 31.3508 38.4535 31.5031 38.34 31.69L35.49 36.38L27.36 46.75C25.5867 47.89 24.1 49.2567 22.9 50.85C22.09 51.93 21.17 52.43 20.15 53.23C19.39 53.8234 18.6133 54.2967 17.82 54.65C14.6733 56.07 12.6433 57.0234 11.73 57.51C8.90335 59.01 7.82001 61.4634 8.48002 64.87C8.72668 66.1834 9.48002 67.3134 10.74 68.26C13.34 70.2 15.1133 71.47 16.06 72.07L36.6 86.44C38.2467 87.5934 39.6333 87.3367 40.76 85.67L43.53 81.55C44.5567 80.0234 44.1833 79.02 42.41 78.54C40.55 78.0467 38.5133 77.14 36.3 75.82L30.15 68.71C29.9233 68.45 29.9167 68.1834 30.13 67.91C30.3633 67.5967 30.7533 67.4567 31.3 67.49C32.0067 67.5367 32.7733 67.6 33.6 67.68C35.4733 67.64 37.37 67.6234 39.29 67.63C41.37 67.63 42.9633 67.9067 44.07 68.46C45.5567 69.2067 46.8167 70.3234 47.85 71.81C50.4033 73.91 53.4434 75.09 56.97 75.35C57.7034 75.4034 59.4833 76.1667 62.31 77.64C64.4367 78.7467 66.0767 79.27 67.23 79.21C68.9767 79.1234 70.5067 78.3834 71.82 76.99C72.06 76.7367 72.2133 76.4434 72.28 76.11C72.5067 74.9434 73.1967 74.27 74.35 74.09C74.69 74.0367 74.9733 73.8834 75.2 73.63C78.1733 70.2834 80.4233 67.2867 81.95 64.64C82.1233 64.3467 82.37 64.1434 82.69 64.03C83.5834 63.7234 84.28 62.9767 84.78 61.79C85.0867 61.0434 85.5633 59.96 86.21 58.54C86.83 57.1867 87.1233 56.0667 87.09 55.18C87.0567 54.16 87.06 53.04 87.1 51.82C87.1133 51.4867 87.1833 51.17 87.31 50.87L88.48 48.17C88.82 44.8967 89.41 42.0067 90.25 39.5C90.45 38.8867 90.9567 38.47 91.77 38.25C92.09 38.1567 92.3467 37.97 92.54 37.69C93.6067 36.11 93.9633 34.9234 93.61 34.13C93.0633 32.8834 92.7067 31.83 92.54 30.97C91.9134 27.6567 91.47 23.8067 91.21 19.42C91.48 15.17 89.5 7.25003 84.18 6.64003C79.8734 6.14669 75.8233 7.21003 72.03 9.83003C71.8207 9.97436 71.6709 10.1897 71.6084 10.4362C71.5458 10.6826 71.5749 10.9434 71.69 11.17C72.9967 13.6834 75.1867 17.13 78.26 21.51C78.8667 22.37 79.5434 23.85 80.29 25.95C80.59 26.79 80.75 28.0067 80.77 29.6C80.7833 30.9 81.0033 32.14 81.43 33.32ZM43.79 33.28C45.01 35.24 46.39 37.21 47.02 39.42C47.4333 40.88 47.8833 41.84 48.37 42.3C50.5833 44.3867 52.7234 46.55 54.79 48.79C55.3167 49.3634 55.82 49.68 56.3 49.74C56.62 49.78 57.2433 49.65 58.17 49.35C59.0367 49.0634 60.0733 49.03 61.28 49.25C63.0733 49.5834 64.0867 49.7567 64.32 49.77C67.7733 49.9634 70.4167 48.3934 72.25 45.06C73.79 42.2534 75.29 39.35 76.75 36.35C77.9767 34.5767 77.6033 33.1 75.63 31.92C74.3033 31.1267 72.9067 30.8667 71.44 31.14C69.82 31.4467 69.28 32.75 69.82 35.05L69.61 38.73C69.6065 38.8123 69.5815 38.892 69.5375 38.9616C69.4935 39.0312 69.4319 39.0883 69.3586 39.1275C69.2853 39.1666 69.2028 39.1865 69.119 39.1852C69.0352 39.1839 68.9529 39.1615 68.88 39.12C67.42 38.26 66.1767 37.1267 65.15 35.72C64.9434 35.4467 64.6733 35.3334 64.34 35.38C63.8333 35.4467 62.7133 35.5867 60.98 35.8C60.4333 35.8667 60.2467 35.4934 60.42 34.68L62.54 32.43C63.36 31.57 63.1767 31.1167 61.99 31.07C60.0567 31.0034 58.0667 31.4767 56.02 32.49L55.14 32.54C54.68 32.5734 54.5867 32.4034 54.86 32.03L55.53 31.14C57.45 30.3334 58.9767 29.02 60.11 27.2C60.31 26.8734 60.35 26.53 60.23 26.17L58.85 22.02C58.7977 21.8631 58.7074 21.7215 58.5869 21.6081C58.4665 21.4946 58.3198 21.4128 58.16 21.37C56.3533 20.89 55.0333 19.71 54.2 17.83C54.0467 17.49 54.12 17.21 54.42 16.99C54.7067 16.7834 55.0634 16.6867 55.49 16.7C55.6806 16.7035 55.8671 16.7649 56.0269 16.8768C56.1867 16.9886 56.3129 17.1461 56.39 17.33C56.4633 17.5034 56.6667 17.7067 57 17.94C57.16 18.0534 57.5 18.1167 58.02 18.13C60.72 18.19 62.11 17.75 63.65 20.44C65.03 22.8467 66.3567 25.4867 67.63 28.36C67.85 28.8467 68.2267 29.0934 68.76 29.1C71.4333 29.12 73.7733 29.37 75.78 29.85C75.9891 29.8994 76.2076 29.8918 76.4128 29.8279C76.6179 29.764 76.8021 29.6462 76.9461 29.4868C77.0902 29.3274 77.1888 29.1323 77.2317 28.9218C77.2746 28.7113 77.2602 28.4931 77.19 28.29C75.07 22.1034 71.89 16.27 67.65 10.79C67.45 10.53 67.1867 10.3967 66.86 10.39C64.41 10.3 62.61 11.42 60.9 9.02003C60.7808 8.85188 60.6044 8.73281 60.4039 8.68498C60.2034 8.63715 59.9923 8.66382 59.81 8.76003C58.52 9.45003 57.04 9.63003 55.39 9.50003C52.9567 9.31336 50.7133 9.76003 48.66 10.84C47.38 11.5134 46.2433 12.74 45.25 14.52C44.4567 15.9534 43.3733 17.27 42 18.47C41.8791 18.5782 41.79 18.7173 41.7424 18.8724C41.6948 19.0275 41.6905 19.1927 41.73 19.35C42.1967 21.2034 42.26 23.09 41.92 25.01C41.8667 25.27 41.7567 25.5034 41.59 25.71C41.41 25.9234 41.3433 26.19 41.39 26.51C41.4116 26.6572 41.4871 26.7917 41.6028 26.889C41.7184 26.9863 41.8665 27.0399 42.02 27.04H47.88C48.0134 27.04 48.0967 27.1067 48.13 27.24C48.1433 27.2934 48.1667 27.3834 48.2 27.51C48.24 27.7034 48.17 27.8467 47.99 27.94C47.4167 28.22 46.38 28.7 44.88 29.38C43.0733 30.2 42.71 31.5 43.79 33.28ZM91.47 43.77C91.3767 43.93 91.35 44.1034 91.39 44.29C91.71 45.7634 91.6233 47.37 91.13 49.11C91.03 49.4767 91.1667 49.66 91.54 49.66H93.23C93.6767 49.66 93.8233 49.4534 93.67 49.04C93.34 48.12 93.32 47.57 93.52 46.48C93.8733 44.4467 93.9167 42.3267 93.65 40.12C93.6367 40.0067 93.6034 39.9967 93.55 40.09C92.8567 41.3167 92.1634 42.5434 91.47 43.77ZM36.99 70.03C36.8881 70.016 36.7845 70.0366 36.6957 70.0884C36.6069 70.1402 36.538 70.2202 36.5 70.3158C36.462 70.4113 36.4571 70.5169 36.4861 70.6155C36.5151 70.7142 36.5764 70.8002 36.66 70.86L39.74 73.09C39.8161 73.1462 39.9077 73.1776 40.0023 73.1799C40.0968 73.1822 40.1898 73.1553 40.2685 73.1028C40.3472 73.0503 40.4079 72.9748 40.4421 72.8867C40.4764 72.7985 40.4826 72.7019 40.46 72.61L39.99 70.69C39.9678 70.5975 39.9173 70.5141 39.8457 70.4514C39.774 70.3887 39.6847 70.3498 39.59 70.34L36.99 70.03ZM53.22 84.49C50.8867 83.81 48.9533 82.7167 47.42 81.21C47.2733 81.0634 47.1433 81.0767 47.03 81.25L42.1 88.58C42.0133 88.7 42.04 88.79 42.18 88.85C47.7667 91.1834 52.8533 92.6967 57.44 93.39C59.08 93.6434 59.9367 92.96 60.01 91.34C60.0233 91.0467 59.9267 90.8 59.72 90.6L54.19 85.06C53.9167 84.7867 53.5933 84.5967 53.22 84.49ZM45.89 115.16C47.0367 116.953 48.5567 118.577 50.45 120.03C50.7658 120.271 51.1642 120.377 51.5579 120.324C51.9516 120.272 52.3084 120.065 52.55 119.75C53.0567 119.09 53.1567 118.22 52.85 117.14C52.4367 115.68 51.97 114.313 51.45 113.04C50.8233 111.513 49.9167 110.273 48.73 109.32C48.4833 109.12 48.21 109.07 47.91 109.17L44.46 110.31C44.0733 110.443 43.9233 110.71 44.01 111.11C44.31 112.583 44.9367 113.933 45.89 115.16Z" fill="#161616"/>
<path d="M91.2101 19.42C89.3501 22.3466 87.6301 25.2933 86.0501 28.26C85.3634 29.5466 83.8234 31.2333 81.4301 33.32C81.0034 32.14 80.7834 30.9 80.7701 29.6C80.7501 28.0066 80.5901 26.79 80.2901 25.95C79.5434 23.85 78.8667 22.37 78.2601 21.51C75.1867 17.13 72.9967 13.6833 71.6901 11.17C71.5749 10.9433 71.5459 10.6825 71.6084 10.4361C71.671 10.1897 71.8208 9.9743 72.0301 9.82996C75.8234 7.20996 79.8734 6.14663 84.1801 6.63996C89.5001 7.24996 91.4801 15.17 91.2101 19.42Z" fill="#838282"/>
<path d="M55.5299 31.14C52.3599 32.26 49.6399 33.83 46.2699 34.12C45.9432 34.1467 45.6532 34.0533 45.3999 33.84C44.9466 33.4667 44.4099 33.28 43.7899 33.28C42.7099 31.5 43.0732 30.2 44.8799 29.38C46.3799 28.7 47.4166 28.22 47.9899 27.94C48.1699 27.8467 48.2399 27.7033 48.1999 27.51C48.1666 27.3833 48.1432 27.2933 48.1299 27.24C48.0966 27.1067 48.0132 27.04 47.8799 27.04H42.0199C41.8664 27.0399 41.7183 26.9863 41.6027 26.889C41.487 26.7917 41.4115 26.6572 41.3899 26.51C41.3432 26.19 41.4099 25.9233 41.5899 25.71C41.7566 25.5033 41.8666 25.27 41.9199 25.01C42.2599 23.09 42.1966 21.2033 41.7299 19.35C41.6904 19.1926 41.6947 19.0275 41.7423 18.8724C41.7899 18.7173 41.879 18.5781 41.9999 18.47C43.3732 17.27 44.4566 15.9533 45.2499 14.52C46.2432 12.74 47.3799 11.5133 48.6599 10.84C50.7132 9.75999 52.9566 9.31332 55.3899 9.49999C57.0399 9.62999 58.5199 9.44999 59.8099 8.75999C59.9922 8.66378 60.2033 8.63711 60.4038 8.68494C60.6043 8.73277 60.7806 8.85184 60.8999 9.01999C62.6099 11.42 64.4099 10.3 66.8599 10.39C67.1866 10.3967 67.4499 10.53 67.6499 10.79C71.8899 16.27 75.0699 22.1033 77.1899 28.29C77.2601 28.493 77.2745 28.7112 77.2316 28.9217C77.1887 29.1322 77.0901 29.3274 76.946 29.4868C76.802 29.6462 76.6178 29.764 76.4126 29.8278C76.2075 29.8917 75.989 29.8994 75.7799 29.85C73.7732 29.37 71.4332 29.12 68.7599 29.1C68.2266 29.0933 67.8499 28.8467 67.6299 28.36C66.3566 25.4867 65.0299 22.8467 63.6499 20.44C62.1099 17.75 60.7199 18.19 58.0199 18.13C57.4999 18.1167 57.1599 18.0533 56.9999 17.94C56.6666 17.7067 56.4632 17.5033 56.3899 17.33C56.3128 17.1461 56.1866 16.9886 56.0268 16.8767C55.867 16.7649 55.6804 16.7034 55.4899 16.7C55.0632 16.6867 54.7066 16.7833 54.4199 16.99C54.1199 17.21 54.0466 17.49 54.1999 17.83C55.0332 19.71 56.3532 20.89 58.1599 21.37C58.3197 21.4128 58.4664 21.4946 58.5868 21.608C58.7072 21.7215 58.7976 21.863 58.8499 22.02L60.2299 26.17C60.3499 26.53 60.3099 26.8733 60.1099 27.2C58.9766 29.02 57.4499 30.3333 55.5299 31.14Z" fill="#8D8D8B"/>
<path d="M91.2101 19.42C91.4701 23.8067 91.9134 27.6567 92.5401 30.97C92.7068 31.83 93.0634 32.8834 93.6101 34.13C93.9634 34.9234 93.6068 36.11 92.5401 37.69C92.3468 37.97 92.0901 38.1567 91.7701 38.25C90.9568 38.47 90.4501 38.8867 90.2501 39.5C89.4101 42.0067 88.8201 44.8967 88.4801 48.17C87.8201 48.7634 87.1535 49.7767 86.4801 51.21C85.9735 52.2834 84.8701 53.6567 83.1701 55.33C81.3701 57.1 80.1501 59.19 78.5101 60.99C78.4059 61.1009 78.2674 61.1737 78.1169 61.1965C77.9664 61.2194 77.8126 61.1912 77.6801 61.1162C77.5476 61.0413 77.444 60.9242 77.386 60.7834C77.328 60.6427 77.3189 60.4866 77.3601 60.34L78.3101 57.18C78.3566 57.0264 78.3526 56.8618 78.2986 56.7106C78.2446 56.5594 78.1435 56.4295 78.0101 56.34C77.3301 55.88 76.8168 55.3267 76.4701 54.68C76.5301 54.68 76.6301 54.6634 76.7701 54.63C76.9034 54.5967 76.9468 54.5134 76.9001 54.38C76.2134 52.38 75.9468 50.3034 76.1001 48.15C76.1114 47.9797 76.0562 47.8116 75.9462 47.6811C75.8362 47.5506 75.6799 47.4678 75.5101 47.45L74.3701 47.33C77.5835 42.7234 79.9368 38.0534 81.4301 33.32C83.8234 31.2334 85.3635 29.5467 86.0501 28.26C87.6301 25.2934 89.3501 22.3467 91.2101 19.42Z" fill="#525252"/>
<path d="M60.4201 34.68C57.5735 36.4333 54.8501 37.6734 52.2501 38.4C51.4301 38.6267 50.7568 38.4733 50.2301 37.94C49.9568 37.6533 49.9868 37.4 50.3201 37.18C50.5801 37.0067 51.1535 36.4267 52.0401 35.44C53.2101 34.14 54.7501 33.75 56.0201 32.49C58.0668 31.4767 60.0568 31.0033 61.9901 31.07C63.1768 31.1167 63.3601 31.57 62.5401 32.43L60.4201 34.68Z" fill="#B6B4B6"/>
<path d="M41.9002 35C39.9936 37.34 39.5636 40.04 40.6102 43.1C41.4569 45.5667 41.9869 47.2133 42.2002 48.04C42.9669 51.1067 44.2936 53.9367 46.1802 56.53C46.4736 56.9367 46.9136 57.39 47.5002 57.89C48.6402 58.87 49.3636 59.5433 49.6702 59.91C51.7102 62.35 54.3102 64.7 55.9002 67.47C57.2002 69.75 57.6802 70.81 60.2802 72.56C61.1936 73.1733 62.2436 73.33 63.4302 73.03C65.2836 72.5567 66.6336 72.1533 67.4802 71.82C68.3069 71.4867 69.3902 70.78 70.7302 69.7C71.7569 68.88 72.8436 68.1433 73.9902 67.49C75.5436 66.61 75.6602 65.8233 74.3402 65.13C74.1533 65.033 73.9375 65.0047 73.7302 65.05L67.9702 66.25C67.5502 66.3367 67.2969 66.17 67.2102 65.75L67.0002 64.75C66.9336 64.43 66.7502 64.2033 66.4502 64.07C60.3236 61.3767 55.9302 57.4467 53.2702 52.28L56.1802 52.32C56.6469 53.3333 57.3136 54.24 58.1802 55.04C59.1902 55.97 60.4102 56.1 61.5102 56.85C61.6871 56.9744 61.8253 57.1403 61.9102 57.33C62.3636 58.39 63.1636 59.04 64.3102 59.28C65.0569 60.3267 66.1769 61.3 67.6702 62.2C67.6436 62.7267 67.8502 63.0567 68.2902 63.19C68.6369 63.2967 68.8269 63.1667 68.8602 62.8C68.9736 61.58 68.8036 60.4033 68.3502 59.27C68.1569 58.7833 68.1102 58.42 68.2102 58.18C68.3436 57.8467 68.6302 57.5533 69.0702 57.3C69.3169 57.2667 69.5402 57.15 69.7402 56.95C69.8669 56.9433 69.9869 56.91 70.1002 56.85C70.1936 56.7967 70.2702 56.7033 70.3302 56.57C71.0036 54.97 70.9636 53.35 70.2102 51.71C70.8569 50.5167 71.9302 49.7767 73.4302 49.49C72.7902 52.01 73.8036 53.74 76.4702 54.68C76.8169 55.3267 77.3302 55.88 78.0102 56.34C78.1436 56.4295 78.2447 56.5593 78.2987 56.7105C78.3527 56.8618 78.3567 57.0263 78.3102 57.18L77.3602 60.34C77.319 60.4865 77.3281 60.6426 77.3861 60.7834C77.4441 60.9241 77.5477 61.0413 77.6802 61.1162C77.8127 61.1911 77.9665 61.2194 78.117 61.1965C78.2675 61.1736 78.406 61.1009 78.5102 60.99C80.1502 59.19 81.3702 57.1 83.1702 55.33C84.8702 53.6567 85.9736 52.2833 86.4802 51.21C87.1536 49.7767 87.8202 48.7633 88.4802 48.17L87.3102 50.87C87.1836 51.17 87.1136 51.4867 87.1002 51.82C87.0602 53.04 87.0569 54.16 87.0902 55.18C87.1236 56.0667 86.8302 57.1867 86.2102 58.54C85.5636 59.96 85.0869 61.0433 84.7802 61.79C84.2802 62.9767 83.5836 63.7233 82.6902 64.03C82.3702 64.1433 82.1236 64.3467 81.9502 64.64C80.4236 67.2867 78.1736 70.2833 75.2002 73.63C74.9736 73.8833 74.6902 74.0367 74.3502 74.09C73.1969 74.27 72.5069 74.9433 72.2802 76.11C72.2136 76.4433 72.0602 76.7367 71.8202 76.99C70.5069 78.3833 68.9769 79.1233 67.2302 79.21C66.0769 79.27 64.4369 78.7467 62.3102 77.64C59.4836 76.1667 57.7036 75.4033 56.9702 75.35C53.4436 75.09 50.4036 73.91 47.8502 71.81C50.7969 72.9567 53.7269 73.6 56.6402 73.74C56.9869 73.7533 57.0802 73.6067 56.9202 73.3C55.4669 70.4867 54.1969 68.51 53.1102 67.37C49.7369 63.8233 47.2169 61.07 45.5502 59.11C44.7702 58.19 44.0336 57.2 43.3402 56.14C42.6402 55.06 40.4202 52.03 40.0002 50.32C39.7469 49.3333 39.3502 48.4167 38.8102 47.57C38.1902 46.5967 37.7069 45.2067 37.3602 43.4C36.9202 41.12 36.2969 38.78 35.4902 36.38L38.3402 31.69C38.4537 31.5031 38.616 31.3507 38.8098 31.2494C39.0035 31.148 39.2213 31.1015 39.4395 31.1149C39.6577 31.1283 39.8681 31.2011 40.048 31.3253C40.2279 31.4496 40.3705 31.6206 40.4602 31.82L41.9002 35Z" fill="#353535"/>
<path d="M55.53 31.14L54.86 32.03C54.5867 32.4033 54.68 32.5733 55.14 32.54L56.02 32.49C54.75 33.75 53.21 34.14 52.04 35.44C51.1534 36.4267 50.58 37.0067 50.32 37.18C49.9867 37.4 49.9567 37.6533 50.23 37.94C50.7567 38.4733 51.43 38.6267 52.25 38.4C54.85 37.6734 57.5734 36.4333 60.42 34.68C60.2467 35.4933 60.4334 35.8667 60.98 35.8C62.7134 35.5867 63.8334 35.4467 64.34 35.38C64.6734 35.3333 64.9434 35.4467 65.15 35.72C66.1767 37.1267 67.42 38.26 68.88 39.12C68.9529 39.1614 69.0352 39.1839 69.119 39.1852C69.2029 39.1865 69.2853 39.1666 69.3586 39.1275C69.4319 39.0883 69.4935 39.0312 69.5375 38.9616C69.5816 38.892 69.6065 38.8123 69.61 38.73L69.82 35.05C69.9267 36.8167 70.3467 38.3867 71.08 39.76C71.217 40.015 71.4158 40.2316 71.6582 40.3899C71.9005 40.5481 72.1787 40.6431 72.4673 40.666C72.7559 40.6888 73.0456 40.639 73.3099 40.5209C73.5741 40.4028 73.8046 40.2202 73.98 39.99L76.75 36.35C75.29 39.35 73.79 42.2534 72.25 45.06C70.4167 48.3934 67.7734 49.9633 64.32 49.77C64.0867 49.7567 63.0734 49.5833 61.28 49.25C60.0734 49.03 59.0367 49.0633 58.17 49.35C57.2434 49.65 56.62 49.78 56.3 49.74C55.82 49.68 55.3167 49.3633 54.79 48.79C52.7234 46.55 50.5834 44.3867 48.37 42.3C47.8834 41.84 47.4334 40.88 47.02 39.42C46.39 37.21 45.01 35.24 43.79 33.28C44.41 33.28 44.9467 33.4667 45.4 33.84C45.6534 34.0533 45.9434 34.1467 46.27 34.12C49.64 33.83 52.36 32.26 55.53 31.14Z" fill="#686868"/>
<path d="M76.7502 36.35L73.9802 39.99C73.8047 40.2202 73.5743 40.4027 73.31 40.5208C73.0457 40.6389 72.756 40.6888 72.4674 40.6659C72.1789 40.643 71.9007 40.5481 71.6583 40.3898C71.4159 40.2316 71.2172 40.015 71.0802 39.76C70.3468 38.3866 69.9268 36.8166 69.8202 35.05C69.2802 32.75 69.8202 31.4466 71.4402 31.14C72.9068 30.8666 74.3035 31.1266 75.6302 31.92C77.6035 33.1 77.9768 34.5766 76.7502 36.35Z" fill="#B6B4B6"/>
<path d="M41.9001 35C42.9468 36.6133 43.5835 38.17 43.8101 39.67C44.0435 41.2033 44.3735 42.2533 44.8001 42.82C45.6335 43.9267 46.4368 44.8333 47.2101 45.54C47.6835 45.9733 48.3735 47.0533 49.2801 48.78C49.4401 49.0733 49.6735 49.2767 49.9801 49.39C51.8401 50.0567 52.9368 51.02 53.2701 52.28C55.9301 57.4467 60.3235 61.3767 66.4501 64.07C66.7501 64.2033 66.9335 64.43 67.0001 64.75L67.2101 65.75C67.2968 66.17 67.5501 66.3367 67.9701 66.25L73.7301 65.05C73.9373 65.0047 74.1532 65.033 74.3401 65.13C75.6601 65.8233 75.5435 66.61 73.9901 67.49C72.8435 68.1433 71.7568 68.88 70.7301 69.7C69.3901 70.78 68.3068 71.4867 67.4801 71.82C66.6335 72.1533 65.2835 72.5567 63.4301 73.03C62.2435 73.33 61.1935 73.1733 60.2801 72.56C57.6801 70.81 57.2001 69.75 55.9001 67.47C54.3101 64.7 51.7101 62.35 49.6701 59.91C49.3635 59.5433 48.6401 58.87 47.5001 57.89C46.9135 57.39 46.4735 56.9367 46.1801 56.53C44.2935 53.9367 42.9668 51.1067 42.2001 48.04C41.9868 47.2133 41.4568 45.5667 40.6101 43.1C39.5635 40.04 39.9935 37.34 41.9001 35Z" fill="#525252"/>
<path d="M35.4901 36.38C36.2968 38.78 36.9201 41.12 37.3601 43.4C37.7068 45.2067 38.1901 46.5967 38.8101 47.57C39.3501 48.4167 39.7468 49.3333 40.0001 50.32C40.4201 52.03 42.6401 55.06 43.3401 56.14C44.0335 57.2 44.7701 58.19 45.5501 59.11C47.2168 61.07 49.7368 63.8233 53.1101 67.37C54.1968 68.51 55.4668 70.4867 56.9201 73.3C57.0801 73.6067 56.9868 73.7533 56.6401 73.74C53.7268 73.6 50.7968 72.9567 47.8501 71.81C46.8168 70.3233 45.5568 69.2067 44.0701 68.46C42.9635 67.9067 41.3701 67.63 39.2901 67.63C37.3701 67.6233 35.4735 67.64 33.6001 67.68C29.3801 66.0133 25.9068 63.42 23.1801 59.9C22.9735 59.6333 22.8901 59.3333 22.9301 59C23.3835 54.64 24.8601 50.5567 27.3601 46.75L35.4901 36.38Z" fill="#838282"/>
<path d="M91.4698 43.77C92.1632 42.5433 92.8565 41.3166 93.5498 40.09C93.6032 39.9966 93.6365 40.0066 93.6498 40.12C93.9165 42.3266 93.8732 44.4466 93.5198 46.48C93.3198 47.57 93.3398 48.12 93.6698 49.04C93.8232 49.4533 93.6765 49.66 93.2298 49.66H91.5398C91.1665 49.66 91.0298 49.4766 91.1298 49.11C91.6232 47.37 91.7098 45.7633 91.3898 44.29C91.3498 44.1033 91.3765 43.93 91.4698 43.77Z" fill="#E0E1E0"/>
<path d="M27.3599 46.75C24.8599 50.5567 23.3832 54.64 22.9299 59C22.8899 59.3333 22.9732 59.6333 23.1799 59.9C25.9065 63.42 29.3799 66.0133 33.5999 67.68C32.7732 67.6 32.0065 67.5367 31.2999 67.49C30.7532 67.4567 30.3632 67.5967 30.1299 67.91C29.9165 68.1833 29.9232 68.45 30.1499 68.71L36.2999 75.82C32.5932 74.6467 29.5799 72.8167 27.2599 70.33C27.0952 70.1535 26.8877 70.0228 26.658 69.9509C26.4283 69.879 26.1842 69.8684 25.9499 69.92L16.0599 72.07C15.1132 71.47 13.3399 70.2 10.7399 68.26C9.47988 67.3133 8.72655 66.1833 8.47988 64.87C7.81988 61.4633 8.90321 59.01 11.7299 57.51C12.6432 57.0233 14.6732 56.07 17.8199 54.65C18.6132 54.2967 19.3899 53.8233 20.1499 53.23C21.1699 52.43 22.0899 51.93 22.8999 50.85C24.0999 49.2567 25.5865 47.89 27.3599 46.75Z" fill="#474747"/>
<path d="M74.3699 47.33L75.5099 47.45C75.6797 47.4677 75.836 47.5505 75.946 47.681C76.056 47.8116 76.1112 47.9796 76.0999 48.15C75.9466 50.3033 76.2133 52.38 76.8999 54.38C76.9466 54.5133 76.9033 54.5966 76.7699 54.63C76.6299 54.6633 76.5299 54.68 76.4699 54.68C73.8033 53.74 72.7899 52.01 73.4299 49.49C74.3699 48.3833 74.6833 47.6633 74.3699 47.33Z" fill="white"/>
<path d="M67.72 52.57C65.6334 55.11 63.16 55.59 60.3 54.01C59.25 53.44 58.45 52.22 57.04 51.85C59.7867 51.09 62.3567 51.41 64.75 52.81C65.03 52.9766 65.3234 53.03 65.63 52.97L67.72 52.57Z" fill="#686868"/>
<path d="M70.2099 51.71C70.9632 53.35 71.0032 54.97 70.3299 56.57C70.2699 56.7033 70.1932 56.7966 70.0999 56.85C69.9866 56.91 69.8666 56.9433 69.7399 56.95C68.4266 57.0166 67.5366 56.69 67.0699 55.97C66.9273 55.7497 66.8354 55.5004 66.801 55.2403C66.7665 54.9801 66.7904 54.7155 66.8708 54.4657C66.9512 54.2159 67.0861 53.9871 67.2658 53.7958C67.4455 53.6046 67.6655 53.4557 67.9099 53.36C68.2366 53.2333 68.4266 52.9366 68.4799 52.47L70.2099 51.71Z" fill="white"/>
<path d="M57.0402 51.85C58.4502 52.22 59.2502 53.44 60.3002 54.01C63.1602 55.59 65.6335 55.11 67.7202 52.57L68.4802 52.47C68.4268 52.9366 68.2368 53.2333 67.9102 53.36C67.6658 53.4557 67.4458 53.6046 67.2661 53.7958C67.0864 53.9871 66.9514 54.2159 66.871 54.4657C66.7906 54.7155 66.7668 54.9801 66.8012 55.2403C66.8357 55.5004 66.9275 55.7497 67.0702 55.97C67.5368 56.69 68.4268 57.0166 69.7402 56.95C69.5402 57.15 69.3168 57.2666 69.0702 57.3L67.7502 57.35C67.4035 57.3633 67.2068 57.54 67.1602 57.88L67.1102 58.28C66.6368 57.1266 65.6868 56.3166 64.2602 55.85C64.0856 55.7952 63.8983 55.7932 63.7224 55.8444C63.5465 55.8956 63.39 55.9976 63.2729 56.1373C63.1557 56.2769 63.0834 56.448 63.0651 56.6284C63.0468 56.8088 63.0834 56.9905 63.1702 57.15L64.3102 59.28C63.1635 59.04 62.3635 58.39 61.9102 57.33C61.8252 57.1402 61.687 56.9744 61.5102 56.85C60.4102 56.1 59.1902 55.97 58.1802 55.04C57.3135 54.24 56.6468 53.3333 56.1802 52.32L57.0402 51.85Z" fill="#B6B4B6"/>
<path d="M67.1102 58.2799C67.8902 59.8799 68.0769 61.1866 67.6702 62.1999C66.1769 61.2999 65.0569 60.3266 64.3102 59.2799L63.1702 57.1499C63.0834 56.9904 63.0468 56.8088 63.0651 56.6284C63.0834 56.4479 63.1558 56.2769 63.2729 56.1372C63.39 55.9975 63.5466 55.8956 63.7225 55.8444C63.8984 55.7932 64.0856 55.7951 64.2602 55.8499C65.6869 56.3166 66.6369 57.1266 67.1102 58.2799Z" fill="#E0E1E0"/>
<path d="M69.0699 57.3C68.6299 57.5534 68.3432 57.8467 68.2099 58.18C68.1099 58.42 68.1565 58.7834 68.3499 59.27C68.8032 60.4034 68.9732 61.58 68.8599 62.8C68.8265 63.1667 68.6365 63.2967 68.2899 63.19C67.8499 63.0567 67.6432 62.7267 67.6699 62.2C68.0765 61.1867 67.8899 59.88 67.1099 58.28L67.1599 57.88C67.2065 57.54 67.4032 57.3634 67.7499 57.35L69.0699 57.3Z" fill="#838282"/>
<path d="M36.3001 75.82C38.5134 77.14 40.5501 78.0467 42.4101 78.54C44.1834 79.02 44.5567 80.0233 43.5301 81.55L40.7601 85.67C39.6334 87.3367 38.2467 87.5933 36.6001 86.44L16.0601 72.07L25.9501 69.92C26.1844 69.8684 26.4285 69.879 26.6582 69.9509C26.8879 70.0228 27.0953 70.1535 27.2601 70.33C29.5801 72.8167 32.5934 74.6467 36.3001 75.82Z" fill="#686868"/>
<path d="M36.9899 70.03L39.5899 70.34C39.6846 70.3498 39.7739 70.3887 39.8455 70.4514C39.9172 70.5141 39.9676 70.5975 39.9899 70.69L40.4599 72.61C40.4825 72.7019 40.4762 72.7985 40.442 72.8867C40.4077 72.9749 40.3471 73.0503 40.2684 73.1028C40.1897 73.1553 40.0967 73.1822 40.0021 73.1799C39.9075 73.1776 39.8159 73.1462 39.7399 73.09L36.6599 70.86C36.5762 70.8003 36.515 70.7142 36.486 70.6155C36.457 70.5169 36.4618 70.4114 36.4998 70.3158C36.5378 70.2203 36.6067 70.1402 36.6956 70.0884C36.7844 70.0366 36.888 70.016 36.9899 70.03Z" fill="#E0E1E0"/>
<path d="M54.19 85.06L59.72 90.6C59.9267 90.8 60.0233 91.0466 60.01 91.34C59.9367 92.96 59.08 93.6433 57.44 93.39C52.8533 92.6966 47.7667 91.1833 42.18 88.85C42.04 88.79 42.0133 88.7 42.1 88.58L47.03 81.25C47.1433 81.0766 47.2733 81.0633 47.42 81.21C48.9533 82.7166 50.8867 83.81 53.22 84.49C53.5933 84.5966 53.9167 84.7866 54.19 85.06Z" fill="#E0E1E0"/>
<path d="M51.4501 113.04C48.5635 111.807 46.7101 112.513 45.8901 115.16C44.9368 113.933 44.3101 112.583 44.0101 111.11C43.9235 110.71 44.0735 110.443 44.4601 110.31L47.9101 109.17C48.2101 109.07 48.4835 109.12 48.7301 109.32C49.9168 110.273 50.8235 111.513 51.4501 113.04Z" fill="#8D8D8B"/>
<path d="M51.4501 113.04C51.9701 114.313 52.4368 115.68 52.8501 117.14C53.1568 118.22 53.0568 119.09 52.5501 119.75C52.3085 120.065 51.9517 120.272 51.558 120.324C51.1644 120.377 50.7659 120.271 50.4501 120.03C48.5568 118.577 47.0368 116.953 45.8901 115.16C46.7101 112.513 48.5635 111.807 51.4501 113.04Z" fill="#E0E1E0"/>
</g>
<defs>
<clipPath id="clip0_17_1651">
<rect width="101" height="128" fill="white"/>
</clipPath>
</defs>
</svg>
