<svg width="105" height="132" viewBox="0 0 105 132" fill="none" xmlns="http://www.w3.org/2000/svg">
<g clip-path="url(#clip0_17_1375)">
<path d="M11.33 70.05C9.51002 72.2767 8.97002 75.12 9.71002 78.58" stroke="#DBDBDC" stroke-width="2"/>
<path d="M9.70986 78.58C9.80986 80.42 9.7932 82.3167 9.65986 84.27C9.5332 86.05 10.0165 87.5567 11.1099 88.79C14.6365 92.7767 19.5265 97.56 25.7799 103.14C27.4132 104.593 28.8299 105.48 30.0299 105.8C30.3699 105.887 30.6332 106.083 30.8199 106.39C31.8199 108.09 33.5499 108.76 34.5799 109.44C35.3065 109.927 36.0099 110.57 36.6899 111.37C38.1965 113.143 39.5099 114.527 40.6299 115.52C40.8899 115.753 41.1965 115.877 41.5499 115.89C43.8099 115.997 46.5432 116.37 49.7499 117.01C52.7699 117.61 55.5199 117.35 58.9499 117.13C59.3165 117.11 59.5332 117.28 59.5999 117.64C59.8099 118.75 59.8299 120.21 60.2499 121.04C61.2232 122.98 62.6765 124.333 64.6099 125.1C65.9765 125.633 67.5599 125.363 69.3599 124.29C72.9199 122.163 75.2565 120.02 76.3699 117.86C78.7632 113.233 80.2932 110.307 80.9599 109.08C81.1199 108.793 81.1765 108.49 81.1299 108.17C80.8765 106.297 81.4765 104.997 82.9299 104.27C84.0999 103.68 84.5699 103.03 84.8799 101.88C86.2399 96.92 88.0832 91.9567 90.4099 86.99C91.7499 84.14 94.5799 82.26 96.0699 79.52C97.5832 76.7334 98.5065 74.02 98.8399 71.38C99.0465 69.7267 98.8665 66.9234 98.2999 62.97C97.7465 59.11 97.4432 55.4434 97.3899 51.97C97.3699 50.33 97.1265 48.1934 96.6599 45.56C96.2732 43.3867 96.1232 41.17 96.2099 38.91" stroke="#808080" stroke-width="2"/>
<path d="M96.2099 38.91V36.62C96.2099 36.3067 96.1166 36.0234 95.9299 35.77L92.6799 31.35C92.5752 31.2058 92.4374 31.0922 92.2799 31.02C90.1533 30.0467 88.1233 29.84 86.1899 30.4" stroke="#CFCFCF" stroke-width="2"/>
<path d="M86.1901 30.4001C82.8634 28.0001 79.1134 25.9267 74.9401 24.1801C74.6334 24.0534 74.4501 23.8234 74.3901 23.4901C73.9634 20.9701 73.2567 18.5467 72.2701 16.2201C71.3834 14.1334 69.6467 12.1901 67.0601 10.3901C59.0067 4.77673 50.1234 4.25673 40.4101 8.83006C38.5034 9.72339 37.3534 11.0334 36.9601 12.7601C36.4934 14.8134 36.2267 15.9301 36.1601 16.1101C35.1867 18.5634 34.4501 20.8734 33.9501 23.0401C33.8767 23.3734 33.6701 23.5634 33.3301 23.6101C28.8234 24.2367 25.0134 26.5867 21.9001 30.6601C19.1401 34.2801 16.4801 37.8401 15.9601 40.8201C15.8201 41.6467 15.6001 42.2234 15.3001 42.5501C15.0334 42.8367 15.0267 43.1301 15.2801 43.4301C15.9934 44.3034 16.1901 45.4767 15.8701 46.9501C14.5234 53.0101 13.4967 58.5934 12.7901 63.7001C12.6834 64.4601 12.4001 65.5001 11.9401 66.8201C11.5601 67.9134 11.3567 68.9901 11.3301 70.0501" stroke="#808080" stroke-width="2"/>
<path d="M86.1899 30.4001C88.2766 31.5201 90.1666 32.5167 91.8599 33.3901C93.9266 34.4701 95.3766 36.3101 96.2099 38.9101" stroke="#50504F" stroke-width="2"/>
<path d="M9.70996 78.58L11.33 70.05" stroke="#5C5C5C" stroke-width="2"/>
<path d="M52.0098 8.27008C47.6432 9.08341 44.6232 9.81008 42.9498 10.4501C42.3632 10.6701 42.0165 11.1667 41.9098 11.9401C41.8432 12.4401 41.7232 12.7867 41.5498 12.9801C41.3032 13.2534 40.9832 13.4667 40.5898 13.6201" stroke="#343434" stroke-width="2"/>
<path d="M40.5899 13.6201C39.4832 15.0867 38.5599 16.7234 37.8199 18.5301C37.4999 19.3101 37.2766 20.4934 37.1499 22.0801C37.0499 23.3201 36.7999 24.5301 36.3999 25.7101" stroke="#3F3F3F" stroke-width="2"/>
<path d="M36.4 25.7101C36.0067 27.5434 36.2467 29.6967 37.12 32.1701C37.8 34.0901 37.73 37.0301 39.29 38.9301C40.2967 40.1634 41.3167 41.4001 42.35 42.6401C43.26 43.7301 43.59 45.1001 43.99 45.9701C44.0611 46.1199 44.17 46.2451 44.3022 46.3291C44.4344 46.413 44.5836 46.4517 44.73 46.4401C47.37 46.2334 49.1767 47.1368 50.15 49.1501C50.3056 49.4683 50.5548 49.7246 50.86 49.8801C53.5133 51.2668 56.4667 51.2901 59.72 49.9501" stroke="#242424" stroke-width="2"/>
<path d="M59.7202 49.95C64.8869 45.77 68.6069 40.6967 70.8802 34.73" stroke="#3F3F3F" stroke-width="2"/>
<path d="M70.8799 34.7301C71.8199 31.1168 72.1299 27.7368 71.8099 24.5901" stroke="#2F2F2F" stroke-width="2"/>
<path d="M71.8103 24.5901C71.6703 20.0568 70.0036 16.4301 66.8103 13.7101C65.5903 12.6701 63.3569 11.4068 60.1103 9.92009C57.0636 8.52009 54.3636 7.97009 52.0103 8.27009" stroke="#474747" stroke-width="2"/>
<path d="M71.8098 24.5901L70.6598 21.6701C70.5331 21.3501 70.2998 21.1767 69.9598 21.1501L65.5498 20.8701" stroke="#767676" stroke-width="2"/>
<path d="M65.5498 20.8701C64.2031 20.6234 62.8265 20.5901 61.4198 20.7701C60.4131 20.8967 59.6631 20.8134 59.1698 20.5201C58.6165 20.1867 57.9931 19.6834 57.2998 19.0101" stroke="#868686" stroke-width="2"/>
<path d="M57.2999 19.0101C56.6533 16.2167 56.1999 14.4667 55.9399 13.7601C55.4733 12.5001 54.5666 11.7101 53.2199 11.3901C53.0402 11.3475 52.852 11.3571 52.6776 11.4178C52.5032 11.4785 52.3497 11.5878 52.2352 11.7327C52.1207 11.8777 52.05 12.0523 52.0313 12.2361C52.0127 12.4198 52.0469 12.6051 52.1299 12.7701C52.5766 13.6701 52.8599 14.6467 52.9799 15.7001" stroke="#474747" stroke-width="2"/>
<path d="M52.9798 15.7L46.7898 15.09C45.4965 14.9634 44.4298 15.39 43.5898 16.37L41.9498 18.27C41.5098 18.7834 41.6265 19.06 42.2998 19.1L52.9398 19.71" stroke="#A3A3A3" stroke-width="2"/>
<path d="M52.9398 19.7101C52.8731 22.9234 53.1831 26.1034 53.8698 29.2501C54.0365 30.0034 53.6798 31.3134 52.7998 33.1801" stroke="#474747" stroke-width="2"/>
<path d="M52.7998 33.1801L48.8698 30.1901C48.5276 29.9319 48.2983 29.5512 48.2294 29.1268C48.1605 28.7024 48.2574 28.2667 48.4998 27.9101L49.7298 26.1001C50.1698 25.4601 49.9998 25.1401 49.2198 25.1401C47.1898 25.1401 42.1298 24.9301 41.1398 22.8001C39.7532 19.7734 40.2132 16.9301 42.5198 14.2701" stroke="#868686" stroke-width="2"/>
<path d="M42.52 14.2701L49.34 13.8601C49.5521 13.8471 49.7509 13.7533 49.8945 13.5985C50.0382 13.4437 50.1154 13.2399 50.11 13.0301C50.09 11.3501 50.7234 9.76341 52.01 8.27008" stroke="#7B7B7B" stroke-width="2"/>
<path d="M65.5503 20.87C65.0503 20.8034 64.6403 20.8267 64.3203 20.94C63.9736 21.06 63.8736 21.2867 64.0203 21.62C64.7403 23.34 66.6003 24.07 68.8303 25.21C69.5503 25.5834 69.9103 26.25 69.9103 27.21C69.9103 27.5567 69.7403 27.74 69.4003 27.76L59.7603 28.41" stroke="#6E6E6E" stroke-width="2"/>
<path d="M59.7598 28.41C59.6398 28.49 59.4865 28.5267 59.2998 28.52" stroke="#868686" stroke-width="2"/>
<path d="M42.5198 14.2701L40.5898 13.6201" stroke="#727272" stroke-width="2"/>
<path d="M57.2998 19.0101C57.8065 21.0301 57.9298 23.1101 57.6698 25.2501C57.5031 26.6101 58.0465 27.7001 59.2998 28.5201" stroke="#3F3F3F" stroke-width="2"/>
<path d="M59.2998 28.5201C59.4798 28.7734 59.6165 29.0367 59.7098 29.3101C59.7965 29.5834 59.7865 29.8767 59.6798 30.1901C59.0331 32.1767 58.5998 34.1067 58.3798 35.9801C58.0598 38.6867 58.8331 40.9467 60.6998 42.7601C60.7988 42.8548 60.873 42.9723 60.9162 43.1023C60.9593 43.2323 60.97 43.3709 60.9474 43.5059C60.9247 43.641 60.8693 43.7685 60.7861 43.8773C60.7028 43.9861 60.5943 44.0729 60.4698 44.1301C60.0965 44.3101 59.5931 44.3634 58.9598 44.2901" stroke="#474747" stroke-width="2"/>
<path d="M58.9598 44.2901C57.1998 43.2701 56.1298 41.7734 55.7498 39.8001C55.6898 39.4667 55.4998 39.2467 55.1798 39.1401L54.8198 39.0101C54.4531 38.8834 54.2198 38.6301 54.1198 38.2501L52.7998 33.1801" stroke="#3F3F3F" stroke-width="2"/>
<path d="M52.9399 19.7101L52.9799 15.7001" stroke="#5C5C5C" stroke-width="2"/>
<path d="M65.8103 29.76L59.7603 28.41" stroke="#767676" stroke-width="2"/>
<path d="M58.96 44.2901L61.09 47.6401C61.1603 47.7503 61.2615 47.837 61.3811 47.8896C61.5006 47.9421 61.6333 47.9582 61.7629 47.9359C61.8924 47.9136 62.0132 47.8539 62.1104 47.764C62.2076 47.6741 62.277 47.5581 62.31 47.4301C62.9033 44.9901 63.9533 42.6667 65.46 40.4601" stroke="#868686" stroke-width="2"/>
<path d="M65.46 40.4601L66.16 39.7701" stroke="#9A9A9B" stroke-width="2"/>
<path d="M66.1601 39.7701C67.2934 36.7301 67.1767 33.3934 65.8101 29.7601" stroke="#868686" stroke-width="2"/>
<path d="M65.8101 29.7601C67.9367 30.8201 69.6267 32.4767 70.8801 34.7301" stroke="#6E6E6E" stroke-width="2"/>
<path d="M59.7199 49.9501L56.7199 44.3801C56.5399 44.0468 56.3266 44.0234 56.0799 44.3101L53.5199 47.2901C53.4604 47.359 53.3859 47.4144 53.3013 47.4523C53.2168 47.4903 53.1242 47.51 53.0299 47.5101H50.7899C50.3766 47.5101 50.1466 47.3068 50.0999 46.9001C49.6332 42.8934 50.2732 39.1034 52.0199 35.5301C52.0963 35.3702 52.1284 35.1928 52.1129 35.0163C52.0973 34.8398 52.0347 34.6707 51.9315 34.5267C51.8283 34.3826 51.6884 34.2689 51.5263 34.1974C51.3642 34.1259 51.1858 34.0992 51.0099 34.1201C47.6499 34.5534 43.9066 35.3801 39.7799 36.6001C39.6316 36.6461 39.4737 36.6498 39.3236 36.6106C39.1734 36.5714 39.037 36.4909 38.9293 36.3781C38.8216 36.2652 38.7469 36.1244 38.7135 35.9712C38.6801 35.818 38.6892 35.6584 38.7399 35.5101L41.1599 28.5301C41.2057 28.3981 41.2015 28.254 41.148 28.1249C41.0946 27.9959 40.9956 27.891 40.8699 27.8301L36.3999 25.7101" stroke="#626262" stroke-width="2"/>
<path d="M66.1599 39.7701C66.2732 38.7567 66.1566 37.9201 65.8099 37.2601C65.6299 36.9267 65.3499 36.7601 64.9699 36.7601H61.7599C60.4999 36.7601 60.3599 37.1534 61.3399 37.9401C62.2732 38.6867 63.6466 39.5267 65.4599 40.4601" stroke="#A3A3A3" stroke-width="2"/>
<path d="M28.4098 28.35C25.3965 30.87 22.7632 33.7067 20.5098 36.86C19.6965 37.9934 19.2498 39.2867 19.1698 40.74C19.0565 42.82 19.0132 44.9134 19.0398 47.02" stroke="#242424" stroke-width="2"/>
<path d="M19.0398 47.0201C18.1731 49.2267 17.6398 51.0434 17.4398 52.4701C16.7331 57.4634 15.8465 62.4767 14.7798 67.5101" stroke="#2F2F2F" stroke-width="2"/>
<path d="M14.7802 67.5101C14.0935 72.1034 13.3369 76.7301 12.5102 81.3901C11.6102 86.5101 16.9402 90.3001 19.9102 93.6001C22.6635 96.6601 25.8435 99.6068 29.4502 102.44C29.6092 102.566 29.8109 102.624 30.0125 102.604C30.214 102.583 30.3997 102.485 30.5302 102.33L37.4002 94.3401C37.5535 94.1668 37.5835 93.9734 37.4902 93.7601C36.8769 92.3801 36.1769 91.0201 35.3902 89.6801C34.9035 88.8601 34.3369 87.2868 33.6902 84.9601C33.2169 83.2668 32.6035 81.6168 31.8502 80.0101C31.6569 79.5901 31.5702 78.2168 31.5902 75.8901C31.6035 74.5301 31.9369 73.3334 32.5902 72.3001C33.0502 71.5801 33.6702 70.4668 34.4502 68.9601C34.5082 68.848 34.5904 68.7502 34.6909 68.6739C34.7913 68.5975 34.9075 68.5445 35.0311 68.5186C35.1546 68.4928 35.2823 68.4947 35.405 68.5244C35.5276 68.5541 35.6421 68.6107 35.7402 68.6901C36.2269 69.0834 36.4102 69.7734 36.2902 70.7601C36.2435 71.1468 36.4135 71.3768 36.8002 71.4501C40.7602 72.2001 42.8402 75.5001 45.7002 78.3101C45.9069 78.5168 46.6569 78.9868 47.9502 79.7201C49.8969 80.8268 51.6702 82.0001 53.2702 83.2401C54.0302 83.8268 55.3169 84.1001 57.1302 84.0601C58.1035 84.0401 59.2202 83.5534 60.4802 82.6001C63.4869 80.3334 67.0735 78.4334 71.2402 76.9001C71.5602 76.7801 71.7669 76.5601 71.8602 76.2401C72.2202 75.0068 72.6035 73.1801 73.0102 70.7601C73.3502 68.7534 74.2235 66.6568 75.6302 64.4701" stroke="#191919" stroke-width="2"/>
<path d="M75.6299 64.4701C75.8832 64.1768 76.0832 63.8434 76.2299 63.4701" stroke="#242424" stroke-width="2"/>
<path d="M76.23 63.47L77.7 62.73" stroke="#343434" stroke-width="2"/>
<path d="M77.6999 62.73C78.1333 63.07 78.4733 63.4834 78.7199 63.97C78.8799 64.2834 78.8599 64.59 78.6599 64.89C76.6999 67.7634 75.6733 69.75 75.5799 70.85C75.4199 72.5834 74.9966 74.2934 74.3099 75.98C74.2626 76.1041 74.2587 76.2399 74.2988 76.3641C74.339 76.4882 74.4207 76.5929 74.5299 76.66C75.0633 76.98 75.4399 77.26 75.6599 77.5C75.7318 77.5802 75.7843 77.6759 75.8131 77.7796C75.8419 77.8832 75.8463 77.9919 75.8259 78.0968C75.8055 78.2018 75.7608 78.3002 75.6956 78.3841C75.6303 78.468 75.5461 78.5351 75.4499 78.58L74.6699 78.96C74.3366 79.12 74.1699 79.3867 74.1699 79.76V94.79C74.1701 95.0282 74.2275 95.2626 74.3372 95.4733C74.4468 95.6839 74.6056 95.8646 74.7999 96L81.9299 100.86C82.0088 100.915 82.1001 100.95 82.1955 100.96C82.291 100.971 82.3878 100.958 82.477 100.923C82.5663 100.887 82.6452 100.83 82.7068 100.756C82.7684 100.682 82.8107 100.594 82.8299 100.5C83.1199 99.09 82.9599 98.14 83.5999 96.56C84.9533 93.1867 86.3433 89.8267 87.7699 86.48C88.0099 85.92 88.3066 85.3834 88.6599 84.87C89.6499 83.43 90.2699 82.37 91.4999 81.27C94.4199 78.65 95.9033 75.1234 95.9499 70.69C95.9766 68.4367 96.0033 66.05 96.0299 63.53" stroke="#191919" stroke-width="2"/>
<path d="M96.0298 63.5301L94.7798 55.2201" stroke="#343434" stroke-width="2"/>
<path d="M94.78 55.2201C94.7866 53.3467 94.5066 50.7734 93.94 47.5001C93.7 46.1334 93.6733 43.8967 93.86 40.7901C93.9133 39.9167 93.5466 38.8834 92.76 37.6901C92.2933 36.9834 91.4866 36.3467 90.34 35.7801C89.2066 35.2201 88.08 34.6534 86.96 34.0801" stroke="#242424" stroke-width="2"/>
<path d="M86.9599 34.0801L75.4699 27.4601C75.4147 27.4275 75.3525 27.4087 75.2884 27.4052C75.2242 27.4017 75.1599 27.4135 75.1006 27.4398C75.0413 27.466 74.9886 27.506 74.9468 27.5564C74.905 27.6068 74.8753 27.6663 74.8599 27.7301C74.5266 29.2434 74.0266 31.6901 73.3599 35.0701C73.1133 36.3301 72.7866 37.4168 72.3799 38.3301C71.5333 40.2301 71.0499 41.2568 70.9299 41.4101C69.1766 43.6168 67.4433 45.8434 65.7299 48.0901C64.5166 49.6701 63.2666 50.8334 61.9799 51.5801C60.4133 52.4868 58.8099 53.1668 57.1699 53.6201" stroke="#2F2F2F" stroke-width="2"/>
<path d="M57.1703 53.6201C53.3236 53.5801 50.3536 52.7501 48.2603 51.1301" stroke="#50504F" stroke-width="2"/>
<path d="M48.2601 51.1301C47.0001 48.5201 44.7801 49.1601 42.5801 48.9501" stroke="#2F2F2F" stroke-width="2"/>
<path d="M42.58 48.9501C41.5266 48.4101 40.98 47.7601 40.94 47.0001C40.8466 45.2267 40.2766 43.8701 39.23 42.9301" stroke="#242424" stroke-width="2"/>
<path d="M39.2299 42.93L36.6099 39.98" stroke="#191919" stroke-width="2"/>
<path d="M36.6102 39.98C34.7435 35.66 33.8035 31.2334 33.7902 26.7001C33.7902 26.0867 33.5135 25.9134 32.9602 26.18L28.4102 28.35" stroke="#2F2F2F" stroke-width="2"/>
<path d="M36.6099 39.98L35.6299 42.02" stroke="#484848" stroke-width="2"/>
<path d="M35.6299 42.02C31.6299 42.9934 27.9266 42.1734 24.5199 39.56C24.2466 39.3534 24.1732 39.09 24.2999 38.77L28.4099 28.35" stroke="#535353" stroke-width="2"/>
<path d="M35.6299 42.0201L35.6399 42.9201C35.6465 43.2667 35.8099 43.5101 36.1299 43.6501C37.9765 44.4234 39.0099 44.1834 39.2299 42.9301" stroke="#3C3C3C" stroke-width="2"/>
<path d="M94.78 55.2201L90.89 51.5101C90.7554 51.3811 90.5844 51.2966 90.4002 51.268C90.216 51.2394 90.0274 51.268 89.86 51.3501L75.62 58.1901C75.3067 58.3434 75.16 58.5934 75.18 58.9401C75.2934 60.5601 75.6434 62.0701 76.23 63.4701" stroke="#575757" stroke-width="2"/>
<path d="M75.6298 64.47C70.4198 65.19 67.9198 66.88 63.7098 69.28C61.2632 70.68 59.3998 71.4834 58.1198 71.69C54.9265 72.1967 52.2798 71.0467 50.1798 68.24C47.3198 64.42 45.2298 61.7767 43.9098 60.31C41.2432 57.3634 38.6365 57.19 36.0898 59.79" stroke="#3C3C3C" stroke-width="2"/>
<path d="M36.09 59.7901L35.98 58.4601" stroke="#535353" stroke-width="2"/>
<path d="M35.98 58.4601C36.0667 57.3934 36.06 55.9034 35.96 53.9901C35.9067 53.0101 35.4467 52.5334 34.58 52.5601C34.2734 52.5734 34.06 52.4401 33.94 52.1601C33.54 51.2867 32.6567 50.8734 31.29 50.9201" stroke="#575757" stroke-width="2"/>
<path d="M31.29 50.9201C27.64 48.7201 23.41 46.6401 19.04 47.0201" stroke="#535353" stroke-width="2"/>
<path d="M96.0302 63.53C91.5769 63.5834 87.1869 63.27 82.8602 62.59C81.0602 62.3 79.4302 62.5 77.7002 62.73" stroke="#4C4C4C" stroke-width="2"/>
<path d="M86.9601 34.0801L90.3501 44.8601C90.4018 45.0192 90.3904 45.1923 90.318 45.3446C90.2456 45.4968 90.1176 45.6167 89.9601 45.6801C87.3601 46.7067 84.7801 47.6534 82.2201 48.5201C79.8601 49.3267 77.9534 50.1501 76.5001 50.9901C73.5601 52.6901 69.7801 56.2901 65.7001 57.1001C62.8934 57.6534 59.8267 57.8767 56.5001 57.7701C51.4901 57.6001 45.6801 53.3801 42.5801 48.9501" stroke="#535353" stroke-width="2"/>
<path d="M48.2602 51.1301C47.9269 51.9167 48.2902 52.6101 49.3502 53.2101C50.5502 53.8901 51.4302 54.6001 51.9902 55.3401C52.1821 55.5962 52.469 55.7683 52.7902 55.8201C54.7769 56.1267 56.2369 55.3934 57.1702 53.6201" stroke="#7F7F7E" stroke-width="2"/>
<path d="M31.2902 50.92L22.5002 47.63C22.1936 47.5167 21.9669 47.61 21.8202 47.91C20.5469 50.47 20.3602 52.9367 21.2602 55.31C23.7402 61.8367 25.4336 66.5034 26.3402 69.31C26.3884 69.4618 26.4748 69.598 26.5906 69.7051C26.7065 69.8121 26.8477 69.8863 27.0002 69.92C28.0269 70.1534 29.0569 70.2167 30.0902 70.11C30.2402 70.0917 30.3829 70.0363 30.5052 69.9489C30.6276 69.8615 30.7256 69.745 30.7902 69.61L35.9802 58.46" stroke="#636363" stroke-width="2"/>
<path d="M36.0898 59.79C35.2498 64.0634 33.4131 67.8 30.5798 71C30.3598 71.2467 30.0865 71.3467 29.7598 71.3C24.6665 70.5867 19.6731 69.3234 14.7798 67.51" stroke="#484848" stroke-width="2"/>
<path d="M35.2998 81.1801C36.1398 84.8934 37.5465 88.34 39.5198 91.5201C39.9998 92.3001 40.1931 93.6434 40.0998 95.5501C40.0465 96.6034 40.5198 97.3034 41.5198 97.6501L46.7298 99.4501C47.4898 99.7167 47.8965 99.4467 47.9498 98.6401C48.1098 96.1534 48.2098 93.6167 48.2498 91.0301C48.2765 89.5367 48.4931 87.2101 48.8998 84.0501C48.9465 83.6967 48.8098 83.4334 48.4898 83.2601L47.5098 82.7101" stroke="#5C5C5C" stroke-width="2"/>
<path d="M47.5102 82.7101C45.9402 81.7501 44.0902 80.7601 42.9202 79.4301C41.1335 77.4034 39.2902 75.6767 37.3902 74.2501C37.2573 74.1511 37.1033 74.0844 36.9402 74.0551C36.7771 74.0258 36.6095 74.0348 36.4505 74.0814C36.2915 74.1279 36.1455 74.2107 36.024 74.3233C35.9024 74.4358 35.8087 74.5751 35.7502 74.7301C35.5235 75.3301 35.1935 75.9334 34.7602 76.5401C33.8002 77.8801 34.4802 79.9201 35.3002 81.1801" stroke="#474747" stroke-width="2"/>
<path d="M47.5098 82.7101L35.2998 81.1801" stroke="#A3A3A3" stroke-width="2"/>
<path d="M56.7098 86.4301C55.9632 90.2767 56.2598 94.4167 57.5998 98.8501" stroke="#3F3F3F" stroke-width="2"/>
<path d="M57.6001 98.85C57.7534 99.89 57.9068 100.963 58.0601 102.07C58.2401 103.323 58.6101 104.313 59.1701 105.04C60.9901 107.38 61.9201 108.37 62.0701 111.29C62.0901 111.75 62.2234 111.787 62.4701 111.4L67.8601 103.02" stroke="#2F2F2F" stroke-width="2"/>
<path d="M67.8599 103.02C68.8199 100.967 69.8265 98.9267 70.8799 96.9001C71.4132 95.8867 71.6599 94.8967 71.6199 93.9301C71.5732 92.8567 71.4465 91.8001 71.2399 90.7601" stroke="#3F3F3F" stroke-width="2"/>
<path d="M71.24 90.7601L71.67 80.1201C71.6833 79.7801 71.53 79.6667 71.21 79.78C67.8766 80.9 65.4833 81.9767 64.03 83.0101C61.4833 84.8167 59.0433 85.9567 56.71 86.43" stroke="#50504F" stroke-width="2"/>
<path d="M71.24 90.7601C67.0666 92.2667 63.4733 92.0201 60.46 90.0201C59.8 89.5867 58.55 88.3901 56.71 86.4301" stroke="#8E8E8E" stroke-width="2"/>
<path d="M67.8601 103.02L57.6001 98.85" stroke="#6E6E6E" stroke-width="2"/>
<path d="M51.5599 85.2901C51.524 85.2646 51.4818 85.2499 51.4379 85.2477C51.394 85.2454 51.3501 85.2557 51.311 85.2773C51.2718 85.299 51.2389 85.3312 51.2158 85.3704C51.1927 85.4097 51.1802 85.4545 51.1799 85.5001C51.2665 90.8267 50.9499 95.6334 50.2299 99.9201C50.1765 100.273 50.2699 100.577 50.5099 100.83C51.8032 102.19 53.3865 102.83 55.2599 102.75C55.3458 102.747 55.4298 102.723 55.5052 102.682C55.5805 102.641 55.6451 102.583 55.6938 102.513C55.7424 102.443 55.7737 102.363 55.7852 102.279C55.7967 102.195 55.788 102.11 55.7599 102.03C54.0532 97.1234 53.4732 92.2401 54.0199 87.3801C54.0465 87.1267 53.9532 86.9267 53.7399 86.7801L51.5599 85.2901Z" stroke="#808080" stroke-width="2"/>
<path d="M79.4999 102.65L74.1999 98.7201C73.4332 98.1468 72.8665 98.2634 72.4999 99.0701C70.1065 104.31 67.0799 109.517 63.4199 114.69C63.0732 115.177 62.6365 116.653 62.1099 119.12C62.0732 119.293 62.0836 119.473 62.1398 119.642C62.196 119.811 62.2961 119.962 62.4299 120.08L65.2999 122.55C65.5465 122.757 65.8232 122.81 66.1299 122.71C73.1899 120.42 74.7799 114.99 77.9099 109.19C78.3899 108.303 78.6632 107.473 78.7299 106.7C78.8499 105.347 79.1099 104.457 79.5099 104.03C80.0165 103.49 80.0132 103.03 79.4999 102.65Z" stroke="#767676" stroke-width="2"/>
<path d="M48.03 102.94L40.98 100.13" stroke="#5C5C5C" stroke-width="2"/>
<path d="M40.9802 100.13L38.6002 98.74C38.2368 98.5261 37.8061 98.4577 37.3956 98.5487C36.9852 98.6397 36.6257 98.8833 36.3902 99.23L33.3102 103.73C33.1803 103.922 33.0921 104.138 33.0515 104.366C33.0109 104.593 33.0186 104.827 33.0744 105.051C33.1301 105.274 33.2325 105.484 33.3748 105.665C33.5171 105.845 33.6962 105.994 33.9002 106.1C35.8302 107.11 37.4502 108.14 38.8702 110.06C39.7635 111.267 40.8468 112.39 42.1202 113.43C42.2824 113.567 42.4858 113.647 42.7002 113.66C43.7935 113.747 47.4235 114.15 53.5902 114.87C55.1568 115.05 56.6468 114.983 58.0602 114.67C58.2382 114.63 58.4022 114.542 58.5344 114.416C58.6666 114.289 58.762 114.128 58.8102 113.95C59.6635 110.843 59.0568 108.373 56.9902 106.54C56.2968 105.913 54.9868 105.387 53.0602 104.96C51.3002 104.567 49.6235 103.893 48.0302 102.94" stroke="#767676" stroke-width="2"/>
<path d="M40.98 100.13C42.8333 102.397 45.1833 103.333 48.03 102.94" stroke="#D2D1D2" stroke-width="2"/>
<path d="M67.4001 19.0601C67.5592 19.0644 67.7156 19.018 67.8466 18.9275C67.9776 18.8371 68.0764 18.7073 68.1287 18.5569C68.1811 18.4066 68.1842 18.2435 68.1377 18.0913C68.0912 17.939 67.9975 17.8055 67.8701 17.7101L65.8101 16.1401C65.687 16.0431 65.5366 15.9872 65.3801 15.9801L59.1501 15.8301C59.0308 15.8264 58.9124 15.8512 58.8047 15.9025C58.697 15.9537 58.603 16.03 58.5307 16.1248C58.4583 16.2197 58.4096 16.3304 58.3886 16.4478C58.3677 16.5653 58.375 16.686 58.4101 16.8001L58.9001 18.3501C58.948 18.4989 59.0412 18.629 59.1667 18.7223C59.2922 18.8155 59.4437 18.8672 59.6001 18.8701L67.4001 19.0601Z" stroke="#A3A3A3" stroke-width="2"/>
<path d="M76.5501 102.31C77.0501 101.817 76.8435 101.27 75.9301 100.67C75.5235 100.403 75.2668 100.51 75.1601 100.99C75.0335 101.597 75.2401 102.067 75.7801 102.4C75.8996 102.475 76.041 102.507 76.1809 102.49C76.3209 102.474 76.4511 102.41 76.5501 102.31Z" stroke="#B5B4B4" stroke-width="2"/>
<path d="M86.1899 30.4001C88.2765 31.5201 90.1665 32.5167 91.8599 33.3901C93.9265 34.4701 95.3765 36.3101 96.2099 38.9101C96.1232 41.1701 96.2732 43.3867 96.6599 45.5601C97.1265 48.1934 97.3699 50.3301 97.3899 51.9701C97.4432 55.4434 97.7465 59.1101 98.2999 62.9701C98.8665 66.9234 99.0465 69.7267 98.8399 71.3801C98.5065 74.0201 97.5832 76.7334 96.0699 79.5201C94.5799 82.2601 91.7499 84.1401 90.4099 86.9901C88.0832 91.9567 86.2399 96.9201 84.8799 101.88C84.5699 103.03 84.0999 103.68 82.9299 104.27C81.4765 104.997 80.8765 106.297 81.1299 108.17C81.1765 108.49 81.1199 108.793 80.9599 109.08C80.2932 110.307 78.7632 113.233 76.3699 117.86C75.2565 120.02 72.9199 122.163 69.3599 124.29C67.5599 125.363 65.9765 125.633 64.6099 125.1C62.6765 124.333 61.2232 122.98 60.2499 121.04C59.8299 120.21 59.8099 118.75 59.5999 117.64C59.5332 117.28 59.3165 117.11 58.9499 117.13C55.5199 117.35 52.7699 117.61 49.7499 117.01C46.5432 116.37 43.8099 115.997 41.5499 115.89C41.1965 115.877 40.8899 115.753 40.6299 115.52C39.5099 114.527 38.1965 113.143 36.6899 111.37C36.0099 110.57 35.3065 109.927 34.5799 109.44C33.5499 108.76 31.8199 108.09 30.8199 106.39C30.6332 106.083 30.3699 105.887 30.0299 105.8C28.8299 105.48 27.4132 104.593 25.7799 103.14C19.5265 97.5601 14.6365 92.7767 11.1099 88.7901C10.0165 87.5567 9.5332 86.0501 9.65986 84.2701C9.7932 82.3167 9.80986 80.4201 9.70986 78.5801L11.3299 70.0501C11.3565 68.9901 11.5599 67.9134 11.9399 66.8201C12.3999 65.5001 12.6832 64.4601 12.7899 63.7001C13.4965 58.5934 14.5232 53.0101 15.8699 46.9501C16.1899 45.4767 15.9932 44.3034 15.2799 43.4301C15.0265 43.1301 15.0332 42.8367 15.2999 42.5501C15.5999 42.2234 15.8199 41.6467 15.9599 40.8201C16.4799 37.8401 19.1399 34.2801 21.8999 30.6601C25.0132 26.5867 28.8232 24.2367 33.3299 23.6101C33.6699 23.5634 33.8765 23.3734 33.9499 23.0401C34.4499 20.8734 35.1865 18.5634 36.1599 16.1101C36.2265 15.9301 36.4932 14.8134 36.9599 12.7601C37.3532 11.0334 38.5032 9.72339 40.4099 8.83006C50.1232 4.25673 59.0065 4.77673 67.0599 10.3901C69.6465 12.1901 71.3832 14.1334 72.2699 16.2201C73.2565 18.5467 73.9632 20.9701 74.3899 23.4901C74.4499 23.8234 74.6332 24.0534 74.9399 24.1801C79.1132 25.9267 82.8632 28.0001 86.1899 30.4001ZM52.0099 8.27006C47.6432 9.08339 44.6232 9.81006 42.9499 10.4501C42.3632 10.6701 42.0165 11.1667 41.9099 11.9401C41.8432 12.4401 41.7232 12.7867 41.5499 12.9801C41.3032 13.2534 40.9832 13.4667 40.5899 13.6201C39.4832 15.0867 38.5599 16.7234 37.8199 18.5301C37.4999 19.3101 37.2765 20.4934 37.1499 22.0801C37.0499 23.3201 36.7999 24.5301 36.3999 25.7101C36.0065 27.5434 36.2465 29.6967 37.1199 32.1701C37.7999 34.0901 37.7299 37.0301 39.2899 38.9301C40.2965 40.1634 41.3165 41.4001 42.3499 42.6401C43.2599 43.7301 43.5899 45.1001 43.9899 45.9701C44.061 46.1199 44.1699 46.2451 44.3021 46.329C44.4343 46.413 44.5835 46.4517 44.7299 46.4401C47.3699 46.2334 49.1765 47.1367 50.1499 49.1501C50.3055 49.4683 50.5547 49.7245 50.8599 49.8801C53.5132 51.2667 56.4665 51.2901 59.7199 49.9501C64.8865 45.7701 68.6065 40.6967 70.8799 34.7301C71.8199 31.1167 72.1299 27.7367 71.8099 24.5901C71.6699 20.0567 70.0032 16.4301 66.8099 13.7101C65.5899 12.6701 63.3565 11.4067 60.1099 9.92006C57.0632 8.52006 54.3632 7.97006 52.0099 8.27006ZM28.4099 28.3501C25.3965 30.8701 22.7632 33.7067 20.5099 36.8601C19.6965 37.9934 19.2499 39.2867 19.1699 40.7401C19.0565 42.8201 19.0132 44.9134 19.0399 47.0201C18.1732 49.2267 17.6399 51.0434 17.4399 52.4701C16.7332 57.4634 15.8465 62.4767 14.7799 67.5101C14.0932 72.1034 13.3365 76.7301 12.5099 81.3901C11.6099 86.5101 16.9399 90.3001 19.9099 93.6001C22.6632 96.6601 25.8432 99.6067 29.4499 102.44C29.6089 102.566 29.8106 102.624 30.0121 102.604C30.2137 102.583 30.3994 102.485 30.5299 102.33L37.3999 94.3401C37.5532 94.1667 37.5832 93.9734 37.4899 93.7601C36.8765 92.3801 36.1765 91.0201 35.3899 89.6801C34.9032 88.8601 34.3365 87.2867 33.6899 84.9601C33.2165 83.2667 32.6032 81.6167 31.8499 80.0101C31.6565 79.5901 31.5699 78.2167 31.5899 75.8901C31.6032 74.5301 31.9365 73.3334 32.5899 72.3001C33.0499 71.5801 33.6699 70.4667 34.4499 68.9601C34.5078 68.848 34.59 68.7502 34.6905 68.6738C34.791 68.5975 34.9072 68.5444 35.0307 68.5186C35.1542 68.4927 35.282 68.4947 35.4046 68.5244C35.5273 68.554 35.6418 68.6106 35.7399 68.6901C36.2265 69.0834 36.4099 69.7734 36.2899 70.7601C36.2432 71.1467 36.4132 71.3767 36.7999 71.4501C40.7599 72.2001 42.8399 75.5001 45.6999 78.3101C45.9065 78.5167 46.6565 78.9867 47.9499 79.7201C49.8965 80.8267 51.6699 82.0001 53.2699 83.2401C54.0299 83.8267 55.3165 84.1001 57.1299 84.0601C58.1032 84.0401 59.2199 83.5534 60.4799 82.6001C63.4865 80.3334 67.0732 78.4334 71.2399 76.9001C71.5599 76.7801 71.7665 76.5601 71.8599 76.2401C72.2199 75.0067 72.6032 73.1801 73.0099 70.7601C73.3499 68.7534 74.2232 66.6567 75.6299 64.4701C75.8832 64.1767 76.0832 63.8434 76.2299 63.4701L77.6999 62.7301C78.1332 63.0701 78.4732 63.4834 78.7199 63.9701C78.8799 64.2834 78.8599 64.5901 78.6599 64.8901C76.6999 67.7634 75.6732 69.7501 75.5799 70.8501C75.4199 72.5834 74.9965 74.2934 74.3099 75.9801C74.2625 76.1041 74.2586 76.2399 74.2988 76.3641C74.3389 76.4882 74.4207 76.5929 74.5299 76.6601C75.0632 76.9801 75.4399 77.2601 75.6599 77.5001C75.7318 77.5802 75.7842 77.676 75.813 77.7796C75.8419 77.8832 75.8462 77.9919 75.8258 78.0969C75.8054 78.2018 75.7608 78.3002 75.6955 78.3841C75.6302 78.468 75.5461 78.5351 75.4499 78.5801L74.6699 78.9601C74.3365 79.1201 74.1699 79.3867 74.1699 79.7601V94.7901C74.17 95.0282 74.2274 95.2626 74.3371 95.4733C74.4468 95.6839 74.6055 95.8647 74.7999 96.0001L81.9299 100.86C82.0087 100.915 82.1 100.95 82.1955 100.96C82.291 100.971 82.3877 100.958 82.4769 100.923C82.5662 100.887 82.6452 100.83 82.7068 100.756C82.7684 100.682 82.8107 100.594 82.8299 100.5C83.1199 99.0901 82.9599 98.1401 83.5999 96.5601C84.9532 93.1867 86.3432 89.8267 87.7699 86.4801C88.0099 85.9201 88.3065 85.3834 88.6599 84.8701C89.6499 83.4301 90.2699 82.3701 91.4999 81.2701C94.4199 78.6501 95.9032 75.1234 95.9499 70.6901C95.9765 68.4367 96.0032 66.0501 96.0299 63.5301L94.7799 55.2201C94.7865 53.3467 94.5065 50.7734 93.9399 47.5001C93.6999 46.1334 93.6732 43.8967 93.8599 40.7901C93.9132 39.9167 93.5465 38.8834 92.7599 37.6901C92.2932 36.9834 91.4865 36.3467 90.3399 35.7801C89.2065 35.2201 88.0799 34.6534 86.9599 34.0801L75.4699 27.4601C75.4146 27.4275 75.3524 27.4087 75.2883 27.4052C75.2242 27.4017 75.1599 27.4135 75.1005 27.4397C75.0412 27.466 74.9886 27.5059 74.9468 27.5564C74.905 27.6068 74.8752 27.6663 74.8599 27.7301C74.5265 29.2434 74.0265 31.6901 73.3599 35.0701C73.1132 36.3301 72.7865 37.4167 72.3799 38.3301C71.5332 40.2301 71.0499 41.2567 70.9299 41.4101C69.1765 43.6167 67.4432 45.8434 65.7299 48.0901C64.5165 49.6701 63.2665 50.8334 61.9799 51.5801C60.4132 52.4867 58.8099 53.1667 57.1699 53.6201C53.3232 53.5801 50.3532 52.7501 48.2599 51.1301C46.9999 48.5201 44.7799 49.1601 42.5799 48.9501C41.5265 48.4101 40.9799 47.7601 40.9399 47.0001C40.8465 45.2267 40.2765 43.8701 39.2299 42.9301L36.6099 39.9801C34.7432 35.6601 33.8032 31.2334 33.7899 26.7001C33.7899 26.0867 33.5132 25.9134 32.9599 26.1801L28.4099 28.3501ZM35.2999 81.1801C36.1399 84.8934 37.5465 88.3401 39.5199 91.5201C39.9999 92.3001 40.1932 93.6434 40.0999 95.5501C40.0465 96.6034 40.5199 97.3034 41.5199 97.6501L46.7299 99.4501C47.4899 99.7167 47.8965 99.4467 47.9499 98.6401C48.1099 96.1534 48.2099 93.6167 48.2499 91.0301C48.2765 89.5367 48.4932 87.2101 48.8999 84.0501C48.9465 83.6967 48.8099 83.4334 48.4899 83.2601L47.5099 82.7101C45.9399 81.7501 44.0899 80.7601 42.9199 79.4301C41.1332 77.4034 39.2899 75.6767 37.3899 74.2501C37.257 74.1511 37.103 74.0844 36.9399 74.0551C36.7769 74.0258 36.6092 74.0348 36.4502 74.0813C36.2912 74.1279 36.1452 74.2107 36.0237 74.3233C35.9022 74.4358 35.8084 74.5751 35.7499 74.7301C35.5232 75.3301 35.1932 75.9334 34.7599 76.5401C33.7999 77.8801 34.4799 79.9201 35.2999 81.1801ZM56.7099 86.4301C55.9632 90.2767 56.2599 94.4167 57.5999 98.8501C57.7532 99.8901 57.9065 100.963 58.0599 102.07C58.2399 103.323 58.6099 104.313 59.1699 105.04C60.9899 107.38 61.9199 108.37 62.0699 111.29C62.0899 111.75 62.2232 111.787 62.4699 111.4L67.8599 103.02C68.8199 100.967 69.8265 98.9267 70.8799 96.9001C71.4132 95.8867 71.6599 94.8967 71.6199 93.9301C71.5732 92.8567 71.4465 91.8001 71.2399 90.7601L71.6699 80.1201C71.6832 79.7801 71.5299 79.6667 71.2099 79.7801C67.8765 80.9001 65.4832 81.9767 64.0299 83.0101C61.4832 84.8167 59.0432 85.9567 56.7099 86.4301ZM51.5599 85.2901C51.524 85.2646 51.4818 85.2499 51.4379 85.2477C51.394 85.2454 51.3501 85.2557 51.3109 85.2773C51.2718 85.299 51.2388 85.3312 51.2157 85.3704C51.1926 85.4097 51.1802 85.4545 51.1799 85.5001C51.2665 90.8267 50.9499 95.6334 50.2299 99.9201C50.1765 100.273 50.2699 100.577 50.5099 100.83C51.8032 102.19 53.3865 102.83 55.2599 102.75C55.3458 102.747 55.4298 102.723 55.5052 102.682C55.5805 102.641 55.6451 102.583 55.6938 102.513C55.7424 102.443 55.7737 102.363 55.7852 102.279C55.7967 102.195 55.788 102.11 55.7599 102.03C54.0532 97.1234 53.4732 92.2401 54.0199 87.3801C54.0465 87.1267 53.9532 86.9267 53.7399 86.7801L51.5599 85.2901ZM79.4999 102.65L74.1999 98.7201C73.4332 98.1467 72.8665 98.2634 72.4999 99.0701C70.1065 104.31 67.0799 109.517 63.4199 114.69C63.0732 115.177 62.6365 116.653 62.1099 119.12C62.0733 119.293 62.0836 119.473 62.1398 119.642C62.196 119.811 62.2961 119.962 62.4299 120.08L65.2999 122.55C65.5465 122.757 65.8232 122.81 66.1299 122.71C73.1899 120.42 74.7799 114.99 77.9099 109.19C78.3899 108.303 78.6632 107.473 78.7299 106.7C78.8499 105.347 79.1099 104.457 79.5099 104.03C80.0165 103.49 80.0132 103.03 79.4999 102.65ZM48.0299 102.94L40.9799 100.13L38.5999 98.7401C38.2365 98.5261 37.8058 98.4577 37.3953 98.5487C36.9849 98.6397 36.6254 98.8833 36.3899 99.2301L33.3099 103.73C33.18 103.922 33.0918 104.138 33.0512 104.366C33.0106 104.593 33.0184 104.827 33.0741 105.051C33.1298 105.274 33.2322 105.484 33.3745 105.665C33.5168 105.845 33.6959 105.994 33.8999 106.1C35.8299 107.11 37.4499 108.14 38.8699 110.06C39.7632 111.267 40.8465 112.39 42.1199 113.43C42.2821 113.567 42.4855 113.647 42.6999 113.66C43.7932 113.747 47.4232 114.15 53.5899 114.87C55.1565 115.05 56.6465 114.983 58.0599 114.67C58.238 114.63 58.402 114.542 58.5341 114.416C58.6663 114.289 58.7617 114.128 58.8099 113.95C59.6632 110.843 59.0565 108.373 56.9899 106.54C56.2965 105.913 54.9865 105.387 53.0599 104.96C51.2999 104.567 49.6232 103.893 48.0299 102.94Z" fill="black"/>
<path d="M71.8098 24.59L70.6598 21.67C70.5332 21.35 70.2998 21.1766 69.9598 21.15L65.5498 20.87C64.2032 20.6233 62.8265 20.59 61.4198 20.77C60.4132 20.8966 59.6632 20.8133 59.1698 20.52C58.6165 20.1866 57.9932 19.6833 57.2998 19.01C56.6532 16.2166 56.1998 14.4666 55.9398 13.76C55.4732 12.5 54.5665 11.71 53.2198 11.39C53.0401 11.3474 52.8519 11.357 52.6775 11.4177C52.503 11.4784 52.3495 11.5877 52.2351 11.7326C52.1206 11.8776 52.0499 12.0522 52.0312 12.2359C52.0126 12.4197 52.0468 12.605 52.1298 12.77C52.5765 13.67 52.8598 14.6466 52.9798 15.7L46.7898 15.09C45.4965 14.9633 44.4298 15.39 43.5898 16.37L41.9498 18.27C41.5098 18.7833 41.6265 19.06 42.2998 19.1L52.9398 19.71C52.8732 22.9233 53.1832 26.1033 53.8698 29.25C54.0365 30.0033 53.6798 31.3133 52.7998 33.18L48.8698 30.19C48.5276 29.9318 48.2983 29.5511 48.2294 29.1267C48.1605 28.7022 48.2574 28.2666 48.4998 27.91L49.7298 26.1C50.1698 25.46 49.9998 25.14 49.2198 25.14C47.1898 25.14 42.1298 24.93 41.1398 22.8C39.7532 19.7733 40.2132 16.93 42.5198 14.27L49.3398 13.86C49.5519 13.847 49.7507 13.7532 49.8943 13.5984C50.038 13.4436 50.1152 13.2398 50.1098 13.03C50.0898 11.35 50.7232 9.7633 52.0098 8.26996C54.3632 7.96996 57.0632 8.51996 60.1098 9.91996C63.3565 11.4066 65.5898 12.67 66.8098 13.71C70.0032 16.43 71.6698 20.0566 71.8098 24.59ZM67.3998 19.06C67.559 19.0643 67.7153 19.0179 67.8463 18.9274C67.9773 18.837 68.0762 18.7072 68.1285 18.5568C68.1808 18.4065 68.184 18.2434 68.1375 18.0911C68.091 17.9389 67.9972 17.8054 67.8698 17.71L65.8098 16.14C65.6867 16.043 65.5364 15.9871 65.3798 15.98L59.1498 15.83C59.0306 15.8263 58.9122 15.8511 58.8045 15.9024C58.6967 15.9536 58.6028 16.0299 58.5304 16.1247C58.4581 16.2196 58.4094 16.3303 58.3884 16.4477C58.3674 16.5652 58.3748 16.6859 58.4098 16.8L58.8998 18.35C58.9477 18.4988 59.041 18.6289 59.1665 18.7221C59.292 18.8154 59.4435 18.8671 59.5998 18.87L67.3998 19.06Z" fill="#8E8E8E"/>
<path d="M52.0098 8.27002C50.7232 9.76335 50.0898 11.35 50.1098 13.03C50.1153 13.2398 50.038 13.4436 49.8944 13.5985C49.7507 13.7533 49.5519 13.8471 49.3398 13.86L42.5198 14.27L40.5898 13.62C40.9832 13.4667 41.3032 13.2534 41.5498 12.98C41.7232 12.7867 41.8432 12.44 41.9098 11.94C42.0165 11.1667 42.3632 10.67 42.9498 10.45C44.6232 9.81002 47.6432 9.08335 52.0098 8.27002Z" fill="#676767"/>
<path d="M57.2999 19.01C57.8066 21.03 57.9299 23.11 57.6699 25.25C57.5033 26.61 58.0466 27.7 59.2999 28.52C59.4799 28.7733 59.6166 29.0367 59.7099 29.31C59.7966 29.5833 59.7866 29.8767 59.6799 30.19C59.0333 32.1767 58.5999 34.1067 58.3799 35.98C58.0599 38.6867 58.8333 40.9467 60.6999 42.76C60.7989 42.8547 60.8732 42.9722 60.9163 43.1022C60.9595 43.2322 60.9702 43.3708 60.9475 43.5059C60.9248 43.641 60.8694 43.7684 60.7862 43.8772C60.703 43.986 60.5944 44.0728 60.4699 44.13C60.0966 44.31 59.5933 44.3633 58.9599 44.29C57.1999 43.27 56.1299 41.7733 55.7499 39.8C55.6899 39.4667 55.4999 39.2467 55.1799 39.14L54.8199 39.01C54.4533 38.8833 54.2199 38.63 54.1199 38.25L52.7999 33.18C53.6799 31.3133 54.0366 30.0033 53.8699 29.25C53.1833 26.1033 52.8733 22.9233 52.9399 19.71L52.9799 15.7C52.8599 14.6467 52.5766 13.67 52.1299 12.77C52.0469 12.605 52.0127 12.4198 52.0313 12.236C52.05 12.0522 52.1207 11.8776 52.2352 11.7327C52.3497 11.5877 52.5032 11.4785 52.6776 11.4178C52.852 11.3571 53.0402 11.3474 53.2199 11.39C54.5666 11.71 55.4733 12.5 55.9399 13.76C56.1999 14.4667 56.6533 16.2167 57.2999 19.01Z" fill="black"/>
<path d="M40.5899 13.62L42.5199 14.27C40.2132 16.93 39.7532 19.7733 41.1399 22.8C42.1299 24.93 47.1899 25.14 49.2199 25.14C49.9999 25.14 50.1699 25.46 49.7299 26.1L48.4999 27.91C48.2574 28.2666 48.1606 28.7023 48.2295 29.1267C48.2984 29.5511 48.5277 29.9318 48.8699 30.19L52.7999 33.18L54.1199 38.25C54.2199 38.63 54.4532 38.8833 54.8199 39.01L55.1799 39.14C55.4999 39.2467 55.6899 39.4667 55.7499 39.8C56.1299 41.7733 57.1999 43.27 58.9599 44.29L61.0899 47.64C61.1603 47.7502 61.2615 47.8369 61.381 47.8895C61.5005 47.942 61.6332 47.9581 61.7628 47.9358C61.8924 47.9135 62.0132 47.8538 62.1104 47.7639C62.2075 47.6741 62.2769 47.558 62.3099 47.43C62.9032 44.99 63.9532 42.6667 65.4599 40.46L66.1599 39.77C67.2932 36.73 67.1766 33.3933 65.8099 29.76C67.9366 30.82 69.6266 32.4767 70.8799 34.73C68.6066 40.6967 64.8866 45.77 59.7199 49.95L56.7199 44.38C56.5399 44.0467 56.3266 44.0233 56.0799 44.31L53.5199 47.29C53.4604 47.3589 53.3859 47.4143 53.3013 47.4523C53.2168 47.4902 53.1242 47.5099 53.0299 47.51H50.7899C50.3766 47.51 50.1466 47.3067 50.0999 46.9C49.6332 42.8933 50.2732 39.1033 52.0199 35.53C52.0963 35.3701 52.1284 35.1927 52.1129 35.0162C52.0973 34.8397 52.0347 34.6706 51.9315 34.5266C51.8283 34.3825 51.6884 34.2688 51.5263 34.1973C51.3642 34.1258 51.1858 34.0991 51.0099 34.12C47.6499 34.5533 43.9066 35.38 39.7799 36.6C39.6316 36.646 39.4737 36.6497 39.3236 36.6105C39.1734 36.5713 39.037 36.4908 38.9293 36.378C38.8216 36.2651 38.7469 36.1243 38.7135 35.9711C38.6801 35.8179 38.6892 35.6583 38.7399 35.51L41.1599 28.53C41.2057 28.398 41.2015 28.2539 41.148 28.1248C41.0946 27.9958 40.9956 27.8909 40.8699 27.83L36.3999 25.71C36.7999 24.53 37.0499 23.32 37.1499 22.08C37.2766 20.4933 37.4999 19.31 37.8199 18.53C38.5599 16.7233 39.4832 15.0867 40.5899 13.62Z" fill="#7D7D7D"/>
<path d="M52.9798 15.7L52.9398 19.71L42.2998 19.1C41.6265 19.06 41.5098 18.7833 41.9498 18.27L43.5898 16.37C44.4298 15.39 45.4965 14.9633 46.7898 15.09L52.9798 15.7Z" fill="#B7B7B8"/>
<path d="M67.4001 19.0599L59.6001 18.8699C59.4437 18.867 59.2922 18.8154 59.1667 18.7221C59.0412 18.6289 58.948 18.4988 58.9001 18.3499L58.4101 16.7999C58.375 16.6859 58.3677 16.5652 58.3886 16.4477C58.4096 16.3303 58.4583 16.2195 58.5307 16.1247C58.603 16.0298 58.697 15.9536 58.8047 15.9024C58.9124 15.8511 59.0308 15.8263 59.1501 15.8299L65.3801 15.9799C65.5366 15.9871 65.687 16.043 65.8101 16.1399L67.8701 17.7099C67.9975 17.8054 68.0912 17.9389 68.1377 18.0911C68.1842 18.2434 68.1811 18.4065 68.1287 18.5568C68.0764 18.7072 67.9776 18.8369 67.8466 18.9274C67.7156 19.0178 67.5592 19.0643 67.4001 19.0599Z" fill="#B7B7B8"/>
<path d="M65.5498 20.87C65.0498 20.8033 64.6398 20.8267 64.3198 20.94C63.9731 21.06 63.8731 21.2867 64.0198 21.62C64.7398 23.34 66.5998 24.07 68.8298 25.21C69.5498 25.5833 69.9098 26.25 69.9098 27.21C69.9098 27.5567 69.7398 27.74 69.3998 27.76L59.7598 28.41C59.6398 28.49 59.4865 28.5267 59.2998 28.52C58.0465 27.7 57.5031 26.61 57.6698 25.25C57.9298 23.11 57.8065 21.03 57.2998 19.01C57.9931 19.6833 58.6165 20.1867 59.1698 20.52C59.6631 20.8133 60.4131 20.8967 61.4198 20.77C62.8265 20.59 64.2031 20.6233 65.5498 20.87Z" fill="#7D7D7D"/>
<path d="M65.5498 20.87L69.9598 21.15C70.2998 21.1767 70.5331 21.35 70.6598 21.67L71.8098 24.59C72.1298 27.7367 71.8198 31.1167 70.8798 34.73C69.6264 32.4767 67.9364 30.82 65.8098 29.76L59.7598 28.41L69.3998 27.76C69.7398 27.74 69.9098 27.5567 69.9098 27.21C69.9098 26.25 69.5498 25.5834 68.8298 25.21C66.5998 24.07 64.7398 23.34 64.0198 21.62C63.8731 21.2867 63.9731 21.06 64.3198 20.94C64.6398 20.8267 65.0498 20.8034 65.5498 20.87Z" fill="#5E5E5E"/>
<path d="M36.4 25.71L40.87 27.83C40.9957 27.8908 41.0947 27.9958 41.1482 28.1248C41.2016 28.2538 41.2058 28.398 41.16 28.53L38.74 35.51C38.6893 35.6583 38.6802 35.8179 38.7136 35.9711C38.7471 36.1243 38.8217 36.2651 38.9294 36.3779C39.0371 36.4908 39.1736 36.5713 39.3237 36.6105C39.4738 36.6496 39.6317 36.646 39.78 36.6C43.9067 35.38 47.65 34.5533 51.01 34.12C51.1859 34.0991 51.3643 34.1258 51.5264 34.1973C51.6885 34.2688 51.8284 34.3825 51.9316 34.5265C52.0348 34.6706 52.0974 34.8397 52.113 35.0162C52.1285 35.1927 52.0964 35.3701 52.02 35.53C50.2733 39.1033 49.6333 42.8933 50.1 46.9C50.1467 47.3066 50.3767 47.51 50.79 47.51H53.03C53.1243 47.5099 53.2169 47.4902 53.3015 47.4522C53.386 47.4143 53.4606 47.3589 53.52 47.29L56.08 44.31C56.3267 44.0233 56.54 44.0466 56.72 44.38L59.72 49.95C56.4667 51.29 53.5133 51.2666 50.86 49.88C50.5548 49.7244 50.3056 49.4682 50.15 49.15C49.1767 47.1366 47.37 46.2333 44.73 46.44C44.5836 46.4516 44.4344 46.4129 44.3022 46.3289C44.17 46.245 44.0611 46.1198 43.99 45.97C43.59 45.1 43.26 43.73 42.35 42.64C41.3167 41.4 40.2967 40.1633 39.29 38.93C37.73 37.03 37.8 34.09 37.12 32.17C36.2467 29.6966 36.0067 27.5433 36.4 25.71Z" fill="#474747"/>
<path d="M36.6099 39.98L35.6299 42.0201C31.6299 42.9934 27.9266 42.1734 24.5199 39.5601C24.2466 39.3534 24.1732 39.09 24.2999 38.7701L28.4099 28.35L32.9599 26.18C33.5132 25.9134 33.7899 26.0867 33.7899 26.7001C33.8032 31.2334 34.7432 35.66 36.6099 39.98Z" fill="#5E5E5E"/>
<path d="M86.9601 34.08L90.3501 44.86C90.4018 45.0191 90.3904 45.1923 90.318 45.3445C90.2456 45.4967 90.1176 45.6167 89.9601 45.68C87.3601 46.7067 84.7801 47.6534 82.2201 48.52C79.8601 49.3267 77.9534 50.15 76.5001 50.99C73.5601 52.69 69.7801 56.29 65.7001 57.1C62.8934 57.6534 59.8267 57.8767 56.5001 57.77C51.4901 57.6 45.6801 53.38 42.5801 48.95C44.7801 49.16 47.0001 48.52 48.2601 51.13C47.9267 51.9167 48.2901 52.61 49.3501 53.21C50.5501 53.89 51.4301 54.6 51.9901 55.34C52.182 55.5961 52.4688 55.7682 52.7901 55.82C54.7767 56.1267 56.2367 55.3934 57.1701 53.62C58.8101 53.1667 60.4134 52.4867 61.9801 51.58C63.2667 50.8334 64.5167 49.67 65.7301 48.09C67.4434 45.8434 69.1767 43.6167 70.9301 41.41C71.0501 41.2567 71.5334 40.23 72.3801 38.33C72.7867 37.4167 73.1134 36.33 73.3601 35.07C74.0267 31.69 74.5267 29.2434 74.8601 27.73C74.8754 27.6662 74.9052 27.6067 74.947 27.5563C74.9888 27.5059 75.0415 27.466 75.1008 27.4397C75.1601 27.4135 75.2244 27.4016 75.2885 27.4052C75.3526 27.4087 75.4148 27.4275 75.4701 27.46L86.9601 34.08Z" fill="#5E5E5E"/>
<path d="M28.4098 28.35L24.2998 38.77C24.1732 39.09 24.2465 39.3533 24.5198 39.56C27.9265 42.1733 31.6298 42.9933 35.6298 42.02L35.6398 42.92C35.6465 43.2666 35.8098 43.51 36.1298 43.65C37.9765 44.4233 39.0098 44.1833 39.2298 42.93C40.2765 43.87 40.8465 45.2266 40.9398 47C40.9798 47.76 41.5265 48.41 42.5798 48.95C45.6798 53.38 51.4898 57.6 56.4998 57.77C59.8265 57.8766 62.8932 57.6533 65.6998 57.1C69.7798 56.29 73.5598 52.69 76.4998 50.99C77.9532 50.15 79.8598 49.3266 82.2198 48.52C84.7798 47.6533 87.3598 46.7066 89.9598 45.68C90.1174 45.6166 90.2453 45.4967 90.3177 45.3445C90.3901 45.1922 90.4016 45.0191 90.3498 44.86L86.9598 34.08C88.0798 34.6533 89.2065 35.22 90.3398 35.78C91.4865 36.3466 92.2932 36.9833 92.7598 37.69C93.5465 38.8833 93.9132 39.9166 93.8598 40.79C93.6732 43.8966 93.6999 46.1333 93.9398 47.5C94.5065 50.7733 94.7865 53.3466 94.7798 55.22L90.8898 51.51C90.7552 51.381 90.5842 51.2965 90.4 51.2679C90.2158 51.2393 90.0273 51.2679 89.8598 51.35L75.6198 58.19C75.3065 58.3433 75.1598 58.5933 75.1798 58.94C75.2932 60.56 75.6432 62.07 76.2298 63.47C76.0832 63.8433 75.8832 64.1766 75.6298 64.47C70.4198 65.19 67.9198 66.88 63.7098 69.28C61.2632 70.68 59.3998 71.4833 58.1198 71.69C54.9265 72.1966 52.2798 71.0466 50.1798 68.24C47.3198 64.42 45.2298 61.7766 43.9098 60.31C41.2432 57.3633 38.6365 57.19 36.0898 59.79L35.9798 58.46C36.0665 57.3933 36.0598 55.9033 35.9598 53.99C35.9065 53.01 35.4465 52.5333 34.5798 52.56C34.2732 52.5733 34.0598 52.44 33.9398 52.16C33.5398 51.2866 32.6565 50.8733 31.2898 50.92C27.6398 48.72 23.4098 46.64 19.0398 47.02C19.0132 44.9133 19.0565 42.82 19.1698 40.74C19.2498 39.2866 19.6965 37.9933 20.5098 36.86C22.7632 33.7066 25.3965 30.87 28.4098 28.35Z" fill="#474747"/>
<path d="M59.7598 28.41L65.8098 29.76C67.1765 33.3934 67.2931 36.73 66.1598 39.77C66.2731 38.7567 66.1565 37.92 65.8098 37.26C65.6298 36.9267 65.3498 36.76 64.9698 36.76H61.7598C60.4998 36.76 60.3598 37.1534 61.3398 37.94C62.2731 38.6867 63.6465 39.5267 65.4598 40.46C63.9531 42.6667 62.9031 44.99 62.3098 47.43C62.2768 47.558 62.2075 47.6741 62.1103 47.764C62.0131 47.8538 61.8923 47.9136 61.7627 47.9359C61.6331 47.9582 61.5004 47.9421 61.3809 47.8895C61.2614 47.8369 61.1602 47.7502 61.0898 47.64L58.9598 44.29C59.5931 44.3634 60.0965 44.31 60.4698 44.13C60.5943 44.0728 60.7028 43.986 60.7861 43.8773C60.8693 43.7685 60.9247 43.641 60.9474 43.5059C60.97 43.3708 60.9593 43.2322 60.9162 43.1022C60.873 42.9722 60.7988 42.8548 60.6998 42.76C58.8331 40.9467 58.0598 38.6867 58.3798 35.98C58.5998 34.1067 59.0331 32.1767 59.6798 30.19C59.7865 29.8767 59.7965 29.5834 59.7098 29.31C59.6165 29.0367 59.4798 28.7734 59.2998 28.52C59.4865 28.5267 59.6398 28.49 59.7598 28.41Z" fill="#8E8E8E"/>
<path d="M96.2099 38.91C95.3766 36.31 93.9266 34.47 91.8599 33.39C90.1666 32.5167 88.2766 31.52 86.1899 30.4C88.1233 29.84 90.1533 30.0467 92.2799 31.02C92.4374 31.0922 92.5752 31.2058 92.6799 31.35L95.9299 35.77C96.1166 36.0234 96.2099 36.3067 96.2099 36.62V38.91Z" fill="#9F9F9E"/>
<path d="M66.1599 39.77L65.4599 40.46C63.6466 39.5267 62.2732 38.6867 61.3399 37.94C60.3599 37.1533 60.4999 36.76 61.7599 36.76H64.9699C65.3499 36.76 65.6299 36.9267 65.8099 37.26C66.1566 37.92 66.2732 38.7567 66.1599 39.77Z" fill="#B7B7B8"/>
<path d="M39.2299 42.93C39.0099 44.1833 37.9765 44.4233 36.1299 43.65C35.8099 43.51 35.6465 43.2666 35.6399 42.92L35.6299 42.02L36.6099 39.98L39.2299 42.93Z" fill="#313131"/>
<path d="M31.2898 50.92L22.4998 47.63C22.1931 47.5167 21.9665 47.61 21.8198 47.91C20.5465 50.47 20.3598 52.9367 21.2598 55.31C23.7398 61.8367 25.4331 66.5033 26.3398 69.31C26.388 69.4618 26.4744 69.598 26.5902 69.7051C26.706 69.8121 26.8473 69.8862 26.9998 69.92C28.0265 70.1534 29.0565 70.2167 30.0898 70.11C30.2397 70.0917 30.3824 70.0363 30.5048 69.9489C30.6271 69.8615 30.7251 69.745 30.7898 69.61L35.9798 58.46L36.0898 59.79C35.2498 64.0634 33.4131 67.8 30.5798 71C30.3598 71.2467 30.0865 71.3467 29.7598 71.3C24.6665 70.5867 19.6731 69.3234 14.7798 67.51C15.8465 62.4767 16.7331 57.4634 17.4398 52.47C17.6398 51.0434 18.1731 49.2267 19.0398 47.02C23.4098 46.64 27.6398 48.72 31.2898 50.92Z" fill="#5E5E5E"/>
<path d="M31.2902 50.92C32.6569 50.8733 33.5402 51.2867 33.9402 52.16C34.0602 52.44 34.2736 52.5733 34.5802 52.56C35.4469 52.5333 35.9069 53.01 35.9602 53.99C36.0602 55.9033 36.0669 57.3933 35.9802 58.46L30.7902 69.61C30.7256 69.7449 30.6276 69.8615 30.5052 69.9489C30.3829 70.0363 30.2402 70.0917 30.0902 70.11C29.0569 70.2167 28.0269 70.1533 27.0002 69.92C26.8477 69.8862 26.7065 69.8121 26.5906 69.705C26.4748 69.598 26.3884 69.4617 26.3402 69.31C25.4336 66.5033 23.7402 61.8367 21.2602 55.31C20.3602 52.9367 20.5469 50.47 21.8202 47.91C21.9669 47.61 22.1936 47.5167 22.5002 47.63L31.2902 50.92Z" fill="#676767"/>
<path d="M48.2602 51.13C50.3536 52.75 53.3236 53.58 57.1702 53.62C56.2369 55.3933 54.7769 56.1267 52.7902 55.82C52.469 55.7682 52.1821 55.5961 51.9902 55.34C51.4302 54.6 50.5502 53.89 49.3502 53.21C48.2902 52.61 47.9269 51.9167 48.2602 51.13Z" fill="#9F9F9E"/>
<path d="M94.78 55.22L96.03 63.53C91.5767 63.5833 87.1867 63.2699 82.86 62.5899C81.06 62.2999 79.43 62.5 77.7 62.73L76.23 63.47C75.6434 62.07 75.2934 60.56 75.18 58.94C75.16 58.5933 75.3067 58.3433 75.62 58.19L89.86 51.3499C90.0274 51.2679 90.216 51.2392 90.4002 51.2679C90.5844 51.2965 90.7554 51.381 90.89 51.51L94.78 55.22Z" fill="#676767"/>
<path d="M75.6302 64.47C74.2235 66.6567 73.3502 68.7534 73.0102 70.76C72.6035 73.18 72.2202 75.0067 71.8602 76.24C71.7669 76.56 71.5602 76.78 71.2402 76.9C67.0735 78.4334 63.4869 80.3334 60.4802 82.6C59.2202 83.5534 58.1035 84.04 57.1302 84.06C55.3169 84.1 54.0302 83.8267 53.2702 83.24C51.6702 82 49.8969 80.8267 47.9502 79.72C46.6569 78.9867 45.9069 78.5167 45.7002 78.31C42.8402 75.5 40.7602 72.2 36.8002 71.45C36.4135 71.3767 36.2435 71.1467 36.2902 70.76C36.4102 69.7734 36.2269 69.0834 35.7402 68.69C35.6421 68.6106 35.5276 68.554 35.405 68.5244C35.2823 68.4947 35.1546 68.4927 35.0311 68.5186C34.9075 68.5444 34.7913 68.5975 34.6909 68.6738C34.5904 68.7502 34.5082 68.8479 34.4502 68.96C33.6702 70.4667 33.0502 71.58 32.5902 72.3C31.9369 73.3334 31.6035 74.53 31.5902 75.89C31.5702 78.2167 31.6569 79.59 31.8502 80.01C32.6035 81.6167 33.2169 83.2667 33.6902 84.96C34.3369 87.2867 34.9035 88.86 35.3902 89.68C36.1769 91.02 36.8769 92.38 37.4902 93.76C37.5835 93.9734 37.5535 94.1667 37.4002 94.34L30.5302 102.33C30.3997 102.485 30.214 102.583 30.0125 102.604C29.8109 102.624 29.6092 102.566 29.4502 102.44C25.8435 99.6067 22.6635 96.66 19.9102 93.6C16.9402 90.3 11.6102 86.51 12.5102 81.39C13.3369 76.73 14.0935 72.1034 14.7802 67.51C19.6735 69.3234 24.6669 70.5867 29.7602 71.3C30.0869 71.3467 30.3602 71.2467 30.5802 71C33.4135 67.8 35.2502 64.0634 36.0902 59.79C38.6369 57.19 41.2435 57.3634 43.9102 60.31C45.2302 61.7767 47.3202 64.42 50.1802 68.24C52.2802 71.0467 54.9269 72.1967 58.1202 71.69C59.4002 71.4834 61.2635 70.68 63.7102 69.28C67.9202 66.88 70.4202 65.19 75.6302 64.47Z" fill="#313131"/>
<path d="M96.0299 63.53C96.0033 66.05 95.9766 68.4366 95.9499 70.69C95.9033 75.1233 94.4199 78.65 91.4999 81.27C90.2699 82.37 89.6499 83.43 88.6599 84.87C88.3066 85.3833 88.0099 85.92 87.7699 86.48C86.3433 89.8266 84.9533 93.1866 83.5999 96.56C82.9599 98.14 83.1199 99.09 82.8299 100.5C82.8107 100.594 82.7684 100.682 82.7068 100.756C82.6452 100.83 82.5663 100.887 82.477 100.923C82.3878 100.958 82.291 100.971 82.1955 100.96C82.1001 100.949 82.0088 100.915 81.9299 100.86L74.7999 96C74.6056 95.8646 74.4468 95.6839 74.3372 95.4732C74.2275 95.2625 74.1701 95.0281 74.1699 94.79V79.76C74.1699 79.3866 74.3366 79.12 74.6699 78.96L75.4499 78.58C75.5461 78.535 75.6303 78.4679 75.6956 78.384C75.7608 78.3001 75.8055 78.2018 75.8259 78.0968C75.8463 77.9918 75.8419 77.8832 75.8131 77.7795C75.7843 77.6759 75.7318 77.5801 75.6599 77.5C75.4399 77.26 75.0633 76.98 74.5299 76.66C74.4207 76.5928 74.339 76.4881 74.2988 76.364C74.2587 76.2398 74.2626 76.104 74.3099 75.98C74.9966 74.2933 75.4199 72.5833 75.5799 70.85C75.6733 69.75 76.6999 67.7633 78.6599 64.89C78.8599 64.59 78.8799 64.2833 78.7199 63.97C78.4733 63.4833 78.1333 63.07 77.6999 62.73C79.4299 62.5 81.0599 62.3 82.8599 62.59C87.1866 63.27 91.5766 63.5833 96.0299 63.53Z" fill="#313131"/>
<path d="M11.33 70.05L9.71002 78.58C8.97002 75.12 9.51002 72.2767 11.33 70.05Z" fill="#B7B7B8"/>
<path d="M47.5102 82.71L35.3002 81.18C34.4802 79.92 33.8002 77.88 34.7602 76.54C35.1935 75.9333 35.5235 75.33 35.7502 74.73C35.8087 74.575 35.9024 74.4358 36.024 74.3232C36.1455 74.2106 36.2915 74.1278 36.4505 74.0813C36.6095 74.0348 36.7771 74.0258 36.9402 74.0551C37.1033 74.0843 37.2573 74.1511 37.3902 74.25C39.2902 75.6767 41.1335 77.4033 42.9202 79.43C44.0902 80.76 45.9402 81.75 47.5102 82.71Z" fill="#8E8E8E"/>
<path d="M71.24 90.7601C67.0666 92.2667 63.4733 92.02 60.46 90.02C59.8 89.5867 58.55 88.39 56.71 86.43C59.0433 85.9567 61.4833 84.8167 64.03 83.0101C65.4833 81.9767 67.8766 80.9 71.21 79.78C71.53 79.6667 71.6833 79.7801 71.67 80.1201L71.24 90.7601Z" fill="#9F9F9E"/>
<path d="M47.5098 82.7101L48.4898 83.2601C48.8098 83.4334 48.9465 83.6967 48.8998 84.0501C48.4931 87.2101 48.2765 89.5367 48.2498 91.0301C48.2098 93.6167 48.1098 96.1534 47.9498 98.6401C47.8965 99.4467 47.4898 99.7167 46.7298 99.4501L41.5198 97.6501C40.5198 97.3034 40.0465 96.6034 40.0998 95.5501C40.1931 93.6434 39.9998 92.3 39.5198 91.5201C37.5465 88.34 36.1398 84.8934 35.2998 81.1801L47.5098 82.7101Z" fill="#B7B7B8"/>
<path d="M56.7098 86.4301C58.5498 88.3901 59.7998 89.5867 60.4598 90.0201C63.4732 92.0201 67.0665 92.2667 71.2398 90.7601C71.4465 91.8001 71.5732 92.8567 71.6199 93.9301C71.6599 94.8967 71.4132 95.8867 70.8798 96.9001C69.8265 98.9267 68.8199 100.967 67.8599 103.02L57.5998 98.8501C56.2598 94.4167 55.9632 90.2767 56.7098 86.4301Z" fill="#7D7D7D"/>
<path d="M79.4999 102.65C80.0132 103.03 80.0165 103.49 79.5099 104.03C79.1099 104.457 78.8499 105.347 78.7299 106.7C78.6632 107.473 78.3899 108.303 77.9099 109.19C74.7799 114.99 73.1898 120.42 66.1299 122.71C65.8232 122.81 65.5465 122.757 65.2999 122.55L62.4299 120.08C62.2961 119.962 62.196 119.811 62.1398 119.642C62.0836 119.473 62.0732 119.293 62.1099 119.12C62.6365 116.653 63.0732 115.177 63.4199 114.69C67.0799 109.517 70.1065 104.31 72.4999 99.07C72.8665 98.2633 73.4332 98.1466 74.1999 98.72L79.4999 102.65ZM76.5499 102.31C77.0499 101.817 76.8432 101.27 75.9299 100.67C75.5232 100.403 75.2665 100.51 75.1599 100.99C75.0332 101.597 75.2399 102.067 75.7799 102.4C75.8993 102.475 76.0407 102.507 76.1807 102.49C76.3206 102.474 76.4508 102.41 76.5499 102.31Z" fill="#ECEBEB"/>
<path d="M40.9802 100.13C42.8335 102.397 45.1835 103.333 48.0302 102.94C49.6235 103.893 51.3002 104.567 53.0602 104.96C54.9868 105.387 56.2968 105.913 56.9902 106.54C59.0568 108.373 59.6635 110.843 58.8102 113.95C58.762 114.128 58.6666 114.289 58.5344 114.416C58.4022 114.542 58.2382 114.63 58.0602 114.67C56.6468 114.983 55.1568 115.05 53.5902 114.87C47.4235 114.15 43.7935 113.747 42.7002 113.66C42.4858 113.647 42.2824 113.567 42.1202 113.43C40.8468 112.39 39.7635 111.267 38.8702 110.06C37.4502 108.14 35.8302 107.11 33.9002 106.1C33.6962 105.994 33.5171 105.845 33.3748 105.665C33.2325 105.484 33.1301 105.274 33.0744 105.051C33.0186 104.827 33.0109 104.593 33.0515 104.366C33.0921 104.138 33.1803 103.922 33.3102 103.73L36.3902 99.23C36.6257 98.8833 36.9852 98.6397 37.3956 98.5487C37.8061 98.4577 38.2368 98.5261 38.6002 98.74L40.9802 100.13Z" fill="#ECEBEB"/>
<path d="M67.8601 103.02L62.4701 111.4C62.2234 111.787 62.0901 111.75 62.0701 111.29C61.9201 108.37 60.9901 107.38 59.1701 105.04C58.6101 104.313 58.2401 103.323 58.0601 102.07C57.9068 100.963 57.7534 99.89 57.6001 98.85L67.8601 103.02Z" fill="#5E5E5E"/>
<path d="M48.03 102.94C45.1833 103.333 42.8333 102.397 40.98 100.13L48.03 102.94Z" fill="#B7B7B8"/>
<path d="M76.5501 102.31C76.4511 102.41 76.3209 102.474 76.1809 102.49C76.041 102.507 75.8996 102.475 75.7801 102.4C75.2401 102.067 75.0335 101.597 75.1601 100.99C75.2668 100.51 75.5235 100.403 75.9301 100.67C76.8435 101.27 77.0501 101.817 76.5501 102.31Z" fill="#7D7D7D"/>
</g>
<defs>
<clipPath id="clip0_17_1375">
<rect width="105" height="132" fill="white"/>
</clipPath>
</defs>
</svg>
