<svg width="239" height="127" viewBox="0 0 239 127" fill="none" xmlns="http://www.w3.org/2000/svg">
<g clip-path="url(#clip0_17_1729)">
<path d="M17.2502 48.16C17.0435 48.2934 16.9368 48.43 16.9302 48.57" stroke="#A9A9A9" stroke-width="2"/>
<path d="M16.93 48.57C14.07 51.93 11.3034 55.3667 8.63002 58.88C4.11002 64.8 0.430018 72.02 5.21002 78.97C5.89668 79.97 7.16669 81.2133 9.02002 82.7C11.0334 84.3133 12.31 85.34 12.85 85.78C14.7367 87.3133 16.6934 88.51 18.72 89.37C21.1534 90.39 23.4567 91.1333 25.63 91.6C33.35 93.2733 37.9634 94.3167 39.47 94.73C39.8367 94.83 39.9867 95.0667 39.92 95.44C39.65 96.97 40.61 98.28 40.62 100.08C40.6334 102.493 40.6267 105.613 40.6 109.44C40.58 111.89 39.64 114.39 40.34 116.76C41.1 119.313 42.8234 120.8 45.51 121.22C48.72 121.71 52.19 122 53.9 119.14C55.7 116.127 56.39 112.753 55.97 109.02C55.7567 107.093 55.4334 103.757 55 99.01C54.9867 98.89 55.04 98.83 55.16 98.83L64.81 99.1C64.9167 99.1 64.9734 99.1567 64.98 99.27C65.0267 102.437 64.9134 105.633 64.64 108.86C64.43 111.25 64.57 115.9 65.63 117.45C67.8233 120.637 70.7867 121.957 74.52 121.41C75.98 121.19 77.1334 120.45 77.98 119.19C80.24 115.837 81.31 111.95 81.19 107.53C81.0434 102.037 80.6933 97.8534 80.14 94.98C80.0667 94.58 80.2034 94.28 80.55 94.08L88.88 89.27C89.1667 89.1033 89.4734 89.0167 89.8 89.01C92.0934 88.9634 94.3867 88.8767 96.68 88.75C107.4 88.1433 117.667 87.6234 127.48 87.19C129.347 87.1034 134.87 86.8 144.05 86.28C149.45 85.9733 154.973 85.7667 160.62 85.66C160.953 85.66 161.22 85.79 161.42 86.05C161.92 86.71 163.97 87.63 166.22 88.84C168.007 89.8133 169.557 90.27 170.87 90.21C173.983 90.0633 176.143 88.4 177.35 85.22C177.47 84.9 177.703 84.7167 178.05 84.67C181.99 84.1433 186.047 83.9333 190.22 84.04C192.907 84.1067 195.123 83.9933 196.87 83.7C198.61 83.4067 200.873 83.3633 203.66 83.57C204.493 83.63 205.35 83.4767 206.23 83.11C209.023 81.9567 211.61 81.3267 213.99 81.22C218.077 81.0267 221.31 81.1167 223.69 81.49C226.077 81.8633 227.94 81.7233 229.28 81.07C231.64 79.91 235.15 77.87 235.04 75.34C235.027 75.0224 234.895 74.7216 234.671 74.4987C234.446 74.2757 234.145 74.1475 233.83 74.14C232.743 74.1067 231.833 73.9533 231.1 73.68C230.787 73.56 230.57 73.3433 230.45 73.03C230.09 72.05 229.49 71.5067 228.65 71.4C227.523 71.2533 226.923 71.17 226.85 71.15C224.75 70.63 222.683 70.8233 220.65 71.73C220.323 71.8767 220.073 71.7967 219.9 71.49L219.35 70.54C219.063 70.0467 218.643 69.8533 218.09 69.96L209.35 71.59C208.957 71.6633 208.65 71.5367 208.43 71.21C207.723 70.1967 206.867 69.5633 205.86 69.31C205.527 69.2233 205.203 69.2533 204.89 69.4C203.457 70.0733 201.523 70.8433 199.09 71.71C197.45 72.2967 195.85 73.0034 194.29 73.83C190.86 75.64 189.9 76.14 186.94 76.27C186.633 76.2833 186.39 76.4167 186.21 76.67L185.64 77.45C185.513 77.6233 185.343 77.7133 185.13 77.72L178.97 77.88C178.81 77.8829 178.651 77.8471 178.508 77.7757C178.366 77.7043 178.243 77.5994 178.15 77.47C176.91 75.7233 176.06 74.7067 175.6 74.42C169.86 70.88 163.82 68.0167 157.48 65.83C153.7 64.53 150.703 63.1867 148.49 61.8C142.75 58.22 139.37 56.0033 138.35 55.15C133.96 51.49 127.35 45.64 121.62 42.29C114.22 37.9567 108.5 34.9767 104.46 33.35C97.5467 30.57 92.1167 28.1433 88.17 26.07C87.42 25.67 86.68 25.26 86.29 24.41C85.07 21.75 84.56 19.96 81.78 18.87C81.44 18.7367 81.1767 18.5167 80.99 18.21C77.7233 12.8567 73.0467 9.55335 66.96 8.30001C64.2534 7.74668 61.8 7.85001 59.6 8.61001C57.0067 9.51001 54.6667 10.4733 52.58 11.5C50.68 12.44 48.21 14.5533 45.17 17.84C43.2967 19.8667 41.0567 22.2367 38.45 24.95C36.9167 26.5433 36.59 28.7533 37.47 31.58C37.55 31.8533 37.45 32.01 37.17 32.05C35.4434 32.2967 33.9967 32.5667 32.83 32.86C31.91 33.0867 30.65 34.0067 29.05 35.62C27.8634 36.82 26.6667 37.9867 25.46 39.12C25.2867 39.28 25.08 39.3633 24.84 39.37L24.5 39.38C24.1134 39.3867 23.92 39.5833 23.92 39.97C23.9134 40.91 23.3 41.4033 22.08 41.45C22.0084 41.4519 21.938 41.4692 21.8734 41.5008C21.8089 41.5323 21.7516 41.5774 21.7054 41.633C21.6592 41.6887 21.625 41.7537 21.6051 41.8238C21.5852 41.894 21.5801 41.9676 21.59 42.04C21.6967 42.8467 21.4167 43.34 20.75 43.52C20.43 43.6067 20.1967 43.8033 20.05 44.11C19.35 45.6233 18.4167 46.9733 17.25 48.16" stroke="#8A8A8A" stroke-width="2"/>
<path d="M16.9302 48.57C17.1035 48.65 17.2535 48.6567 17.3802 48.59C17.4735 48.5433 17.5202 48.4667 17.5202 48.36C17.5202 48.2133 17.4302 48.1467 17.2502 48.16" stroke="#333333" stroke-width="2"/>
<path d="M67.7499 56.68C68.5232 56.3267 70.8332 54.95 74.6799 52.55C76.8466 51.2033 78.3832 49.7267 79.2899 48.12C81.8299 43.64 83.0299 39.4833 82.8899 35.65C82.8432 34.43 82.9766 33.2 83.2899 31.96C83.5432 30.9667 83.7499 29.7567 83.9099 28.33C83.9499 27.9767 83.8799 27.65 83.6999 27.35C79.5899 20.54 77.5199 16.67 72.1999 13.29C68.5399 10.98 63.6099 10.06 59.4999 11.83C58.3999 12.31 57.4999 12.6067 56.7999 12.72C54.4499 13.1 52.8199 14.6 51.1999 16.21C48.3399 19.0633 46.1532 21.4233 44.6399 23.29C43.1199 25.17 38.7999 26.73 39.4499 29.52C39.6566 30.4067 39.8999 31.3 40.1799 32.2C40.2799 32.52 40.4532 32.7933 40.6999 33.02C42.6066 34.78 43.8999 36.6733 44.5799 38.7C45.2866 40.7933 46.1866 42.7167 47.2799 44.47C48.3999 46.25 47.9999 47.92 49.5199 49.48C52.4099 52.45 55.1199 54.71 59.0099 55.66C60.5099 56.02 62.9299 57.11 65.0799 57.06C66.3732 57.0333 67.2632 56.9067 67.7499 56.68Z" stroke="#4A4A4B" stroke-width="2"/>
<path d="M77.8899 53.58C78.6033 57.4534 78.2833 59.9833 76.9299 61.17C74.6899 63.15 72.1299 65.2867 69.2499 67.58C68.1499 68.46 68.2899 68.7633 69.6699 68.49C72.7299 67.89 75.0299 66.69 77.9499 66.16C81.3766 65.5467 85.1166 64.3333 89.1699 62.52C89.5966 62.3267 89.8499 62.1433 89.9299 61.97C90.0499 61.6967 90.1399 61.3867 90.1999 61.04C90.2239 60.88 90.2915 60.7293 90.3954 60.6042C90.4994 60.4791 90.6358 60.3843 90.7899 60.33C92.8633 59.5967 94.7799 59.3167 96.5399 59.49C99.9066 59.81 103.227 60.3934 106.5 61.24C107.48 61.4934 109.897 61.9833 113.75 62.71C116.157 63.1633 118.567 63.7233 120.98 64.39" stroke="#292929" stroke-width="2"/>
<path d="M120.98 64.39C123.247 65.15 125.573 65.7767 127.96 66.27C131.58 67.01 134.42 68.26 137.67 69.59C138.33 69.8634 141.077 70.0134 145.91 70.04C146.257 70.04 146.51 69.8834 146.67 69.57C147.337 68.23 147.683 66.87 147.71 65.49C147.717 65.1367 147.587 64.8467 147.32 64.62C145.307 62.9667 143.563 61.6934 142.09 60.8C137.22 57.83 135.26 55.83 129.37 50.7C127.143 48.7534 125.03 47.21 123.03 46.07C121.317 45.09 119.05 43.76 116.23 42.08C114.963 41.3267 113.557 40.7667 112.01 40.4C111.683 40.3267 111.43 40.15 111.25 39.87C111.003 39.4967 110.79 39.26 110.61 39.16C103.517 35.54 96.0735 32.2334 88.2801 29.24C88.1485 29.19 88.0079 29.1676 87.8673 29.1741C87.7266 29.1805 87.5887 29.2158 87.4622 29.2776C87.3357 29.3395 87.2232 29.4266 87.1317 29.5337C87.0401 29.6407 86.9716 29.7654 86.9301 29.9C86.2101 32.2534 85.7001 34.71 85.4001 37.27C85.0268 40.4967 84.5435 42.93 83.9501 44.57C82.6901 48.0634 80.6701 51.0667 77.8901 53.58" stroke="#333333" stroke-width="2"/>
<path d="M120.98 64.39C114.41 60.77 106.67 60.26 100.41 57.93C95.8301 56.22 94.1701 52.37 92.1901 48.46C91.1101 46.32 90.3468 46.4267 89.9001 48.78C89.3901 51.47 88.5201 54.61 86.0101 56.28C83.3235 58.08 80.6168 57.18 77.8901 53.58" stroke="#484848" stroke-width="2"/>
<path d="M55.4 62.43C54.0134 60.7367 52.9834 58.7134 52.31 56.36C52.2639 56.2018 52.1821 56.0518 52.07 55.92C50.28 53.79 47.86 52.76 46.67 50.44C45.4834 48.14 44.8167 46.76 44.67 46.3C43.6234 42.9334 42.2134 39.5367 40.44 36.11C40.3233 35.8816 40.12 35.7092 39.8745 35.6305C39.629 35.5518 39.3613 35.5732 39.13 35.69C38.5167 36.0034 37.82 36.0134 37.04 35.72" stroke="#333333" stroke-width="2"/>
<path d="M37.0398 35.72C35.3731 35.06 33.9831 35.3533 32.8698 36.6C32.0498 37.5133 31.2631 38.2933 30.5098 38.94C29.5165 39.8 28.7265 40.56 28.1398 41.22C25.6865 44.02 22.9765 46.8667 20.0098 49.76C19.3698 50.38 18.2665 51.79 16.6998 53.99C15.8398 55.2033 14.6931 56.5633 13.2598 58.07C9.99312 61.4833 7.73312 64.59 6.47979 67.39C4.11312 72.65 5.36645 77.1733 10.2398 80.96C10.7331 81.34 12.1531 82.13 14.4998 83.33C14.7465 83.4567 14.9598 83.62 15.1398 83.82C16.9198 85.8 18.6365 87.03 20.2898 87.51C20.8898 87.6833 22.7131 88.11 25.7598 88.79C26.6331 88.9833 27.8131 89.03 29.2998 88.93C30.5665 88.8433 31.7598 89 32.8798 89.4C33.1131 89.48 33.2731 89.6367 33.3598 89.87C33.4331 90.0767 33.5065 90.22 33.5798 90.3C33.7265 90.46 33.9631 90.5667 34.2898 90.62C35.4898 90.8133 36.5365 90.9 37.4298 90.88C39.4098 90.84 41.3198 91.69 43.5098 91.96C44.6698 92.1 45.5665 91.7933 46.1998 91.04C47.1998 89.86 47.8031 88.7833 48.0098 87.81C48.0831 87.47 48.0098 87.1633 47.7898 86.89C45.8431 84.3967 43.8131 82.31 41.6998 80.63C41.4373 80.4265 41.1313 80.2924 40.8098 80.24C36.9998 79.67 33.1398 76.82 33.9098 72.53C34.0698 71.6433 34.7931 70.93 36.0798 70.39C36.1131 70.3767 37.6098 69.5967 40.5698 68.05C40.8577 67.8995 41.1827 67.8303 41.5098 67.85C44.2431 68.0233 46.0231 68.09 46.8498 68.05C48.7298 67.97 50.4965 68.0633 52.1498 68.33C55.1831 68.83 58.8198 69.0167 63.0598 68.89C63.1196 68.8866 63.1772 68.8658 63.2255 68.8303C63.2738 68.7948 63.3108 68.7461 63.3319 68.69C63.3531 68.6339 63.3576 68.5729 63.3447 68.5143C63.3319 68.4557 63.3024 68.4021 63.2598 68.36C62.5731 67.7333 61.9698 66.92 61.4498 65.92C61.3198 65.6664 61.1134 65.46 60.8598 65.33L55.3998 62.43" stroke="#292929" stroke-width="2"/>
<path d="M37.0402 35.72C32.6002 37.84 30.4402 40.27 27.5502 44.24C26.2435 46.0467 24.8302 47.6934 23.3102 49.18C21.1035 51.34 18.7968 53.9634 16.3902 57.05C16.1835 57.3167 16.0835 57.6234 16.0902 57.97C16.2168 63.1767 18.1502 67.8767 21.8902 72.07C23.0902 73.42 25.1102 74.38 26.7802 73.79C29.4268 72.8567 31.8502 71.4634 34.0502 69.61C36.2568 67.75 37.6668 66.6634 38.2802 66.35C40.0868 65.4234 41.8902 65.0834 43.6902 65.33C45.9368 65.6367 48.1768 65.99 50.4102 66.39C53.2602 66.91 56.3702 66.17 55.4002 62.43" stroke="#484848" stroke-width="2"/>
<path d="M67.5801 59.4C64.7868 59.6133 61.2268 59.1133 56.9001 57.9C55.9268 57.6267 55.6935 57.9267 56.2001 58.8L57.0401 60.26C57.5718 61.1766 58.4406 61.848 59.4601 62.13C61.8335 62.7767 63.6268 64.2033 64.8401 66.41C64.9201 66.5581 65.033 66.6859 65.1702 66.7835C65.3074 66.8811 65.4651 66.946 65.6313 66.973C65.7974 67.0001 65.9676 66.9886 66.1286 66.9395C66.2896 66.8905 66.4373 66.8051 66.5601 66.69C68.1268 65.23 70.1835 63.5733 72.7301 61.72C74.1168 60.7067 75.1701 59.4333 75.8901 57.9C76.2901 57.06 76.2035 56.4233 75.6301 55.99C75.5139 55.9019 75.3772 55.8454 75.2334 55.8261C75.0896 55.8068 74.9437 55.8254 74.8101 55.88C72.9501 56.6067 71.3201 57.49 69.9201 58.53C69.2404 59.0333 68.4294 59.3348 67.5801 59.4Z" stroke="#292929" stroke-width="2"/>
<path d="M101 62.75C99.7866 62.4033 97.3366 62.2133 93.6499 62.18C93.2966 62.18 93.0999 62.3567 93.0599 62.71C92.6666 66.41 92.0566 69.7067 91.2299 72.6C91.1299 72.9467 91.2632 73.1167 91.6299 73.11C95.0032 73.0167 97.3699 72.9533 98.7299 72.92C102.42 72.84 104.79 74.07 106.91 76.7C107.117 76.96 107.18 77.25 107.1 77.57C106.82 78.7367 105.957 79.3533 104.51 79.42C104.483 79.42 104.467 79.4367 104.46 79.47L104.39 79.73C104.37 79.81 104.403 79.85 104.49 79.85L151.26 78.61C152.267 78.5833 152.363 78.2767 151.55 77.69L146.1 73.73C145.207 73.0833 144.21 72.8033 143.11 72.89C138.54 73.26 133.68 70.89 129.68 69.83C121.713 67.7233 113.713 65.7433 105.68 63.89C103.28 63.3367 101.72 62.9567 101 62.75Z" stroke="#8A8A8A" stroke-width="2"/>
<path d="M88.33 71.84L88.83 66.23C88.8378 66.1415 88.8231 66.0521 88.7873 65.9707C88.7516 65.8893 88.696 65.8188 88.6262 65.7662C88.5564 65.7136 88.4748 65.6807 88.3895 65.6709C88.3042 65.661 88.2182 65.6745 88.14 65.71C85.5867 66.8834 83.7734 67.6234 82.7 67.93C80.86 68.4567 76.5667 69.5434 69.82 71.19C67.76 71.69 66.68 72.48 65.59 74.16C65.4468 74.3814 65.2471 74.5604 65.0116 74.6787C64.776 74.797 64.5131 74.8502 64.2501 74.8329C63.9871 74.8156 63.7334 74.7283 63.5154 74.5801C63.2974 74.4319 63.1229 74.2282 63.01 73.99C62.83 73.6034 62.73 72.8934 62.71 71.86C62.71 71.52 62.5367 71.3467 62.19 71.34C58.61 71.28 55.92 71.85 52.66 71.31C49.0134 70.7034 44.8867 70.6934 40.28 71.28C38.6667 71.48 38.03 72.4167 38.37 74.09C38.4367 74.4167 38.6367 74.6 38.97 74.64C49.89 75.9067 58.8934 76.1867 65.98 75.48C69.8467 75.0934 71.8434 74.9034 71.97 74.91C74.3034 74.99 76.2967 74.8434 77.95 74.47C79.3034 74.1634 81.3534 73.9634 84.1 73.87C84.7067 73.85 85.29 73.72 85.85 73.48C86.6767 73.12 87.22 72.8934 87.48 72.8C88.0067 72.6134 88.29 72.2934 88.33 71.84Z" stroke="#3F3F3F" stroke-width="2"/>
<path d="M150.31 68.12C149.99 68.7467 149.457 70.04 148.71 72C148.577 72.34 148.657 72.6167 148.95 72.83L155.8 77.8C156.193 78.0867 156.633 78.2233 157.12 78.21L174.75 77.74C174.788 77.7396 174.825 77.7288 174.858 77.7087C174.89 77.6886 174.917 77.6601 174.934 77.6262C174.952 77.5922 174.96 77.5542 174.957 77.5161C174.955 77.478 174.942 77.4413 174.92 77.41C174.44 76.6567 173.763 76.0333 172.89 75.54C167.723 72.64 161.473 69.8433 154.14 67.15C152.91 66.69 150.97 66.82 150.31 68.12Z" stroke="#8A8A8A" stroke-width="2"/>
<path d="M188.3 79.81C182.747 79.8967 176.98 80.09 171 80.39C164.6 80.71 158.844 80.9267 153.73 81.04C147.857 81.1667 141.984 81.34 136.11 81.56C130.164 81.7867 124.074 81.9033 117.84 81.91C117.674 81.91 115.284 81.9733 110.67 82.1C108.417 82.16 106.027 82.1033 103.5 81.93C99.7735 81.67 96.0069 82.0533 92.2002 83.08" stroke="#696869" stroke-width="2"/>
<path d="M92.2 83.08C90.2467 83.1134 88.2867 83.16 86.32 83.22C85.8467 83.2334 85.5067 83.1367 85.3 82.93C85.0667 82.6967 84.8833 82.3567 84.75 81.91" stroke="#4A4A4B" stroke-width="2"/>
<path d="M84.7501 81.91C84.9101 80.87 84.6668 80.3167 84.0201 80.25C81.8334 80.0167 79.5234 80.13 77.0901 80.59C74.0901 81.15 71.8334 81.4467 70.3201 81.48C64.7468 81.6067 61.3001 81.68 59.9801 81.7C59.1868 81.7133 59.1268 81.9333 59.8001 82.36C61.4801 83.4067 63.3834 83.8767 65.5101 83.77C66.9501 83.6967 68.3668 83.68 69.7601 83.72" stroke="#292929" stroke-width="2"/>
<path d="M69.7603 83.72C73.7203 83.22 75.7569 84.1333 75.8703 86.46" stroke="#4A4A4B" stroke-width="2"/>
<path d="M75.8702 86.46C75.8235 86.58 75.7735 86.7034 75.7202 86.83" stroke="#696869" stroke-width="2"/>
<path d="M75.7201 86.83L70.8301 86.89C69.5368 86.91 69.2268 87.3934 69.9001 88.34C70.3268 88.94 70.2868 90.0134 69.7801 91.56C69.5001 92.4 69.0568 93.2334 68.4501 94.06C68.1301 94.5 68.2401 94.68 68.7801 94.6C70.1801 94.3867 71.6268 94.1467 73.1201 93.88C74.6534 93.6067 76.0068 93.17 77.1801 92.57C79.5601 91.34 82.1201 90.93 84.4201 89.17C85.4201 88.41 86.3068 87.7567 87.0801 87.21C87.3534 87.0167 87.6601 86.9134 88.0001 86.9L90.6501 86.79" stroke="#333333" stroke-width="2"/>
<path d="M90.6499 86.79C96.4632 86.35 102.387 85.8767 108.42 85.37C109.413 85.29 110.63 85.26 112.07 85.28C113.343 85.3 114.567 85.2734 115.74 85.2C121.54 84.8467 131.283 84.4067 144.97 83.88C147.123 83.8 150.33 83.59 154.59 83.25C158.343 82.95 161.567 82.8167 164.26 82.85C167.32 82.8967 170.497 82.7034 173.79 82.27C176.123 81.97 179.303 81.83 183.33 81.85C184.797 81.8567 187.073 81.6667 190.16 81.28C192.433 80.9934 194.73 80.8534 197.05 80.86" stroke="#696869" stroke-width="2"/>
<path d="M197.05 80.86C199.19 80.82 201.34 80.7333 203.5 80.6C204.953 80.5067 206.49 80.1467 208.11 79.52C210.13 78.74 212.26 78.4 214.5 78.5C216.913 78.6 221.08 78.76 227 78.98C228.133 79.02 229.59 78.2567 231.37 76.69C231.776 76.3233 231.706 76.1667 231.16 76.22C230.533 76.28 229.996 76.2433 229.55 76.11C229.323 76.0433 228.8 75.5967 227.98 74.77C225.19 71.94 221.03 76.3 218.22 73.36C217.94 73.06 217.6 72.9467 217.2 73.02L208.55 74.64C208.245 74.6952 207.93 74.6557 207.65 74.5269C207.369 74.3981 207.135 74.1862 206.98 73.92L206.1 72.38C205.886 72.0133 205.583 71.9167 205.19 72.09L188.3 79.81" stroke="#8A8A8A" stroke-width="2"/>
<path d="M197.05 80.86L188.3 79.81" stroke="#DEDDDF" stroke-width="2"/>
<path d="M90.65 86.79C87.1834 84.9567 83.98 85.4266 81.04 88.2C80.8044 88.4291 80.511 88.5914 80.19 88.67C76.63 89.51 75.14 88.8967 75.72 86.83" stroke="#888788" stroke-width="2"/>
<path d="M75.8701 86.46L76.7501 84.42C76.8104 84.2816 76.9067 84.1625 77.0285 84.0761C77.1502 83.9896 77.2927 83.939 77.4401 83.93L92.2001 83.08" stroke="#9F9EA0" stroke-width="2"/>
<path d="M84.75 81.91L69.5 81.89C69.3127 81.8901 69.1317 81.9575 68.99 82.08C68.2433 82.72 68.5 83.2667 69.76 83.72" stroke="#5F5F5F" stroke-width="2"/>
<path d="M50.3401 86.02C50.7601 87.4867 50.7801 88.5667 50.4001 89.26C49.4868 90.9134 48.4101 92.5967 47.1701 94.31C47.1408 94.3474 47.1223 94.3922 47.1166 94.4393C47.1109 94.4865 47.1183 94.5343 47.1379 94.5776C47.1574 94.6209 47.1885 94.658 47.2277 94.6849C47.2669 94.7118 47.3127 94.7274 47.3601 94.73C48.5935 94.83 49.7068 95.04 50.7001 95.36C51.9268 95.76 53.0101 95.9634 53.9501 95.97C55.7768 95.9967 58.3935 96.2334 61.8001 96.68C62.7601 96.8067 63.5501 96.39 64.1701 95.43C64.9701 94.19 65.9035 92.5367 66.9701 90.47C67.5635 89.3234 67.2635 88.5034 66.0701 88.01C63.4435 86.93 59.9835 85.54 55.6901 83.84C54.0235 83.18 51.7901 82.9734 48.9901 83.22C48.6435 83.2534 48.5601 83.42 48.7401 83.72C49.2401 84.55 50.0601 85.08 50.3401 86.02Z" stroke="#8A8A8A" stroke-width="2"/>
<path d="M174.81 85.07L165.36 84.95C165.355 84.95 165.35 84.9521 165.346 84.9559C165.342 84.9596 165.34 84.9647 165.34 84.97L165.33 85.01C165.325 85.3233 165.44 85.635 165.667 85.9273C165.894 86.2197 166.23 86.4869 166.655 86.7136C167.079 86.9402 167.584 87.122 168.141 87.2484C168.698 87.3748 169.296 87.4433 169.9 87.45H170.22C171.435 87.4637 172.602 87.2272 173.466 86.7923C174.33 86.3575 174.821 85.7597 174.83 85.13V85.09C174.83 85.0847 174.828 85.0796 174.824 85.0759C174.821 85.0721 174.816 85.07 174.81 85.07Z" stroke="#8A8A8A" stroke-width="2"/>
<path d="M44.7702 111.86C44.5102 113.36 44.0835 114.567 43.4902 115.48C43.2969 115.78 43.2969 116.083 43.4902 116.39C43.8835 116.997 44.5602 117.477 45.5202 117.83C45.8469 117.95 46.1435 117.9 46.4102 117.68C47.3569 116.887 48.7102 116.543 50.4702 116.65C50.7835 116.663 51.0435 116.553 51.2502 116.32C52.7169 114.66 53.3402 112.397 53.1202 109.53C53.0735 108.85 52.8669 105.63 52.5002 99.87C52.4402 98.9567 51.9702 98.3833 51.0902 98.15C49.3302 97.6833 47.5835 97.2533 45.8502 96.86C45.2369 96.72 44.7002 96.4833 44.2402 96.15C43.5735 95.6567 43.0302 95.3567 42.6102 95.25C41.8969 95.0633 41.7735 95.2667 42.2402 95.86L43.4402 97.38C43.6535 97.6533 43.8869 97.6467 44.1402 97.36C44.2135 97.2733 44.3135 97.1967 44.4402 97.13C44.8802 96.8967 44.9535 97.0767 44.6602 97.67C44.2269 98.5567 44.3869 99.4333 45.1402 100.3C45.3602 100.553 45.4469 100.843 45.4002 101.17C45.1502 102.94 44.7702 104.26 44.9702 105.64C45.2369 107.493 45.1702 109.567 44.7702 111.86Z" stroke="#3F3F3F" stroke-width="2"/>
<path d="M67.5798 112.52C67.6898 115.8 69.3099 118.02 72.9799 117.51C74.7199 117.27 75.9565 116.567 76.6898 115.4C78.5698 112.42 79.2998 109.057 78.8798 105.31C78.4198 101.237 78.0898 98.1467 77.8898 96.04C77.8632 95.7 77.6798 95.56 77.3398 95.62L67.8798 97.39C67.5198 97.4567 67.3398 97.6733 67.3398 98.04C67.3998 104.88 67.4798 109.707 67.5798 112.52Z" stroke="#3F3F3F" stroke-width="2"/>
<path d="M66.6001 11.42C64.4134 12.0467 62.3834 13.0134 60.5101 14.32C60.2167 14.52 60.1134 14.7934 60.2001 15.14C61.1801 19.0067 62.1134 21.7867 63.0001 23.48C63.9001 25.19 66.1401 25.91 67.2501 27.2C69.1801 29.45 69.6001 33.93 69.9401 37.4C69.9582 37.5717 70.0259 37.7338 70.1345 37.8655C70.2432 37.9973 70.3878 38.0929 70.5501 38.14C71.0501 38.28 71.7701 38.3134 72.7101 38.24C73.5167 38.18 74.1901 37.74 74.7301 36.92C77.4301 32.87 75.6701 30.39 73.6801 26.66C73.0001 25.38 72.3901 23.99 71.8501 22.49C70.4367 18.6167 68.8467 14.9934 67.0801 11.62C67.0349 11.5351 66.962 11.4685 66.8742 11.4319C66.7865 11.3954 66.6894 11.3911 66.6001 11.42Z" stroke="#949495" stroke-width="2"/>
<path d="M58.54 36.76C59.1934 37.32 60.2367 37.2733 61.67 36.62" stroke="#9F9EA0" stroke-width="2"/>
<path d="M61.6701 36.62C63.0301 35.7067 63.5668 33.8367 63.2801 31.01C63.2001 30.17 62.8735 29.4133 62.3001 28.74C61.5468 27.8467 60.9835 27.2267 60.6101 26.88C60.3901 26.6733 60.2435 26.41 60.1701 26.09L59.0901 21.52C58.7301 20 57.9901 19.75 56.8701 20.77L56.1701 21.42C55.1368 22.36 54.9701 23.4333 55.6701 24.64L57.5501 27.89C57.7168 28.19 57.8168 28.5133 57.8501 28.86L58.5401 36.76" stroke="#949495" stroke-width="2"/>
<path d="M61.6702 36.62C62.4968 35.2667 62.9102 34.41 62.9102 34.05C62.9103 33.8059 62.8819 33.5778 62.8293 33.402C62.7767 33.2262 62.7031 33.1128 62.6202 33.08C61.1402 32.48 59.8902 31.5667 58.8702 30.34C58.8259 30.2816 58.7639 30.2391 58.6935 30.2188C58.623 30.1985 58.5479 30.2015 58.4793 30.2274C58.4107 30.2532 58.3523 30.3006 58.3129 30.3623C58.2734 30.4241 58.2549 30.4969 58.2602 30.57L58.5402 36.76" stroke="#B2B1B3" stroke-width="2"/>
<path d="M62.4301 39.64C62.3701 39.4542 62.2416 39.2981 62.0708 39.2034C61.9 39.1087 61.6996 39.0825 61.5101 39.13C59.3001 39.69 59.5001 43.82 59.8401 45.34C59.905 45.6319 60.0489 45.9004 60.2561 46.116C60.4633 46.3316 60.7258 46.486 61.0149 46.5624C61.304 46.6388 61.6085 46.6342 61.8952 46.5491C62.1818 46.4641 62.4395 46.3018 62.6401 46.08C63.2401 45.42 63.4401 45.02 63.3501 44.01C63.2235 42.6833 62.9168 41.2267 62.4301 39.64Z" stroke="#9F9EA0" stroke-width="2"/>
<path d="M16.93 48.57C17.1034 48.65 17.2534 48.6567 17.38 48.59C17.4734 48.5433 17.52 48.4667 17.52 48.36C17.52 48.2133 17.43 48.1467 17.25 48.16C18.4167 46.9733 19.35 45.6233 20.05 44.11C20.1967 43.8033 20.43 43.6067 20.75 43.52C21.4167 43.34 21.6967 42.8467 21.59 42.04C21.5801 41.9676 21.5852 41.894 21.6051 41.8238C21.625 41.7537 21.6592 41.6887 21.7054 41.633C21.7516 41.5774 21.8089 41.5323 21.8734 41.5008C21.938 41.4692 22.0084 41.4519 22.08 41.45C23.3 41.4033 23.9134 40.91 23.92 39.97C23.92 39.5833 24.1134 39.3867 24.5 39.38L24.84 39.37C25.08 39.3633 25.2867 39.28 25.46 39.12C26.6667 37.9867 27.8634 36.82 29.05 35.62C30.65 34.0067 31.91 33.0867 32.83 32.86C33.9967 32.5667 35.4434 32.2967 37.17 32.05C37.45 32.01 37.55 31.8533 37.47 31.58C36.59 28.7533 36.9167 26.5433 38.45 24.95C41.0567 22.2367 43.2967 19.8667 45.17 17.84C48.21 14.5533 50.68 12.44 52.58 11.5C54.6667 10.4733 57.0067 9.51001 59.6 8.61001C61.8 7.85001 64.2534 7.74668 66.96 8.30001C73.0467 9.55335 77.7233 12.8567 80.99 18.21C81.1767 18.5167 81.44 18.7367 81.78 18.87C84.56 19.96 85.07 21.75 86.29 24.41C86.68 25.26 87.42 25.67 88.17 26.07C92.1167 28.1433 97.5467 30.57 104.46 33.35C108.5 34.9767 114.22 37.9567 121.62 42.29C127.35 45.64 133.96 51.49 138.35 55.15C139.37 56.0033 142.75 58.22 148.49 61.8C150.703 63.1867 153.7 64.53 157.48 65.83C163.82 68.0167 169.86 70.88 175.6 74.42C176.06 74.7067 176.91 75.7234 178.15 77.47C178.243 77.5994 178.366 77.7043 178.508 77.7757C178.651 77.8471 178.81 77.8829 178.97 77.88L185.13 77.72C185.343 77.7133 185.513 77.6233 185.64 77.45L186.21 76.67C186.39 76.4167 186.633 76.2833 186.94 76.27C189.9 76.14 190.86 75.64 194.29 73.83C195.85 73.0033 197.45 72.2967 199.09 71.71C201.523 70.8433 203.457 70.0733 204.89 69.4C205.203 69.2533 205.527 69.2233 205.86 69.31C206.867 69.5633 207.723 70.1967 208.43 71.21C208.65 71.5367 208.957 71.6633 209.35 71.59L218.09 69.96C218.643 69.8533 219.063 70.0467 219.35 70.54L219.9 71.49C220.073 71.7967 220.323 71.8767 220.65 71.73C222.683 70.8233 224.75 70.63 226.85 71.15C226.923 71.17 227.523 71.2533 228.65 71.4C229.49 71.5067 230.09 72.05 230.45 73.03C230.57 73.3433 230.787 73.56 231.1 73.68C231.833 73.9533 232.743 74.1067 233.83 74.14C234.145 74.1475 234.446 74.2757 234.671 74.4987C234.895 74.7216 235.027 75.0224 235.04 75.34C235.15 77.87 231.64 79.91 229.28 81.07C227.94 81.7234 226.077 81.8633 223.69 81.49C221.31 81.1167 218.077 81.0267 213.99 81.22C211.61 81.3267 209.023 81.9567 206.23 83.11C205.35 83.4767 204.493 83.63 203.66 83.57C200.873 83.3633 198.61 83.4067 196.87 83.7C195.123 83.9933 192.907 84.1067 190.22 84.04C186.047 83.9333 181.99 84.1433 178.05 84.67C177.703 84.7167 177.47 84.9 177.35 85.22C176.143 88.4 173.983 90.0633 170.87 90.21C169.557 90.27 168.007 89.8133 166.22 88.84C163.97 87.63 161.92 86.71 161.42 86.05C161.22 85.79 160.953 85.66 160.62 85.66C154.973 85.7667 149.45 85.9734 144.05 86.28C134.87 86.8 129.347 87.1033 127.48 87.19C117.667 87.6234 107.4 88.1433 96.68 88.75C94.3867 88.8767 92.0934 88.9633 89.8 89.01C89.4734 89.0167 89.1667 89.1033 88.88 89.27L80.55 94.08C80.2034 94.28 80.0667 94.58 80.14 94.98C80.6934 97.8534 81.0434 102.037 81.19 107.53C81.31 111.95 80.24 115.837 77.98 119.19C77.1334 120.45 75.98 121.19 74.52 121.41C70.7867 121.957 67.8233 120.637 65.63 117.45C64.57 115.9 64.43 111.25 64.64 108.86C64.9134 105.633 65.0267 102.437 64.98 99.27C64.9734 99.1567 64.9167 99.1 64.81 99.1L55.16 98.83C55.04 98.83 54.9867 98.89 55 99.01C55.4334 103.757 55.7567 107.093 55.97 109.02C56.39 112.753 55.7 116.127 53.9 119.14C52.19 122 48.72 121.71 45.51 121.22C42.8233 120.8 41.1 119.313 40.34 116.76C39.64 114.39 40.58 111.89 40.6 109.44C40.6267 105.613 40.6334 102.493 40.62 100.08C40.61 98.28 39.65 96.97 39.92 95.44C39.9867 95.0667 39.8367 94.83 39.47 94.73C37.9634 94.3167 33.35 93.2733 25.63 91.6C23.4567 91.1333 21.1534 90.39 18.72 89.37C16.6934 88.51 14.7367 87.3133 12.85 85.78C12.31 85.34 11.0334 84.3133 9.02002 82.7C7.16669 81.2133 5.89668 79.97 5.21002 78.97C0.430018 72.02 4.11002 64.8 8.63002 58.88C11.3034 55.3667 14.07 51.93 16.93 48.57ZM67.75 56.68C68.5233 56.3267 70.8334 54.95 74.68 52.55C76.8467 51.2033 78.3833 49.7267 79.29 48.12C81.83 43.64 83.03 39.4833 82.89 35.65C82.8433 34.43 82.9767 33.2 83.29 31.96C83.5434 30.9667 83.75 29.7567 83.91 28.33C83.95 27.9767 83.88 27.65 83.7 27.35C79.59 20.54 77.52 16.67 72.2 13.29C68.54 10.98 63.61 10.06 59.5 11.83C58.4 12.31 57.5 12.6067 56.8 12.72C54.45 13.1 52.82 14.6 51.2 16.21C48.34 19.0633 46.1534 21.4233 44.64 23.29C43.12 25.17 38.8 26.73 39.45 29.52C39.6567 30.4067 39.9 31.3 40.18 32.2C40.28 32.52 40.4534 32.7933 40.7 33.02C42.6067 34.78 43.9 36.6733 44.58 38.7C45.2867 40.7933 46.1867 42.7167 47.28 44.47C48.4 46.25 48 47.92 49.52 49.48C52.41 52.45 55.12 54.71 59.01 55.66C60.51 56.02 62.93 57.11 65.08 57.06C66.3734 57.0333 67.2634 56.9067 67.75 56.68ZM77.89 53.58C78.6033 57.4533 78.2833 59.9833 76.93 61.17C74.69 63.15 72.13 65.2867 69.25 67.58C68.15 68.46 68.29 68.7633 69.67 68.49C72.73 67.89 75.03 66.69 77.95 66.16C81.3767 65.5467 85.1167 64.3333 89.17 62.52C89.5967 62.3267 89.85 62.1433 89.93 61.97C90.05 61.6967 90.14 61.3867 90.2 61.04C90.224 60.88 90.2916 60.7293 90.3955 60.6042C90.4995 60.4791 90.6358 60.3843 90.79 60.33C92.8633 59.5967 94.78 59.3167 96.54 59.49C99.9067 59.81 103.227 60.3933 106.5 61.24C107.48 61.4933 109.897 61.9833 113.75 62.71C116.157 63.1633 118.567 63.7233 120.98 64.39C123.247 65.15 125.573 65.7767 127.96 66.27C131.58 67.01 134.42 68.26 137.67 69.59C138.33 69.8633 141.077 70.0133 145.91 70.04C146.257 70.04 146.51 69.8833 146.67 69.57C147.337 68.23 147.683 66.87 147.71 65.49C147.717 65.1367 147.587 64.8467 147.32 64.62C145.307 62.9667 143.563 61.6933 142.09 60.8C137.22 57.83 135.26 55.83 129.37 50.7C127.143 48.7533 125.03 47.21 123.03 46.07C121.317 45.09 119.05 43.76 116.23 42.08C114.963 41.3267 113.557 40.7667 112.01 40.4C111.683 40.3267 111.43 40.15 111.25 39.87C111.003 39.4967 110.79 39.26 110.61 39.16C103.517 35.54 96.0733 32.2333 88.28 29.24C88.1483 29.19 88.0078 29.1676 87.8671 29.174C87.7265 29.1805 87.5886 29.2158 87.4621 29.2776C87.3355 29.3395 87.2231 29.4266 87.1315 29.5337C87.04 29.6407 86.9714 29.7654 86.93 29.9C86.21 32.2533 85.7 34.71 85.4 37.27C85.0267 40.4967 84.5433 42.93 83.95 44.57C82.69 48.0633 80.67 51.0667 77.89 53.58ZM55.4 62.43C54.0134 60.7367 52.9834 58.7133 52.31 56.36C52.2639 56.2018 52.1821 56.0518 52.07 55.92C50.28 53.79 47.86 52.76 46.67 50.44C45.4833 48.14 44.8167 46.76 44.67 46.3C43.6234 42.9333 42.2134 39.5367 40.44 36.11C40.3233 35.8816 40.12 35.7092 39.8745 35.6305C39.629 35.5518 39.3613 35.5732 39.13 35.69C38.5167 36.0033 37.82 36.0133 37.04 35.72C35.3734 35.06 33.9834 35.3533 32.87 36.6C32.05 37.5133 31.2634 38.2933 30.51 38.94C29.5167 39.8 28.7267 40.56 28.14 41.22C25.6867 44.02 22.9767 46.8667 20.01 49.76C19.37 50.38 18.2667 51.79 16.7 53.99C15.84 55.2033 14.6934 56.5633 13.26 58.07C9.99335 61.4833 7.73335 64.59 6.48002 67.39C4.11335 72.65 5.36668 77.1733 10.24 80.96C10.7334 81.34 12.1534 82.13 14.5 83.33C14.7467 83.4567 14.96 83.62 15.14 83.82C16.92 85.8 18.6367 87.03 20.29 87.51C20.89 87.6833 22.7134 88.11 25.76 88.79C26.6334 88.9834 27.8134 89.03 29.3 88.93C30.5667 88.8433 31.76 89 32.88 89.4C33.1134 89.48 33.2734 89.6367 33.36 89.87C33.4334 90.0767 33.5067 90.22 33.58 90.3C33.7267 90.46 33.9634 90.5667 34.29 90.62C35.49 90.8134 36.5367 90.9 37.43 90.88C39.41 90.84 41.32 91.69 43.51 91.96C44.67 92.1 45.5667 91.7934 46.2 91.04C47.2 89.86 47.8034 88.7833 48.01 87.81C48.0834 87.47 48.01 87.1633 47.79 86.89C45.8434 84.3967 43.8134 82.31 41.7 80.63C41.4375 80.4265 41.1315 80.2924 40.81 80.24C37 79.67 33.14 76.82 33.91 72.53C34.07 71.6433 34.7934 70.93 36.08 70.39C36.1134 70.3767 37.61 69.5967 40.57 68.05C40.8579 67.8995 41.1829 67.8303 41.51 67.85C44.2434 68.0233 46.0233 68.09 46.85 68.05C48.73 67.97 50.4967 68.0633 52.15 68.33C55.1834 68.83 58.82 69.0167 63.06 68.89C63.1199 68.8866 63.1774 68.8658 63.2257 68.8303C63.274 68.7948 63.311 68.7461 63.3322 68.69C63.3533 68.6339 63.3578 68.5729 63.345 68.5143C63.3322 68.4557 63.3027 68.4021 63.26 68.36C62.5734 67.7333 61.97 66.92 61.45 65.92C61.32 65.6664 61.1136 65.46 60.86 65.33L55.4 62.43ZM67.58 59.4C64.7867 59.6133 61.2267 59.1133 56.9 57.9C55.9267 57.6267 55.6934 57.9267 56.2 58.8L57.04 60.26C57.5717 61.1766 58.4405 61.848 59.46 62.13C61.8334 62.7767 63.6267 64.2034 64.84 66.41C64.92 66.5581 65.0329 66.6859 65.1701 66.7835C65.3073 66.8812 65.465 66.946 65.6312 66.973C65.7973 67.0001 65.9675 66.9886 66.1285 66.9396C66.2895 66.8905 66.4372 66.8051 66.56 66.69C68.1267 65.23 70.1833 63.5733 72.73 61.72C74.1167 60.7067 75.17 59.4333 75.89 57.9C76.29 57.06 76.2033 56.4233 75.63 55.99C75.5138 55.9019 75.3771 55.8454 75.2333 55.8261C75.0895 55.8068 74.9436 55.8254 74.81 55.88C72.95 56.6067 71.32 57.49 69.92 58.53C69.2403 59.0333 68.4293 59.3349 67.58 59.4ZM101 62.75C99.7867 62.4033 97.3367 62.2133 93.65 62.18C93.2967 62.18 93.1 62.3567 93.06 62.71C92.6667 66.41 92.0567 69.7067 91.23 72.6C91.13 72.9467 91.2633 73.1167 91.63 73.11C95.0033 73.0167 97.37 72.9533 98.73 72.92C102.42 72.84 104.79 74.07 106.91 76.7C107.117 76.96 107.18 77.25 107.1 77.57C106.82 78.7367 105.957 79.3533 104.51 79.42C104.483 79.42 104.467 79.4367 104.46 79.47L104.39 79.73C104.37 79.81 104.403 79.85 104.49 79.85L151.26 78.61C152.267 78.5834 152.363 78.2767 151.55 77.69L146.1 73.73C145.207 73.0834 144.21 72.8033 143.11 72.89C138.54 73.26 133.68 70.89 129.68 69.83C121.713 67.7233 113.713 65.7433 105.68 63.89C103.28 63.3367 101.72 62.9567 101 62.75ZM88.33 71.84L88.83 66.23C88.8378 66.1415 88.8231 66.052 88.7873 65.9707C88.7516 65.8893 88.696 65.8188 88.6262 65.7662C88.5564 65.7136 88.4748 65.6807 88.3895 65.6708C88.3042 65.661 88.2182 65.6745 88.14 65.71C85.5867 66.8833 83.7733 67.6233 82.7 67.93C80.86 68.4567 76.5667 69.5433 69.82 71.19C67.76 71.69 66.68 72.48 65.59 74.16C65.4468 74.3813 65.2471 74.5604 65.0116 74.6787C64.776 74.797 64.5131 74.8502 64.2501 74.8329C63.987 74.8156 63.7334 74.7283 63.5154 74.5801C63.2974 74.4319 63.1229 74.2282 63.01 73.99C62.83 73.6033 62.73 72.8933 62.71 71.86C62.71 71.52 62.5367 71.3467 62.19 71.34C58.61 71.28 55.92 71.85 52.66 71.31C49.0134 70.7033 44.8867 70.6933 40.28 71.28C38.6667 71.48 38.03 72.4167 38.37 74.09C38.4367 74.4167 38.6367 74.6 38.97 74.64C49.89 75.9067 58.8934 76.1867 65.98 75.48C69.8467 75.0934 71.8434 74.9034 71.97 74.91C74.3034 74.99 76.2967 74.8434 77.95 74.47C79.3033 74.1634 81.3533 73.9633 84.1 73.87C84.7067 73.85 85.29 73.72 85.85 73.48C86.6767 73.12 87.22 72.8933 87.48 72.8C88.0067 72.6133 88.29 72.2933 88.33 71.84ZM150.31 68.12C149.99 68.7467 149.457 70.04 148.71 72C148.577 72.34 148.657 72.6167 148.95 72.83L155.8 77.8C156.193 78.0867 156.633 78.2234 157.12 78.21L174.75 77.74C174.788 77.7396 174.826 77.7288 174.858 77.7087C174.89 77.6887 174.917 77.6601 174.934 77.6262C174.952 77.5923 174.96 77.5542 174.957 77.5161C174.955 77.478 174.942 77.4413 174.92 77.41C174.44 76.6567 173.763 76.0333 172.89 75.54C167.723 72.64 161.473 69.8433 154.14 67.15C152.91 66.69 150.97 66.82 150.31 68.12ZM188.3 79.81C182.747 79.8967 176.98 80.09 171 80.39C164.6 80.71 158.843 80.9267 153.73 81.04C147.857 81.1667 141.983 81.34 136.11 81.56C130.163 81.7867 124.073 81.9034 117.84 81.91C117.673 81.91 115.283 81.9734 110.67 82.1C108.417 82.16 106.027 82.1033 103.5 81.93C99.7733 81.67 96.0067 82.0534 92.2 83.08C90.2467 83.1133 88.2867 83.16 86.32 83.22C85.8467 83.2334 85.5067 83.1367 85.3 82.93C85.0667 82.6967 84.8833 82.3567 84.75 81.91C84.91 80.87 84.6667 80.3167 84.02 80.25C81.8333 80.0167 79.5233 80.13 77.09 80.59C74.09 81.15 71.8334 81.4467 70.32 81.48C64.7467 81.6067 61.3 81.68 59.98 81.7C59.1867 81.7133 59.1267 81.9333 59.8 82.36C61.48 83.4067 63.3834 83.8767 65.51 83.77C66.95 83.6967 68.3667 83.68 69.76 83.72C73.72 83.22 75.7567 84.1333 75.87 86.46C75.8233 86.58 75.7734 86.7034 75.72 86.83L70.83 86.89C69.5367 86.91 69.2267 87.3933 69.9 88.34C70.3267 88.94 70.2867 90.0133 69.78 91.56C69.5 92.4 69.0567 93.2333 68.45 94.06C68.13 94.5 68.24 94.68 68.78 94.6C70.18 94.3867 71.6267 94.1467 73.12 93.88C74.6534 93.6067 76.0067 93.17 77.18 92.57C79.56 91.34 82.12 90.93 84.42 89.17C85.42 88.41 86.3067 87.7567 87.08 87.21C87.3533 87.0167 87.66 86.9134 88 86.9L90.65 86.79C96.4633 86.35 102.387 85.8767 108.42 85.37C109.413 85.29 110.63 85.26 112.07 85.28C113.343 85.3 114.567 85.2733 115.74 85.2C121.54 84.8467 131.283 84.4067 144.97 83.88C147.123 83.8 150.33 83.59 154.59 83.25C158.343 82.95 161.567 82.8167 164.26 82.85C167.32 82.8967 170.497 82.7033 173.79 82.27C176.123 81.97 179.303 81.83 183.33 81.85C184.797 81.8567 187.073 81.6667 190.16 81.28C192.433 80.9933 194.73 80.8533 197.05 80.86C199.19 80.82 201.34 80.7333 203.5 80.6C204.953 80.5067 206.49 80.1467 208.11 79.52C210.13 78.74 212.26 78.4 214.5 78.5C216.913 78.6 221.08 78.76 227 78.98C228.133 79.02 229.59 78.2567 231.37 76.69C231.777 76.3233 231.707 76.1667 231.16 76.22C230.533 76.28 229.997 76.2433 229.55 76.11C229.323 76.0434 228.8 75.5967 227.98 74.77C225.19 71.94 221.03 76.3 218.22 73.36C217.94 73.06 217.6 72.9467 217.2 73.02L208.55 74.64C208.245 74.6952 207.931 74.6557 207.65 74.5269C207.369 74.3981 207.135 74.1862 206.98 73.92L206.1 72.38C205.887 72.0133 205.583 71.9167 205.19 72.09L188.3 79.81ZM50.34 86.02C50.76 87.4867 50.78 88.5667 50.4 89.26C49.4867 90.9134 48.41 92.5967 47.17 94.31C47.1407 94.3474 47.1222 94.3921 47.1165 94.4393C47.1108 94.4865 47.1182 94.5343 47.1377 94.5776C47.1573 94.6209 47.1884 94.658 47.2276 94.6849C47.2668 94.7117 47.3126 94.7273 47.36 94.73C48.5934 94.83 49.7067 95.04 50.7 95.36C51.9267 95.76 53.01 95.9633 53.95 95.97C55.7767 95.9967 58.3934 96.2334 61.8 96.68C62.76 96.8067 63.55 96.39 64.17 95.43C64.97 94.19 65.9034 92.5367 66.97 90.47C67.5633 89.3233 67.2634 88.5033 66.07 88.01C63.4434 86.93 59.9834 85.54 55.69 83.84C54.0233 83.18 51.79 82.9734 48.99 83.22C48.6434 83.2533 48.56 83.42 48.74 83.72C49.24 84.55 50.06 85.08 50.34 86.02ZM174.81 85.07L165.36 84.95C165.355 84.95 165.35 84.9521 165.346 84.9559C165.342 84.9596 165.34 84.9647 165.34 84.97L165.33 85.01C165.325 85.3233 165.44 85.635 165.667 85.9273C165.894 86.2197 166.23 86.4869 166.654 86.7136C167.079 86.9402 167.584 87.122 168.141 87.2484C168.698 87.3748 169.296 87.4433 169.9 87.45H170.22C171.434 87.4637 172.602 87.2272 173.466 86.7923C174.33 86.3575 174.82 85.7597 174.83 85.13V85.09C174.83 85.0847 174.828 85.0796 174.824 85.0759C174.82 85.0721 174.815 85.07 174.81 85.07ZM44.77 111.86C44.51 113.36 44.0834 114.567 43.49 115.48C43.2967 115.78 43.2967 116.083 43.49 116.39C43.8834 116.997 44.56 117.477 45.52 117.83C45.8467 117.95 46.1434 117.9 46.41 117.68C47.3567 116.887 48.71 116.543 50.47 116.65C50.7834 116.663 51.0434 116.553 51.25 116.32C52.7167 114.66 53.34 112.397 53.12 109.53C53.0734 108.85 52.8667 105.63 52.5 99.87C52.44 98.9567 51.97 98.3833 51.09 98.15C49.33 97.6833 47.5834 97.2533 45.85 96.86C45.2367 96.72 44.7 96.4834 44.24 96.15C43.5734 95.6567 43.03 95.3567 42.61 95.25C41.8967 95.0633 41.7734 95.2667 42.24 95.86L43.44 97.38C43.6534 97.6533 43.8867 97.6467 44.14 97.36C44.2134 97.2733 44.3134 97.1967 44.44 97.13C44.88 96.8967 44.9534 97.0767 44.66 97.67C44.2267 98.5567 44.3867 99.4333 45.14 100.3C45.36 100.553 45.4467 100.843 45.4 101.17C45.15 102.94 44.77 104.26 44.97 105.64C45.2367 107.493 45.17 109.567 44.77 111.86ZM67.58 112.52C67.69 115.8 69.31 118.02 72.98 117.51C74.72 117.27 75.9567 116.567 76.69 115.4C78.57 112.42 79.3 109.057 78.88 105.31C78.42 101.237 78.09 98.1467 77.89 96.04C77.8633 95.7 77.68 95.56 77.34 95.62L67.88 97.39C67.52 97.4567 67.34 97.6733 67.34 98.04C67.4 104.88 67.48 109.707 67.58 112.52Z" fill="#141414"/>
<path d="M67.7499 56.6799C67.2632 56.9066 66.3732 57.0333 65.0799 57.0599C62.9299 57.1099 60.5099 56.0199 59.0099 55.6599C55.1199 54.7099 52.4099 52.4499 49.5199 49.4799C47.9999 47.9199 48.3999 46.2499 47.2799 44.4699C46.1866 42.7166 45.2866 40.7933 44.5799 38.6999C43.8999 36.6733 42.6066 34.7799 40.6999 33.0199C40.4532 32.7933 40.2799 32.5199 40.1799 32.1999C39.8999 31.2999 39.6566 30.4066 39.4499 29.5199C38.7999 26.7299 43.1199 25.1699 44.6399 23.2899C46.1532 21.4233 48.3399 19.0633 51.1999 16.2099C52.8199 14.5999 54.4499 13.0999 56.7999 12.7199C57.4999 12.6066 58.3999 12.3099 59.4999 11.8299C63.6099 10.0599 68.5399 10.9799 72.1999 13.2899C77.5199 16.6699 79.5899 20.5399 83.6999 27.3499C83.8799 27.6499 83.9499 27.9766 83.9099 28.3299C83.7499 29.7566 83.5432 30.9666 83.2899 31.9599C82.9766 33.1999 82.8432 34.4299 82.8899 35.6499C83.0299 39.4833 81.8299 43.6399 79.2899 48.1199C78.3832 49.7266 76.8466 51.2033 74.6799 52.5499C70.8332 54.9499 68.5232 56.3266 67.7499 56.6799ZM66.5999 11.4199C64.4132 12.0466 62.3832 13.0133 60.5099 14.3199C60.2166 14.5199 60.1132 14.7933 60.1999 15.1399C61.1799 19.0066 62.1132 21.7866 62.9999 23.4799C63.8999 25.1899 66.1399 25.9099 67.2499 27.1999C69.1799 29.4499 69.5999 33.9299 69.9399 37.3999C69.958 37.5716 70.0257 37.7337 70.1344 37.8655C70.243 37.9973 70.3877 38.0928 70.5499 38.1399C71.0499 38.2799 71.7699 38.3133 72.7099 38.2399C73.5166 38.1799 74.1899 37.7399 74.7299 36.9199C77.4299 32.8699 75.6699 30.3899 73.6799 26.6599C72.9999 25.3799 72.3899 23.9899 71.8499 22.4899C70.4366 18.6166 68.8466 14.9933 67.0799 11.6199C67.0347 11.535 66.9618 11.4684 66.8741 11.4318C66.7863 11.3953 66.6893 11.3911 66.5999 11.4199ZM58.5399 36.7599C59.1932 37.3199 60.2366 37.2733 61.6699 36.6199C63.0299 35.7066 63.5666 33.8366 63.2799 31.0099C63.1999 30.1699 62.8732 29.4133 62.2999 28.7399C61.5466 27.8466 60.9832 27.2266 60.6099 26.8799C60.3899 26.6733 60.2432 26.4099 60.1699 26.0899L59.0899 21.5199C58.7299 19.9999 57.9899 19.7499 56.8699 20.7699L56.1699 21.4199C55.1366 22.3599 54.9699 23.4333 55.6699 24.6399L57.5499 27.8899C57.7166 28.1899 57.8166 28.5133 57.8499 28.8599L58.5399 36.7599ZM62.4299 39.6399C62.3698 39.4541 62.2414 39.2981 62.0706 39.2034C61.8998 39.1087 61.6993 39.0824 61.5099 39.1299C59.2999 39.6899 59.4999 43.8199 59.8399 45.3399C59.9048 45.6319 60.0486 45.9003 60.2558 46.1159C60.463 46.3315 60.7255 46.4859 61.0146 46.5623C61.3037 46.6388 61.6083 46.6342 61.8949 46.5491C62.1816 46.464 62.4393 46.3017 62.6399 46.0799C63.2399 45.4199 63.4399 45.0199 63.3499 44.0099C63.2232 42.6833 62.9166 41.2266 62.4299 39.6399Z" fill="#808081"/>
<path d="M66.6001 11.42C66.6894 11.3911 66.7865 11.3953 66.8742 11.4319C66.962 11.4684 67.0349 11.535 67.0801 11.62C68.8467 14.9933 70.4367 18.6166 71.8501 22.49C72.3901 23.99 73.0001 25.38 73.6801 26.66C75.6701 30.39 77.4301 32.87 74.7301 36.92C74.1901 37.74 73.5167 38.18 72.7101 38.24C71.7701 38.3133 71.0501 38.28 70.5501 38.14C70.3878 38.0928 70.2432 37.9973 70.1345 37.8655C70.0259 37.7337 69.9582 37.5716 69.9401 37.4C69.6001 33.93 69.1801 29.45 67.2501 27.2C66.1401 25.91 63.9001 25.19 63.0001 23.48C62.1134 21.7866 61.1801 19.0066 60.2001 15.14C60.1134 14.7933 60.2167 14.52 60.5101 14.32C62.3834 13.0133 64.4134 12.0466 66.6001 11.42Z" fill="#A7A7A8"/>
<path d="M61.6701 36.62C62.4968 35.2667 62.9101 34.41 62.9101 34.05C62.9103 33.8059 62.8818 33.5778 62.8293 33.402C62.7767 33.2262 62.7031 33.1128 62.6201 33.0801C61.1401 32.4801 59.8901 31.5667 58.8701 30.34C58.8258 30.2816 58.7639 30.2391 58.6934 30.2188C58.623 30.1985 58.5479 30.2015 58.4793 30.2274C58.4107 30.2532 58.3523 30.3006 58.3128 30.3623C58.2733 30.4241 58.2548 30.4969 58.2601 30.57L58.5401 36.76L57.8501 28.86C57.8168 28.5134 57.7168 28.19 57.5501 27.89L55.6701 24.64C54.9701 23.4334 55.1368 22.36 56.1701 21.42L56.8701 20.77C57.9901 19.75 58.7301 20 59.0901 21.52L60.1701 26.09C60.2435 26.41 60.3901 26.6734 60.6101 26.88C60.9835 27.2267 61.5468 27.8467 62.3001 28.74C62.8735 29.4134 63.2001 30.17 63.2801 31.01C63.5668 33.8367 63.0301 35.7067 61.6701 36.62Z" fill="#A7A7A8"/>
<path d="M120.98 64.39C114.41 60.77 106.67 60.26 100.41 57.93C95.8301 56.22 94.1701 52.37 92.1901 48.46C91.1101 46.32 90.3468 46.4267 89.9001 48.78C89.3901 51.47 88.5201 54.61 86.0101 56.28C83.3235 58.08 80.6168 57.18 77.8901 53.58C80.6701 51.0667 82.6901 48.0634 83.9501 44.57C84.5435 42.93 85.0268 40.4967 85.4001 37.27C85.7001 34.71 86.2101 32.2534 86.9301 29.9C86.9716 29.7654 87.0401 29.6407 87.1317 29.5337C87.2232 29.4266 87.3357 29.3395 87.4622 29.2776C87.5887 29.2158 87.7266 29.1805 87.8673 29.1741C88.0079 29.1676 88.1485 29.19 88.2801 29.24C96.0735 32.2334 103.517 35.54 110.61 39.16C110.79 39.26 111.003 39.4967 111.25 39.87C111.43 40.15 111.683 40.3267 112.01 40.4C113.557 40.7667 114.963 41.3267 116.23 42.08C119.05 43.76 121.317 45.09 123.03 46.07C125.03 47.21 127.143 48.7534 129.37 50.7C135.26 55.83 137.22 57.83 142.09 60.8C143.563 61.6934 145.307 62.9667 147.32 64.62C147.587 64.8467 147.717 65.1367 147.71 65.49C147.683 66.87 147.337 68.23 146.67 69.57C146.51 69.8834 146.257 70.04 145.91 70.04C141.077 70.0134 138.33 69.8634 137.67 69.59C134.42 68.26 131.58 67.01 127.96 66.27C125.573 65.7767 123.247 65.15 120.98 64.39Z" fill="#525252"/>
<path d="M61.6702 36.62C60.2368 37.2733 59.1935 37.32 58.5402 36.76L58.2602 30.57C58.2549 30.4969 58.2734 30.424 58.3129 30.3623C58.3523 30.3005 58.4107 30.2532 58.4793 30.2273C58.5479 30.2014 58.623 30.1984 58.6935 30.2187C58.7639 30.239 58.8259 30.2816 58.8702 30.34C59.8902 31.5666 61.1402 32.48 62.6202 33.08C62.7031 33.1128 62.7767 33.2261 62.8293 33.4019C62.8819 33.5777 62.9103 33.8059 62.9102 34.05C62.9102 34.41 62.4968 35.2666 61.6702 36.62Z" fill="#BDBBBE"/>
<path d="M37.0398 35.72C32.5998 37.84 30.4398 40.27 27.5498 44.24C26.2431 46.0467 24.8298 47.6933 23.3098 49.18C21.1031 51.34 18.7965 53.9633 16.3898 57.05C16.1831 57.3167 16.0831 57.6233 16.0898 57.97C16.2165 63.1767 18.1498 67.8767 21.8898 72.07C23.0898 73.42 25.1098 74.38 26.7798 73.79C29.4265 72.8567 31.8498 71.4633 34.0498 69.61C36.2565 67.75 37.6665 66.6633 38.2798 66.35C40.0865 65.4233 41.8898 65.0833 43.6898 65.33C45.9365 65.6367 48.1765 65.99 50.4098 66.39C53.2598 66.91 56.3698 66.17 55.3998 62.43L60.8598 65.33C61.1134 65.46 61.3198 65.6664 61.4498 65.92C61.9698 66.92 62.5731 67.7333 63.2598 68.36C63.3024 68.4021 63.3319 68.4557 63.3447 68.5143C63.3576 68.5729 63.3531 68.6339 63.3319 68.69C63.3108 68.7461 63.2738 68.7948 63.2255 68.8303C63.1772 68.8658 63.1196 68.8866 63.0598 68.89C58.8198 69.0167 55.1831 68.83 52.1498 68.33C50.4965 68.0633 48.7298 67.97 46.8498 68.05C46.0231 68.09 44.2431 68.0233 41.5098 67.85C41.1827 67.8303 40.8577 67.8995 40.5698 68.05C37.6098 69.5967 36.1131 70.3767 36.0798 70.39C34.7931 70.93 34.0698 71.6433 33.9098 72.53C33.1398 76.82 36.9998 79.67 40.8098 80.24C41.1313 80.2924 41.4373 80.4265 41.6998 80.63C43.8131 82.31 45.8431 84.3967 47.7898 86.89C48.0098 87.1633 48.0831 87.47 48.0098 87.81C47.8031 88.7833 47.1998 89.86 46.1998 91.04C45.5665 91.7933 44.6698 92.1 43.5098 91.96C41.3198 91.69 39.4098 90.84 37.4298 90.88C36.5365 90.9 35.4898 90.8133 34.2898 90.62C33.9631 90.5667 33.7265 90.46 33.5798 90.3C33.5065 90.22 33.4331 90.0767 33.3598 89.87C33.2731 89.6367 33.1131 89.48 32.8798 89.4C31.7598 89 30.5665 88.8433 29.2998 88.93C27.8131 89.03 26.6331 88.9833 25.7598 88.79C22.7131 88.11 20.8898 87.6833 20.2898 87.51C18.6365 87.03 16.9198 85.8 15.1398 83.82C14.9598 83.62 14.7465 83.4567 14.4998 83.33C12.1531 82.13 10.7331 81.34 10.2398 80.96C5.36645 77.1733 4.11312 72.65 6.47979 67.39C7.73312 64.59 9.99312 61.4833 13.2598 58.07C14.6931 56.5633 15.8398 55.2033 16.6998 53.99C18.2665 51.79 19.3698 50.38 20.0098 49.76C22.9765 46.8667 25.6865 44.02 28.1398 41.22C28.7265 40.56 29.5165 39.8 30.5098 38.94C31.2631 38.2933 32.0498 37.5133 32.8698 36.6C33.9831 35.3533 35.3731 35.06 37.0398 35.72Z" fill="#3D3D3D"/>
<path d="M55.4002 62.43C56.3702 66.17 53.2602 66.91 50.4102 66.39C48.1768 65.99 45.9368 65.6366 43.6902 65.33C41.8902 65.0833 40.0868 65.4233 38.2802 66.35C37.6668 66.6633 36.2568 67.75 34.0502 69.61C31.8502 71.4633 29.4268 72.8566 26.7802 73.79C25.1102 74.38 23.0902 73.42 21.8902 72.07C18.1502 67.8766 16.2168 63.1766 16.0902 57.97C16.0835 57.6233 16.1835 57.3166 16.3902 57.05C18.7968 53.9633 21.1035 51.34 23.3102 49.18C24.8302 47.6933 26.2435 46.0466 27.5502 44.24C30.4402 40.27 32.6002 37.84 37.0402 35.72C37.8202 36.0133 38.5168 36.0033 39.1302 35.69C39.3615 35.5731 39.6291 35.5517 39.8746 35.6304C40.1201 35.7092 40.3235 35.8816 40.4402 36.11C42.2135 39.5366 43.6235 42.9333 44.6702 46.3C44.8168 46.76 45.4835 48.14 46.6702 50.44C47.8602 52.76 50.2802 53.79 52.0702 55.92C52.1822 56.0517 52.264 56.2017 52.3102 56.36C52.9835 58.7133 54.0135 60.7366 55.4002 62.43Z" fill="#525252"/>
<path d="M62.4301 39.6399C62.9168 41.2266 63.2235 42.6833 63.3501 44.0099C63.4401 45.0199 63.2401 45.42 62.6401 46.08C62.4395 46.3017 62.1818 46.464 61.8952 46.5491C61.6085 46.6342 61.304 46.6388 61.0149 46.5623C60.7258 46.4859 60.4633 46.3315 60.2561 46.1159C60.0489 45.9003 59.905 45.6319 59.8401 45.3399C59.5001 43.8199 59.3001 39.6899 61.5101 39.1299C61.6996 39.0824 61.9 39.1087 62.0708 39.2034C62.2416 39.2981 62.3701 39.4541 62.4301 39.6399Z" fill="#BDBBBE"/>
<path d="M120.98 64.39C118.567 63.7233 116.157 63.1633 113.75 62.71C109.897 61.9833 107.48 61.4933 106.5 61.24C103.227 60.3933 99.9066 59.81 96.5399 59.49C94.7799 59.3166 92.8633 59.5966 90.7899 60.33C90.6358 60.3842 90.4994 60.479 90.3954 60.6041C90.2915 60.7292 90.2239 60.8799 90.1999 61.04C90.1399 61.3866 90.0499 61.6966 89.9299 61.97C89.8499 62.1433 89.5966 62.3266 89.1699 62.52C85.1166 64.3333 81.3766 65.5466 77.9499 66.16C75.0299 66.69 72.7299 67.8899 69.6699 68.49C68.2899 68.7633 68.1499 68.46 69.2499 67.58C72.1299 65.2866 74.6899 63.15 76.9299 61.1699C78.2833 59.9833 78.6033 57.4533 77.8899 53.58C80.6166 57.18 83.3233 58.08 86.0099 56.28C88.5199 54.61 89.3899 51.47 89.8999 48.78C90.3466 46.4266 91.1099 46.32 92.1899 48.46C94.1699 52.37 95.8299 56.22 100.41 57.93C106.67 60.26 114.41 60.77 120.98 64.39Z" fill="#3D3D3D"/>
<path d="M17.2502 48.16C17.4302 48.1467 17.5202 48.2133 17.5202 48.36C17.5202 48.4667 17.4735 48.5433 17.3802 48.59C17.2535 48.6567 17.1035 48.65 16.9302 48.57C16.9368 48.43 17.0435 48.2933 17.2502 48.16Z" fill="#525252"/>
<path d="M67.5801 59.4C68.4294 59.3348 69.2404 59.0333 69.9201 58.53C71.3201 57.49 72.9501 56.6067 74.8101 55.88C74.9437 55.8254 75.0896 55.8068 75.2334 55.8261C75.3772 55.8454 75.5139 55.9019 75.6301 55.99C76.2035 56.4233 76.2901 57.06 75.8901 57.9C75.1701 59.4333 74.1168 60.7067 72.7301 61.72C70.1835 63.5733 68.1268 65.23 66.5601 66.69C66.4373 66.8051 66.2896 66.8905 66.1286 66.9395C65.9676 66.9886 65.7974 67.0001 65.6313 66.973C65.4651 66.946 65.3074 66.8811 65.1702 66.7835C65.033 66.6859 64.9201 66.5581 64.8401 66.41C63.6268 64.2033 61.8335 62.7767 59.4601 62.13C58.4406 61.848 57.5718 61.1766 57.0401 60.26L56.2001 58.8C55.6935 57.9267 55.9268 57.6267 56.9001 57.9C61.2268 59.1133 64.7868 59.6133 67.5801 59.4Z" fill="#3D3D3D"/>
<path d="M101 62.7501C101.72 62.9567 103.28 63.3367 105.68 63.8901C113.713 65.7434 121.713 67.7234 129.68 69.8301C133.68 70.8901 138.54 73.2601 143.11 72.8901C144.21 72.8034 145.207 73.0834 146.1 73.7301L151.55 77.6901C152.363 78.2767 152.267 78.5834 151.26 78.6101L104.49 79.8501C104.403 79.8501 104.37 79.8101 104.39 79.7301L104.46 79.4701C104.467 79.4367 104.483 79.4201 104.51 79.4201C105.957 79.3534 106.82 78.7367 107.1 77.5701C107.18 77.2501 107.117 76.9601 106.91 76.7001C104.79 74.0701 102.42 72.8401 98.7299 72.9201C97.3699 72.9534 95.0032 73.0167 91.6299 73.1101C91.2632 73.1167 91.1299 72.9467 91.2299 72.6001C92.0566 69.7067 92.6666 66.4101 93.0599 62.7101C93.0999 62.3567 93.2966 62.1801 93.6499 62.1801C97.3366 62.2134 99.7866 62.4034 101 62.7501Z" fill="white"/>
<path d="M87.48 72.8C87.22 72.8934 86.6767 73.12 85.85 73.48C85.29 73.72 84.7067 73.85 84.1 73.87C81.3534 73.9634 79.3034 74.1634 77.95 74.47C76.2967 74.8434 74.3034 74.99 71.97 74.91C71.8434 74.9034 69.8467 75.0934 65.98 75.48C58.8934 76.1867 49.89 75.9067 38.97 74.64C38.6367 74.6 38.4367 74.4167 38.37 74.09C38.03 72.4167 38.6667 71.48 40.28 71.28C44.8867 70.6934 49.0134 70.7034 52.66 71.31C55.92 71.85 58.61 71.28 62.19 71.34C62.5367 71.3467 62.71 71.52 62.71 71.86C62.73 72.8934 62.83 73.6034 63.01 73.99C63.1229 74.2282 63.2974 74.4319 63.5154 74.5801C63.7334 74.7283 63.9871 74.8156 64.2501 74.8329C64.5131 74.8502 64.776 74.797 65.0116 74.6787C65.2471 74.5604 65.4468 74.3814 65.59 74.16C66.68 72.48 67.76 71.69 69.82 71.19C76.5667 69.5434 80.86 68.4567 82.7 67.93C83.7734 67.6234 85.5867 66.8834 88.14 65.71C88.2182 65.6745 88.3042 65.661 88.3895 65.6709C88.4748 65.6807 88.5564 65.7136 88.6262 65.7662C88.696 65.8188 88.7516 65.8893 88.7873 65.9707C88.8231 66.0521 88.8378 66.1415 88.83 66.23L88.33 71.84C88.29 72.2934 88.0067 72.6134 87.48 72.8Z" fill="#696969"/>
<path d="M150.31 68.1201C150.97 66.8201 152.91 66.6901 154.14 67.1501C161.473 69.8434 167.723 72.6401 172.89 75.5401C173.763 76.0334 174.44 76.6567 174.92 77.4101C174.942 77.4414 174.955 77.4781 174.957 77.5162C174.96 77.5542 174.952 77.5923 174.934 77.6262C174.917 77.6602 174.89 77.6887 174.858 77.7088C174.825 77.7288 174.788 77.7396 174.75 77.7401L157.12 78.2101C156.633 78.2234 156.193 78.0867 155.8 77.8001L148.95 72.8301C148.657 72.6167 148.577 72.3401 148.71 72.0001C149.457 70.0401 149.99 68.7467 150.31 68.1201Z" fill="white"/>
<path d="M197.05 80.8601L188.3 79.81L205.19 72.09C205.583 71.9167 205.886 72.0134 206.1 72.38L206.98 73.9201C207.135 74.1862 207.369 74.3981 207.65 74.5269C207.93 74.6558 208.245 74.6952 208.55 74.6401L217.2 73.02C217.6 72.9467 217.94 73.0601 218.22 73.3601C221.03 76.3001 225.19 71.94 227.98 74.77C228.8 75.5967 229.323 76.0434 229.55 76.1101C229.996 76.2434 230.533 76.2801 231.16 76.2201C231.706 76.1667 231.776 76.3234 231.37 76.6901C229.59 78.2567 228.133 79.0201 227 78.9801C221.08 78.7601 216.913 78.6001 214.5 78.5001C212.26 78.4001 210.13 78.74 208.11 79.52C206.49 80.1467 204.953 80.5067 203.5 80.6001C201.34 80.7334 199.19 80.8201 197.05 80.8601Z" fill="white"/>
<path d="M188.3 79.8101L197.05 80.8601C194.73 80.8534 192.433 80.9934 190.16 81.2801C187.073 81.6667 184.797 81.8567 183.33 81.8501C179.303 81.8301 176.123 81.9701 173.79 82.2701C170.497 82.7034 167.32 82.8967 164.26 82.8501C161.567 82.8167 158.343 82.9501 154.59 83.2501C150.33 83.5901 147.123 83.8001 144.97 83.8801C131.283 84.4067 121.54 84.8467 115.74 85.2001C114.567 85.2734 113.343 85.3001 112.07 85.2801C110.63 85.2601 109.413 85.2901 108.42 85.3701C102.387 85.8767 96.4634 86.3501 90.65 86.7901C87.1834 84.9567 83.98 85.4267 81.04 88.2001C80.8044 88.4292 80.511 88.5914 80.19 88.6701C76.63 89.5101 75.14 88.8967 75.72 86.8301C75.7734 86.7034 75.8234 86.5801 75.87 86.4601L76.75 84.4201C76.8103 84.2816 76.9066 84.1626 77.0284 84.0761C77.1501 83.9896 77.2926 83.9391 77.44 83.9301L92.2 83.0801C96.0067 82.0534 99.7734 81.6701 103.5 81.9301C106.027 82.1034 108.417 82.1601 110.67 82.1001C115.283 81.9734 117.673 81.9101 117.84 81.9101C124.073 81.9034 130.163 81.7867 136.11 81.5601C141.983 81.3401 147.857 81.1667 153.73 81.0401C158.843 80.9267 164.6 80.7101 171 80.3901C176.98 80.0901 182.747 79.8967 188.3 79.8101Z" fill="#BDBBBE"/>
<path d="M84.7501 81.91L69.5001 81.89C69.3128 81.89 69.1318 81.9575 68.9901 82.08C68.2434 82.72 68.5001 83.2667 69.7601 83.72C68.3668 83.68 66.9501 83.6967 65.5101 83.77C63.3834 83.8767 61.4801 83.4067 59.8001 82.36C59.1268 81.9333 59.1868 81.7133 59.9801 81.7C61.3001 81.68 64.7468 81.6067 70.3201 81.48C71.8334 81.4467 74.0901 81.15 77.0901 80.59C79.5234 80.13 81.8334 80.0167 84.0201 80.25C84.6668 80.3167 84.9101 80.87 84.7501 81.91Z" fill="#3D3D3D"/>
<path d="M84.75 81.91C84.8833 82.3567 85.0667 82.6967 85.3 82.93C85.5067 83.1367 85.8467 83.2333 86.32 83.22C88.2867 83.16 90.2467 83.1134 92.2 83.08L77.44 83.93C77.2926 83.939 77.1501 83.9896 77.0283 84.0761C76.9066 84.1625 76.8102 84.2816 76.75 84.42L75.87 86.46C75.7567 84.1333 73.72 83.22 69.76 83.72C68.5 83.2667 68.2433 82.72 68.99 82.08C69.1317 81.9575 69.3127 81.8901 69.5 81.89L84.75 81.91Z" fill="#808081"/>
<path d="M50.3401 86.02C50.0601 85.08 49.2401 84.55 48.7401 83.72C48.5601 83.42 48.6435 83.2534 48.9901 83.22C51.7901 82.9734 54.0235 83.18 55.6901 83.84C59.9835 85.54 63.4435 86.93 66.0701 88.01C67.2635 88.5034 67.5635 89.3234 66.9701 90.47C65.9035 92.5367 64.9701 94.19 64.1701 95.43C63.5501 96.39 62.7601 96.8067 61.8001 96.68C58.3935 96.2334 55.7768 95.9967 53.9501 95.97C53.0101 95.9634 51.9268 95.76 50.7001 95.36C49.7068 95.04 48.5935 94.83 47.3601 94.73C47.3127 94.7274 47.2669 94.7118 47.2277 94.6849C47.1885 94.658 47.1574 94.6209 47.1379 94.5776C47.1183 94.5343 47.1109 94.4865 47.1166 94.4393C47.1223 94.3921 47.1408 94.3474 47.1701 94.31C48.4101 92.5967 49.4868 90.9134 50.4001 89.26C50.7801 88.5667 50.7601 87.4867 50.3401 86.02Z" fill="white"/>
<path d="M174.81 85.07C174.816 85.07 174.821 85.0721 174.824 85.0758C174.828 85.0796 174.83 85.0846 174.83 85.09V85.13C174.821 85.7596 174.33 86.3574 173.466 86.7922C172.602 87.2271 171.435 87.4636 170.22 87.45H169.9C169.296 87.4432 168.698 87.3747 168.141 87.2483C167.584 87.1219 167.079 86.9402 166.655 86.7135C166.23 86.4868 165.894 86.2196 165.667 85.9273C165.44 85.635 165.325 85.3232 165.33 85.01L165.34 84.97C165.34 84.9647 165.342 84.9596 165.346 84.9558C165.35 84.9521 165.355 84.95 165.36 84.95L174.81 85.07Z" fill="white"/>
<path d="M90.6501 86.79L88.0001 86.9C87.6601 86.9133 87.3534 87.0167 87.0801 87.21C86.3068 87.7567 85.4201 88.41 84.4201 89.17C82.1201 90.93 79.5601 91.34 77.1801 92.57C76.0068 93.17 74.6534 93.6066 73.1201 93.88C71.6268 94.1466 70.1801 94.3867 68.7801 94.6C68.2401 94.68 68.1301 94.5 68.4501 94.06C69.0568 93.2333 69.5001 92.4 69.7801 91.56C70.2868 90.0133 70.3268 88.94 69.9001 88.34C69.2268 87.3933 69.5368 86.91 70.8301 86.89L75.7201 86.83C75.1401 88.8967 76.6301 89.51 80.1901 88.67C80.511 88.5914 80.8045 88.4291 81.0401 88.2C83.9801 85.4266 87.1834 84.9567 90.6501 86.79Z" fill="#525252"/>
<path d="M44.7702 111.86C45.1702 109.567 45.2369 107.493 44.9702 105.64C44.7702 104.26 45.1502 102.94 45.4002 101.17C45.4469 100.843 45.3602 100.553 45.1402 100.3C44.3869 99.4333 44.2269 98.5567 44.6602 97.67C44.9535 97.0767 44.8802 96.8967 44.4402 97.13C44.3135 97.1967 44.2135 97.2733 44.1402 97.36C43.8869 97.6467 43.6535 97.6533 43.4402 97.38L42.2402 95.86C41.7735 95.2667 41.8969 95.0633 42.6102 95.25C43.0302 95.3567 43.5735 95.6567 44.2402 96.15C44.7002 96.4833 45.2369 96.72 45.8502 96.86C47.5835 97.2533 49.3302 97.6833 51.0902 98.15C51.9702 98.3833 52.4402 98.9567 52.5002 99.87C52.8669 105.63 53.0735 108.85 53.1202 109.53C53.3402 112.397 52.7169 114.66 51.2502 116.32C51.0435 116.553 50.7835 116.663 50.4702 116.65C48.7102 116.543 47.3569 116.887 46.4102 117.68C46.1435 117.9 45.8469 117.95 45.5202 117.83C44.5602 117.477 43.8835 116.997 43.4902 116.39C43.2969 116.083 43.2969 115.78 43.4902 115.48C44.0835 114.567 44.5102 113.36 44.7702 111.86Z" fill="#696969"/>
<path d="M67.5798 112.52C67.4798 109.707 67.3998 104.88 67.3398 98.0399C67.3398 97.6733 67.5198 97.4566 67.8798 97.3899L77.3398 95.6199C77.6798 95.5599 77.8632 95.6999 77.8898 96.0399C78.0898 98.1466 78.4198 101.237 78.8798 105.31C79.2998 109.057 78.5698 112.42 76.6898 115.4C75.9565 116.567 74.7199 117.27 72.9799 117.51C69.3099 118.02 67.6898 115.8 67.5798 112.52Z" fill="#696969"/>
</g>
<defs>
<clipPath id="clip0_17_1729">
<rect width="239" height="127" fill="white"/>
</clipPath>
</defs>
</svg>
