<svg width="35" height="35" viewBox="0 0 35 35" fill="none" xmlns="http://www.w3.org/2000/svg">
<rect x="0.5" y="0.5" width="34" height="34" fill="#BCBCBC"/>
<rect x="0.5" y="0.5" width="34" height="34" stroke="black"/>
<path d="M24.3133 5H15.6038L10.0559 14.5H15.6038L10.8538 24L23.5192 12.125H17.1846L24.3133 5Z" fill="black"/>
<path d="M10.3161 30V26.3636H11.7507C12.0265 26.3636 12.2615 26.4163 12.4556 26.5217C12.6497 26.6258 12.7977 26.7708 12.8995 26.9567C13.0025 27.1413 13.054 27.3544 13.054 27.5959C13.054 27.8374 13.0019 28.0504 12.8977 28.2351C12.7936 28.4197 12.6426 28.5636 12.445 28.6665C12.2485 28.7695 12.0105 28.821 11.7312 28.821H10.8168V28.2049H11.6069C11.7549 28.2049 11.8768 28.1795 11.9727 28.1286C12.0697 28.0765 12.1419 28.0049 12.1893 27.9137C12.2378 27.8214 12.2621 27.7154 12.2621 27.5959C12.2621 27.4751 12.2378 27.3698 12.1893 27.2798C12.1419 27.1887 12.0697 27.1183 11.9727 27.0685C11.8756 27.0176 11.7525 26.9922 11.6033 26.9922H11.0849V30H10.3161ZM14.7275 30.0533C14.4516 30.0533 14.2131 29.9947 14.0119 29.8775C13.8118 29.7591 13.6574 29.5946 13.5485 29.3839C13.4396 29.172 13.3851 28.9264 13.3851 28.647C13.3851 28.3653 13.4396 28.1191 13.5485 27.9084C13.6574 27.6965 13.8118 27.532 14.0119 27.4148C14.2131 27.2964 14.4516 27.2372 14.7275 27.2372C15.0033 27.2372 15.2412 27.2964 15.4412 27.4148C15.6425 27.532 15.7975 27.6965 15.9064 27.9084C16.0153 28.1191 16.0698 28.3653 16.0698 28.647C16.0698 28.9264 16.0153 29.172 15.9064 29.3839C15.7975 29.5946 15.6425 29.7591 15.4412 29.8775C15.2412 29.9947 15.0033 30.0533 14.7275 30.0533ZM14.731 29.4673C14.8565 29.4673 14.9612 29.4318 15.0453 29.3608C15.1293 29.2886 15.1926 29.1903 15.2353 29.0661C15.2791 28.9418 15.301 28.8003 15.301 28.6417C15.301 28.4831 15.2791 28.3416 15.2353 28.2173C15.1926 28.093 15.1293 27.9948 15.0453 27.9226C14.9612 27.8504 14.8565 27.8143 14.731 27.8143C14.6043 27.8143 14.4978 27.8504 14.4114 27.9226C14.3262 27.9948 14.2617 28.093 14.2179 28.2173C14.1752 28.3416 14.1539 28.4831 14.1539 28.6417C14.1539 28.8003 14.1752 28.9418 14.2179 29.0661C14.2617 29.1903 14.3262 29.2886 14.4114 29.3608C14.4978 29.4318 14.6043 29.4673 14.731 29.4673ZM17.0312 30L16.2891 27.2727H17.0543L17.4769 29.1051H17.5018L17.9421 27.2727H18.6932L19.1406 29.0945H19.1637L19.5792 27.2727H20.3427L19.6023 30H18.8015L18.3327 28.2848H18.299L17.8303 30H17.0312ZM21.9207 30.0533C21.6402 30.0533 21.3987 29.9964 21.1963 29.8828C20.9951 29.768 20.84 29.6058 20.7311 29.3963C20.6222 29.1856 20.5677 28.9364 20.5677 28.6488C20.5677 28.3683 20.6222 28.122 20.7311 27.9102C20.84 27.6983 20.9933 27.5331 21.191 27.4148C21.3898 27.2964 21.623 27.2372 21.8905 27.2372C22.0705 27.2372 22.238 27.2662 22.393 27.3242C22.5493 27.381 22.6854 27.4669 22.8014 27.5817C22.9186 27.6965 23.0097 27.8409 23.0748 28.0149C23.1399 28.1877 23.1725 28.3902 23.1725 28.6222V28.8299H20.8696V28.3612H22.4605C22.4605 28.2522 22.4368 28.1558 22.3895 28.0717C22.3421 27.9877 22.2764 27.922 22.1924 27.8746C22.1095 27.8261 22.0131 27.8018 21.903 27.8018C21.7881 27.8018 21.6863 27.8285 21.5976 27.8817C21.51 27.9338 21.4413 28.0043 21.3916 28.093C21.3419 28.1806 21.3164 28.2783 21.3153 28.386V28.8317C21.3153 28.9666 21.3401 29.0832 21.3898 29.1815C21.4407 29.2797 21.5123 29.3555 21.6047 29.4087C21.697 29.462 21.8065 29.4886 21.9331 29.4886C22.0172 29.4886 22.0941 29.4768 22.164 29.4531C22.2338 29.4295 22.2936 29.3939 22.3433 29.3466C22.393 29.2992 22.4309 29.2412 22.4569 29.1726L23.1565 29.2188C23.121 29.3868 23.0482 29.5336 22.9381 29.6591C22.8292 29.7834 22.6884 29.8804 22.5155 29.9503C22.3439 30.0189 22.1456 30.0533 21.9207 30.0533ZM23.6661 30V27.2727H24.3994V27.7486H24.4278C24.4775 27.5793 24.561 27.4515 24.6782 27.3651C24.7954 27.2775 24.9303 27.2337 25.083 27.2337C25.1209 27.2337 25.1617 27.236 25.2055 27.2408C25.2493 27.2455 25.2878 27.252 25.3209 27.2603V27.9315C25.2854 27.9208 25.2363 27.9113 25.1736 27.9031C25.1108 27.8948 25.0534 27.8906 25.0013 27.8906C24.8901 27.8906 24.7906 27.9149 24.703 27.9634C24.6166 28.0108 24.548 28.0771 24.4971 28.1623C24.4474 28.2475 24.4225 28.3458 24.4225 28.457V30H23.6661Z" fill="black"/>
</svg>
