<svg width="94" height="102" viewBox="0 0 94 102" fill="none" xmlns="http://www.w3.org/2000/svg">
<circle cx="24" cy="77.0225" r="23.5" fill="url(#paint0_linear_6_49)" stroke="black"/>
<rect x="22.5" y="35.9999" width="3" height="41" fill="url(#paint1_linear_6_49)" stroke="black"/>
<rect x="83.6465" y="18.1124" width="2.85752" height="82.6143" transform="rotate(75 83.6465 18.1124)" fill="url(#paint2_linear_6_49)" stroke="black"/>
<path d="M88.4286 33.4999H81.5714V13.2064L77 8.13298C77 8.13298 80.2 3.56679 81.5714 2.04493C82.9429 0.523066 86.5238 -0.491761 88.4286 2.04493L93 8.13298L88.4286 13.2064V33.4999Z" fill="url(#paint3_linear_6_49)"/>
<path d="M88.4286 13.2064V33.4999H81.5714V13.2064M88.4286 13.2064L93 8.13298C93 8.13298 90.3333 4.58162 88.4286 2.04493C86.5238 -0.491761 82.9429 0.523066 81.5714 2.04493C80.2 3.56679 77 8.13298 77 8.13298L81.5714 13.2064M88.4286 13.2064H81.5714" stroke="black"/>
<defs>
<linearGradient id="paint0_linear_6_49" x1="24" y1="53.0225" x2="24" y2="101.023" gradientUnits="userSpaceOnUse">
<stop stop-color="#B2B2B2"/>
<stop offset="1" stop-color="#141414"/>
</linearGradient>
<linearGradient id="paint1_linear_6_49" x1="24" y1="35.4999" x2="24" y2="77.4999" gradientUnits="userSpaceOnUse">
<stop stop-color="#8B8B8B"/>
<stop offset="1" stop-color="#737373"/>
</linearGradient>
<linearGradient id="paint2_linear_6_49" x1="85.9288" y1="17.5001" x2="85.9288" y2="101.114" gradientUnits="userSpaceOnUse">
<stop stop-color="#8B8B8B"/>
<stop offset="1" stop-color="#737373"/>
</linearGradient>
<linearGradient id="paint3_linear_6_49" x1="85" y1="0.499878" x2="85" y2="33.4999" gradientUnits="userSpaceOnUse">
<stop stop-color="#737373"/>
<stop offset="1" stop-color="#D9D9D9"/>
</linearGradient>
</defs>
</svg>
