<svg width="98" height="167" viewBox="0 0 98 167" fill="none" xmlns="http://www.w3.org/2000/svg">
<path d="M61.0215 119.023C73.992 119.023 84.5078 129.544 84.5078 142.523C84.5078 155.501 73.992 166.023 61.0215 166.023C48.0511 166.022 37.5361 155.501 37.5361 142.523C37.5361 129.544 48.0511 119.023 61.0215 119.023Z" fill="url(#paint0_linear_6_90)" stroke="black"/>
<rect x="59.5229" y="29.5" width="2.99762" height="113" fill="url(#paint1_linear_6_90)" stroke="black"/>
<rect x="0.612282" y="-0.353501" width="2.85736" height="82.5679" transform="matrix(0.258676 -0.965964 0.965887 0.258962 17.0805 18.6857)" fill="url(#paint2_linear_6_90)" stroke="black"/>
<path d="M20.4468 2.28574L26.3817 5.71431L16.241 23.289L17.6624 29.9684C17.6624 29.9684 12.6111 32.3228 10.6636 32.9551C8.71612 33.5874 5.10966 32.6757 4.72865 29.5265L3.81425 21.9684L10.3061 19.8604L20.4468 2.28574Z" fill="url(#paint3_linear_6_90)"/>
<path d="M10.3061 19.8604L20.4468 2.28574L26.3817 5.71431L16.241 23.289M10.3061 19.8604L3.81425 21.9684C3.81425 21.9684 4.34765 26.3773 4.72865 29.5265C5.10966 32.6757 8.71612 33.5874 10.6636 32.9551C12.6111 32.3228 17.6624 29.9684 17.6624 29.9684L16.241 23.289M10.3061 19.8604L16.241 23.289" stroke="black"/>
<defs>
<linearGradient id="paint0_linear_6_90" x1="61.0219" y1="118.523" x2="61.0219" y2="166.523" gradientUnits="userSpaceOnUse">
<stop stop-color="#B2B2B2"/>
<stop offset="1" stop-color="#141414"/>
</linearGradient>
<linearGradient id="paint1_linear_6_90" x1="61.0218" y1="29" x2="61.0218" y2="143" gradientUnits="userSpaceOnUse">
<stop stop-color="#8B8B8B"/>
<stop offset="1" stop-color="#737373"/>
</linearGradient>
<linearGradient id="paint2_linear_6_90" x1="1.92868" y1="0" x2="1.92868" y2="83.5679" gradientUnits="userSpaceOnUse">
<stop stop-color="#8B8B8B"/>
<stop offset="1" stop-color="#737373"/>
</linearGradient>
<linearGradient id="paint3_linear_6_90" x1="6.92405" y1="32.5789" x2="23.4289" y2="4.00851" gradientUnits="userSpaceOnUse">
<stop stop-color="#737373"/>
<stop offset="1" stop-color="#D9D9D9"/>
</linearGradient>
</defs>
</svg>
