<svg width="77" height="34" viewBox="0 0 77 34" fill="none" xmlns="http://www.w3.org/2000/svg">
<rect x="66.5" y="21.9999" width="3" height="66" transform="rotate(90 66.5 21.9999)" fill="url(#paint0_linear_6_105)" stroke="black"/>
<path d="M47.5 26.9999L18.5 26.9999L18.5 14.9999L27 14.9999L27 21.4999L39.5 21.4999L39.5 14.9999L47.5 14.9999L47.5 26.9999Z" fill="url(#paint1_linear_6_105)" stroke="black"/>
<path d="M71.4286 33.4999H64.5714V13.2064L60 8.13298C60 8.13298 63.2 3.56679 64.5714 2.04493C65.9429 0.523066 69.5238 -0.491761 71.4286 2.04493L76 8.13298L71.4286 13.2064V33.4999Z" fill="url(#paint2_linear_6_105)"/>
<path d="M71.4286 13.2064V33.4999H64.5714V13.2064M71.4286 13.2064L76 8.13298C76 8.13298 73.3333 4.58162 71.4286 2.04493C69.5238 -0.491761 65.9429 0.523066 64.5714 2.04493C63.2 3.56679 60 8.13298 60 8.13298L64.5714 13.2064M71.4286 13.2064H64.5714" stroke="black"/>
<path d="M27.5 17.4999H36.5" stroke="black"/>
<rect x="36" y="15.4999" width="1" height="4" fill="black"/>
<defs>
<linearGradient id="paint0_linear_6_105" x1="69" y1="21.4999" x2="69" y2="88.4999" gradientUnits="userSpaceOnUse">
<stop stop-color="#8B8B8B"/>
<stop offset="1" stop-color="#737373"/>
</linearGradient>
<linearGradient id="paint1_linear_6_105" x1="48.5" y1="13.7776" x2="18.5" y2="13.7776" gradientUnits="userSpaceOnUse">
<stop stop-color="#8B8B8B"/>
<stop offset="1" stop-color="#737373"/>
</linearGradient>
<linearGradient id="paint2_linear_6_105" x1="68" y1="0.499878" x2="68" y2="33.4999" gradientUnits="userSpaceOnUse">
<stop stop-color="#737373"/>
<stop offset="1" stop-color="#D9D9D9"/>
</linearGradient>
</defs>
</svg>
