<svg width="24" height="56" viewBox="0 0 24 56" fill="none" xmlns="http://www.w3.org/2000/svg">
<path d="M14.6467 21.9999L20.1467 21.9999L20.1467 55.9999" stroke="black" stroke-width="2"/>
<path d="M5.21838 33.4999L12.0755 33.4999L12.0755 13.2064L16.647 8.13298C16.647 8.13298 13.447 3.56679 12.0755 2.04493C10.7041 0.523066 7.12315 -0.491762 5.21838 2.04493L0.646941 8.13298L5.21838 13.2064L5.21838 33.4999Z" fill="url(#paint0_linear_6_118)"/>
<path d="M5.21838 13.2064L5.21838 33.4999L12.0755 33.4999L12.0755 13.2064M5.21838 13.2064L0.646941 8.13298C0.646941 8.13298 3.31361 4.58162 5.21838 2.04493C7.12315 -0.491762 10.7041 0.523066 12.0755 2.04493C13.447 3.56679 16.647 8.13298 16.647 8.13298L12.0755 13.2064M5.21838 13.2064L12.0755 13.2064" stroke="black"/>
<rect x="-0.5" y="0.5" width="6.00001" height="12" transform="matrix(-1 -8.74227e-08 -8.74229e-08 1 22.6467 32.4999)" fill="#767676" stroke="black"/>
<rect width="8.00002" height="5" transform="matrix(-1 -8.74227e-08 -8.74229e-08 1 14.6465 19.4999)" fill="black"/>
<defs>
<linearGradient id="paint0_linear_6_118" x1="8.64696" y1="0.499877" x2="8.64695" y2="33.4999" gradientUnits="userSpaceOnUse">
<stop stop-color="#737373"/>
<stop offset="1" stop-color="#D9D9D9"/>
</linearGradient>
</defs>
</svg>
