<svg width="395" height="293" viewBox="0 0 395 293" fill="none" xmlns="http://www.w3.org/2000/svg">
<mask id="path-1-inside-1_17_2104" fill="white">
<path d="M235.573 61.7993C229.276 68.8296 221.751 72.2388 212.998 72.0267C204.229 71.8199 196.72 68.1478 190.469 61.0102C190.403 60.9317 190.309 60.8813 190.206 60.8692C190.104 60.8571 190.001 60.8843 189.918 60.9452L185.552 64.0346C185.351 64.1725 185.253 64.3631 185.26 64.6063C185.325 67.5736 182.914 69.7821 180.027 69.2984C173.751 68.24 175.329 59.2609 181.734 60.5132C181.979 60.5568 182.204 60.5078 182.409 60.3661L187.19 56.986C187.403 56.8332 187.449 56.6416 187.328 56.4111C183.566 49.1259 182.653 41.8371 184.589 34.5449C187.617 23.1298 196.996 15.3375 208.739 13.8641C208.909 13.8416 208.984 13.7432 208.965 13.5692L208.493 9.37148C208.456 9.05013 208.301 8.80148 208.027 8.62552C205.902 7.24087 205.227 5.39819 206.002 3.09746C207.37 -0.96658 213.689 -1.20953 214.694 3.43159C215.026 4.97045 214.632 6.35891 213.51 7.59694C213.403 7.71603 213.323 7.85605 213.275 8.00785C213.226 8.15965 213.21 8.3198 213.228 8.47783L213.783 13.4644C213.803 13.6385 213.901 13.7377 214.076 13.762C224.611 15.0853 232.418 19.9936 237.495 28.4868C242.876 37.478 243.257 47.0757 238.639 57.2798C238.523 57.5404 238.574 57.7583 238.794 57.9336L242.648 61.0085C242.79 61.1214 242.949 61.1661 243.126 61.1428C245.889 60.8117 247.679 61.7765 248.496 64.0371C249.764 67.5351 246.622 71.3359 242.886 70.0376C240.899 69.3424 239.879 67.7758 239.825 65.3379C239.819 65.0708 239.71 64.8526 239.497 64.6832L235.855 61.7777C235.755 61.6975 235.661 61.7047 235.573 61.7993Z"/>
<path d="M177.658 245.96L174.027 244.243C173.819 244.144 173.605 244.122 173.384 244.178C171.929 244.528 170.856 244.169 170.167 243.101C170.023 242.883 169.887 242.42 169.756 241.713C169.643 241.129 169.406 240.647 169.044 240.268C165.851 236.922 163.651 233.229 162.444 229.188C162.373 228.949 162.223 228.777 161.995 228.674C160.729 228.091 160.122 227.183 160.173 225.95C160.182 225.671 160.048 225.531 159.77 225.528C157.955 225.519 155.528 225.268 152.49 224.776C152.21 224.729 152.111 224.842 152.193 225.114C154.612 232.883 155.276 240.71 154.183 248.595C154.165 248.739 154.227 248.831 154.366 248.869L160.656 250.587C160.926 250.662 161.161 250.6 161.362 250.401C162.516 249.237 163.583 248.562 164.561 248.373C168.135 247.683 170.822 248.773 172.622 251.641C175.41 256.087 172.959 262.368 167.362 262.738C164.273 262.943 161.87 261.525 160.151 258.485C160.024 258.255 159.833 258.112 159.579 258.056L152.898 256.611C152.658 256.553 152.495 256.646 152.411 256.889C147.17 271.594 137.74 281.799 124.121 287.503C110.491 293.211 94.8366 292.369 81.7195 285.917C70.4673 280.39 62.0882 271.7 56.5821 259.849C56.4583 259.591 56.2581 259.499 55.9814 259.57L36.8613 264.574C36.6308 264.634 36.4911 264.778 36.4423 265.007C34.5994 273.711 22.1641 272.146 21.9393 263.593C21.8726 261.072 22.9249 259.096 25.0962 257.665C27.4443 256.12 30.0322 256.073 32.8599 257.524C33.0615 257.626 33.2935 257.652 33.5139 257.598L53.4238 252.384C53.6544 252.324 53.7412 252.177 53.6844 251.942C49.7124 236.205 52.5327 220.008 62.4199 207.328C71.3166 195.924 84.4226 189.258 98.9324 188.338C99.0142 188.332 99.0908 188.297 99.1472 188.239C99.2037 188.181 99.236 188.104 99.2378 188.024L99.6102 172.982C99.6143 172.717 99.512 172.502 99.3035 172.335C97.2739 170.716 96.3101 168.792 96.412 166.564C96.8085 157.794 109.345 156.323 110.88 165.226C111.331 167.854 110.228 170.276 107.569 172.494C107.389 172.643 107.297 172.834 107.293 173.069L106.924 188.141C106.916 188.372 107.028 188.507 107.259 188.545L112.857 189.538C112.964 189.556 112.963 189.519 112.855 189.426C109.723 186.751 109.641 183.94 112.608 180.993C112.772 180.825 112.848 180.624 112.835 180.388C112.138 169.826 114.525 159.993 119.996 150.889C120.118 150.682 120.13 150.469 120.031 150.25C119.493 149.059 119.269 148.21 119.358 147.702C120.028 144.05 122.106 142.484 125.592 143.004C125.826 143.039 126.025 142.969 126.189 142.794C132.235 136.491 139.363 132.055 147.573 129.487C147.969 129.365 148.2 129.232 148.265 129.089C148.377 128.849 148.494 128.574 148.615 128.262C149.194 126.78 150.269 125.809 151.841 125.351C153.873 124.76 155.702 125.409 157.328 127.297C157.393 127.371 157.475 127.429 157.566 127.466C157.658 127.502 157.757 127.516 157.855 127.507C161.19 127.2 164.234 127.227 166.986 127.588C167.943 127.718 169.021 127.585 170.221 127.189C174.543 125.774 179.119 124.518 183.948 123.423C184.057 123.4 184.113 123.445 184.116 123.556L184.201 127.345C184.206 127.416 184.172 127.462 184.1 127.484L177.787 129.404C177.407 129.521 177.405 129.654 177.781 129.801L180.923 131.019C181.064 131.071 181.241 131.071 181.452 131.02L183.896 130.374C184.186 130.301 184.328 130.414 184.321 130.713L184.276 132.35C184.271 132.578 184.372 132.741 184.58 132.84L187.953 134.433C188.15 134.53 188.349 134.533 188.549 134.442C189.04 134.231 189.594 134.11 190.211 134.077C190.44 134.065 190.55 133.946 190.542 133.72L190.444 129.19C190.437 128.947 190.555 128.803 190.797 128.759C195.943 127.794 200.993 127.246 205.948 127.116C206.027 127.114 206.104 127.143 206.162 127.198C206.219 127.252 206.253 127.327 206.255 127.407C206.52 139.733 206.706 148.761 206.815 154.491C206.845 155.806 207.101 157.132 207.583 158.467C208.261 160.337 208.716 161.699 208.948 162.554C209.014 162.777 209.157 162.925 209.379 162.999C213.853 164.484 214.558 169.169 210.943 172.108C210.753 172.261 210.667 172.461 210.685 172.706C211.139 179.211 210.32 185.554 208.229 191.735C207.811 192.961 207.618 194.246 207.65 195.588C207.749 199.963 207.81 202.602 207.834 203.504C207.84 203.741 207.92 203.951 208.073 204.134C210.477 207.002 212.223 210.233 213.312 213.825C213.348 213.945 213.403 214.058 213.474 214.158C213.544 214.257 213.629 214.34 213.722 214.403C213.815 214.465 213.914 214.504 214.014 214.519C214.114 214.533 214.212 214.522 214.302 214.487C214.377 214.462 214.413 214.32 214.411 214.063C213.459 165.008 212.875 136.125 212.658 127.413C212.656 127.378 212.663 127.343 212.676 127.31C212.69 127.277 212.71 127.247 212.736 127.223C212.762 127.198 212.793 127.178 212.826 127.166C212.86 127.153 212.897 127.147 212.933 127.149C217.452 127.305 222.004 127.755 226.59 128.5C226.66 128.511 226.725 128.546 226.772 128.6C226.819 128.655 226.845 128.724 226.847 128.797L227.112 140.553C227.117 140.753 227.221 140.86 227.423 140.874L229.147 141.016C229.355 141.03 229.534 140.966 229.685 140.823L233.038 137.594C233.103 137.53 233.154 137.454 233.189 137.37C233.223 137.286 233.239 137.195 233.237 137.103L233.082 130.206C233.074 129.864 233.232 129.738 233.558 129.827L240.671 131.772C240.834 131.82 241.01 131.804 241.165 131.727L243.965 130.405C244.013 130.384 244.054 130.349 244.081 130.303C244.107 130.258 244.119 130.206 244.115 130.153C244.11 130.101 244.089 130.051 244.054 130.011C244.019 129.972 243.973 129.944 243.922 129.932L233.199 126.999C233.069 126.963 233.004 126.877 233.002 126.742L232.89 121.853C232.887 121.68 232.971 121.61 233.14 121.642C236.829 122.311 240.956 123.337 245.522 124.718C247.308 125.26 248.587 126.079 249.357 127.175C249.499 127.377 249.692 127.537 249.917 127.639C250.142 127.741 250.39 127.78 250.635 127.754C250.88 127.727 251.114 127.636 251.311 127.488C251.509 127.34 251.664 127.143 251.759 126.915C252.045 126.235 252.431 125.568 252.917 124.914C253.334 124.345 253.912 123.907 254.65 123.6C256.949 122.643 258.991 123.196 260.776 125.26C260.932 125.439 261.13 125.518 261.372 125.498C272.03 124.597 281.954 126.908 291.145 132.43C291.244 132.489 291.354 132.526 291.468 132.538C291.582 132.55 291.696 132.536 291.803 132.499C292.827 132.155 294.024 131.857 294.911 132.098C297.867 132.915 299.197 134.887 298.902 138.015C298.884 138.244 298.956 138.436 299.119 138.591C305.494 144.609 309.945 151.947 312.472 160.605C312.538 160.835 312.688 160.988 312.92 161.064C317.378 162.545 318.004 167.249 314.442 170.121C314.256 170.271 314.169 170.467 314.183 170.709C314.629 177.3 313.798 183.746 311.69 190.047C311.596 190.319 311.689 190.427 311.971 190.372C315.045 189.765 317.524 189.442 319.408 189.403C319.661 189.398 319.792 189.268 319.801 189.013L320.163 174.145C320.167 173.887 320.077 173.668 319.89 173.489C316.309 170.096 315.948 166.553 318.807 162.862C322.483 158.117 330.989 160.094 331.481 166.73C331.676 169.372 330.573 171.606 328.172 173.432C328.074 173.505 327.995 173.6 327.939 173.709C327.883 173.819 327.853 173.94 327.852 174.063L327.479 189.242C327.477 189.329 327.508 189.413 327.565 189.479C327.622 189.544 327.702 189.587 327.789 189.599C343.057 191.536 355.229 198.382 364.304 210.137C373.042 221.459 376.624 235.451 374.772 249.678C374.735 249.923 374.837 250.07 375.076 250.122L381.392 251.486C381.636 251.54 381.844 251.481 382.018 251.308C383.989 249.388 386.236 248.759 388.762 249.421C394.038 250.806 396.178 257.266 392.654 261.329C390.887 263.368 388.691 264.146 386.067 263.661C383.696 263.226 381.93 261.85 380.767 259.534C380.653 259.303 380.471 259.16 380.221 259.107L373.425 257.634C373.304 257.608 373.177 257.628 373.068 257.692C372.96 257.756 372.878 257.859 372.838 257.98C370.596 264.991 367.002 271.143 362.055 276.435C336.498 303.772 291.869 294.184 277.152 260.761C277.117 260.682 277.056 260.619 276.98 260.581C276.903 260.543 276.815 260.533 276.732 260.554L257.484 265.592C257.27 265.646 257.13 265.779 257.066 265.99C255.69 270.571 252.751 272.46 248.251 271.654C246.186 271.286 244.528 269.991 243.278 267.769C241.352 264.34 242.896 259.85 246.577 258.18C248.77 257.18 251.053 257.305 253.428 258.553C253.626 258.658 253.856 258.685 254.072 258.628L274.061 253.395C274.101 253.385 274.138 253.368 274.171 253.344C274.204 253.32 274.232 253.29 274.254 253.254C274.275 253.219 274.289 253.18 274.295 253.14C274.3 253.099 274.298 253.058 274.288 253.018C271.903 244.022 271.863 235.078 274.168 226.185C274.21 226.017 274.142 225.93 273.965 225.923C273.111 225.893 272.081 225.523 270.876 224.811C270.705 224.712 270.626 224.761 270.638 224.96C270.931 230.934 269.525 236.561 266.421 241.843C266.301 242.046 266.292 242.255 266.395 242.471C267.166 244.116 266.769 245.508 265.202 246.647C264.816 246.925 264.067 247.004 262.956 246.885C262.719 246.861 262.521 246.934 262.36 247.104C258.87 250.731 254.68 253.327 249.792 254.894C249.55 254.969 249.397 255.127 249.332 255.368C249.268 255.579 249.194 255.782 249.111 255.978C248.985 256.273 248.856 256.481 248.723 256.601C247.095 258.062 245.527 257.988 244.02 256.377C243.851 256.2 243.647 256.119 243.408 256.136C238.138 256.563 233.112 255.659 228.332 253.424C228.118 253.326 227.892 253.295 227.656 253.332C223.486 254.052 219.414 254.523 215.439 254.747C215.331 254.752 215.274 254.701 215.269 254.593L215.161 249.744C215.158 249.602 215.226 249.525 215.364 249.513L220.776 248.904C221.111 248.866 221.165 248.723 220.937 248.474L219.398 246.817C219.182 246.583 218.913 246.485 218.591 246.521L215.619 246.855C215.284 246.893 215.113 246.741 215.105 246.4C215.069 244.512 215.057 243.141 215.069 242.285C215.084 241.365 214.804 240.276 214.229 239.019C213.711 237.88 213.268 236.756 212.899 235.645C212.735 235.155 212.426 234.786 211.971 234.539C211.569 234.316 211.319 234.217 211.22 234.242C210.53 234.428 210.274 234.794 210.454 235.34C211.145 237.445 210.644 238.803 208.95 239.414C208.687 239.515 208.557 239.704 208.561 239.982L208.719 246.991C208.72 247.026 208.713 247.061 208.7 247.094C208.687 247.127 208.668 247.156 208.644 247.181C208.62 247.206 208.591 247.226 208.559 247.239C208.528 247.253 208.494 247.259 208.459 247.259C204.163 247.275 199.924 247.084 195.744 246.686C195.49 246.66 195.321 246.766 195.236 247.003C195.011 247.628 194.654 248.171 194.163 248.633C193.673 249.095 193.102 249.276 192.45 249.177C191.595 249.049 190.928 248.685 190.451 248.085C190.386 248.002 190.302 247.936 190.206 247.891C190.11 247.846 190.005 247.824 189.898 247.827L186.753 247.896C186.567 247.9 186.535 247.971 186.655 248.11C186.718 248.184 186.777 248.256 186.832 248.324C186.907 248.421 186.947 248.532 186.951 248.657L187.033 252.324C187.034 252.354 187.029 252.384 187.016 252.412C187.004 252.44 186.985 252.465 186.962 252.485C186.938 252.505 186.91 252.519 186.879 252.527C186.849 252.534 186.817 252.535 186.786 252.529C182.417 251.75 177.757 250.613 172.806 249.119C171.632 248.764 170.634 247.978 170.011 246.916C169.763 246.493 169.541 245.993 169.344 245.415C168.927 244.181 169.34 243.755 170.583 244.137C172.988 244.873 175.331 245.523 177.611 246.087C178.04 246.191 178.055 246.149 177.658 245.96ZM228.675 150.832C228.474 150.885 228.319 150.999 228.21 151.174C223.027 159.459 220.79 168.549 221.5 178.445C221.506 178.556 221.535 178.665 221.587 178.765C221.638 178.864 221.71 178.952 221.799 179.022C224.238 180.998 224.665 183.354 223.081 186.088C222.957 186.305 222.93 186.534 223.001 186.773C224.363 191.223 226.177 195.19 228.443 198.674C228.956 199.467 229.636 199.65 230.483 199.223C230.64 199.141 231.432 198.74 232.859 198.02C233.016 197.941 233.155 197.83 233.266 197.694C233.378 197.557 233.459 197.399 233.506 197.23C233.553 197.06 233.563 196.883 233.537 196.709C233.51 196.535 233.448 196.369 233.353 196.22C227.419 186.922 225.513 177.165 227.635 166.95C232.083 145.552 252.982 132.004 274.325 136.91C285.85 139.56 295.739 147.686 300.482 158.664C305.21 169.621 304.844 180.773 299.385 192.123C299.168 192.578 298.809 193.184 298.308 193.942C297.92 194.528 297.544 195.122 297.181 195.722C297.087 195.878 297.122 195.918 297.286 195.842L305.039 192.163C305.264 192.057 305.425 191.889 305.521 191.662C308.43 184.853 309.591 177.79 309.005 170.473C308.986 170.238 308.887 170.041 308.71 169.881C306.528 167.933 306.13 165.69 307.516 163.151C307.634 162.934 307.659 162.708 307.592 162.471C305.409 154.581 301.354 147.821 295.426 142.189C295.347 142.112 295.251 142.052 295.146 142.014C295.041 141.976 294.929 141.96 294.816 141.968C291.568 142.205 289.626 140.713 288.989 137.493C288.967 137.383 288.923 137.279 288.859 137.187C288.796 137.096 288.714 137.018 288.619 136.96C280.235 131.856 271.158 129.755 261.388 130.657C261.275 130.668 261.165 130.702 261.066 130.756C260.966 130.81 260.879 130.883 260.808 130.972C258.907 133.355 256.587 133.811 253.849 132.339C253.651 132.235 253.42 132.211 253.206 132.274C245.371 134.617 238.671 138.787 233.105 144.786C232.938 144.964 232.859 145.175 232.866 145.418C232.981 148.276 231.584 150.081 228.675 150.832ZM353.403 270.83C357.207 267.09 360.21 262.61 362.24 257.645C364.271 252.68 365.289 247.329 365.237 241.896C365.185 236.463 364.064 231.055 361.938 225.98C359.811 220.906 356.721 216.265 352.844 212.322C348.967 208.379 344.378 205.211 339.34 203C334.302 200.788 328.914 199.576 323.483 199.433C318.051 199.29 312.683 200.218 307.685 202.165C302.687 204.111 298.157 207.039 294.353 210.779C290.549 214.519 287.546 219 285.516 223.964C283.485 228.929 282.467 234.281 282.519 239.714C282.571 245.147 283.692 250.555 285.818 255.629C287.945 260.703 291.035 265.344 294.912 269.287C298.789 273.23 303.378 276.398 308.416 278.61C313.453 280.821 318.842 282.033 324.273 282.176C329.704 282.32 335.072 281.391 340.07 279.445C345.069 277.498 349.599 274.571 353.403 270.83ZM267.678 212.835C267.634 212.838 267.592 212.851 267.555 212.874C267.518 212.897 267.487 212.929 267.465 212.966C267.443 213.004 267.431 213.047 267.429 213.09C267.428 213.134 267.437 213.177 267.456 213.216L269.728 217.999C269.778 218.113 269.847 218.122 269.935 218.027C271.904 215.765 274.145 215.289 276.659 216.6C276.885 216.717 277.149 216.739 277.393 216.661C277.637 216.583 277.84 216.411 277.96 216.184C279.409 213.428 281.034 210.894 282.835 208.583C282.836 208.579 282.836 208.576 282.836 208.572C282.835 208.568 282.833 208.565 282.831 208.562C282.829 208.56 282.826 208.557 282.822 208.556C282.819 208.555 282.815 208.554 282.812 208.555C278.1 211 273.056 212.427 267.678 212.835ZM198.653 197.058C198.751 197.087 198.835 197.059 198.903 196.974C204.317 189.66 206.493 181.456 205.429 172.362C205.4 172.131 205.3 171.936 205.129 171.775C203.037 169.868 202.668 167.672 204.022 165.188C204.137 164.975 204.163 164.752 204.099 164.518C201.963 156.616 197.904 149.837 191.922 144.181C191.748 144.018 191.541 143.945 191.302 143.961C188.053 144.184 186.121 142.698 185.508 139.503C185.464 139.267 185.341 139.09 185.138 138.97C176.794 133.868 167.737 131.758 157.965 132.64C157.72 132.665 157.519 132.772 157.36 132.963C155.398 135.346 153.085 135.805 150.422 134.338C150.212 134.219 149.991 134.195 149.758 134.265C141.923 136.577 135.221 140.734 129.652 146.737C129.486 146.915 129.404 147.124 129.408 147.364C129.457 150.274 128.061 152.089 125.22 152.808C124.983 152.869 124.8 153.003 124.671 153.211C119.489 161.6 117.272 170.673 118.021 180.43C118.041 180.672 118.143 180.869 118.326 181.021C120.713 182.979 121.155 185.289 119.655 187.949C119.521 188.178 119.489 188.424 119.56 188.687L120.112 190.791C120.169 191.02 120.277 191.233 120.428 191.414C120.579 191.596 120.768 191.742 120.982 191.842L127.32 194.841C127.735 195.039 127.842 194.932 127.639 194.521C123.24 185.751 122.17 176.753 124.43 167.526C127.177 156.28 134.795 146.845 145.181 141.812C165.018 132.198 189.506 140.919 197.628 162.272C201.821 173.301 200.964 184.406 195.055 195.586C195.006 195.687 195.032 195.756 195.135 195.796L198.653 197.058ZM227.353 204.131C225.258 205.421 223.444 206.908 221.911 208.592C221.739 208.778 221.65 208.999 221.645 209.258C221.627 210.9 220.814 211.931 219.207 212.349C218.973 212.408 218.772 212.557 218.648 212.762C215.626 217.689 214.317 223.05 214.722 228.845C214.738 229.083 214.84 229.277 215.026 229.426C216.322 230.46 216.622 231.86 215.865 233.313C215.689 233.648 215.645 233.963 215.732 234.258C217.049 238.673 219.512 242.594 223.122 246.022C223.3 246.195 223.515 246.277 223.765 246.27C225.301 246.215 226.32 246.928 226.822 248.407C226.901 248.636 227.055 248.833 227.262 248.968C232.196 252.209 237.643 253.52 243.604 252.901C243.842 252.877 244.044 252.78 244.212 252.608C245.241 251.547 246.448 251.318 247.831 251.922C248.056 252.022 248.286 252.038 248.523 251.971C250.733 251.339 252.889 250.378 254.992 249.087C257.097 247.793 258.929 246.302 260.488 244.615C260.655 244.437 260.745 244.225 260.758 243.98C260.842 242.468 261.592 241.494 263.007 241.057C263.236 240.984 263.412 240.847 263.535 240.647C266.782 235.607 268.072 230.155 267.406 224.291C267.38 224.044 267.273 223.814 267.103 223.639C266.012 222.524 265.836 221.293 266.576 219.946C266.694 219.729 266.718 219.501 266.647 219.261C265.215 214.494 262.828 210.527 259.486 207.36C259.259 207.148 258.957 207.045 258.582 207.05C256.947 207.071 255.828 206.17 255.494 204.55C255.443 204.315 255.315 204.136 255.108 204.014C250.122 201.036 244.749 199.784 238.989 200.259C238.75 200.276 238.527 200.387 238.368 200.568C237.271 201.813 235.985 202.073 234.51 201.348C234.277 201.235 234.037 201.215 233.791 201.286C231.599 201.896 229.453 202.844 227.353 204.131ZM193.331 198.297C190.74 197.68 188.256 197.502 185.878 197.762C185.627 197.794 185.414 197.898 185.237 198.074C184.218 199.107 183.098 199.326 181.879 198.731C181.656 198.62 181.423 198.596 181.179 198.657C179.287 199.134 177.363 199.973 175.406 201.173C173.45 202.379 171.833 203.719 170.555 205.191C170.39 205.383 170.308 205.604 170.309 205.854C170.288 207.209 169.588 208.11 168.208 208.557C167.969 208.635 167.78 208.776 167.64 208.982C166.337 210.989 165.376 213.287 164.755 215.876C164.142 218.47 163.965 220.956 164.226 223.333C164.258 223.584 164.361 223.798 164.537 223.975C165.57 224.994 165.79 226.113 165.195 227.333C165.084 227.556 165.059 227.789 165.121 228.033C165.598 229.925 166.436 231.849 167.636 233.806C168.839 235.758 170.178 237.376 171.655 238.657C171.842 238.819 172.06 238.901 172.308 238.904C173.669 238.924 174.57 239.624 175.01 241.005C175.091 241.24 175.236 241.429 175.445 241.571C177.45 242.878 179.748 243.84 182.339 244.457C184.931 245.074 187.415 245.252 189.793 244.991C190.043 244.96 190.257 244.856 190.434 244.68C191.453 243.647 192.573 243.428 193.792 244.023C194.015 244.133 194.248 244.158 194.492 244.096C196.384 243.619 198.31 242.779 200.269 241.575C202.222 240.373 203.836 239.034 205.11 237.558C205.279 237.37 205.363 237.15 205.362 236.899C205.382 235.544 206.083 234.644 207.463 234.197C207.702 234.119 207.892 233.976 208.035 233.766C209.338 231.759 210.298 229.459 210.915 226.868C211.532 224.276 211.71 221.792 211.449 219.415C211.418 219.164 211.314 218.95 211.138 218.773C210.105 217.754 209.886 216.635 210.481 215.415C210.591 215.193 210.616 214.959 210.554 214.715C210.077 212.823 209.237 210.901 208.035 208.948C206.828 206.992 205.489 205.375 204.016 204.097C203.824 203.932 203.605 203.848 203.357 203.845C202.002 203.825 201.103 203.126 200.66 201.749C200.583 201.51 200.438 201.321 200.225 201.182C198.221 199.876 195.923 198.914 193.331 198.297ZM162.052 215.173C162.07 215.029 162.004 214.958 161.855 214.961C156.351 215.025 151.001 213.923 145.808 211.656C145.79 211.65 145.772 211.649 145.754 211.653C145.736 211.658 145.72 211.667 145.708 211.68C145.696 211.694 145.69 211.71 145.689 211.727C145.688 211.744 145.693 211.761 145.704 211.775C147.024 213.748 148.358 216.056 149.706 218.697C149.731 218.746 149.766 218.788 149.808 218.822C149.85 218.856 149.9 218.88 149.952 218.893C153.619 219.881 157.342 220.386 161.121 220.408C161.177 220.408 161.231 220.389 161.273 220.355C161.315 220.322 161.342 220.275 161.349 220.225L162.052 215.173ZM132.954 269.691C136.745 265.938 139.732 261.447 141.745 256.475C143.758 251.503 144.758 246.148 144.687 240.715C144.616 235.283 143.476 229.879 141.332 224.812C139.188 219.745 136.082 215.115 132.191 211.185C124.333 203.249 113.755 198.65 102.785 198.399C91.8149 198.148 81.351 202.266 73.6952 209.846C69.9044 213.6 66.9171 218.091 64.9039 223.063C62.8907 228.034 61.891 233.389 61.9619 238.822C62.0327 244.255 63.1728 249.659 65.3169 254.726C67.4611 259.793 70.5673 264.423 74.4583 268.352C82.3165 276.288 92.8942 280.888 103.864 281.139C114.834 281.39 125.298 277.272 132.954 269.691Z"/>
<path d="M218 127.695V90.2741C218 90.1143 217.87 89.9847 217.709 89.9847L202.291 89.9847C202.13 89.9847 202 90.1143 202 90.2741V127.695C202 127.855 202.13 127.985 202.291 127.985L217.709 127.985C217.87 127.985 218 127.855 218 127.695Z"/>
<path d="M320.274 110L291.201 85.7065C291.077 85.6027 290.892 85.6193 290.788 85.7435L280.818 97.6753C280.714 97.7995 280.731 97.9842 280.855 98.088L309.928 122.382C310.052 122.485 310.237 122.469 310.34 122.345L320.311 110.413C320.415 110.289 320.398 110.104 320.274 110Z"/>
<path d="M63 121.985C65.7614 121.985 68 119.97 68 117.485C68 114.999 65.7614 112.985 63 112.985C60.2386 112.985 58 114.999 58 117.485C58 119.97 60.2386 121.985 63 121.985Z"/>
<path d="M103 245.985C105.761 245.985 108 243.97 108 241.485C108 238.999 105.761 236.985 103 236.985C100.239 236.985 98 238.999 98 241.485C98 243.97 100.239 245.985 103 245.985Z"/>
<path d="M325.5 245.985C327.985 245.985 330 243.97 330 241.485C330 238.999 327.985 236.985 325.5 236.985C323.015 236.985 321 238.999 321 241.485C321 243.97 323.015 245.985 325.5 245.985Z"/>
<path d="M226.667 244.763C236.687 252.757 251.29 251.115 259.284 241.094C267.278 231.074 265.635 216.471 255.615 208.477C245.595 200.483 230.991 202.126 222.997 212.146C215.004 222.166 216.646 236.77 226.667 244.763Z"/>
<path d="M336 137.985C338.761 137.985 341 135.97 341 133.485C341 130.999 338.761 128.985 336 128.985C333.239 128.985 331 130.999 331 133.485C331 135.97 333.239 137.985 336 137.985Z"/>
<path d="M174.85 237.632C183.827 244.794 196.911 243.322 204.073 234.344C211.235 225.367 209.763 212.283 200.785 205.121C191.808 197.959 178.724 199.431 171.562 208.408C164.4 217.386 165.872 230.47 174.85 237.632Z"/>
<path d="M367 133.985C367 151.106 352.897 164.985 335.5 164.985C318.103 164.985 304 151.106 304 133.985C304 116.864 318.103 102.985 335.5 102.985C352.897 102.985 367 116.864 367 133.985Z"/>
<path d="M126 115.985C126 150.779 97.7939 178.985 63 178.985C28.2061 178.985 0 150.779 0 115.985C0 81.1908 28.2061 52.9847 63 52.9847C97.7939 52.9847 126 81.1908 126 115.985Z"/>
</mask>
<path d="M235.573 61.7993C229.276 68.8296 221.751 72.2388 212.998 72.0267C204.229 71.8199 196.72 68.1478 190.469 61.0102C190.403 60.9317 190.309 60.8813 190.206 60.8692C190.104 60.8571 190.001 60.8843 189.918 60.9452L185.552 64.0346C185.351 64.1725 185.253 64.3631 185.26 64.6063C185.325 67.5736 182.914 69.7821 180.027 69.2984C173.751 68.24 175.329 59.2609 181.734 60.5132C181.979 60.5568 182.204 60.5078 182.409 60.3661L187.19 56.986C187.403 56.8332 187.449 56.6416 187.328 56.4111C183.566 49.1259 182.653 41.8371 184.589 34.5449C187.617 23.1298 196.996 15.3375 208.739 13.8641C208.909 13.8416 208.984 13.7432 208.965 13.5692L208.493 9.37148C208.456 9.05013 208.301 8.80148 208.027 8.62552C205.902 7.24087 205.227 5.39819 206.002 3.09746C207.37 -0.96658 213.689 -1.20953 214.694 3.43159C215.026 4.97045 214.632 6.35891 213.51 7.59694C213.403 7.71603 213.323 7.85605 213.275 8.00785C213.226 8.15965 213.21 8.3198 213.228 8.47783L213.783 13.4644C213.803 13.6385 213.901 13.7377 214.076 13.762C224.611 15.0853 232.418 19.9936 237.495 28.4868C242.876 37.478 243.257 47.0757 238.639 57.2798C238.523 57.5404 238.574 57.7583 238.794 57.9336L242.648 61.0085C242.79 61.1214 242.949 61.1661 243.126 61.1428C245.889 60.8117 247.679 61.7765 248.496 64.0371C249.764 67.5351 246.622 71.3359 242.886 70.0376C240.899 69.3424 239.879 67.7758 239.825 65.3379C239.819 65.0708 239.71 64.8526 239.497 64.6832L235.855 61.7777C235.755 61.6975 235.661 61.7047 235.573 61.7993Z" fill="url(#paint0_linear_17_2104)"/>
<path d="M177.658 245.96L174.027 244.243C173.819 244.144 173.605 244.122 173.384 244.178C171.929 244.528 170.856 244.169 170.167 243.101C170.023 242.883 169.887 242.42 169.756 241.713C169.643 241.129 169.406 240.647 169.044 240.268C165.851 236.922 163.651 233.229 162.444 229.188C162.373 228.949 162.223 228.777 161.995 228.674C160.729 228.091 160.122 227.183 160.173 225.95C160.182 225.671 160.048 225.531 159.77 225.528C157.955 225.519 155.528 225.268 152.49 224.776C152.21 224.729 152.111 224.842 152.193 225.114C154.612 232.883 155.276 240.71 154.183 248.595C154.165 248.739 154.227 248.831 154.366 248.869L160.656 250.587C160.926 250.662 161.161 250.6 161.362 250.401C162.516 249.237 163.583 248.562 164.561 248.373C168.135 247.683 170.822 248.773 172.622 251.641C175.41 256.087 172.959 262.368 167.362 262.738C164.273 262.943 161.87 261.525 160.151 258.485C160.024 258.255 159.833 258.112 159.579 258.056L152.898 256.611C152.658 256.553 152.495 256.646 152.411 256.889C147.17 271.594 137.74 281.799 124.121 287.503C110.491 293.211 94.8366 292.369 81.7195 285.917C70.4673 280.39 62.0882 271.7 56.5821 259.849C56.4583 259.591 56.2581 259.499 55.9814 259.57L36.8613 264.574C36.6308 264.634 36.4911 264.778 36.4423 265.007C34.5994 273.711 22.1641 272.146 21.9393 263.593C21.8726 261.072 22.9249 259.096 25.0962 257.665C27.4443 256.12 30.0322 256.073 32.8599 257.524C33.0615 257.626 33.2935 257.652 33.5139 257.598L53.4238 252.384C53.6544 252.324 53.7412 252.177 53.6844 251.942C49.7124 236.205 52.5327 220.008 62.4199 207.328C71.3166 195.924 84.4226 189.258 98.9324 188.338C99.0142 188.332 99.0908 188.297 99.1472 188.239C99.2037 188.181 99.236 188.104 99.2378 188.024L99.6102 172.982C99.6143 172.717 99.512 172.502 99.3035 172.335C97.2739 170.716 96.3101 168.792 96.412 166.564C96.8085 157.794 109.345 156.323 110.88 165.226C111.331 167.854 110.228 170.276 107.569 172.494C107.389 172.643 107.297 172.834 107.293 173.069L106.924 188.141C106.916 188.372 107.028 188.507 107.259 188.545L112.857 189.538C112.964 189.556 112.963 189.519 112.855 189.426C109.723 186.751 109.641 183.94 112.608 180.993C112.772 180.825 112.848 180.624 112.835 180.388C112.138 169.826 114.525 159.993 119.996 150.889C120.118 150.682 120.13 150.469 120.031 150.25C119.493 149.059 119.269 148.21 119.358 147.702C120.028 144.05 122.106 142.484 125.592 143.004C125.826 143.039 126.025 142.969 126.189 142.794C132.235 136.491 139.363 132.055 147.573 129.487C147.969 129.365 148.2 129.232 148.265 129.089C148.377 128.849 148.494 128.574 148.615 128.262C149.194 126.78 150.269 125.809 151.841 125.351C153.873 124.76 155.702 125.409 157.328 127.297C157.393 127.371 157.475 127.429 157.566 127.466C157.658 127.502 157.757 127.516 157.855 127.507C161.19 127.2 164.234 127.227 166.986 127.588C167.943 127.718 169.021 127.585 170.221 127.189C174.543 125.774 179.119 124.518 183.948 123.423C184.057 123.4 184.113 123.445 184.116 123.556L184.201 127.345C184.206 127.416 184.172 127.462 184.1 127.484L177.787 129.404C177.407 129.521 177.405 129.654 177.781 129.801L180.923 131.019C181.064 131.071 181.241 131.071 181.452 131.02L183.896 130.374C184.186 130.301 184.328 130.414 184.321 130.713L184.276 132.35C184.271 132.578 184.372 132.741 184.58 132.84L187.953 134.433C188.15 134.53 188.349 134.533 188.549 134.442C189.04 134.231 189.594 134.11 190.211 134.077C190.44 134.065 190.55 133.946 190.542 133.72L190.444 129.19C190.437 128.947 190.555 128.803 190.797 128.759C195.943 127.794 200.993 127.246 205.948 127.116C206.027 127.114 206.104 127.143 206.162 127.198C206.219 127.252 206.253 127.327 206.255 127.407C206.52 139.733 206.706 148.761 206.815 154.491C206.845 155.806 207.101 157.132 207.583 158.467C208.261 160.337 208.716 161.699 208.948 162.554C209.014 162.777 209.157 162.925 209.379 162.999C213.853 164.484 214.558 169.169 210.943 172.108C210.753 172.261 210.667 172.461 210.685 172.706C211.139 179.211 210.32 185.554 208.229 191.735C207.811 192.961 207.618 194.246 207.65 195.588C207.749 199.963 207.81 202.602 207.834 203.504C207.84 203.741 207.92 203.951 208.073 204.134C210.477 207.002 212.223 210.233 213.312 213.825C213.348 213.945 213.403 214.058 213.474 214.158C213.544 214.257 213.629 214.34 213.722 214.403C213.815 214.465 213.914 214.504 214.014 214.519C214.114 214.533 214.212 214.522 214.302 214.487C214.377 214.462 214.413 214.32 214.411 214.063C213.459 165.008 212.875 136.125 212.658 127.413C212.656 127.378 212.663 127.343 212.676 127.31C212.69 127.277 212.71 127.247 212.736 127.223C212.762 127.198 212.793 127.178 212.826 127.166C212.86 127.153 212.897 127.147 212.933 127.149C217.452 127.305 222.004 127.755 226.59 128.5C226.66 128.511 226.725 128.546 226.772 128.6C226.819 128.655 226.845 128.724 226.847 128.797L227.112 140.553C227.117 140.753 227.221 140.86 227.423 140.874L229.147 141.016C229.355 141.03 229.534 140.966 229.685 140.823L233.038 137.594C233.103 137.53 233.154 137.454 233.189 137.37C233.223 137.286 233.239 137.195 233.237 137.103L233.082 130.206C233.074 129.864 233.232 129.738 233.558 129.827L240.671 131.772C240.834 131.82 241.01 131.804 241.165 131.727L243.965 130.405C244.013 130.384 244.054 130.349 244.081 130.303C244.107 130.258 244.119 130.206 244.115 130.153C244.11 130.101 244.089 130.051 244.054 130.011C244.019 129.972 243.973 129.944 243.922 129.932L233.199 126.999C233.069 126.963 233.004 126.877 233.002 126.742L232.89 121.853C232.887 121.68 232.971 121.61 233.14 121.642C236.829 122.311 240.956 123.337 245.522 124.718C247.308 125.26 248.587 126.079 249.357 127.175C249.499 127.377 249.692 127.537 249.917 127.639C250.142 127.741 250.39 127.78 250.635 127.754C250.88 127.727 251.114 127.636 251.311 127.488C251.509 127.34 251.664 127.143 251.759 126.915C252.045 126.235 252.431 125.568 252.917 124.914C253.334 124.345 253.912 123.907 254.65 123.6C256.949 122.643 258.991 123.196 260.776 125.26C260.932 125.439 261.13 125.518 261.372 125.498C272.03 124.597 281.954 126.908 291.145 132.43C291.244 132.489 291.354 132.526 291.468 132.538C291.582 132.55 291.696 132.536 291.803 132.499C292.827 132.155 294.024 131.857 294.911 132.098C297.867 132.915 299.197 134.887 298.902 138.015C298.884 138.244 298.956 138.436 299.119 138.591C305.494 144.609 309.945 151.947 312.472 160.605C312.538 160.835 312.688 160.988 312.92 161.064C317.378 162.545 318.004 167.249 314.442 170.121C314.256 170.271 314.169 170.467 314.183 170.709C314.629 177.3 313.798 183.746 311.69 190.047C311.596 190.319 311.689 190.427 311.971 190.372C315.045 189.765 317.524 189.442 319.408 189.403C319.661 189.398 319.792 189.268 319.801 189.013L320.163 174.145C320.167 173.887 320.077 173.668 319.89 173.489C316.309 170.096 315.948 166.553 318.807 162.862C322.483 158.117 330.989 160.094 331.481 166.73C331.676 169.372 330.573 171.606 328.172 173.432C328.074 173.505 327.995 173.6 327.939 173.709C327.883 173.819 327.853 173.94 327.852 174.063L327.479 189.242C327.477 189.329 327.508 189.413 327.565 189.479C327.622 189.544 327.702 189.587 327.789 189.599C343.057 191.536 355.229 198.382 364.304 210.137C373.042 221.459 376.624 235.451 374.772 249.678C374.735 249.923 374.837 250.07 375.076 250.122L381.392 251.486C381.636 251.54 381.844 251.481 382.018 251.308C383.989 249.388 386.236 248.759 388.762 249.421C394.038 250.806 396.178 257.266 392.654 261.329C390.887 263.368 388.691 264.146 386.067 263.661C383.696 263.226 381.93 261.85 380.767 259.534C380.653 259.303 380.471 259.16 380.221 259.107L373.425 257.634C373.304 257.608 373.177 257.628 373.068 257.692C372.96 257.756 372.878 257.859 372.838 257.98C370.596 264.991 367.002 271.143 362.055 276.435C336.498 303.772 291.869 294.184 277.152 260.761C277.117 260.682 277.056 260.619 276.98 260.581C276.903 260.543 276.815 260.533 276.732 260.554L257.484 265.592C257.27 265.646 257.13 265.779 257.066 265.99C255.69 270.571 252.751 272.46 248.251 271.654C246.186 271.286 244.528 269.991 243.278 267.769C241.352 264.34 242.896 259.85 246.577 258.18C248.77 257.18 251.053 257.305 253.428 258.553C253.626 258.658 253.856 258.685 254.072 258.628L274.061 253.395C274.101 253.385 274.138 253.368 274.171 253.344C274.204 253.32 274.232 253.29 274.254 253.254C274.275 253.219 274.289 253.18 274.295 253.14C274.3 253.099 274.298 253.058 274.288 253.018C271.903 244.022 271.863 235.078 274.168 226.185C274.21 226.017 274.142 225.93 273.965 225.923C273.111 225.893 272.081 225.523 270.876 224.811C270.705 224.712 270.626 224.761 270.638 224.96C270.931 230.934 269.525 236.561 266.421 241.843C266.301 242.046 266.292 242.255 266.395 242.471C267.166 244.116 266.769 245.508 265.202 246.647C264.816 246.925 264.067 247.004 262.956 246.885C262.719 246.861 262.521 246.934 262.36 247.104C258.87 250.731 254.68 253.327 249.792 254.894C249.55 254.969 249.397 255.127 249.332 255.368C249.268 255.579 249.194 255.782 249.111 255.978C248.985 256.273 248.856 256.481 248.723 256.601C247.095 258.062 245.527 257.988 244.02 256.377C243.851 256.2 243.647 256.119 243.408 256.136C238.138 256.563 233.112 255.659 228.332 253.424C228.118 253.326 227.892 253.295 227.656 253.332C223.486 254.052 219.414 254.523 215.439 254.747C215.331 254.752 215.274 254.701 215.269 254.593L215.161 249.744C215.158 249.602 215.226 249.525 215.364 249.513L220.776 248.904C221.111 248.866 221.165 248.723 220.937 248.474L219.398 246.817C219.182 246.583 218.913 246.485 218.591 246.521L215.619 246.855C215.284 246.893 215.113 246.741 215.105 246.4C215.069 244.512 215.057 243.141 215.069 242.285C215.084 241.365 214.804 240.276 214.229 239.019C213.711 237.88 213.268 236.756 212.899 235.645C212.735 235.155 212.426 234.786 211.971 234.539C211.569 234.316 211.319 234.217 211.22 234.242C210.53 234.428 210.274 234.794 210.454 235.34C211.145 237.445 210.644 238.803 208.95 239.414C208.687 239.515 208.557 239.704 208.561 239.982L208.719 246.991C208.72 247.026 208.713 247.061 208.7 247.094C208.687 247.127 208.668 247.156 208.644 247.181C208.62 247.206 208.591 247.226 208.559 247.239C208.528 247.253 208.494 247.259 208.459 247.259C204.163 247.275 199.924 247.084 195.744 246.686C195.49 246.66 195.321 246.766 195.236 247.003C195.011 247.628 194.654 248.171 194.163 248.633C193.673 249.095 193.102 249.276 192.45 249.177C191.595 249.049 190.928 248.685 190.451 248.085C190.386 248.002 190.302 247.936 190.206 247.891C190.11 247.846 190.005 247.824 189.898 247.827L186.753 247.896C186.567 247.9 186.535 247.971 186.655 248.11C186.718 248.184 186.777 248.256 186.832 248.324C186.907 248.421 186.947 248.532 186.951 248.657L187.033 252.324C187.034 252.354 187.029 252.384 187.016 252.412C187.004 252.44 186.985 252.465 186.962 252.485C186.938 252.505 186.91 252.519 186.879 252.527C186.849 252.534 186.817 252.535 186.786 252.529C182.417 251.75 177.757 250.613 172.806 249.119C171.632 248.764 170.634 247.978 170.011 246.916C169.763 246.493 169.541 245.993 169.344 245.415C168.927 244.181 169.34 243.755 170.583 244.137C172.988 244.873 175.331 245.523 177.611 246.087C178.04 246.191 178.055 246.149 177.658 245.96ZM228.675 150.832C228.474 150.885 228.319 150.999 228.21 151.174C223.027 159.459 220.79 168.549 221.5 178.445C221.506 178.556 221.535 178.665 221.587 178.765C221.638 178.864 221.71 178.952 221.799 179.022C224.238 180.998 224.665 183.354 223.081 186.088C222.957 186.305 222.93 186.534 223.001 186.773C224.363 191.223 226.177 195.19 228.443 198.674C228.956 199.467 229.636 199.65 230.483 199.223C230.64 199.141 231.432 198.74 232.859 198.02C233.016 197.941 233.155 197.83 233.266 197.694C233.378 197.557 233.459 197.399 233.506 197.23C233.553 197.06 233.563 196.883 233.537 196.709C233.51 196.535 233.448 196.369 233.353 196.22C227.419 186.922 225.513 177.165 227.635 166.95C232.083 145.552 252.982 132.004 274.325 136.91C285.85 139.56 295.739 147.686 300.482 158.664C305.21 169.621 304.844 180.773 299.385 192.123C299.168 192.578 298.809 193.184 298.308 193.942C297.92 194.528 297.544 195.122 297.181 195.722C297.087 195.878 297.122 195.918 297.286 195.842L305.039 192.163C305.264 192.057 305.425 191.889 305.521 191.662C308.43 184.853 309.591 177.79 309.005 170.473C308.986 170.238 308.887 170.041 308.71 169.881C306.528 167.933 306.13 165.69 307.516 163.151C307.634 162.934 307.659 162.708 307.592 162.471C305.409 154.581 301.354 147.821 295.426 142.189C295.347 142.112 295.251 142.052 295.146 142.014C295.041 141.976 294.929 141.96 294.816 141.968C291.568 142.205 289.626 140.713 288.989 137.493C288.967 137.383 288.923 137.279 288.859 137.187C288.796 137.096 288.714 137.018 288.619 136.96C280.235 131.856 271.158 129.755 261.388 130.657C261.275 130.668 261.165 130.702 261.066 130.756C260.966 130.81 260.879 130.883 260.808 130.972C258.907 133.355 256.587 133.811 253.849 132.339C253.651 132.235 253.42 132.211 253.206 132.274C245.371 134.617 238.671 138.787 233.105 144.786C232.938 144.964 232.859 145.175 232.866 145.418C232.981 148.276 231.584 150.081 228.675 150.832ZM353.403 270.83C357.207 267.09 360.21 262.61 362.24 257.645C364.271 252.68 365.289 247.329 365.237 241.896C365.185 236.463 364.064 231.055 361.938 225.98C359.811 220.906 356.721 216.265 352.844 212.322C348.967 208.379 344.378 205.211 339.34 203C334.302 200.788 328.914 199.576 323.483 199.433C318.051 199.29 312.683 200.218 307.685 202.165C302.687 204.111 298.157 207.039 294.353 210.779C290.549 214.519 287.546 219 285.516 223.964C283.485 228.929 282.467 234.281 282.519 239.714C282.571 245.147 283.692 250.555 285.818 255.629C287.945 260.703 291.035 265.344 294.912 269.287C298.789 273.23 303.378 276.398 308.416 278.61C313.453 280.821 318.842 282.033 324.273 282.176C329.704 282.32 335.072 281.391 340.07 279.445C345.069 277.498 349.599 274.571 353.403 270.83ZM267.678 212.835C267.634 212.838 267.592 212.851 267.555 212.874C267.518 212.897 267.487 212.929 267.465 212.966C267.443 213.004 267.431 213.047 267.429 213.09C267.428 213.134 267.437 213.177 267.456 213.216L269.728 217.999C269.778 218.113 269.847 218.122 269.935 218.027C271.904 215.765 274.145 215.289 276.659 216.6C276.885 216.717 277.149 216.739 277.393 216.661C277.637 216.583 277.84 216.411 277.96 216.184C279.409 213.428 281.034 210.894 282.835 208.583C282.836 208.579 282.836 208.576 282.836 208.572C282.835 208.568 282.833 208.565 282.831 208.562C282.829 208.56 282.826 208.557 282.822 208.556C282.819 208.555 282.815 208.554 282.812 208.555C278.1 211 273.056 212.427 267.678 212.835ZM198.653 197.058C198.751 197.087 198.835 197.059 198.903 196.974C204.317 189.66 206.493 181.456 205.429 172.362C205.4 172.131 205.3 171.936 205.129 171.775C203.037 169.868 202.668 167.672 204.022 165.188C204.137 164.975 204.163 164.752 204.099 164.518C201.963 156.616 197.904 149.837 191.922 144.181C191.748 144.018 191.541 143.945 191.302 143.961C188.053 144.184 186.121 142.698 185.508 139.503C185.464 139.267 185.341 139.09 185.138 138.97C176.794 133.868 167.737 131.758 157.965 132.64C157.72 132.665 157.519 132.772 157.36 132.963C155.398 135.346 153.085 135.805 150.422 134.338C150.212 134.219 149.991 134.195 149.758 134.265C141.923 136.577 135.221 140.734 129.652 146.737C129.486 146.915 129.404 147.124 129.408 147.364C129.457 150.274 128.061 152.089 125.22 152.808C124.983 152.869 124.8 153.003 124.671 153.211C119.489 161.6 117.272 170.673 118.021 180.43C118.041 180.672 118.143 180.869 118.326 181.021C120.713 182.979 121.155 185.289 119.655 187.949C119.521 188.178 119.489 188.424 119.56 188.687L120.112 190.791C120.169 191.02 120.277 191.233 120.428 191.414C120.579 191.596 120.768 191.742 120.982 191.842L127.32 194.841C127.735 195.039 127.842 194.932 127.639 194.521C123.24 185.751 122.17 176.753 124.43 167.526C127.177 156.28 134.795 146.845 145.181 141.812C165.018 132.198 189.506 140.919 197.628 162.272C201.821 173.301 200.964 184.406 195.055 195.586C195.006 195.687 195.032 195.756 195.135 195.796L198.653 197.058ZM227.353 204.131C225.258 205.421 223.444 206.908 221.911 208.592C221.739 208.778 221.65 208.999 221.645 209.258C221.627 210.9 220.814 211.931 219.207 212.349C218.973 212.408 218.772 212.557 218.648 212.762C215.626 217.689 214.317 223.05 214.722 228.845C214.738 229.083 214.84 229.277 215.026 229.426C216.322 230.46 216.622 231.86 215.865 233.313C215.689 233.648 215.645 233.963 215.732 234.258C217.049 238.673 219.512 242.594 223.122 246.022C223.3 246.195 223.515 246.277 223.765 246.27C225.301 246.215 226.32 246.928 226.822 248.407C226.901 248.636 227.055 248.833 227.262 248.968C232.196 252.209 237.643 253.52 243.604 252.901C243.842 252.877 244.044 252.78 244.212 252.608C245.241 251.547 246.448 251.318 247.831 251.922C248.056 252.022 248.286 252.038 248.523 251.971C250.733 251.339 252.889 250.378 254.992 249.087C257.097 247.793 258.929 246.302 260.488 244.615C260.655 244.437 260.745 244.225 260.758 243.98C260.842 242.468 261.592 241.494 263.007 241.057C263.236 240.984 263.412 240.847 263.535 240.647C266.782 235.607 268.072 230.155 267.406 224.291C267.38 224.044 267.273 223.814 267.103 223.639C266.012 222.524 265.836 221.293 266.576 219.946C266.694 219.729 266.718 219.501 266.647 219.261C265.215 214.494 262.828 210.527 259.486 207.36C259.259 207.148 258.957 207.045 258.582 207.05C256.947 207.071 255.828 206.17 255.494 204.55C255.443 204.315 255.315 204.136 255.108 204.014C250.122 201.036 244.749 199.784 238.989 200.259C238.75 200.276 238.527 200.387 238.368 200.568C237.271 201.813 235.985 202.073 234.51 201.348C234.277 201.235 234.037 201.215 233.791 201.286C231.599 201.896 229.453 202.844 227.353 204.131ZM193.331 198.297C190.74 197.68 188.256 197.502 185.878 197.762C185.627 197.794 185.414 197.898 185.237 198.074C184.218 199.107 183.098 199.326 181.879 198.731C181.656 198.62 181.423 198.596 181.179 198.657C179.287 199.134 177.363 199.973 175.406 201.173C173.45 202.379 171.833 203.719 170.555 205.191C170.39 205.383 170.308 205.604 170.309 205.854C170.288 207.209 169.588 208.11 168.208 208.557C167.969 208.635 167.78 208.776 167.64 208.982C166.337 210.989 165.376 213.287 164.755 215.876C164.142 218.47 163.965 220.956 164.226 223.333C164.258 223.584 164.361 223.798 164.537 223.975C165.57 224.994 165.79 226.113 165.195 227.333C165.084 227.556 165.059 227.789 165.121 228.033C165.598 229.925 166.436 231.849 167.636 233.806C168.839 235.758 170.178 237.376 171.655 238.657C171.842 238.819 172.06 238.901 172.308 238.904C173.669 238.924 174.57 239.624 175.01 241.005C175.091 241.24 175.236 241.429 175.445 241.571C177.45 242.878 179.748 243.84 182.339 244.457C184.931 245.074 187.415 245.252 189.793 244.991C190.043 244.96 190.257 244.856 190.434 244.68C191.453 243.647 192.573 243.428 193.792 244.023C194.015 244.133 194.248 244.158 194.492 244.096C196.384 243.619 198.31 242.779 200.269 241.575C202.222 240.373 203.836 239.034 205.11 237.558C205.279 237.37 205.363 237.15 205.362 236.899C205.382 235.544 206.083 234.644 207.463 234.197C207.702 234.119 207.892 233.976 208.035 233.766C209.338 231.759 210.298 229.459 210.915 226.868C211.532 224.276 211.71 221.792 211.449 219.415C211.418 219.164 211.314 218.95 211.138 218.773C210.105 217.754 209.886 216.635 210.481 215.415C210.591 215.193 210.616 214.959 210.554 214.715C210.077 212.823 209.237 210.901 208.035 208.948C206.828 206.992 205.489 205.375 204.016 204.097C203.824 203.932 203.605 203.848 203.357 203.845C202.002 203.825 201.103 203.126 200.66 201.749C200.583 201.51 200.438 201.321 200.225 201.182C198.221 199.876 195.923 198.914 193.331 198.297ZM162.052 215.173C162.07 215.029 162.004 214.958 161.855 214.961C156.351 215.025 151.001 213.923 145.808 211.656C145.79 211.65 145.772 211.649 145.754 211.653C145.736 211.658 145.72 211.667 145.708 211.68C145.696 211.694 145.69 211.71 145.689 211.727C145.688 211.744 145.693 211.761 145.704 211.775C147.024 213.748 148.358 216.056 149.706 218.697C149.731 218.746 149.766 218.788 149.808 218.822C149.85 218.856 149.9 218.88 149.952 218.893C153.619 219.881 157.342 220.386 161.121 220.408C161.177 220.408 161.231 220.389 161.273 220.355C161.315 220.322 161.342 220.275 161.349 220.225L162.052 215.173ZM132.954 269.691C136.745 265.938 139.732 261.447 141.745 256.475C143.758 251.503 144.758 246.148 144.687 240.715C144.616 235.283 143.476 229.879 141.332 224.812C139.188 219.745 136.082 215.115 132.191 211.185C124.333 203.249 113.755 198.65 102.785 198.399C91.8149 198.148 81.351 202.266 73.6952 209.846C69.9044 213.6 66.9171 218.091 64.9039 223.063C62.8907 228.034 61.891 233.389 61.9619 238.822C62.0327 244.255 63.1728 249.659 65.3169 254.726C67.4611 259.793 70.5673 264.423 74.4583 268.352C82.3165 276.288 92.8942 280.888 103.864 281.139C114.834 281.39 125.298 277.272 132.954 269.691Z" fill="url(#paint1_linear_17_2104)"/>
<path d="M218 127.695V90.2741C218 90.1143 217.87 89.9847 217.709 89.9847L202.291 89.9847C202.13 89.9847 202 90.1143 202 90.2741V127.695C202 127.855 202.13 127.985 202.291 127.985L217.709 127.985C217.87 127.985 218 127.855 218 127.695Z" fill="url(#paint2_linear_17_2104)"/>
<path d="M320.274 110L291.201 85.7065C291.077 85.6027 290.892 85.6193 290.788 85.7435L280.818 97.6753C280.714 97.7995 280.731 97.9842 280.855 98.088L309.928 122.382C310.052 122.485 310.237 122.469 310.34 122.345L320.311 110.413C320.415 110.289 320.398 110.104 320.274 110Z" fill="url(#paint3_linear_17_2104)"/>
<path d="M63 121.985C65.7614 121.985 68 119.97 68 117.485C68 114.999 65.7614 112.985 63 112.985C60.2386 112.985 58 114.999 58 117.485C58 119.97 60.2386 121.985 63 121.985Z" fill="#3E3E3E"/>
<path d="M103 245.985C105.761 245.985 108 243.97 108 241.485C108 238.999 105.761 236.985 103 236.985C100.239 236.985 98 238.999 98 241.485C98 243.97 100.239 245.985 103 245.985Z" fill="#3E3E3E"/>
<path d="M325.5 245.985C327.985 245.985 330 243.97 330 241.485C330 238.999 327.985 236.985 325.5 236.985C323.015 236.985 321 238.999 321 241.485C321 243.97 323.015 245.985 325.5 245.985Z" fill="#3E3E3E"/>
<path d="M226.667 244.763C236.687 252.757 251.29 251.115 259.284 241.094C267.278 231.074 265.635 216.471 255.615 208.477C245.595 200.483 230.991 202.126 222.997 212.146C215.004 222.166 216.646 236.77 226.667 244.763Z" fill="url(#paint4_linear_17_2104)"/>
<path d="M336 137.985C338.761 137.985 341 135.97 341 133.485C341 130.999 338.761 128.985 336 128.985C333.239 128.985 331 130.999 331 133.485C331 135.97 333.239 137.985 336 137.985Z" fill="#3E3E3E"/>
<path d="M174.85 237.632C183.827 244.794 196.911 243.322 204.073 234.344C211.235 225.367 209.763 212.283 200.785 205.121C191.808 197.959 178.724 199.431 171.562 208.408C164.4 217.386 165.872 230.47 174.85 237.632Z" fill="url(#paint5_linear_17_2104)"/>
<path d="M235.573 61.7993C229.276 68.8296 221.751 72.2388 212.998 72.0267C204.229 71.8199 196.72 68.1478 190.469 61.0102C190.403 60.9317 190.309 60.8813 190.206 60.8692C190.104 60.8571 190.001 60.8843 189.918 60.9452L185.552 64.0346C185.351 64.1725 185.253 64.3631 185.26 64.6063C185.325 67.5736 182.914 69.7821 180.027 69.2984C173.751 68.24 175.329 59.2609 181.734 60.5132C181.979 60.5568 182.204 60.5078 182.409 60.3661L187.19 56.986C187.403 56.8332 187.449 56.6416 187.328 56.4111C183.566 49.1259 182.653 41.8371 184.589 34.5449C187.617 23.1298 196.996 15.3375 208.739 13.8641C208.909 13.8416 208.984 13.7432 208.965 13.5692L208.493 9.37148C208.456 9.05013 208.301 8.80148 208.027 8.62552C205.902 7.24087 205.227 5.39819 206.002 3.09746C207.37 -0.96658 213.689 -1.20953 214.694 3.43159C215.026 4.97045 214.632 6.35891 213.51 7.59694C213.403 7.71603 213.323 7.85605 213.275 8.00785C213.226 8.15965 213.21 8.3198 213.228 8.47783L213.783 13.4644C213.803 13.6385 213.901 13.7377 214.076 13.762C224.611 15.0853 232.418 19.9936 237.495 28.4868C242.876 37.478 243.257 47.0757 238.639 57.2798C238.523 57.5404 238.574 57.7583 238.794 57.9336L242.648 61.0085C242.79 61.1214 242.949 61.1661 243.126 61.1428C245.889 60.8117 247.679 61.7765 248.496 64.0371C249.764 67.5351 246.622 71.3359 242.886 70.0376C240.899 69.3424 239.879 67.7758 239.825 65.3379C239.819 65.0708 239.71 64.8526 239.497 64.6832L235.855 61.7777C235.755 61.6975 235.661 61.7047 235.573 61.7993Z" stroke="black" stroke-width="4" mask="url(#path-1-inside-1_17_2104)"/>
<path d="M177.658 245.96L174.027 244.243C173.819 244.144 173.605 244.122 173.384 244.178C171.929 244.528 170.856 244.169 170.167 243.101C170.023 242.883 169.887 242.42 169.756 241.713C169.643 241.129 169.406 240.647 169.044 240.268C165.851 236.922 163.651 233.229 162.444 229.188C162.373 228.949 162.223 228.777 161.995 228.674C160.729 228.091 160.122 227.183 160.173 225.95C160.182 225.671 160.048 225.531 159.77 225.528C157.955 225.519 155.528 225.268 152.49 224.776C152.21 224.729 152.111 224.842 152.193 225.114C154.612 232.883 155.276 240.71 154.183 248.595C154.165 248.739 154.227 248.831 154.366 248.869L160.656 250.587C160.926 250.662 161.161 250.6 161.362 250.401C162.516 249.237 163.583 248.562 164.561 248.373C168.135 247.683 170.822 248.773 172.622 251.641C175.41 256.087 172.959 262.368 167.362 262.738C164.273 262.943 161.87 261.525 160.151 258.485C160.024 258.255 159.833 258.112 159.579 258.056L152.898 256.611C152.658 256.553 152.495 256.646 152.411 256.889C147.17 271.594 137.74 281.799 124.121 287.503C110.491 293.211 94.8366 292.369 81.7195 285.917C70.4673 280.39 62.0882 271.7 56.5821 259.849C56.4583 259.591 56.2581 259.499 55.9814 259.57L36.8613 264.574C36.6308 264.634 36.4911 264.778 36.4423 265.007C34.5994 273.711 22.1641 272.146 21.9393 263.593C21.8726 261.072 22.9249 259.096 25.0962 257.665C27.4443 256.12 30.0322 256.073 32.8599 257.524C33.0615 257.626 33.2935 257.652 33.5139 257.598L53.4238 252.384C53.6544 252.324 53.7412 252.177 53.6844 251.942C49.7124 236.205 52.5327 220.008 62.4199 207.328C71.3166 195.924 84.4226 189.258 98.9324 188.338C99.0142 188.332 99.0908 188.297 99.1472 188.239C99.2037 188.181 99.236 188.104 99.2378 188.024L99.6102 172.982C99.6143 172.717 99.512 172.502 99.3035 172.335C97.2739 170.716 96.3101 168.792 96.412 166.564C96.8085 157.794 109.345 156.323 110.88 165.226C111.331 167.854 110.228 170.276 107.569 172.494C107.389 172.643 107.297 172.834 107.293 173.069L106.924 188.141C106.916 188.372 107.028 188.507 107.259 188.545L112.857 189.538C112.964 189.556 112.963 189.519 112.855 189.426C109.723 186.751 109.641 183.94 112.608 180.993C112.772 180.825 112.848 180.624 112.835 180.388C112.138 169.826 114.525 159.993 119.996 150.889C120.118 150.682 120.13 150.469 120.031 150.25C119.493 149.059 119.269 148.21 119.358 147.702C120.028 144.05 122.106 142.484 125.592 143.004C125.826 143.039 126.025 142.969 126.189 142.794C132.235 136.491 139.363 132.055 147.573 129.487C147.969 129.365 148.2 129.232 148.265 129.089C148.377 128.849 148.494 128.574 148.615 128.262C149.194 126.78 150.269 125.809 151.841 125.351C153.873 124.76 155.702 125.409 157.328 127.297C157.393 127.371 157.475 127.429 157.566 127.466C157.658 127.502 157.757 127.516 157.855 127.507C161.19 127.2 164.234 127.227 166.986 127.588C167.943 127.718 169.021 127.585 170.221 127.189C174.543 125.774 179.119 124.518 183.948 123.423C184.057 123.4 184.113 123.445 184.116 123.556L184.201 127.345C184.206 127.416 184.172 127.462 184.1 127.484L177.787 129.404C177.407 129.521 177.405 129.654 177.781 129.801L180.923 131.019C181.064 131.071 181.241 131.071 181.452 131.02L183.896 130.374C184.186 130.301 184.328 130.414 184.321 130.713L184.276 132.35C184.271 132.578 184.372 132.741 184.58 132.84L187.953 134.433C188.15 134.53 188.349 134.533 188.549 134.442C189.04 134.231 189.594 134.11 190.211 134.077C190.44 134.065 190.55 133.946 190.542 133.72L190.444 129.19C190.437 128.947 190.555 128.803 190.797 128.759C195.943 127.794 200.993 127.246 205.948 127.116C206.027 127.114 206.104 127.143 206.162 127.198C206.219 127.252 206.253 127.327 206.255 127.407C206.52 139.733 206.706 148.761 206.815 154.491C206.845 155.806 207.101 157.132 207.583 158.467C208.261 160.337 208.716 161.699 208.948 162.554C209.014 162.777 209.157 162.925 209.379 162.999C213.853 164.484 214.558 169.169 210.943 172.108C210.753 172.261 210.667 172.461 210.685 172.706C211.139 179.211 210.32 185.554 208.229 191.735C207.811 192.961 207.618 194.246 207.65 195.588C207.749 199.963 207.81 202.602 207.834 203.504C207.84 203.741 207.92 203.951 208.073 204.134C210.477 207.002 212.223 210.233 213.312 213.825C213.348 213.945 213.403 214.058 213.474 214.158C213.544 214.257 213.629 214.34 213.722 214.403C213.815 214.465 213.914 214.504 214.014 214.519C214.114 214.533 214.212 214.522 214.302 214.487C214.377 214.462 214.413 214.32 214.411 214.063C213.459 165.008 212.875 136.125 212.658 127.413C212.656 127.378 212.663 127.343 212.676 127.31C212.69 127.277 212.71 127.247 212.736 127.223C212.762 127.198 212.793 127.178 212.826 127.166C212.86 127.153 212.897 127.147 212.933 127.149C217.452 127.305 222.004 127.755 226.59 128.5C226.66 128.511 226.725 128.546 226.772 128.6C226.819 128.655 226.845 128.724 226.847 128.797L227.112 140.553C227.117 140.753 227.221 140.86 227.423 140.874L229.147 141.016C229.355 141.03 229.534 140.966 229.685 140.823L233.038 137.594C233.103 137.53 233.154 137.454 233.189 137.37C233.223 137.286 233.239 137.195 233.237 137.103L233.082 130.206C233.074 129.864 233.232 129.738 233.558 129.827L240.671 131.772C240.834 131.82 241.01 131.804 241.165 131.727L243.965 130.405C244.013 130.384 244.054 130.349 244.081 130.303C244.107 130.258 244.119 130.206 244.115 130.153C244.11 130.101 244.089 130.051 244.054 130.011C244.019 129.972 243.973 129.944 243.922 129.932L233.199 126.999C233.069 126.963 233.004 126.877 233.002 126.742L232.89 121.853C232.887 121.68 232.971 121.61 233.14 121.642C236.829 122.311 240.956 123.337 245.522 124.718C247.308 125.26 248.587 126.079 249.357 127.175C249.499 127.377 249.692 127.537 249.917 127.639C250.142 127.741 250.39 127.78 250.635 127.754C250.88 127.727 251.114 127.636 251.311 127.488C251.509 127.34 251.664 127.143 251.759 126.915C252.045 126.235 252.431 125.568 252.917 124.914C253.334 124.345 253.912 123.907 254.65 123.6C256.949 122.643 258.991 123.196 260.776 125.26C260.932 125.439 261.13 125.518 261.372 125.498C272.03 124.597 281.954 126.908 291.145 132.43C291.244 132.489 291.354 132.526 291.468 132.538C291.582 132.55 291.696 132.536 291.803 132.499C292.827 132.155 294.024 131.857 294.911 132.098C297.867 132.915 299.197 134.887 298.902 138.015C298.884 138.244 298.956 138.436 299.119 138.591C305.494 144.609 309.945 151.947 312.472 160.605C312.538 160.835 312.688 160.988 312.92 161.064C317.378 162.545 318.004 167.249 314.442 170.121C314.256 170.271 314.169 170.467 314.183 170.709C314.629 177.3 313.798 183.746 311.69 190.047C311.596 190.319 311.689 190.427 311.971 190.372C315.045 189.765 317.524 189.442 319.408 189.403C319.661 189.398 319.792 189.268 319.801 189.013L320.163 174.145C320.167 173.887 320.077 173.668 319.89 173.489C316.309 170.096 315.948 166.553 318.807 162.862C322.483 158.117 330.989 160.094 331.481 166.73C331.676 169.372 330.573 171.606 328.172 173.432C328.074 173.505 327.995 173.6 327.939 173.709C327.883 173.819 327.853 173.94 327.852 174.063L327.479 189.242C327.477 189.329 327.508 189.413 327.565 189.479C327.622 189.544 327.702 189.587 327.789 189.599C343.057 191.536 355.229 198.382 364.304 210.137C373.042 221.459 376.624 235.451 374.772 249.678C374.735 249.923 374.837 250.07 375.076 250.122L381.392 251.486C381.636 251.54 381.844 251.481 382.018 251.308C383.989 249.388 386.236 248.759 388.762 249.421C394.038 250.806 396.178 257.266 392.654 261.329C390.887 263.368 388.691 264.146 386.067 263.661C383.696 263.226 381.93 261.85 380.767 259.534C380.653 259.303 380.471 259.16 380.221 259.107L373.425 257.634C373.304 257.608 373.177 257.628 373.068 257.692C372.96 257.756 372.878 257.859 372.838 257.98C370.596 264.991 367.002 271.143 362.055 276.435C336.498 303.772 291.869 294.184 277.152 260.761C277.117 260.682 277.056 260.619 276.98 260.581C276.903 260.543 276.815 260.533 276.732 260.554L257.484 265.592C257.27 265.646 257.13 265.779 257.066 265.99C255.69 270.571 252.751 272.46 248.251 271.654C246.186 271.286 244.528 269.991 243.278 267.769C241.352 264.34 242.896 259.85 246.577 258.18C248.77 257.18 251.053 257.305 253.428 258.553C253.626 258.658 253.856 258.685 254.072 258.628L274.061 253.395C274.101 253.385 274.138 253.368 274.171 253.344C274.204 253.32 274.232 253.29 274.254 253.254C274.275 253.219 274.289 253.18 274.295 253.14C274.3 253.099 274.298 253.058 274.288 253.018C271.903 244.022 271.863 235.078 274.168 226.185C274.21 226.017 274.142 225.93 273.965 225.923C273.111 225.893 272.081 225.523 270.876 224.811C270.705 224.712 270.626 224.761 270.638 224.96C270.931 230.934 269.525 236.561 266.421 241.843C266.301 242.046 266.292 242.255 266.395 242.471C267.166 244.116 266.769 245.508 265.202 246.647C264.816 246.925 264.067 247.004 262.956 246.885C262.719 246.861 262.521 246.934 262.36 247.104C258.87 250.731 254.68 253.327 249.792 254.894C249.55 254.969 249.397 255.127 249.332 255.368C249.268 255.579 249.194 255.782 249.111 255.978C248.985 256.273 248.856 256.481 248.723 256.601C247.095 258.062 245.527 257.988 244.02 256.377C243.851 256.2 243.647 256.119 243.408 256.136C238.138 256.563 233.112 255.659 228.332 253.424C228.118 253.326 227.892 253.295 227.656 253.332C223.486 254.052 219.414 254.523 215.439 254.747C215.331 254.752 215.274 254.701 215.269 254.593L215.161 249.744C215.158 249.602 215.226 249.525 215.364 249.513L220.776 248.904C221.111 248.866 221.165 248.723 220.937 248.474L219.398 246.817C219.182 246.583 218.913 246.485 218.591 246.521L215.619 246.855C215.284 246.893 215.113 246.741 215.105 246.4C215.069 244.512 215.057 243.141 215.069 242.285C215.084 241.365 214.804 240.276 214.229 239.019C213.711 237.88 213.268 236.756 212.899 235.645C212.735 235.155 212.426 234.786 211.971 234.539C211.569 234.316 211.319 234.217 211.22 234.242C210.53 234.428 210.274 234.794 210.454 235.34C211.145 237.445 210.644 238.803 208.95 239.414C208.687 239.515 208.557 239.704 208.561 239.982L208.719 246.991C208.72 247.026 208.713 247.061 208.7 247.094C208.687 247.127 208.668 247.156 208.644 247.181C208.62 247.206 208.591 247.226 208.559 247.239C208.528 247.253 208.494 247.259 208.459 247.259C204.163 247.275 199.924 247.084 195.744 246.686C195.49 246.66 195.321 246.766 195.236 247.003C195.011 247.628 194.654 248.171 194.163 248.633C193.673 249.095 193.102 249.276 192.45 249.177C191.595 249.049 190.928 248.685 190.451 248.085C190.386 248.002 190.302 247.936 190.206 247.891C190.11 247.846 190.005 247.824 189.898 247.827L186.753 247.896C186.567 247.9 186.535 247.971 186.655 248.11C186.718 248.184 186.777 248.256 186.832 248.324C186.907 248.421 186.947 248.532 186.951 248.657L187.033 252.324C187.034 252.354 187.029 252.384 187.016 252.412C187.004 252.44 186.985 252.465 186.962 252.485C186.938 252.505 186.91 252.519 186.879 252.527C186.849 252.534 186.817 252.535 186.786 252.529C182.417 251.75 177.757 250.613 172.806 249.119C171.632 248.764 170.634 247.978 170.011 246.916C169.763 246.493 169.541 245.993 169.344 245.415C168.927 244.181 169.34 243.755 170.583 244.137C172.988 244.873 175.331 245.523 177.611 246.087C178.04 246.191 178.055 246.149 177.658 245.96ZM228.675 150.832C228.474 150.885 228.319 150.999 228.21 151.174C223.027 159.459 220.79 168.549 221.5 178.445C221.506 178.556 221.535 178.665 221.587 178.765C221.638 178.864 221.71 178.952 221.799 179.022C224.238 180.998 224.665 183.354 223.081 186.088C222.957 186.305 222.93 186.534 223.001 186.773C224.363 191.223 226.177 195.19 228.443 198.674C228.956 199.467 229.636 199.65 230.483 199.223C230.64 199.141 231.432 198.74 232.859 198.02C233.016 197.941 233.155 197.83 233.266 197.694C233.378 197.557 233.459 197.399 233.506 197.23C233.553 197.06 233.563 196.883 233.537 196.709C233.51 196.535 233.448 196.369 233.353 196.22C227.419 186.922 225.513 177.165 227.635 166.95C232.083 145.552 252.982 132.004 274.325 136.91C285.85 139.56 295.739 147.686 300.482 158.664C305.21 169.621 304.844 180.773 299.385 192.123C299.168 192.578 298.809 193.184 298.308 193.942C297.92 194.528 297.544 195.122 297.181 195.722C297.087 195.878 297.122 195.918 297.286 195.842L305.039 192.163C305.264 192.057 305.425 191.889 305.521 191.662C308.43 184.853 309.591 177.79 309.005 170.473C308.986 170.238 308.887 170.041 308.71 169.881C306.528 167.933 306.13 165.69 307.516 163.151C307.634 162.934 307.659 162.708 307.592 162.471C305.409 154.581 301.354 147.821 295.426 142.189C295.347 142.112 295.251 142.052 295.146 142.014C295.041 141.976 294.929 141.96 294.816 141.968C291.568 142.205 289.626 140.713 288.989 137.493C288.967 137.383 288.923 137.279 288.859 137.187C288.796 137.096 288.714 137.018 288.619 136.96C280.235 131.856 271.158 129.755 261.388 130.657C261.275 130.668 261.165 130.702 261.066 130.756C260.966 130.81 260.879 130.883 260.808 130.972C258.907 133.355 256.587 133.811 253.849 132.339C253.651 132.235 253.42 132.211 253.206 132.274C245.371 134.617 238.671 138.787 233.105 144.786C232.938 144.964 232.859 145.175 232.866 145.418C232.981 148.276 231.584 150.081 228.675 150.832ZM353.403 270.83C357.207 267.09 360.21 262.61 362.24 257.645C364.271 252.68 365.289 247.329 365.237 241.896C365.185 236.463 364.064 231.055 361.938 225.98C359.811 220.906 356.721 216.265 352.844 212.322C348.967 208.379 344.378 205.211 339.34 203C334.302 200.788 328.914 199.576 323.483 199.433C318.051 199.29 312.683 200.218 307.685 202.165C302.687 204.111 298.157 207.039 294.353 210.779C290.549 214.519 287.546 219 285.516 223.964C283.485 228.929 282.467 234.281 282.519 239.714C282.571 245.147 283.692 250.555 285.818 255.629C287.945 260.703 291.035 265.344 294.912 269.287C298.789 273.23 303.378 276.398 308.416 278.61C313.453 280.821 318.842 282.033 324.273 282.176C329.704 282.32 335.072 281.391 340.07 279.445C345.069 277.498 349.599 274.571 353.403 270.83ZM267.678 212.835C267.634 212.838 267.592 212.851 267.555 212.874C267.518 212.897 267.487 212.929 267.465 212.966C267.443 213.004 267.431 213.047 267.429 213.09C267.428 213.134 267.437 213.177 267.456 213.216L269.728 217.999C269.778 218.113 269.847 218.122 269.935 218.027C271.904 215.765 274.145 215.289 276.659 216.6C276.885 216.717 277.149 216.739 277.393 216.661C277.637 216.583 277.84 216.411 277.96 216.184C279.409 213.428 281.034 210.894 282.835 208.583C282.836 208.579 282.836 208.576 282.836 208.572C282.835 208.568 282.833 208.565 282.831 208.562C282.829 208.56 282.826 208.557 282.822 208.556C282.819 208.555 282.815 208.554 282.812 208.555C278.1 211 273.056 212.427 267.678 212.835ZM198.653 197.058C198.751 197.087 198.835 197.059 198.903 196.974C204.317 189.66 206.493 181.456 205.429 172.362C205.4 172.131 205.3 171.936 205.129 171.775C203.037 169.868 202.668 167.672 204.022 165.188C204.137 164.975 204.163 164.752 204.099 164.518C201.963 156.616 197.904 149.837 191.922 144.181C191.748 144.018 191.541 143.945 191.302 143.961C188.053 144.184 186.121 142.698 185.508 139.503C185.464 139.267 185.341 139.09 185.138 138.97C176.794 133.868 167.737 131.758 157.965 132.64C157.72 132.665 157.519 132.772 157.36 132.963C155.398 135.346 153.085 135.805 150.422 134.338C150.212 134.219 149.991 134.195 149.758 134.265C141.923 136.577 135.221 140.734 129.652 146.737C129.486 146.915 129.404 147.124 129.408 147.364C129.457 150.274 128.061 152.089 125.22 152.808C124.983 152.869 124.8 153.003 124.671 153.211C119.489 161.6 117.272 170.673 118.021 180.43C118.041 180.672 118.143 180.869 118.326 181.021C120.713 182.979 121.155 185.289 119.655 187.949C119.521 188.178 119.489 188.424 119.56 188.687L120.112 190.791C120.169 191.02 120.277 191.233 120.428 191.414C120.579 191.596 120.768 191.742 120.982 191.842L127.32 194.841C127.735 195.039 127.842 194.932 127.639 194.521C123.24 185.751 122.17 176.753 124.43 167.526C127.177 156.28 134.795 146.845 145.181 141.812C165.018 132.198 189.506 140.919 197.628 162.272C201.821 173.301 200.964 184.406 195.055 195.586C195.006 195.687 195.032 195.756 195.135 195.796L198.653 197.058ZM227.353 204.131C225.258 205.421 223.444 206.908 221.911 208.592C221.739 208.778 221.65 208.999 221.645 209.258C221.627 210.9 220.814 211.931 219.207 212.349C218.973 212.408 218.772 212.557 218.648 212.762C215.626 217.689 214.317 223.05 214.722 228.845C214.738 229.083 214.84 229.277 215.026 229.426C216.322 230.46 216.622 231.86 215.865 233.313C215.689 233.648 215.645 233.963 215.732 234.258C217.049 238.673 219.512 242.594 223.122 246.022C223.3 246.195 223.515 246.277 223.765 246.27C225.301 246.215 226.32 246.928 226.822 248.407C226.901 248.636 227.055 248.833 227.262 248.968C232.196 252.209 237.643 253.52 243.604 252.901C243.842 252.877 244.044 252.78 244.212 252.608C245.241 251.547 246.448 251.318 247.831 251.922C248.056 252.022 248.286 252.038 248.523 251.971C250.733 251.339 252.889 250.378 254.992 249.087C257.097 247.793 258.929 246.302 260.488 244.615C260.655 244.437 260.745 244.225 260.758 243.98C260.842 242.468 261.592 241.494 263.007 241.057C263.236 240.984 263.412 240.847 263.535 240.647C266.782 235.607 268.072 230.155 267.406 224.291C267.38 224.044 267.273 223.814 267.103 223.639C266.012 222.524 265.836 221.293 266.576 219.946C266.694 219.729 266.718 219.501 266.647 219.261C265.215 214.494 262.828 210.527 259.486 207.36C259.259 207.148 258.957 207.045 258.582 207.05C256.947 207.071 255.828 206.17 255.494 204.55C255.443 204.315 255.315 204.136 255.108 204.014C250.122 201.036 244.749 199.784 238.989 200.259C238.75 200.276 238.527 200.387 238.368 200.568C237.271 201.813 235.985 202.073 234.51 201.348C234.277 201.235 234.037 201.215 233.791 201.286C231.599 201.896 229.453 202.844 227.353 204.131ZM193.331 198.297C190.74 197.68 188.256 197.502 185.878 197.762C185.627 197.794 185.414 197.898 185.237 198.074C184.218 199.107 183.098 199.326 181.879 198.731C181.656 198.62 181.423 198.596 181.179 198.657C179.287 199.134 177.363 199.973 175.406 201.173C173.45 202.379 171.833 203.719 170.555 205.191C170.39 205.383 170.308 205.604 170.309 205.854C170.288 207.209 169.588 208.11 168.208 208.557C167.969 208.635 167.78 208.776 167.64 208.982C166.337 210.989 165.376 213.287 164.755 215.876C164.142 218.47 163.965 220.956 164.226 223.333C164.258 223.584 164.361 223.798 164.537 223.975C165.57 224.994 165.79 226.113 165.195 227.333C165.084 227.556 165.059 227.789 165.121 228.033C165.598 229.925 166.436 231.849 167.636 233.806C168.839 235.758 170.178 237.376 171.655 238.657C171.842 238.819 172.06 238.901 172.308 238.904C173.669 238.924 174.57 239.624 175.01 241.005C175.091 241.24 175.236 241.429 175.445 241.571C177.45 242.878 179.748 243.84 182.339 244.457C184.931 245.074 187.415 245.252 189.793 244.991C190.043 244.96 190.257 244.856 190.434 244.68C191.453 243.647 192.573 243.428 193.792 244.023C194.015 244.133 194.248 244.158 194.492 244.096C196.384 243.619 198.31 242.779 200.269 241.575C202.222 240.373 203.836 239.034 205.11 237.558C205.279 237.37 205.363 237.15 205.362 236.899C205.382 235.544 206.083 234.644 207.463 234.197C207.702 234.119 207.892 233.976 208.035 233.766C209.338 231.759 210.298 229.459 210.915 226.868C211.532 224.276 211.71 221.792 211.449 219.415C211.418 219.164 211.314 218.95 211.138 218.773C210.105 217.754 209.886 216.635 210.481 215.415C210.591 215.193 210.616 214.959 210.554 214.715C210.077 212.823 209.237 210.901 208.035 208.948C206.828 206.992 205.489 205.375 204.016 204.097C203.824 203.932 203.605 203.848 203.357 203.845C202.002 203.825 201.103 203.126 200.66 201.749C200.583 201.51 200.438 201.321 200.225 201.182C198.221 199.876 195.923 198.914 193.331 198.297ZM162.052 215.173C162.07 215.029 162.004 214.958 161.855 214.961C156.351 215.025 151.001 213.923 145.808 211.656C145.79 211.65 145.772 211.649 145.754 211.653C145.736 211.658 145.72 211.667 145.708 211.68C145.696 211.694 145.69 211.71 145.689 211.727C145.688 211.744 145.693 211.761 145.704 211.775C147.024 213.748 148.358 216.056 149.706 218.697C149.731 218.746 149.766 218.788 149.808 218.822C149.85 218.856 149.9 218.88 149.952 218.893C153.619 219.881 157.342 220.386 161.121 220.408C161.177 220.408 161.231 220.389 161.273 220.355C161.315 220.322 161.342 220.275 161.349 220.225L162.052 215.173ZM132.954 269.691C136.745 265.938 139.732 261.447 141.745 256.475C143.758 251.503 144.758 246.148 144.687 240.715C144.616 235.283 143.476 229.879 141.332 224.812C139.188 219.745 136.082 215.115 132.191 211.185C124.333 203.249 113.755 198.65 102.785 198.399C91.8149 198.148 81.351 202.266 73.6952 209.846C69.9044 213.6 66.9171 218.091 64.9039 223.063C62.8907 228.034 61.891 233.389 61.9619 238.822C62.0327 244.255 63.1728 249.659 65.3169 254.726C67.4611 259.793 70.5673 264.423 74.4583 268.352C82.3165 276.288 92.8942 280.888 103.864 281.139C114.834 281.39 125.298 277.272 132.954 269.691Z" stroke="black" stroke-width="4" mask="url(#path-1-inside-1_17_2104)"/>
<path d="M218 127.695V90.2741C218 90.1143 217.87 89.9847 217.709 89.9847L202.291 89.9847C202.13 89.9847 202 90.1143 202 90.2741V127.695C202 127.855 202.13 127.985 202.291 127.985L217.709 127.985C217.87 127.985 218 127.855 218 127.695Z" stroke="black" stroke-width="4" mask="url(#path-1-inside-1_17_2104)"/>
<path d="M320.274 110L291.201 85.7065C291.077 85.6027 290.892 85.6193 290.788 85.7435L280.818 97.6753C280.714 97.7995 280.731 97.9842 280.855 98.088L309.928 122.382C310.052 122.485 310.237 122.469 310.34 122.345L320.311 110.413C320.415 110.289 320.398 110.104 320.274 110Z" stroke="black" stroke-width="4" mask="url(#path-1-inside-1_17_2104)"/>
<path d="M63 121.985C65.7614 121.985 68 119.97 68 117.485C68 114.999 65.7614 112.985 63 112.985C60.2386 112.985 58 114.999 58 117.485C58 119.97 60.2386 121.985 63 121.985Z" stroke="black" stroke-width="4" mask="url(#path-1-inside-1_17_2104)"/>
<path d="M103 245.985C105.761 245.985 108 243.97 108 241.485C108 238.999 105.761 236.985 103 236.985C100.239 236.985 98 238.999 98 241.485C98 243.97 100.239 245.985 103 245.985Z" stroke="black" stroke-width="4" mask="url(#path-1-inside-1_17_2104)"/>
<path d="M325.5 245.985C327.985 245.985 330 243.97 330 241.485C330 238.999 327.985 236.985 325.5 236.985C323.015 236.985 321 238.999 321 241.485C321 243.97 323.015 245.985 325.5 245.985Z" stroke="black" stroke-width="4" mask="url(#path-1-inside-1_17_2104)"/>
<path d="M226.667 244.763C236.687 252.757 251.29 251.115 259.284 241.094C267.278 231.074 265.635 216.471 255.615 208.477C245.595 200.483 230.991 202.126 222.997 212.146C215.004 222.166 216.646 236.77 226.667 244.763Z" stroke="black" stroke-width="4" mask="url(#path-1-inside-1_17_2104)"/>
<path d="M336 137.985C338.761 137.985 341 135.97 341 133.485C341 130.999 338.761 128.985 336 128.985C333.239 128.985 331 130.999 331 133.485C331 135.97 333.239 137.985 336 137.985Z" stroke="black" stroke-width="4" mask="url(#path-1-inside-1_17_2104)"/>
<path d="M174.85 237.632C183.827 244.794 196.911 243.322 204.073 234.344C211.235 225.367 209.763 212.283 200.785 205.121C191.808 197.959 178.724 199.431 171.562 208.408C164.4 217.386 165.872 230.47 174.85 237.632Z" stroke="black" stroke-width="4" mask="url(#path-1-inside-1_17_2104)"/>
<path d="M367 133.985C367 151.106 352.897 164.985 335.5 164.985C318.103 164.985 304 151.106 304 133.985C304 116.864 318.103 102.985 335.5 102.985C352.897 102.985 367 116.864 367 133.985Z" stroke="black" stroke-width="4" mask="url(#path-1-inside-1_17_2104)"/>
<path d="M126 115.985C126 150.779 97.7939 178.985 63 178.985C28.2061 178.985 0 150.779 0 115.985C0 81.1908 28.2061 52.9847 63 52.9847C97.7939 52.9847 126 81.1908 126 115.985Z" stroke="black" stroke-width="4" mask="url(#path-1-inside-1_17_2104)"/>
<defs>
<linearGradient id="paint0_linear_17_2104" x1="197.192" y1="0" x2="197.192" y2="292.354" gradientUnits="userSpaceOnUse">
<stop stop-color="#3A3A3A"/>
<stop offset="1" stop-color="#666666"/>
</linearGradient>
<linearGradient id="paint1_linear_17_2104" x1="197.192" y1="0" x2="197.192" y2="292.354" gradientUnits="userSpaceOnUse">
<stop stop-color="#767676"/>
<stop offset="1" stop-color="#666666"/>
</linearGradient>
<linearGradient id="paint2_linear_17_2104" x1="197.192" y1="0" x2="197.192" y2="292.354" gradientUnits="userSpaceOnUse">
<stop stop-color="#3A3A3A"/>
<stop offset="1" stop-color="#666666"/>
</linearGradient>
<linearGradient id="paint3_linear_17_2104" x1="197.192" y1="0" x2="197.192" y2="292.354" gradientUnits="userSpaceOnUse">
<stop stop-color="#3A3A3A"/>
<stop offset="1" stop-color="#666666"/>
</linearGradient>
<linearGradient id="paint4_linear_17_2104" x1="197.192" y1="0" x2="197.192" y2="292.354" gradientUnits="userSpaceOnUse">
<stop stop-color="#3A3A3A"/>
<stop offset="1" stop-color="#666666"/>
</linearGradient>
<linearGradient id="paint5_linear_17_2104" x1="197.192" y1="0" x2="197.192" y2="292.354" gradientUnits="userSpaceOnUse">
<stop stop-color="#3A3A3A"/>
<stop offset="1" stop-color="#666666"/>
</linearGradient>
</defs>
</svg>
