<svg width="229" height="65" viewBox="0 0 229 65" fill="none" xmlns="http://www.w3.org/2000/svg">
<path d="M3.63091 2.27487H224.56V57.2914H3.63091V2.27487Z" fill="#E8E8E8"/>
<path d="M114.448 0.0888986C172.679 0.0298222 209.376 0.000185369 224.541 0C225.613 0.000983316 226.369 0.141232 226.808 0.420737C227.54 0.883396 227.918 1.65494 227.94 2.73538C228.288 19.2528 228.635 35.7726 228.983 52.2948C229.064 56.2084 228.9 59.0935 227.586 62.3339C227.145 63.4148 226.456 64.1329 225.52 64.4881C224.997 64.6874 224.088 64.787 222.791 64.7871C186.697 64.8261 150.604 64.8628 114.511 64.897C78.4173 64.9361 42.3243 64.9703 6.23188 64.9998C4.93442 65.0047 4.0241 64.9073 3.50094 64.7077C2.56526 64.3548 1.87611 63.6385 1.43349 62.5586C0.112796 59.3199 -0.0599586 56.4363 0.0146169 52.5223C0.32931 35.998 0.64478 19.4774 0.961046 2.96049C0.982187 1.88015 1.35716 1.10829 2.08597 0.644901C2.52602 0.363795 3.28242 0.221342 4.35516 0.217553C19.5182 0.188193 56.216 0.145317 114.448 0.0888986ZM79.535 12.9394L79.5473 34.6705C79.5469 34.7015 79.5527 34.7322 79.5644 34.7609C79.576 34.7896 79.5931 34.8157 79.6149 34.8378C79.6367 34.8598 79.6626 34.8773 79.6911 34.8892C79.7197 34.9012 79.7503 34.9073 79.7812 34.9074L88.241 34.9006C88.3931 34.901 88.4693 34.8251 88.4697 34.6728L88.4567 12.8837C88.4575 12.7919 88.5037 12.7465 88.5954 12.7472L91.4145 12.7412C91.4988 12.7436 91.5421 12.7872 91.5446 12.872L91.5543 34.6898C91.5551 34.789 91.605 34.8381 91.7042 34.8373L96.1928 34.8362C96.3163 34.8333 96.3777 34.7714 96.3769 34.6505L96.3642 12.7635C96.3641 12.7444 96.3679 12.7255 96.3753 12.7079C96.3827 12.6903 96.3936 12.6743 96.4073 12.661C96.4209 12.6477 96.4372 12.6372 96.4549 12.6303C96.4727 12.6234 96.4917 12.6201 96.5108 12.6206L99.3116 12.6162C99.4033 12.617 99.4498 12.6645 99.4512 12.7589L99.4649 34.5735C99.4648 34.5898 99.468 34.6058 99.4742 34.6208C99.4804 34.6358 99.4895 34.6495 99.501 34.6609C99.5125 34.6723 99.5262 34.6814 99.5413 34.6874C99.5563 34.6935 99.5724 34.6966 99.5886 34.6963L104.066 34.6975C104.095 34.6978 104.124 34.6922 104.151 34.6812C104.178 34.6701 104.202 34.6538 104.223 34.6332C104.243 34.6126 104.26 34.5881 104.271 34.5611C104.282 34.5341 104.287 34.5052 104.287 34.4761L104.272 12.578C104.269 12.5149 104.301 12.4834 104.366 12.4835L107.195 12.4824C107.304 12.4827 107.357 12.5358 107.355 12.6419L107.369 34.3841C107.369 34.4217 107.377 34.459 107.391 34.4939C107.405 34.5287 107.426 34.5603 107.453 34.5869C107.48 34.6135 107.511 34.6346 107.546 34.6489C107.581 34.6632 107.618 34.6705 107.656 34.6704L115.285 34.6672C115.38 34.6658 115.427 34.6193 115.428 34.5275L115.414 12.6477C115.414 12.5655 115.449 12.5247 115.519 12.5254L118.361 12.5728C118.455 12.5762 118.503 12.6228 118.505 12.7124L118.515 34.4904C118.515 34.5095 118.518 34.5285 118.525 34.5463C118.532 34.5641 118.542 34.5803 118.555 34.594C118.569 34.6077 118.585 34.6185 118.602 34.626C118.62 34.6334 118.639 34.6371 118.658 34.6371L123.111 34.6319C123.26 34.6344 123.335 34.5595 123.335 34.4073L123.322 12.5927C123.32 12.4766 123.379 12.4191 123.497 12.4205L126.222 12.4183C126.246 12.418 126.27 12.4225 126.293 12.4316C126.315 12.4408 126.336 12.4543 126.353 12.4714C126.37 12.4886 126.384 12.509 126.393 12.5315C126.403 12.554 126.407 12.5781 126.407 12.6025L126.417 34.355C126.418 34.4067 126.438 34.4561 126.475 34.4927C126.511 34.5293 126.561 34.5503 126.612 34.5512L134.811 34.5438C134.836 34.5438 134.862 34.5386 134.885 34.5285C134.909 34.5185 134.93 34.5038 134.948 34.4853C134.966 34.4668 134.98 34.4448 134.989 34.4207C134.999 34.3966 135.004 34.3707 135.004 34.3446L134.996 12.5126C134.995 12.4181 135.04 12.3713 135.131 12.3721L137.896 12.3707C137.919 12.3703 137.943 12.3748 137.965 12.384C137.987 12.3931 138.007 12.4068 138.023 12.4243C138.04 12.4417 138.054 12.4625 138.063 12.4855C138.072 12.5085 138.077 12.5332 138.077 12.5581L138.092 34.3329C138.092 34.3661 138.105 34.3977 138.127 34.4213C138.15 34.4448 138.18 34.4583 138.212 34.4589L142.693 34.457C142.84 34.4568 142.914 34.383 142.914 34.2355L142.901 12.3485C142.901 12.3342 142.904 12.32 142.909 12.3068C142.915 12.2936 142.923 12.2817 142.933 12.2717C142.944 12.2617 142.956 12.2539 142.969 12.2487C142.982 12.2435 142.997 12.241 143.011 12.2414L145.794 12.2385C145.924 12.2388 145.988 12.3029 145.986 12.4307L145.999 34.2127C145.998 34.3527 146.068 34.4224 146.211 34.4216L150.79 34.4199C150.911 34.4191 150.971 34.3583 150.97 34.2374L150.956 12.4299C150.956 12.3951 150.97 12.3616 150.995 12.3367C151.02 12.3117 151.054 12.2973 151.091 12.2966L153.883 12.2985C153.99 12.2961 154.042 12.348 154.04 12.454L154.055 34.2217C154.055 34.2465 154.06 34.271 154.07 34.2938C154.079 34.3167 154.093 34.3375 154.11 34.3549C154.128 34.3724 154.149 34.3863 154.172 34.3957C154.195 34.4051 154.219 34.41 154.244 34.4099L161.986 34.4086C162.196 34.4059 162.301 34.3006 162.3 34.0927L162.287 12.3434C162.287 12.2564 162.33 12.213 162.417 12.2132L165.2 12.2104C165.318 12.2117 165.376 12.2715 165.375 12.3898L165.388 34.1789C165.388 34.2112 165.4 34.2421 165.422 34.265C165.444 34.2878 165.474 34.3007 165.505 34.3009L169.972 34.2973C170.003 34.2976 170.033 34.2918 170.062 34.2802C170.091 34.2686 170.117 34.2514 170.139 34.2296C170.161 34.2079 170.178 34.1819 170.19 34.1534C170.202 34.1248 170.208 34.0942 170.208 34.0632L170.197 12.169C170.196 12.1086 170.225 12.0792 170.283 12.0809L173.163 12.0783C173.242 12.0801 173.283 12.1197 173.284 12.1971L173.297 34.0443C173.297 34.0687 173.302 34.0928 173.311 34.1153C173.32 34.1378 173.334 34.1583 173.351 34.1754C173.369 34.1926 173.389 34.2061 173.412 34.2152C173.434 34.2243 173.458 34.2289 173.483 34.2286L182.018 34.2268C182.151 34.225 182.218 34.1565 182.219 34.0212L182.205 12.174C182.205 12.1088 182.238 12.0762 182.303 12.0764L185.129 12.0712C185.238 12.0715 185.292 12.126 185.292 12.2347L185.306 33.9841C185.305 34.1023 185.362 34.1608 185.478 34.1595L189.959 34.1575C190.071 34.1557 190.128 34.0993 190.131 33.9885L190.118 12.1015C190.117 12.0799 190.121 12.0584 190.129 12.0383C190.137 12.0182 190.149 12 190.164 11.9847C190.18 11.9695 190.198 11.9575 190.218 11.9496C190.238 11.9417 190.26 11.938 190.281 11.9388L192.948 11.9373C193.015 11.9375 193.079 11.9642 193.127 12.0117C193.175 12.0592 193.201 12.1236 193.202 12.1909L193.216 33.9004C193.214 33.9848 193.256 34.027 193.343 34.0272L197.825 34.0253C197.965 34.0267 198.035 33.9574 198.037 33.8173L198.024 11.963C198.024 11.94 198.028 11.9171 198.037 11.8958C198.046 11.8745 198.059 11.8551 198.076 11.8387C198.092 11.8224 198.112 11.8095 198.134 11.8007C198.156 11.7919 198.18 11.7875 198.203 11.7876L200.933 11.8331C200.957 11.8333 200.98 11.838 201.001 11.8469C201.022 11.8559 201.042 11.869 201.058 11.8854C201.074 11.9017 201.086 11.9211 201.094 11.9423C201.103 11.9634 201.106 11.986 201.105 12.0086L201.123 33.6895C201.122 33.8948 201.224 33.9982 201.429 33.9997L207.403 33.9934C207.565 33.9948 207.646 33.9147 207.648 33.7529L207.629 2.78765C207.629 2.76289 207.624 2.73838 207.615 2.71551C207.605 2.69265 207.591 2.67188 207.574 2.6544C207.556 2.63693 207.535 2.62307 207.512 2.61364C207.49 2.60421 207.465 2.59938 207.44 2.59943L6.35022 2.71727C6.32946 2.71716 6.30889 2.72101 6.28968 2.72862C6.27047 2.73622 6.25301 2.74742 6.23828 2.76157C6.22355 2.77573 6.21184 2.79256 6.20384 2.8111C6.19584 2.82965 6.19169 2.84953 6.19164 2.86963L5.69933 34.1248C5.69899 34.1418 5.70192 34.1587 5.70796 34.1746C5.714 34.1904 5.72301 34.2047 5.73447 34.2169C5.74593 34.229 5.75959 34.2386 5.77466 34.2451C5.78974 34.2516 5.80591 34.2549 5.82223 34.2548L10.1733 34.2525C10.2091 34.252 10.2433 34.2371 10.2686 34.2108C10.2939 34.1846 10.3083 34.1492 10.3088 34.112L10.2969 12.2179C10.295 12.15 10.3279 12.1151 10.3958 12.1131L13.2323 12.1128C13.3315 12.1119 13.3814 12.1611 13.3822 12.2603L13.3922 33.9802C13.3933 34.1834 13.4943 34.283 13.6952 34.2793L22.3751 34.2794C22.5638 34.2767 22.6578 34.1823 22.6572 33.9961L22.6457 12.2579C22.6456 12.2402 22.649 12.2227 22.6557 12.2064C22.6625 12.1901 22.6724 12.1753 22.685 12.1628C22.6975 12.1504 22.7124 12.1406 22.7288 12.134C22.7452 12.1275 22.7627 12.1242 22.7804 12.1246L25.5827 12.1711C25.6818 12.1702 25.7318 12.2194 25.7326 12.3186L25.7455 34.1077C25.7459 34.1409 25.7585 34.1725 25.7809 34.1961C25.8032 34.2196 25.8335 34.2331 25.8653 34.2337L30.3579 34.2294C30.4957 34.2281 30.564 34.1585 30.5627 34.0206L30.5524 12.1448C30.5504 12.0552 30.5943 12.0094 30.6839 12.0075L33.4553 12.007C33.5761 12.0062 33.6367 12.0687 33.6369 12.1944L33.6516 33.904C33.6513 33.9614 33.6736 34.0167 33.7137 34.0579C33.7537 34.099 33.8083 34.1228 33.8657 34.124L41.6664 34.1149C41.7268 34.1148 41.7848 34.0908 41.8276 34.0482C41.8705 34.0055 41.8947 33.9476 41.8951 33.8871L41.8806 12.0797C41.8824 11.9784 41.9329 11.9274 42.032 11.9265L44.778 11.9268C44.9036 11.9265 44.9676 11.9906 44.9699 12.119L44.9821 33.8826C44.9816 33.9069 44.9859 33.931 44.9948 33.9537C45.0036 33.9763 45.0169 33.9969 45.0338 34.0143C45.0507 34.0317 45.0709 34.0456 45.0932 34.0552C45.1155 34.0648 45.1395 34.0698 45.1637 34.07L49.7778 34.1448C49.896 34.1461 49.9544 34.0887 49.9531 33.9725L49.9379 12.1396C49.9397 12.0383 49.9902 11.9873 50.0893 11.9865L52.8536 11.9851C52.967 11.986 53.0246 12.042 53.0265 12.1534L53.0372 33.8662C53.0358 34.0062 53.1064 34.0758 53.249 34.0751L57.5969 34.0688C57.6309 34.0698 57.6648 34.0637 57.6965 34.0511C57.7282 34.0384 57.7571 34.0194 57.7815 33.9951C57.8059 33.9708 57.8252 33.9418 57.8384 33.9098C57.8516 33.8777 57.8584 33.8433 57.8583 33.8085L57.8501 12.0091C57.8494 11.988 57.8529 11.967 57.8604 11.9473C57.8679 11.9276 57.8792 11.9096 57.8938 11.8943C57.9083 11.8791 57.9258 11.8669 57.9451 11.8586C57.9645 11.8502 57.9853 11.8458 58.0064 11.8456L60.734 11.8473C60.7603 11.8468 60.7864 11.8516 60.8108 11.8612C60.8352 11.8709 60.8574 11.8853 60.8762 11.9036C60.895 11.9219 60.91 11.9438 60.9203 11.9679C60.9306 11.9921 60.9361 12.0181 60.9363 12.0443L60.9448 33.7133C60.9458 33.9599 61.0678 34.0971 61.3111 34.1247L68.3569 34.9253C68.4878 34.9426 68.5523 34.8846 68.5505 34.7515L68.5405 13.0642C68.5397 12.9433 68.5984 12.8835 68.7166 12.8848L71.4483 12.8834C71.5665 12.8848 71.6262 12.9435 71.6275 13.0597L71.6382 34.8051C71.6379 34.9138 71.6945 34.9686 71.8079 34.9694L76.2568 34.9673C76.392 34.9682 76.46 34.901 76.4608 34.7657L76.4481 12.8787C76.4479 12.8625 76.4509 12.8464 76.457 12.8313C76.4631 12.8163 76.4721 12.8026 76.4835 12.7911C76.495 12.7796 76.5086 12.7704 76.5236 12.7642C76.5385 12.758 76.5546 12.7548 76.5708 12.7549L79.3351 12.7536C79.4681 12.7518 79.5348 12.8137 79.535 12.9394ZM102.135 45.186C102.11 45.186 102.085 45.1911 102.061 45.2009C102.038 45.2106 102.017 45.225 101.999 45.243C101.981 45.261 101.967 45.2823 101.957 45.3059C101.947 45.3294 101.942 45.3545 101.942 45.38L101.959 53.2453C101.959 53.2966 101.98 53.3458 102.016 53.382C102.052 53.4183 102.102 53.4385 102.153 53.4384L126.995 53.3854C127.02 53.3853 127.045 53.3803 127.069 53.3705C127.092 53.3607 127.113 53.3464 127.131 53.3284C127.149 53.3104 127.163 53.289 127.173 53.2655C127.183 53.242 127.188 53.2168 127.188 53.1914L127.171 45.3261C127.171 45.2747 127.15 45.2255 127.114 45.1893C127.078 45.1531 127.028 45.1328 126.977 45.1329L102.135 45.186ZM215.225 18.919C215.173 18.9188 215.124 18.9391 215.088 18.9752C215.051 19.0114 215.031 19.0606 215.031 19.1119L214.998 29.5345C214.998 29.5599 215.003 29.5851 215.013 29.6086C215.022 29.6321 215.037 29.6535 215.055 29.6715C215.072 29.6896 215.094 29.7039 215.117 29.7137C215.141 29.7235 215.166 29.7286 215.191 29.7286L217.034 29.7344C217.085 29.7345 217.135 29.7143 217.171 29.6781C217.207 29.6419 217.228 29.5927 217.228 29.5414L217.26 19.1189C217.26 19.0934 217.255 19.0682 217.246 19.0447C217.236 19.0212 217.222 18.9998 217.204 18.9818C217.186 18.9638 217.165 18.9494 217.141 18.9396C217.118 18.9298 217.093 18.9247 217.067 18.9247L215.225 18.919ZM219.866 18.9564C219.815 18.9562 219.766 18.9765 219.729 19.0127C219.693 19.0488 219.672 19.098 219.672 19.1494L219.64 29.5719C219.64 29.6232 219.66 29.6725 219.696 29.7089C219.732 29.7453 219.781 29.7659 219.833 29.766L221.665 29.7717C221.717 29.7719 221.766 29.7516 221.802 29.7154C221.839 29.6792 221.859 29.6301 221.859 29.5787L221.892 19.1562C221.892 19.1049 221.872 19.0556 221.835 19.0192C221.799 18.9828 221.75 18.9622 221.699 18.9621L219.866 18.9564Z" fill="url(#paint0_linear_16_772)"/>
<defs>
<linearGradient id="paint0_linear_16_772" x1="127.84" y1="31.8208" x2="127.33" y2="64.1685" gradientUnits="userSpaceOnUse">
<stop stop-color="#6C6C6C"/>
<stop offset="1" stop-color="#3E3D3D"/>
</linearGradient>
</defs>
</svg>
