<svg width="95" height="99" viewBox="0 0 95 99" fill="none" xmlns="http://www.w3.org/2000/svg">
<path d="M60.1431 97.681L93.1431 57.181L45.6431 5.18103L35.1431 1.18103L1.14307 39.681L9.14307 61.681L51.6431 97.681H60.1431Z" fill="url(#paint0_linear_8_180)"/>
<path d="M60.1431 97.681L93.1431 57.181L45.6431 5.18103M60.1431 97.681L11.1431 45.681M60.1431 97.681H51.6431L9.14307 61.681L1.14307 39.681M11.1431 45.681L45.6431 5.18103M11.1431 45.681L1.14307 39.681M45.6431 5.18103L35.1431 1.18103L1.14307 39.681" stroke="black" stroke-width="2"/>
<path d="M47.6404 15.9268L22.4744 44.5774L28.7609 50.4009L53.7973 22.5476L47.6404 15.9268Z" fill="#3B3B3B" stroke="#EBEBEB"/>
<path d="M59.1431 37.681C49.5476 37.681 41.6431 46.7841 41.6431 58.181C41.6431 69.578 49.5476 78.681 59.1431 78.681C68.7385 78.681 76.6431 69.578 76.6431 58.181C76.6431 46.7841 68.7385 37.681 59.1431 37.681Z" fill="#393636" stroke="#E7E7E7"/>
<defs>
<linearGradient id="paint0_linear_8_180" x1="75.6431" y1="75.181" x2="28.1431" y2="24.681" gradientUnits="userSpaceOnUse">
<stop stop-color="#D9D9D9"/>
<stop offset="1" stop-color="#737373"/>
</linearGradient>
</defs>
</svg>
