<svg width="95" height="99" viewBox="0 0 95 99" fill="none" xmlns="http://www.w3.org/2000/svg">
<path d="M34.3203 97.681L1.32031 57.181L48.8203 5.18103L59.3203 1.18103L93.3203 39.681L85.3203 61.681L42.8203 97.681H34.3203Z" fill="url(#paint0_linear_8_179)"/>
<path d="M34.3203 97.681L1.32031 57.181L48.8203 5.18103M34.3203 97.681L83.3203 45.681M34.3203 97.681H42.8203L85.3203 61.681L93.3203 39.681M83.3203 45.681L48.8203 5.18103M83.3203 45.681L93.3203 39.681M48.8203 5.18103L59.3203 1.18103L93.3203 39.681" stroke="black" stroke-width="2"/>
<path d="M46.8229 15.9268L71.989 44.5774L65.7024 50.4009L40.666 22.5476L46.8229 15.9268Z" fill="#3B3B3B" stroke="#EBEBEB"/>
<path d="M35.3203 37.681C44.9158 37.681 52.8203 46.7841 52.8203 58.181C52.8203 69.578 44.9158 78.681 35.3203 78.681C25.7249 78.681 17.8203 69.578 17.8203 58.181C17.8203 46.7841 25.7249 37.681 35.3203 37.681Z" fill="#393636" stroke="#E7E7E7"/>
<defs>
<linearGradient id="paint0_linear_8_179" x1="18.8203" y1="75.181" x2="66.3203" y2="24.681" gradientUnits="userSpaceOnUse">
<stop stop-color="#D9D9D9"/>
<stop offset="1" stop-color="#737373"/>
</linearGradient>
</defs>
</svg>
