<svg width="78" height="222" viewBox="0 0 78 222" fill="none" xmlns="http://www.w3.org/2000/svg">
<path d="M50.6946 12.757L51.9431 12.8412C52.0949 12.8507 52.2205 12.7991 52.3198 12.6863C53.3417 11.5277 55.6569 10.0409 56.4077 12.4258C56.5901 13.0078 56.554 13.7847 56.2997 14.7564C56.0046 15.8927 55.2798 16.1956 54.1251 15.6653C53.1183 15.2024 52.4461 14.7336 52.1084 14.2588C52.0625 14.1936 52.0028 14.1393 51.9336 14.1C51.8644 14.0607 51.7875 14.0373 51.7085 14.0316L50.4945 13.9568C50.2909 13.9425 50.1895 14.0364 50.1903 14.2386L50.226 19.2182C50.2287 19.386 50.3165 19.4765 50.4896 19.4898L51.2697 19.5431C51.4283 19.5517 51.5649 19.4998 51.6795 19.3876C52.1926 18.8787 52.7205 18.4757 53.2634 18.1786C54.4806 17.512 55.3314 17.8115 55.816 19.077C56.0147 19.5924 55.9918 20.3455 55.7471 21.3364C55.1153 23.9067 52.3374 21.8864 51.4206 20.8767C51.3071 20.7523 51.1668 20.6906 51 20.6914L50.2249 20.7009C50.0716 20.6998 50.0007 20.7763 50.0124 20.9305L50.3119 24.412C50.3244 24.562 50.2774 24.6884 50.1711 24.7912C49.0759 25.8455 48.0839 27.0387 47.4188 28.2441C47.1618 28.72 47.0325 29.4728 47.031 30.5024C47.0407 41.411 47.0604 73.467 47.09 126.67C47.0926 127.775 47.2376 128.703 47.5251 129.456C47.6774 129.852 47.8985 130.547 48.1885 131.542C50.0558 137.95 56.9068 139.427 61.8361 135.49C62.7979 134.719 63.761 133.588 64.7256 132.097C64.8364 131.921 65.1661 131.601 65.7148 131.138C67.8543 129.33 68.8517 132.391 69.0698 134.026C69.3073 135.798 69.1791 137.729 68.6853 139.821C68.4246 140.937 67.782 142.31 66.7575 143.938C65.4001 146.099 64.3262 147.977 63.5357 149.573C60.8645 154.977 61.4978 160.031 65.4356 164.735C68.1337 167.957 70.3472 170.746 72.076 173.103C74.693 176.665 76.4687 180.366 77.4031 184.208C79.2865 191.949 76.4843 200.419 72.198 206.993C62.6733 221.605 43.4475 224.077 27.6468 220.608C20.2691 218.986 12.2213 215.498 7.2886 209.755C4.37681 206.362 1.40427 201.446 0.502856 197.252C-0.632161 191.963 0.311371 187.265 1.77158 182.11C2.34307 180.086 2.97911 178.398 3.67969 177.044C5.83697 172.883 8.67358 169.085 12.1895 165.649C13.7981 164.078 14.8741 163.015 15.4175 162.459C18.9897 158.796 19.5966 154.595 17.2382 149.856C15.9246 147.216 15.0243 145.428 14.5372 144.493C13.2393 141.997 12.5814 139.352 12.5634 136.559C12.4974 127.172 19.0724 122.065 27.6265 119.868C30.0031 119.262 32.5167 119.446 35.0781 119.293C35.222 119.286 35.2946 119.212 35.2959 119.071C35.3384 117.645 36.4408 87.9406 38.6031 29.9586C38.612 29.6538 38.5792 29.3558 38.5045 29.0645C37.9979 27.1432 36.933 25.4837 35.3096 24.0861C35.2242 24.0123 35.1854 23.9174 35.1931 23.8015L35.409 20.6002C35.416 20.4885 35.3614 20.4321 35.2454 20.4311L34.3293 20.4384C34.1734 20.439 34.0433 20.4975 33.9389 20.6137C33.4869 21.1246 32.8387 21.5922 31.9944 22.0163C29.772 23.135 29.5443 20.7319 29.6592 19.2205C29.7118 18.528 29.8543 18.0426 30.0866 17.7644C31.0522 16.5894 33.1971 18.0511 33.9042 18.8737C34.0205 19.0073 34.1654 19.0732 34.3391 19.0713L35.4293 19.0655C35.5987 19.0629 35.6821 18.9778 35.6795 18.81L35.6399 13.7059C35.6405 13.5322 35.553 13.458 35.3773 13.4834L34.1865 13.6636C34.0421 13.6859 33.9283 13.757 33.8452 13.877C33.185 14.8486 32.4179 15.4222 31.5438 15.5977C30.4943 15.8095 29.9075 15.3167 29.7836 14.1193C29.6355 12.7341 29.5433 9.9997 31.9492 10.8722C32.8115 11.1878 33.5061 11.654 34.0331 12.271C34.1424 12.3946 34.2783 12.4502 34.4407 12.4376L35.7207 12.3286C35.7525 12.3258 35.7836 12.3169 35.8119 12.3025C35.8403 12.288 35.8655 12.2682 35.886 12.2443C35.9066 12.2204 35.922 12.1928 35.9316 12.163C35.9411 12.1333 35.9445 12.1021 35.9415 12.0711L35.51 7.06052C35.5068 7.02213 35.4959 6.98475 35.478 6.95056C35.4601 6.91637 35.4356 6.88604 35.4057 6.86134C35.3759 6.83665 35.3414 6.81808 35.3042 6.80672C35.2671 6.79536 35.228 6.79143 35.1893 6.79517L34.1871 6.87845C34.0289 6.89173 33.9105 6.9642 33.8319 7.09585C33.0104 8.42023 29.9214 10.2752 29.7408 7.13738C29.7313 6.99124 29.6634 6.85208 29.551 6.74855L29.2038 6.42962C29.0777 6.31387 29.021 6.17238 29.0336 6.00514C29.2645 3.28563 32.0086 4.65466 33.0702 5.71929C33.4032 6.04983 33.6769 6.21671 33.8913 6.2199C34.1345 6.22168 34.3721 6.21812 34.604 6.20921C34.7487 6.19789 34.8106 6.12195 34.7899 5.9814L34.2259 2.30638C34.1967 2.12741 34.2758 2.03602 34.4629 2.03222C35.2691 2.01418 36.036 1.83708 36.7635 1.50094C37.8973 0.98035 38.4689 0.718702 38.4781 0.715997C42.1057 -0.48202 45.6406 -0.176631 49.083 1.63216C49.3614 1.77922 50.0231 1.88661 51.0683 1.95433C51.1659 1.96074 51.2123 2.0135 51.2076 2.1126L50.9479 5.9579C50.938 6.09739 51.0048 6.17113 51.1481 6.17913L51.9868 6.23636C52.1429 6.24662 52.2736 6.19697 52.3789 6.08743C53.2434 5.1813 55.0783 3.82123 56.2741 4.74343C56.5574 4.96087 56.7233 5.36614 56.772 5.95921C56.8842 7.32505 56.6563 9.88214 54.5206 8.9891C53.613 8.60897 52.8833 8.10608 52.3315 7.48042C52.2849 7.42688 52.2277 7.38307 52.1634 7.35153C52.099 7.31999 52.0287 7.30135 51.9566 7.29672L51.0786 7.23904C50.9157 7.22976 50.8287 7.30452 50.8176 7.46333L50.4813 12.5172C50.4717 12.6676 50.5428 12.7475 50.6946 12.757ZM47.2283 165.52C46.584 165.334 45.9405 165.126 45.1373 165.127C40.6976 165.149 36.8271 165.189 33.5259 165.248C32.0599 165.275 31.0016 165.451 30.3508 165.774C28.1657 166.851 27.9699 168.319 28.0146 170.477C28.0496 171.924 27.8137 174.033 28.5728 175.097C29.6996 176.675 31.2173 176.999 33.2567 176.985C36.3046 176.968 40.6108 176.92 46.1754 176.841C46.9477 176.828 47.8384 176.451 48.8473 175.711C48.9691 175.619 49.1052 175.583 49.2555 175.6C53.5922 176.162 56.6348 176.606 58.3834 176.933C59.9603 177.227 61.4668 177.218 62.9031 176.905C64.859 176.479 65.9178 174.952 65.2897 173.036C61.048 160.074 57.2785 149.073 53.9812 140.03C53.5634 138.881 52.6549 138.701 51.6986 138.548C49.6611 138.223 48.1858 135.403 47.4572 133.788C47.3126 133.471 47.243 133.486 47.2485 133.833L47.2903 139.781C47.2915 139.92 47.2205 139.992 47.0774 139.994C43.9998 140.054 39.3746 140.1 33.2017 140.135C30.9259 140.146 28.3412 141.504 28.3435 144.007C28.3469 145.933 28.3481 146.953 28.3471 147.068C28.3353 148.422 28.5538 149.399 29.0026 150C30.146 151.522 31.5289 151.901 33.5491 151.884C39.2972 151.832 43.3282 151.79 45.6421 151.756C45.9834 151.749 46.2455 151.725 46.4285 151.684C46.6713 151.627 46.9114 151.603 47.1489 151.613C47.3125 151.618 47.396 151.702 47.3994 151.865L47.5024 165.314C47.5012 165.503 47.4099 165.572 47.2283 165.52ZM61.103 191.878C61.1818 191.446 61.1711 191.002 61.0715 190.572C60.9719 190.142 60.7853 189.734 60.5224 189.371C60.2596 189.009 59.9256 188.699 59.5395 188.459C59.1534 188.219 58.7228 188.054 58.2723 187.974C57.8217 187.893 57.3601 187.898 56.9137 187.989C56.4673 188.08 56.045 188.255 55.6707 188.503C55.2964 188.752 54.9776 189.07 54.7324 189.438C54.4872 189.806 54.3204 190.218 54.2416 190.651C54.1628 191.083 54.1736 191.527 54.2732 191.957C54.3728 192.387 54.5594 192.795 54.8222 193.157C55.0851 193.52 55.4191 193.83 55.8052 194.069C56.1913 194.309 56.6219 194.474 57.0724 194.555C57.5229 194.635 57.9845 194.63 58.4309 194.539C58.8773 194.448 59.2997 194.273 59.674 194.025C60.0483 193.776 60.3671 193.459 60.6123 193.09C60.8575 192.722 61.0242 192.31 61.103 191.878ZM70.9104 182.423C70.3874 181.679 69.5877 181.172 68.6871 181.013C67.7865 180.853 66.8588 181.055 66.1082 181.573C65.3575 182.091 64.8454 182.883 64.6844 183.775C64.5234 184.667 64.7267 185.585 65.2497 186.329C65.7727 187.072 66.5724 187.579 67.473 187.739C68.3736 187.898 69.3013 187.697 70.0519 187.179C70.8026 186.661 71.3147 185.869 71.4757 184.977C71.6367 184.085 71.4334 183.166 70.9104 182.423ZM60.3748 202.781C59.8519 202.038 59.0521 201.53 58.1515 201.371C57.2509 201.211 56.3233 201.413 55.5726 201.931C54.822 202.449 54.3098 203.241 54.1488 204.133C53.9878 205.025 54.1912 205.943 54.7142 206.687C54.9731 207.055 55.3027 207.369 55.6842 207.611C56.0657 207.853 56.4915 208.018 56.9375 208.097C57.3834 208.176 57.8407 208.167 58.2831 208.071C58.7256 207.975 59.1447 207.794 59.5164 207.537C59.8881 207.281 60.2051 206.954 60.4494 206.576C60.6937 206.199 60.8605 205.777 60.9402 205.335C61.0199 204.893 61.011 204.441 60.914 204.002C60.817 203.564 60.6338 203.149 60.3748 202.781ZM70.7523 195.659C70.2266 194.912 69.4226 194.402 68.5172 194.242C67.6118 194.081 66.6792 194.284 65.9246 194.804C65.1699 195.325 64.6551 196.121 64.4932 197.018C64.3314 197.915 64.5358 198.838 65.0615 199.586C65.5873 200.333 66.3913 200.843 67.2967 201.003C68.202 201.164 69.1346 200.961 69.8893 200.441C70.6439 199.92 71.1588 199.124 71.3206 198.227C71.4825 197.33 71.2781 196.407 70.7523 195.659Z" fill="url(#paint0_linear_16_788)"/>
<path d="M47.5024 165.314L47.3994 151.865C47.396 151.702 47.3125 151.618 47.1489 151.613C46.9114 151.603 46.6713 151.627 46.4285 151.684C46.2455 151.725 45.9834 151.749 45.6421 151.756C43.3282 151.79 39.2972 151.832 33.5491 151.884C31.5289 151.901 30.146 151.522 29.0026 150C28.5538 149.399 28.3353 148.422 28.3471 147.068C28.3481 146.953 28.3469 145.933 28.3435 144.007C28.3412 141.504 30.9259 140.146 33.2017 140.135C39.3746 140.1 43.9998 140.054 47.0774 139.994C47.2205 139.992 47.2915 139.92 47.2903 139.781L47.2485 133.833C47.243 133.486 47.3126 133.471 47.4572 133.788C48.1858 135.403 49.6611 138.223 51.6986 138.548C52.6549 138.701 53.5634 138.881 53.9812 140.03C57.2785 149.073 61.048 160.074 65.2897 173.036C65.9178 174.952 64.859 176.479 62.9031 176.905C61.4668 177.218 59.9603 177.227 58.3834 176.933C56.6348 176.606 53.5922 176.162 49.2555 175.6C49.1052 175.583 48.9691 175.619 48.8473 175.711C47.8384 176.451 46.9477 176.828 46.1754 176.841C40.6108 176.92 36.3046 176.968 33.2567 176.985C31.2173 176.999 29.6996 176.675 28.5728 175.097C27.8137 174.033 28.0496 171.924 28.0146 170.477C27.9699 168.319 28.1657 166.851 30.3508 165.774C31.0016 165.451 32.0599 165.275 33.5259 165.248C36.8271 165.189 40.6976 165.149 45.1373 165.127C45.9405 165.126 46.584 165.334 47.2283 165.52C47.4099 165.572 47.5012 165.503 47.5024 165.314ZM47.3023 147.863L47.2656 143.453C47.2646 143.324 47.2377 143.196 47.1866 143.076C47.1354 142.957 47.0611 142.849 46.9677 142.758C46.8743 142.668 46.7638 142.596 46.6424 142.548C46.5211 142.5 46.3913 142.475 46.2605 142.477L32.6765 142.588C32.4591 142.589 32.244 142.624 32.0436 142.689C31.8432 142.754 31.6613 142.848 31.5084 142.967C31.3555 143.086 31.2346 143.227 31.1527 143.381C31.0707 143.536 31.0292 143.701 31.0306 143.867L31.0633 147.715C31.0669 148.051 31.2445 148.371 31.557 148.606C31.8695 148.84 32.2914 148.969 32.7298 148.965L46.3164 148.858C46.4472 148.857 46.5765 148.83 46.6968 148.78C46.8172 148.729 46.9263 148.656 47.0179 148.563C47.1095 148.471 47.1818 148.361 47.2306 148.241C47.2793 148.121 47.3037 147.992 47.3023 147.863ZM47.257 169.498C47.2551 169.306 47.2149 169.116 47.1388 168.939C47.0627 168.762 46.9521 168.601 46.8133 168.467C46.6746 168.332 46.5104 168.225 46.3302 168.154C46.1499 168.082 45.9571 168.046 45.7628 168.048L32.0754 168.181C31.8811 168.183 31.689 168.223 31.5103 168.298C31.3315 168.374 31.1695 168.483 31.0334 168.62C30.8974 168.758 30.79 168.921 30.7174 169.099C30.6448 169.278 30.6084 169.468 30.6103 169.661L30.6458 173.218C30.6477 173.41 30.6878 173.6 30.764 173.777C30.8401 173.954 30.9507 174.115 31.0894 174.25C31.2282 174.384 31.3924 174.491 31.5726 174.563C31.7528 174.635 31.9456 174.671 32.1399 174.669L45.8274 174.535C46.0217 174.533 46.2137 174.493 46.3925 174.418C46.5713 174.343 46.7333 174.233 46.8694 174.096C47.0054 173.958 47.1128 173.796 47.1854 173.617C47.2579 173.439 47.2943 173.248 47.2924 173.055L47.257 169.498Z" fill="#F4F4F6"/>
<path d="M57.0724 194.555C58.9671 194.894 60.7717 193.695 61.103 191.878C61.4344 190.06 60.167 188.312 58.2723 187.974C56.3776 187.635 54.573 188.833 54.2416 190.651C53.9103 192.468 55.1777 194.216 57.0724 194.555Z" fill="#F4F4F6"/>
<path d="M70.0519 187.179C71.6151 186.1 71.9994 183.971 70.9104 182.423C69.8214 180.875 67.6713 180.494 66.1082 181.573C64.545 182.651 64.1607 184.781 65.2497 186.329C66.3387 187.877 68.4888 188.258 70.0519 187.179Z" fill="#F4F4F6"/>
<path d="M59.5164 207.537C61.0795 206.458 61.4639 204.329 60.3748 202.781C59.2858 201.233 57.1358 200.852 55.5726 201.931C54.0095 203.009 53.6251 205.139 54.7142 206.687C55.8032 208.235 57.9532 208.616 59.5164 207.537Z" fill="#F4F4F6"/>
<path d="M69.8893 200.441C71.4607 199.356 71.8471 197.216 70.7523 195.659C69.6575 194.103 67.496 193.72 65.9246 194.804C64.3531 195.889 63.9667 198.029 65.0615 199.586C66.1564 201.142 68.3178 201.525 69.8893 200.441Z" fill="#F4F4F6"/>
<defs>
<linearGradient id="paint0_linear_16_788" x1="39" y1="0" x2="39" y2="222" gradientUnits="userSpaceOnUse">
<stop stop-color="#666666"/>
<stop offset="1" stop-color="#393636"/>
</linearGradient>
</defs>
</svg>
