<svg width="72" height="222" viewBox="0 0 72 222" fill="none" xmlns="http://www.w3.org/2000/svg">
<path d="M42.1707 143.202C42.3426 143.423 42.5591 143.608 42.8202 143.755C45.0235 145.009 47.4099 145.554 49.9794 145.39C54.1854 145.118 56.4954 142.832 56.9093 138.533C57.0096 137.499 56.661 135.7 57.3392 134.758C59.1445 132.267 62.4447 132.772 64.2118 135.051C66.8099 138.398 67.0439 143.529 66.2224 147.718C65.4869 151.464 64.1783 154.917 62.7026 158.23C61.7728 160.32 61.2554 161.882 61.1504 162.914C60.9498 164.863 61.1329 166.825 61.6996 168.8C63.0846 173.618 65.8069 178.254 67.6409 181.971C71.2706 189.319 73.95 200.784 70.1626 208.834C69.045 211.209 67.9259 213.07 66.8051 214.417C62.9222 219.081 56.3505 220.62 50.4331 221.274C42.4923 222.156 34.9399 222.234 27.7759 221.51C14.3125 220.154 -1.36223 214.08 0.0944372 197.206C0.626161 191.076 2.20541 185.075 4.83219 179.201C6.15991 176.23 8.20881 172.998 9.63682 169.949C11.4947 165.996 11.1938 161.375 10.2052 157.316C9.6989 155.242 8.45238 151.323 6.46558 145.559C5.02324 141.362 4.30684 137.183 4.3164 133.022C4.32595 128.107 6.05485 121.865 10.8069 119.682C11.2145 119.496 11.751 119.413 12.4164 119.432C14.1167 119.48 15.0337 120.952 14.9955 122.577C14.9509 124.404 14.9302 125.6 14.9334 126.164C14.9381 130.377 16.667 134.864 20.8412 136.446C23.8787 137.595 27.6422 136.374 28.9556 133.224C29.274 132.461 29.4507 131.246 29.4857 129.579C30.3804 88.2803 30.9312 62.8126 31.1382 53.1756C31.1669 51.89 31.1637 49.2868 31.1287 45.366C31.1048 42.9423 30.737 40.812 29.0654 39.4271C27.7568 38.3355 27.1837 37.667 27.8285 35.8349C28.3697 34.3024 29.0718 32.0936 29.9347 29.2082C30.8007 26.3133 32.9817 18.7666 36.4777 6.56813C36.7929 5.4653 37.3342 4.24545 38.1016 2.90859C41.0579 -2.23689 48.4702 -0.0584772 48.8188 5.56308C48.9478 7.68379 48.1454 9.78045 46.3162 10.9298C45.8227 11.2407 45.3324 11.5485 44.8452 11.8531C43.5414 12.6658 43.5223 14.3681 43.7897 15.8973C44.2323 18.4428 44.9758 21.7721 46.0201 25.8853C46.4786 27.6903 46.7349 29.4519 46.7891 31.1703C46.8368 32.8293 45.3085 33.9834 44.0238 35.1953C42.2535 36.8624 41.2298 39.1305 40.9528 41.9998C40.4943 46.7654 40.7474 52.7669 40.8048 57.3641C41.3651 102.337 41.744 130.702 41.9414 142.462C41.9478 142.766 42.0242 143.013 42.1707 143.202ZM41.6597 148.732C41.4734 150.425 39.3242 150.209 38.0729 150.257C35.9938 150.334 33.7411 150.228 31.3149 149.939C29.9936 149.782 29.3647 148.962 29.4284 147.477C29.5016 145.727 29.5351 144.337 29.5287 143.308C29.5271 143.232 29.5076 143.158 29.4719 143.091C29.4362 143.024 29.3853 142.967 29.3233 142.923C28.1341 142.13 25.5408 140.75 24.3468 142.063C23.659 142.822 23.8119 144.76 24.0316 145.65C24.6716 148.224 25.0727 150.702 25.2351 153.084C25.4325 155.96 24.9677 159.104 23.8405 162.515C21.9429 168.26 20.7282 172.079 20.1965 173.974C19.1298 177.792 18.7509 180.883 19.0598 183.246C19.6807 187.981 22.3536 190.496 27.0786 190.791C27.2729 190.8 27.3588 190.707 27.3365 190.512C27.2442 189.736 27.3206 188.999 27.5658 188.3C27.6347 188.107 27.7611 187.94 27.9278 187.822C28.0945 187.704 28.2934 187.641 28.4971 187.641H42.868C43.1395 187.641 43.4036 187.731 43.6193 187.897C43.8351 188.063 43.9907 188.296 44.062 188.559C44.2116 189.108 44.2657 189.675 44.2243 190.262C44.2084 190.454 44.296 190.544 44.487 190.531C48.935 190.243 52.9787 191.349 56.618 193.849C56.8218 193.99 58.0762 195.072 60.3814 197.095C61.8811 198.41 63.2391 199.37 64.4553 199.976C66.7765 201.135 68.5579 200.096 68.7537 197.533C69.0116 194.162 67.7125 190.993 66.3323 187.756C62.4606 178.668 60.4228 173.846 60.2191 173.291C58.8484 169.574 57.8836 165.958 58.4615 162.058C58.7863 159.855 60.2668 157.215 61.2889 154.994C62.8618 151.566 63.7326 148.058 63.9013 144.467C64.0064 142.245 63.6816 138.826 62.096 137.138C61.2491 136.237 60.5168 136.273 59.8991 137.244C59.5106 137.86 59.3005 138.377 59.2686 138.797C58.7481 145.761 55.3476 148.997 48.1502 148.122C46.7301 147.949 44.8229 147.626 42.4286 147.155C42.3423 147.138 42.2533 147.141 42.168 147.163C42.0828 147.185 42.0035 147.226 41.9358 147.283C41.8681 147.34 41.8138 147.412 41.7767 147.493C41.7397 147.574 41.7209 147.662 41.7217 147.751C41.7249 147.979 41.7042 148.306 41.6597 148.732Z" fill="url(#paint0_linear_16_790)"/>
<path d="M35.4223 6.72202C35.3797 6.88075 35.2764 7.016 35.1349 7.09806C34.9934 7.18011 34.8254 7.20225 34.6677 7.15962L34.1232 7.01055C33.9213 6.9558 33.7338 6.85563 33.5712 6.71575C33.4086 6.57588 33.2743 6.39905 33.1758 6.19538C33.0773 5.99172 33.0167 5.76521 32.9973 5.52881C32.9779 5.29242 33.0002 5.05078 33.0629 4.81771L33.359 3.7261C33.421 3.49282 33.5223 3.27254 33.6569 3.07786C33.7916 2.88317 33.957 2.71791 34.1437 2.59151C34.3305 2.46511 34.5349 2.38005 34.7453 2.34122C34.9556 2.30239 35.1678 2.31053 35.3697 2.36519L35.9142 2.51427C36.0718 2.55707 36.2062 2.66114 36.2877 2.8036C36.3691 2.94607 36.3911 3.11528 36.3488 3.27407L35.4223 6.72202Z" fill="url(#paint1_linear_16_790)"/>
<path d="M33.7604 12.2522C33.7178 12.4109 33.6145 12.5462 33.473 12.6282C33.3315 12.7103 33.1635 12.7324 33.0058 12.6898L32.4183 12.5311C32.2219 12.478 32.04 12.3783 31.8831 12.2376C31.7261 12.097 31.5972 11.9181 31.5036 11.7113C31.41 11.5046 31.3536 11.2739 31.3376 11.0325C31.3217 10.7911 31.3465 10.5438 31.4106 10.3046L31.678 9.3188C31.7421 9.07978 31.8442 8.8536 31.9785 8.65319C32.1128 8.45278 32.2766 8.28206 32.4607 8.15077C32.6447 8.01948 32.8454 7.9302 33.0512 7.88803C33.257 7.84586 33.4639 7.85163 33.6601 7.905L34.2427 8.06369C34.4004 8.1065 34.5347 8.21056 34.6162 8.35303C34.6977 8.49549 34.7197 8.6647 34.6774 8.82349L33.7604 12.2522Z" fill="url(#paint2_linear_16_790)"/>
<path d="M32.089 17.8064C32.0454 17.9643 31.9417 18.0984 31.8003 18.1795C31.6589 18.2606 31.4914 18.282 31.3344 18.2392L30.8377 18.1046C30.4204 17.9897 30.0704 17.6943 29.8645 17.2832C29.6585 16.8721 29.6135 16.3789 29.7392 15.9117L30.0353 14.8057C30.0978 14.574 30.2006 14.3556 30.3376 14.1633C30.4747 13.9709 30.6434 13.8081 30.8341 13.6844C31.0249 13.5607 31.2339 13.4784 31.4492 13.4423C31.6645 13.4061 31.8819 13.4168 32.089 13.4737L32.5809 13.6083C32.6595 13.6295 32.7331 13.6661 32.7976 13.7161C32.862 13.766 32.916 13.8284 32.9564 13.8994C32.9968 13.9705 33.0229 14.049 33.033 14.1302C33.0431 14.2115 33.0372 14.294 33.0155 14.3729L32.089 17.8064Z" fill="url(#paint3_linear_16_790)"/>
<path d="M30.422 23.3463C30.3795 23.505 30.2761 23.6402 30.1346 23.7223C29.9931 23.8043 29.8251 23.8265 29.6674 23.7839L29.1611 23.6444C28.9544 23.5879 28.7619 23.4866 28.5948 23.3462C28.4276 23.2059 28.2891 23.0293 28.187 22.8265C28.085 22.6237 28.0215 22.3987 28.0001 22.1644C27.9788 21.9301 28 21.6912 28.0627 21.4612L28.3683 20.3407C28.4306 20.1106 28.533 19.8939 28.6697 19.7031C28.8064 19.5122 28.9748 19.351 29.1651 19.2286C29.3554 19.1062 29.564 19.025 29.7789 18.9898C29.9937 18.9545 30.2106 18.9658 30.4172 19.0231L30.9235 19.1625C31.0016 19.1842 31.0747 19.2212 31.1387 19.2714C31.2026 19.3216 31.256 19.384 31.296 19.455C31.3359 19.526 31.3615 19.6043 31.3714 19.6853C31.3812 19.7664 31.3751 19.8485 31.3533 19.9272L30.422 23.3463Z" fill="url(#paint4_linear_16_790)"/>
<path d="M28.7551 28.8909C28.7126 29.0496 28.6092 29.1848 28.4677 29.2669C28.3262 29.349 28.1582 29.3711 28.0005 29.3285L27.5133 29.1938C27.3045 29.1363 27.11 29.0344 26.9408 28.894C26.7717 28.7537 26.6312 28.5775 26.5274 28.3757C26.4236 28.1738 26.3586 27.9502 26.336 27.7176C26.3134 27.4851 26.3337 27.2481 26.3958 27.0202L26.7062 25.8709C26.8309 25.4111 27.1178 25.0161 27.5038 24.7726C27.8897 24.5291 28.3432 24.4572 28.7646 24.5725L29.2566 24.7072C29.3347 24.7288 29.4078 24.7658 29.4718 24.816C29.5357 24.8662 29.5891 24.9286 29.6291 24.9996C29.669 25.0707 29.6946 25.1489 29.7045 25.2299C29.7143 25.311 29.7081 25.3931 29.6864 25.4718L28.7551 28.8909Z" fill="url(#paint5_linear_16_790)"/>
<path d="M27.093 34.4403C27.072 34.5194 27.0356 34.5936 26.986 34.6584C26.9363 34.7233 26.8744 34.7777 26.8038 34.8184C26.7332 34.8591 26.6553 34.8853 26.5746 34.8955C26.4939 34.9057 26.412 34.8997 26.3336 34.8779L25.7653 34.7192C25.5686 34.6653 25.3861 34.5665 25.2283 34.4284C25.0704 34.2902 24.9404 34.1155 24.8455 33.9141C24.7505 33.7127 24.6927 33.4886 24.6751 33.2546C24.6576 33.0206 24.6807 32.7813 24.7432 32.5504L25.0393 31.454C25.102 31.2228 25.2028 31.0045 25.3362 30.8116C25.4695 30.6187 25.6327 30.455 25.8163 30.33C26 30.2049 26.2005 30.1209 26.4065 30.0827C26.6125 30.0445 26.8198 30.053 27.0166 30.1075L27.5849 30.2662C27.7426 30.309 27.8769 30.4131 27.9584 30.5555C28.0399 30.698 28.0619 30.8672 28.0195 31.026L27.093 34.4403Z" fill="url(#paint6_linear_16_790)"/>
<path d="M38.0729 150.257C39.3242 150.209 41.4734 150.425 41.6597 148.732C41.7042 148.306 41.7249 147.979 41.7217 147.751C41.7209 147.662 41.7397 147.574 41.7767 147.493C41.8138 147.412 41.8681 147.34 41.9358 147.283C42.0035 147.226 42.0828 147.185 42.168 147.163C42.2533 147.141 42.3423 147.138 42.4286 147.155C44.8229 147.626 46.7301 147.949 48.1502 148.122C55.3476 148.997 58.7481 145.761 59.2686 138.797C59.3005 138.377 59.5106 137.86 59.8991 137.244C60.5168 136.273 61.2491 136.237 62.096 137.138C63.6816 138.826 64.0064 142.245 63.9013 144.467C63.7326 148.058 62.8618 151.566 61.2889 154.994C60.2668 157.215 58.7863 159.855 58.4615 162.058C57.8836 165.958 58.8484 169.574 60.2191 173.291C60.4228 173.846 62.4606 178.668 66.3323 187.756C67.7125 190.993 69.0116 194.162 68.7537 197.533C68.5579 200.096 66.7765 201.135 64.4553 199.976C63.2391 199.37 61.8811 198.41 60.3814 197.095C58.0762 195.072 56.8218 193.99 56.618 193.849C52.9787 191.349 48.935 190.243 44.487 190.531C44.296 190.544 44.2084 190.454 44.2243 190.262C44.2657 189.675 44.2116 189.108 44.062 188.559C43.9907 188.296 43.8351 188.063 43.6193 187.897C43.4036 187.731 43.1395 187.641 42.868 187.641H28.4971C28.2934 187.641 28.0945 187.704 27.9278 187.822C27.7611 187.94 27.6347 188.107 27.5658 188.3C27.3206 188.999 27.2442 189.736 27.3365 190.512C27.3588 190.707 27.2729 190.8 27.0786 190.791C22.3536 190.496 19.6807 187.981 19.0598 183.246C18.7509 180.883 19.1298 177.792 20.1965 173.974C20.7282 172.079 21.9429 168.26 23.8405 162.515C24.9677 159.104 25.4325 155.96 25.2351 153.084C25.0727 150.702 24.6716 148.224 24.0316 145.65C23.8119 144.76 23.659 142.822 24.3468 142.063C25.5408 140.75 28.1341 142.13 29.3233 142.923C29.3853 142.967 29.4362 143.024 29.4719 143.091C29.5076 143.158 29.5271 143.232 29.5287 143.308C29.5351 144.337 29.5016 145.727 29.4284 147.477C29.3647 148.962 29.9936 149.782 31.3149 149.939C33.7411 150.228 35.9938 150.334 38.0729 150.257ZM43.5034 155.561C43.5034 155.004 43.2835 154.469 42.8921 154.075C42.5007 153.681 41.9699 153.46 41.4163 153.46H30.1832C29.6297 153.46 29.0989 153.681 28.7074 154.075C28.316 154.469 28.0962 155.004 28.0962 155.561V155.705C28.0962 156.263 28.316 156.797 28.7074 157.191C29.0989 157.585 29.6297 157.807 30.1832 157.807H41.4163C41.9699 157.807 42.5007 157.585 42.8921 157.191C43.2835 156.797 43.5034 156.263 43.5034 155.705V155.561ZM43.5081 168.334C43.5071 167.776 43.2857 167.24 42.8928 166.846C42.4998 166.452 41.9673 166.231 41.4125 166.232L30.189 166.251C29.9143 166.252 29.6424 166.307 29.3888 166.413C29.1352 166.519 28.9048 166.675 28.7109 166.871C28.517 167.067 28.3633 167.299 28.2587 167.555C28.154 167.811 28.1003 168.085 28.1008 168.361L28.1011 168.496C28.1021 169.055 28.3234 169.59 28.7164 169.984C29.1093 170.379 29.6418 170.6 30.1966 170.599L41.4201 170.579C41.6948 170.578 41.9667 170.523 42.2203 170.417C42.4739 170.311 42.7043 170.155 42.8982 169.959C43.0921 169.763 43.2458 169.531 43.3505 169.275C43.4551 169.019 43.5088 168.745 43.5083 168.469L43.5081 168.334ZM43.355 182.694C43.4111 182.422 43.4133 182.14 43.3614 181.867C43.3096 181.593 43.2048 181.333 43.0529 181.1C42.9011 180.867 42.7052 180.667 42.4764 180.51C42.2476 180.354 41.9905 180.244 41.7196 180.188L30.7574 177.902C30.2104 177.788 29.6408 177.897 29.1739 178.206C28.7071 178.515 28.3811 178.998 28.2678 179.548L28.2446 179.661C28.1885 179.934 28.1863 180.215 28.2381 180.489C28.29 180.762 28.3948 181.023 28.5467 181.256C28.6985 181.489 28.8944 181.689 29.1232 181.845C29.3519 182.002 29.6091 182.112 29.8799 182.168L40.8422 184.454C41.3892 184.568 41.9588 184.459 42.4256 184.15C42.8925 183.841 43.2184 183.358 43.3317 182.807L43.355 182.694ZM50.6674 183.885C50.6674 183.292 50.4334 182.723 50.0169 182.304C49.6004 181.885 49.0355 181.649 48.4465 181.649C47.8575 181.649 47.2927 181.885 46.8762 182.304C46.4597 182.723 46.2257 183.292 46.2257 183.885C46.2257 184.478 46.4597 185.047 46.8762 185.466C47.2927 185.886 47.8575 186.121 48.4465 186.121C49.0355 186.121 49.6004 185.886 50.0169 185.466C50.4334 185.047 50.6674 184.478 50.6674 183.885ZM60.0187 187.833C60.0187 187.239 59.7842 186.669 59.3668 186.249C58.9495 185.828 58.3834 185.592 57.7931 185.592C57.2028 185.592 56.6367 185.828 56.2194 186.249C55.802 186.669 55.5675 187.239 55.5675 187.833C55.5675 188.128 55.6251 188.419 55.7369 188.691C55.8488 188.963 56.0127 189.21 56.2194 189.418C56.426 189.626 56.6714 189.791 56.9414 189.904C57.2114 190.016 57.5008 190.074 57.7931 190.074C58.3834 190.074 58.9495 189.838 59.3668 189.418C59.7842 188.998 60.0187 188.428 60.0187 187.833ZM66.5522 194.59C66.5522 193.997 66.3182 193.428 65.9018 193.009C65.4853 192.589 64.9204 192.354 64.3314 192.354C63.7424 192.354 63.1775 192.589 62.761 193.009C62.3445 193.428 62.1106 193.997 62.1106 194.59C62.1106 195.183 62.3445 195.752 62.761 196.171C63.1775 196.59 63.7424 196.826 64.3314 196.826C64.9204 196.826 65.4853 196.59 65.9018 196.171C66.3182 195.752 66.5522 195.183 66.5522 194.59Z" fill="#F4F4F6"/>
<path d="M41.4163 153.46H30.1832C29.0306 153.46 28.0962 154.4 28.0962 155.561V155.705C28.0962 156.866 29.0306 157.807 30.1832 157.807H41.4163C42.569 157.807 43.5034 156.866 43.5034 155.705V155.561C43.5034 154.4 42.569 153.46 41.4163 153.46Z" fill="url(#paint7_linear_16_790)"/>
<path d="M41.4125 166.232L30.189 166.251C29.0337 166.253 28.0988 167.198 28.1008 168.361L28.1011 168.496C28.1031 169.659 29.0413 170.601 30.1966 170.599L41.4201 170.579C42.5754 170.577 43.5103 169.632 43.5083 168.469L43.5081 168.334C43.506 167.171 42.5679 166.23 41.4125 166.232Z" fill="url(#paint8_linear_16_790)"/>
<path d="M41.7196 180.188L30.7574 177.902C29.6183 177.664 28.5037 178.401 28.2678 179.548L28.2446 179.661C28.0087 180.808 28.7409 181.931 29.8799 182.168L40.8422 184.454C41.9813 184.691 43.0958 183.954 43.3317 182.807L43.355 182.694C43.5909 181.547 42.8587 180.425 41.7196 180.188Z" fill="url(#paint9_linear_16_790)"/>
<path d="M48.4465 186.121C49.6731 186.121 50.6674 185.12 50.6674 183.885C50.6674 182.65 49.6731 181.649 48.4465 181.649C47.22 181.649 46.2257 182.65 46.2257 183.885C46.2257 185.12 47.22 186.121 48.4465 186.121Z" fill="url(#paint10_linear_16_790)"/>
<path d="M57.7931 190.074C59.0223 190.074 60.0187 189.071 60.0187 187.833C60.0187 186.596 59.0223 185.592 57.7931 185.592C56.5639 185.592 55.5675 186.596 55.5675 187.833C55.5675 189.071 56.5639 190.074 57.7931 190.074Z" fill="url(#paint11_linear_16_790)"/>
<path d="M64.3314 196.826C65.5579 196.826 66.5522 195.825 66.5522 194.59C66.5522 193.355 65.5579 192.354 64.3314 192.354C63.1049 192.354 62.1106 193.355 62.1106 194.59C62.1106 195.825 63.1049 196.826 64.3314 196.826Z" fill="url(#paint12_linear_16_790)"/>
<defs>
<linearGradient id="paint0_linear_16_790" x1="36" y1="0" x2="36" y2="222" gradientUnits="userSpaceOnUse">
<stop stop-color="#666666"/>
<stop offset="1" stop-color="#393636"/>
</linearGradient>
<linearGradient id="paint1_linear_16_790" x1="36" y1="0" x2="36" y2="222" gradientUnits="userSpaceOnUse">
<stop stop-color="#666666"/>
<stop offset="1" stop-color="#393636"/>
</linearGradient>
<linearGradient id="paint2_linear_16_790" x1="36" y1="0" x2="36" y2="222" gradientUnits="userSpaceOnUse">
<stop stop-color="#666666"/>
<stop offset="1" stop-color="#393636"/>
</linearGradient>
<linearGradient id="paint3_linear_16_790" x1="36" y1="0" x2="36" y2="222" gradientUnits="userSpaceOnUse">
<stop stop-color="#666666"/>
<stop offset="1" stop-color="#393636"/>
</linearGradient>
<linearGradient id="paint4_linear_16_790" x1="36" y1="0" x2="36" y2="222" gradientUnits="userSpaceOnUse">
<stop stop-color="#666666"/>
<stop offset="1" stop-color="#393636"/>
</linearGradient>
<linearGradient id="paint5_linear_16_790" x1="36" y1="0" x2="36" y2="222" gradientUnits="userSpaceOnUse">
<stop stop-color="#666666"/>
<stop offset="1" stop-color="#393636"/>
</linearGradient>
<linearGradient id="paint6_linear_16_790" x1="36" y1="0" x2="36" y2="222" gradientUnits="userSpaceOnUse">
<stop stop-color="#666666"/>
<stop offset="1" stop-color="#393636"/>
</linearGradient>
<linearGradient id="paint7_linear_16_790" x1="36" y1="0" x2="36" y2="222" gradientUnits="userSpaceOnUse">
<stop stop-color="#666666"/>
<stop offset="1" stop-color="#393636"/>
</linearGradient>
<linearGradient id="paint8_linear_16_790" x1="36" y1="0" x2="36" y2="222" gradientUnits="userSpaceOnUse">
<stop stop-color="#666666"/>
<stop offset="1" stop-color="#393636"/>
</linearGradient>
<linearGradient id="paint9_linear_16_790" x1="36" y1="0" x2="36" y2="222" gradientUnits="userSpaceOnUse">
<stop stop-color="#666666"/>
<stop offset="1" stop-color="#393636"/>
</linearGradient>
<linearGradient id="paint10_linear_16_790" x1="36" y1="0" x2="36" y2="222" gradientUnits="userSpaceOnUse">
<stop stop-color="#666666"/>
<stop offset="1" stop-color="#393636"/>
</linearGradient>
<linearGradient id="paint11_linear_16_790" x1="36" y1="0" x2="36" y2="222" gradientUnits="userSpaceOnUse">
<stop stop-color="#666666"/>
<stop offset="1" stop-color="#393636"/>
</linearGradient>
<linearGradient id="paint12_linear_16_790" x1="36" y1="0" x2="36" y2="222" gradientUnits="userSpaceOnUse">
<stop stop-color="#666666"/>
<stop offset="1" stop-color="#393636"/>
</linearGradient>
</defs>
</svg>
