<svg width="140" height="93" viewBox="0 0 140 93" fill="none" xmlns="http://www.w3.org/2000/svg">
<path d="M138.5 71L125 92H16.5L1 71V55.5V13.5H6V1H133V13.5H138.5V55.5V71Z" fill="#D9D9D9"/>
<path d="M1 71H138.5M1 71L16.5 92H125L138.5 71M1 71V55.5M138.5 71V55.5M1 55.5H138.5M1 55.5V13.5H6M138.5 55.5V13.5H133M6 43L11 54H129.5L133 43M6 43H133M6 43V31.5M133 43V31.5M6 31.5H133M6 31.5V13.5M133 31.5V13.5M6 13.5V1H133V13.5" stroke="black" stroke-width="2"/>
<path d="M3 72H137L124.5 91.5H17L3 72Z" fill="url(#paint0_linear_8_156)"/>
<path d="M7.5 44H131.743L128.791 53H11.2537L7.5 44Z" fill="url(#paint1_linear_8_156)"/>
<rect x="50" y="14" width="39" height="6" fill="black"/>
<rect x="101" y="34" width="28" height="6" fill="black"/>
<rect x="49" y="34" width="4" height="6" fill="black"/>
<rect x="55" y="34" width="4" height="6" fill="black"/>
<rect x="61" y="34" width="4" height="6" fill="black"/>
<circle cx="26" cy="37" r="2.5" fill="white" stroke="black"/>
<circle cx="35" cy="37" r="2.5" fill="white" stroke="black"/>
<circle cx="44" cy="37" r="2.5" fill="white" stroke="black"/>
<circle cx="77" cy="37" r="2.5" fill="white" stroke="black"/>
<circle cx="86" cy="37" r="2.5" fill="white" stroke="black"/>
<circle cx="95" cy="37" r="2.5" fill="white" stroke="black"/>
<defs>
<linearGradient id="paint0_linear_8_156" x1="73.2171" y1="70" x2="73.2171" y2="91.5" gradientUnits="userSpaceOnUse">
<stop stop-color="#C4C4C4"/>
<stop offset="0.545008" stop-color="#5E5E5E"/>
</linearGradient>
<linearGradient id="paint1_linear_8_156" x1="72.5052" y1="43.0769" x2="72.5052" y2="53" gradientUnits="userSpaceOnUse">
<stop stop-color="#C4C4C4"/>
<stop offset="1" stop-color="#5E5E5E"/>
</linearGradient>
</defs>
</svg>
