<svg width="73" height="222" viewBox="0 0 73 222" fill="none" xmlns="http://www.w3.org/2000/svg">
<path d="M39.9784 3.49095C40.4934 1.87336 40.832 0.263633 42.8979 0.0299602C45.4094 -0.251887 47.1408 1.49574 48.1209 3.5511C49.2861 5.99715 47.6588 7.7062 46.1115 9.7109C45.7944 10.1255 45.6012 10.7227 45.5316 11.5025C45.4923 11.9599 45.6094 12.5523 45.8828 13.2799C46.6857 15.4043 47.3535 17.724 47.3341 19.7831C47.3248 20.8292 47.0237 22.2208 46.4308 23.9579C45.2872 27.3235 44.2014 30.8948 43.1735 34.6716C42.9664 35.4341 42.8974 36.2423 42.9664 37.096C43.0929 38.5876 43.2945 40.5201 43.2917 42.2633C43.2442 78.2182 43.2044 109.366 43.1722 135.706C43.1694 138.264 43.3855 140.444 43.853 142.774C44.0306 143.656 44.4378 144.426 45.0745 145.083C48.4412 148.557 53.7699 144.91 55.8802 141.905C56.2391 141.396 56.5861 140.509 56.9211 139.244C57.462 137.213 58.1777 135.089 59.5676 133.518C62.1901 130.564 65.5484 134.13 66.6075 136.507C68.8905 141.632 67.8917 147.886 65.7148 152.933C64.8233 155.004 63.3364 157.526 62.7497 159.723C61.3766 164.843 61.7186 169.655 63.7757 174.16C66.5877 180.313 68.8771 185.812 70.6442 190.658C71.2555 192.339 71.6986 194.714 71.9735 197.782C72.4726 203.338 71.5808 208.993 67.7125 213.114C64.3735 216.675 60.5425 219.044 56.2193 220.222C54.3979 220.72 52.223 221.067 49.6945 221.264C41.3255 221.921 33.1529 221.924 25.1766 221.271C20.792 220.915 16.75 220.16 13.0508 219.008C5.12502 216.537 0.946589 209.952 0.163717 201.916C-0.400816 196.128 0.494625 190.683 2.85004 185.582C6.29285 178.126 8.08541 174.239 8.2277 173.922C10.5799 168.665 11.6374 163.906 9.76997 158.341C9.08484 156.292 8.11625 153.587 6.86419 150.226C6.34175 148.827 5.91464 147.126 5.58285 145.122C4.86053 140.762 5.79856 136.816 8.39691 133.285C10.0084 131.092 12.5889 130.324 15.1868 130.05C19.749 129.576 24.2856 132.547 28.1131 134.738C28.2921 134.839 28.6055 134.885 29.053 134.874C30.1491 134.85 30.9055 133.334 30.9299 132.455C31.6377 108.427 32.5411 77.7284 33.6401 40.3584C33.6544 39.8485 33.4384 39.2982 32.992 38.7076C32.1661 37.6223 31.3527 36.5769 30.5516 35.5714C30.3837 35.3613 30.2706 35.1127 30.2222 34.8479C30.1738 34.5831 30.1917 34.3102 30.2743 34.0537L31.2934 30.8519C31.3492 30.6794 31.2898 30.5661 31.1151 30.5119L30.9149 30.446C30.8645 30.4298 30.8104 30.4296 30.7603 30.4454C30.7101 30.4613 30.6665 30.4924 30.6355 30.5344C30.3132 30.9579 29.9734 31.2677 29.4366 31.1499C28.0314 30.8487 28.1055 29.5341 28.7481 28.567C28.9945 28.1942 29.2611 28.0055 29.548 28.001C30.0684 27.9975 30.5414 28.2076 30.9667 28.6315C31.0631 28.7261 31.1068 28.8409 31.0977 28.9758C31.0742 29.2799 31.0652 29.4518 31.0708 29.4916C31.2128 30.3391 31.4181 30.3522 31.6868 29.531C32.0813 28.3106 32.4774 27.0417 32.8751 25.7244C32.9282 25.5437 32.9244 25.398 32.8635 25.2874C32.8075 25.1834 32.7307 25.1199 32.6329 25.0971C32.4961 25.0624 32.386 25.1009 32.3026 25.2127C31.9286 25.7061 31.5925 25.9288 31.2942 25.8809C29.7145 25.6317 29.6696 24.2169 30.4734 23.152C31.1081 22.3123 32.0552 22.762 32.6869 23.3822C32.7329 23.4279 32.7671 23.4845 32.7864 23.547C32.8058 23.6095 32.8098 23.6761 32.7981 23.741C32.7305 24.0908 32.7197 24.3316 32.7656 24.4633C32.9458 24.9623 33.1148 24.9581 33.2728 24.4509L34.5549 20.3579C34.5944 20.2277 34.5713 20.1063 34.4854 19.9938C34.4371 19.9279 34.378 19.8818 34.3081 19.8554C34.1764 19.8001 34.0583 19.8209 33.9539 19.9177C33.242 20.5761 32.8124 20.8809 31.947 20.2043C31.716 20.0226 31.5857 19.7368 31.5563 19.3467C31.5026 18.5829 31.8164 17.9683 32.4976 17.5027C32.7828 17.3072 33.188 17.3628 33.7132 17.6696C34.3423 18.0352 34.53 18.4848 34.2765 19.0182C34.2605 19.0514 34.2519 19.0878 34.2512 19.1247C34.2505 19.1616 34.2577 19.1983 34.2725 19.2321C34.2872 19.266 34.3091 19.2963 34.3366 19.321C34.364 19.3456 34.3965 19.3641 34.4318 19.3751L34.6433 19.4427C34.6649 19.45 34.6878 19.4527 34.7106 19.4508C34.7334 19.4489 34.7556 19.4424 34.7761 19.4317C34.7965 19.421 34.8146 19.4063 34.8295 19.3884C34.8444 19.3705 34.8556 19.3498 34.8626 19.3275L36.214 15.0875C36.2558 14.9557 36.2345 14.8346 36.1503 14.7242C36.066 14.6139 35.9561 14.5561 35.8207 14.5508C35.7238 14.5475 35.6231 14.5943 35.5186 14.6912C35.4054 14.7944 35.2739 14.9144 35.1244 15.051C34.6476 15.4916 34.0022 15.3016 33.5589 14.9178C32.6788 14.166 33.4451 12.0555 34.5694 12.1324C35.2629 12.1808 36.3689 12.8127 35.9019 13.7017C35.8813 13.7403 35.8696 13.783 35.8674 13.8267C35.8653 13.8704 35.8728 13.9141 35.8894 13.9546C35.9061 13.995 35.9314 14.0314 35.9636 14.061C35.9959 14.0905 36.0342 14.1127 36.076 14.1257L36.2818 14.1925C36.4137 14.2342 36.5004 14.1892 36.5422 14.0574L37.979 9.54718C38.0253 9.39853 37.9761 9.29457 37.8314 9.23527C37.6515 9.16471 37.4776 9.13694 37.3098 9.15197C37.2051 9.16116 37.0699 9.26201 36.9039 9.45452C36.465 9.96519 35.9414 10.0267 35.3333 9.63893C34.3417 9.0042 34.7417 7.67848 35.4531 6.98491C35.7173 6.72381 36.0132 6.64187 36.3409 6.7391C37.2631 7.00971 37.8852 7.46482 37.4361 8.50259C37.4054 8.57574 37.428 8.62498 37.5039 8.65031L38.1166 8.84403C38.1779 8.86321 38.2181 8.84215 38.2373 8.78085L39.6641 4.29831C39.6834 4.2361 39.6798 4.16917 39.6541 4.10989C39.6283 4.05061 39.5821 4.003 39.5239 3.97587C39.4026 3.91629 39.2629 3.88209 39.1045 3.87328C39.0099 3.86842 38.881 3.95955 38.7178 4.14664C38.2701 4.66375 37.7576 4.761 37.1803 4.43838C35.9833 3.772 36.54 2.22509 37.4169 1.55702C37.5311 1.47336 37.6575 1.43637 37.7962 1.44606C38.3548 1.48541 38.813 1.70302 39.1706 2.09888C39.3104 2.25284 39.3735 2.41247 39.3597 2.5778C39.3383 2.79259 39.2826 2.97678 39.1927 3.13039C39.1118 3.26395 39.1464 3.35497 39.2967 3.40343L39.8256 3.57256C39.9037 3.59628 39.9546 3.56908 39.9784 3.49095ZM30.6088 147.541L30.7311 138.427C30.7318 138.384 30.7233 138.34 30.7063 138.3C30.6892 138.26 30.6639 138.224 30.6321 138.194C30.6002 138.165 30.5623 138.141 30.521 138.127C30.4796 138.112 30.4356 138.106 30.3917 138.109C24.5798 138.542 20.6787 148.467 19.3184 153.296C17.4728 159.852 16.9286 166.296 17.6859 172.628C17.7164 172.872 17.9214 173.608 18.3009 174.835C18.5169 175.537 18.8347 175.749 19.5214 175.823C21.4309 176.03 23.5521 176.113 25.8851 176.073C25.9705 176.072 26.0525 176.04 26.1168 175.983C26.181 175.927 26.2233 175.85 26.2363 175.765L26.4605 174.31C26.5 174.05 26.6329 173.813 26.8346 173.643C27.0364 173.473 27.2934 173.381 27.5583 173.384L45.3445 173.619C45.5593 173.622 45.7639 173.711 45.9137 173.865C46.0635 174.019 46.1462 174.225 46.1439 174.44L46.1215 176.026C46.12 176.143 46.1656 176.257 46.2484 176.341C46.3312 176.426 46.4444 176.474 46.5632 176.476L52.7018 176.558C52.7505 176.558 52.7976 176.541 52.8342 176.509C52.8708 176.478 52.8943 176.434 52.9004 176.387C53.208 174.063 54.597 172.94 57.0674 173.019C59.2451 173.089 60.4908 174.091 60.8043 176.025C60.8935 176.57 61.2154 176.832 61.7698 176.81C62.3656 176.785 62.7917 176.743 63.0482 176.683C63.146 176.661 63.238 176.619 63.3178 176.558C63.3977 176.497 63.4636 176.42 63.511 176.332C63.5585 176.243 63.5864 176.145 63.5928 176.045C63.5993 175.944 63.5841 175.844 63.5484 175.749C62.1017 171.971 61.2662 169.533 61.0421 168.435C60.6308 166.429 60.7228 163.98 61.318 161.091C61.5364 160.04 62.1315 158.396 63.1032 156.159C63.4417 155.377 64.1219 153.762 65.1439 151.312C66.9941 146.862 67.3739 142.47 66.2833 138.137C66.0382 137.163 65.6344 136.264 65.0719 135.441C64.2939 134.311 62.5546 133.278 61.2523 134.318C60.5614 134.872 60.1361 135.426 59.9765 135.982C58.6562 140.589 57.1501 146.269 52.2328 148.213C49.21 149.406 45.4448 149.351 43.506 146.485C43.2537 146.113 43.1425 146.153 43.1724 146.603C43.2619 147.968 42.6801 148.655 41.4269 148.662C39.9843 148.673 36.6414 148.576 31.3983 148.37C30.8662 148.348 30.603 148.072 30.6088 147.541ZM44.8429 174.979L28.055 174.842C27.9841 174.842 27.9138 174.855 27.8481 174.881C27.7823 174.908 27.7225 174.947 27.6719 174.997C27.6214 175.047 27.5812 175.106 27.5536 175.171C27.526 175.237 27.5115 175.307 27.5111 175.378L27.3716 193.038C27.3702 193.197 27.4001 193.355 27.4598 193.502C27.5195 193.649 27.6076 193.783 27.7193 193.896C27.831 194.009 27.9639 194.1 28.1106 194.162C28.2572 194.224 28.4147 194.256 28.574 194.258L44.0148 194.379C44.174 194.38 44.3319 194.35 44.4794 194.291C44.627 194.231 44.7613 194.143 44.8748 194.032C44.9882 193.92 45.0785 193.788 45.1406 193.642C45.2026 193.496 45.2352 193.339 45.2364 193.18L45.3783 175.523C45.379 175.452 45.3657 175.381 45.3391 175.316C45.3125 175.25 45.2733 175.19 45.2235 175.14C45.1738 175.089 45.1146 175.049 45.0493 175.021C44.9839 174.994 44.9138 174.979 44.8429 174.979ZM60.1865 176.835C60.197 176.042 59.8919 175.276 59.3382 174.708C58.7845 174.139 58.0276 173.814 57.2341 173.803L56.6789 173.796C55.8853 173.786 55.1201 174.091 54.5515 174.644C53.9829 175.198 53.6576 175.955 53.6471 176.749L53.2627 205.723C53.2521 206.516 53.5573 207.281 54.111 207.85C54.6647 208.419 55.4215 208.744 56.2151 208.754L56.7703 208.762C57.5638 208.772 58.3291 208.467 58.8977 207.914C59.4662 207.36 59.7916 206.603 59.8021 205.809L60.1865 176.835Z" fill="url(#paint0_linear_16_785)"/>
<path d="M30.6088 147.541C30.603 148.072 30.8662 148.348 31.3983 148.37C36.6414 148.576 39.9843 148.673 41.4269 148.662C42.6801 148.655 43.2619 147.968 43.1724 146.603C43.1425 146.153 43.2537 146.113 43.506 146.485C45.4448 149.351 49.21 149.406 52.2328 148.213C57.1501 146.269 58.6562 140.589 59.9765 135.982C60.1361 135.426 60.5614 134.872 61.2523 134.318C62.5546 133.278 64.2939 134.311 65.0719 135.441C65.6344 136.264 66.0382 137.163 66.2833 138.137C67.3739 142.47 66.9941 146.862 65.1439 151.312C64.1219 153.762 63.4417 155.377 63.1032 156.159C62.1315 158.396 61.5364 160.04 61.318 161.091C60.7228 163.98 60.6308 166.429 61.0421 168.435C61.2662 169.533 62.1017 171.971 63.5484 175.749C63.5841 175.844 63.5993 175.944 63.5928 176.045C63.5864 176.145 63.5585 176.243 63.511 176.332C63.4636 176.42 63.3977 176.497 63.3178 176.558C63.238 176.619 63.146 176.661 63.0482 176.683C62.7917 176.743 62.3656 176.785 61.7698 176.81C61.2154 176.832 60.8935 176.57 60.8043 176.025C60.4908 174.091 59.2451 173.089 57.0674 173.019C54.597 172.94 53.208 174.063 52.9004 176.387C52.8943 176.434 52.8708 176.478 52.8342 176.509C52.7976 176.541 52.7505 176.558 52.7018 176.558L46.5632 176.476C46.4444 176.474 46.3312 176.426 46.2484 176.341C46.1656 176.257 46.12 176.143 46.1215 176.026L46.1439 174.44C46.1462 174.225 46.0635 174.019 45.9137 173.865C45.7639 173.711 45.5593 173.622 45.3445 173.619L27.5583 173.384C27.2934 173.381 27.0364 173.473 26.8346 173.643C26.6329 173.813 26.5 174.05 26.4605 174.31L26.2363 175.765C26.2233 175.85 26.181 175.927 26.1168 175.983C26.0525 176.04 25.9705 176.072 25.8851 176.073C23.5521 176.113 21.4309 176.03 19.5214 175.823C18.8347 175.749 18.5169 175.537 18.3009 174.835C17.9214 173.608 17.7164 172.872 17.6859 172.628C16.9286 166.296 17.4728 159.852 19.3184 153.296C20.6787 148.467 24.5798 138.542 30.3917 138.109C30.4356 138.106 30.4796 138.112 30.521 138.127C30.5623 138.141 30.6002 138.165 30.6321 138.194C30.6639 138.224 30.6892 138.26 30.7063 138.3C30.7233 138.34 30.7318 138.384 30.7311 138.427L30.6088 147.541ZM43.7759 153.387C43.7785 153.19 43.7423 152.995 43.6694 152.812C43.5966 152.63 43.4884 152.463 43.3511 152.322C43.2139 152.181 43.0502 152.068 42.8694 151.991C42.6886 151.913 42.4944 151.872 42.2976 151.869L30.7047 151.715C30.3074 151.71 29.9242 151.863 29.6396 152.14C29.3549 152.417 29.192 152.796 29.1867 153.194L29.1855 153.283C29.1829 153.48 29.2191 153.675 29.292 153.858C29.3648 154.041 29.473 154.208 29.6103 154.348C29.7475 154.489 29.9112 154.602 30.092 154.68C30.2727 154.757 30.467 154.799 30.6638 154.801L42.2567 154.955C42.654 154.96 43.0372 154.808 43.3218 154.53C43.6065 154.253 43.7694 153.874 43.7747 153.477L43.7759 153.387Z" fill="#F4F4F6"/>
<path d="M42.2976 151.869L30.7047 151.715C29.8773 151.704 29.1977 152.366 29.1867 153.194L29.1855 153.283C29.1746 154.111 29.8364 154.79 30.6638 154.801L42.2567 154.955C43.0841 154.966 43.7637 154.304 43.7747 153.477L43.7759 153.387C43.7868 152.56 43.125 151.88 42.2976 151.869Z" fill="url(#paint1_linear_16_785)"/>
<path d="M44.8429 174.979C44.9138 174.979 44.9839 174.994 45.0493 175.021C45.1146 175.049 45.1738 175.089 45.2235 175.14C45.2733 175.19 45.3125 175.25 45.3391 175.316C45.3657 175.381 45.379 175.452 45.3783 175.523L45.2364 193.18C45.2352 193.339 45.2026 193.496 45.1406 193.642C45.0785 193.788 44.9882 193.92 44.8748 194.032C44.7613 194.143 44.627 194.231 44.4794 194.291C44.3319 194.35 44.174 194.38 44.0148 194.379L28.574 194.258C28.4147 194.256 28.2572 194.224 28.1106 194.162C27.9639 194.1 27.831 194.009 27.7193 193.896C27.6076 193.783 27.5195 193.649 27.4598 193.502C27.4001 193.355 27.3702 193.197 27.3716 193.038L27.5111 175.378C27.5115 175.307 27.526 175.237 27.5536 175.171C27.5812 175.106 27.6214 175.047 27.6719 174.997C27.7225 174.947 27.7823 174.908 27.8481 174.881C27.9138 174.855 27.9841 174.842 28.055 174.842L44.8429 174.979ZM31.0117 175.938C30.4758 175.765 29.8933 175.813 29.3923 176.07C28.8913 176.326 28.5128 176.772 28.3401 177.308L28.3151 177.385C28.1424 177.921 28.1897 178.504 28.4465 179.005C28.7034 179.506 29.1487 179.884 29.6846 180.057L41.7301 183.938C42.2659 184.111 42.8485 184.064 43.3495 183.807C43.8505 183.55 44.229 183.105 44.4016 182.569L44.4267 182.491C44.5993 181.955 44.5521 181.373 44.2952 180.872C44.0384 180.371 43.5931 179.992 43.0572 179.819L31.0117 175.938Z" fill="#F4F4F6"/>
<path d="M28.3401 177.308L28.3151 177.385C27.9555 178.501 28.5686 179.697 29.6846 180.057L41.7301 183.938C42.846 184.298 44.0421 183.685 44.4016 182.569L44.4267 182.491C44.7862 181.375 44.1731 180.179 43.0572 179.819L31.0117 175.938C29.8958 175.579 28.6997 176.192 28.3401 177.308Z" fill="url(#paint2_linear_16_785)"/>
<path d="M59.8021 205.809C59.7916 206.603 59.4662 207.36 58.8977 207.914C58.3291 208.467 57.5638 208.772 56.7703 208.762L56.2151 208.754C55.4215 208.744 54.6647 208.419 54.111 207.85C53.5573 207.281 53.2521 206.516 53.2627 205.723L53.6471 176.749C53.6576 175.955 53.9829 175.198 54.5515 174.644C55.1201 174.091 55.8853 173.786 56.6789 173.796L57.2341 173.803C58.0276 173.814 58.7845 174.139 59.3382 174.708C59.8919 175.276 60.197 176.042 60.1865 176.835L59.8021 205.809ZM58.0952 181.741C57.8667 181.429 57.5237 181.221 57.1417 181.162C56.7596 181.103 56.3699 181.198 56.0581 181.427C55.7464 181.655 55.5382 181.998 55.4793 182.38C55.4204 182.762 55.5157 183.152 55.7442 183.464C55.8574 183.618 55.9998 183.749 56.1634 183.848C56.327 183.947 56.5086 184.013 56.6977 184.043C56.8869 184.072 57.08 184.063 57.2659 184.018C57.4518 183.972 57.6269 183.891 57.7813 183.778C57.9356 183.665 58.0662 183.522 58.1655 183.358C58.2649 183.195 58.331 183.013 58.3601 182.824C58.3893 182.635 58.3809 182.442 58.3354 182.256C58.29 182.07 58.2083 181.895 58.0952 181.741ZM58.3714 189.52C58.21 189.3 58.0069 189.114 57.7737 188.972C57.5404 188.831 57.2816 188.737 57.0119 188.695C56.7422 188.653 56.4669 188.665 56.2019 188.73C55.9368 188.795 55.6871 188.911 55.467 189.073C55.0225 189.398 54.7257 189.888 54.6417 190.432C54.5578 190.977 54.6937 191.533 55.0195 191.977C55.3452 192.422 55.8343 192.718 56.3789 192.802C56.9236 192.886 57.4793 192.75 57.9238 192.425C58.3683 192.099 58.6652 191.61 58.7491 191.065C58.833 190.52 58.6971 189.965 58.3714 189.52ZM58.165 204.051C57.8392 203.607 57.3502 203.31 56.8055 203.226C56.2609 203.142 55.7052 203.278 55.2607 203.604C54.8162 203.93 54.5193 204.419 54.4354 204.963C54.3515 205.508 54.4873 206.064 54.8131 206.508C54.9744 206.728 55.1775 206.914 55.4108 207.056C55.6441 207.198 55.9029 207.292 56.1726 207.333C56.4423 207.375 56.7176 207.363 56.9826 207.298C57.2477 207.233 57.4974 207.117 57.7175 206.956C57.9376 206.794 58.1237 206.591 58.2653 206.358C58.4069 206.125 58.5012 205.866 58.5428 205.596C58.5843 205.326 58.5724 205.051 58.5075 204.786C58.4427 204.521 58.3263 204.271 58.165 204.051Z" fill="#F4F4F6"/>
<path d="M57.7813 183.778C58.4305 183.302 58.571 182.39 58.0952 181.741C57.6193 181.091 56.7073 180.951 56.0581 181.427C55.4089 181.903 55.2684 182.815 55.7442 183.464C56.2201 184.113 57.1321 184.254 57.7813 183.778Z" fill="url(#paint3_linear_16_785)"/>
<path d="M57.9238 192.425C58.8494 191.746 59.0498 190.446 58.3714 189.52C57.6929 188.595 56.3926 188.394 55.467 189.073C54.5414 189.751 54.341 191.051 55.0195 191.977C55.6979 192.903 56.9982 193.103 57.9238 192.425Z" fill="url(#paint4_linear_16_785)"/>
<path d="M57.7175 206.956C58.6431 206.277 58.8435 204.977 58.165 204.051C57.4866 203.126 56.1863 202.925 55.2607 203.604C54.3351 204.282 54.1347 205.583 54.8131 206.508C55.4916 207.434 56.7919 207.634 57.7175 206.956Z" fill="url(#paint5_linear_16_785)"/>
<defs>
<linearGradient id="paint0_linear_16_785" x1="36.0499" y1="0" x2="36.0499" y2="221.759" gradientUnits="userSpaceOnUse">
<stop stop-color="#666666"/>
<stop offset="1" stop-color="#3B3B3B"/>
</linearGradient>
<linearGradient id="paint1_linear_16_785" x1="36.0499" y1="0" x2="36.0499" y2="221.759" gradientUnits="userSpaceOnUse">
<stop stop-color="#666666"/>
<stop offset="1" stop-color="#3B3B3B"/>
</linearGradient>
<linearGradient id="paint2_linear_16_785" x1="36.0499" y1="0" x2="36.0499" y2="221.759" gradientUnits="userSpaceOnUse">
<stop stop-color="#666666"/>
<stop offset="1" stop-color="#3B3B3B"/>
</linearGradient>
<linearGradient id="paint3_linear_16_785" x1="36.0499" y1="0" x2="36.0499" y2="221.759" gradientUnits="userSpaceOnUse">
<stop stop-color="#666666"/>
<stop offset="1" stop-color="#3B3B3B"/>
</linearGradient>
<linearGradient id="paint4_linear_16_785" x1="36.0499" y1="0" x2="36.0499" y2="221.759" gradientUnits="userSpaceOnUse">
<stop stop-color="#666666"/>
<stop offset="1" stop-color="#3B3B3B"/>
</linearGradient>
<linearGradient id="paint5_linear_16_785" x1="36.0499" y1="0" x2="36.0499" y2="221.759" gradientUnits="userSpaceOnUse">
<stop stop-color="#666666"/>
<stop offset="1" stop-color="#3B3B3B"/>
</linearGradient>
</defs>
</svg>
