<svg width="191" height="112" viewBox="0 0 191 112" fill="none" xmlns="http://www.w3.org/2000/svg">
<path d="M14 110V73M14 8V18.5M14 73L51 60.5M14 73V60.5M51 60.5H145.5M51 60.5L99 42M145.5 60.5L176 73V110V8M145.5 60.5L99 42M189 60.5V73V18.5M189 60.5H14M189 60.5V18.5M189 3V18.5M14 60.5H2V73V18.5M14 60.5V18.5M2 3V18.5M2 18.5H14M189 18.5H176M99 42L14 18.5M99 42L176 18.5M14 18.5H176" stroke="#565353" stroke-width="4" stroke-linecap="round"/>
<rect x="10" y="98" width="8" height="14" rx="4" fill="black"/>
<rect x="10" width="8" height="14" rx="4" fill="black"/>
<rect x="172" y="98" width="8" height="14" rx="4" fill="black"/>
<rect x="172" width="8" height="14" rx="4" fill="black"/>
</svg>
