<svg width="170" height="66" viewBox="0 0 170 66" fill="none" xmlns="http://www.w3.org/2000/svg">
<path d="M3.75182 2.79374H165.191V64.792H3.75182V2.79374Z" fill="#FDFDFD"/>
<path d="M4.86354 2.05095e-05L165.367 0.554328C166.599 0.558563 167.78 1.04688 168.649 1.91191C169.518 2.77694 170.004 3.94786 170 5.16726L169.803 61.4167C169.799 62.6361 169.305 63.8039 168.431 64.6634C167.556 65.5229 166.372 66.0036 165.14 66L4.6334 65.4481C3.40066 65.4439 2.22008 64.9556 1.35122 64.0905C0.482357 63.2255 -0.0036582 62.0546 2.07348e-05 60.8352L0.200129 4.58325C0.20441 3.36386 0.698065 2.19606 1.57256 1.3366C2.44705 0.477136 3.6308 -0.00361853 4.86354 2.05095e-05ZM18.221 54.2844C17.8317 54.5896 17.507 54.9676 17.2654 55.3969C17.0238 55.8262 16.8701 56.2983 16.813 56.7864C16.7559 57.2744 16.7965 57.7689 16.9326 58.2414C17.0686 58.7139 17.2974 59.1553 17.6059 59.5404C17.9144 59.9254 18.2966 60.2466 18.7306 60.4856C19.1646 60.7245 19.6419 60.8766 20.1353 60.9331C20.6287 60.9896 21.1285 60.9494 21.6062 60.8148C22.0839 60.6802 22.5301 60.4539 22.9194 60.1487C23.7056 59.5324 24.212 58.6324 24.3274 57.6467C24.4427 56.6611 24.1575 55.6704 23.5344 54.8928C22.9114 54.1151 22.0015 53.6141 21.0051 53.5C20.0086 53.3859 19.0071 53.6681 18.221 54.2844ZM18.2261 34.6022C17.44 35.2185 16.9335 36.1185 16.8182 37.1042C16.7028 38.0899 16.988 39.0805 17.6111 39.8582C18.2342 40.6358 19.144 41.1368 20.1405 41.2509C21.1369 41.365 22.1384 41.0829 22.9246 40.4666C23.7107 39.8502 24.2172 38.9503 24.3325 37.9646C24.4479 36.9789 24.1627 35.9882 23.5396 35.2106C22.9165 34.4329 22.0067 33.9319 21.0102 33.8178C20.0138 33.7038 19.0123 33.9859 18.2261 34.6022ZM30.1123 50.9122C30.0902 50.9124 30.0683 50.917 30.0479 50.9255C30.0275 50.9341 30.0091 50.9466 29.9936 50.9623C29.9781 50.9779 29.9658 50.9964 29.9576 51.0168C29.9493 51.0371 29.9452 51.0588 29.9454 51.0807L29.9828 54.6233C29.983 54.6452 29.9876 54.6668 29.9963 54.687C30.005 54.7071 30.0176 54.7254 30.0334 54.7407C30.0492 54.7561 30.0679 54.7682 30.0885 54.7763C30.109 54.7845 30.131 54.7886 30.1532 54.7884L34.8346 54.7401C34.8567 54.7399 34.8786 54.7353 34.899 54.7267C34.9193 54.7181 34.9378 54.7056 34.9533 54.69C34.9688 54.6743 34.981 54.6558 34.9893 54.6355C34.9976 54.6152 35.0017 54.5935 35.0015 54.5715L34.9641 51.029C34.9639 51.0071 34.9593 50.9854 34.9506 50.9653C34.9419 50.9451 34.9293 50.9269 34.9135 50.9115C34.8976 50.8962 34.8789 50.8841 34.8584 50.8759C34.8378 50.8678 34.8159 50.8637 34.7937 50.8639L30.1123 50.9122ZM30.0103 44.7444C29.9897 44.7446 29.9694 44.7489 29.9505 44.7568C29.9316 44.7648 29.9144 44.7764 29.9 44.7909C29.8856 44.8055 29.8743 44.8227 29.8666 44.8415C29.859 44.8604 29.8551 44.8806 29.8553 44.9009L29.8929 48.4673C29.8932 48.4877 29.8974 48.5078 29.9055 48.5265C29.9135 48.5452 29.9253 48.5621 29.9399 48.5764C29.9546 48.5906 29.972 48.6018 29.9911 48.6094C30.0102 48.617 30.0306 48.6208 30.0511 48.6206L34.7566 48.5721C34.7772 48.5719 34.7975 48.5676 34.8165 48.5597C34.8354 48.5517 34.8525 48.5401 34.8669 48.5256C34.8813 48.511 34.8926 48.4938 34.9003 48.475C34.908 48.4561 34.9118 48.4359 34.9116 48.4156L34.874 44.8492C34.8738 44.8288 34.8695 44.8087 34.8615 44.79C34.8534 44.7713 34.8417 44.7544 34.827 44.7401C34.8123 44.7259 34.7949 44.7147 34.7758 44.7071C34.7568 44.6995 34.7364 44.6957 34.7158 44.6959L30.0103 44.7444ZM37.6597 50.9724C37.6413 50.9726 37.6231 50.9763 37.6061 50.9835C37.5891 50.9906 37.5737 51.001 37.5607 51.014C37.5478 51.027 37.5376 51.0424 37.5307 51.0594C37.5238 51.0763 37.5203 51.0944 37.5205 51.1127L37.552 54.7109C37.5524 54.7477 37.5675 54.783 37.5941 54.8088C37.6207 54.8346 37.6565 54.849 37.6938 54.8486L42.4315 54.808C42.4499 54.8078 42.4682 54.804 42.4852 54.7969C42.5022 54.7898 42.5176 54.7794 42.5305 54.7664C42.5434 54.7534 42.5537 54.738 42.5606 54.721C42.5675 54.7041 42.571 54.686 42.5708 54.6677L42.5392 51.0695C42.5389 51.0327 42.5237 50.9974 42.4972 50.9716C42.4706 50.9458 42.4347 50.9314 42.3975 50.9317L37.6597 50.9724ZM30.0079 38.6329C29.9842 38.633 29.9607 38.6378 29.9388 38.6469C29.9169 38.656 29.8971 38.6692 29.8804 38.6859C29.8637 38.7026 29.8505 38.7224 29.8415 38.7441C29.8326 38.7658 29.828 38.7891 29.8281 38.8125L29.847 42.4109C29.8472 42.4343 29.8519 42.4575 29.8611 42.4792C29.8703 42.5008 29.8838 42.5204 29.9006 42.537C29.9175 42.5535 29.9375 42.5665 29.9594 42.5754C29.9814 42.5843 30.0049 42.5888 30.0287 42.5886L34.7424 42.5644C34.7661 42.5643 34.7896 42.5596 34.8115 42.5505C34.8333 42.5414 34.8532 42.5281 34.8699 42.5114C34.8866 42.4948 34.8998 42.475 34.9087 42.4533C34.9177 42.4315 34.9223 42.4083 34.9221 42.3848L34.9032 38.7865C34.9031 38.763 34.8983 38.7398 34.8891 38.7182C34.8799 38.6965 34.8665 38.6769 34.8497 38.6604C34.8328 38.6439 34.8128 38.6308 34.7908 38.6219C34.7689 38.6131 34.7453 38.6086 34.7216 38.6087L30.0079 38.6329ZM82.2104 10.3232L84.7042 10.3344C84.723 10.3344 84.7416 10.3382 84.759 10.3454C84.7763 10.3527 84.792 10.3633 84.8051 10.3767C84.8182 10.3901 84.8284 10.4059 84.8352 10.4233C84.842 10.4406 84.8452 10.4591 84.8446 10.4777L84.782 28.6238C84.7809 28.7632 84.8519 28.8326 84.9948 28.832L92.0085 28.8575C92.046 28.8562 92.0814 28.8408 92.1074 28.8148C92.1334 28.7888 92.1478 28.754 92.1477 28.718L92.2107 10.6426C92.2118 10.5843 92.2428 10.5549 92.3039 10.5543L94.8466 10.5627C94.9323 10.5631 94.975 10.6057 94.9746 10.6905L94.9128 28.7801C94.9108 28.9439 94.9917 29.0257 95.1556 29.0256L99.0753 29.039C99.2793 29.0379 99.3816 28.9374 99.3821 28.7377L99.4446 10.7641C99.4451 10.6454 99.5054 10.5863 99.6254 10.5868L102.117 10.595C102.227 10.5964 102.282 10.6516 102.28 10.7608L102.215 28.949C102.215 28.9643 102.219 28.9794 102.224 28.9935C102.23 29.0076 102.239 29.0204 102.25 29.0311C102.261 29.0418 102.274 29.0503 102.288 29.056C102.303 29.0617 102.318 29.0645 102.333 29.0643L110.019 29.0904C110.043 29.0907 110.067 29.0863 110.09 29.0773C110.113 29.0683 110.133 29.0549 110.151 29.038C110.168 29.021 110.182 29.0008 110.191 28.9786C110.201 28.9563 110.206 28.9324 110.206 28.9083L110.266 10.6629C110.268 10.6237 110.29 10.6035 110.33 10.6024L112.827 10.6113C112.846 10.6109 112.864 10.6145 112.881 10.6217C112.899 10.6289 112.914 10.6396 112.928 10.6532C112.941 10.6669 112.952 10.6831 112.959 10.701C112.966 10.719 112.97 10.7382 112.97 10.7577L112.905 28.8498C112.905 28.9104 112.929 28.9685 112.972 29.0115C113.016 29.0546 113.074 29.0791 113.135 29.0797L117.086 29.0939C117.107 29.0942 117.127 29.0905 117.146 29.083C117.165 29.0755 117.182 29.0643 117.196 29.0502C117.211 29.036 117.222 29.0192 117.23 29.0006C117.238 28.982 117.241 28.9621 117.241 28.942L117.308 10.6917C117.307 10.6805 117.309 10.6693 117.313 10.6588C117.317 10.6484 117.323 10.6388 117.331 10.6307C117.339 10.6227 117.349 10.6162 117.359 10.6119C117.369 10.6075 117.381 10.6052 117.392 10.6053L119.854 10.6158C119.956 10.6142 120.006 10.6642 120.006 10.766L119.944 28.9065C119.943 28.9292 119.948 28.9517 119.956 28.9727C119.965 28.9938 119.978 29.0129 119.994 29.029C120.01 29.045 120.029 29.0577 120.051 29.0663C120.072 29.075 120.095 29.0793 120.118 29.0791L124.126 29.0941C124.146 29.0944 124.166 29.0907 124.185 29.0832C124.204 29.0757 124.221 29.0646 124.236 29.0504C124.25 29.0363 124.261 29.0194 124.269 29.0009C124.277 28.9823 124.281 28.9623 124.281 28.9422L124.346 10.6975C124.346 10.6372 124.375 10.6075 124.434 10.6086L126.92 10.6162C127.005 10.6165 127.048 10.6591 127.048 10.7439L126.983 28.9322C126.983 28.9846 127.004 29.0348 127.041 29.0719C127.079 29.1091 127.13 29.13 127.183 29.1303L134.368 29.1529C134.492 29.1539 134.554 29.0932 134.555 28.9708L134.618 10.7738C134.618 10.7561 134.626 10.7392 134.638 10.7268C134.65 10.7145 134.666 10.7076 134.683 10.7077L137.16 10.7171C137.266 10.718 137.32 10.7704 137.322 10.8742L137.256 29.0171C137.257 29.0397 137.261 29.062 137.27 29.0828C137.279 29.1036 137.291 29.1224 137.307 29.1381C137.323 29.1539 137.342 29.1663 137.363 29.1746C137.384 29.1829 137.406 29.187 137.428 29.1866L141.422 29.2028C141.444 29.2027 141.466 29.1984 141.487 29.1902C141.507 29.1819 141.526 29.1699 141.541 29.1549C141.557 29.1399 141.569 29.122 141.577 29.1025C141.586 29.083 141.59 29.0621 141.589 29.0411L141.654 10.8075C141.653 10.7434 141.686 10.7113 141.751 10.7112L144.202 10.7205C144.222 10.7207 144.242 10.7247 144.26 10.7324C144.279 10.7401 144.296 10.7512 144.31 10.7652C144.324 10.7792 144.335 10.7957 144.342 10.8138C144.35 10.8319 144.353 10.8512 144.353 10.8706L144.291 29.062C144.291 29.0994 144.307 29.1351 144.333 29.1614C144.36 29.1877 144.396 29.2026 144.434 29.2028L148.802 29.2195C148.884 29.2195 148.926 29.1781 148.928 29.0954L149.02 3.08178C149.02 2.96311 148.961 2.90349 148.841 2.90294L21.3346 2.46827C21.2318 2.4678 21.1812 2.51761 21.1828 2.61769L21.0892 28.5265C21.0894 28.5573 21.1021 28.5868 21.1245 28.6089C21.147 28.631 21.1775 28.6439 21.2097 28.6449L24.8893 28.6591C24.9006 28.6591 24.9118 28.6568 24.9223 28.6525C24.9327 28.6481 24.9422 28.6417 24.9501 28.6336C24.958 28.6255 24.9641 28.616 24.9682 28.6055C24.9722 28.595 24.9741 28.5838 24.9737 28.5726L25.0382 10.2882C25.038 10.2411 25.0618 10.2174 25.1094 10.2172L27.5919 10.2272C27.691 10.2272 27.7405 10.2762 27.7405 10.3743L27.6763 28.5824C27.6763 28.6295 27.6951 28.6748 27.7286 28.7083C27.7622 28.7418 27.8078 28.7608 27.8555 28.7612L31.9809 28.7755C32.1314 28.7758 32.2068 28.7015 32.207 28.5526L32.271 10.3954C32.271 10.2974 32.3206 10.2484 32.4196 10.2484L34.9279 10.2585C35.0077 10.2601 35.0479 10.2996 35.0483 10.3769L34.9848 28.5795C34.9844 28.5984 34.9877 28.6172 34.9946 28.6349C35.0016 28.6525 35.012 28.6686 35.0253 28.6822C35.0386 28.6959 35.0545 28.7067 35.0721 28.7142C35.0897 28.7217 35.1086 28.7257 35.1277 28.7259L39.1647 28.7386C39.2059 28.7383 39.2452 28.7216 39.2743 28.6922C39.3034 28.6627 39.32 28.6228 39.3204 28.5811L39.3841 10.3277C39.3844 10.2769 39.4102 10.2515 39.4616 10.2518L41.9184 10.2617C42.0309 10.2613 42.0873 10.3168 42.0876 10.428L42.0231 28.5654C42.0233 28.5926 42.0289 28.6194 42.0396 28.6444C42.0502 28.6694 42.0658 28.692 42.0853 28.7111C42.1049 28.7301 42.128 28.7452 42.1534 28.7554C42.1788 28.7655 42.206 28.7707 42.2335 28.7705L49.4126 28.798C49.4369 28.7979 49.4609 28.7932 49.4833 28.7841C49.5057 28.775 49.526 28.7618 49.5431 28.7451C49.5602 28.7284 49.5737 28.7086 49.5829 28.6869C49.592 28.6651 49.5967 28.6418 49.5966 28.6183L49.6612 10.4555C49.6594 10.3893 49.6928 10.3564 49.7613 10.3567L52.2012 10.3647C52.3078 10.3656 52.3615 10.4198 52.3623 10.5273L52.3003 28.6678C52.2998 28.689 52.3035 28.7101 52.3114 28.7299C52.3193 28.7496 52.3311 28.7676 52.3461 28.7827C52.3611 28.7979 52.379 28.8099 52.3988 28.8181C52.4186 28.8263 52.4398 28.8305 52.4613 28.8304L56.5039 28.8438C56.529 28.844 56.5539 28.8393 56.5771 28.8301C56.6003 28.8209 56.6214 28.8073 56.6391 28.7901C56.6568 28.7729 56.6708 28.7525 56.6802 28.73C56.6897 28.7075 56.6944 28.6835 56.6942 28.6592L56.7569 10.6347C56.7574 10.6003 56.7716 10.5675 56.7963 10.5434C56.8211 10.5192 56.8544 10.5057 56.8892 10.5056L59.3322 10.5111C59.3815 10.5116 59.4286 10.5316 59.4634 10.5668C59.4983 10.6019 59.5182 10.6495 59.5188 10.6993L59.4564 28.7945C59.456 28.8209 59.461 28.8471 59.471 28.8716C59.4811 28.8961 59.4959 28.9184 59.5148 28.9372C59.5336 28.9559 59.556 28.9708 59.5807 28.9808C59.6054 28.9909 59.6319 28.996 59.6586 28.9958L67.5608 29.0241C67.6599 29.0241 67.7095 28.9751 67.7095 28.8771L67.7725 10.6548C67.7727 10.6142 67.7893 10.5753 67.8189 10.5464C67.8484 10.5176 67.8885 10.501 67.9306 10.5004L70.4991 10.5089C70.5826 10.511 70.6245 10.5525 70.6245 10.6335L70.5598 28.6748C70.5583 28.8348 70.6384 28.9156 70.8001 28.9172L74.6973 28.928C74.8783 28.928 74.9686 28.8403 74.9682 28.665L75.0324 10.4569C75.0323 10.4394 75.0358 10.4221 75.0426 10.4059C75.0494 10.3898 75.0594 10.3751 75.072 10.3629C75.0847 10.3506 75.0996 10.341 75.1161 10.3346C75.1325 10.3281 75.1501 10.325 75.1678 10.3254L77.6365 10.331C77.7527 10.3311 77.8108 10.3886 77.8107 10.5036L77.7442 28.6577C77.7448 28.6954 77.7629 28.7314 77.7946 28.7578C77.8263 28.7842 77.8691 28.7989 77.9135 28.7987L81.9104 28.8124C81.9554 28.8119 81.9984 28.7945 82.0303 28.7638C82.0622 28.7332 82.0804 28.6917 82.0811 28.6482L82.1455 10.3892C82.1449 10.3458 82.1665 10.3238 82.2104 10.3232ZM42.365 48.7256C42.4065 48.7243 42.4458 48.7072 42.4748 48.6778C42.5038 48.6485 42.5202 48.6091 42.5206 48.5681L42.5086 44.9338C42.5087 44.9125 42.5046 44.8914 42.4964 44.8718C42.4882 44.8521 42.476 44.8343 42.4607 44.8194C42.4454 44.8044 42.4272 44.7927 42.4072 44.7848C42.3873 44.777 42.3659 44.7732 42.3444 44.7737L37.704 44.935C37.6625 44.9363 37.6231 44.9534 37.5941 44.9827C37.5651 45.0121 37.5487 45.0514 37.5484 45.0925L37.566 48.7274C37.5665 48.7694 37.5838 48.8095 37.6141 48.8389C37.6444 48.8684 37.6852 48.8847 37.7277 48.8845L42.365 48.7256ZM45.2607 51.0403C45.2149 51.0407 45.1712 51.0592 45.1391 51.0915C45.1071 51.1239 45.0894 51.1675 45.0898 51.2128L45.1271 54.7475C45.1276 54.7927 45.1462 54.836 45.1789 54.8677C45.2116 54.8994 45.2557 54.9169 45.3015 54.9164L49.9749 54.8682C50.0207 54.8678 50.0644 54.8493 50.0965 54.817C50.1285 54.7846 50.1462 54.741 50.1458 54.6957L50.1085 51.1611C50.108 51.1158 50.0894 51.0725 50.0567 51.0408C50.024 51.0091 49.9799 50.9916 49.9341 50.9921L45.2607 51.0403ZM37.6353 38.7835C37.5863 38.784 37.5396 38.8037 37.5053 38.8384C37.471 38.873 37.452 38.9196 37.4525 38.9681L37.4896 42.4789C37.4901 42.5273 37.51 42.5736 37.545 42.6075C37.58 42.6414 37.6272 42.6602 37.6762 42.6597L42.3255 42.6117C42.3745 42.6112 42.4212 42.5915 42.4555 42.5569C42.4898 42.5223 42.5087 42.4756 42.5082 42.4272L42.4712 38.9163C42.4707 38.8679 42.4508 38.8216 42.4158 38.7877C42.3808 38.7538 42.3336 38.7351 42.2846 38.7356L37.6353 38.7835ZM45.3205 44.7459C45.2768 44.7462 45.235 44.7637 45.2044 44.7944C45.1737 44.8252 45.1567 44.8667 45.157 44.9099L45.1819 48.4605C45.1822 48.5037 45.1998 48.545 45.2309 48.5753C45.262 48.6056 45.304 48.6225 45.3477 48.6222L50.0373 48.59C50.0809 48.5897 50.1227 48.5723 50.1534 48.5415C50.184 48.5108 50.2011 48.4692 50.2007 48.426L50.1758 44.8754C50.1755 44.8322 50.1579 44.7909 50.1268 44.7606C50.0957 44.7303 50.0537 44.7134 50.0101 44.7137L45.3205 44.7459ZM45.3582 38.7509C45.3166 38.7506 45.2767 38.7667 45.2471 38.7955C45.2176 38.8244 45.2008 38.8637 45.2005 38.9047L45.1751 42.4712C45.175 42.4916 45.1789 42.5118 45.1866 42.5306C45.1944 42.5495 45.2058 42.5666 45.2202 42.5811C45.2347 42.5956 45.2518 42.6071 45.2708 42.6151C45.2897 42.623 45.3101 42.6271 45.3306 42.6273L49.8917 42.6589C49.9333 42.6592 49.9732 42.6432 50.0028 42.6143C50.0323 42.5855 50.0491 42.5462 50.0494 42.5051L50.0747 38.9386C50.0749 38.9183 50.071 38.8981 50.0633 38.8793C50.0555 38.8604 50.0441 38.8433 50.0297 38.8288C50.0152 38.8143 49.9981 38.8028 49.9791 38.7948C49.9602 38.7869 49.9398 38.7828 49.9193 38.7826L45.3582 38.7509ZM63.9643 54.4357C63.1764 55.0533 62.6689 55.9552 62.5533 56.943C62.4377 57.9308 62.7235 58.9235 63.3479 59.7028C63.9723 60.4821 64.8841 60.9842 65.8827 61.0985C66.8812 61.2129 67.8848 60.9301 68.6727 60.3125C69.4605 59.6949 69.968 58.793 70.0836 57.8052C70.1992 56.8174 69.9134 55.8247 69.289 55.0453C68.6646 54.266 67.7529 53.764 66.7543 53.6497C65.7557 53.5353 64.7521 53.8181 63.9643 54.4357ZM61.7187 35.2054L61.7212 34.1088C61.7221 34.0938 61.7198 34.0788 61.7145 34.0646C61.7091 34.0505 61.7008 34.0375 61.6901 34.0265C61.6794 34.0155 61.6664 34.0067 61.652 34.0006C61.6377 33.9945 61.6221 33.9912 61.6064 33.991L60.3034 33.9889C60.1604 33.9895 60.0884 34.0594 60.0873 34.1988L60.083 35.5299C60.0826 35.7127 59.9951 35.7761 59.8207 35.7204C59.4237 35.5957 58.8075 35.4149 58.3493 35.6424C57.6713 35.9813 57.468 36.563 57.7392 37.3876C58.0435 38.3045 59.0766 38.2446 59.8415 38.1315C59.8671 38.1283 59.893 38.1304 59.9177 38.1375C59.9423 38.1446 59.965 38.1566 59.9842 38.1728C60.0034 38.1889 60.0188 38.2087 60.0292 38.231C60.0396 38.2532 60.0448 38.2774 60.0445 38.3018L60.0044 49.8066C60.0036 49.8951 60.046 49.948 60.1316 49.9653L61.6163 50.271C61.689 50.285 61.7257 50.2562 61.7265 50.1847L61.7633 38.7078C61.7652 38.561 61.8412 38.4896 61.9913 38.4936C62.069 38.4968 62.2834 38.5044 62.6345 38.5163C63.8245 38.5564 64.491 37.7705 64.0902 36.5796C63.8992 36.013 63.3137 35.749 62.3336 35.7876C61.9239 35.8047 61.7189 35.6107 61.7187 35.2054ZM75.1747 54.5007C74.7862 54.8052 74.4622 55.1825 74.2212 55.6108C73.9801 56.0392 73.8267 56.5104 73.7697 56.9974C73.7127 57.4844 73.7533 57.9778 73.889 58.4493C74.0248 58.9208 74.2531 59.3613 74.561 59.7455C75.1827 60.5215 76.0906 61.0215 77.085 61.1353C78.0793 61.2492 79.0787 60.9676 79.8632 60.3526C80.6477 59.7376 81.153 58.8395 81.2681 57.8559C81.3832 56.8723 81.0986 55.8838 80.4769 55.1078C80.169 54.7236 79.7877 54.4031 79.3546 54.1646C78.9215 53.9261 78.4452 53.7744 77.9529 53.718C77.4605 53.6616 76.9618 53.7018 76.4851 53.8361C76.0084 53.9703 75.5631 54.1962 75.1747 54.5007ZM69.1966 50.0703C69.4082 50.07 69.6125 50.05 69.8096 50.0104C69.9523 49.9796 70.0235 49.8916 70.0234 49.7465L70.0653 38.5189C70.0649 38.4895 70.0705 38.4602 70.0819 38.4328C70.0932 38.4055 70.1101 38.3806 70.1314 38.3596C70.1527 38.3386 70.1781 38.322 70.2062 38.3107C70.2342 38.2993 70.2642 38.2935 70.2946 38.2936C71.1204 38.2948 72.2692 38.4433 72.4624 37.3289C72.6253 36.3769 72.2623 35.8152 71.3735 35.6437C71.2227 35.6132 70.8627 35.5965 70.2933 35.5935C70.1545 35.5908 70.0854 35.5216 70.0861 35.386L70.0905 34.151C70.0911 34.0154 70.024 33.938 69.8891 33.9188C69.7804 33.9025 69.5756 33.8942 69.2746 33.8936C68.972 33.891 68.7665 33.8967 68.6582 33.9107C68.5226 33.9291 68.4545 34.0061 68.4539 34.1418L68.4463 35.3792C68.4457 35.5148 68.3758 35.5831 68.2365 35.5842C67.6672 35.5812 67.3074 35.5946 67.1572 35.6246C66.2672 35.7884 65.8999 36.3467 66.0552 37.2993C66.2363 38.4141 67.3869 38.2773 68.2121 38.2841C68.2425 38.2843 68.2725 38.2903 68.3004 38.3018C68.3284 38.3133 68.3537 38.3301 68.3749 38.3512C68.3961 38.3723 68.4128 38.3973 68.4239 38.4248C68.4351 38.4522 68.4406 38.4815 68.44 38.511L68.3723 49.7384C68.3725 49.8836 68.444 49.9728 68.5868 50.0061C68.7839 50.0475 68.9872 50.0689 69.1966 50.0703ZM77.4702 50.0761C77.6833 50.0779 77.8811 50.0647 78.0635 50.0366C78.2246 50.0117 78.3059 49.9192 78.3075 49.7592L78.3282 42.9877C78.3302 42.7259 78.4625 42.5969 78.725 42.6005C79.9753 42.6136 80.6521 42.301 80.7554 41.6626C81.0361 39.9475 79.819 39.9439 78.6007 39.9259C78.4427 39.9248 78.3643 39.8461 78.3654 39.6898L78.4132 34.1031C78.4162 33.996 78.3431 33.9283 78.194 33.8999C78.1715 33.8973 77.9727 33.8944 77.5977 33.891C77.2228 33.8877 77.0246 33.8876 77.0033 33.8908C76.8535 33.917 76.779 33.9839 76.7797 34.0914L76.7376 39.6787C76.7364 39.835 76.6569 39.9126 76.4988 39.9115C75.2817 39.9078 74.0659 39.893 74.3163 41.6123C74.4091 42.2525 75.081 42.5754 76.3322 42.581C76.5952 42.581 76.7256 42.7118 76.7236 42.9736L76.6371 49.7461C76.6355 49.9061 76.7159 50.0001 76.8784 50.0281C77.0597 50.0583 77.257 50.0743 77.4702 50.0761ZM86.1399 54.5603C85.7503 54.8658 85.4252 55.2442 85.1834 55.674C84.9416 56.1037 84.7877 56.5764 84.7305 57.0649C84.6733 57.5535 84.714 58.0485 84.8502 58.5215C84.9864 58.9945 85.2154 59.4364 85.5243 59.8218C85.8331 60.2073 86.2157 60.5288 86.6501 60.7681C87.0846 61.0073 87.5624 61.1595 88.0563 61.2161C88.5502 61.2726 89.0506 61.2324 89.5288 61.0977C90.007 60.9629 90.4537 60.7364 90.8434 60.4309C91.6304 59.8139 92.1374 58.9129 92.2528 57.9262C92.3683 56.9395 92.0828 55.9478 91.4591 55.1693C90.8353 54.3908 89.9245 53.8893 88.927 53.7751C87.9295 53.6609 86.9269 53.9433 86.1399 54.5603ZM85.9887 50.1128C86.2512 50.1165 86.4532 50.1085 86.5946 50.0889C86.7472 50.0705 86.8242 49.9832 86.8253 49.8269L86.8479 43.0386C86.8506 42.7393 87.0017 42.6039 87.3013 42.6325C88.4571 42.7366 89.1084 42.422 89.2552 41.6886C89.4319 40.8136 89.1579 40.2649 88.4332 40.0424C88.0306 39.9172 87.4332 40.0156 87.1023 39.9607C86.9624 39.9353 86.8936 39.8642 86.8958 39.7476L86.9376 34.0896C86.9373 34.0503 86.9186 34.0127 86.8856 33.9846C86.8526 33.9566 86.8078 33.9403 86.7608 33.9393C86.7115 33.9374 86.4983 33.9356 86.1213 33.9339C85.7446 33.9285 85.5314 33.9267 85.4817 33.9286C85.4346 33.9292 85.3897 33.9451 85.3565 33.973C85.3234 34.0009 85.3046 34.0385 85.3042 34.0779L85.251 39.7346C85.2526 39.8516 85.1835 39.921 85.0438 39.9427C84.7118 39.9952 84.116 39.8845 83.7103 40.0049C82.9824 40.2175 82.6995 40.7618 82.8619 41.638C82.9968 42.3734 83.6429 42.6981 84.8 42.6119C85.102 42.5881 85.2516 42.7258 85.249 43.0252L85.1605 49.8144C85.1593 49.9707 85.2348 50.0585 85.3869 50.0778C85.5289 50.1016 85.7295 50.1133 85.9887 50.1128ZM94.1168 50.2377C94.4061 50.2406 94.6007 50.2384 94.7006 50.231C94.8621 50.2193 94.9425 50.1343 94.942 49.9759L94.9527 46.5874C94.9537 46.448 95.0249 46.377 95.1662 46.3744C95.4125 46.3705 95.6667 46.3638 95.9288 46.3542C97.1033 46.3153 97.5784 45.7402 97.354 44.6289C97.2244 43.9939 96.5347 43.6681 95.2848 43.6512C95.085 43.6491 94.9862 43.5492 94.9883 43.3515L95.0195 34.3166C95.018 34.1826 94.9506 34.1071 94.8174 34.0899C94.6916 34.0736 94.4916 34.0649 94.2174 34.0636C93.9431 34.0624 93.7433 34.0687 93.6178 34.0826C93.4844 34.0994 93.4157 34.1735 93.4117 34.305L93.3317 43.3428C93.3316 43.5388 93.2314 43.6376 93.0312 43.6392C91.7812 43.6393 91.0877 43.9566 90.9505 44.5912C90.7105 45.6983 91.1779 46.2796 92.3528 46.3349C92.6144 46.3461 92.8687 46.3544 93.1158 46.3601C93.2562 46.3649 93.3259 46.4369 93.3248 46.5763L93.2941 49.9654C93.2925 50.1254 93.372 50.2118 93.5325 50.2245C93.6323 50.2341 93.8271 50.2384 94.1168 50.2377ZM112.631 35.2418C112.63 35.5338 112.481 35.6685 112.187 35.6461C110.897 35.5522 109.895 35.9124 110.179 37.2963C110.433 38.5411 111.437 38.2404 112.34 38.2929C112.479 38.2993 112.548 38.3714 112.549 38.5091L112.509 49.9432C112.509 49.9788 112.522 50.013 112.545 50.0396C112.568 50.0662 112.6 50.0833 112.635 50.0877L114.003 50.2415C114.017 50.2433 114.031 50.242 114.044 50.2378C114.057 50.2335 114.069 50.2263 114.08 50.2168C114.09 50.2072 114.098 50.1955 114.104 50.1824C114.109 50.1693 114.112 50.1552 114.112 50.1409L114.154 38.6193C114.154 38.5346 114.197 38.4924 114.283 38.4928C114.544 38.4906 114.82 38.4855 115.111 38.4773C116.235 38.4476 116.873 37.7546 116.494 36.6028C116.274 35.9369 115.678 35.6793 114.706 35.8299C114.299 35.8926 114.118 35.7202 114.164 35.3127L114.288 34.2469C114.291 34.2257 114.289 34.2042 114.283 34.1836C114.277 34.163 114.267 34.1438 114.254 34.127C114.24 34.1103 114.224 34.0963 114.205 34.0859C114.186 34.0755 114.165 34.0689 114.144 34.0664L112.734 33.905C112.668 33.8993 112.635 33.9285 112.635 33.9926L112.631 35.2418ZM123.764 54.5849C122.978 55.2012 122.471 56.1012 122.356 57.0869C122.241 58.0726 122.526 59.0632 123.149 59.8409C123.772 60.6185 124.682 61.1195 125.678 61.2336C126.675 61.3477 127.676 61.0655 128.462 60.4492C129.249 59.8329 129.755 58.9329 129.87 57.9472C129.986 56.9615 129.7 55.9709 129.077 55.1933C128.769 54.8082 128.387 54.487 127.953 54.2481C127.519 54.0091 127.041 53.857 126.548 53.8005C126.055 53.744 125.555 53.7842 125.077 53.9188C124.599 54.0534 124.153 54.2797 123.764 54.5849ZM121.701 50.1815C121.916 50.1816 122.124 50.1639 122.325 50.1285C122.465 50.103 122.536 50.0188 122.537 49.8757L122.555 44.3733C122.556 44.2037 122.642 44.1315 122.812 44.1567C123.132 44.2066 123.551 44.1989 124.069 44.1339C125.161 43.9931 125.284 42.3505 124.526 41.7689C124.12 41.4539 123.399 41.4872 122.85 41.512C122.819 41.5135 122.788 41.5088 122.759 41.4983C122.73 41.4877 122.703 41.4716 122.681 41.4508C122.659 41.4299 122.641 41.4049 122.629 41.3772C122.616 41.3495 122.61 41.3196 122.61 41.2895L122.638 34.2134C122.639 34.108 122.586 34.0482 122.479 34.0341C122.336 34.0177 122.123 34.0074 121.839 34.0032C121.556 34.0028 121.342 34.0095 121.2 34.0233C121.091 34.0373 121.037 34.097 121.036 34.2024L120.945 41.277C120.945 41.3073 120.938 41.3371 120.925 41.3647C120.912 41.3923 120.894 41.417 120.871 41.4374C120.848 41.4578 120.821 41.4734 120.792 41.4833C120.762 41.4932 120.731 41.4971 120.7 41.4948C120.155 41.4607 119.432 41.4147 119.021 41.7211C118.254 42.292 118.348 43.9368 119.438 44.0955C119.955 44.1698 120.374 44.1848 120.693 44.1403C120.866 44.1167 120.95 44.1905 120.947 44.3617L120.872 49.8632C120.871 50.0063 120.941 50.0916 121.083 50.1191C121.28 50.1568 121.486 50.1776 121.701 50.1815ZM134.733 54.6364C133.945 55.254 133.438 56.1559 133.322 57.1437C133.206 58.1315 133.492 59.1242 134.117 59.9035C134.741 60.6829 135.653 61.1849 136.651 61.2992C137.65 61.4136 138.654 61.1308 139.441 60.5132C140.229 59.8956 140.737 58.9937 140.852 58.0059C140.968 57.0181 140.682 56.0254 140.058 55.2461C139.433 54.4668 138.522 53.9647 137.523 53.8504C136.524 53.736 135.521 54.0188 134.733 54.6364ZM129.96 50.194C130.322 50.194 130.516 50.1918 130.543 50.1874C130.705 50.1625 130.786 50.0983 130.789 49.995L130.829 48.5747C130.83 48.5451 130.838 48.516 130.851 48.4894C130.864 48.4628 130.883 48.4392 130.906 48.4202C130.929 48.4013 130.955 48.3873 130.984 48.3793C131.013 48.3712 131.043 48.3693 131.073 48.3736C131.618 48.453 132.154 48.4012 132.68 48.2184C132.814 48.172 132.925 48.0762 132.989 47.9512C133.356 47.2205 133.306 46.5692 132.837 45.9972C132.505 45.5888 131.609 45.622 131.042 45.656C131.007 45.6579 130.971 45.6526 130.937 45.6404C130.904 45.6281 130.873 45.6092 130.847 45.5848C130.822 45.5604 130.801 45.531 130.787 45.4984C130.773 45.4658 130.767 45.4308 130.767 45.3955L130.803 34.1164C130.804 33.9808 130.737 33.9034 130.602 33.8841C130.489 33.8712 130.279 33.8651 129.972 33.8658C129.668 33.8648 129.457 33.8709 129.342 33.884C129.208 33.9008 129.142 33.978 129.143 34.1157L129.161 45.3925C129.162 45.4281 129.155 45.4635 129.141 45.4963C129.127 45.5292 129.107 45.5589 129.081 45.5835C129.055 45.6081 129.024 45.6272 128.99 45.6395C128.956 45.6518 128.92 45.657 128.885 45.6549C128.317 45.6182 127.421 45.5863 127.09 45.9923C126.619 46.5641 126.567 47.215 126.933 47.9448C126.997 48.071 127.107 48.1678 127.242 48.2148C127.767 48.3975 128.303 48.4504 128.849 48.3734C128.879 48.3693 128.909 48.3714 128.937 48.3795C128.966 48.3875 128.993 48.4015 129.015 48.4203C129.038 48.4392 129.057 48.4626 129.07 48.489C129.083 48.5154 129.091 48.5442 129.092 48.5737L129.132 49.9918C129.133 50.0956 129.214 50.1605 129.375 50.1864C129.403 50.1915 129.598 50.1941 129.96 50.194ZM141.579 50.4501C141.813 50.4524 142.011 50.4459 142.173 50.4305C142.324 50.4138 142.399 50.331 142.399 50.1821L142.432 41.0654C142.431 41.0275 142.439 40.99 142.455 40.9555C142.471 40.9209 142.494 40.8902 142.524 40.8653C142.553 40.8405 142.587 40.8221 142.625 40.8115C142.662 40.8008 142.701 40.7982 142.739 40.8038C143.016 40.8468 143.374 40.8453 143.812 40.7993C144.827 40.6923 145.118 39.507 144.654 38.7103C144.406 38.2861 143.835 38.0888 142.939 38.1182C142.647 38.1281 142.5 37.9878 142.5 37.6975L142.518 34.389C142.518 34.2778 142.425 34.2172 142.239 34.2073C142.204 34.205 142.004 34.2029 141.64 34.2008C141.276 34.1988 141.077 34.1995 141.042 34.2031C140.855 34.2117 140.761 34.2717 140.761 34.3829L140.754 37.6927C140.751 37.9826 140.604 38.1213 140.314 38.1088C139.417 38.0721 138.843 38.2655 138.591 38.689C138.124 39.4809 138.405 40.6694 139.418 40.7825C139.856 40.8308 140.214 40.836 140.491 40.7979C140.529 40.7926 140.568 40.7953 140.605 40.806C140.642 40.8167 140.677 40.8351 140.706 40.8599C140.735 40.8847 140.758 40.9154 140.774 40.9498C140.79 40.9841 140.798 41.0215 140.798 41.0592L140.76 50.1753C140.759 50.3242 140.835 50.4072 140.985 50.4245C141.147 50.443 141.345 50.4515 141.579 50.4501ZM150.64 45.2423C150.641 44.988 150.769 44.8763 151.022 44.9072C152.188 45.0444 152.858 44.7234 153.033 43.9443C153.14 43.4684 153.041 43.0377 152.735 42.6522C152.349 42.1641 151.378 42.2366 150.846 42.2578C150.828 42.2588 150.809 42.2558 150.792 42.2492C150.774 42.2425 150.758 42.2322 150.745 42.219C150.731 42.2058 150.721 42.19 150.713 42.1724C150.706 42.1549 150.703 42.136 150.703 42.117L150.731 34.402C150.73 34.3247 150.69 34.2852 150.61 34.2836L149.322 34.2803C149.293 34.28 149.264 34.2855 149.237 34.2964C149.21 34.3073 149.186 34.3235 149.165 34.344C149.144 34.3644 149.128 34.3888 149.116 34.4157C149.105 34.4426 149.099 34.4715 149.099 34.5007L149.07 42.0234C149.069 42.2777 148.942 42.3875 148.689 42.3529C147.735 42.2239 146.667 42.4126 146.575 43.5187C146.452 44.9579 147.713 45.1701 148.773 44.9833C148.801 44.9782 148.83 44.9793 148.858 44.9867C148.886 44.9941 148.912 45.0075 148.934 45.026C148.957 45.0445 148.974 45.0675 148.986 45.0936C148.998 45.1196 149.005 45.1479 149.004 45.1766L148.985 50.3C148.985 50.343 149.002 50.3842 149.034 50.4148C149.065 50.4454 149.107 50.4628 149.152 50.4633L150.406 50.4684C150.434 50.4685 150.462 50.463 150.488 50.4523C150.514 50.4416 150.538 50.4259 150.558 50.4061C150.578 50.3863 150.593 50.3627 150.604 50.3368C150.614 50.311 150.62 50.2833 150.619 50.2553L150.64 45.2423Z" fill="url(#paint0_linear_16_783)"/>
<defs>
<linearGradient id="paint0_linear_16_783" x1="85" y1="0" x2="85" y2="66" gradientUnits="userSpaceOnUse">
<stop stop-color="#878787"/>
<stop offset="1" stop-color="#434141"/>
</linearGradient>
</defs>
</svg>
