<svg width="118" height="108" viewBox="0 0 118 108" fill="none" xmlns="http://www.w3.org/2000/svg">
<g clip-path="url(#clip0_17_1488)">
<path d="M12.4302 68.43L15.5902 73.2C15.7835 73.4867 16.0535 73.62 16.4002 73.6L17.3302 73.56" stroke="#ABABAB" stroke-width="2"/>
<path d="M17.3301 73.56C18.0701 73.5733 18.7501 73.9 19.3701 74.54" stroke="#C9C9C9" stroke-width="2"/>
<path d="M19.3701 74.54C20.2168 75.1466 20.9434 75.2566 21.5501 74.87C21.8034 74.7033 22.1001 74.1666 22.4401 73.26C22.9335 71.9266 23.9768 71.35 25.5701 71.53" stroke="#ABABAB" stroke-width="2"/>
<path d="M25.57 71.53C26.1767 72.0633 26.5133 72.7833 26.58 73.69C26.6067 74.0367 26.75 74.3233 27.01 74.55C27.7433 75.1967 28.3033 76.0033 28.69 76.97C29.0033 77.7767 28.9267 78.6633 28.46 79.63C27.59 81.41 27.73 83.62 26.65 85.42C24.15 89.58 19.82 95 23.23 99.75C25.81 103.36 27.97 106.93 33.12 105.86C34.26 105.63 34.86 104.78 35.88 104.3C36.3867 104.053 36.97 103.523 37.63 102.71C40.2167 99.4967 42.1933 96.0567 43.56 92.39C43.644 92.1669 43.773 91.9635 43.9389 91.7923C44.1048 91.6211 44.3041 91.4859 44.5244 91.3949C44.7448 91.304 44.9815 91.2593 45.2198 91.2636C45.4582 91.2679 45.6931 91.3211 45.91 91.42C48.71 92.6933 51.4867 93.5167 54.24 93.89C55.9 94.1167 58.7167 93.9267 62.69 93.32C66.0433 92.8133 69.3933 92.2967 72.74 91.77C74.5667 91.49 78.4467 89.69 84.38 86.37C84.64 86.2233 84.8433 86.28 84.99 86.54C86.9633 89.9067 89.5067 92.8233 92.62 95.29C93.84 96.26 95.16 96.3 96.41 96.84C97.1767 97.1733 98.1267 97.1667 99.26 96.82C104.487 95.2267 106.773 91.4267 106.12 85.42C105.907 83.5 104.493 80.56 101.88 76.6C101.7 76.3267 101.72 76.0667 101.94 75.82C108.493 68.48 112.277 64.05 113.29 62.53C114.263 61.0567 114.697 59.5467 114.59 58C114.383 55.0467 114.307 52.6267 114.36 50.74C114.42 48.4333 114.187 46.8833 113.66 46.09C112.84 44.8633 111.617 43.62 109.99 42.36C105.057 38.5267 100.98 35.6 97.76 33.58C97.7267 33.56 95.5967 32.0067 91.37 28.92C86.27 25.19 81.35 23.84 75.8 21.97C74.12 21.41 73.06 20.43 71.72 19.83C70.84 19.4367 70.02 18.6867 69.26 17.58C68.2667 16.14 67.2367 14.82 66.17 13.62C63.9833 11.1533 62.4267 9.76666 61.5 9.46C55.9533 7.65333 53.1367 6.73666 53.05 6.71C50.7233 5.95 48.6233 5.67333 46.75 5.88C43.46 6.24 40.01 10.11 38.08 12.54C36.0933 15.02 34.6067 16.5567 33.62 17.15C31.4933 18.4233 29.51 19.2933 27.67 19.76C23.9767 20.7 21.95 21.2367 21.59 21.37C18.31 22.53 15.5967 23.4633 13.45 24.17C10.26 25.22 7.88999 26.87 5.39999 28.89C4.74666 29.4233 4.37333 29.8733 4.27999 30.24C3.35999 33.9067 3.18999 37.55 3.76999 41.17C4.54333 45.95 4.93666 48.3867 4.94999 48.48C5.51666 53.5867 6.22333 57.64 7.06999 60.64C7.85666 63.4133 9.64333 66.01 12.43 68.43" stroke="#858585" stroke-width="2"/>
<path d="M25.5701 71.53C24.4768 69.81 24.5235 68.3766 25.7101 67.23C25.9501 66.9966 26.0435 66.7133 25.9901 66.38C25.9101 65.8933 25.5968 65.53 25.0501 65.29" stroke="#313131" stroke-width="2"/>
<path d="M25.0499 65.29L16.8999 61.23" stroke="#181818" stroke-width="2"/>
<path d="M16.8999 61.23L10.8599 53.14" stroke="#202020" stroke-width="2"/>
<path d="M10.8598 53.14L8.67977 49.37C8.19311 48.5234 7.95644 48.59 7.96977 49.57C8.09644 56.5967 10.4764 62.81 15.1098 68.21" stroke="#181818" stroke-width="2"/>
<path d="M15.1102 68.21C15.0368 68.8434 14.8435 69.23 14.5302 69.37C14.2102 69.51 13.9435 69.4467 13.7302 69.18C13.3368 68.7 12.9035 68.45 12.4302 68.43" stroke="#313131" stroke-width="2"/>
<path d="M19.3701 74.54C19.7901 71.9866 21.0867 70.2466 23.2601 69.32C23.5667 69.1866 23.8034 68.9766 23.9701 68.69C24.1767 68.3433 24.3034 68.0066 24.3501 67.68C24.4367 67.16 24.2434 66.7833 23.7701 66.55C23.3367 66.3366 22.9901 66.23 22.7301 66.23C22.2434 66.2366 21.9367 66.4766 21.8101 66.95C21.5767 67.81 21.1267 68.42 20.4601 68.78C19.3601 69.3733 18.7367 69.76 18.5901 69.94C17.8034 70.8933 17.3834 72.1 17.3301 73.56" stroke="#747575" stroke-width="2"/>
<path d="M10.86 53.14C9.93999 57.1267 10.4467 60.8033 12.38 64.17C12.5587 64.4827 12.8225 64.7376 13.1398 64.9042C13.4572 65.0709 13.8148 65.1423 14.17 65.11L16.29 64.92C16.6033 64.8933 16.8267 64.7433 16.96 64.47C17.5133 63.3633 17.4933 62.2833 16.9 61.23" stroke="#2D2D2D" stroke-width="2"/>
<path d="M25.0499 65.29C23.6765 64.73 22.4199 64.6967 21.2799 65.19C20.8732 65.3634 20.6699 65.6734 20.6699 66.12V67.28C20.67 67.4253 20.6408 67.5691 20.584 67.7028C20.5272 67.8365 20.4441 67.9574 20.3395 68.0582C20.235 68.159 20.1111 68.2377 19.9755 68.2896C19.8398 68.3414 19.695 68.3654 19.5499 68.36L15.1099 68.21" stroke="#3D3D3D" stroke-width="2"/>
<path d="M39.79 14.95C38.64 15.81 38.36 17.22 37.29 17.88C36.73 18.22 35.89 18.5433 34.77 18.85C34.5093 18.9228 34.2868 19.0935 34.1489 19.3264C34.011 19.5593 33.9684 19.8364 34.03 20.1C34.17 20.6867 34.15 21.31 33.97 21.97C32.8566 26.0633 30.9366 30.04 28.21 33.9" stroke="#202020" stroke-width="2"/>
<path d="M28.21 33.9L29.12 39.8" stroke="#313131" stroke-width="2"/>
<path d="M29.1201 39.8C29.8468 41.28 30.6401 42.7433 31.5001 44.19C32.1801 45.3367 32.7934 46.14 33.3401 46.6C34.0801 47.2133 34.6768 47.9567 35.1301 48.83C35.2768 49.1233 35.5001 49.34 35.8001 49.48C42.4468 52.7133 48.7034 52.87 54.5701 49.95" stroke="#202020" stroke-width="2"/>
<path d="M54.5698 49.95C55.9232 48.7967 57.0632 47.6467 57.9898 46.5C58.3765 46.02 59.0598 45.3667 60.0398 44.54C62.9665 42.0734 65.3265 39.0467 67.1198 35.46" stroke="#313131" stroke-width="2"/>
<path d="M67.12 35.46C67.18 34.56 67.3066 33.67 67.5 32.79C67.6933 31.89 67.7466 31.01 67.66 30.15C67.44 28.0966 67.3233 25.22 67.31 21.52C67.3033 19.1866 66.2766 17.46 64.23 16.34" stroke="#202020" stroke-width="2"/>
<path d="M64.23 16.34C64.0034 16.16 63.8567 15.9867 63.79 15.82" stroke="#404040" stroke-width="2"/>
<path d="M63.79 15.82L60.67 12.04C60.4634 11.7933 60.2034 11.6333 59.89 11.56C57.75 11.0467 54.5467 10.08 50.28 8.66C48.9667 8.22 47.7267 8.08667 46.56 8.26C45.58 8.4 44.5967 9.01334 43.61 10.1C42.2034 11.6467 40.93 13.2633 39.79 14.95" stroke="#313131" stroke-width="2"/>
<path d="M63.7898 15.82C61.7498 15.0133 59.9131 15.0367 58.2798 15.89" stroke="#656566" stroke-width="2"/>
<path d="M58.2799 15.89C54.3532 14.1967 50.2499 13.13 45.9699 12.69C45.6366 12.6567 45.3999 12.7934 45.2599 13.1C44.3199 15.1 43.8566 17.1967 43.8699 19.39C43.8999 27.68 51.9299 29.94 58.2099 26.43C59.9366 25.4634 61.4566 24.2034 62.7699 22.65" stroke="#4E4E4E" stroke-width="2"/>
<path d="M62.7702 22.65C60.2569 26.6033 57.0469 28.7866 53.1402 29.2C47.6602 29.78 44.1402 27.17 42.5802 21.37C42.2402 20.09 41.9035 18.52 41.5702 16.66C41.2769 15.0133 40.8369 14.9733 40.2502 16.54C38.4235 21.4133 37.0835 25.4166 36.2302 28.55C36.1327 28.9044 36.1285 29.2782 36.2178 29.6355C36.3071 29.9928 36.487 30.3215 36.7402 30.59C41.0802 35.1766 46.3836 37.7466 52.6502 38.3C52.9702 38.3333 53.2602 38.25 53.5202 38.05C56.6402 35.6833 59.3902 32.83 61.7702 29.49C64.1435 26.1633 65.2102 22.35 64.9702 18.05" stroke="#656566" stroke-width="2"/>
<path d="M64.9701 18.05C66.3501 24.17 64.9901 29.8033 60.8901 34.95C59.1601 37.12 55.5201 39.04 53.3301 42.07C53.1167 42.3567 53.1267 42.6367 53.3601 42.91C53.8201 43.4433 54.6201 43.71 55.7601 43.71C56.3934 43.7167 57.0701 43.3833 57.7901 42.71C59.4301 41.1767 61.1901 39.4433 63.0701 37.51C64.1834 36.3767 65.5334 35.6933 67.1201 35.46" stroke="#464646" stroke-width="2"/>
<path d="M54.5702 49.95C49.1235 50.6834 44.0069 49.7067 39.2202 47.02" stroke="#464646" stroke-width="2"/>
<path d="M39.22 47.02C43.68 48.11 47.37 49.21 52.38 49.24C53.5733 49.2467 54.59 48.83 55.43 47.99L56.4 47.02C57.3266 46.0933 57.1366 45.58 55.83 45.48C49.49 45.0067 43.4033 43.2567 37.57 40.23C36.7033 39.7833 34.5833 37.8367 31.21 34.39C30.4633 33.63 29.86 33.73 29.4 34.69C29.3066 34.8967 29.2466 35.1233 29.22 35.37C29.0733 36.7367 29.3 37.7967 29.9 38.55L32.79 42.16" stroke="#656566" stroke-width="2"/>
<path d="M32.7901 42.16C31.7968 42.22 31.1434 41.7034 30.8301 40.61C30.7301 40.2834 30.5201 40.0634 30.2001 39.95C29.8935 39.8367 29.5335 39.7867 29.1201 39.8" stroke="#464646" stroke-width="2"/>
<path d="M28.21 33.9C29.8233 32.74 31.08 32.59 31.98 33.45C32.6133 34.0633 33.3466 34.62 34.18 35.12C34.4733 35.2867 34.62 35.2033 34.62 34.87C34.72 27.7767 36.4433 21.1367 39.79 14.95" stroke="#464646" stroke-width="2"/>
<path d="M39.22 47.02C36.7067 46.0266 34.5634 44.4066 32.79 42.16" stroke="#555555" stroke-width="2"/>
<path d="M58.2798 15.89C59.6198 16.8967 60.8965 17.9767 62.1098 19.13C63.2165 20.1833 63.4365 21.3567 62.7698 22.65" stroke="#5D5D5D" stroke-width="2"/>
<path d="M64.23 16.34C64.2433 16.8133 64.49 17.3833 64.97 18.05" stroke="#555555" stroke-width="2"/>
<path d="M11.1099 49.02L18.3699 58.41" stroke="#5A5A5A" stroke-width="2"/>
<path d="M18.3701 58.41C20.0635 60.2033 22.3935 61.6033 25.3601 62.61C27.9335 63.4833 29.1901 64.9 29.1301 66.86" stroke="#313131" stroke-width="2"/>
<path d="M29.1299 66.86C28.5899 68.7067 28.6799 70.17 29.3999 71.25C30.7532 73.2833 32.1099 75.0933 33.4699 76.68C34.3499 77.7067 34.1732 77.9433 32.9399 77.39C32.3665 77.13 32.0632 77.3 32.0299 77.9" stroke="#181818" stroke-width="2"/>
<path d="M32.0299 77.9C31.6365 78.3467 31.4132 78.78 31.3599 79.2" stroke="#313131" stroke-width="2"/>
<path d="M31.3598 79.2L28.3198 88.9" stroke="#202020" stroke-width="2"/>
<path d="M28.3199 88.9C23.9265 92.7734 23.2432 96.2467 26.2699 99.32" stroke="#313131" stroke-width="2"/>
<path d="M26.27 99.32C27.4634 100.973 28.9367 102.42 30.69 103.66C30.8945 103.807 31.1349 103.897 31.3855 103.922C31.6362 103.947 31.8875 103.906 32.1126 103.802C32.3377 103.698 32.528 103.536 32.6632 103.333C32.7984 103.13 32.8734 102.894 32.88 102.65C32.8867 102.323 33.0867 101.92 33.48 101.44C33.7934 101.06 34.1267 100.773 34.48 100.58C36.8667 99.2533 38.7667 97.31 40.18 94.75" stroke="#4F4F4F" stroke-width="2"/>
<path d="M40.1802 94.75C40.8268 92.0966 41.8868 89.9633 43.3602 88.35" stroke="#313131" stroke-width="2"/>
<path d="M43.3599 88.35C44.3699 88.02 45.6199 87.63 46.5599 88.1C47.3532 88.5066 48.0699 88.68 48.7099 88.62C49.0765 88.5866 49.3399 88.74 49.4999 89.08C50.3299 90.89 52.1799 90.94 53.5799 91.46C55.6199 92.2266 57.6865 92.2333 59.7799 91.48C60.0865 91.3666 60.2799 91.1533 60.3599 90.84L60.5099 90.23" stroke="#202020" stroke-width="2"/>
<path d="M60.5098 90.23L61.1998 90.33" stroke="#474747" stroke-width="2"/>
<path d="M61.2002 90.33C62.2802 90.8367 63.4235 90.92 64.6302 90.58C67.1702 89.87 69.9702 90.06 72.1802 89.37C75.6802 88.2767 78.6702 86.74 81.1502 84.76C81.5569 84.4334 81.8902 84.2434 82.1502 84.19C82.5169 84.11 82.8602 84.03 83.1802 83.95C83.5069 83.8634 83.7802 83.69 84.0002 83.43C84.6469 82.6434 85.4735 82.09 86.4802 81.77" stroke="#202020" stroke-width="2"/>
<path d="M86.48 81.77L87.8 81.11" stroke="#282828" stroke-width="2"/>
<path d="M87.7998 81.11C88.8665 80.33 89.9931 79.6867 91.1798 79.18C92.7531 78.5133 93.9098 77.9633 94.6498 77.53C96.5431 76.41 97.7065 75.77 98.1398 75.61C99.1731 75.2167 100.04 74.5633 100.74 73.65C101.24 72.9967 102.086 72.19 103.28 71.23C104.18 70.4967 104.05 70.08 102.89 69.98C101.943 69.9 101.53 70.44 101.65 71.6C101.683 71.9 101.55 72.0233 101.25 71.97C101.183 71.9567 101.08 71.9 100.94 71.8C100.771 71.6849 100.641 71.5256 100.561 71.3374C100.481 71.1492 100.454 70.9385 100.484 70.7255C100.513 70.5125 100.597 70.3045 100.727 70.1214C100.858 69.9382 101.031 69.7862 101.23 69.68C101.63 69.4733 101.91 69.1067 102.07 68.58C102.143 68.34 102.3 68.2533 102.54 68.32L104.05 68.74C104.336 68.82 104.58 68.7467 104.78 68.52C105.326 67.8733 105.723 67.18 105.97 66.44" stroke="#181818" stroke-width="2"/>
<path d="M105.97 66.44L109 63.32C109.273 63.04 109.217 62.8866 108.83 62.86C107.077 62.7266 105.713 63.0933 104.74 63.96C104.48 64.1866 104.177 64.3266 103.83 64.38L98.71 65.22" stroke="#282828" stroke-width="2"/>
<path d="M98.7098 65.22C97.2831 64.66 95.7098 64.6367 93.9898 65.15C93.6898 65.2367 93.4365 65.1633 93.2298 64.93C92.9631 64.6233 92.7665 64.2567 92.6398 63.83C92.5131 63.4233 92.2265 63.1867 91.7798 63.12L88.9498 62.72C87.2298 62.48 87.1531 62.01 88.7198 61.31C90.6798 60.43 92.2331 60.7733 93.3798 62.34C93.4806 62.4751 93.6084 62.5877 93.7548 62.6703C93.9011 62.753 94.063 62.804 94.2298 62.82C98.1498 63.1733 101.066 63.1267 102.98 62.68C106.553 61.8467 109.533 60.0567 111.92 57.31" stroke="#313131" stroke-width="2"/>
<path d="M111.92 57.31L111.95 49.21C111.953 48.7926 111.851 48.3809 111.654 48.0124C111.456 47.6438 111.17 47.3302 110.82 47.1L97.98 38.67" stroke="#3B3A3B" stroke-width="2"/>
<path d="M97.9802 38.67C96.6202 37.2033 95.0402 35.9933 93.2402 35.04" stroke="#474747" stroke-width="2"/>
<path d="M93.2399 35.04L85.9299 29.3C84.7616 28.3824 83.4193 27.7028 81.9799 27.3L75.1899 25.4" stroke="#5A5A5A" stroke-width="2"/>
<path d="M75.1898 25.4L71.3598 22.25C71.2507 22.1591 71.1181 22.101 70.9773 22.0826C70.8365 22.0641 70.6933 22.086 70.5645 22.1458C70.4356 22.2055 70.3264 22.3005 70.2495 22.4199C70.1725 22.5392 70.131 22.678 70.1298 22.82L69.8398 38.55" stroke="#4F4F4F" stroke-width="2"/>
<path d="M69.84 38.55C68.0267 39.9433 66.58 41.5 65.5 43.22" stroke="#282828" stroke-width="2"/>
<path d="M65.5002 43.22C63.8268 44.8933 62.2468 46.6366 60.7602 48.45C59.6268 49.8366 58.3868 50.94 57.0402 51.76C55.5602 52.66 54.1068 53.53 52.6802 54.37" stroke="#3B3A3B" stroke-width="2"/>
<path d="M52.6799 54.37L37.9399 53.5" stroke="#202020" stroke-width="2"/>
<path d="M37.9401 53.5L35.5801 52.36" stroke="#3B3A3B" stroke-width="2"/>
<path d="M35.5799 52.36L34.6099 52.29" stroke="#474747" stroke-width="2"/>
<path d="M34.6101 52.29C30.8168 48.7233 28.1534 45 26.6201 41.12C25.9734 39.5 25.7834 37.2266 26.0501 34.3C26.3201 31.37 28.3401 29.02 29.7401 26.75C30.1801 26.03 30.5134 25.2433 30.7401 24.39C31.1734 22.7633 31.4168 21.9066 31.4701 21.82C31.6834 21.44 31.6101 21.35 31.2501 21.55C30.6901 21.85 29.4968 22.0933 27.6701 22.28C26.2701 22.4266 25.1368 22.6833 24.2701 23.05C19.1701 25.21 12.6201 26.58 7.50011 30.28C6.62677 30.9133 6.15344 32.02 6.08011 33.6C5.93344 36.9933 6.52011 40.4867 7.84011 44.08C8.15344 44.94 8.63011 45.79 9.27011 46.63C9.87011 47.4167 10.4834 48.2133 11.1101 49.02" stroke="#696969" stroke-width="2"/>
<path d="M34.6099 52.29C34.8632 52.4233 34.9465 52.7266 34.8599 53.2" stroke="#A5A5A5" stroke-width="2"/>
<path d="M34.8599 53.2L32.5999 58.69C32.4465 59.05 32.1732 59.2467 31.7799 59.28L23.8699 59.99C23.6845 60.0052 23.498 59.9837 23.3211 59.927C23.1442 59.8703 22.9804 59.7793 22.8392 59.6594C22.6979 59.5395 22.5819 59.393 22.4979 59.2284C22.414 59.0637 22.3636 58.8841 22.3499 58.7C22.1099 55.5467 21.3499 52.4367 20.0699 49.37C19.9299 49.0367 19.6799 48.8734 19.3199 48.88L11.1099 49.02" stroke="#B8B8B8" stroke-width="2"/>
<path d="M34.8599 53.2L34.8099 57.7C34.8032 58.0333 34.6399 58.24 34.3199 58.32C33.5532 58.52 32.9966 59.0933 32.6499 60.04" stroke="#969696" stroke-width="2"/>
<path d="M29.3001 61.08C25.7534 62.08 22.1101 61.19 18.3701 58.41" stroke="#808080" stroke-width="2"/>
<path d="M69.9699 50.49C69.2299 51.52 68.2299 52.47 67.9199 53.66C67.6799 54.6133 67.2399 55.4733 66.5999 56.24C66.3733 56.5133 66.2999 56.8233 66.3799 57.17C66.8199 59.07 67.9633 60.4367 69.8099 61.27" stroke="#8A898A" stroke-width="2"/>
<path d="M69.8098 61.27C69.5431 63.4633 69.5331 64.9733 69.7798 65.8C70.0598 66.74 69.7431 67.0333 68.8298 66.68C67.3498 66.0933 65.8698 65.7633 64.3898 65.69C63.4965 65.6367 63.0331 65.1667 62.9998 64.28C62.8865 61.2 62.2698 58.3667 61.1498 55.78C60.3165 53.84 59.8698 53.9267 59.8098 56.04C59.7031 60.1933 58.4198 64.6767 55.9598 69.49C55.8883 69.6371 55.7763 69.7611 55.6366 69.8478C55.4968 69.9344 55.3351 69.9803 55.1698 69.98H48.1998C47.8731 69.98 47.6031 69.8033 47.3898 69.45C45.1231 65.69 43.6298 61.8467 42.9098 57.92C42.8878 57.799 42.8211 57.6906 42.7229 57.6165C42.6247 57.5424 42.5022 57.508 42.3798 57.52L40.7798 57.66C40.6077 57.6747 40.4443 57.7421 40.3118 57.8531C40.1794 57.964 40.0844 58.1131 40.0398 58.28L38.5098 63.78C38.3898 64.2 38.1098 64.43 37.6698 64.47L31.4598 65.02C31.1265 65.0533 30.9998 64.9067 31.0798 64.58C31.3198 63.6133 31.7465 62.93 32.3598 62.53C32.4031 62.5023 32.4346 62.4598 32.4476 62.4113C32.4607 62.3629 32.4543 62.3123 32.4298 62.27C32.3831 62.1767 32.3798 62.06 32.4198 61.92C32.5131 61.62 32.4031 61.4533 32.0898 61.42L29.2998 61.08" stroke="#606060" stroke-width="2"/>
<path d="M29.2998 61.08C30.6531 61.0266 31.7698 60.68 32.6498 60.04" stroke="#8A898A" stroke-width="2"/>
<path d="M32.6499 60.04L36.2699 59.85C37.0232 59.81 37.6666 59.5233 38.1999 58.99L39.7699 57.42C39.8858 57.3025 39.9645 57.1536 39.9963 56.9917C40.0281 56.8298 40.0115 56.6621 39.9485 56.5096C39.8856 56.357 39.7791 56.2264 39.6425 56.134C39.5058 56.0416 39.3449 55.9915 39.1799 55.99H35.9999C35.5799 55.99 35.3832 55.7833 35.4099 55.37L35.5799 52.36" stroke="#777677" stroke-width="2"/>
<path d="M37.9399 53.5C40.7266 55.14 42.5999 55.9633 43.5599 55.97C46.1266 55.99 48.6933 55.9933 51.2599 55.98C51.5866 55.98 51.8299 55.8367 51.9899 55.55L52.6799 54.37" stroke="#504F50" stroke-width="2"/>
<path d="M80.9399 63.04C79.4532 65.0066 77.9932 66.2833 76.5599 66.87C71.8332 68.8033 67.1299 70.3966 62.4499 71.65C62.2968 71.6913 62.1365 71.6991 61.9801 71.6727C61.8238 71.6463 61.6749 71.5864 61.5438 71.4971C61.4128 71.4079 61.3025 71.2913 61.2207 71.1554C61.1389 71.0195 61.0875 70.8676 61.0699 70.71C60.8966 69.05 60.2165 67.6833 59.0299 66.61C58.6965 66.31 58.4732 66.3766 58.3599 66.81C57.8732 68.69 56.7632 70.3733 55.0299 71.86C54.8841 71.9875 54.7119 72.081 54.5254 72.134C54.339 72.187 54.1429 72.1982 53.9511 72.1667C53.7593 72.1352 53.5764 72.0618 53.4155 71.9518C53.2545 71.8418 53.1195 71.6978 53.0199 71.53C52.7066 71.01 52.2932 70.7966 51.7799 70.89C51.5732 70.9233 51.1966 71.1433 50.6499 71.55C49.7999 72.18 48.6799 72.43 47.8699 71.6C46.4699 70.1666 45.5132 69.0066 44.9999 68.12C44.2799 66.8533 43.9066 66.95 43.8799 68.41C43.8666 69.4433 43.9266 70.3466 44.0599 71.12C44.1132 71.4466 43.9732 71.6233 43.6399 71.65L38.7499 72.09C38.4472 72.1161 38.1479 72.0306 37.9099 71.85C36.8566 71.07 35.8232 70.2466 34.8099 69.38C34.2299 68.88 33.3032 68.45 32.0299 68.09C30.8965 67.7766 29.9299 67.3666 29.1299 66.86" stroke="#3D3D3D" stroke-width="2"/>
<path d="M79.2901 63.04C77.0301 63 74.7667 62.9767 72.5001 62.97C70.9401 62.97 70.0434 62.4034 69.8101 61.27" stroke="#808080" stroke-width="2"/>
<path d="M92.3298 52.61L91.5098 53.29" stroke="#A5A5A5" stroke-width="2"/>
<path d="M91.5102 53.29C87.7802 51.72 84.5902 52.04 81.6402 54.98C80.4669 56.1533 79.2336 57.2667 77.9402 58.32C77.7269 58.4933 77.5302 58.4767 77.3502 58.27C77.2836 58.1967 77.2269 58.1167 77.1802 58.03C77.0869 57.8633 77.0902 57.6933 77.1902 57.52L80.0902 52.5C80.1683 52.3622 80.1951 52.2013 80.1658 52.0457C80.1365 51.8901 80.053 51.7499 79.9302 51.65C79.6302 51.4033 79.3569 51.41 79.1102 51.67C77.4436 53.4833 75.7602 55.53 74.0602 57.81C73.6385 58.3766 73.0497 58.7959 72.378 59.0078C71.7063 59.2198 70.9861 59.2135 70.3202 58.99C70.1002 58.9167 69.4302 58.69 68.3102 58.31C66.7302 57.7833 66.5002 56.9 67.6202 55.66C68.7469 54.4133 69.5302 52.69 69.9702 50.49" stroke="#B8B8B8" stroke-width="2"/>
<path d="M69.9698 50.49C69.8898 50.2233 69.9131 49.91 70.0398 49.55" stroke="#999899" stroke-width="2"/>
<path d="M73.75 38.32L73.71 39.18" stroke="#999899" stroke-width="2"/>
<path d="M70.0398 44.79L66.0398 54.15C66.027 54.1832 66.0052 54.2121 65.9768 54.2335C65.9484 54.2549 65.9145 54.2679 65.8791 54.271C65.8437 54.2742 65.8081 54.2673 65.7764 54.2512C65.7447 54.2351 65.7181 54.2104 65.6998 54.18C64.9664 53.02 64.1464 51.92 63.2398 50.88C63.1131 50.74 63.0798 50.5766 63.1398 50.39L65.4998 43.22" stroke="#585758" stroke-width="2"/>
<path d="M75.1899 25.4C73.1833 25.7134 73.4966 27.3834 76.1299 30.41" stroke="#9E9E9E" stroke-width="2"/>
<path d="M76.13 30.41C76.9833 34.55 77.2066 38.6666 76.8 42.76C76.7133 43.62 76.4466 43.68 76 42.94L73.71 39.18" stroke="#ADADAD" stroke-width="2"/>
<path d="M73.71 39.18C74.0433 39.8133 74.41 40.12 74.81 40.1C75.1966 40.0733 75.3833 39.8667 75.37 39.48C75.3233 38.2 75.6 37.04 76.2 36C76.3733 35.7 76.4266 35.38 76.36 35.04C76.02 33.1667 75.64 31.8833 75.22 31.19C74.38 29.8233 73.9433 29.93 73.91 31.51L73.75 38.32" stroke="#7E7E7F" stroke-width="2"/>
<path d="M73.75 38.32C73.4234 35.7067 73.1934 33.0967 73.06 30.49C73.0534 30.2967 72.9134 30.1634 72.64 30.09C72.26 29.9834 72.0734 30.13 72.08 30.53C72.0934 31.1234 71.8034 31.7534 71.21 32.42C70.25 33.48 70.25 34.77 71.09 35.89C71.2868 36.1524 71.4141 36.462 71.46 36.79C71.9467 40.3967 72.1534 43.5534 72.08 46.26C72.0667 46.8067 71.74 47.1967 71.1 47.43C70.8 47.5367 70.6 47.7434 70.5 48.05L70.04 49.55" stroke="#ADADAD" stroke-width="2"/>
<path d="M70.04 49.55V44.79" stroke="#7E7E7F" stroke-width="2"/>
<path d="M70.0398 44.79L69.8398 38.55" stroke="#6C6C6C" stroke-width="2"/>
<path d="M100.46 68.96L99.9902 67C99.9035 66.64 100.044 66.4367 100.41 66.39C100.884 66.3367 101.434 66.6267 102.06 67.26C102.68 67.8933 103.37 67.9833 104.13 67.53L105.97 66.44" stroke="#353535" stroke-width="2"/>
<path d="M87.7998 81.11C87.9998 79.45 87.6065 78.0233 86.6198 76.83C86.4065 76.57 86.2931 76.2666 86.2798 75.92C86.2465 74.76 85.8031 73.88 84.9498 73.28C84.0198 72.62 83.7198 71.54 84.1298 70.53C84.1913 70.3801 84.2944 70.251 84.4269 70.1578C84.5593 70.0646 84.7157 70.0111 84.8775 70.0038C85.0393 69.9964 85.1998 70.0355 85.3402 70.1163C85.4806 70.1971 85.5949 70.3163 85.6698 70.46C86.0498 71.22 86.6298 71.8066 87.4098 72.22C87.5446 72.2932 87.659 72.4002 87.7428 72.5311C87.8267 72.6621 87.8772 72.8129 87.8898 72.97C87.9898 74.2633 88.5531 75.02 89.5798 75.24C89.9331 75.3133 90.1865 75.51 90.3398 75.83L90.7798 76.8C90.8998 77.0533 91.0998 77.1666 91.3798 77.14C92.5598 77.04 93.5998 76.56 94.4998 75.7C95.4265 74.8066 95.3031 74.0966 94.1298 73.57C93.6365 73.3433 93.0165 72.9433 92.2698 72.37C91.3798 71.68 91.1198 70.63 90.1598 69.87C89.8731 69.65 89.5998 69.6633 89.3398 69.91C89.1998 70.05 89.0098 70.1233 88.7698 70.13C88.4098 70.15 88.1698 69.9866 88.0498 69.64C87.8298 68.9666 87.4231 68.5333 86.8298 68.34C86.7445 68.3118 86.6659 68.2671 86.5989 68.2087C86.5319 68.1503 86.4778 68.0793 86.4398 68L85.8798 66.79C85.831 66.683 85.7549 66.5902 85.6587 66.5202C85.5624 66.4502 85.4492 66.4054 85.3298 66.39C83.7098 66.2166 82.3665 66.79 81.2998 68.11" stroke="#353535" stroke-width="2"/>
<path d="M81.3 68.11C78.5266 69.9767 76.4433 72.2967 75.05 75.07C75.0016 75.1715 74.9253 75.2571 74.8299 75.3167C74.7346 75.3762 74.6242 75.4073 74.5118 75.4063C74.3994 75.4052 74.2896 75.3721 74.1954 75.3107C74.1011 75.2494 74.0264 75.1624 73.98 75.06L73.4 73.81C72.7133 72.33 72.3133 72.4067 72.2 74.04L71.98 77.29" stroke="#2D2D2D" stroke-width="2"/>
<path d="M71.9801 77.29C70.8935 76.91 69.6968 77.07 68.3901 77.77" stroke="#474747" stroke-width="2"/>
<path d="M68.3902 77.77C67.4369 77.93 66.4202 78.12 65.3402 78.34C60.2802 79.36 54.9902 79.16 51.7402 79.74C50.3002 80 49.0235 79.8767 47.9102 79.37C46.4369 78.6967 45.2202 78.12 44.2602 77.64C43.9469 77.4867 43.6669 77.53 43.4202 77.77C42.3535 78.7967 41.6202 79.8267 41.2202 80.86" stroke="#2D2D2D" stroke-width="2"/>
<path d="M41.2198 80.86C37.9331 80.4067 34.8698 79.42 32.0298 77.9" stroke="#3D3D3D" stroke-width="2"/>
<path d="M97.98 38.67L100.26 49.27" stroke="#777677" stroke-width="2"/>
<path d="M100.26 49.27C99.4665 53.0634 97.3065 55.7434 93.7798 57.31C93.5598 57.41 93.3898 57.3534 93.2698 57.14C92.6965 56.12 91.9065 55.5134 90.8998 55.32C90.5531 55.26 90.3298 55.4 90.2298 55.74C89.3365 58.9867 87.1998 60.9334 83.8198 61.58C83.6872 61.6052 83.5611 61.6572 83.4493 61.7328C83.3376 61.8085 83.2424 61.9062 83.1698 62.02C82.9498 62.3667 82.9698 62.6534 83.2298 62.88" stroke="#6D6D6D" stroke-width="2"/>
<path d="M83.2299 62.88L80.9399 63.04" stroke="#545454" stroke-width="2"/>
<path d="M80.94 63.04H79.29" stroke="#6D6D6D" stroke-width="2"/>
<path d="M79.29 63.04L84.99 60.35C85.2834 60.21 85.5367 60.02 85.75 59.78L91.51 53.29" stroke="#969696" stroke-width="2"/>
<path d="M93.2401 35.04C93.0134 37.0133 93.2501 38.4933 93.9501 39.48C95.0434 41.0133 96.2367 42.41 97.5301 43.67C97.6997 43.8351 97.7993 44.0595 97.8086 44.2974C97.8179 44.5352 97.7362 44.7686 97.5801 44.95C96.9334 45.71 96.3967 46.56 95.9701 47.5C95.0301 49.57 93.8401 51.05 92.3301 52.61" stroke="#969696" stroke-width="2"/>
<path d="M92.3298 52.61C90.3164 47.1167 87.5098 42.1367 83.9098 37.67C83.8298 37.57 83.7998 37.4567 83.8198 37.33C83.8398 37.2234 83.8764 37.1334 83.9298 37.06C84.0898 36.8534 84.2798 36.8234 84.4998 36.97L89.0098 40.09C89.0907 40.1436 89.1855 40.173 89.2827 40.1746C89.3799 40.1762 89.4752 40.1499 89.557 40.0989C89.6387 40.0479 89.7033 39.9746 89.7429 39.8877C89.7825 39.8009 89.7953 39.7044 89.7798 39.61C89.3998 37.31 88.7864 35.2334 87.9398 33.38C87.1064 31.56 85.6031 30.15 83.4298 29.15C80.8631 27.97 78.2531 27.3967 75.5998 27.43C75.2264 27.4367 75.1031 27.6134 75.2298 27.96L76.1298 30.41" stroke="#B8B8B8" stroke-width="2"/>
<path d="M98.71 65.22L100.46 68.96" stroke="#4E4E4E" stroke-width="2"/>
<path d="M100.46 68.96C100.507 69.3333 100.477 69.6466 100.37 69.9C100.23 70.2266 99.9833 70.3666 99.63 70.32C95.3 69.76 88.17 67.25 86.18 62.92C86.0333 62.6066 85.7866 62.4366 85.44 62.41C84.7333 62.37 83.9966 62.5266 83.23 62.88" stroke="#3D3D3D" stroke-width="2"/>
<path d="M40.1799 94.75C38.7866 94.6433 37.5266 94.96 36.3999 95.7" stroke="#747575" stroke-width="2"/>
<path d="M36.4001 95.7C35.7201 94.9467 34.4467 94.2733 32.5801 93.68" stroke="#3D3D3D" stroke-width="2"/>
<path d="M32.58 93.68C33.52 93.4266 34.35 93.3733 35.07 93.52C35.1955 93.545 35.3259 93.5219 35.4352 93.4552C35.5446 93.3885 35.6248 93.2831 35.66 93.16L35.76 92.78C35.8866 92.3466 35.7266 92.08 35.28 91.98C33.6133 91.6 31.9166 91.0333 30.19 90.28C30.0233 90.2066 29.8933 90.19 29.8 90.23C29.7266 90.2566 29.65 90.2866 29.57 90.32C29.21 90.4533 29.12 90.6866 29.3 91.02L29.8 91.97" stroke="#8F8F8F" stroke-width="2"/>
<path d="M29.8002 91.97L28.4902 91.53C28.1169 91.41 27.8469 91.5267 27.6802 91.88C27.4469 92.4 27.6969 93.05 28.4302 93.83" stroke="#3D3D3D" stroke-width="2"/>
<path d="M28.4301 93.83C26.8434 93.7434 26.1234 95.5734 26.2701 99.32" stroke="#747575" stroke-width="2"/>
<path d="M28.3198 88.9C29.7932 89.1734 30.4032 88.2967 30.1498 86.27C30.1219 86.0383 30.1473 85.8033 30.2242 85.5829C30.301 85.3625 30.4273 85.1626 30.5933 84.9986C30.7593 84.8345 30.9606 84.7106 31.1819 84.6363C31.4031 84.562 31.6385 84.5394 31.8698 84.57C34.3765 84.91 36.4698 85.4333 38.1498 86.14C38.254 86.1863 38.3694 86.2009 38.4818 86.1819C38.5942 86.163 38.6985 86.1114 38.7817 86.0335C38.8649 85.9556 38.9234 85.8549 38.9497 85.7441C38.976 85.6332 38.9691 85.517 38.9298 85.41C38.0298 82.7767 36.1898 81.34 33.4098 81.1C32.3098 81 31.4498 80.29 31.3598 79.2" stroke="#464646" stroke-width="2"/>
<path d="M61.2002 90.33C61.9935 90.1634 62.5802 89.3967 62.9602 88.03" stroke="#5C5C5C" stroke-width="2"/>
<path d="M62.96 88.03C63.2 86.47 63.06 84.5534 62.54 82.28C62.4659 81.9466 62.2726 81.6518 61.9963 81.4511C61.72 81.2503 61.3799 81.1575 61.04 81.19L50.48 82.23" stroke="#6F6F6F" stroke-width="2"/>
<path d="M50.4799 82.23L49.1699 82.56C48.7899 82.6466 48.7665 82.7933 49.0999 83C51.9399 84.6933 54.3665 86.7966 56.3799 89.31C56.5932 89.5766 56.8699 89.7333 57.2099 89.78L60.5099 90.23" stroke="#5C5C5C" stroke-width="2"/>
<path d="M43.3602 88.35C43.7535 84.1767 43.0402 81.68 41.2202 80.86" stroke="#464646" stroke-width="2"/>
<path d="M68.3899 77.77C66.9499 79.5766 66.3699 82.01 66.6499 85.07C66.6766 85.3833 66.8432 85.5766 67.1499 85.65C69.0366 86.09 70.8899 86.25 72.7099 86.13C73.0632 86.1033 73.2966 85.9233 73.4099 85.59C73.8233 84.3633 73.9432 83.12 73.7699 81.86C73.7232 81.52 73.5599 81.2566 73.2799 81.07C72.0332 80.23 71.5999 78.97 71.9799 77.29" stroke="#504F50" stroke-width="2"/>
<path d="M86.4801 81.77C85.0135 79.3833 83.3301 77.2333 81.4301 75.32C81.0701 74.96 80.7935 75.0866 80.6001 75.7C80.5291 75.9256 80.5433 76.1678 80.6401 76.38L83.1601 81.8C83.1914 81.87 83.1964 81.9488 83.1744 82.0223C83.1524 82.0957 83.1047 82.1587 83.0401 82.2C82.2868 82.6933 80.7435 83.5766 78.4101 84.85C78.2635 84.9366 78.1701 84.8967 78.1301 84.73C77.1968 80.9167 76.8701 76.9467 77.1501 72.82C77.1701 72.48 77.3168 72.2133 77.5901 72.02C79.0901 70.9533 80.3268 69.65 81.3001 68.11" stroke="#3D3D3D" stroke-width="2"/>
<path d="M111.92 57.31C109.706 58.3167 107.57 59.51 105.51 60.89C104.936 61.2767 104.46 61.2867 104.08 60.92C103.908 60.7575 103.804 60.5355 103.79 60.2983C103.775 60.0611 103.85 59.826 104 59.64C105.66 57.6334 107.203 55.7534 108.63 54C108.776 53.8134 108.84 53.6334 108.82 53.46C108.8 53.2467 108.773 53.09 108.74 52.99C108.633 52.6367 108.42 52.55 108.1 52.73C105.193 54.3434 103.12 56.51 101.88 59.23C101.773 59.4626 101.602 59.6597 101.388 59.7979C101.173 59.9362 100.924 60.0098 100.67 60.01H98.9498C98.2965 60.01 98.0965 59.7067 98.3498 59.1C99.4032 56.5867 100.266 54.3167 100.94 52.29C101.426 50.8167 101.2 49.81 100.26 49.27" stroke="#606060" stroke-width="2"/>
<path d="M32.5798 93.68L29.7998 91.97" stroke="#767676" stroke-width="2"/>
<path d="M36.4002 95.7C33.8602 98.24 30.5302 95.95 28.4302 93.83" stroke="#5B5C5C" stroke-width="2"/>
<path d="M62.96 88.03L50.48 82.23" stroke="#969696" stroke-width="2"/>
<path d="M89.6899 88.75C90.5499 90.6767 91.9299 91.58 93.8299 91.46C94.1766 91.44 94.4666 91.5567 94.6999 91.81C95.9933 93.1833 97.7333 93.6867 99.9199 93.32C100.72 93.18 101.263 93.0267 101.55 92.86C101.89 92.66 102.15 92.2033 102.33 91.49C102.81 89.57 102.903 88.0733 102.61 87C102.243 85.6667 102.03 84.3167 101.97 82.95" stroke="#4F4F4F" stroke-width="2"/>
<path d="M101.97 82.95C102.216 81.5167 101.843 80.2467 100.85 79.14C100.63 78.8933 100.356 78.7733 100.03 78.78C98.5431 78.8 97.4831 78.9867 96.8498 79.34C93.9364 80.9933 90.7731 82.6333 87.3598 84.26C87.0464 84.4067 86.9298 84.6467 87.0098 84.98C87.4031 86.7667 88.2964 88.0233 89.6898 88.75" stroke="#282828" stroke-width="2"/>
<path d="M101.97 82.95C101.41 82.37 100.967 82.5567 100.64 83.51C100.087 85.1367 99.3099 86.05 98.3099 86.25C98.0099 86.31 97.8166 86.4533 97.7299 86.68L97.5899 87.05C97.4833 87.3433 97.2533 87.5667 96.8999 87.72C96.5333 87.8867 95.6466 88.45 94.2399 89.41C93.2066 90.11 91.6899 89.89 89.6899 88.75" stroke="#6C6C6C" stroke-width="2"/>
<path d="M37.6298 27.8C37.5232 28.2866 37.6298 28.7233 37.9498 29.11C41.8498 33.8433 46.6498 36.3 52.3498 36.48C54.3698 36.54 54.6165 35.91 53.0898 34.59C52.3498 33.95 51.1098 32.87 49.9998 32.43C45.8665 30.7966 42.2965 28.67 39.2898 26.05C38.9965 25.7966 38.7098 25.8066 38.4298 26.08C38.0565 26.4466 37.7898 27.02 37.6298 27.8Z" stroke="#838484" stroke-width="2"/>
<path d="M45.6999 48.34L51.0899 48.79C51.4499 48.8167 51.6933 48.6633 51.8199 48.33C51.8733 48.1767 51.8999 48.0367 51.8999 47.91C51.8999 47.57 51.7399 47.34 51.4199 47.22C48.2866 46.06 46.0333 45.31 44.6599 44.97C42.2799 44.3833 40.3533 43.53 38.8799 42.41C35.8333 40.0967 34.1533 38.6867 33.8399 38.18C33.0399 36.8867 31.9799 36.1467 30.6599 35.96C30.533 35.941 30.4034 35.9558 30.2839 36.0029C30.1645 36.05 30.0593 36.1278 29.9786 36.2286C29.8979 36.3295 29.8446 36.4499 29.8238 36.5781C29.803 36.7064 29.8154 36.8379 29.8599 36.96C30.3333 38.2 31.3399 39.5033 32.8799 40.87C33.8266 41.7033 34.8999 42.61 36.0999 43.59C37.5599 44.78 39.3199 45.19 40.4499 46.42C40.7033 46.6867 41.0166 46.84 41.3899 46.88L44.2499 47.14C44.7633 47.1867 45.1266 47.4433 45.3399 47.91L45.4599 48.17C45.5066 48.2767 45.5866 48.3333 45.6999 48.34Z" stroke="#8F8F8F" stroke-width="2"/>
<path d="M58.4201 56.94C56.2868 57.7934 54.7501 58.1967 53.8101 58.15C50.3901 57.9634 47.4134 57.86 44.8801 57.84C44.7063 57.8368 44.536 57.886 44.391 57.9813C44.2459 58.0766 44.1328 58.2137 44.0662 58.3749C43.9995 58.5362 43.9824 58.7142 44.0169 58.8862C44.0515 59.0582 44.1362 59.2162 44.2601 59.34L47.2801 62.36C47.4601 62.54 47.6634 62.58 47.8901 62.48C50.5368 61.3734 54.0834 60.6034 58.5301 60.17C58.6784 60.1585 58.8205 60.1033 58.9394 60.011C59.0583 59.9187 59.1488 59.7934 59.2001 59.65C59.3668 59.17 59.3534 58.4034 59.1601 57.35C59.0801 56.91 58.8334 56.7734 58.4201 56.94Z" stroke="#777677" stroke-width="2"/>
<path d="M95.9601 84.3C97.1268 83.8934 97.9768 83.0634 98.5101 81.81C98.5573 81.6938 98.5733 81.5672 98.5565 81.4429C98.5396 81.3187 98.4906 81.2013 98.4144 81.1027C98.3382 81.0041 98.2375 80.9278 98.1225 80.8817C98.0076 80.8356 97.8825 80.8212 97.7601 80.84C95.1001 81.2267 93.2868 82.7367 92.3201 85.37C92.2925 85.4391 92.281 85.5135 92.2865 85.5878C92.2919 85.6621 92.3141 85.7345 92.3514 85.7996C92.3888 85.8648 92.4404 85.921 92.5024 85.9644C92.5645 86.0077 92.6354 86.0369 92.7101 86.05C94.1034 86.2967 94.9701 85.93 95.3101 84.95C95.4168 84.63 95.6334 84.4134 95.9601 84.3Z" stroke="#777777" stroke-width="2"/>
<path d="M25.57 71.53C24.4767 69.81 24.5233 68.3767 25.71 67.23C25.95 66.9967 26.0433 66.7133 25.99 66.38C25.91 65.8933 25.5967 65.53 25.05 65.29L16.9 61.23L10.86 53.14L8.67999 49.37C8.19333 48.5233 7.95666 48.59 7.96999 49.57C8.09666 56.5967 10.4767 62.81 15.11 68.21C15.0367 68.8433 14.8433 69.23 14.53 69.37C14.21 69.51 13.9433 69.4467 13.73 69.18C13.3367 68.7 12.9033 68.45 12.43 68.43C9.64333 66.01 7.85666 63.4133 7.06999 60.64C6.22333 57.64 5.51666 53.5867 4.94999 48.48C4.93666 48.3867 4.54333 45.95 3.76999 41.17C3.18999 37.55 3.35999 33.9067 4.27999 30.24C4.37333 29.8733 4.74666 29.4233 5.39999 28.89C7.88999 26.87 10.26 25.22 13.45 24.17C15.5967 23.4633 18.31 22.53 21.59 21.37C21.95 21.2367 23.9767 20.7 27.67 19.76C29.51 19.2933 31.4933 18.4233 33.62 17.15C34.6067 16.5567 36.0933 15.02 38.08 12.54C40.01 10.11 43.46 6.24 46.75 5.88C48.6233 5.67333 50.7233 5.95 53.05 6.71C53.1367 6.73666 55.9533 7.65333 61.5 9.46C62.4267 9.76666 63.9833 11.1533 66.17 13.62C67.2367 14.82 68.2667 16.14 69.26 17.58C70.02 18.6867 70.84 19.4367 71.72 19.83C73.06 20.43 74.12 21.41 75.8 21.97C81.35 23.84 86.27 25.19 91.37 28.92C95.5967 32.0067 97.7267 33.56 97.76 33.58C100.98 35.6 105.057 38.5267 109.99 42.36C111.617 43.62 112.84 44.8633 113.66 46.09C114.187 46.8833 114.42 48.4333 114.36 50.74C114.307 52.6267 114.383 55.0467 114.59 58C114.697 59.5467 114.263 61.0567 113.29 62.53C112.277 64.05 108.493 68.48 101.94 75.82C101.72 76.0667 101.7 76.3267 101.88 76.6C104.493 80.56 105.907 83.5 106.12 85.42C106.773 91.4267 104.487 95.2267 99.26 96.82C98.1267 97.1667 97.1767 97.1733 96.41 96.84C95.16 96.3 93.84 96.26 92.62 95.29C89.5067 92.8233 86.9633 89.9067 84.99 86.54C84.8433 86.28 84.64 86.2233 84.38 86.37C78.4467 89.69 74.5667 91.49 72.74 91.77C69.3933 92.2967 66.0433 92.8133 62.69 93.32C58.7167 93.9267 55.9 94.1167 54.24 93.89C51.4867 93.5167 48.71 92.6933 45.91 91.42C45.6931 91.3211 45.4582 91.2679 45.2198 91.2636C44.9815 91.2593 44.7448 91.304 44.5244 91.3949C44.3041 91.4859 44.1048 91.6211 43.9389 91.7923C43.773 91.9635 43.644 92.1669 43.56 92.39C42.1933 96.0567 40.2167 99.4967 37.63 102.71C36.97 103.523 36.3867 104.053 35.88 104.3C34.86 104.78 34.26 105.63 33.12 105.86C27.97 106.93 25.81 103.36 23.23 99.75C19.82 95 24.15 89.58 26.65 85.42C27.73 83.62 27.59 81.41 28.46 79.63C28.9267 78.6633 29.0033 77.7767 28.69 76.97C28.3033 76.0033 27.7433 75.1967 27.01 74.55C26.75 74.3233 26.6067 74.0367 26.58 73.69C26.5133 72.7833 26.1767 72.0633 25.57 71.53ZM39.79 14.95C38.64 15.81 38.36 17.22 37.29 17.88C36.73 18.22 35.89 18.5433 34.77 18.85C34.5093 18.9228 34.2868 19.0935 34.149 19.3264C34.0111 19.5593 33.9685 19.8364 34.03 20.1C34.17 20.6867 34.15 21.31 33.97 21.97C32.8567 26.0633 30.9367 30.04 28.21 33.9L29.12 39.8C29.8467 41.28 30.64 42.7433 31.5 44.19C32.18 45.3367 32.7933 46.14 33.34 46.6C34.08 47.2133 34.6767 47.9567 35.13 48.83C35.2767 49.1233 35.5 49.34 35.8 49.48C42.4467 52.7133 48.7033 52.87 54.57 49.95C55.9233 48.7967 57.0633 47.6467 57.99 46.5C58.3767 46.02 59.06 45.3667 60.04 44.54C62.9667 42.0733 65.3267 39.0467 67.12 35.46C67.18 34.56 67.3067 33.67 67.5 32.79C67.6933 31.89 67.7467 31.01 67.66 30.15C67.44 28.0967 67.3233 25.22 67.31 21.52C67.3033 19.1867 66.2767 17.46 64.23 16.34C64.0033 16.16 63.8567 15.9867 63.79 15.82L60.67 12.04C60.4633 11.7933 60.2033 11.6333 59.89 11.56C57.75 11.0467 54.5467 10.08 50.28 8.66C48.9667 8.22 47.7267 8.08666 46.56 8.26C45.58 8.4 44.5967 9.01333 43.61 10.1C42.2033 11.6467 40.93 13.2633 39.79 14.95ZM11.11 49.02L18.37 58.41C20.0633 60.2033 22.3933 61.6033 25.36 62.61C27.9333 63.4833 29.19 64.9 29.13 66.86C28.59 68.7067 28.68 70.17 29.4 71.25C30.7533 73.2833 32.11 75.0933 33.47 76.68C34.35 77.7067 34.1733 77.9433 32.94 77.39C32.3667 77.13 32.0633 77.3 32.03 77.9C31.6367 78.3467 31.4133 78.78 31.36 79.2L28.32 88.9C23.9267 92.7733 23.2433 96.2467 26.27 99.32C27.4633 100.973 28.9367 102.42 30.69 103.66C30.8945 103.807 31.1349 103.897 31.3855 103.922C31.6361 103.947 31.8875 103.906 32.1126 103.802C32.3377 103.698 32.528 103.536 32.6632 103.333C32.7984 103.13 32.8734 102.894 32.88 102.65C32.8867 102.323 33.0867 101.92 33.48 101.44C33.7933 101.06 34.1267 100.773 34.48 100.58C36.8667 99.2533 38.7667 97.31 40.18 94.75C40.8267 92.0967 41.8867 89.9633 43.36 88.35C44.37 88.02 45.62 87.63 46.56 88.1C47.3533 88.5067 48.07 88.68 48.71 88.62C49.0767 88.5867 49.34 88.74 49.5 89.08C50.33 90.89 52.18 90.94 53.58 91.46C55.62 92.2267 57.6867 92.2333 59.78 91.48C60.0867 91.3667 60.28 91.1533 60.36 90.84L60.51 90.23L61.2 90.33C62.28 90.8367 63.4233 90.92 64.63 90.58C67.17 89.87 69.97 90.06 72.18 89.37C75.68 88.2767 78.67 86.74 81.15 84.76C81.5567 84.4333 81.89 84.2433 82.15 84.19C82.5167 84.11 82.86 84.03 83.18 83.95C83.5067 83.8633 83.78 83.69 84 83.43C84.6467 82.6433 85.4733 82.09 86.48 81.77L87.8 81.11C88.8667 80.33 89.9933 79.6867 91.18 79.18C92.7533 78.5133 93.91 77.9633 94.65 77.53C96.5433 76.41 97.7067 75.77 98.14 75.61C99.1733 75.2167 100.04 74.5633 100.74 73.65C101.24 72.9967 102.087 72.19 103.28 71.23C104.18 70.4967 104.05 70.08 102.89 69.98C101.943 69.9 101.53 70.44 101.65 71.6C101.683 71.9 101.55 72.0233 101.25 71.97C101.183 71.9567 101.08 71.9 100.94 71.8C100.772 71.6849 100.641 71.5256 100.561 71.3374C100.481 71.1492 100.455 70.9385 100.484 70.7255C100.513 70.5126 100.597 70.3045 100.728 70.1214C100.858 69.9382 101.031 69.7862 101.23 69.68C101.63 69.4733 101.91 69.1067 102.07 68.58C102.143 68.34 102.3 68.2533 102.54 68.32L104.05 68.74C104.337 68.82 104.58 68.7467 104.78 68.52C105.327 67.8733 105.723 67.18 105.97 66.44L109 63.32C109.273 63.04 109.217 62.8867 108.83 62.86C107.077 62.7267 105.713 63.0933 104.74 63.96C104.48 64.1867 104.177 64.3267 103.83 64.38L98.71 65.22C97.2833 64.66 95.71 64.6367 93.99 65.15C93.69 65.2367 93.4367 65.1633 93.23 64.93C92.9633 64.6233 92.7667 64.2567 92.64 63.83C92.5133 63.4233 92.2267 63.1867 91.78 63.12L88.95 62.72C87.23 62.48 87.1533 62.01 88.72 61.31C90.68 60.43 92.2333 60.7733 93.38 62.34C93.4808 62.4751 93.6086 62.5877 93.755 62.6703C93.9013 62.753 94.0632 62.804 94.23 62.82C98.15 63.1733 101.067 63.1267 102.98 62.68C106.553 61.8467 109.533 60.0567 111.92 57.31L111.95 49.21C111.953 48.7926 111.851 48.3809 111.654 48.0124C111.457 47.6438 111.17 47.3302 110.82 47.1L97.98 38.67C96.62 37.2033 95.04 35.9933 93.24 35.04L85.93 29.3C84.7616 28.3824 83.4194 27.7028 81.98 27.3L75.19 25.4L71.36 22.25C71.2509 22.1591 71.1182 22.1011 70.9774 22.0826C70.8366 22.0642 70.6935 22.0861 70.5646 22.1458C70.4358 22.2055 70.3265 22.3005 70.2496 22.4199C70.1727 22.5392 70.1312 22.678 70.13 22.82L69.84 38.55C68.0267 39.9433 66.58 41.5 65.5 43.22C63.8267 44.8933 62.2467 46.6367 60.76 48.45C59.6267 49.8367 58.3867 50.94 57.04 51.76C55.56 52.66 54.1067 53.53 52.68 54.37L37.94 53.5L35.58 52.36L34.61 52.29C30.8167 48.7233 28.1533 45 26.62 41.12C25.9733 39.5 25.7833 37.2267 26.05 34.3C26.32 31.37 28.34 29.02 29.74 26.75C30.18 26.03 30.5133 25.2433 30.74 24.39C31.1733 22.7633 31.4167 21.9067 31.47 21.82C31.6833 21.44 31.61 21.35 31.25 21.55C30.69 21.85 29.4967 22.0933 27.67 22.28C26.27 22.4267 25.1367 22.6833 24.27 23.05C19.17 25.21 12.62 26.58 7.49999 30.28C6.62666 30.9133 6.15333 32.02 6.07999 33.6C5.93333 36.9933 6.51999 40.4867 7.83999 44.08C8.15333 44.94 8.62999 45.79 9.26999 46.63C9.86999 47.4167 10.4833 48.2133 11.11 49.02ZM89.69 88.75C90.55 90.6767 91.93 91.58 93.83 91.46C94.1767 91.44 94.4667 91.5567 94.7 91.81C95.9933 93.1833 97.7333 93.6867 99.92 93.32C100.72 93.18 101.263 93.0267 101.55 92.86C101.89 92.66 102.15 92.2033 102.33 91.49C102.81 89.57 102.903 88.0733 102.61 87C102.243 85.6667 102.03 84.3167 101.97 82.95C102.217 81.5167 101.843 80.2467 100.85 79.14C100.63 78.8933 100.357 78.7733 100.03 78.78C98.5433 78.8 97.4833 78.9867 96.85 79.34C93.9367 80.9933 90.7733 82.6333 87.36 84.26C87.0467 84.4067 86.93 84.6467 87.01 84.98C87.4033 86.7667 88.2967 88.0233 89.69 88.75Z" fill="#0B0B0B"/>
<path d="M63.79 15.82C61.75 15.0133 59.9133 15.0367 58.28 15.89C54.3533 14.1967 50.25 13.13 45.97 12.69C45.6366 12.6567 45.4 12.7933 45.26 13.1C44.32 15.1 43.8566 17.1967 43.87 19.39C43.9 27.68 51.93 29.94 58.21 26.43C59.9366 25.4633 61.4566 24.2033 62.77 22.65C60.2566 26.6033 57.0466 28.7867 53.14 29.2C47.66 29.78 44.14 27.17 42.58 21.37C42.24 20.09 41.9033 18.52 41.57 16.66C41.2766 15.0133 40.8366 14.9733 40.25 16.54C38.4233 21.4133 37.0833 25.4167 36.23 28.55C36.1325 28.9044 36.1282 29.2782 36.2175 29.6355C36.3069 29.9928 36.4868 30.3215 36.74 30.59C41.08 35.1767 46.3833 37.7467 52.65 38.3C52.97 38.3333 53.26 38.25 53.52 38.05C56.64 35.6833 59.39 32.83 61.77 29.49C64.1433 26.1633 65.21 22.35 64.97 18.05C66.35 24.17 64.99 29.8033 60.89 34.95C59.16 37.12 55.52 39.04 53.33 42.07C53.1166 42.3567 53.1266 42.6367 53.36 42.91C53.82 43.4433 54.62 43.71 55.76 43.71C56.3933 43.7167 57.07 43.3833 57.79 42.71C59.43 41.1767 61.19 39.4433 63.07 37.51C64.1833 36.3767 65.5333 35.6933 67.12 35.46C65.3266 39.0467 62.9666 42.0733 60.04 44.54C59.06 45.3667 58.3766 46.02 57.99 46.5C57.0633 47.6467 55.9233 48.7967 54.57 49.95C49.1233 50.6833 44.0066 49.7067 39.22 47.02C43.68 48.11 47.37 49.21 52.38 49.24C53.5733 49.2467 54.59 48.83 55.43 47.99L56.4 47.02C57.3266 46.0933 57.1366 45.58 55.83 45.48C49.49 45.0067 43.4033 43.2567 37.57 40.23C36.7033 39.7833 34.5833 37.8367 31.21 34.39C30.4633 33.63 29.86 33.73 29.4 34.69C29.3066 34.8967 29.2466 35.1233 29.22 35.37C29.0733 36.7367 29.3 37.7967 29.9 38.55L32.79 42.16C31.7966 42.22 31.1433 41.7033 30.83 40.61C30.73 40.2833 30.52 40.0633 30.2 39.95C29.8933 39.8367 29.5333 39.7867 29.12 39.8L28.21 33.9C29.8233 32.74 31.08 32.59 31.98 33.45C32.6133 34.0633 33.3466 34.62 34.18 35.12C34.4733 35.2867 34.62 35.2033 34.62 34.87C34.72 27.7767 36.4433 21.1367 39.79 14.95C40.93 13.2633 42.2033 11.6467 43.61 10.1C44.5966 9.01334 45.58 8.4 46.56 8.26C47.7266 8.08667 48.9666 8.22 50.28 8.66C54.5466 10.08 57.75 11.0467 59.89 11.56C60.2033 11.6333 60.4633 11.7933 60.67 12.04L63.79 15.82Z" fill="#565656"/>
<path d="M58.2799 15.89C59.6199 16.8967 60.8966 17.9767 62.1099 19.13C63.2166 20.1834 63.4366 21.3567 62.7699 22.65C61.4566 24.2034 59.9366 25.4634 58.2099 26.43C51.9299 29.94 43.8999 27.68 43.8699 19.39C43.8566 17.1967 44.3199 15.1 45.2599 13.1C45.3999 12.7934 45.6366 12.6567 45.9699 12.69C50.2499 13.13 54.3532 14.1967 58.2799 15.89Z" fill="#454545"/>
<path d="M63.7902 15.82C63.8569 15.9867 64.0036 16.16 64.2302 16.34C64.2436 16.8133 64.4902 17.3833 64.9702 18.05C65.2102 22.35 64.1435 26.1633 61.7702 29.49C59.3902 32.83 56.6402 35.6833 53.5202 38.05C53.2602 38.25 52.9702 38.3333 52.6502 38.3C46.3836 37.7467 41.0802 35.1767 36.7402 30.59C36.487 30.3215 36.3071 29.9928 36.2178 29.6355C36.1285 29.2782 36.1327 28.9044 36.2302 28.55C37.0835 25.4167 38.4235 21.4133 40.2502 16.54C40.8369 14.9733 41.2769 15.0133 41.5702 16.66C41.9035 18.52 42.2402 20.09 42.5802 21.37C44.1402 27.17 47.6602 29.78 53.1402 29.2C57.0469 28.7867 60.2569 26.6033 62.7702 22.65C63.4369 21.3567 63.2169 20.1833 62.1102 19.13C60.8969 17.9767 59.6202 16.8967 58.2802 15.89C59.9135 15.0367 61.7502 15.0133 63.7902 15.82ZM37.6302 27.8C37.5235 28.2867 37.6302 28.7233 37.9502 29.11C41.8502 33.8433 46.6502 36.3 52.3502 36.48C54.3702 36.54 54.6169 35.91 53.0902 34.59C52.3502 33.95 51.1102 32.87 50.0002 32.43C45.8669 30.7967 42.2969 28.67 39.2902 26.05C38.9969 25.7967 38.7102 25.8067 38.4302 26.08C38.0569 26.4467 37.7902 27.02 37.6302 27.8Z" fill="#747475"/>
<path d="M39.79 14.95C36.4433 21.1367 34.72 27.7767 34.62 34.87C34.62 35.2033 34.4733 35.2867 34.18 35.12C33.3466 34.62 32.6133 34.0633 31.98 33.45C31.08 32.59 29.8233 32.74 28.21 33.9C30.9366 30.04 32.8566 26.0633 33.97 21.97C34.15 21.31 34.17 20.6867 34.03 20.1C33.9684 19.8364 34.011 19.5593 34.1489 19.3264C34.2868 19.0935 34.5093 18.9228 34.77 18.85C35.89 18.5433 36.73 18.22 37.29 17.88C38.36 17.22 38.64 15.81 39.79 14.95Z" fill="#353535"/>
<path d="M67.1201 35.46C65.5334 35.6934 64.1834 36.3767 63.0701 37.51C61.1901 39.4434 59.4301 41.1767 57.7901 42.71C57.0701 43.3834 56.3934 43.7167 55.7601 43.71C54.6201 43.71 53.8201 43.4434 53.3601 42.91C53.1267 42.6367 53.1167 42.3567 53.3301 42.07C55.5201 39.04 59.1601 37.12 60.8901 34.95C64.9901 29.8034 66.3501 24.17 64.9701 18.05C64.4901 17.3834 64.2434 16.8134 64.2301 16.34C66.2768 17.46 67.3034 19.1867 67.3101 21.52C67.3234 25.22 67.4401 28.0967 67.6601 30.15C67.7468 31.01 67.6934 31.89 67.5001 32.79C67.3067 33.67 67.1801 34.56 67.1201 35.46Z" fill="#353535"/>
<path d="M34.6101 52.29C34.8634 52.4233 34.9468 52.7267 34.8601 53.2L32.6001 58.69C32.4468 59.05 32.1734 59.2466 31.7801 59.28L23.8701 59.99C23.6848 60.0051 23.4983 59.9837 23.3214 59.927C23.1445 59.8702 22.9807 59.7793 22.8394 59.6594C22.6981 59.5395 22.5822 59.393 22.4982 59.2283C22.4142 59.0637 22.3639 58.8841 22.3501 58.7C22.1101 55.5466 21.3501 52.4366 20.0701 49.37C19.9301 49.0366 19.6801 48.8733 19.3201 48.88L11.1101 49.02C10.4834 48.2133 9.87011 47.4167 9.27011 46.63C8.63011 45.79 8.15344 44.94 7.84011 44.08C6.52011 40.4867 5.93344 36.9933 6.08011 33.6C6.15344 32.02 6.62677 30.9133 7.50011 30.28C12.6201 26.58 19.1701 25.21 24.2701 23.05C25.1368 22.6833 26.2701 22.4266 27.6701 22.28C29.4968 22.0933 30.6901 21.85 31.2501 21.55C31.6101 21.35 31.6834 21.44 31.4701 21.82C31.4168 21.9066 31.1734 22.7633 30.7401 24.39C30.5134 25.2433 30.1801 26.03 29.7401 26.75C28.3401 29.02 26.3201 31.37 26.0501 34.3C25.7834 37.2266 25.9734 39.5 26.6201 41.12C28.1534 45 30.8168 48.7233 34.6101 52.29Z" fill="#C7C7C7"/>
<path d="M75.1898 25.4C73.1832 25.7133 73.4965 27.3833 76.1298 30.41C76.9832 34.55 77.2065 38.6666 76.7999 42.76C76.7132 43.62 76.4465 43.68 75.9998 42.94L73.7098 39.18C74.0432 39.8133 74.4098 40.12 74.8098 40.1C75.1965 40.0733 75.3832 39.8666 75.3699 39.48C75.3232 38.2 75.5998 37.04 76.1998 36C76.3732 35.7 76.4265 35.38 76.3598 35.04C76.0198 33.1666 75.6398 31.8833 75.2198 31.19C74.3798 29.8233 73.9432 29.93 73.9099 31.51L73.7498 38.32C73.4232 35.7066 73.1932 33.0966 73.0598 30.49C73.0532 30.2966 72.9132 30.1633 72.6398 30.09C72.2598 29.9833 72.0732 30.13 72.0798 30.53C72.0932 31.1233 71.8032 31.7533 71.2098 32.42C70.2498 33.48 70.2498 34.77 71.0898 35.89C71.2866 36.1523 71.4139 36.462 71.4598 36.79C71.9465 40.3966 72.1532 43.5533 72.0798 46.26C72.0665 46.8066 71.7398 47.1966 71.0998 47.43C70.7998 47.5366 70.5998 47.7433 70.4998 48.05L70.0398 49.55V44.79L69.8398 38.55L70.1298 22.82C70.131 22.678 70.1725 22.5392 70.2495 22.4199C70.3264 22.3005 70.4356 22.2055 70.5645 22.1458C70.6933 22.086 70.8365 22.0641 70.9773 22.0826C71.1181 22.101 71.2507 22.1591 71.3598 22.25L75.1898 25.4Z" fill="#929393"/>
<path d="M93.2399 35.04C93.0133 37.0134 93.2499 38.4934 93.9499 39.48C95.0433 41.0134 96.2366 42.41 97.5299 43.67C97.6995 43.8352 97.7991 44.0596 97.8084 44.2974C97.8177 44.5352 97.736 44.7686 97.5799 44.95C96.9333 45.71 96.3966 46.56 95.9699 47.5C95.0299 49.57 93.8399 51.05 92.3299 52.61C90.3166 47.1167 87.5099 42.1367 83.9099 37.67C83.8299 37.57 83.7999 37.4567 83.8199 37.33C83.8399 37.2234 83.8766 37.1334 83.9299 37.06C84.0899 36.8534 84.2799 36.8234 84.4999 36.97L89.0099 40.09C89.0908 40.1436 89.1857 40.173 89.2829 40.1746C89.3801 40.1762 89.4754 40.1499 89.5571 40.0989C89.6389 40.0479 89.7035 39.9746 89.7431 39.8877C89.7826 39.8009 89.7954 39.7044 89.7799 39.61C89.3999 37.31 88.7866 35.2334 87.9399 33.38C87.1066 31.56 85.6033 30.15 83.4299 29.15C80.8633 27.97 78.2533 27.3967 75.5999 27.43C75.2266 27.4367 75.1033 27.6134 75.2299 27.96L76.1299 30.41C73.4966 27.3834 73.1833 25.7134 75.1899 25.4L81.9799 27.3C83.4193 27.7028 84.7616 28.3824 85.9299 29.3L93.2399 35.04Z" fill="#A9A9A9"/>
<path d="M37.6298 27.8C37.7898 27.02 38.0565 26.4466 38.4298 26.08C38.7098 25.8066 38.9965 25.7966 39.2898 26.05C42.2965 28.67 45.8665 30.7966 49.9998 32.43C51.1098 32.87 52.3498 33.95 53.0898 34.59C54.6165 35.91 54.3698 36.54 52.3498 36.48C46.6498 36.3 41.8498 33.8433 37.9498 29.11C37.6298 28.7233 37.5232 28.2866 37.6298 27.8Z" fill="#929393"/>
<path d="M92.3302 52.61L91.5102 53.29C87.7802 51.72 84.5902 52.04 81.6402 54.98C80.4669 56.1534 79.2336 57.2667 77.9402 58.32C77.7269 58.4934 77.5302 58.4767 77.3502 58.27C77.2836 58.1967 77.2269 58.1167 77.1802 58.03C77.0869 57.8634 77.0902 57.6934 77.1902 57.52L80.0902 52.5C80.1683 52.3623 80.1951 52.2013 80.1658 52.0457C80.1365 51.8902 80.053 51.75 79.9302 51.65C79.6302 51.4034 79.3569 51.41 79.1102 51.67C77.4436 53.4834 75.7602 55.53 74.0602 57.81C73.6385 58.3767 73.0497 58.7959 72.378 59.0079C71.7063 59.2198 70.9861 59.2135 70.3202 58.99C70.1002 58.9167 69.4302 58.69 68.3102 58.31C66.7302 57.7834 66.5002 56.9 67.6202 55.66C68.7469 54.4134 69.5302 52.69 69.9702 50.49C69.8902 50.2234 69.9136 49.91 70.0402 49.55L70.5002 48.05C70.6002 47.7434 70.8002 47.5367 71.1002 47.43C71.7402 47.1967 72.0669 46.8067 72.0802 46.26C72.1536 43.5534 71.9469 40.3967 71.4602 36.79C71.4143 36.462 71.287 36.1524 71.0902 35.89C70.2502 34.77 70.2502 33.48 71.2102 32.42C71.8036 31.7534 72.0936 31.1234 72.0802 30.53C72.0736 30.13 72.2602 29.9834 72.6402 30.09C72.9136 30.1634 73.0536 30.2967 73.0602 30.49C73.1936 33.0967 73.4236 35.7067 73.7502 38.32L73.7102 39.18L76.0002 42.94C76.4469 43.68 76.7136 43.62 76.8002 42.76C77.2069 38.6667 76.9836 34.55 76.1302 30.41L75.2302 27.96C75.1036 27.6134 75.2269 27.4367 75.6002 27.43C78.2536 27.3967 80.8636 27.97 83.4302 29.15C85.6036 30.15 87.1069 31.56 87.9402 33.38C88.7869 35.2334 89.4002 37.31 89.7802 39.61C89.7958 39.7044 89.7829 39.8009 89.7434 39.8877C89.7038 39.9746 89.6392 40.0479 89.5574 40.0989C89.4757 40.1499 89.3804 40.1762 89.2832 40.1746C89.186 40.173 89.0911 40.1436 89.0102 40.09L84.5002 36.97C84.2802 36.8234 84.0902 36.8534 83.9302 37.06C83.8769 37.1334 83.8402 37.2234 83.8202 37.33C83.8002 37.4567 83.8302 37.57 83.9102 37.67C87.5102 42.1367 90.3169 47.1167 92.3302 52.61Z" fill="#C7C7C7"/>
<path d="M73.71 39.18L73.75 38.32L73.91 31.51C73.9433 29.93 74.38 29.8233 75.22 31.19C75.64 31.8833 76.02 33.1667 76.36 35.04C76.4266 35.38 76.3733 35.7 76.2 36C75.6 37.04 75.3233 38.2 75.37 39.48C75.3833 39.8667 75.1966 40.0733 74.81 40.1C74.41 40.12 74.0433 39.8133 73.71 39.18Z" fill="#6A696A"/>
<path d="M39.22 47.02C36.7066 46.0267 34.5633 44.4067 32.79 42.16L29.9 38.55C29.3 37.7967 29.0733 36.7367 29.22 35.37C29.2466 35.1233 29.3066 34.8967 29.4 34.69C29.86 33.73 30.4633 33.63 31.21 34.39C34.5833 37.8367 36.7033 39.7833 37.57 40.23C43.4033 43.2567 49.49 45.0067 55.83 45.48C57.1366 45.58 57.3266 46.0933 56.4 47.02L55.43 47.99C54.59 48.83 53.5733 49.2467 52.38 49.24C47.37 49.21 43.68 48.11 39.22 47.02ZM45.7 48.34L51.09 48.79C51.45 48.8167 51.6933 48.6633 51.82 48.33C51.8733 48.1767 51.9 48.0367 51.9 47.91C51.9 47.57 51.74 47.34 51.42 47.22C48.2866 46.06 46.0333 45.31 44.66 44.97C42.28 44.3833 40.3533 43.53 38.88 42.41C35.8333 40.0967 34.1533 38.6867 33.84 38.18C33.04 36.8867 31.98 36.1467 30.66 35.96C30.533 35.941 30.4034 35.9558 30.284 36.0029C30.1645 36.05 30.0593 36.1278 29.9786 36.2287C29.898 36.3295 29.8446 36.45 29.8238 36.5782C29.803 36.7064 29.8155 36.838 29.86 36.96C30.3333 38.2 31.34 39.5033 32.88 40.87C33.8266 41.7033 34.9 42.61 36.1 43.59C37.56 44.78 39.32 45.19 40.45 46.42C40.7033 46.6867 41.0166 46.84 41.39 46.88L44.25 47.14C44.7633 47.1867 45.1266 47.4433 45.34 47.91L45.46 48.17C45.5066 48.2767 45.5866 48.3333 45.7 48.34Z" fill="#747475"/>
<path d="M97.98 38.67L100.26 49.27C99.4667 53.0633 97.3067 55.7433 93.78 57.31C93.56 57.41 93.39 57.3533 93.27 57.14C92.6967 56.12 91.9067 55.5133 90.9 55.32C90.5534 55.26 90.33 55.4 90.23 55.74C89.3367 58.9866 87.2 60.9333 83.82 61.58C83.6874 61.6051 83.5613 61.6571 83.4496 61.7328C83.3378 61.8085 83.2427 61.9062 83.17 62.02C82.95 62.3666 82.97 62.6533 83.23 62.88L80.94 63.04H79.29L84.99 60.35C85.2834 60.21 85.5367 60.02 85.75 59.78L91.51 53.29L92.33 52.61C93.84 51.05 95.03 49.57 95.97 47.5C96.3967 46.56 96.9334 45.71 97.58 44.95C97.7361 44.7686 97.8178 44.5352 97.8085 44.2974C97.7993 44.0595 97.6997 43.8351 97.53 43.67C96.2367 42.41 95.0434 41.0133 93.95 39.48C93.25 38.4933 93.0134 37.0133 93.24 35.04C95.04 35.9933 96.62 37.2033 97.98 38.67Z" fill="#838383"/>
<path d="M45.4599 48.17L45.3399 47.91C45.1266 47.4433 44.7633 47.1867 44.2499 47.14L41.3899 46.88C41.0166 46.84 40.7033 46.6867 40.4499 46.42C39.3199 45.19 37.5599 44.78 36.0999 43.59C34.8999 42.61 33.8266 41.7033 32.8799 40.87C31.3399 39.5033 30.3333 38.2 29.8599 36.96C29.8154 36.8379 29.803 36.7064 29.8238 36.5781C29.8446 36.4499 29.8979 36.3295 29.9786 36.2286C30.0593 36.1278 30.1645 36.05 30.2839 36.0029C30.4034 35.9558 30.533 35.941 30.6599 35.96C31.9799 36.1467 33.0399 36.8867 33.8399 38.18C34.1533 38.6867 35.8333 40.0967 38.8799 42.41C40.3533 43.53 42.2799 44.3833 44.6599 44.97C46.0333 45.31 48.2866 46.06 51.4199 47.22C51.7399 47.34 51.8999 47.57 51.8999 47.91C51.8999 48.0367 51.8733 48.1767 51.8199 48.33C51.6933 48.6633 51.4499 48.8167 51.0899 48.79L45.6999 48.34C45.5866 48.3333 45.5066 48.2767 45.4599 48.17Z" fill="#A9A9A9"/>
<path d="M69.8398 38.55L70.0398 44.79L66.0398 54.15C66.027 54.1832 66.0052 54.2121 65.9768 54.2335C65.9484 54.2549 65.9145 54.2679 65.8791 54.2711C65.8437 54.2742 65.8081 54.2673 65.7764 54.2512C65.7447 54.2351 65.7181 54.2104 65.6998 54.18C64.9664 53.02 64.1464 51.92 63.2398 50.88C63.1131 50.74 63.0798 50.5767 63.1398 50.39L65.4998 43.22C66.5798 41.5 68.0264 39.9433 69.8398 38.55Z" fill="#454545"/>
<path d="M111.92 57.31C109.707 58.3167 107.57 59.51 105.51 60.89C104.937 61.2767 104.46 61.2866 104.08 60.92C103.908 60.7575 103.805 60.5355 103.79 60.2983C103.775 60.0611 103.85 59.826 104 59.64C105.66 57.6333 107.203 55.7533 108.63 54C108.777 53.8133 108.84 53.6333 108.82 53.46C108.8 53.2467 108.773 53.09 108.74 52.99C108.633 52.6367 108.42 52.55 108.1 52.73C105.193 54.3433 103.12 56.51 101.88 59.23C101.773 59.4626 101.602 59.6597 101.388 59.7979C101.173 59.9361 100.924 60.0097 100.67 60.01H98.95C98.2966 60.01 98.0966 59.7066 98.35 59.1C99.4033 56.5867 100.267 54.3167 100.94 52.29C101.427 50.8167 101.2 49.81 100.26 49.27L97.98 38.67L110.82 47.1C111.17 47.3302 111.456 47.6438 111.654 48.0124C111.851 48.3809 111.953 48.7926 111.95 49.21L111.92 57.31Z" fill="#6A696A"/>
<path d="M32.7901 42.16C34.5635 44.4067 36.7068 46.0267 39.2201 47.02C44.0068 49.7067 49.1234 50.6834 54.5701 49.95C48.7034 52.87 42.4468 52.7134 35.8001 49.48C35.5001 49.34 35.2768 49.1234 35.1301 48.83C34.6768 47.9567 34.0801 47.2134 33.3401 46.6C32.7934 46.14 32.1801 45.3367 31.5001 44.19C30.6401 42.7434 29.8468 41.28 29.1201 39.8C29.5335 39.7867 29.8935 39.8367 30.2001 39.95C30.5201 40.0634 30.7301 40.2834 30.8301 40.61C31.1434 41.7034 31.7968 42.22 32.7901 42.16Z" fill="#353535"/>
<path d="M65.4998 43.22L63.1398 50.39C63.0798 50.5766 63.1131 50.74 63.2398 50.88C64.1465 51.92 64.9665 53.02 65.6998 54.18C65.7182 54.2104 65.7447 54.2351 65.7764 54.2512C65.8082 54.2673 65.8437 54.2742 65.8792 54.271C65.9146 54.2679 65.9484 54.2549 65.9768 54.2335C66.0052 54.2121 66.027 54.1832 66.0398 54.15L70.0398 44.79V49.55C69.9131 49.91 69.8898 50.2233 69.9698 50.49C69.2298 51.52 68.2298 52.47 67.9198 53.66C67.6798 54.6133 67.2398 55.4733 66.5998 56.24C66.3731 56.5133 66.2998 56.8233 66.3798 57.17C66.8198 59.07 67.9631 60.4366 69.8098 61.27C69.5431 63.4633 69.5331 64.9733 69.7798 65.8C70.0598 66.74 69.7431 67.0333 68.8298 66.68C67.3498 66.0933 65.8698 65.7633 64.3898 65.69C63.4965 65.6366 63.0331 65.1666 62.9998 64.28C62.8865 61.2 62.2698 58.3666 61.1498 55.78C60.3165 53.84 59.8698 53.9266 59.8098 56.04C59.7031 60.1933 58.4198 64.6766 55.9598 69.49C55.8883 69.6371 55.7763 69.7611 55.6366 69.8477C55.4968 69.9344 55.3351 69.9802 55.1698 69.98H48.1998C47.8731 69.98 47.6031 69.8033 47.3898 69.45C45.1231 65.69 43.6298 61.8466 42.9098 57.92C42.8878 57.7989 42.8211 57.6906 42.7229 57.6165C42.6247 57.5424 42.5022 57.5079 42.3798 57.52L40.7798 57.66C40.6077 57.6747 40.4443 57.7421 40.3118 57.853C40.1794 57.964 40.0844 58.1131 40.0398 58.28L38.5098 63.78C38.3898 64.2 38.1098 64.43 37.6698 64.47L31.4598 65.02C31.1265 65.0533 30.9998 64.9066 31.0798 64.58C31.3198 63.6133 31.7465 62.93 32.3598 62.53C32.4031 62.5022 32.4346 62.4597 32.4476 62.4113C32.4607 62.3629 32.4543 62.3123 32.4298 62.27C32.3831 62.1766 32.3798 62.06 32.4198 61.92C32.5131 61.62 32.4031 61.4533 32.0898 61.42L29.2998 61.08C30.6531 61.0266 31.7698 60.68 32.6498 60.04L36.2698 59.85C37.0231 59.81 37.6665 59.5233 38.1998 58.99L39.7698 57.42C39.8857 57.3025 39.9644 57.1536 39.9962 56.9917C40.028 56.8298 40.0114 56.6621 39.9484 56.5096C39.8855 56.357 39.7791 56.2264 39.6424 56.134C39.5057 56.0416 39.3448 55.9915 39.1798 55.99H35.9998C35.5798 55.99 35.3831 55.7833 35.4098 55.37L35.5798 52.36L37.9398 53.5C40.7265 55.14 42.5998 55.9633 43.5598 55.97C46.1265 55.99 48.6931 55.9933 51.2598 55.98C51.5865 55.98 51.8298 55.8366 51.9898 55.55L52.6798 54.37C54.1065 53.53 55.5598 52.66 57.0398 51.76C58.3865 50.94 59.6265 49.8366 60.7598 48.45C62.2465 46.6366 63.8265 44.8933 65.4998 43.22ZM58.4198 56.94C56.2865 57.7933 54.7498 58.1966 53.8098 58.15C50.3898 57.9633 47.4131 57.86 44.8798 57.84C44.706 57.8367 44.5357 57.8859 44.3907 57.9812C44.2456 58.0766 44.1325 58.2136 44.0659 58.3749C43.9992 58.5361 43.9821 58.7142 44.0166 58.8862C44.0512 59.0581 44.1359 59.2162 44.2598 59.34L47.2798 62.36C47.4598 62.54 47.6631 62.58 47.8898 62.48C50.5365 61.3733 54.0831 60.6033 58.5298 60.17C58.6781 60.1584 58.8202 60.1032 58.9391 60.0109C59.058 59.9187 59.1485 59.7933 59.1998 59.65C59.3665 59.17 59.3531 58.4033 59.1598 57.35C59.0798 56.91 58.8331 56.7733 58.4198 56.94Z" fill="#6A696A"/>
<path d="M111.92 57.31C109.533 60.0567 106.553 61.8467 102.98 62.68C101.066 63.1267 98.1498 63.1734 94.2298 62.82C94.063 62.804 93.9012 62.753 93.7548 62.6704C93.6084 62.5877 93.4807 62.4752 93.3798 62.34C92.2331 60.7734 90.6798 60.43 88.7198 61.31C87.1531 62.01 87.2298 62.48 88.9498 62.72L91.7798 63.12C92.2265 63.1867 92.5131 63.4234 92.6398 63.83C92.7665 64.2567 92.9631 64.6234 93.2298 64.93C93.4365 65.1634 93.6898 65.2367 93.9898 65.15C95.7098 64.6367 97.2831 64.66 98.7098 65.22L100.46 68.96C100.506 69.3334 100.476 69.6467 100.37 69.9C100.23 70.2267 99.9831 70.3667 99.6298 70.32C95.2998 69.76 88.1698 67.25 86.1798 62.92C86.0331 62.6067 85.7865 62.4367 85.4398 62.41C84.7331 62.37 83.9965 62.5267 83.2298 62.88C82.9698 62.6534 82.9498 62.3667 83.1698 62.02C83.2424 61.9062 83.3376 61.8085 83.4493 61.7328C83.5611 61.6572 83.6872 61.6052 83.8198 61.58C87.1998 60.9334 89.3365 58.9867 90.2298 55.74C90.3298 55.4 90.5531 55.26 90.8998 55.32C91.9065 55.5134 92.6965 56.12 93.2698 57.14C93.3898 57.3534 93.5598 57.41 93.7798 57.31C97.3065 55.7434 99.4665 53.0634 100.26 49.27C101.2 49.81 101.426 50.8167 100.94 52.29C100.266 54.3167 99.4031 56.5867 98.3498 59.1C98.0965 59.7067 98.2965 60.01 98.9498 60.01H100.67C100.924 60.0098 101.173 59.9362 101.388 59.7979C101.602 59.6597 101.773 59.4626 101.88 59.23C103.12 56.51 105.193 54.3434 108.1 52.73C108.42 52.55 108.633 52.6367 108.74 52.99C108.773 53.09 108.8 53.2467 108.82 53.46C108.84 53.6334 108.776 53.8134 108.63 54C107.203 55.7534 105.66 57.6334 104 59.64C103.85 59.826 103.775 60.0611 103.79 60.2983C103.804 60.5355 103.908 60.7575 104.08 60.92C104.46 61.2867 104.936 61.2767 105.51 60.89C107.57 59.51 109.706 58.3167 111.92 57.31Z" fill="#565656"/>
<path d="M10.8598 53.14C9.93977 57.1267 10.4464 60.8034 12.3798 64.17C12.5585 64.4827 12.8223 64.7376 13.1396 64.9042C13.457 65.0709 13.8145 65.1423 14.1698 65.11L16.2898 64.92C16.6031 64.8934 16.8264 64.7434 16.9598 64.47C17.5131 63.3634 17.4931 62.2834 16.8998 61.23L25.0498 65.29C23.6764 64.73 22.4198 64.6967 21.2798 65.19C20.8731 65.3634 20.6698 65.6734 20.6698 66.12V67.28C20.6699 67.4253 20.6407 67.5691 20.5839 67.7028C20.5272 67.8365 20.444 67.9574 20.3394 68.0582C20.2349 68.159 20.111 68.2377 19.9754 68.2896C19.8397 68.3414 19.6949 68.3654 19.5498 68.36L15.1098 68.21C10.4764 62.81 8.09644 56.5967 7.96977 49.57C7.95644 48.59 8.19311 48.5234 8.67977 49.37L10.8598 53.14Z" fill="#242424"/>
<path d="M34.8599 53.2L34.8099 57.7C34.8032 58.0334 34.6399 58.24 34.3199 58.32C33.5532 58.52 32.9965 59.0934 32.6499 60.04C31.7699 60.68 30.6532 61.0267 29.2999 61.08C25.7532 62.08 22.1099 61.19 18.3699 58.41L11.1099 49.02L19.3199 48.88C19.6799 48.8734 19.9299 49.0367 20.0699 49.37C21.3499 52.4367 22.1099 55.5467 22.3499 58.7C22.3636 58.8841 22.414 59.0637 22.4979 59.2284C22.5819 59.393 22.6979 59.5395 22.8392 59.6594C22.9804 59.7793 23.1442 59.8703 23.3211 59.927C23.498 59.9837 23.6845 60.0052 23.8699 59.99L31.7799 59.28C32.1732 59.2467 32.4465 59.05 32.5999 58.69L34.8599 53.2Z" fill="#A9A9A9"/>
<path d="M69.9699 50.49C69.5299 52.69 68.7466 54.4133 67.6199 55.66C66.4999 56.9 66.7299 57.7833 68.3099 58.31C69.4299 58.69 70.0999 58.9167 70.3199 58.99C70.9858 59.2135 71.706 59.2198 72.3777 59.0078C73.0494 58.7959 73.6382 58.3766 74.0599 57.81C75.7599 55.53 77.4433 53.4833 79.1099 51.67C79.3566 51.41 79.6299 51.4033 79.9299 51.65C80.0527 51.7499 80.1362 51.8901 80.1655 52.0457C80.1948 52.2013 80.168 52.3622 80.0899 52.5L77.1899 57.52C77.0899 57.6933 77.0866 57.8633 77.1799 58.03C77.2266 58.1167 77.2833 58.1967 77.3499 58.27C77.5299 58.4767 77.7266 58.4933 77.9399 58.32C79.2333 57.2667 80.4666 56.1533 81.6399 54.98C84.5899 52.04 87.7799 51.72 91.5099 53.29L85.7499 59.78C85.5366 60.02 85.2833 60.21 84.9899 60.35L79.2899 63.04C77.0299 63 74.7666 62.9767 72.4999 62.97C70.9399 62.97 70.0433 62.4033 69.8099 61.27C67.9633 60.4367 66.8199 59.07 66.3799 57.17C66.2999 56.8233 66.3733 56.5133 66.5999 56.24C67.2399 55.4733 67.6799 54.6133 67.9199 53.66C68.2299 52.47 69.2299 51.52 69.9699 50.49Z" fill="#A9A9A9"/>
<path d="M35.5799 52.36L35.4099 55.37C35.3832 55.7833 35.5799 55.99 35.9999 55.99H39.1799C39.3449 55.9915 39.5058 56.0416 39.6425 56.134C39.7791 56.2264 39.8856 56.357 39.9485 56.5096C40.0115 56.6621 40.0281 56.8298 39.9963 56.9917C39.9645 57.1536 39.8858 57.3025 39.7699 57.42L38.1999 58.99C37.6666 59.5233 37.0232 59.81 36.2699 59.85L32.6499 60.04C32.9966 59.0933 33.5532 58.52 34.3199 58.32C34.6399 58.24 34.8032 58.0333 34.8099 57.7L34.8599 53.2C34.9466 52.7266 34.8632 52.4233 34.6099 52.29L35.5799 52.36Z" fill="#838383"/>
<path d="M10.86 53.14L16.9 61.23C17.4933 62.2833 17.5133 63.3633 16.96 64.47C16.8267 64.7434 16.6033 64.8933 16.29 64.92L14.17 65.11C13.8148 65.1423 13.4572 65.0709 13.1398 64.9042C12.8225 64.7376 12.5587 64.4827 12.38 64.17C10.4467 60.8033 9.93999 57.1267 10.86 53.14Z" fill="#353535"/>
<path d="M52.6799 54.37L51.9899 55.55C51.8299 55.8367 51.5866 55.98 51.2599 55.98C48.6933 55.9933 46.1266 55.99 43.5599 55.97C42.5999 55.9633 40.7266 55.14 37.9399 53.5L52.6799 54.37Z" fill="#353535"/>
<path d="M69.8101 61.27C70.0434 62.4033 70.9401 62.97 72.5001 62.97C74.7668 62.9767 77.0301 63 79.2901 63.04H80.9401C79.4534 65.0067 77.9934 66.2833 76.5601 66.87C71.8334 68.8033 67.1301 70.3967 62.4501 71.65C62.297 71.6913 62.1368 71.6991 61.9804 71.6727C61.824 71.6463 61.6752 71.5864 61.5441 71.4972C61.413 71.4079 61.3028 71.2913 61.221 71.1554C61.1392 71.0196 61.0877 70.8676 61.0701 70.71C60.8968 69.05 60.2168 67.6833 59.0301 66.61C58.6968 66.31 58.4734 66.3767 58.3601 66.81C57.8734 68.69 56.7634 70.3733 55.0301 71.86C54.8843 71.9875 54.7121 72.081 54.5257 72.1341C54.3392 72.1871 54.1431 72.1982 53.9513 72.1667C53.7595 72.1352 53.5766 72.0619 53.4157 71.9518C53.2548 71.8418 53.1197 71.6978 53.0201 71.53C52.7068 71.01 52.2934 70.7967 51.7801 70.89C51.5734 70.9233 51.1968 71.1433 50.6501 71.55C49.8001 72.18 48.6801 72.43 47.8701 71.6C46.4701 70.1667 45.5135 69.0067 45.0001 68.12C44.2801 66.8533 43.9068 66.95 43.8801 68.41C43.8668 69.4433 43.9268 70.3467 44.0601 71.12C44.1135 71.4467 43.9734 71.6233 43.6401 71.65L38.7501 72.09C38.4475 72.1161 38.1481 72.0306 37.9101 71.85C36.8568 71.07 35.8235 70.2467 34.8101 69.38C34.2301 68.88 33.3034 68.45 32.0301 68.09C30.8968 67.7766 29.9301 67.3667 29.1301 66.86C29.1901 64.9 27.9335 63.4833 25.3601 62.61C22.3935 61.6033 20.0635 60.2033 18.3701 58.41C22.1101 61.19 25.7534 62.08 29.3001 61.08L32.0901 61.42C32.4035 61.4533 32.5134 61.62 32.4201 61.92C32.3801 62.06 32.3834 62.1767 32.4301 62.27C32.4546 62.3123 32.461 62.3629 32.4479 62.4113C32.4349 62.4598 32.4034 62.5023 32.3601 62.53C31.7468 62.93 31.3201 63.6133 31.0801 64.58C31.0001 64.9067 31.1268 65.0533 31.4601 65.02L37.6701 64.47C38.1101 64.43 38.3901 64.2 38.5101 63.78L40.0401 58.28C40.0847 58.1131 40.1797 57.964 40.3122 57.8531C40.4446 57.7421 40.608 57.6747 40.7801 57.66L42.3801 57.52C42.5025 57.508 42.625 57.5424 42.7232 57.6165C42.8214 57.6906 42.8881 57.799 42.9101 57.92C43.6301 61.8467 45.1234 65.69 47.3901 69.45C47.6034 69.8033 47.8735 69.98 48.2001 69.98H55.1701C55.3354 69.9803 55.4971 69.9344 55.6369 69.8478C55.7766 69.7611 55.8886 69.6371 55.9601 69.49C58.4201 64.6767 59.7035 60.1933 59.8101 56.04C59.8701 53.9267 60.3168 53.84 61.1501 55.78C62.2701 58.3667 62.8868 61.2 63.0001 64.28C63.0334 65.1667 63.4968 65.6367 64.3901 65.69C65.8701 65.7633 67.3501 66.0933 68.8301 66.68C69.7435 67.0333 70.0601 66.74 69.7801 65.8C69.5334 64.9733 69.5434 63.4633 69.8101 61.27Z" fill="#565656"/>
<path d="M59.1601 57.35C59.3534 58.4034 59.3668 59.17 59.2001 59.65C59.1488 59.7934 59.0583 59.9187 58.9394 60.011C58.8205 60.1033 58.6784 60.1585 58.5301 60.17C54.0834 60.6034 50.5368 61.3734 47.8901 62.48C47.6634 62.58 47.4601 62.54 47.2801 62.36L44.2601 59.34C44.1362 59.2162 44.0515 59.0582 44.0169 58.8862C43.9824 58.7142 43.9995 58.5362 44.0662 58.3749C44.1328 58.2137 44.2459 58.0766 44.391 57.9813C44.536 57.886 44.7063 57.8368 44.8801 57.84C47.4134 57.86 50.3901 57.9634 53.8101 58.15C54.7501 58.1967 56.2868 57.7934 58.4201 56.94C58.8334 56.7734 59.0801 56.91 59.1601 57.35Z" fill="#838383"/>
<path d="M100.46 68.96L99.9899 67C99.9032 66.64 100.043 66.4366 100.41 66.39C100.883 66.3366 101.433 66.6266 102.06 67.26C102.68 67.8933 103.37 67.9833 104.13 67.53L105.97 66.44C105.723 67.18 105.327 67.8733 104.78 68.52C104.58 68.7466 104.337 68.82 104.05 68.74L102.54 68.32C102.3 68.2533 102.143 68.34 102.07 68.58C101.91 69.1066 101.63 69.4733 101.23 69.68C101.031 69.7862 100.858 69.9382 100.727 70.1213C100.597 70.3044 100.513 70.5125 100.484 70.7255C100.455 70.9385 100.481 71.1492 100.561 71.3374C100.641 71.5256 100.771 71.6849 100.94 71.8C101.08 71.9 101.183 71.9566 101.25 71.97C101.55 72.0233 101.683 71.9 101.65 71.6C101.53 70.44 101.943 69.9 102.89 69.98C104.05 70.08 104.18 70.4966 103.28 71.23C102.087 72.19 101.24 72.9966 100.74 73.65C100.04 74.5633 99.1732 75.2166 98.1399 75.61C97.7065 75.77 96.5432 76.41 94.6499 77.53C93.9099 77.9633 92.7532 78.5133 91.1799 79.18C89.9932 79.6866 88.8665 80.33 87.7999 81.11C87.9999 79.45 87.6065 78.0233 86.6199 76.83C86.4065 76.57 86.2932 76.2666 86.2799 75.92C86.2465 74.76 85.8032 73.88 84.9499 73.28C84.0199 72.62 83.7199 71.54 84.1299 70.53C84.1914 70.3801 84.2945 70.251 84.4269 70.1578C84.5594 70.0646 84.7157 70.0111 84.8775 70.0038C85.0393 69.9964 85.1999 70.0355 85.3403 70.1163C85.4806 70.1971 85.595 70.3163 85.6699 70.46C86.0499 71.22 86.6299 71.8066 87.4099 72.22C87.5446 72.2932 87.6591 72.4002 87.7429 72.5311C87.8267 72.6621 87.8772 72.8129 87.8899 72.97C87.9899 74.2633 88.5532 75.02 89.5799 75.24C89.9332 75.3133 90.1865 75.51 90.3399 75.83L90.7799 76.8C90.8999 77.0533 91.0999 77.1666 91.3799 77.14C92.5599 77.04 93.5999 76.56 94.4999 75.7C95.4265 74.8066 95.3032 74.0966 94.1299 73.57C93.6365 73.3433 93.0165 72.9433 92.2699 72.37C91.3799 71.68 91.1199 70.63 90.1599 69.87C89.8732 69.65 89.5999 69.6633 89.3399 69.91C89.1999 70.05 89.0099 70.1233 88.7699 70.13C88.4099 70.15 88.1699 69.9866 88.0499 69.64C87.8299 68.9666 87.4232 68.5333 86.8299 68.34C86.7445 68.3118 86.666 68.2671 86.599 68.2087C86.532 68.1503 86.4778 68.0793 86.4399 68L85.8799 66.79C85.8311 66.683 85.7549 66.5902 85.6587 66.5202C85.5625 66.4502 85.4493 66.4054 85.3299 66.39C83.7099 66.2166 82.3665 66.79 81.2999 68.11C78.5265 69.9766 76.4432 72.2966 75.0499 75.07C75.0015 75.1715 74.9252 75.2571 74.8298 75.3166C74.7345 75.3762 74.6241 75.4073 74.5117 75.4063C74.3992 75.4052 74.2895 75.3721 74.1952 75.3107C74.101 75.2494 74.0263 75.1624 73.9799 75.06L73.3999 73.81C72.7132 72.33 72.3132 72.4066 72.1999 74.04L71.9799 77.29C70.8932 76.91 69.6965 77.07 68.3899 77.77C67.4365 77.93 66.4199 78.12 65.3399 78.34C60.2799 79.36 54.9899 79.16 51.7399 79.74C50.2999 80 49.0232 79.8766 47.9099 79.37C46.4365 78.6966 45.2199 78.12 44.2599 77.64C43.9465 77.4866 43.6665 77.53 43.4199 77.77C42.3532 78.7966 41.6199 79.8266 41.2199 80.86C37.9332 80.4066 34.8699 79.42 32.0299 77.9C32.0632 77.3 32.3665 77.13 32.9399 77.39C34.1732 77.9433 34.3499 77.7066 33.4699 76.68C32.1099 75.0933 30.7532 73.2833 29.3999 71.25C28.6799 70.17 28.5899 68.7066 29.1299 66.86C29.9299 67.3666 30.8965 67.7766 32.0299 68.09C33.3032 68.45 34.2299 68.88 34.8099 69.38C35.8232 70.2466 36.8565 71.07 37.9099 71.85C38.1479 72.0306 38.4472 72.1161 38.7499 72.09L43.6399 71.65C43.9732 71.6233 44.1132 71.4466 44.0599 71.12C43.9265 70.3466 43.8665 69.4433 43.8799 68.41C43.9065 66.95 44.2799 66.8533 44.9999 68.12C45.5132 69.0066 46.4699 70.1666 47.8699 71.6C48.6799 72.43 49.7999 72.18 50.6499 71.55C51.1965 71.1433 51.5732 70.9233 51.7799 70.89C52.2932 70.7966 52.7065 71.01 53.0199 71.53C53.1195 71.6977 53.2545 71.8418 53.4155 71.9518C53.5764 72.0618 53.7592 72.1352 53.9511 72.1667C54.1429 72.1982 54.339 72.187 54.5254 72.134C54.7118 72.081 54.8841 71.9875 55.0299 71.86C56.7632 70.3733 57.8732 68.69 58.3599 66.81C58.4732 66.3766 58.6965 66.31 59.0299 66.61C60.2165 67.6833 60.8965 69.05 61.0699 70.71C61.0874 70.8676 61.1389 71.0195 61.2207 71.1554C61.3025 71.2913 61.4127 71.4079 61.5438 71.4971C61.6749 71.5864 61.8237 71.6463 61.9801 71.6727C62.1365 71.6991 62.2967 71.6913 62.4499 71.65C67.1299 70.3966 71.8332 68.8033 76.5599 66.87C77.9932 66.2833 79.4532 65.0066 80.9399 63.04L83.2299 62.88C83.9965 62.5266 84.7332 62.37 85.4399 62.41C85.7865 62.4366 86.0332 62.6066 86.1799 62.92C88.1699 67.25 95.2999 69.76 99.6299 70.32C99.9832 70.3666 100.23 70.2266 100.37 69.9C100.477 69.6466 100.507 69.3333 100.46 68.96Z" fill="#242424"/>
<path d="M105.97 66.44L104.13 67.53C103.37 67.9833 102.68 67.8933 102.06 67.26C101.433 66.6266 100.883 66.3366 100.41 66.39C100.043 66.4366 99.9033 66.64 99.99 67L100.46 68.96L98.71 65.22L103.83 64.38C104.177 64.3266 104.48 64.1866 104.74 63.96C105.713 63.0933 107.077 62.7266 108.83 62.86C109.217 62.8866 109.273 63.04 109 63.32L105.97 66.44Z" fill="#454545"/>
<path d="M25.0502 65.29C25.5968 65.53 25.9102 65.8934 25.9902 66.38C26.0435 66.7134 25.9502 66.9967 25.7102 67.23C24.5235 68.3767 24.4768 69.81 25.5702 71.53C23.9768 71.35 22.9335 71.9267 22.4402 73.26C22.1002 74.1667 21.8035 74.7034 21.5502 74.87C20.9435 75.2567 20.2168 75.1467 19.3702 74.54C19.7902 71.9867 21.0868 70.2467 23.2602 69.32C23.5668 69.1867 23.8035 68.9767 23.9702 68.69C24.1768 68.3434 24.3035 68.0067 24.3502 67.68C24.4368 67.16 24.2435 66.7834 23.7702 66.55C23.3368 66.3367 22.9902 66.23 22.7302 66.23C22.2435 66.2367 21.9368 66.4767 21.8102 66.95C21.5768 67.81 21.1268 68.42 20.4602 68.78C19.3602 69.3734 18.7368 69.76 18.5902 69.94C17.8035 70.8934 17.3835 72.1 17.3302 73.56L16.4002 73.6C16.0535 73.62 15.7835 73.4867 15.5902 73.2L12.4302 68.43C12.9035 68.45 13.3368 68.7 13.7302 69.18C13.9435 69.4467 14.2102 69.51 14.5302 69.37C14.8435 69.23 15.0368 68.8434 15.1102 68.21L19.5502 68.36C19.6953 68.3654 19.8401 68.3414 19.9758 68.2896C20.1115 68.2377 20.2353 68.159 20.3398 68.0582C20.4444 67.9574 20.5276 67.8365 20.5843 67.7028C20.6411 67.5691 20.6703 67.4253 20.6702 67.28V66.12C20.6702 65.6734 20.8735 65.3634 21.2802 65.19C22.4202 64.6967 23.6768 64.73 25.0502 65.29Z" fill="#565656"/>
<path d="M19.3701 74.54C18.7501 73.9 18.0701 73.5733 17.3301 73.56C17.3834 72.1 17.8034 70.8933 18.5901 69.94C18.7367 69.76 19.3601 69.3733 20.4601 68.78C21.1267 68.42 21.5767 67.81 21.8101 66.95C21.9367 66.4766 22.2434 66.2366 22.7301 66.23C22.9901 66.23 23.3367 66.3366 23.7701 66.55C24.2434 66.7833 24.4367 67.16 24.3501 67.68C24.3034 68.0066 24.1767 68.3433 23.9701 68.69C23.8034 68.9766 23.5667 69.1866 23.2601 69.32C21.0867 70.2466 19.7901 71.9866 19.3701 74.54Z" fill="#929393"/>
<path d="M87.8001 81.11L86.4801 81.77C85.0135 79.3833 83.3301 77.2333 81.4301 75.32C81.0701 74.96 80.7935 75.0866 80.6001 75.7C80.5291 75.9256 80.5433 76.1678 80.6401 76.38L83.1601 81.8C83.1914 81.87 83.1964 81.9488 83.1744 82.0223C83.1524 82.0957 83.1047 82.1587 83.0401 82.2C82.2868 82.6933 80.7435 83.5766 78.4101 84.85C78.2635 84.9366 78.1701 84.8967 78.1301 84.73C77.1968 80.9167 76.8701 76.9466 77.1501 72.82C77.1701 72.48 77.3168 72.2133 77.5901 72.02C79.0901 70.9533 80.3268 69.65 81.3001 68.11C82.3668 66.79 83.7101 66.2166 85.3301 66.39C85.4496 66.4054 85.5628 66.4502 85.659 66.5202C85.7552 66.5902 85.8313 66.683 85.8801 66.79L86.4401 68C86.4781 68.0793 86.5322 68.1503 86.5993 68.2087C86.6663 68.2671 86.7448 68.3118 86.8301 68.34C87.4235 68.5333 87.8301 68.9666 88.0501 69.64C88.1701 69.9866 88.4101 70.15 88.7701 70.13C89.0101 70.1233 89.2001 70.05 89.3401 69.91C89.6001 69.6633 89.8735 69.65 90.1601 69.87C91.1201 70.63 91.3801 71.68 92.2701 72.37C93.0168 72.9433 93.6368 73.3433 94.1301 73.57C95.3035 74.0966 95.4268 74.8066 94.5001 75.7C93.6001 76.56 92.5601 77.04 91.3801 77.14C91.1001 77.1666 90.9001 77.0533 90.7801 76.8L90.3401 75.83C90.1868 75.51 89.9335 75.3133 89.5801 75.24C88.5535 75.02 87.9901 74.2633 87.8901 72.97C87.8775 72.8129 87.827 72.6621 87.7432 72.5311C87.6594 72.4002 87.5449 72.2932 87.4101 72.22C86.6301 71.8066 86.0501 71.22 85.6701 70.46C85.5953 70.3163 85.4809 70.1971 85.3405 70.1163C85.2002 70.0355 85.0396 69.9964 84.8778 70.0038C84.716 70.0111 84.5597 70.0646 84.4272 70.1578C84.2947 70.251 84.1917 70.3801 84.1301 70.53C83.7201 71.54 84.0201 72.62 84.9501 73.28C85.8035 73.88 86.2468 74.76 86.2801 75.92C86.2935 76.2666 86.4068 76.57 86.6201 76.83C87.6068 78.0233 88.0001 79.45 87.8001 81.11Z" fill="#454545"/>
<path d="M81.3002 68.11C80.3269 69.65 79.0902 70.9533 77.5902 72.02C77.3169 72.2133 77.1702 72.48 77.1502 72.82C76.8702 76.9467 77.1969 80.9167 78.1302 84.73C78.1702 84.8967 78.2635 84.9366 78.4102 84.85C80.7435 83.5766 82.2869 82.6933 83.0402 82.2C83.1048 82.1587 83.1524 82.0957 83.1745 82.0223C83.1965 81.9488 83.1914 81.87 83.1602 81.8L80.6402 76.38C80.5434 76.1678 80.5292 75.9256 80.6002 75.7C80.7935 75.0866 81.0702 74.96 81.4302 75.32C83.3302 77.2333 85.0135 79.3833 86.4802 81.77C85.4735 82.09 84.6469 82.6433 84.0002 83.43C83.7802 83.69 83.5069 83.8633 83.1802 83.95C82.8602 84.03 82.5169 84.11 82.1502 84.19C81.8902 84.2433 81.5569 84.4333 81.1502 84.76C78.6702 86.74 75.6802 88.2767 72.1802 89.37C69.9702 90.06 67.1702 89.87 64.6302 90.58C63.4235 90.92 62.2802 90.8367 61.2002 90.33C61.9935 90.1633 62.5802 89.3967 62.9602 88.03C63.2002 86.47 63.0602 84.5533 62.5402 82.28C62.4662 81.9466 62.2728 81.6518 61.9965 81.4511C61.7203 81.2503 61.3802 81.1575 61.0402 81.19L50.4802 82.23L49.1702 82.56C48.7902 82.6466 48.7669 82.7933 49.1002 83C51.9402 84.6933 54.3669 86.7966 56.3802 89.31C56.5935 89.5766 56.8702 89.7333 57.2102 89.78L60.5102 90.23L60.3602 90.84C60.2802 91.1533 60.0869 91.3667 59.7802 91.48C57.6869 92.2333 55.6202 92.2267 53.5802 91.46C52.1802 90.94 50.3302 90.89 49.5002 89.08C49.3402 88.74 49.0769 88.5867 48.7102 88.62C48.0702 88.68 47.3535 88.5066 46.5602 88.1C45.6202 87.63 44.3702 88.02 43.3602 88.35C43.7535 84.1767 43.0402 81.68 41.2202 80.86C41.6202 79.8267 42.3535 78.7966 43.4202 77.77C43.6669 77.53 43.9469 77.4867 44.2602 77.64C45.2202 78.12 46.4369 78.6967 47.9102 79.37C49.0235 79.8767 50.3002 80 51.7402 79.74C54.9902 79.16 60.2802 79.36 65.3402 78.34C66.4202 78.12 67.4369 77.93 68.3902 77.77C66.9502 79.5766 66.3702 82.01 66.6502 85.07C66.6769 85.3833 66.8435 85.5767 67.1502 85.65C69.0369 86.09 70.8902 86.25 72.7102 86.13C73.0635 86.1033 73.2969 85.9233 73.4102 85.59C73.8236 84.3633 73.9435 83.12 73.7702 81.86C73.7235 81.52 73.5602 81.2567 73.2802 81.07C72.0335 80.23 71.6002 78.97 71.9802 77.29L72.2002 74.04C72.3135 72.4067 72.7135 72.33 73.4002 73.81L73.9802 75.06C74.0267 75.1624 74.1014 75.2494 74.1956 75.3107C74.2898 75.3721 74.3996 75.4052 74.512 75.4063C74.6245 75.4073 74.7348 75.3762 74.8302 75.3167C74.9255 75.2571 75.0019 75.1715 75.0502 75.07C76.4436 72.2967 78.5269 69.9767 81.3002 68.11Z" fill="#353535"/>
<path d="M71.9799 77.29C71.5999 78.97 72.0332 80.23 73.2799 81.07C73.5599 81.2567 73.7232 81.52 73.7699 81.86C73.9432 83.12 73.8233 84.3634 73.4099 85.59C73.2966 85.9234 73.0632 86.1034 72.7099 86.13C70.8899 86.25 69.0366 86.09 67.1499 85.65C66.8432 85.5767 66.6766 85.3834 66.6499 85.07C66.3699 82.01 66.9499 79.5767 68.3899 77.77C69.6966 77.07 70.8933 76.91 71.9799 77.29Z" fill="#6A696A"/>
<path d="M41.2199 80.86C43.0399 81.68 43.7532 84.1767 43.3599 88.35C41.8865 89.9634 40.8265 92.0967 40.1799 94.75C38.7865 94.6434 37.5265 94.96 36.3999 95.7C35.7199 94.9467 34.4465 94.2734 32.5799 93.68C33.5199 93.4267 34.3499 93.3734 35.0699 93.52C35.1954 93.545 35.3258 93.5219 35.4351 93.4552C35.5445 93.3885 35.6247 93.2831 35.6599 93.16L35.7599 92.78C35.8865 92.3467 35.7265 92.08 35.2799 91.98C33.6132 91.6 31.9165 91.0334 30.1899 90.28C30.0232 90.2067 29.8932 90.19 29.7999 90.23C29.7265 90.2567 29.6499 90.2867 29.5699 90.32C29.2099 90.4534 29.1199 90.6867 29.2999 91.02L29.7999 91.97L28.4899 91.53C28.1165 91.41 27.8465 91.5267 27.6799 91.88C27.4465 92.4 27.6965 93.05 28.4299 93.83C26.8432 93.7434 26.1232 95.5734 26.2699 99.32C23.2432 96.2467 23.9265 92.7734 28.3199 88.9C29.7932 89.1734 30.4032 88.2967 30.1499 86.27C30.1219 86.0383 30.1473 85.8033 30.2242 85.5829C30.3011 85.3625 30.4273 85.1626 30.5933 84.9986C30.7593 84.8345 30.9607 84.7106 31.1819 84.6363C31.4032 84.562 31.6385 84.5394 31.8699 84.57C34.3765 84.91 36.4699 85.4334 38.1499 86.14C38.254 86.1863 38.3695 86.2009 38.4819 86.1819C38.5942 86.163 38.6985 86.1114 38.7818 86.0335C38.865 85.9556 38.9234 85.8549 38.9497 85.7441C38.9761 85.6332 38.9692 85.517 38.9299 85.41C38.0299 82.7767 36.1899 81.34 33.4099 81.1C32.3099 81 31.4499 80.29 31.3599 79.2C31.4132 78.78 31.6365 78.3467 32.0299 77.9C34.8699 79.42 37.9332 80.4067 41.2199 80.86Z" fill="#565656"/>
<path d="M101.97 82.95C101.41 82.37 100.966 82.5567 100.64 83.51C100.086 85.1367 99.3098 86.05 98.3098 86.25C98.0098 86.31 97.8164 86.4533 97.7298 86.68L97.5898 87.05C97.4831 87.3433 97.2531 87.5667 96.8998 87.72C96.5331 87.8867 95.6464 88.45 94.2398 89.41C93.2064 90.11 91.6898 89.89 89.6898 88.75C88.2964 88.0233 87.4031 86.7667 87.0098 84.98C86.9298 84.6467 87.0464 84.4067 87.3598 84.26C90.7731 82.6333 93.9364 80.9933 96.8498 79.34C97.4831 78.9867 98.5431 78.8 100.03 78.78C100.356 78.7733 100.63 78.8933 100.85 79.14C101.843 80.2467 102.216 81.5167 101.97 82.95ZM95.9598 84.3C97.1264 83.8933 97.9764 83.0633 98.5098 81.81C98.5569 81.6938 98.5729 81.5671 98.5561 81.4429C98.5393 81.3186 98.4903 81.2012 98.414 81.1026C98.3378 81.0041 98.2371 80.9278 98.1222 80.8817C98.0072 80.8355 97.8822 80.8211 97.7598 80.84C95.0998 81.2267 93.2864 82.7367 92.3198 85.37C92.2922 85.4391 92.2807 85.5135 92.2861 85.5878C92.2915 85.6621 92.3137 85.7345 92.3511 85.7996C92.3885 85.8647 92.44 85.921 92.5021 85.9643C92.5641 86.0076 92.6351 86.0369 92.7098 86.05C94.1031 86.2967 94.9698 85.93 95.3098 84.95C95.4164 84.63 95.6331 84.4133 95.9598 84.3Z" fill="#454545"/>
<path d="M31.3598 79.2C31.4498 80.29 32.3098 81 33.4098 81.1C36.1898 81.34 38.0298 82.7767 38.9298 85.41C38.9691 85.517 38.976 85.6332 38.9497 85.7441C38.9234 85.8549 38.8649 85.9556 38.7817 86.0335C38.6985 86.1114 38.5942 86.163 38.4818 86.1819C38.3694 86.2009 38.254 86.1863 38.1498 86.14C36.4698 85.4333 34.3765 84.91 31.8698 84.57C31.6385 84.5394 31.4031 84.562 31.1819 84.6363C30.9606 84.7106 30.7593 84.8345 30.5933 84.9986C30.4273 85.1626 30.301 85.3625 30.2242 85.5829C30.1473 85.8033 30.1219 86.0383 30.1498 86.27C30.4032 88.2967 29.7932 89.1734 28.3198 88.9L31.3598 79.2Z" fill="#353535"/>
<path d="M95.3101 84.95C94.9701 85.93 94.1034 86.2967 92.7101 86.05C92.6354 86.0369 92.5645 86.0077 92.5024 85.9644C92.4404 85.921 92.3888 85.8648 92.3514 85.7996C92.3141 85.7345 92.2919 85.6621 92.2865 85.5878C92.281 85.5135 92.2925 85.4391 92.3201 85.37C93.2868 82.7367 95.1001 81.2267 97.7601 80.84C97.8825 80.8212 98.0076 80.8356 98.1225 80.8817C98.2375 80.9278 98.3382 81.0041 98.4144 81.1027C98.4906 81.2013 98.5396 81.3187 98.5565 81.4429C98.5733 81.5672 98.5573 81.6938 98.5101 81.81C97.9768 83.0634 97.1268 83.8934 95.9601 84.3C95.6334 84.4134 95.4168 84.63 95.3101 84.95Z" fill="#A9A9A9"/>
<path d="M62.96 88.03L50.48 82.23L61.04 81.19C61.3799 81.1575 61.72 81.2503 61.9963 81.4511C62.2726 81.6518 62.4659 81.9466 62.54 82.28C63.06 84.5533 63.2 86.47 62.96 88.03Z" fill="#A9A9A9"/>
<path d="M50.4799 82.23L62.9599 88.03C62.5799 89.3966 61.9932 90.1633 61.1999 90.33L60.5099 90.23L57.2099 89.78C56.8699 89.7333 56.5932 89.5766 56.3799 89.31C54.3665 86.7966 51.9399 84.6933 49.0999 83C48.7665 82.7933 48.7899 82.6466 49.1699 82.56L50.4799 82.23Z" fill="#838383"/>
<path d="M101.97 82.95C102.03 84.3167 102.243 85.6667 102.61 87C102.903 88.0733 102.81 89.57 102.33 91.49C102.15 92.2033 101.89 92.66 101.55 92.86C101.263 93.0267 100.72 93.18 99.9199 93.32C97.7333 93.6867 95.9933 93.1833 94.6999 91.81C94.4666 91.5567 94.1766 91.44 93.8299 91.46C91.9299 91.58 90.5499 90.6767 89.6899 88.75C91.6899 89.89 93.2066 90.11 94.2399 89.41C95.6466 88.45 96.5333 87.8867 96.8999 87.72C97.2533 87.5667 97.4833 87.3433 97.5899 87.05L97.7299 86.68C97.8166 86.4533 98.0099 86.31 98.3099 86.25C99.3099 86.05 100.087 85.1367 100.64 83.51C100.967 82.5567 101.41 82.37 101.97 82.95Z" fill="#929393"/>
<path d="M32.58 93.68L29.8 91.97L29.3 91.02C29.12 90.6866 29.21 90.4533 29.57 90.32C29.65 90.2866 29.7266 90.2566 29.8 90.23C29.8933 90.19 30.0233 90.2066 30.19 90.28C31.9166 91.0333 33.6133 91.6 35.28 91.98C35.7266 92.08 35.8866 92.3466 35.76 92.78L35.66 93.16C35.6248 93.2831 35.5446 93.3885 35.4352 93.4552C35.3259 93.5219 35.1955 93.545 35.07 93.52C34.35 93.3733 33.52 93.4266 32.58 93.68Z" fill="#C7C7C7"/>
<path d="M29.8002 91.97L32.5802 93.68C34.4469 94.2733 35.7202 94.9467 36.4002 95.7C33.8602 98.24 30.5302 95.95 28.4302 93.83C27.6969 93.05 27.4469 92.4 27.6802 91.88C27.8469 91.5267 28.1169 91.41 28.4902 91.53L29.8002 91.97Z" fill="#242424"/>
<path d="M28.4301 93.83C30.5301 95.95 33.8601 98.24 36.4001 95.7C37.5267 94.96 38.7867 94.6434 40.1801 94.75C38.7667 97.31 36.8667 99.2534 34.4801 100.58C34.1267 100.773 33.7934 101.06 33.4801 101.44C33.0867 101.92 32.8867 102.323 32.8801 102.65C32.8734 102.894 32.7985 103.13 32.6633 103.333C32.5281 103.536 32.3377 103.698 32.1127 103.802C31.8876 103.906 31.6362 103.947 31.3856 103.922C31.135 103.897 30.8945 103.807 30.6901 103.66C28.9367 102.42 27.4634 100.973 26.2701 99.32C26.1234 95.5734 26.8434 93.7434 28.4301 93.83Z" fill="#929393"/>
</g>
<defs>
<clipPath id="clip0_17_1488">
<rect width="118" height="108" fill="white"/>
</clipPath>
</defs>
</svg>
