<svg width="195" height="138" viewBox="0 0 195 138" fill="none" xmlns="http://www.w3.org/2000/svg">
<g clip-path="url(#clip0_17_1305)">
<path d="M33.5498 102.15C34.2831 103.61 34.6631 105.163 34.6898 106.81C34.7031 107.843 34.8898 108.58 35.2498 109.02C35.7298 109.62 36.3898 110.097 37.2298 110.45" stroke="#969696" stroke-width="2"/>
<path d="M37.23 110.45C36.8566 113.717 36.1066 118.403 34.98 124.51C33.48 132.58 42.89 139.39 48.97 132.44C50.32 130.9 51.18 127.64 51.6 125.73C51.6733 125.403 52.3 122.057 53.48 115.69C53.8733 113.55 54.55 111.687 55.51 110.1C56.07 109.167 56.8066 108.557 57.72 108.27C59.2066 107.803 60.22 107.7 60.76 107.96C63.09 109.07 66.54 110.97 68.42 110.42C71.1 109.62 75.07 107.93 78.29 107.98C82.85 108.04 86.96 106.93 91.59 106.94C98.5766 106.96 103.647 107.123 106.8 107.43C111.413 107.87 116.257 108.06 121.33 108C125.277 107.953 130.113 108.247 135.84 108.88C136.573 108.96 137.19 109.32 137.69 109.96C138.737 111.293 139.73 112.683 140.67 114.13C142.71 117.31 144.54 118.17 147.91 116.09C149.163 115.323 150.72 114.24 152.58 112.84C153.087 112.46 153.473 112.013 153.74 111.5C153.873 111.227 154.097 110.667 154.41 109.82C154.53 109.513 154.753 109.37 155.08 109.39C157.007 109.523 159.063 109.88 161.25 110.46C165.65 111.63 171.19 110.73 174.81 111.3C179.13 111.967 182.733 112.277 185.62 112.23C186.907 112.203 187.987 112.097 188.86 111.91C189.94 111.677 190.623 110.997 190.91 109.87C191.27 108.423 191.257 107.213 190.87 106.24C190.741 105.923 190.504 105.658 190.2 105.49C188.427 104.517 187.3 103.987 186.82 103.9C183.12 103.227 179.807 102.31 176.88 101.15C174.84 100.35 172.94 99.9267 171.18 99.88C167.267 99.7867 163.79 99.7733 160.75 99.84C157.61 99.91 155.38 101.61 152.49 102.84C152.177 102.973 151.877 102.95 151.59 102.77C148.39 100.743 146.487 99.36 145.88 98.62C143.34 95.53 139.34 90.91 136.85 86.44C132.143 78.0133 127.82 69.7533 123.88 61.66C122.593 59.0133 119.803 55.17 115.51 50.13C115.083 49.6233 114.74 48.9933 114.48 48.24C114.073 47.0667 113.833 46.3867 113.76 46.2C110.027 37.2467 107.773 31.7267 107 29.64C106.167 27.3733 105.203 25.9067 104.11 25.24C101.23 23.48 98.48 23.62 95.24 24.35C94.3733 24.55 93.2966 24.3133 92.01 23.64C87.29 21.1867 83.66 19.14 81.12 17.5C80.8249 17.3098 80.5837 17.0444 80.42 16.73C78.45 12.87 73.55 6.26001 69.02 5.93001C66.64 5.75667 63.46 5.78001 59.48 6.00001C55.7 6.20667 52.8733 6.88667 51 8.04001C48.4666 9.59334 47.0433 10.46 46.73 10.64C45.53 11.3067 44.6566 12.17 44.11 13.23C43.5833 14.2567 43.1866 15.4667 42.92 16.86C42.7866 17.5267 42.4733 18.1433 41.98 18.71C41.3266 19.4633 40.7433 19.8933 40.23 20C38.9033 20.2733 37.5833 20.8233 36.27 21.65C33.9766 23.1033 32.8133 23.8367 32.78 23.85C31.7 24.41 28.8666 25.9 24.28 28.32C22.32 29.3533 20.58 30.6567 19.06 32.23C11.8333 39.7033 6.94997 45.1767 4.40997 48.65C2.92997 50.6833 2.12997 52.1133 2.00997 52.94C1.07664 59.2267 1.86664 64.46 4.37997 68.64C6.83997 72.7067 9.6233 76.4467 12.73 79.86C13.1329 80.2957 13.3884 80.8522 13.46 81.45C14.2666 88.6833 17.6733 94.1 23.68 97.7C24.4533 98.1667 26.1 98.88 28.62 99.84C30.3533 100.507 31.9966 101.277 33.55 102.15" stroke="#8B8B8B" stroke-width="2"/>
<path d="M37.23 110.45C38.17 110.983 38.8833 111.663 39.37 112.49" stroke="#212122" stroke-width="2"/>
<path d="M39.37 112.49C38.79 116.923 38.2066 121.123 37.62 125.09C37.0466 128.957 38.58 131.44 42.22 132.54C45.06 133.4 46.9533 132.507 47.9 129.86C49.1266 126.413 50.0333 121.887 50.62 116.28" stroke="#676667" stroke-width="2"/>
<path d="M50.6198 116.28L52.3598 109.82C52.3809 109.741 52.3863 109.659 52.3757 109.578C52.365 109.497 52.3384 109.419 52.2976 109.349C52.2567 109.278 52.2023 109.216 52.1374 109.167C52.0726 109.117 51.9987 109.081 51.9198 109.06C50.2131 108.58 48.4698 108.08 46.6898 107.56C45.6631 107.253 43.6265 106.043 40.5798 103.93C39.9065 103.463 39.2198 102.977 38.5198 102.47C38.1598 102.21 37.7598 102.12 37.3198 102.2C35.8998 102.467 34.6431 102.45 33.5498 102.15" stroke="#212122" stroke-width="2"/>
<path d="M50.6201 116.28C50.5001 116.273 50.4235 116.213 50.3901 116.1C50.3568 115.98 50.3035 115.97 50.2301 116.07C49.9835 116.39 49.7668 116.57 49.5801 116.61C47.2335 117.043 44.9935 117.027 42.8601 116.56C42.7086 116.529 42.5664 116.464 42.4448 116.368C42.3233 116.273 42.2258 116.15 42.1601 116.01C41.5201 114.657 40.5901 113.483 39.3701 112.49" stroke="#727172" stroke-width="2"/>
<path d="M45.94 17.8C45.3667 20.7133 43.4233 22.4433 40.11 22.99C39.5633 23.0833 39.19 23.3867 38.99 23.9L37.87 26.73C37.77 26.9833 37.5867 27.1233 37.32 27.15C35.3133 27.33 33.68 27.68 32.42 28.2C26.0333 30.82 20.3433 34.7833 15.35 40.09C14.11 41.41 11.9933 43.9067 9 47.58" stroke="#212122" stroke-width="2"/>
<path d="M9.0002 47.58C6.04687 49.8 4.39687 52.22 4.0502 54.84C3.39687 59.6867 4.74354 64.5467 8.0902 69.42C15.0835 79.5867 23.8069 88.0867 34.2602 94.92C34.9602 95.38 36.3402 95.79 37.0502 96.06C37.3702 96.18 37.6902 96.18 38.0102 96.06C40.1502 95.26 43.6902 93.4 44.4102 90.92C44.5102 90.58 44.4369 90.28 44.1902 90.02C36.2902 81.7467 28.8835 73.14 21.9702 64.2" stroke="#8B8B8B" stroke-width="2"/>
<path d="M21.9697 64.2C22.5764 63.7866 23.3031 63.3366 24.1497 62.85C25.0164 62.35 25.7997 62.0166 26.4997 61.85C30.4264 60.8966 34.7131 59.1833 39.3597 56.71C42.6997 54.93 47.2897 55.16 49.0197 59.1C49.7131 60.68 50.2464 61.9433 50.6197 62.89C50.7298 63.1819 50.7403 63.4986 50.6497 63.79L49.5097 67.33C49.4164 67.6233 49.4431 67.9066 49.5897 68.18C50.3097 69.56 51.5097 71.33 52.1997 73.18C52.8064 74.8266 53.6397 76.24 54.6997 77.42C55.5931 78.4266 55.3864 78.78 54.0797 78.48C53.1197 78.26 52.1364 77.8533 51.1297 77.26C47.0031 74.82 42.9697 72.4966 39.0297 70.29C38.7031 70.11 38.3764 70.1033 38.0497 70.27L35.1397 71.68" stroke="#212122" stroke-width="2"/>
<path d="M35.14 71.68L30.67 64.76C29.9766 63.68 29.2266 63.64 28.42 64.64L28 65.16C27.1733 66.1733 27.1966 67.1666 28.07 68.14L40.9 82.52" stroke="#8B8B8B" stroke-width="2"/>
<path d="M40.8999 82.52C41.4732 83.5334 42.9232 85.1167 45.2499 87.27C45.9232 87.8967 46.5499 88.1434 47.1299 88.01C48.7299 87.66 50.4899 87.85 51.9599 88.12C53.2399 88.3534 54.5232 88.3834 55.8099 88.21C58.7299 87.81 61.7599 88.1067 64.8999 89.1C66.1866 89.5067 67.5032 89.6267 68.8499 89.46C70.4632 89.2667 72.1066 89.3367 73.7799 89.67C77.5999 90.4367 81.0166 90.9334 84.0299 91.16C84.2099 91.1734 84.5132 91.3 84.9399 91.54C85.1732 91.6734 85.3232 91.88 85.3899 92.16C85.4028 92.2146 85.4298 92.2648 85.4683 92.3056C85.5067 92.3464 85.5551 92.3765 85.6088 92.3927C85.6625 92.4089 85.7195 92.4107 85.7741 92.3979C85.8287 92.3852 85.879 92.3583 85.9199 92.32C86.6932 91.6134 87.5999 90.7167 88.6399 89.63C89.3332 88.8967 89.2632 87.9567 88.4299 86.81C87.2499 85.1634 85.5232 83.8634 83.2499 82.91" stroke="#303031" stroke-width="2"/>
<path d="M83.2501 82.91C85.1901 80.5033 87.7335 78.7467 90.8801 77.64C91.2581 77.5079 91.5735 77.2396 91.7655 76.8869C91.9576 76.5342 92.0126 76.1221 91.9201 75.73L89.9801 67.48C89.8735 67.0333 89.6201 66.92 89.2201 67.14C88.5268 67.52 87.7901 67.7667 87.0101 67.88C86.4101 67.9733 85.5601 68.4133 84.4601 69.2C82.5701 70.55 80.8201 71.9 78.6201 72.88C76.9201 73.64 74.2035 75 70.4701 76.96C70.2169 77.0944 69.9233 77.133 69.6427 77.0688C69.362 77.0046 69.1128 76.8418 68.9401 76.61C68.3535 75.8167 68.2635 74.9833 68.6701 74.11C68.9568 73.4833 69.8635 71.6467 71.3901 68.6C72.4301 66.52 73.5701 64.8533 74.8101 63.6C79.0435 59.32 83.4068 55.9533 87.9001 53.5C88.1268 53.375 88.3896 53.3316 88.6444 53.3772C88.8992 53.4227 89.1307 53.5543 89.3001 53.75C91.9501 56.8 98.6501 62.47 102.44 58.18C102.66 57.9267 102.94 57.8167 103.28 57.85C106.287 58.11 108.55 57.4467 110.07 55.86C110.883 55.0133 111.243 53.82 111.15 52.28C111.023 50.1267 110.883 48.8 110.73 48.3C110.337 47.06 107.917 40.7967 103.47 29.51C103.183 28.7767 102.657 28.15 101.89 27.63C101.183 27.1433 100.43 27.0733 99.6301 27.42C98.4235 27.9467 97.5168 28.4467 96.9101 28.92C96.7317 29.0589 96.5187 29.1471 96.2935 29.1752C96.0682 29.2034 95.8391 29.1705 95.6301 29.08C91.4501 27.2467 87.4068 25.3433 83.5001 23.37C83.2135 23.2233 82.9635 23.3067 82.7501 23.62C82.6614 23.7521 82.6183 23.9096 82.6273 24.0684C82.6364 24.2273 82.697 24.3788 82.8001 24.5C84.5335 26.5533 84.7401 28.8733 83.4201 31.46C82.3101 33.65 81.5301 34.93 81.1601 36.75C80.6935 39.11 80.1601 41.31 79.5601 43.35C78.9401 45.45 78.1668 46.52 77.2401 46.56C75.8001 46.6133 75.3401 45.9667 75.8601 44.62C77.5001 40.4067 78.5201 36.51 78.9201 32.93" stroke="#212122" stroke-width="2"/>
<path d="M78.9201 32.93C78.5601 30.7634 78.7867 28.7867 79.6001 27C79.9067 26.3267 79.9367 25.1867 79.6901 23.58" stroke="#303031" stroke-width="2"/>
<path d="M79.6899 23.58C79.2033 21.7066 77.9633 20.1566 75.9699 18.93C75.7033 18.7633 75.6499 18.5433 75.8099 18.27C76.5899 16.9433 76.4366 15.5733 75.3499 14.16C72.4699 10.38 70.3099 8.81998 65.4399 8.73998C62.3866 8.69331 60.0133 8.73331 58.3199 8.85998C52.0799 9.31998 47.9533 12.3 45.9399 17.8" stroke="#5D5D5D" stroke-width="2"/>
<path d="M79.6899 23.58C79.7833 24.6934 79.6166 25.4667 79.1899 25.9C78.9233 26.1734 78.6133 26.24 78.2599 26.1L75.3699 24.96C75.2758 24.9236 75.1739 24.9119 75.074 24.9261C74.974 24.9403 74.8794 24.9798 74.7992 25.041C74.7189 25.1022 74.6557 25.183 74.6155 25.2756C74.5754 25.3682 74.5597 25.4696 74.5699 25.57C74.5966 25.7967 74.6266 25.9934 74.6599 26.16C74.7066 26.38 74.9233 26.6367 75.3099 26.93C77.3166 28.4234 78.3899 30.3634 78.5299 32.75" stroke="#777777" stroke-width="2"/>
<path d="M78.53 32.75C78.5167 33.7967 78.3633 34.72 78.07 35.52C77.9633 35.8134 77.7667 35.8934 77.48 35.76C76.48 35.28 75.5133 34.62 74.58 33.78C73.8933 33.16 73 32.6567 71.9 32.27C71.6333 32.17 71.4 32.02 71.2 31.82L69.29 29.91C69.171 29.7903 69.0814 29.6446 69.0283 29.4844C68.9753 29.3243 68.9604 29.1543 68.9847 28.988C69.009 28.8217 69.0719 28.6638 69.1683 28.527C69.2648 28.3901 69.3921 28.2782 69.54 28.2C70.1467 27.88 70.7033 27.3767 71.21 26.69C71.3344 26.5233 71.41 26.3253 71.4282 26.1181C71.4464 25.9109 71.4066 25.7027 71.3131 25.5169C71.2197 25.3311 71.0764 25.1749 70.8992 25.066C70.722 24.957 70.518 24.8996 70.31 24.9H68.6C68.1733 24.9 67.9567 24.6867 67.95 24.26C67.9233 21.18 66.5933 18.9234 63.96 17.49C63.12 17.0367 62.7267 17.2867 62.78 18.24C62.88 20.1934 62.8167 22.5167 62.59 25.21C62.51 26.2167 62.01 26.9234 61.09 27.33C60.9167 27.41 60.8267 27.5434 60.82 27.73C60.8133 27.8634 60.84 27.9867 60.9 28.1C61 28.3 61.16 28.4 61.38 28.4C61.88 28.4067 62.3233 28.5634 62.71 28.87C62.9767 29.0834 63.11 29.3567 63.11 29.69C63.1167 30.99 63.15 32.2934 63.21 33.6C63.2433 34.32 63.8833 35.3567 65.13 36.71C65.37 36.97 65.6667 37.1 66.02 37.1H68.68C68.98 37.1 69.24 37.2034 69.46 37.41C71.24 39.1434 72.8067 41.17 74.16 43.49C74.2746 43.6848 74.3211 43.9118 74.2921 44.1348C74.2631 44.3577 74.1602 44.5638 74 44.72C73.1533 45.56 72.3833 45.8834 71.69 45.69C71.3233 45.5967 70.9667 45.06 70.62 44.08C70.1333 42.6934 69.21 41.59 67.85 40.77C67.7044 40.6821 67.5363 40.6387 67.3664 40.6453C67.1964 40.6518 67.0321 40.7081 66.8938 40.807C66.7555 40.906 66.6492 41.0433 66.5881 41.202C66.527 41.3607 66.5137 41.5339 66.55 41.7C67.2433 44.8534 66.1233 47.2734 63.19 48.96C62.91 49.12 62.6233 49.1267 62.33 48.98C59.31 47.4734 57.57 46.52 57.11 46.12C55.2367 44.4867 53.49 44.5767 51.87 46.39C51.5033 46.7967 51.32 46.7267 51.32 46.18V38.95C51.32 38.7877 51.2879 38.6269 51.2254 38.477C51.163 38.3271 51.0715 38.1911 50.9562 38.0767C50.8409 37.9624 50.7041 37.872 50.5538 37.8108C50.4034 37.7495 50.2424 37.7187 50.08 37.72C48.6533 37.7267 47.7267 37.29 47.3 36.41C47.14 36.0634 47.1233 35.7267 47.25 35.4L48.98 31C49.0627 30.7933 49.1037 30.5722 49.1007 30.3495C49.0976 30.1268 49.0506 29.907 48.9623 29.7025C48.8741 29.4981 48.7462 29.3131 48.5862 29.1582C48.4262 29.0033 48.2372 28.8816 48.03 28.8L45.03 27.62C44.6033 27.4467 44.4633 27.1434 44.61 26.71C45.5767 23.8567 46.02 20.8867 45.94 17.8" stroke="#686868" stroke-width="2"/>
<path d="M78.5298 32.75C78.6631 32.81 78.7931 32.87 78.9198 32.93" stroke="#3B3B3B" stroke-width="2"/>
<path d="M83.2499 82.91C79.2299 83.77 74.7865 84.01 69.9199 83.63C69.5265 83.6033 69.4532 83.4367 69.6999 83.13L73.1499 78.86C73.256 78.7288 73.3314 78.5756 73.3706 78.4114C73.4098 78.2473 73.4117 78.0765 73.3762 77.9115C73.3407 77.7466 73.2687 77.5916 73.1655 77.4581C73.0623 77.3246 72.9306 77.2159 72.7799 77.14C72.2799 76.8867 71.7532 76.8967 71.1999 77.17C67.5099 79.01 64.7099 80.13 60.7599 80.15C59.1332 80.1633 57.6865 80.2733 56.4199 80.48C55.3999 80.6467 53.9565 80.66 52.0899 80.52C48.1165 80.2267 44.2065 80.26 40.3599 80.62" stroke="#3B3B3B" stroke-width="2"/>
<path d="M40.3601 80.62L35.1401 71.68" stroke="#969696" stroke-width="2"/>
<path d="M21.97 64.2C17.57 61.7467 14.7267 59.6933 13.44 58.04C12.26 56.52 11.3567 54.84 10.73 53C10.1033 51.1467 9.52667 49.34 9 47.58" stroke="#969696" stroke-width="2"/>
<path d="M40.3599 80.62L40.8999 82.52" stroke="#A5A5A5" stroke-width="2"/>
<path d="M114.47 54.09C114.4 55.86 113.63 57.24 112.13 58.63C109.19 61.35 106.303 64.1733 103.47 67.1C103.237 67.3333 103.253 67.55 103.52 67.75C106.053 69.6433 107.98 71.3133 109.3 72.76C112.953 76.76 117.547 82.04 123.08 88.6C123.21 88.7518 123.37 88.876 123.55 88.9653C123.731 89.0546 123.928 89.1072 124.13 89.12C127.59 89.3067 130.803 88.6033 133.77 87.01C133.829 86.9782 133.88 86.9352 133.922 86.8836C133.964 86.8319 133.996 86.7727 134.014 86.7093C134.033 86.6459 134.039 86.5797 134.031 86.5146C134.023 86.4494 134.003 86.3867 133.97 86.33C130.903 80.89 127.347 74.1 123.3 65.96C121.053 61.4533 118.41 57.39 115.37 53.77C114.803 53.09 114.503 53.1967 114.47 54.09Z" stroke="#8B8B8B" stroke-width="2"/>
<path d="M98.1997 68.06C97.5597 65.9267 95.8097 64.6134 92.9497 64.12C92.5764 64.0534 92.3931 64.21 92.3997 64.59C92.4131 66.9034 92.8064 69.82 93.5797 73.34C94.2497 76.43 94.1997 77.98 91.4897 79.77C90.0497 80.7234 89.0731 81.3667 88.5597 81.7C88.1597 81.96 88.1631 82.2134 88.5697 82.46C90.8364 83.8267 92.3097 85.93 92.9897 88.77C93.1697 89.5034 92.7564 90.5034 91.7497 91.77C91.0564 92.6434 89.9031 93.8567 88.2897 95.41C88.264 95.4365 88.2458 95.4693 88.2368 95.5051C88.2278 95.5409 88.2284 95.5785 88.2385 95.6139C88.2487 95.6494 88.268 95.6816 88.2945 95.7073C88.3211 95.7329 88.3539 95.7511 88.3897 95.76C90.1897 96.1534 93.1031 96.74 97.1297 97.52C99.0231 97.8867 101.96 98.2367 105.94 98.57C107.586 98.7034 110.623 99.0634 115.05 99.65C116.763 99.87 121.64 100.353 129.68 101.1C129.986 101.127 130.043 101.023 129.85 100.79C123.103 92.3234 116.833 84.8267 111.04 78.3C108.62 75.5734 106.19 73.1667 103.75 71.08C102.15 69.7134 100.736 69.0334 99.5097 69.04C99.215 69.0393 98.9284 68.9436 98.6924 68.767C98.4564 68.5905 98.2836 68.3425 98.1997 68.06Z" stroke="#8B8B8B" stroke-width="2"/>
<path d="M133.13 100.97C133.304 101.343 133.59 101.553 133.99 101.6L146.19 103C146.255 103.009 146.321 102.998 146.381 102.97C146.44 102.942 146.49 102.897 146.526 102.841C146.561 102.785 146.581 102.719 146.581 102.652C146.582 102.584 146.564 102.518 146.53 102.46C146.41 102.26 146.04 101.91 145.42 101.41C144.634 100.79 144.15 100.373 143.97 100.16C140.83 96.5667 138.034 93.0034 135.58 89.47C135.374 89.1834 135.117 89.1234 134.81 89.29C132.21 90.75 129.32 91.4267 126.14 91.32C125.707 91.3067 125.617 91.4767 125.87 91.83C127.164 93.6234 129.414 96.41 132.62 100.19C132.827 100.437 132.997 100.697 133.13 100.97Z" stroke="#8B8B8B" stroke-width="2"/>
<path d="M62.2397 105.86C63.6131 106.807 65.0631 107.39 66.5897 107.61C67.5964 107.757 69.0864 107.533 71.0597 106.94C74.7597 105.84 78.5631 105.42 82.4697 105.68C82.6364 105.687 82.6797 105.617 82.5997 105.47L82.4697 105.24C82.4697 105.227 82.4631 105.22 82.4497 105.22L74.2797 103.98" stroke="#676667" stroke-width="2"/>
<path d="M74.2798 103.98L73.2998 102.73" stroke="#303031" stroke-width="2"/>
<path d="M73.3001 102.73L73.1101 101.26C73.0634 100.893 73.2201 100.733 73.5801 100.78C78.3334 101.373 82.5167 102.32 86.1301 103.62C87.6401 104.16 88.4201 103.51 89.5001 102.5C89.9001 102.12 90.4001 102.16 91.0001 102.62" stroke="#5D5D5D" stroke-width="2"/>
<path d="M91.0002 102.62C90.9002 102.98 90.8702 103.333 90.9102 103.68C90.9502 104.02 91.1402 104.217 91.4802 104.27C94.6335 104.757 96.6402 104.987 97.5002 104.96C102.187 104.833 107.967 104.94 114.84 105.28C121.614 105.62 126.22 105.807 128.66 105.84C133.26 105.9 137.87 106 142.49 106.14" stroke="#676667" stroke-width="2"/>
<path d="M142.49 106.14C144.83 106.94 146.99 107.16 148.97 106.8C150.483 106.527 150.513 106.13 149.06 105.61C147.346 105.003 145.316 104.91 142.97 105.33" stroke="#5D5D5D" stroke-width="2"/>
<path d="M142.97 105.33C138.07 105.003 133.167 104.673 128.26 104.34C127.613 104.293 126.97 104.2 126.33 104.06C125.523 103.88 124.89 103.77 124.43 103.73C116.91 103.037 109.44 102.317 102.02 101.57" stroke="#676667" stroke-width="2"/>
<path d="M102.02 101.57C99.7001 101.17 97.4035 100.777 95.1301 100.39C92.2435 99.8967 89.9335 99.6467 88.2001 99.64C85.7935 99.6267 83.4102 99.3634 81.0502 98.85C80.0968 98.6434 77.7168 98.4934 73.9102 98.4C70.7235 98.32 67.8068 97.78 65.1602 96.78" stroke="#5D5D5D" stroke-width="2"/>
<path d="M65.1598 96.78C63.1331 95.1334 61.0164 93.7334 58.8098 92.58C57.3631 91.82 55.7631 91.35 54.0098 91.17C52.9698 91.07 51.2998 90.7834 48.9998 90.31C48.6998 90.25 48.4664 90.3467 48.2998 90.6C46.0931 93.94 43.2431 96.5167 39.7498 98.33C39.4564 98.4834 39.4331 98.67 39.6798 98.89C40.6264 99.7434 41.9531 101.067 43.6598 102.86C44.7731 104.033 47.2164 104.92 50.9898 105.52C51.3098 105.567 51.5931 105.69 51.8398 105.89C52.1664 106.157 52.5531 106.267 52.9998 106.22C56.0731 105.893 59.1531 105.773 62.2398 105.86" stroke="#8B8B8B" stroke-width="2"/>
<path d="M65.1602 96.78C66.1202 98.5334 68.0768 99.4367 71.0302 99.49C71.3702 99.49 71.6268 99.6334 71.8002 99.92C72.4935 101.047 72.6902 102.14 72.3902 103.2" stroke="#D1D1D1" stroke-width="2"/>
<path d="M72.3899 103.2C68.4499 101.167 66.5832 101.22 66.7899 103.36" stroke="#A5A5A5" stroke-width="2"/>
<path d="M66.7897 103.36C65.4831 104.527 63.9664 105.36 62.2397 105.86" stroke="#DBDBDB" stroke-width="2"/>
<path d="M74.28 103.98C71.7267 104.613 69.23 104.407 66.79 103.36" stroke="#818081" stroke-width="2"/>
<path d="M102.02 101.57C100.867 101.663 99.79 101.84 98.79 102.1C97.4767 102.447 96.4167 102.627 95.61 102.64C94.0767 102.673 92.54 102.667 91 102.62" stroke="#ADADAD" stroke-width="2"/>
<path d="M73.3001 102.73C73.1668 103.123 72.8635 103.28 72.3901 103.2" stroke="#777777" stroke-width="2"/>
<path d="M142.97 105.33C142.996 105.423 143.026 105.51 143.06 105.59C143.083 105.653 143.088 105.721 143.074 105.787C143.06 105.852 143.027 105.913 142.98 105.96C142.86 106.08 142.696 106.14 142.49 106.14" stroke="#ADADAD" stroke-width="2"/>
<path d="M169.83 103.4C167.85 102.98 165.237 102.8 161.99 102.86C159.237 102.907 156.833 103.893 154.78 105.82C154.732 105.865 154.699 105.923 154.684 105.987C154.669 106.051 154.674 106.118 154.697 106.181C154.72 106.243 154.761 106.298 154.815 106.339C154.869 106.379 154.933 106.404 155 106.41C157.733 106.57 160.4 107.2 163 108.3C163.907 108.68 165.43 108.68 167.57 108.3C169.35 107.98 170.817 107.887 171.97 108.02C176.657 108.56 182.117 108.877 188.35 108.97C188.81 108.977 188.923 108.783 188.69 108.39C188.103 107.403 187.227 106.793 186.06 106.56C182.687 105.887 178.99 105.2 174.97 104.5C174.897 104.487 173.183 104.12 169.83 103.4Z" stroke="#676667" stroke-width="2"/>
<path d="M140.45 109.69L141.96 111.55C142.26 111.917 142.387 111.857 142.34 111.37C142.28 110.637 141.98 109.93 141.44 109.25C141.327 109.11 141.18 109.037 141 109.03C140.893 109.023 140.78 109.03 140.66 109.05C140.233 109.123 140.163 109.337 140.45 109.69Z" stroke="#8B8B8B" stroke-width="2"/>
<path d="M150.46 110.04L151.15 110.61C151.209 110.656 151.284 110.678 151.358 110.671C151.433 110.663 151.501 110.627 151.55 110.57L151.76 110.3C151.88 110.16 151.873 110.023 151.74 109.89C150.76 108.91 149.623 108.62 148.33 109.02C147.903 109.153 147.867 109.367 148.22 109.66C148.293 109.72 148.707 109.737 149.46 109.71C149.833 109.697 150.167 109.807 150.46 110.04Z" stroke="#8B8B8B" stroke-width="2"/>
<path d="M145.57 113.97C145.357 113.997 145.19 114.06 145.07 114.16C144.643 114.513 144.733 114.647 145.34 114.56C146.233 114.433 147.137 114.017 148.05 113.31C148.397 113.043 148.4 112.773 148.06 112.5L145.52 110.45C145.193 110.183 145.027 110.26 145.02 110.68C145.013 111.58 145.313 112.363 145.92 113.03C145.991 113.106 146.04 113.2 146.06 113.303C146.081 113.405 146.073 113.511 146.036 113.608C146 113.706 145.937 113.792 145.855 113.856C145.772 113.92 145.674 113.959 145.57 113.97Z" stroke="#8B8B8B" stroke-width="2"/>
<path d="M63.5157 55.7287C63.4918 55.3794 63.2661 55.0583 62.8882 54.836C62.5103 54.6136 62.0111 54.5083 61.5004 54.5431C60.9897 54.5779 60.5094 54.7501 60.1652 55.0216C59.8209 55.2932 59.6409 55.642 59.6647 55.9913C59.6885 56.3405 59.9142 56.6617 60.2922 56.884C60.6701 57.1064 61.1693 57.2117 61.68 57.1769C62.1907 57.1421 62.671 56.9699 63.0152 56.6983C63.3595 56.4268 63.5395 56.078 63.5157 55.7287Z" stroke="#686868" stroke-width="2"/>
<path d="M37.23 110.45C38.17 110.983 38.8833 111.663 39.37 112.49C38.79 116.923 38.2066 121.123 37.62 125.09C37.0466 128.957 38.58 131.44 42.22 132.54C45.06 133.4 46.9533 132.507 47.9 129.86C49.1266 126.413 50.0333 121.887 50.62 116.28L52.36 109.82C52.3811 109.741 52.3865 109.659 52.3758 109.578C52.3651 109.497 52.3386 109.419 52.2977 109.349C52.2568 109.278 52.2024 109.216 52.1376 109.167C52.0728 109.117 51.9988 109.081 51.92 109.06C50.2133 108.58 48.47 108.08 46.69 107.56C45.6633 107.253 43.6266 106.043 40.58 103.93C39.9066 103.463 39.22 102.977 38.52 102.47C38.16 102.21 37.76 102.12 37.32 102.2C35.9 102.467 34.6433 102.45 33.55 102.15C31.9966 101.277 30.3533 100.507 28.62 99.84C26.1 98.88 24.4533 98.1667 23.68 97.7C17.6733 94.1 14.2666 88.6833 13.46 81.45C13.3884 80.8522 13.1329 80.2957 12.73 79.86C9.6233 76.4467 6.83997 72.7067 4.37997 68.64C1.86664 64.46 1.07664 59.2267 2.00997 52.94C2.12997 52.1133 2.92997 50.6833 4.40997 48.65C6.94997 45.1767 11.8333 39.7033 19.06 32.23C20.58 30.6567 22.32 29.3533 24.28 28.32C28.8666 25.9 31.7 24.41 32.78 23.85C32.8133 23.8367 33.9766 23.1033 36.27 21.65C37.5833 20.8233 38.9033 20.2733 40.23 20C40.7433 19.8933 41.3266 19.4633 41.98 18.71C42.4733 18.1433 42.7866 17.5267 42.92 16.86C43.1866 15.4667 43.5833 14.2567 44.11 13.23C44.6566 12.17 45.53 11.3067 46.73 10.64C47.0433 10.46 48.4666 9.59334 51 8.04001C52.8733 6.88667 55.7 6.20667 59.48 6.00001C63.46 5.78001 66.64 5.75667 69.02 5.93001C73.55 6.26001 78.45 12.87 80.42 16.73C80.5837 17.0444 80.8249 17.3098 81.12 17.5C83.66 19.14 87.29 21.1867 92.01 23.64C93.2966 24.3133 94.3733 24.55 95.24 24.35C98.48 23.62 101.23 23.48 104.11 25.24C105.203 25.9067 106.167 27.3733 107 29.64C107.773 31.7267 110.027 37.2467 113.76 46.2C113.833 46.3867 114.073 47.0667 114.48 48.24C114.74 48.9933 115.083 49.6233 115.51 50.13C119.803 55.17 122.593 59.0133 123.88 61.66C127.82 69.7533 132.143 78.0133 136.85 86.44C139.34 90.91 143.34 95.53 145.88 98.62C146.487 99.36 148.39 100.743 151.59 102.77C151.877 102.95 152.177 102.973 152.49 102.84C155.38 101.61 157.61 99.91 160.75 99.84C163.79 99.7733 167.267 99.7867 171.18 99.88C172.94 99.9267 174.84 100.35 176.88 101.15C179.807 102.31 183.12 103.227 186.82 103.9C187.3 103.987 188.427 104.517 190.2 105.49C190.504 105.658 190.741 105.923 190.87 106.24C191.257 107.213 191.27 108.423 190.91 109.87C190.623 110.997 189.94 111.677 188.86 111.91C187.987 112.097 186.907 112.203 185.62 112.23C182.733 112.277 179.13 111.967 174.81 111.3C171.19 110.73 165.65 111.63 161.25 110.46C159.063 109.88 157.007 109.523 155.08 109.39C154.753 109.37 154.53 109.513 154.41 109.82C154.097 110.667 153.873 111.227 153.74 111.5C153.473 112.013 153.087 112.46 152.58 112.84C150.72 114.24 149.163 115.323 147.91 116.09C144.54 118.17 142.71 117.31 140.67 114.13C139.73 112.683 138.737 111.293 137.69 109.96C137.19 109.32 136.573 108.96 135.84 108.88C130.113 108.247 125.277 107.953 121.33 108C116.257 108.06 111.413 107.87 106.8 107.43C103.647 107.123 98.5766 106.96 91.59 106.94C86.96 106.93 82.85 108.04 78.29 107.98C75.07 107.93 71.1 109.62 68.42 110.42C66.54 110.97 63.09 109.07 60.76 107.96C60.22 107.7 59.2066 107.803 57.72 108.27C56.8066 108.557 56.07 109.167 55.51 110.1C54.55 111.687 53.8733 113.55 53.48 115.69C52.3 122.057 51.6733 125.403 51.6 125.73C51.18 127.64 50.32 130.9 48.97 132.44C42.89 139.39 33.48 132.58 34.98 124.51C36.1066 118.403 36.8566 113.717 37.23 110.45ZM45.94 17.8C45.3666 20.7133 43.4233 22.4433 40.11 22.99C39.5633 23.0833 39.19 23.3867 38.99 23.9L37.87 26.73C37.77 26.9833 37.5866 27.1233 37.32 27.15C35.3133 27.33 33.68 27.68 32.42 28.2C26.0333 30.82 20.3433 34.7833 15.35 40.09C14.11 41.41 11.9933 43.9067 8.99997 47.58C6.04664 49.8 4.39664 52.22 4.04997 54.84C3.39664 59.6867 4.7433 64.5467 8.08997 69.42C15.0833 79.5867 23.8066 88.0867 34.26 94.92C34.96 95.38 36.34 95.79 37.05 96.06C37.37 96.18 37.69 96.18 38.01 96.06C40.15 95.26 43.69 93.4 44.41 90.92C44.51 90.58 44.4366 90.28 44.19 90.02C36.29 81.7467 28.8833 73.14 21.97 64.2C22.5766 63.7867 23.3033 63.3367 24.15 62.85C25.0166 62.35 25.8 62.0167 26.5 61.85C30.4266 60.8967 34.7133 59.1833 39.36 56.71C42.7 54.93 47.29 55.16 49.02 59.1C49.7133 60.68 50.2466 61.9433 50.62 62.89C50.73 63.1819 50.7406 63.4987 50.65 63.79L49.51 67.33C49.4166 67.6233 49.4433 67.9067 49.59 68.18C50.31 69.56 51.51 71.33 52.2 73.18C52.8066 74.8267 53.64 76.24 54.7 77.42C55.5933 78.4267 55.3866 78.78 54.08 78.48C53.12 78.26 52.1366 77.8533 51.13 77.26C47.0033 74.82 42.97 72.4967 39.03 70.29C38.7033 70.11 38.3766 70.1033 38.05 70.27L35.14 71.68L30.67 64.76C29.9766 63.68 29.2266 63.64 28.42 64.64L28 65.16C27.1733 66.1733 27.1966 67.1667 28.07 68.14L40.9 82.52C41.4733 83.5333 42.9233 85.1167 45.25 87.27C45.9233 87.8967 46.55 88.1433 47.13 88.01C48.73 87.66 50.49 87.85 51.96 88.12C53.24 88.3533 54.5233 88.3833 55.81 88.21C58.73 87.81 61.76 88.1067 64.9 89.1C66.1866 89.5067 67.5033 89.6267 68.85 89.46C70.4633 89.2667 72.1066 89.3367 73.78 89.67C77.6 90.4367 81.0166 90.9333 84.03 91.16C84.21 91.1733 84.5133 91.3 84.94 91.54C85.1733 91.6733 85.3233 91.88 85.39 92.16C85.4029 92.2146 85.4299 92.2648 85.4683 92.3056C85.5067 92.3464 85.5552 92.3764 85.6089 92.3927C85.6626 92.4089 85.7195 92.4107 85.7741 92.3979C85.8287 92.3852 85.879 92.3583 85.92 92.32C86.6933 91.6133 87.6 90.7167 88.64 89.63C89.3333 88.8967 89.2633 87.9567 88.43 86.81C87.25 85.1633 85.5233 83.8633 83.25 82.91C85.19 80.5033 87.7333 78.7467 90.88 77.64C91.2579 77.5079 91.5733 77.2396 91.7654 76.8869C91.9574 76.5342 92.0125 76.1221 91.92 75.73L89.98 67.48C89.8733 67.0333 89.62 66.92 89.22 67.14C88.5266 67.52 87.79 67.7667 87.01 67.88C86.41 67.9733 85.56 68.4133 84.46 69.2C82.57 70.55 80.82 71.9 78.62 72.88C76.92 73.64 74.2033 75 70.47 76.96C70.2167 77.0944 69.9232 77.133 69.6425 77.0688C69.3619 77.0046 69.1127 76.8418 68.94 76.61C68.3533 75.8167 68.2633 74.9833 68.67 74.11C68.9566 73.4833 69.8633 71.6467 71.39 68.6C72.43 66.52 73.57 64.8533 74.81 63.6C79.0433 59.32 83.4066 55.9533 87.9 53.5C88.1267 53.375 88.3894 53.3316 88.6442 53.3772C88.8991 53.4227 89.1306 53.5543 89.3 53.75C91.95 56.8 98.65 62.47 102.44 58.18C102.66 57.9267 102.94 57.8167 103.28 57.85C106.287 58.11 108.55 57.4467 110.07 55.86C110.883 55.0133 111.243 53.82 111.15 52.28C111.023 50.1267 110.883 48.8 110.73 48.3C110.337 47.06 107.917 40.7967 103.47 29.51C103.183 28.7767 102.657 28.15 101.89 27.63C101.183 27.1433 100.43 27.0733 99.63 27.42C98.4233 27.9467 97.5166 28.4467 96.91 28.92C96.7315 29.0589 96.5185 29.1471 96.2933 29.1752C96.0681 29.2034 95.839 29.1705 95.63 29.08C91.45 27.2467 87.4066 25.3433 83.5 23.37C83.2133 23.2233 82.9633 23.3067 82.75 23.62C82.6613 23.7521 82.6181 23.9095 82.6272 24.0684C82.6362 24.2273 82.6969 24.3788 82.8 24.5C84.5333 26.5533 84.74 28.8733 83.42 31.46C82.31 33.65 81.53 34.93 81.16 36.75C80.6933 39.11 80.16 41.31 79.56 43.35C78.94 45.45 78.1666 46.52 77.24 46.56C75.8 46.6133 75.34 45.9667 75.86 44.62C77.5 40.4067 78.52 36.51 78.92 32.93C78.56 30.7633 78.7866 28.7867 79.6 27C79.9066 26.3267 79.9366 25.1867 79.69 23.58C79.2033 21.7067 77.9633 20.1567 75.97 18.93C75.7033 18.7633 75.65 18.5433 75.81 18.27C76.59 16.9433 76.4366 15.5733 75.35 14.16C72.47 10.38 70.31 8.82001 65.44 8.74001C62.3866 8.69334 60.0133 8.73334 58.32 8.86001C52.08 9.32001 47.9533 12.3 45.94 17.8ZM114.47 54.09C114.4 55.86 113.63 57.24 112.13 58.63C109.19 61.35 106.303 64.1733 103.47 67.1C103.237 67.3333 103.253 67.55 103.52 67.75C106.053 69.6433 107.98 71.3133 109.3 72.76C112.953 76.76 117.547 82.04 123.08 88.6C123.21 88.7518 123.37 88.876 123.55 88.9653C123.731 89.0546 123.928 89.1072 124.13 89.12C127.59 89.3067 130.803 88.6033 133.77 87.01C133.829 86.9782 133.88 86.9352 133.922 86.8836C133.964 86.8319 133.996 86.7727 134.014 86.7093C134.033 86.6459 134.039 86.5797 134.031 86.5146C134.023 86.4494 134.003 86.3867 133.97 86.33C130.903 80.89 127.347 74.1 123.3 65.96C121.053 61.4533 118.41 57.39 115.37 53.77C114.803 53.09 114.503 53.1967 114.47 54.09ZM98.2 68.06C97.56 65.9267 95.81 64.6133 92.95 64.12C92.5766 64.0533 92.3933 64.21 92.4 64.59C92.4133 66.9033 92.8066 69.82 93.58 73.34C94.25 76.43 94.2 77.98 91.49 79.77C90.05 80.7233 89.0733 81.3667 88.56 81.7C88.16 81.96 88.1633 82.2133 88.57 82.46C90.8366 83.8267 92.31 85.93 92.99 88.77C93.17 89.5033 92.7566 90.5033 91.75 91.77C91.0566 92.6433 89.9033 93.8567 88.29 95.41C88.2643 95.4365 88.246 95.4693 88.237 95.5051C88.228 95.5409 88.2286 95.5784 88.2388 95.6139C88.2489 95.6494 88.2682 95.6816 88.2948 95.7072C88.3213 95.7329 88.3542 95.7511 88.39 95.76C90.19 96.1533 93.1033 96.74 97.13 97.52C99.0233 97.8867 101.96 98.2367 105.94 98.57C107.587 98.7033 110.623 99.0633 115.05 99.65C116.763 99.87 121.64 100.353 129.68 101.1C129.987 101.127 130.043 101.023 129.85 100.79C123.103 92.3233 116.833 84.8267 111.04 78.3C108.62 75.5733 106.19 73.1667 103.75 71.08C102.15 69.7133 100.737 69.0333 99.51 69.04C99.2153 69.0393 98.9286 68.9436 98.6926 68.767C98.4566 68.5905 98.2839 68.3425 98.2 68.06ZM133.13 100.97C133.303 101.343 133.59 101.553 133.99 101.6L146.19 103C146.255 103.009 146.321 102.998 146.381 102.97C146.44 102.942 146.49 102.897 146.526 102.841C146.561 102.785 146.58 102.719 146.581 102.652C146.582 102.584 146.564 102.518 146.53 102.46C146.41 102.26 146.04 101.91 145.42 101.41C144.633 100.79 144.15 100.373 143.97 100.16C140.83 96.5667 138.033 93.0033 135.58 89.47C135.373 89.1833 135.117 89.1233 134.81 89.29C132.21 90.75 129.32 91.4267 126.14 91.32C125.707 91.3067 125.617 91.4767 125.87 91.83C127.163 93.6233 129.413 96.41 132.62 100.19C132.827 100.437 132.997 100.697 133.13 100.97ZM62.24 105.86C63.6133 106.807 65.0633 107.39 66.59 107.61C67.5966 107.757 69.0866 107.533 71.06 106.94C74.76 105.84 78.5633 105.42 82.47 105.68C82.6366 105.687 82.68 105.617 82.6 105.47L82.47 105.24C82.47 105.227 82.4633 105.22 82.45 105.22L74.28 103.98L73.3 102.73L73.11 101.26C73.0633 100.893 73.22 100.733 73.58 100.78C78.3333 101.373 82.5166 102.32 86.13 103.62C87.64 104.16 88.42 103.51 89.5 102.5C89.9 102.12 90.4 102.16 91 102.62C90.9 102.98 90.87 103.333 90.91 103.68C90.95 104.02 91.14 104.217 91.48 104.27C94.6333 104.757 96.64 104.987 97.5 104.96C102.187 104.833 107.967 104.94 114.84 105.28C121.613 105.62 126.22 105.807 128.66 105.84C133.26 105.9 137.87 106 142.49 106.14C144.83 106.94 146.99 107.16 148.97 106.8C150.483 106.527 150.513 106.13 149.06 105.61C147.347 105.003 145.317 104.91 142.97 105.33C138.07 105.003 133.167 104.673 128.26 104.34C127.613 104.293 126.97 104.2 126.33 104.06C125.523 103.88 124.89 103.77 124.43 103.73C116.91 103.037 109.44 102.317 102.02 101.57C99.7 101.17 97.4033 100.777 95.13 100.39C92.2433 99.8967 89.9333 99.6467 88.2 99.64C85.7933 99.6267 83.41 99.3633 81.05 98.85C80.0966 98.6433 77.7166 98.4933 73.91 98.4C70.7233 98.32 67.8066 97.78 65.16 96.78C63.1333 95.1333 61.0166 93.7333 58.81 92.58C57.3633 91.82 55.7633 91.35 54.01 91.17C52.97 91.07 51.3 90.7833 49 90.31C48.7 90.25 48.4666 90.3467 48.3 90.6C46.0933 93.94 43.2433 96.5167 39.75 98.33C39.4566 98.4833 39.4333 98.67 39.68 98.89C40.6266 99.7433 41.9533 101.067 43.66 102.86C44.7733 104.033 47.2166 104.92 50.99 105.52C51.31 105.567 51.5933 105.69 51.84 105.89C52.1666 106.157 52.5533 106.267 53 106.22C56.0733 105.893 59.1533 105.773 62.24 105.86ZM169.83 103.4C167.85 102.98 165.237 102.8 161.99 102.86C159.237 102.907 156.833 103.893 154.78 105.82C154.732 105.865 154.699 105.923 154.684 105.987C154.669 106.051 154.674 106.118 154.697 106.181C154.72 106.243 154.761 106.298 154.815 106.339C154.869 106.379 154.933 106.404 155 106.41C157.733 106.57 160.4 107.2 163 108.3C163.907 108.68 165.43 108.68 167.57 108.3C169.35 107.98 170.817 107.887 171.97 108.02C176.657 108.56 182.117 108.877 188.35 108.97C188.81 108.977 188.923 108.783 188.69 108.39C188.103 107.403 187.227 106.793 186.06 106.56C182.687 105.887 178.99 105.2 174.97 104.5C174.897 104.487 173.183 104.12 169.83 103.4ZM140.45 109.69L141.96 111.55C142.26 111.917 142.387 111.857 142.34 111.37C142.28 110.637 141.98 109.93 141.44 109.25C141.327 109.11 141.18 109.037 141 109.03C140.893 109.023 140.78 109.03 140.66 109.05C140.233 109.123 140.163 109.337 140.45 109.69ZM150.46 110.04L151.15 110.61C151.209 110.656 151.283 110.678 151.358 110.671C151.433 110.663 151.501 110.627 151.55 110.57L151.76 110.3C151.88 110.16 151.873 110.023 151.74 109.89C150.76 108.91 149.623 108.62 148.33 109.02C147.903 109.153 147.867 109.367 148.22 109.66C148.293 109.72 148.707 109.737 149.46 109.71C149.833 109.697 150.167 109.807 150.46 110.04ZM145.57 113.97C145.357 113.997 145.19 114.06 145.07 114.16C144.643 114.513 144.733 114.647 145.34 114.56C146.233 114.433 147.137 114.017 148.05 113.31C148.397 113.043 148.4 112.773 148.06 112.5L145.52 110.45C145.193 110.183 145.027 110.26 145.02 110.68C145.013 111.58 145.313 112.363 145.92 113.03C145.991 113.106 146.04 113.2 146.06 113.303C146.081 113.405 146.073 113.511 146.036 113.608C146 113.706 145.937 113.792 145.855 113.856C145.772 113.92 145.674 113.959 145.57 113.97Z" fill="#161617"/>
<path d="M79.69 23.58C79.7833 24.6933 79.6167 25.4666 79.19 25.9C78.9233 26.1733 78.6133 26.24 78.26 26.1L75.37 24.96C75.2759 24.9235 75.174 24.9118 75.074 24.926C74.9741 24.9402 74.8795 24.9798 74.7992 25.041C74.7189 25.1022 74.6557 25.183 74.6156 25.2756C74.5755 25.3682 74.5598 25.4696 74.57 25.57C74.5967 25.7966 74.6267 25.9933 74.66 26.16C74.7067 26.38 74.9233 26.6366 75.31 26.93C77.3167 28.4233 78.39 30.3633 78.53 32.75C78.5167 33.7966 78.3633 34.72 78.07 35.52C77.9633 35.8133 77.7667 35.8933 77.48 35.76C76.48 35.28 75.5133 34.62 74.58 33.78C73.8933 33.16 73 32.6566 71.9 32.27C71.6333 32.17 71.4 32.02 71.2 31.82L69.29 29.91C69.171 29.7903 69.0814 29.6445 69.0283 29.4844C68.9753 29.3243 68.9604 29.1542 68.9847 28.988C69.009 28.8217 69.0719 28.6638 69.1683 28.5269C69.2648 28.3901 69.3921 28.2781 69.54 28.2C70.1467 27.88 70.7033 27.3766 71.21 26.69C71.3344 26.5233 71.41 26.3253 71.4282 26.1181C71.4464 25.9109 71.4066 25.7027 71.3131 25.5169C71.2197 25.331 71.0764 25.1749 70.8992 25.0659C70.722 24.957 70.518 24.8995 70.31 24.9H68.6C68.1733 24.9 67.9567 24.6866 67.95 24.26C67.9233 21.18 66.5933 18.9233 63.96 17.49C63.12 17.0366 62.7267 17.2866 62.78 18.24C62.88 20.1933 62.8167 22.5166 62.59 25.21C62.51 26.2166 62.01 26.9233 61.09 27.33C60.9167 27.41 60.8267 27.5433 60.82 27.73C60.8133 27.8633 60.84 27.9866 60.9 28.1C61 28.3 61.16 28.4 61.38 28.4C61.88 28.4066 62.3233 28.5633 62.71 28.87C62.9767 29.0833 63.11 29.3566 63.11 29.69C63.1167 30.99 63.15 32.2933 63.21 33.6C63.2433 34.32 63.8833 35.3566 65.13 36.71C65.37 36.97 65.6667 37.1 66.02 37.1H68.68C68.98 37.1 69.24 37.2033 69.46 37.41C71.24 39.1433 72.8067 41.17 74.16 43.49C74.2746 43.6847 74.3211 43.9117 74.2921 44.1347C74.2631 44.3577 74.1602 44.5638 74 44.72C73.1533 45.56 72.3833 45.8833 71.69 45.69C71.3233 45.5966 70.9667 45.06 70.62 44.08C70.1333 42.6933 69.21 41.59 67.85 40.77C67.7044 40.682 67.5363 40.6386 67.3664 40.6452C67.1964 40.6518 67.0321 40.708 66.8938 40.807C66.7555 40.9059 66.6492 41.0433 66.5881 41.202C66.527 41.3607 66.5138 41.5338 66.55 41.7C67.2433 44.8533 66.1233 47.2733 63.19 48.96C62.91 49.12 62.6233 49.1266 62.33 48.98C59.31 47.4733 57.57 46.52 57.11 46.12C55.2367 44.4866 53.49 44.5766 51.87 46.39C51.5033 46.7966 51.32 46.7266 51.32 46.18V38.95C51.32 38.7876 51.2879 38.6268 51.2254 38.477C51.163 38.3271 51.0715 38.191 50.9562 38.0767C50.8409 37.9623 50.7041 37.8719 50.5538 37.8107C50.4034 37.7495 50.2424 37.7187 50.08 37.72C48.6533 37.7266 47.7267 37.29 47.3 36.41C47.14 36.0633 47.1233 35.7266 47.25 35.4L48.98 31C49.0627 30.7932 49.1037 30.5721 49.1007 30.3495C49.0976 30.1268 49.0506 29.9069 48.9623 29.7025C48.8741 29.498 48.7462 29.3131 48.5862 29.1582C48.4262 29.0033 48.2372 28.8816 48.03 28.8L45.03 27.62C44.6033 27.4466 44.4633 27.1433 44.61 26.71C45.5767 23.8566 46.02 20.8866 45.94 17.8C47.9533 12.3 52.08 9.31998 58.32 8.85998C60.0133 8.73331 62.3867 8.69331 65.44 8.73998C70.31 8.81998 72.47 10.38 75.35 14.16C76.4367 15.5733 76.59 16.9433 75.81 18.27C75.65 18.5433 75.7033 18.7633 75.97 18.93C77.9633 20.1566 79.2033 21.7066 79.69 23.58Z" fill="#A3A3A3"/>
<path d="M78.53 32.75C78.6633 32.81 78.7933 32.87 78.92 32.93C78.52 36.51 77.5 40.4067 75.86 44.62C75.34 45.9667 75.8 46.6134 77.24 46.56C78.1667 46.52 78.94 45.45 79.56 43.35C80.16 41.31 80.6933 39.11 81.16 36.75C81.53 34.93 82.31 33.65 83.42 31.46C84.74 28.8734 84.5333 26.5534 82.8 24.5C82.6969 24.3788 82.6362 24.2273 82.6272 24.0684C82.6182 23.9096 82.6613 23.7521 82.75 23.62C82.9633 23.3067 83.2133 23.2234 83.5 23.37C87.4067 25.3434 91.45 27.2467 95.63 29.08C95.839 29.1705 96.0681 29.2034 96.2933 29.1753C96.5185 29.1471 96.7315 29.0589 96.91 28.92C97.5167 28.4467 98.4233 27.9467 99.63 27.42C100.43 27.0734 101.183 27.1434 101.89 27.63C102.657 28.15 103.183 28.7767 103.47 29.51C107.917 40.7967 110.337 47.06 110.73 48.3C110.883 48.8 111.023 50.1267 111.15 52.28C111.243 53.82 110.883 55.0134 110.07 55.86C108.55 57.4467 106.287 58.11 103.28 57.85C102.94 57.8167 102.66 57.9267 102.44 58.18C98.65 62.47 91.95 56.8 89.3 53.75C89.1306 53.5543 88.8991 53.4227 88.6443 53.3772C88.3894 53.3317 88.1267 53.375 87.9 53.5C83.4067 55.9534 79.0433 59.32 74.81 63.6C73.57 64.8534 72.43 66.52 71.39 68.6C69.8633 71.6467 68.9567 73.4834 68.67 74.11C68.2633 74.9834 68.3533 75.8167 68.94 76.61C69.1127 76.8419 69.3619 77.0046 69.6426 77.0688C69.9232 77.133 70.2167 77.0944 70.47 76.96C74.2033 75 76.92 73.64 78.62 72.88C80.82 71.9 82.57 70.55 84.46 69.2C85.56 68.4134 86.41 67.9734 87.01 67.88C87.79 67.7667 88.5267 67.52 89.22 67.14C89.62 66.92 89.8733 67.0334 89.98 67.48L91.92 75.73C92.0125 76.1221 91.9574 76.5342 91.7654 76.8869C91.5733 77.2396 91.2579 77.5079 90.88 77.64C87.7333 78.7467 85.19 80.5034 83.25 82.91C79.23 83.77 74.7867 84.01 69.92 83.63C69.5267 83.6034 69.4533 83.4367 69.7 83.13L73.15 78.86C73.2561 78.7289 73.3316 78.5756 73.3707 78.4115C73.4099 78.2473 73.4118 78.0765 73.3763 77.9115C73.3408 77.7466 73.2688 77.5917 73.1657 77.4582C73.0625 77.3246 72.9307 77.2159 72.78 77.14C72.28 76.8867 71.7533 76.8967 71.2 77.17C67.51 79.01 64.71 80.13 60.76 80.15C59.1333 80.1634 57.6867 80.2734 56.42 80.48C55.4 80.6467 53.9567 80.66 52.09 80.52C48.1167 80.2267 44.2067 80.26 40.36 80.62L35.14 71.68L38.05 70.27C38.3767 70.1034 38.7033 70.11 39.03 70.29C42.97 72.4967 47.0033 74.82 51.13 77.26C52.1367 77.8534 53.12 78.26 54.08 78.48C55.3867 78.78 55.5933 78.4267 54.7 77.42C53.64 76.24 52.8067 74.8267 52.2 73.18C51.51 71.33 50.31 69.56 49.59 68.18C49.4433 67.9067 49.4167 67.6234 49.51 67.33L50.65 63.79C50.7406 63.4987 50.73 63.1819 50.62 62.89C50.2467 61.9434 49.7133 60.68 49.02 59.1C47.29 55.16 42.7 54.93 39.36 56.71C34.7133 59.1834 30.4267 60.8967 26.5 61.85C25.8 62.0167 25.0167 62.35 24.15 62.85C23.3033 63.3367 22.5767 63.7867 21.97 64.2C17.57 61.7467 14.7267 59.6934 13.44 58.04C12.26 56.52 11.3567 54.84 10.73 53C10.1033 51.1467 9.52667 49.34 9 47.58C11.9933 43.9067 14.11 41.41 15.35 40.09C20.3433 34.7834 26.0333 30.82 32.42 28.2C33.68 27.68 35.3133 27.33 37.32 27.15C37.5867 27.1234 37.77 26.9834 37.87 26.73L38.99 23.9C39.19 23.3867 39.5633 23.0834 40.11 22.99C43.4233 22.4434 45.3667 20.7134 45.94 17.8C46.02 20.8867 45.5767 23.8567 44.61 26.71C44.4633 27.1434 44.6033 27.4467 45.03 27.62L48.03 28.8C48.2372 28.8816 48.4262 29.0033 48.5862 29.1582C48.7462 29.3131 48.8741 29.4981 48.9623 29.7025C49.0506 29.907 49.0976 30.1268 49.1007 30.3495C49.1037 30.5722 49.0627 30.7933 48.98 31L47.25 35.4C47.1233 35.7267 47.14 36.0634 47.3 36.41C47.7267 37.29 48.6533 37.7267 50.08 37.72C50.2424 37.7187 50.4034 37.7495 50.5538 37.8108C50.7042 37.872 50.8409 37.9624 50.9562 38.0767C51.0715 38.1911 51.163 38.3271 51.2254 38.477C51.2879 38.6269 51.32 38.7877 51.32 38.95V46.18C51.32 46.7267 51.5033 46.7967 51.87 46.39C53.49 44.5767 55.2367 44.4867 57.11 46.12C57.57 46.52 59.31 47.4734 62.33 48.98C62.6233 49.1267 62.91 49.12 63.19 48.96C66.1233 47.2734 67.2433 44.8534 66.55 41.7C66.5138 41.5339 66.527 41.3607 66.5881 41.202C66.6492 41.0433 66.7555 40.906 66.8938 40.807C67.0321 40.7081 67.1964 40.6518 67.3664 40.6453C67.5363 40.6387 67.7044 40.6821 67.85 40.77C69.21 41.59 70.1333 42.6934 70.62 44.08C70.9667 45.06 71.3233 45.5967 71.69 45.69C72.3833 45.8834 73.1533 45.56 74 44.72C74.1602 44.5638 74.2631 44.3577 74.2921 44.1348C74.3211 43.9118 74.2746 43.6848 74.16 43.49C72.8067 41.17 71.24 39.1434 69.46 37.41C69.24 37.2034 68.98 37.1 68.68 37.1H66.02C65.6667 37.1 65.37 36.97 65.13 36.71C63.8833 35.3567 63.2433 34.32 63.21 33.6C63.15 32.2934 63.1167 30.99 63.11 29.69C63.11 29.3567 62.9767 29.0834 62.71 28.87C62.3233 28.5634 61.88 28.4067 61.38 28.4C61.16 28.4 61 28.3 60.9 28.1C60.84 27.9867 60.8133 27.8634 60.82 27.73C60.8267 27.5434 60.9167 27.41 61.09 27.33C62.01 26.9234 62.51 26.2167 62.59 25.21C62.8167 22.5167 62.88 20.1934 62.78 18.24C62.7267 17.2867 63.12 17.0367 63.96 17.49C66.5933 18.9234 67.9233 21.18 67.95 24.26C67.9567 24.6867 68.1733 24.9 68.6 24.9H70.31C70.518 24.8996 70.722 24.957 70.8992 25.066C71.0764 25.1749 71.2197 25.3311 71.3131 25.5169C71.4066 25.7027 71.4464 25.9109 71.4282 26.1181C71.41 26.3253 71.3344 26.5233 71.21 26.69C70.7033 27.3767 70.1467 27.88 69.54 28.2C69.3921 28.2782 69.2648 28.3901 69.1683 28.527C69.0719 28.6638 69.009 28.8217 68.9847 28.988C68.9604 29.1543 68.9753 29.3243 69.0284 29.4844C69.0814 29.6446 69.171 29.7903 69.29 29.91L71.2 31.82C71.4 32.02 71.6333 32.17 71.9 32.27C73 32.6567 73.8933 33.16 74.58 33.78C75.5133 34.62 76.48 35.28 77.48 35.76C77.7667 35.8934 77.9633 35.8134 78.07 35.52C78.3633 34.72 78.5167 33.7967 78.53 32.75ZM63.5155 55.7287C63.4917 55.3795 63.2659 55.0583 62.888 54.836C62.5101 54.6137 62.0109 54.5083 61.5002 54.5431C60.9895 54.5779 60.5092 54.7501 60.165 55.0217C59.8207 55.2933 59.6407 55.6421 59.6645 55.9913C59.6883 56.3406 59.9141 56.6617 60.292 56.884C60.6699 57.1064 61.1691 57.2117 61.6798 57.1769C62.1905 57.1421 62.6708 56.97 63.015 56.6984C63.3593 56.4268 63.5393 56.078 63.5155 55.7287Z" fill="#2C2C2C"/>
<path d="M79.6899 23.58C79.9366 25.1867 79.9066 26.3267 79.5999 27C78.7866 28.7867 78.5599 30.7634 78.9199 32.93C78.7933 32.87 78.6633 32.81 78.5299 32.75C78.3899 30.3634 77.3166 28.4234 75.3099 26.93C74.9233 26.6367 74.7066 26.38 74.6599 26.16C74.6266 25.9934 74.5966 25.7967 74.5699 25.57C74.5597 25.4696 74.5754 25.3682 74.6155 25.2756C74.6557 25.183 74.7189 25.1022 74.7992 25.041C74.8794 24.9798 74.974 24.9403 75.074 24.9261C75.1739 24.9119 75.2758 24.9236 75.3699 24.96L78.2599 26.1C78.6133 26.24 78.9233 26.1734 79.1899 25.9C79.6166 25.4667 79.7833 24.6934 79.6899 23.58Z" fill="#4A4A4A"/>
<path d="M21.9702 64.2C28.8835 73.14 36.2902 81.7467 44.1902 90.02C44.4369 90.28 44.5102 90.58 44.4102 90.92C43.6902 93.4 40.1502 95.26 38.0102 96.06C37.6902 96.18 37.3702 96.18 37.0502 96.06C36.3402 95.79 34.9602 95.38 34.2602 94.92C23.8069 88.0867 15.0835 79.5867 8.0902 69.42C4.74354 64.5467 3.39687 59.6867 4.0502 54.84C4.39687 52.22 6.04687 49.8 9.0002 47.58C9.52687 49.34 10.1035 51.1467 10.7302 53C11.3569 54.84 12.2602 56.52 13.4402 58.04C14.7269 59.6933 17.5702 61.7467 21.9702 64.2Z" fill="white"/>
<path d="M112.13 58.63C113.63 57.24 114.4 55.86 114.47 54.09C114.503 53.1967 114.803 53.09 115.37 53.77C118.41 57.39 121.053 61.4533 123.3 65.96C127.347 74.1 130.903 80.89 133.97 86.33C134.003 86.3867 134.023 86.4494 134.031 86.5146C134.039 86.5797 134.033 86.6459 134.014 86.7093C133.996 86.7727 133.964 86.8319 133.922 86.8836C133.88 86.9352 133.829 86.9782 133.77 87.01C130.803 88.6033 127.59 89.3067 124.13 89.12C123.928 89.1072 123.731 89.0546 123.55 88.9653C123.37 88.876 123.21 88.7518 123.08 88.6C117.547 82.04 112.953 76.76 109.3 72.76C107.98 71.3133 106.053 69.6433 103.52 67.75C103.253 67.55 103.237 67.3333 103.47 67.1C106.303 64.1733 109.19 61.35 112.13 58.63Z" fill="white"/>
<path d="M61.6798 57.1769C62.7432 57.1044 63.5651 56.456 63.5155 55.7287C63.466 55.0014 62.5637 54.4705 61.5002 54.543C60.4368 54.6155 59.6149 55.2639 59.6645 55.9913C59.7141 56.7186 60.6164 57.2494 61.6798 57.1769Z" fill="#A3A3A3"/>
<path d="M83.2499 82.91C85.5232 83.8633 87.2499 85.1633 88.4299 86.81C89.2632 87.9567 89.3332 88.8967 88.6399 89.63C87.5999 90.7167 86.6932 91.6133 85.9199 92.32C85.8789 92.3583 85.8286 92.3852 85.774 92.3979C85.7194 92.4107 85.6625 92.4088 85.6088 92.3926C85.5551 92.3764 85.5066 92.3464 85.4682 92.3056C85.4298 92.2648 85.4028 92.2146 85.3899 92.16C85.3232 91.88 85.1732 91.6733 84.9399 91.54C84.5132 91.3 84.2099 91.1733 84.0299 91.16C81.0165 90.9333 77.5999 90.4367 73.7799 89.67C72.1065 89.3367 70.4632 89.2667 68.8499 89.46C67.5032 89.6267 66.1865 89.5067 64.8999 89.1C61.7599 88.1067 58.7299 87.81 55.8099 88.21C54.5232 88.3833 53.2399 88.3533 51.9599 88.12C50.4899 87.85 48.7299 87.66 47.1299 88.01C46.5499 88.1433 45.9232 87.8967 45.2499 87.27C42.9232 85.1167 41.4732 83.5333 40.8999 82.52L40.3599 80.62C44.2065 80.26 48.1165 80.2267 52.0899 80.52C53.9565 80.66 55.3999 80.6467 56.4199 80.48C57.6865 80.2733 59.1332 80.1633 60.7599 80.15C64.7099 80.13 67.5099 79.01 71.1999 77.17C71.7532 76.8967 72.2799 76.8867 72.7799 77.14C72.9306 77.2159 73.0623 77.3246 73.1655 77.4581C73.2687 77.5916 73.3407 77.7466 73.3762 77.9115C73.4117 78.0765 73.4098 78.2473 73.3706 78.4114C73.3314 78.5756 73.256 78.7288 73.1499 78.86L69.6999 83.13C69.4532 83.4367 69.5265 83.6033 69.9199 83.63C74.7865 84.01 79.2299 83.77 83.2499 82.91Z" fill="#4A4A4A"/>
<path d="M133.13 100.97C132.997 100.697 132.827 100.437 132.62 100.19C129.414 96.41 127.164 93.6234 125.87 91.83C125.617 91.4767 125.707 91.3067 126.14 91.32C129.32 91.4267 132.21 90.75 134.81 89.29C135.117 89.1234 135.374 89.1834 135.58 89.47C138.034 93.0034 140.83 96.5667 143.97 100.16C144.15 100.373 144.634 100.79 145.42 101.41C146.04 101.91 146.41 102.26 146.53 102.46C146.564 102.518 146.582 102.584 146.581 102.652C146.581 102.719 146.561 102.785 146.526 102.841C146.49 102.897 146.44 102.942 146.381 102.97C146.321 102.998 146.255 103.009 146.19 103L133.99 101.6C133.59 101.553 133.304 101.343 133.13 100.97Z" fill="white"/>
<path d="M65.1598 96.78C66.1198 98.5334 68.0764 99.4367 71.0298 99.49C71.3698 99.49 71.6264 99.6334 71.7998 99.92C72.4931 101.047 72.6898 102.14 72.3898 103.2C68.4498 101.167 66.5831 101.22 66.7898 103.36C65.4831 104.527 63.9664 105.36 62.2398 105.86C59.1531 105.773 56.0731 105.893 52.9998 106.22C52.5531 106.267 52.1664 106.157 51.8398 105.89C51.5931 105.69 51.3098 105.567 50.9898 105.52C47.2164 104.92 44.7731 104.033 43.6598 102.86C41.9531 101.067 40.6264 99.7434 39.6798 98.89C39.4331 98.67 39.4564 98.4834 39.7498 98.33C43.2431 96.5167 46.0931 93.94 48.2998 90.6C48.4664 90.3467 48.6998 90.25 48.9998 90.31C51.2998 90.7834 52.9698 91.07 54.0098 91.17C55.7631 91.35 57.3631 91.82 58.8098 92.58C61.0164 93.7334 63.1331 95.1334 65.1598 96.78Z" fill="white"/>
<path d="M102.02 101.57C100.867 101.663 99.7902 101.84 98.7902 102.1C97.4768 102.447 96.4168 102.627 95.6102 102.64C94.0768 102.673 92.5402 102.667 91.0002 102.62C90.4002 102.16 89.9002 102.12 89.5002 102.5C88.4202 103.51 87.6402 104.16 86.1301 103.62C82.5168 102.32 78.3335 101.373 73.5802 100.78C73.2202 100.733 73.0635 100.893 73.1102 101.26L73.3002 102.73C73.1668 103.123 72.8635 103.28 72.3902 103.2C72.6902 102.14 72.4935 101.047 71.8002 99.92C71.6268 99.6334 71.3702 99.49 71.0302 99.49C68.0768 99.4367 66.1202 98.5334 65.1602 96.78C67.8068 97.78 70.7235 98.32 73.9102 98.4C77.7168 98.4934 80.0968 98.6434 81.0502 98.85C83.4102 99.3634 85.7935 99.6267 88.2001 99.64C89.9335 99.6467 92.2435 99.8967 95.1301 100.39C97.4035 100.777 99.7001 101.17 102.02 101.57Z" fill="#A3A3A3"/>
<path d="M72.3899 103.2C72.8632 103.28 73.1665 103.123 73.2999 102.73L74.2799 103.98C71.7265 104.613 69.2299 104.407 66.7899 103.36C66.5832 101.22 68.4499 101.167 72.3899 103.2Z" fill="#4A4A4A"/>
<path d="M142.97 105.33C142.997 105.423 143.027 105.51 143.06 105.59C143.084 105.653 143.089 105.721 143.075 105.787C143.06 105.852 143.028 105.912 142.98 105.96C142.86 106.08 142.697 106.14 142.49 106.14C137.87 106 133.26 105.9 128.66 105.84C126.22 105.807 121.614 105.62 114.84 105.28C107.967 104.94 102.187 104.833 97.5002 104.96C96.6402 104.987 94.6335 104.757 91.4802 104.27C91.1402 104.217 90.9502 104.02 90.9102 103.68C90.8702 103.333 90.9002 102.98 91.0002 102.62C92.5402 102.667 94.0769 102.673 95.6102 102.64C96.4169 102.627 97.4769 102.447 98.7902 102.1C99.7902 101.84 100.867 101.663 102.02 101.57C109.44 102.317 116.91 103.037 124.43 103.73C124.89 103.77 125.524 103.88 126.33 104.06C126.97 104.2 127.614 104.293 128.26 104.34C133.167 104.673 138.07 105.003 142.97 105.33Z" fill="#B7B6B7"/>
<path d="M50.6198 116.28C50.4998 116.273 50.4231 116.213 50.3898 116.1C50.3565 115.98 50.3031 115.97 50.2298 116.07C49.9831 116.39 49.7665 116.57 49.5798 116.61C47.2331 117.043 44.9931 117.027 42.8598 116.56C42.7083 116.529 42.5661 116.464 42.4445 116.368C42.3229 116.273 42.2254 116.15 42.1598 116.01C41.5198 114.657 40.5898 113.483 39.3698 112.49C38.8831 111.663 38.1698 110.983 37.2298 110.45C36.3898 110.097 35.7298 109.62 35.2498 109.02C34.8898 108.58 34.7031 107.843 34.6898 106.81C34.6631 105.163 34.2831 103.61 33.5498 102.15C34.6431 102.45 35.8998 102.467 37.3198 102.2C37.7598 102.12 38.1598 102.21 38.5198 102.47C39.2198 102.977 39.9065 103.463 40.5798 103.93C43.6265 106.043 45.6631 107.253 46.6898 107.56C48.4698 108.08 50.2131 108.58 51.9198 109.06C51.9987 109.081 52.0726 109.117 52.1374 109.167C52.2023 109.216 52.2567 109.278 52.2976 109.349C52.3384 109.419 52.365 109.497 52.3757 109.578C52.3863 109.659 52.3809 109.741 52.3598 109.82L50.6198 116.28Z" fill="#2C2C2C"/>
<path d="M174.97 104.5C178.99 105.2 182.687 105.887 186.06 106.56C187.227 106.793 188.103 107.403 188.69 108.39C188.923 108.783 188.81 108.977 188.35 108.97C182.117 108.877 176.657 108.56 171.97 108.02C170.817 107.887 169.35 107.98 167.57 108.3C165.43 108.68 163.907 108.68 163 108.3C160.4 107.2 157.733 106.57 155 106.41C154.933 106.404 154.869 106.379 154.815 106.339C154.761 106.298 154.72 106.243 154.697 106.181C154.674 106.118 154.669 106.051 154.684 105.987C154.699 105.923 154.732 105.865 154.78 105.82C156.833 103.893 159.237 102.907 161.99 102.86C165.237 102.8 167.85 102.98 169.83 103.4C173.183 104.12 174.897 104.487 174.97 104.5Z" fill="#B7B6B7"/>
<path d="M66.7902 103.36C69.2302 104.407 71.7269 104.613 74.2802 103.98L82.4502 105.22C82.4636 105.22 82.4702 105.227 82.4702 105.24L82.6002 105.47C82.6802 105.617 82.6369 105.687 82.4702 105.68C78.5636 105.42 74.7602 105.84 71.0602 106.94C69.0869 107.533 67.5969 107.757 66.5902 107.61C65.0636 107.39 63.6136 106.807 62.2402 105.86C63.9669 105.36 65.4836 104.527 66.7902 103.36Z" fill="#B7B6B7"/>
<path d="M142.49 106.14C142.697 106.14 142.86 106.08 142.98 105.96C143.028 105.912 143.06 105.852 143.075 105.787C143.089 105.721 143.084 105.653 143.06 105.59C143.027 105.51 142.997 105.423 142.97 105.33C145.317 104.91 147.347 105.003 149.06 105.61C150.514 106.13 150.484 106.527 148.97 106.8C146.99 107.16 144.83 106.94 142.49 106.14Z" fill="#A3A3A3"/>
<path d="M141.96 111.55L140.45 109.69C140.163 109.337 140.233 109.123 140.66 109.05C140.78 109.03 140.893 109.023 141 109.03C141.18 109.037 141.327 109.11 141.44 109.25C141.98 109.93 142.28 110.637 142.34 111.37C142.387 111.857 142.26 111.917 141.96 111.55Z" fill="white"/>
<path d="M149.46 109.71C148.707 109.737 148.293 109.72 148.22 109.66C147.867 109.367 147.903 109.153 148.33 109.02C149.623 108.62 150.76 108.91 151.74 109.89C151.873 110.023 151.88 110.16 151.76 110.3L151.55 110.57C151.501 110.627 151.433 110.663 151.358 110.671C151.284 110.678 151.209 110.656 151.15 110.61L150.46 110.04C150.167 109.807 149.833 109.697 149.46 109.71Z" fill="white"/>
<path d="M145.57 113.97C145.674 113.959 145.772 113.92 145.855 113.856C145.937 113.792 146 113.706 146.036 113.608C146.073 113.511 146.081 113.405 146.06 113.303C146.04 113.2 145.991 113.106 145.92 113.03C145.313 112.363 145.013 111.58 145.02 110.68C145.027 110.26 145.193 110.183 145.52 110.45L148.06 112.5C148.4 112.773 148.397 113.043 148.05 113.31C147.137 114.017 146.233 114.433 145.34 114.56C144.733 114.647 144.643 114.513 145.07 114.16C145.19 114.06 145.357 113.997 145.57 113.97Z" fill="white"/>
<path d="M50.62 116.28C50.0333 121.887 49.1266 126.413 47.9 129.86C46.9533 132.507 45.06 133.4 42.22 132.54C38.58 131.44 37.0466 128.957 37.62 125.09C38.2066 121.123 38.79 116.923 39.37 112.49C40.59 113.483 41.52 114.657 42.16 116.01C42.2256 116.15 42.3231 116.273 42.4446 116.368C42.5662 116.464 42.7084 116.529 42.86 116.56C44.9933 117.027 47.2333 117.043 49.58 116.61C49.7666 116.57 49.9833 116.39 50.23 116.07C50.3033 115.97 50.3566 115.98 50.39 116.1C50.4233 116.213 50.5 116.273 50.62 116.28Z" fill="#B7B6B7"/>
</g>
<defs>
<clipPath id="clip0_17_1305">
<rect width="195" height="138" fill="white"/>
</clipPath>
</defs>
</svg>
