<svg width="421" height="400" viewBox="0 0 421 400" fill="none" xmlns="http://www.w3.org/2000/svg">
<rect x="2.13916" y="0.5" width="416" height="360" fill="url(#paint0_linear_14_11)" stroke="black"/>
<path d="M21.1937 399L1.63916 361H418.639L398.596 399H21.1937Z" fill="url(#paint1_linear_14_11)"/>
<path d="M28.0378 395.584L14.8385 369.112H28.0378M28.0378 395.584L88.1679 369.112M28.0378 395.584H108.211M28.0378 395.584V369.112M394.196 395.584L407.395 369.112H394.196M394.196 395.584H316.956M394.196 395.584L331.133 369.112M394.196 395.584V369.112M88.1679 369.112H35.3707M88.1679 369.112H123.855M35.3707 369.112L108.211 395.584M35.3707 369.112H28.0378M108.211 395.584H123.855M123.855 395.584L181.052 369.112M123.855 395.584H193.273M181.052 369.112H239.715M181.052 369.112H123.855M239.715 369.112L294.957 395.584M239.715 369.112H292.513M294.957 395.584H316.956M294.957 395.584H224.561M316.956 395.584L386.863 369.112M386.863 369.112H331.133M386.863 369.112H394.196M331.133 369.112H292.513M193.273 395.584L123.855 369.112M193.273 395.584H224.561M224.561 395.584L292.513 369.112M1.63916 361L21.1937 399H398.596L418.639 361H1.63916Z" stroke="black" stroke-width="2"/>
<defs>
<linearGradient id="paint0_linear_14_11" x1="210.139" y1="0" x2="210.139" y2="361" gradientUnits="userSpaceOnUse">
<stop stop-color="#CCCCCC"/>
<stop offset="1" stop-color="#D9D9D9"/>
</linearGradient>
<linearGradient id="paint1_linear_14_11" x1="220.535" y1="361" x2="220.535" y2="399" gradientUnits="userSpaceOnUse">
<stop stop-color="#737373"/>
<stop offset="1" stop-color="#D9D9D9"/>
</linearGradient>
</defs>
</svg>
