<svg width="113" height="78" viewBox="0 0 113 78" fill="none" xmlns="http://www.w3.org/2000/svg">
<path d="M15.0356 77L1.03564 43L8.53564 1H103.536L111.536 43L97.5356 77H15.0356Z" fill="url(#paint0_linear_8_201)"/>
<path d="M1.03564 43L15.0356 77H97.5356L111.536 43M1.03564 43H111.536M1.03564 43L8.53564 1H103.536L111.536 43" stroke="black" stroke-width="2"/>
<path d="M105.294 47.5L95.1978 72.5H17.8735L7.77686 47.5H105.294Z" fill="#3A3A3A" stroke="black"/>
<rect x="37.0356" y="18" width="39" height="6" fill="black"/>
<path d="M13.0356 51H101.036L98.8126 55H14.5617L13.0356 51Z" fill="#D9D9D9"/>
<path d="M15.6402 58H97.7587L95.5356 62H17.1662L15.6402 58Z" fill="#D9D9D9"/>
<defs>
<linearGradient id="paint0_linear_8_201" x1="56.2856" y1="1" x2="56.2856" y2="77" gradientUnits="userSpaceOnUse">
<stop offset="0.275009" stop-color="#737373"/>
<stop offset="1" stop-color="#D9D9D9"/>
</linearGradient>
</defs>
</svg>
