<svg width="85" height="113" viewBox="0 0 85 113" fill="none" xmlns="http://www.w3.org/2000/svg">
<rect x="49.3774" y="62.3676" width="3.25907" height="52.4521" transform="rotate(-27.7188 49.3774 62.3676)" fill="#565353"/>
<rect x="49.2432" y="12.6293" width="5.67384" height="51.7757" transform="rotate(0.268945 49.2432 12.6293)" fill="#565353"/>
<rect x="40" y="10.9295" width="12.3703" height="20.132" transform="rotate(-62.0705 40 10.9295)" fill="#565353"/>
<rect x="46.0508" y="56.6293" width="11.8589" height="10.8604" rx="5" transform="rotate(0.268945 46.0508 56.6293)" fill="#565353"/>
<rect x="49.5708" y="32.2271" width="8.25888" height="7.32107" rx="3.66054" transform="rotate(22.2809 49.5708 32.2271)" fill="#565353"/>
<rect x="67.5586" y="102.723" width="8.01462" height="11.5254" rx="4.00731" transform="rotate(-28.3958 67.5586 102.723)" fill="#141414"/>
<rect x="51.8848" y="60.7823" width="3.25907" height="48.6652" transform="rotate(90.6771 51.8848 60.7823)" fill="#565353"/>
<rect x="51.6396" y="64.8118" width="3.25907" height="48.6652" transform="rotate(-144.085 51.6396 64.8118)" fill="#565353"/>
<rect x="11.5254" y="57.6293" width="8.01462" height="11.5254" rx="4.00731" transform="rotate(90 11.5254 57.6293)" fill="#141414"/>
<rect x="77.501" y="33.6671" width="8.01462" height="11.5254" rx="4.00731" transform="rotate(-144.762 77.501 33.6671)" fill="#141414"/>
</svg>
