<svg width="48" height="167" viewBox="0 0 48 167" fill="none" xmlns="http://www.w3.org/2000/svg">
<circle cx="24" cy="142.022" r="23.5" fill="url(#paint0_linear_6_55)" stroke="black"/>
<rect x="22.5" y="30.9999" width="3" height="111" fill="url(#paint1_linear_6_55)" stroke="black"/>
<path d="M27.4286 33.4999H20.5714V13.2064L16 8.13298C16 8.13298 19.2 3.56679 20.5714 2.04493C21.9429 0.523066 25.5238 -0.491761 27.4286 2.04493L32 8.13298L27.4286 13.2064V33.4999Z" fill="url(#paint2_linear_6_55)"/>
<path d="M27.4286 13.2064V33.4999H20.5714V13.2064M27.4286 13.2064L32 8.13298C32 8.13298 29.3333 4.58162 27.4286 2.04493C25.5238 -0.491761 21.9429 0.523066 20.5714 2.04493C19.2 3.56679 16 8.13298 16 8.13298L20.5714 13.2064M27.4286 13.2064H20.5714" stroke="black"/>
<defs>
<linearGradient id="paint0_linear_6_55" x1="24" y1="118.022" x2="24" y2="166.022" gradientUnits="userSpaceOnUse">
<stop stop-color="#B2B2B2"/>
<stop offset="1" stop-color="#141414"/>
</linearGradient>
<linearGradient id="paint1_linear_6_55" x1="24" y1="30.4999" x2="24" y2="142.5" gradientUnits="userSpaceOnUse">
<stop stop-color="#8B8B8B"/>
<stop offset="1" stop-color="#737373"/>
</linearGradient>
<linearGradient id="paint2_linear_6_55" x1="24" y1="0.499878" x2="24" y2="33.4999" gradientUnits="userSpaceOnUse">
<stop stop-color="#737373"/>
<stop offset="1" stop-color="#D9D9D9"/>
</linearGradient>
</defs>
</svg>
